<svg width="245" height="247" viewBox="0 0 245 247" fill="none" xmlns="http://www.w3.org/2000/svg">
<g clip-path="url(#clip0)">
<path d="M223 126.611C224.706 70.6533 181.093 23.8964 125.588 22.1769C70.0826 20.4575 23.7043 64.4266 21.9988 120.385C20.2932 176.343 63.9063 223.1 119.411 224.819C174.916 226.539 221.295 182.569 223 126.611Z" fill="#819FDE"/>
<path d="M209.119 210.828C256.958 162.598 256.958 84.4021 209.119 36.1723C161.28 -12.0574 83.7171 -12.0574 35.8779 36.1723C-11.9613 84.4021 -11.9613 162.598 35.8779 210.828C83.7171 259.057 161.28 259.057 209.119 210.828Z" fill="#FFEFE9"/>
<path d="M112 132.093C112 132.093 85.772 132.093 76.59 136.729C67.408 141.364 62.8243 153.249 64.7866 161.192C66.749 169.135 56.2636 188.978 67.364 199.534C77.3808 209.042 85.2741 207.876 88.6862 206.577C89.0669 206.429 89.4038 206.281 89.6674 206.148C92.2887 204.82 89.6674 241.183 89.6674 241.183C89.6674 241.183 155.904 245.155 159.843 241.183C163.782 237.212 165.086 153.914 155.904 144.657C146.722 135.4 121.138 132.093 121.138 132.093H112Z" fill="#6DAAA3"/>
<path d="M109.716 108.618L108.734 132.093L130.247 146.488C130.444 146.602 130.665 146.668 130.891 146.682C131.118 146.695 131.345 146.655 131.554 146.565C131.763 146.474 131.948 146.336 132.095 146.162C132.241 145.987 132.346 145.78 132.4 145.557L135.944 126.468L114.958 100.69L109.716 108.618Z" fill="#FCA89E"/>
<g style="mix-blend-mode:multiply" opacity="0.45">
<path d="M108.075 123.5C108.075 123.5 111.356 126.143 113.933 123.5C113.933 123.5 129.017 149.293 142.123 144.657C155.23 140.021 128.358 118.864 128.358 118.864L114.665 108.397L106.757 114.302L108.075 123.5Z" fill="#FCA89E"/>
</g>
<path d="M111.019 100.026C121.519 99.3611 122.822 82.176 122.822 80.1976C122.822 78.2192 139.224 72.919 143.163 74.8974C147.102 76.8757 147.893 88.9083 148.084 89.7794C153.839 86.2656 158.891 73.7015 156.27 66.3048C152.99 57.0478 149.065 60.3992 146.443 62.3333C143.822 64.2674 143.808 55.0695 130.042 47.1265C116.276 39.1835 132.004 56.3834 115.69 55.0695C99.3765 53.7555 97.9121 70.2763 97.9121 70.2763C89.3744 70.2763 83.4728 77.5549 90.0334 84.8187C96.5941 92.0825 91.3514 92.7617 90.0334 99.3611C89.3452 102.816 95.979 104.278 102.481 104.898C103.452 103.493 104.723 102.327 106.201 101.483C107.678 100.64 109.325 100.142 111.019 100.026Z" fill="#2B79E6"/>
<path d="M128.079 109.947C140.146 115.232 151.364 109.105 155.362 106.433C152.433 101.782 149.944 97.1023 149.709 92.7617C149.61 90.7717 149.331 88.7949 148.874 86.8562L149.05 86.7528C148.86 85.8817 146.897 76.8167 143.192 74.9417C139.487 73.0667 122.822 78.2488 122.822 80.1976C122.822 81.7626 121.987 92.9389 116.379 97.7962C118.568 103.223 122.764 107.58 128.079 109.947Z" fill="#FCA89E"/>
<path d="M155.362 106.433C151.364 109.106 140.146 115.292 128.08 109.947C122.758 107.583 118.557 103.226 116.364 97.7964C114.879 99.1295 112.99 99.9154 111.004 100.026C109.318 100.149 107.68 100.65 106.211 101.493C104.741 102.336 103.477 103.499 102.51 104.898C106.44 105.25 110.385 105.388 114.328 105.311C117.609 143.003 156.958 140.361 163.519 130.41C167.78 124.017 160.854 115.159 155.362 106.433Z" fill="#2E5271"/>
<path d="M89.9638 111.518L120.085 113.205L120.944 97.6092L90.8233 95.922L89.9638 111.518Z" fill="#112256"/>
<path d="M88.7302 123.825C88.7302 123.825 88.7302 103.332 92.0106 100.69C95.2909 98.047 103.155 88.1257 107.094 90.7684C111.034 93.4111 109.057 94.7399 111.678 96.0539C114.299 97.3679 112.996 99.361 114.958 100.69C116.921 102.019 119.542 107.304 118.239 107.304H112.381C112.381 107.304 103.199 124.489 99.2009 123.825L98.5419 126.468H88.7302V123.825Z" fill="#FCA89E"/>
<path d="M98.2343 126.143C98.2343 126.143 99.5523 191.606 93.636 195.533C87.7197 199.46 72.0063 194.884 75.2866 181.655C78.5669 168.427 90.3703 120.164 90.3703 120.164L98.2343 126.143Z" fill="#FCA89E"/>
<path d="M128.402 114.243C128.402 114.243 139.868 117.713 145.111 116.546C145.205 116.52 145.305 116.521 145.399 116.549C145.493 116.577 145.578 116.631 145.643 116.704C145.709 116.778 145.752 116.868 145.77 116.966C145.787 117.063 145.777 117.163 145.741 117.255C145.03 119.059 144.495 120.928 144.144 122.836C144.144 124.164 132.341 122.171 128.402 114.243Z" fill="#EFFDFF"/>
<path d="M141.259 94.4004C141.259 94.4004 156.577 103.687 152.418 107.688C148.259 111.689 145.096 111.054 145.096 111.054C145.096 111.054 139.692 96.7626 141.259 94.4004Z" fill="#FB8E83"/>
<path d="M128.402 97.7075C128.347 96.8581 128.579 96.015 129.061 95.3158C129.332 94.9358 129.682 94.6201 130.087 94.3906C130.491 94.1611 130.941 94.0234 131.404 93.987C132.285 93.956 133.153 94.1982 133.893 94.6809C134.226 94.9168 134.544 95.1732 134.845 95.4487C135.124 95.7464 135.383 96.062 135.621 96.3935C135.237 96.2875 134.86 96.1543 134.494 95.9949C134.142 95.8473 133.776 95.7587 133.454 95.6258C132.822 95.4102 132.159 95.3005 131.492 95.301C130.877 95.3461 130.295 95.5953 129.837 96.0097C129.285 96.5082 128.802 97.0792 128.402 97.7075Z" fill="#F7958D"/>
<path d="M149.709 91.3295C149.451 90.7089 148.998 90.1904 148.421 89.8531C148.092 89.6705 147.729 89.5614 147.355 89.5334C146.98 89.5053 146.605 89.559 146.253 89.6907C145.596 89.9689 145.042 90.4495 144.672 91.0638C144.505 91.3534 144.358 91.6543 144.232 91.9644C144.127 92.273 144.044 92.5887 143.983 92.9093C144.227 92.7031 144.457 92.4812 144.672 92.2449C144.877 92.0087 145.111 91.8167 145.316 91.5953C145.696 91.2148 146.143 90.9094 146.634 90.6947C147.109 90.5348 147.623 90.5348 148.098 90.6947C148.658 90.8414 149.199 91.0545 149.709 91.3295Z" fill="#F7958D"/>
<path d="M124.975 92.5845C125.166 91.5188 125.591 90.5098 126.22 89.6317C127.904 87.2399 130.613 86.9446 133.308 87.4909C134.552 87.7419 134.772 85.7783 133.586 85.5273C132.064 85.0911 130.451 85.0922 128.93 85.5304C127.408 85.9686 126.039 86.8266 124.975 88.0076C123.945 89.2824 123.273 90.8117 123.027 92.4368C122.992 92.6972 123.061 92.9609 123.219 93.17C123.377 93.379 123.611 93.5163 123.869 93.5515C124.128 93.5867 124.389 93.5171 124.596 93.3579C124.804 93.1987 124.94 92.963 124.975 92.7026V92.5845Z" fill="#2E5271"/>
<path d="M141.787 84.361C142.527 83.8494 143.374 83.516 144.262 83.3866C146.619 83.047 148.333 84.5087 149.534 86.4132C150.09 87.299 151.393 86.3394 150.837 85.4683C150.234 84.3148 149.324 83.3539 148.209 82.6939C147.094 82.0339 145.818 81.7012 144.525 81.7331C143.206 81.833 141.937 82.2867 140.85 83.047C140.696 83.1793 140.597 83.3649 140.573 83.5672C140.548 83.7694 140.6 83.9735 140.718 84.1388C140.836 84.3042 141.012 84.4189 141.21 84.46C141.408 84.5012 141.614 84.4659 141.787 84.361Z" fill="#2E5271"/>
</g>
<defs>
<clipPath id="clip0">
<rect width="245" height="247" fill="white"/>
</clipPath>
</defs>
</svg>
