<svg width="14" height="11" viewBox="0 0 14 11" fill="none" xmlns="http://www.w3.org/2000/svg">
<path d="M12.0558 3.5187H8.67192V1.33124C8.67137 0.978334 8.52123 0.640028 8.25442 0.390483C7.98761 0.140939 7.6259 0.000517084 7.24857 0H2.178C1.80067 0.000517084 1.43895 0.140939 1.17214 0.390483C0.90533 0.640028 0.755192 0.978334 0.75464 1.33124V4.29673C0.754327 4.55932 0.838039 4.81598 0.995001 5.0337C1.49662 5.93684 3.81036 7.27199 3.83544 7.28567C3.88478 7.31319 3.94102 7.32803 3.99847 7.32868C4.04991 7.32911 4.10067 7.31762 4.14621 7.29522C4.19174 7.27282 4.23064 7.24023 4.25941 7.20034C4.28819 7.16045 4.30595 7.11452 4.31112 7.06664C4.31628 7.01877 4.30868 6.97044 4.28899 6.92598C4.12094 6.50153 3.99091 6.06475 3.90023 5.62015H5.57231V7.80957C5.57285 8.16061 5.72162 8.49725 5.98624 8.7462C6.25085 8.99516 6.6099 9.13628 6.98522 9.13886H10.3294C10.2385 9.58213 10.1084 10.0176 9.94061 10.4408C9.92093 10.4852 9.91333 10.5336 9.91849 10.5814C9.92365 10.6293 9.94141 10.6752 9.97019 10.7151C9.99897 10.755 10.0379 10.7876 10.0834 10.81C10.1289 10.8324 10.1797 10.8439 10.2311 10.8435C10.2886 10.8428 10.3448 10.828 10.3942 10.8005C10.4192 10.7868 12.733 9.45163 13.2346 8.5485C13.392 8.33023 13.4757 8.07282 13.475 7.80957V4.84995C13.4744 4.49771 13.3249 4.16 13.0589 3.91056C12.793 3.66113 12.4324 3.52025 12.0558 3.5187ZM4.9202 5.0337H3.52402C3.47874 5.03433 3.43412 5.04388 3.39306 5.06173C3.35201 5.07958 3.31544 5.10534 3.28575 5.13731C3.25648 5.16929 3.23498 5.20681 3.22271 5.24731C3.21044 5.28781 3.2077 5.33031 3.21468 5.37189C3.21468 5.39926 3.28993 5.82346 3.42369 6.3278C2.72142 5.87037 1.7976 5.20573 1.54261 4.76394C1.53424 4.74471 1.52373 4.72636 1.51125 4.7092C1.41721 4.5861 1.36744 4.43824 1.36913 4.28696V1.33124C1.3694 1.23252 1.39059 1.13482 1.43149 1.0438C1.47239 0.952786 1.53218 0.870259 1.6074 0.800995C1.68263 0.731731 1.77179 0.677106 1.86973 0.64028C1.96767 0.603454 2.07245 0.585158 2.178 0.586451H7.24857C7.4596 0.586967 7.66183 0.665602 7.81105 0.805166C7.96027 0.94473 8.04434 1.13387 8.04489 1.33124V3.5187H6.98522C6.78245 3.51895 6.58208 3.55972 6.39752 3.63827C6.21296 3.71682 6.04848 3.83135 5.91509 3.97418C5.69308 3.96765 5.47421 3.92327 5.26925 3.84321C5.5989 3.45536 5.80014 2.98584 5.8482 2.49242H6.0175C6.10065 2.49242 6.1804 2.46152 6.23919 2.40653C6.29799 2.35154 6.33102 2.27696 6.33102 2.19919C6.33102 2.12142 6.29799 2.04684 6.23919 1.99185C6.1804 1.93686 6.10065 1.90597 6.0175 1.90597H5.0268V1.38402C5.0268 1.30626 4.99377 1.23167 4.93497 1.17668C4.87617 1.12169 4.79643 1.0908 4.71328 1.0908C4.63013 1.0908 4.55039 1.12169 4.49159 1.17668C4.4328 1.23167 4.39977 1.30626 4.39977 1.38402V1.90597H3.42369C3.34054 1.90597 3.2608 1.93686 3.202 1.99185C3.14321 2.04684 3.11018 2.12142 3.11018 2.19919C3.11018 2.27696 3.14321 2.35154 3.202 2.40653C3.2608 2.46152 3.34054 2.49242 3.42369 2.49242H5.217C5.17271 2.86587 5.01291 3.21914 4.75717 3.50893C4.57401 3.31862 4.43205 3.09688 4.33915 2.85602C4.30922 2.78343 4.24968 2.72494 4.17364 2.69341C4.0976 2.66189 4.01128 2.6599 3.93368 2.6879C3.85607 2.7159 3.79353 2.77158 3.75982 2.8427C3.72612 2.91382 3.72399 2.99455 3.75393 3.06714C3.86747 3.35223 4.03294 3.61679 4.24301 3.84907C3.98614 3.94585 3.71101 3.99306 3.43414 3.98787C3.35099 3.98787 3.27125 4.01876 3.21245 4.07375C3.15366 4.12874 3.12063 4.20332 3.12063 4.28109C3.12063 4.35886 3.15366 4.43344 3.21245 4.48843C3.27125 4.54342 3.35099 4.57432 3.43414 4.57432C3.89849 4.58275 4.35632 4.47114 4.75717 4.25177C5.01568 4.39932 5.30377 4.49579 5.60366 4.53522C5.57601 4.63747 5.56197 4.74252 5.56186 4.84799V5.04348L4.9202 5.0337ZM12.8626 7.80957C12.8643 7.96085 12.8145 8.10872 12.7204 8.23181C12.708 8.2483 12.6975 8.26599 12.6891 8.28459C12.4425 8.72248 11.5165 9.38908 10.808 9.84846C10.948 9.34412 11.017 8.91992 11.017 8.89255C11.024 8.85097 11.0213 8.80847 11.009 8.76797C10.9967 8.72747 10.9752 8.68995 10.9459 8.65797C10.9169 8.62569 10.8807 8.59958 10.84 8.58138C10.7993 8.56318 10.7549 8.5533 10.7098 8.55241H6.98522C6.77438 8.55241 6.57215 8.47421 6.42287 8.33495C6.27359 8.1957 6.18944 8.00676 6.18889 7.80957V4.84995C6.18944 4.65258 6.27352 4.46343 6.42274 4.32387C6.57196 4.18431 6.77419 4.10567 6.98522 4.10516H12.0558C12.2668 4.10567 12.469 4.18431 12.6183 4.32387C12.7675 4.46343 12.8516 4.65258 12.8521 4.84995L12.8626 7.80957ZM10.6533 6.72268L9.8173 4.76784C9.81299 4.75687 9.80738 4.74638 9.80058 4.73657L9.78804 4.71702C9.78226 4.70774 9.77524 4.6992 9.76713 4.69161L9.75041 4.67206L9.72742 4.65446L9.70234 4.64274C9.6954 4.63769 9.68764 4.63373 9.67935 4.63101L9.648 4.61537C9.64038 4.61423 9.63262 4.61423 9.62501 4.61537L9.59366 4.60559H9.56231H9.53304H9.4996H9.47243L9.4369 4.61537C9.42996 4.61451 9.42293 4.61451 9.416 4.61537L9.38465 4.63101L9.3533 4.64274C9.34513 4.648 9.33744 4.65389 9.3303 4.66033L9.30731 4.67792L9.2885 4.69747C9.28104 4.70557 9.27406 4.71406 9.2676 4.72288V4.74243L9.24879 4.77371L8.41275 6.72855L7.99473 7.70596C7.97782 7.7423 7.96895 7.78147 7.96868 7.82111C7.9684 7.86074 7.97672 7.90002 7.99313 7.93656C8.00954 7.9731 8.0337 8.00615 8.06415 8.03372C8.0946 8.06128 8.13071 8.08279 8.1703 8.09693C8.20725 8.11176 8.24714 8.11909 8.28735 8.11843C8.34977 8.11811 8.4107 8.10048 8.46241 8.06777C8.51412 8.03507 8.55431 7.98875 8.57787 7.93468L8.91647 7.14102H10.1705L10.5091 7.93468C10.5331 7.9889 10.5736 8.03529 10.6257 8.06799C10.6778 8.10069 10.739 8.11824 10.8017 8.11843C10.8412 8.11887 10.8804 8.11155 10.9167 8.09693C10.9563 8.08279 10.9924 8.06128 11.0228 8.03372C11.0533 8.00615 11.0774 7.9731 11.0939 7.93656C11.1103 7.90002 11.1186 7.86074 11.1183 7.82111C11.118 7.78147 11.1092 7.7423 11.0923 7.70596L10.6533 6.72268ZM9.15474 6.54284L9.52886 5.67098L9.9009 6.54284H9.15474Z" fill="#0A5DC1"/>
</svg>
