<svg width="168" height="168" viewBox="0 0 168 168" fill="none" xmlns="http://www.w3.org/2000/svg">
<path d="M142.799 142.799C175.466 110.132 175.466 57.1678 142.799 24.5004C110.131 -8.16694 57.1669 -8.16693 24.4996 24.5004C-8.16778 57.1678 -8.16778 110.132 24.4996 142.799C57.1669 175.467 110.131 175.467 142.799 142.799Z" fill="#FFEFE9"/>
<path d="M76.48 89.4702C76.48 89.4702 58.57 89.4702 52.3 92.6102C46.03 95.7502 42.9 103.8 44.24 109.18C45.58 114.56 38.42 128 46 135.15C52.84 141.59 58.23 140.8 60.56 139.92C60.82 139.82 61.05 139.72 61.23 139.63C63.02 138.73 61.23 163.36 61.23 163.36C61.23 163.36 106.46 166.05 109.15 163.36C111.84 160.67 112.73 104.25 106.46 97.9802C100.19 91.7102 82.72 89.4702 82.72 89.4702H76.48Z" fill="#6DAAA3"/>
<path d="M74.92 73.5702L74.25 89.4702L88.94 99.2202C89.0745 99.2975 89.2252 99.3425 89.38 99.3516C89.5349 99.3606 89.6898 99.3336 89.8324 99.2724C89.975 99.2113 90.1014 99.1179 90.2017 98.9995C90.3019 98.881 90.3732 98.7409 90.41 98.5902L92.83 85.6602L78.5 68.2002L74.92 73.5702Z" fill="#FCA89E"/>
<g style="mix-blend-mode:multiply" opacity="0.45">
<path d="M73.8001 83.6499C73.8001 83.6499 76.0401 85.4399 77.8001 83.6499C77.8001 83.6499 88.1001 101.12 97.0501 97.9799C106 94.8399 87.6501 80.5099 87.6501 80.5099L78.3001 73.4199L72.9001 77.4199L73.8001 83.6499Z" fill="#FCA89E"/>
</g>
<path d="M75.81 67.7502C82.98 67.3002 83.87 55.6602 83.87 54.3202C83.87 52.9802 95.07 49.3902 97.76 50.7302C100.45 52.0702 100.99 60.2202 101.12 60.8102C105.05 58.4302 108.5 49.9202 106.71 44.9102C104.47 38.6402 101.79 40.9102 100 42.2202C98.21 43.5302 98.2 37.3002 88.8 31.9202C79.4 26.5402 90.14 38.1902 79 37.3002C67.86 36.4102 66.86 47.6002 66.86 47.6002C61.03 47.6002 57 52.5302 61.48 57.4502C65.96 62.3702 62.38 62.8302 61.48 67.3002C61.01 69.6402 65.54 70.6302 69.98 71.0502C70.643 70.0991 71.511 69.3089 72.52 68.7378C73.529 68.1666 74.6533 67.8292 75.81 67.7502Z" fill="#2B79E6"/>
<path d="M87.4602 74.4702C95.7002 78.0502 103.36 73.9002 106.09 72.0902C104.09 68.9402 102.39 65.7702 102.23 62.8302C102.163 61.4823 101.972 60.1433 101.66 58.8302L101.78 58.7602C101.65 58.1702 100.31 52.0302 97.7802 50.7602C95.2502 49.4902 83.8702 53.0002 83.8702 54.3202C83.8702 55.3802 83.3002 62.9502 79.4702 66.2402C80.9655 69.9158 83.8304 72.8668 87.4602 74.4702Z" fill="#FCA89E"/>
<path d="M106.09 72.0902C103.36 73.9002 95.7 78.0902 87.46 74.4702C83.8264 72.869 80.9577 69.9177 79.46 66.2402C78.446 67.1432 77.1557 67.6755 75.8 67.7502C74.6485 67.8335 73.5301 68.1731 72.5266 68.744C71.5232 69.315 70.6599 70.1029 70 71.0502C72.683 71.2886 75.3769 71.382 78.07 71.3302C80.31 96.8602 107.18 95.0702 111.66 88.3302C114.57 84.0002 109.84 78.0002 106.09 72.0902Z" fill="#2E5271"/>
<path d="M61.4325 75.5345L82.0007 76.6772L82.5876 66.1135L62.0194 64.9708L61.4325 75.5345Z" fill="#112256"/>
<path d="M60.5901 83.8701C60.5901 83.8701 60.5901 69.9901 62.8301 68.2001C65.0701 66.4101 70.4401 59.6901 73.1301 61.4801C75.8201 63.2701 74.4701 64.1701 76.2601 65.0601C78.0501 65.9501 77.1601 67.3001 78.5001 68.2001C79.8401 69.1001 81.6301 72.6801 80.7401 72.6801H76.7401C76.7401 72.6801 70.4701 84.3201 67.7401 83.8701L67.2901 85.6601H60.5901V83.8701Z" fill="#FCA89E"/>
<path d="M67.0802 85.4401C67.0802 85.4401 67.9802 129.78 63.9402 132.44C59.9002 135.1 49.1702 132 51.4102 123.04C53.6502 114.08 61.7102 81.3901 61.7102 81.3901L67.0802 85.4401Z" fill="#FCA89E"/>
<path d="M87.6802 77.3799C87.6802 77.3799 95.5102 79.7299 99.0902 78.9399C99.1547 78.9221 99.2229 78.9227 99.2872 78.9416C99.3514 78.9605 99.4091 78.9969 99.4537 79.0468C99.4984 79.0967 99.5283 79.158 99.54 79.2239C99.5518 79.2898 99.5449 79.3577 99.5202 79.4199C99.035 80.6415 98.6699 81.9075 98.4302 83.1999C98.4302 84.0999 90.3702 82.7499 87.6802 77.3799Z" fill="#EFFDFF"/>
<path d="M96.46 63.9399C96.46 63.9399 106.92 70.2299 104.08 72.9399C101.24 75.6499 99.08 75.2199 99.08 75.2199C99.08 75.2199 95.39 65.5399 96.46 63.9399Z" fill="#FB8E83"/>
<path d="M87.6802 66.18C87.6427 65.6047 87.8014 65.0336 88.1302 64.56C88.3154 64.3027 88.5545 64.0888 88.8308 63.9334C89.1072 63.7779 89.4141 63.6846 89.7302 63.66C90.3316 63.639 90.925 63.803 91.4302 64.13C91.6574 64.2897 91.8745 64.4634 92.0802 64.65C92.2705 64.8517 92.4475 65.0654 92.6102 65.29C92.3475 65.2182 92.0902 65.1279 91.8402 65.02C91.6002 64.92 91.3502 64.86 91.1302 64.77C90.6985 64.6239 90.2459 64.5496 89.7902 64.55C89.3708 64.5805 88.9734 64.7494 88.6602 65.03C88.2834 65.3676 87.9538 65.7544 87.6802 66.18Z" fill="#F7958D"/>
<path d="M102.23 61.8602C102.054 61.4398 101.745 61.0886 101.35 60.8602C101.126 60.7364 100.877 60.6626 100.622 60.6436C100.367 60.6246 100.11 60.6609 99.8701 60.7502C99.421 60.9386 99.043 61.2641 98.7901 61.6802C98.6761 61.8763 98.5759 62.0802 98.4901 62.2902C98.4182 62.4992 98.3614 62.7131 98.3201 62.9302C98.4863 62.7905 98.6433 62.6402 98.7901 62.4802C98.9301 62.3202 99.0901 62.1902 99.2301 62.0402C99.4894 61.7825 99.7946 61.5756 100.13 61.4302C100.455 61.3219 100.806 61.3219 101.13 61.4302C101.512 61.5295 101.882 61.6739 102.23 61.8602Z" fill="#F7958D"/>
<path d="M85.3402 62.71C85.4706 61.9883 85.7611 61.3049 86.1902 60.71C87.3402 59.09 89.1902 58.89 91.0302 59.26C91.8802 59.43 92.0302 58.1 91.2202 57.93C90.1809 57.6346 89.0797 57.6353 88.0408 57.9321C87.0019 58.229 86.0665 58.8101 85.3402 59.61C84.6372 60.4735 84.178 61.5093 84.0102 62.61C83.9863 62.7864 84.0335 62.965 84.1413 63.1066C84.2492 63.2482 84.4088 63.3412 84.5852 63.365C84.7616 63.3889 84.9402 63.3417 85.0818 63.2339C85.2234 63.1261 85.3163 62.9664 85.3402 62.79V62.71Z" fill="#2E5271"/>
<path d="M96.8201 57.1398C97.3254 56.7933 97.9036 56.5675 98.5101 56.4798C100.12 56.2498 101.29 57.2398 102.11 58.5298C102.49 59.1298 103.38 58.4798 103 57.8898C102.589 57.1085 101.967 56.4577 101.206 56.0106C100.444 55.5636 99.5728 55.3382 98.6901 55.3598C97.7891 55.4275 96.9225 55.7348 96.1801 56.2498C96.0751 56.3394 96.0076 56.4651 95.9911 56.6021C95.9745 56.7391 96.01 56.8773 96.0905 56.9893C96.1711 57.1014 96.2908 57.179 96.4259 57.2069C96.5611 57.2348 96.7018 57.2108 96.8201 57.1398Z" fill="#2E5271"/>
</svg>
