<svg width="17" height="10" viewBox="0 0 17 10" fill="none" xmlns="http://www.w3.org/2000/svg">
<g clip-path="url(#clip0)">
<path d="M9.95101 5.96999C9.95273 6.38863 10.1703 6.78974 10.5563 7.08577C10.9422 7.38179 11.4652 7.54868 12.011 7.54999C12.0969 7.54871 12.1789 7.52196 12.2396 7.47535C12.3004 7.42875 12.3353 7.3659 12.337 7.29999C12.337 7.23369 12.3026 7.1701 12.2415 7.12322C12.1804 7.07633 12.0975 7.04999 12.011 7.04999C11.6682 7.0458 11.3392 6.94583 11.0856 6.76882C10.8321 6.59182 10.6714 6.34994 10.6338 6.08857C10.5962 5.82719 10.6843 5.56428 10.8814 5.34913C11.0785 5.13399 11.3713 4.9814 11.7046 4.91999C11.7873 4.90449 11.8591 4.86525 11.9052 4.81037C11.9512 4.75549 11.9681 4.68914 11.9523 4.62499C11.8595 4.28647 11.6065 3.98631 11.2422 3.78238C10.8778 3.57845 10.428 3.48519 9.97931 3.5206C9.53065 3.55601 9.11497 3.71756 8.81242 3.97412C8.50987 4.23067 8.34187 4.56406 8.34082 4.90999C8.34082 4.9763 8.37516 5.03989 8.43629 5.08677C8.49742 5.13366 8.58032 5.15999 8.66677 5.15999C8.75322 5.15999 8.83612 5.13366 8.89725 5.08677C8.95838 5.03989 8.99272 4.9763 8.99272 4.90999C8.99012 4.70772 9.07694 4.51074 9.23902 4.35117C9.4011 4.19159 9.62887 4.07883 9.88521 4.03127C10.1416 3.98372 10.4113 4.00417 10.6506 4.08928C10.8898 4.1744 11.0844 4.31917 11.2027 4.49999C10.8284 4.62316 10.5099 4.82839 10.2872 5.08993C10.0645 5.35147 9.94757 5.65764 9.95101 5.96999Z" fill="#0047AA"/>
<path d="M10.3616 1.75C9.35417 1.75132 8.38848 2.05886 7.67611 2.60524C6.96374 3.15163 6.56277 3.8923 6.56105 4.665C6.55934 5.22787 6.77235 5.77883 7.17383 6.25L9.65105 9.185C9.83989 9.41128 10.1198 9.58415 10.4483 9.6774C10.7768 9.77065 11.136 9.7792 11.4714 9.70174C11.8068 9.62428 12.1002 9.46504 12.3069 9.24817C12.5137 9.0313 12.6226 8.76863 12.6172 8.5C12.6172 8.4337 12.5828 8.37011 12.5217 8.32322C12.4606 8.27634 12.3777 8.25 12.2912 8.25C12.2048 8.25 12.1219 8.27634 12.0608 8.32322C11.9996 8.37011 11.9653 8.4337 11.9653 8.5C11.9668 8.65952 11.9006 8.81509 11.7766 8.94321C11.6527 9.07133 11.4778 9.16504 11.2783 9.21021C11.0789 9.25537 10.8656 9.24954 10.6709 9.19358C10.4761 9.13762 10.3103 9.03457 10.1986 8.9L7.71491 6C7.39911 5.63489 7.21876 5.21077 7.19318 4.77307C7.1676 4.33537 7.29776 3.90057 7.5697 3.51526C7.84165 3.12995 8.24515 2.80864 8.73696 2.58576C9.22877 2.36287 9.79038 2.24681 10.3616 2.25C10.8364 2.24764 11.3041 2.33824 11.7205 2.51323C12.1369 2.68822 12.4881 2.94181 12.741 3.25C12.793 3.30274 12.8696 3.33795 12.9547 3.34821C13.0399 3.35847 13.1268 3.34298 13.1974 3.305C13.2544 3.26895 13.2934 3.21885 13.3076 3.16323C13.3219 3.10762 13.3106 3.04993 13.2756 3C12.9676 2.61945 12.5387 2.30512 12.029 2.08649C11.5193 1.86785 10.9456 1.75207 10.3616 1.75Z" fill="#0047AA"/>
<path d="M5.75258 6.25C5.79685 6.25016 5.84066 6.24311 5.88112 6.22932C5.92157 6.21552 5.95775 6.19531 5.98726 6.17C6.01762 6.14719 6.04173 6.11996 6.0582 6.08991C6.07466 6.05986 6.08314 6.02759 6.08314 5.995C6.08314 5.9624 6.07466 5.93014 6.0582 5.90009C6.04173 5.87004 6.01762 5.84281 5.98726 5.82C5.5402 5.48846 5.28239 5.03468 5.27018 4.55781C5.25796 4.08094 5.49233 3.61975 5.92207 3.275C5.95541 3.252 5.98221 3.22397 6.00078 3.19267C6.01936 3.16137 6.02931 3.12746 6.03002 3.09307C6.03073 3.05868 6.02219 3.02455 6.00491 2.99281C5.98764 2.96107 5.96202 2.93241 5.92964 2.90861C5.89727 2.88482 5.85884 2.8664 5.81676 2.85452C5.77468 2.84263 5.72986 2.83753 5.68509 2.83954C5.64033 2.84154 5.59659 2.85061 5.5566 2.86618C5.51661 2.88174 5.48125 2.90347 5.45271 2.93C4.9025 3.36977 4.60239 3.95907 4.61828 4.56845C4.63417 5.17782 4.96476 5.75745 5.53745 6.18C5.59506 6.22333 5.67192 6.24834 5.75258 6.25Z" fill="#0047AA"/>
<path d="M4.78787 2.62C4.82121 2.597 4.848 2.56897 4.86658 2.53767C4.88515 2.50637 4.89511 2.47246 4.89582 2.43807C4.89653 2.40368 4.88798 2.36955 4.87071 2.33781C4.85343 2.30608 4.82781 2.27741 4.79543 2.25362C4.76306 2.22982 4.72463 2.2114 4.68255 2.19952C4.64048 2.18763 4.59565 2.18253 4.55089 2.18454C4.50612 2.18655 4.46238 2.19562 4.42239 2.21118C4.38241 2.22675 4.34704 2.24847 4.3185 2.275C3.56463 2.87122 3.14366 3.66945 3.14508 4.5C3.14209 4.90139 3.24575 5.29903 3.44974 5.66868C3.65372 6.03832 3.95376 6.37222 4.33154 6.65C4.35997 6.67298 4.39442 6.69109 4.43261 6.70315C4.47081 6.71522 4.5119 6.72096 4.55318 6.72C4.59691 6.72048 4.6403 6.71408 4.68067 6.70118C4.72104 6.68828 4.75753 6.66916 4.78787 6.645C4.81842 6.62176 4.84267 6.59411 4.85921 6.56364C4.87576 6.53318 4.88428 6.5005 4.88428 6.4675C4.88428 6.4345 4.87576 6.40182 4.85921 6.37135C4.84267 6.34089 4.81842 6.31324 4.78787 6.29C4.47277 6.05894 4.22239 5.78105 4.05202 5.47328C3.88166 5.16552 3.79487 4.83435 3.79698 4.5C3.79488 3.79818 4.15047 3.12353 4.78787 2.62Z" fill="#0047AA"/>
</g>
<defs>
<clipPath id="clip0">
<rect width="15.6456" height="10" fill="white" transform="translate(0.772217)"/>
</clipPath>
</defs>
</svg>
