<svg width="9" height="9" viewBox="0 0 9 9" fill="none" xmlns="http://www.w3.org/2000/svg">
<path d="M6.04002 4.96993C6.04134 5.38857 6.20823 5.78968 6.50425 6.08571C6.80027 6.38173 7.20139 6.54861 7.62002 6.54993C7.68593 6.54865 7.74877 6.5219 7.79538 6.47529C7.84199 6.42868 7.86874 6.36584 7.87002 6.29993C7.87002 6.23363 7.84368 6.17004 7.7968 6.12316C7.74992 6.07627 7.68633 6.04993 7.62002 6.04993C7.3571 6.04574 7.10473 5.94577 6.91026 5.76876C6.7158 5.59176 6.59259 5.34988 6.56375 5.08851C6.53491 4.82713 6.60243 4.56422 6.75363 4.34907C6.90483 4.13393 7.12933 3.98134 7.38502 3.91993C7.44843 3.90443 7.50348 3.86519 7.53883 3.81031C7.57418 3.75543 7.58713 3.68908 7.57502 3.62493C7.5038 3.28641 7.30976 2.98625 7.03033 2.78232C6.75089 2.57839 6.40585 2.48513 6.06173 2.52054C5.71761 2.55594 5.39879 2.7175 5.16673 2.97406C4.93468 3.23061 4.80583 3.564 4.80502 3.90993C4.80502 3.97624 4.83136 4.03983 4.87825 4.08671C4.92513 4.13359 4.98872 4.15993 5.05502 4.15993C5.12133 4.15993 5.18492 4.13359 5.2318 4.08671C5.27868 4.03983 5.30502 3.97624 5.30502 3.90993C5.30303 3.70766 5.36962 3.51068 5.49393 3.35111C5.61824 3.19153 5.79295 3.07877 5.98956 3.03121C6.18617 2.98366 6.39309 3.0041 6.57659 3.08922C6.76009 3.17434 6.90935 3.31911 7.00002 3.49993C6.71296 3.6231 6.46869 3.82833 6.29789 4.08987C6.12709 4.3514 6.03738 4.65758 6.04002 4.96993Z" fill="#263655"/>
<path d="M6.35501 0.75C5.58231 0.751322 4.84164 1.05886 4.29525 1.60524C3.74887 2.15163 3.44133 2.8923 3.44001 3.665C3.4387 4.22787 3.60208 4.77883 3.91001 5.25L5.81001 8.185C5.95485 8.41128 6.16954 8.58415 6.4215 8.6774C6.67347 8.77065 6.94897 8.7792 7.20623 8.70174C7.46348 8.62428 7.68847 8.46504 7.84705 8.24817C8.00564 8.0313 8.08918 7.76863 8.08501 7.5C8.08501 7.4337 8.05867 7.37011 8.01179 7.32322C7.9649 7.27634 7.90131 7.25 7.83501 7.25C7.76871 7.25 7.70512 7.27634 7.65823 7.32322C7.61135 7.37011 7.58501 7.4337 7.58501 7.5C7.58616 7.65952 7.53537 7.81509 7.44032 7.94321C7.34528 8.07133 7.21112 8.16504 7.05812 8.21021C6.90513 8.25537 6.74159 8.24954 6.5922 8.19358C6.44281 8.13762 6.31568 8.03457 6.23001 7.9L4.32501 5C4.08279 4.63489 3.94447 4.21077 3.92485 3.77307C3.90523 3.33537 4.00506 2.90057 4.21364 2.51526C4.42222 2.12995 4.7317 1.80864 5.10892 1.58576C5.48613 1.36287 5.91688 1.24681 6.35501 1.25C6.71916 1.24764 7.07789 1.33824 7.39725 1.51323C7.71661 1.68822 7.98603 1.94181 8.18001 2.25C8.21985 2.30274 8.2786 2.33795 8.3439 2.34821C8.40919 2.35847 8.47592 2.34298 8.53001 2.305C8.57375 2.26895 8.60363 2.21885 8.61457 2.16323C8.62551 2.10762 8.61683 2.04993 8.59001 2C8.35378 1.61945 8.02479 1.30512 7.63387 1.08649C7.24295 0.867854 6.80291 0.752072 6.35501 0.75Z" fill="#263655"/>
<path d="M2.81998 5.25024C2.85394 5.2504 2.88754 5.24335 2.91857 5.22956C2.9496 5.21577 2.97735 5.19555 2.99998 5.17024C3.02327 5.14743 3.04176 5.1202 3.05439 5.09015C3.06702 5.0601 3.07352 5.02784 3.07352 4.99524C3.07352 4.96265 3.06702 4.93038 3.05439 4.90033C3.04176 4.87028 3.02327 4.84305 2.99998 4.82024C2.65709 4.48871 2.45935 4.03493 2.44999 3.55806C2.44062 3.08118 2.62038 2.61999 2.94998 2.27524C2.97556 2.25224 2.99611 2.22422 3.01036 2.19291C3.0246 2.16161 3.03224 2.1277 3.03278 2.09332C3.03333 2.05893 3.02677 2.0248 3.01352 1.99306C3.00027 1.96132 2.98062 1.93266 2.95579 1.90886C2.93096 1.88506 2.90148 1.86664 2.86921 1.85476C2.83694 1.84287 2.80256 1.83777 2.76822 1.83978C2.73389 1.84179 2.70034 1.85086 2.66967 1.86642C2.639 1.88199 2.61187 1.90371 2.58998 1.93024C2.16798 2.37002 1.9378 2.95932 1.94998 3.56869C1.96217 4.17807 2.21574 4.75769 2.65498 5.18024C2.69917 5.22358 2.75812 5.24859 2.81998 5.25024Z" fill="#263655"/>
<path d="M2.07996 1.61997C2.10554 1.59697 2.12609 1.56894 2.14033 1.53764C2.15458 1.50634 2.16222 1.47243 2.16276 1.43804C2.16331 1.40365 2.15675 1.36952 2.1435 1.33778C2.13025 1.30605 2.1106 1.27738 2.08577 1.25359C2.06094 1.22979 2.03146 1.21137 1.99919 1.19949C1.96692 1.1876 1.93254 1.1825 1.8982 1.18451C1.86387 1.18652 1.83032 1.19558 1.79965 1.21115C1.76898 1.22671 1.74185 1.24844 1.71996 1.27497C1.14175 1.87119 0.818874 2.66942 0.819964 3.49997C0.817671 3.90136 0.897177 4.299 1.05363 4.66865C1.21009 5.03829 1.44021 5.37219 1.72996 5.64997C1.75177 5.67295 1.77819 5.69106 1.80749 5.70312C1.83678 5.71519 1.8683 5.72093 1.89996 5.71997C1.9335 5.72045 1.96678 5.71405 1.99775 5.70115C2.02871 5.68825 2.05669 5.66913 2.07996 5.64497C2.1034 5.62173 2.12199 5.59408 2.13469 5.56361C2.14738 5.53315 2.15391 5.50047 2.15391 5.46747C2.15391 5.43447 2.14738 5.40179 2.13469 5.37132C2.12199 5.34086 2.1034 5.31321 2.07996 5.28997C1.83829 5.05891 1.64625 4.78102 1.51558 4.47325C1.38491 4.16549 1.31835 3.83432 1.31996 3.49997C1.31835 2.79815 1.59109 2.1235 2.07996 1.61997Z" fill="#263655"/>
</svg>
