<svg width="173" height="53" viewBox="0 0 173 53" fill="none" xmlns="http://www.w3.org/2000/svg">
<path d="M26.044 44L21.184 36.98H20.896H15.82V44H9.988V18.8H20.896C23.128 18.8 25.06 19.172 26.692 19.916C28.348 20.66 29.62 21.716 30.508 23.084C31.396 24.452 31.84 26.072 31.84 27.944C31.84 29.816 31.384 31.436 30.472 32.804C29.584 34.148 28.312 35.18 26.656 35.9L32.308 44H26.044ZM25.936 27.944C25.936 26.528 25.48 25.448 24.568 24.704C23.656 23.936 22.324 23.552 20.572 23.552H15.82V32.336H20.572C22.324 32.336 23.656 31.952 24.568 31.184C25.48 30.416 25.936 29.336 25.936 27.944ZM44.7407 44.432C42.7487 44.432 40.8167 44.168 38.9447 43.64C37.0967 43.088 35.6087 42.38 34.4807 41.516L36.4607 37.124C37.5407 37.916 38.8247 38.552 40.3127 39.032C41.8007 39.512 43.2887 39.752 44.7767 39.752C46.4327 39.752 47.6567 39.512 48.4487 39.032C49.2407 38.528 49.6367 37.868 49.6367 37.052C49.6367 36.452 49.3967 35.96 48.9167 35.576C48.4607 35.168 47.8607 34.844 47.1167 34.604C46.3967 34.364 45.4127 34.1 44.1647 33.812C42.2447 33.356 40.6727 32.9 39.4487 32.444C38.2247 31.988 37.1687 31.256 36.2807 30.248C35.4167 29.24 34.9847 27.896 34.9847 26.216C34.9847 24.752 35.3807 23.432 36.1727 22.256C36.9647 21.056 38.1527 20.108 39.7367 19.412C41.3447 18.716 43.3007 18.368 45.6047 18.368C47.2127 18.368 48.7847 18.56 50.3207 18.944C51.8567 19.328 53.2007 19.88 54.3527 20.6L52.5527 25.028C50.2247 23.708 47.8967 23.048 45.5687 23.048C43.9367 23.048 42.7247 23.312 41.9327 23.84C41.1647 24.368 40.7807 25.064 40.7807 25.928C40.7807 26.792 41.2247 27.44 42.1127 27.872C43.0247 28.28 44.4047 28.688 46.2527 29.096C48.1727 29.552 49.7447 30.008 50.9687 30.464C52.1927 30.92 53.2367 31.64 54.1007 32.624C54.9887 33.608 55.4327 34.94 55.4327 36.62C55.4327 38.06 55.0247 39.38 54.2087 40.58C53.4167 41.756 52.2167 42.692 50.6087 43.388C49.0007 44.084 47.0447 44.432 44.7407 44.432ZM69.613 18.8H75.445V39.248H88.081V44H69.613V18.8ZM108.147 38.6H96.4465L94.2145 44H88.2385L99.4705 18.8H105.231L116.499 44H110.379L108.147 38.6ZM106.311 34.172L102.315 24.524L98.3185 34.172H106.311ZM142.225 18.8V44H137.437L124.873 28.7V44H119.113V18.8H123.937L136.465 34.1V18.8H142.225ZM165.215 31.004H170.543V41.228C169.175 42.26 167.591 43.052 165.791 43.604C163.991 44.156 162.179 44.432 160.355 44.432C157.739 44.432 155.387 43.88 153.299 42.776C151.211 41.648 149.567 40.1 148.367 38.132C147.191 36.14 146.603 33.896 146.603 31.4C146.603 28.904 147.191 26.672 148.367 24.704C149.567 22.712 151.223 21.164 153.335 20.06C155.447 18.932 157.823 18.368 160.463 18.368C162.671 18.368 164.675 18.74 166.475 19.484C168.275 20.228 169.787 21.308 171.011 22.724L167.267 26.18C165.467 24.284 163.295 23.336 160.751 23.336C159.143 23.336 157.715 23.672 156.467 24.344C155.219 25.016 154.247 25.964 153.551 27.188C152.855 28.412 152.507 29.816 152.507 31.4C152.507 32.96 152.855 34.352 153.551 35.576C154.247 36.8 155.207 37.76 156.431 38.456C157.679 39.128 159.095 39.464 160.679 39.464C162.359 39.464 163.871 39.104 165.215 38.384V31.004Z" fill="#1958DB"/>
<path d="M1.0247 18.3203L0.265175 11.1359C0.00396365 8.66525 0.0401317 6.64963 3.01392 5.09302L3.08224 5.22074C0.180784 6.73744 0.144616 8.62534 0.409846 11.1199L1.16937 18.3043L1.0247 18.3203Z" fill="#2A2873"/>
<path d="M8.07739 5.00515L28.0982 4.58606L25.1887 12.7603L9.88578 12.7363L8.07739 5.00515Z" fill="#2B79E6"/>
<path d="M17.6418 8.77692L31.9561 5.02508L17.1113 0L2.71655 5.17275L17.6418 8.77692Z" fill="#0A5DC1"/>
<path d="M2.43529 20.252L0.972509 17.6776L0 20.4715L2.43529 20.252Z" fill="#2A2873"/>
</svg>
