<svg width="125" height="110" viewBox="0 0 125 110" fill="none" xmlns="http://www.w3.org/2000/svg">
<path d="M2.70557 83.7382L15.0823 72.2817H114.087L125 83.7382H2.70557Z" fill="#0E97CD"/>
<path d="M112.531 73.616H15.1741C14.3898 73.6015 13.6433 73.2766 13.0982 72.7125C12.5531 72.1484 12.2539 71.3913 12.2662 70.6069V9.62527C12.2539 8.84096 12.5531 8.08377 13.0982 7.5197C13.6433 6.95564 14.3898 6.63073 15.1741 6.61621H112.531C113.316 6.63074 114.064 6.95534 114.61 7.51914C115.157 8.08293 115.458 8.8401 115.448 9.62527V70.5793C115.457 70.9704 115.388 71.3594 115.246 71.7239C115.104 72.0883 114.891 72.4212 114.62 72.7033C114.349 72.9854 114.025 73.2113 113.667 73.3679C113.308 73.5245 112.922 73.6088 112.531 73.616Z" fill="#1958DB"/>
<path d="M108.759 11.3186H18.9563C17.4723 11.3186 16.2693 12.5216 16.2693 14.0056V68.3894C16.2693 69.8734 17.4723 71.0764 18.9563 71.0764H108.759C110.243 71.0764 111.446 69.8734 111.446 68.3894V14.0056C111.446 12.5216 110.243 11.3186 108.759 11.3186Z" fill="#B3E3EF"/>
<path d="M64.9476 8.58552C64.9476 8.80209 64.8834 9.01381 64.7631 9.19389C64.6428 9.37397 64.4718 9.51432 64.2717 9.5972C64.0716 9.68008 63.8514 9.70177 63.639 9.65951C63.4266 9.61726 63.2314 9.51297 63.0783 9.35983C62.9252 9.20668 62.8209 9.01156 62.7786 8.79915C62.7364 8.58673 62.758 8.36656 62.8409 8.16646C62.9238 7.96637 63.0642 7.79535 63.2442 7.67503C63.4243 7.5547 63.636 7.49048 63.8526 7.49048C64.143 7.49048 64.4216 7.60585 64.6269 7.81121C64.8323 8.01657 64.9476 8.29509 64.9476 8.58552Z" fill="#025482"/>
<path d="M118.706 92.8483H8.97189C8.14862 92.8495 7.33319 92.6882 6.57235 92.3737C5.81151 92.0592 5.12021 91.5977 4.53806 91.0155C3.95592 90.4334 3.49437 89.7421 3.17988 88.9812C2.86538 88.2204 2.70412 87.405 2.70533 86.5817V83.7383H125V86.5817C125.001 87.4073 124.839 88.225 124.523 88.9877C124.207 89.7503 123.743 90.4428 123.157 91.0253C122.572 91.6079 121.878 92.0688 121.114 92.3817C120.35 92.6945 119.531 92.8531 118.706 92.8483Z" fill="#0C5A9A"/>
<path d="M42.7434 73.5517C42.7434 73.8421 42.628 74.1206 42.4226 74.326C42.2173 74.5314 41.9387 74.6467 41.6483 74.6467H29.2808C28.9904 74.6467 28.7119 74.5314 28.5065 74.326C28.3012 74.1206 28.1858 73.8421 28.1858 73.5517C28.1858 73.4083 28.2142 73.2664 28.2693 73.134C28.3245 73.0017 28.4053 72.8816 28.5071 72.7806C28.6089 72.6797 28.7297 72.5999 28.8625 72.5459C28.9953 72.4918 29.1375 72.4646 29.2808 72.4659H41.6483C41.7917 72.4646 41.9339 72.4918 42.0667 72.5459C42.1995 72.5999 42.3203 72.6797 42.4221 72.7806C42.5239 72.8816 42.6047 73.0017 42.6598 73.134C42.715 73.2664 42.7434 73.4083 42.7434 73.5517Z" fill="#03436B"/>
<path d="M101.342 73.5517C101.344 73.8335 101.237 74.1052 101.043 74.3096C100.849 74.5139 100.583 74.6348 100.302 74.6467H87.8792C87.5888 74.6467 87.3103 74.5314 87.1049 74.326C86.8996 74.1206 86.7842 73.8421 86.7842 73.5517C86.7842 73.4083 86.8126 73.2664 86.8677 73.134C86.9229 73.0017 87.0037 72.8816 87.1055 72.7806C87.2073 72.6797 87.3281 72.5999 87.4609 72.5459C87.5937 72.4918 87.7359 72.4646 87.8792 72.4659H100.302C100.59 72.4659 100.866 72.5803 101.07 72.7839C101.273 72.9875 101.388 73.2637 101.388 73.5517H101.342Z" fill="#03436B"/>
<path d="M49.4792 82.1003L53.5465 78.3367H74.6467L78.2355 82.1003H49.4792Z" fill="#4396CA"/>
<path d="M67.4967 76.0361H60.678V76.3674H67.4967V76.0361Z" fill="white"/>
<path d="M18.5421 80.9316H10.8953V81.2629H18.5421V80.9316Z" fill="white"/>
<path d="M24.1827 76.0361H17.364V76.3674H24.1827V76.0361Z" fill="white"/>
<path d="M21.2657 78.2722H14.447V78.6035H21.2657V78.2722Z" fill="white"/>
<path d="M37.4613 76.0361H30.6426V76.3674H37.4613V76.0361Z" fill="white"/>
<path d="M34.0106 78.2722H27.1919V78.6035H34.0106V78.2722Z" fill="white"/>
<path d="M43.1115 80.9316H35.4646V81.2629H43.1115V80.9316Z" fill="white"/>
<path d="M50.3809 76.0361H43.5623V76.3674H50.3809V76.0361Z" fill="white"/>
<path d="M46.9303 78.2722H40.1116V78.6035H46.9303V78.2722Z" fill="white"/>
<path d="M30.9188 81.4746H23.272V81.8059H30.9188V81.4746Z" fill="white"/>
<path d="M118.089 80.9316H110.442V81.2629H118.089V80.9316Z" fill="white"/>
<path d="M111.62 76.0361H104.802V76.3674H111.62V76.0361Z" fill="white"/>
<path d="M114.528 78.2722H107.709V78.6035H114.528V78.2722Z" fill="white"/>
<path d="M98.3326 76.0361H91.5139V76.3674H98.3326V76.0361Z" fill="white"/>
<path d="M101.793 78.2722H94.9739V78.6035H101.793V78.2722Z" fill="white"/>
<path d="M93.5199 80.9316H85.873V81.2629H93.5199V80.9316Z" fill="white"/>
<path d="M85.4129 76.0361H78.5942V76.3674H85.4129V76.0361Z" fill="white"/>
<path d="M88.8729 78.2722H82.0542V78.6035H88.8729V78.2722Z" fill="white"/>
<path d="M105.713 81.4746H98.0657V81.8059H105.713V81.4746Z" fill="white"/>
<path d="M14.033 50.7031C14.033 50.7031 8.94432 55.1753 9.76329 57.1445C10.5823 59.1138 11.3184 58.6168 16.3979 58.5708C18.634 58.5708 20.4468 58.6445 21.3486 58.2304C23.1062 57.4114 22.6737 56.2335 22.2688 55.4698C21.228 53.8268 20.0943 52.2446 18.8733 50.7307L14.033 50.7031Z" fill="#FF645F"/>
<path d="M7.99647 76.2295H20.9713V79.3398C20.9713 80.15 20.6494 80.9271 20.0765 81.5C19.5035 82.073 18.7265 82.3948 17.9162 82.3948H7.99647C7.18622 82.3948 6.40915 82.073 5.83621 81.5C5.26328 80.9271 4.94141 80.15 4.94141 79.3398V79.2754C4.94384 78.4667 5.26679 77.692 5.83946 77.121C6.41213 76.5501 7.18781 76.2295 7.99647 76.2295Z" fill="#29266B"/>
<path d="M20.9713 76.2293H11.1988L12.119 73.3215L10.1221 61.8466C10.0981 61.5426 10.137 61.2368 10.2365 60.9485C10.336 60.6602 10.4938 60.3955 10.7002 60.1709C10.9066 59.9464 11.1571 59.7668 11.4361 59.6435C11.715 59.5202 12.0164 59.4557 12.3214 59.4541H20.0327C20.3377 59.4542 20.6394 59.5178 20.9186 59.6407C21.1978 59.7637 21.4483 59.9434 21.6542 60.1684C21.8602 60.3934 22.0171 60.6588 22.115 60.9477C22.2129 61.2366 22.2496 61.5428 22.2228 61.8466L20.4652 73.616L20.9713 76.2293Z" fill="#DA3F3A"/>
<path d="M16.7384 60.3558H15.2384C15.0074 60.3373 14.7918 60.2322 14.6348 60.0616C14.4779 59.891 14.3911 59.6675 14.3919 59.4356V57.5952C14.3911 57.3634 14.4779 57.1399 14.6348 56.9693C14.7918 56.7987 15.0074 56.6936 15.2384 56.675H16.7384C16.9694 56.6936 17.185 56.7987 17.342 56.9693C17.4989 57.1399 17.5857 57.3634 17.5849 57.5952V59.4356C17.5857 59.6675 17.4989 59.891 17.342 60.0616C17.185 60.2322 16.9694 60.3373 16.7384 60.3558Z" fill="#F7958D"/>
<path d="M19.3241 56.5923C18.726 58.6352 17.0144 58.3223 14.9716 57.715C14.4452 57.6111 13.9463 57.3984 13.5067 57.0907C13.0672 56.7829 12.6967 56.3868 12.419 55.9277C12.1414 55.4686 11.9626 54.9565 11.8941 54.4244C11.8256 53.8922 11.869 53.3516 12.0214 52.8371C12.1738 52.3226 12.4319 51.8457 12.7792 51.4367C13.1265 51.0277 13.5553 50.6956 14.0383 50.4619C14.5213 50.2281 15.0477 50.0977 15.5839 50.079C16.1202 50.0603 16.6544 50.1538 17.1525 50.3534C19.1677 50.9147 19.9039 54.5495 19.3241 56.5923Z" fill="#FCA89E"/>
<path d="M13.0852 52.4517C13.0852 52.4517 18.6708 53.1326 20.3548 52.4517C22.0388 51.7707 22.5173 50.6665 21.275 49.415C19.7198 47.8139 17.2077 48.6329 14.9992 50.1696C14.2739 50.8526 13.6315 51.6185 13.0852 52.4517Z" fill="#FF645F"/>
<path d="M15.0452 52.2211C15.0452 52.2211 15.0452 53.583 14.8612 53.583C14.6156 53.499 14.3505 53.4899 14.0998 53.5571C13.849 53.6243 13.6239 53.7647 13.4533 53.9603C12.9288 54.6137 13.4993 55.2762 14.1066 55.4142C14.714 55.5523 14.2999 57.1534 12.8368 56.8774C11.3736 56.6013 10.8675 53.1966 11.6129 51.8439C12.3583 50.4912 14.7692 49.0833 15.6158 49.1661C16.4623 49.2489 16.8764 51.2825 16.8764 51.2825L15.0452 52.2211Z" fill="#FF645F"/>
<path d="M5.1346 78.631L3.53345 96.4092H5.87996C5.87996 96.4092 9.64358 84.8331 10.0209 81.0787C10.3981 77.3243 7.66515 77.9776 7.66515 77.9776L5.1346 78.631Z" fill="#29266B"/>
<path d="M12.5609 78.631L10.9597 96.4092H13.3062C13.3062 96.4092 17.0698 84.8331 17.4839 81.0787C17.898 77.3243 15.1282 77.9776 15.1282 77.9776L12.5609 78.631Z" fill="#29266B"/>
<path d="M10.3062 60.7793L6.82788 67.3495L11.5209 66.9722L10.3062 60.7793Z" fill="#DA3F3A"/>
<path d="M21.6065 60.1902L27.6614 68.9229C27.8127 69.2331 27.8388 69.5897 27.7343 69.9186C27.6297 70.2475 27.4026 70.5237 27.1 70.6897L17.7232 72.8061L16.5085 70.7357L23.0788 68.3616L18.4042 63.6409L21.6065 60.1902Z" fill="#DA3F3A"/>
<path d="M17.5757 72.3004H13.7201L13.4348 70.6072H16.3426C16.6058 70.6054 16.861 70.6968 17.0631 70.8652C17.2653 71.0337 17.4012 71.2683 17.4469 71.5274L17.5757 72.3004Z" fill="#FCA89E"/>
<path d="M3.57939 96.4094H5.8799V98.1762H1.21448C0.910814 98.1762 0.80039 97.4861 1.06725 97.3388L3.57939 96.4094Z" fill="#FF645F"/>
<path d="M10.9597 96.4094H13.2602V98.1762H8.59476C8.28189 98.1762 8.18067 97.4861 8.44752 97.3388L10.9597 96.4094Z" fill="#FF645F"/>
<path d="M16.3337 70.837L16.2693 70.6437L22.1218 68.6377L22.1862 68.8309L16.3337 70.837Z" fill="#4396CA"/>
<path d="M23.6377 71.8016L16.9072 72.3679L16.9242 72.5697L23.6547 72.0033L23.6377 71.8016Z" fill="#4396CA"/>
<path d="M15.5606 72.3186H3.42313L1.75757 64.8005H13.895L15.5606 72.3186Z" fill="#97C7D3"/>
<path d="M18.5237 72.2632H3.41406V73.5423H18.5237V72.2632Z" fill="#97C7D3"/>
<path d="M9.20198 68.7667C9.20198 68.925 9.15503 69.0798 9.06706 69.2115C8.97909 69.3431 8.85406 69.4457 8.70777 69.5063C8.56148 69.5669 8.40052 69.5828 8.24522 69.5519C8.08992 69.521 7.94728 69.4447 7.83531 69.3328C7.72335 69.2208 7.6471 69.0782 7.61621 68.9229C7.58532 68.7676 7.60118 68.6066 7.66177 68.4603C7.72236 68.314 7.82498 68.189 7.95663 68.101C8.08828 68.0131 8.24307 67.9661 8.4014 67.9661C8.50688 67.9649 8.61154 67.9847 8.70922 68.0245C8.80691 68.0643 8.89566 68.1233 8.97025 68.1979C9.04483 68.2724 9.10376 68.3612 9.14355 68.4589C9.18335 68.5566 9.20321 68.6612 9.20198 68.7667Z" fill="#FCA89E"/>
<path d="M23.8148 73.2939H0V74.6006H23.8148V73.2939Z" fill="#B3E3EF"/>
<path d="M0.377282 73.4138H0V103.688H0.377282V73.4138Z" fill="#B3E3EF"/>
<path d="M23.8238 73.4138H23.4465V103.688H23.8238V73.4138Z" fill="#B3E3EF"/>
<path d="M18.9747 60.3925C18.9747 60.9549 18.8079 61.5046 18.4955 61.9722C18.183 62.4398 17.739 62.8043 17.2194 63.0195C16.6998 63.2347 16.1281 63.291 15.5765 63.1813C15.025 63.0716 14.5183 62.8007 14.1207 62.4031C13.723 62.0054 13.4522 61.4988 13.3425 60.9472C13.2328 60.3956 13.2891 59.8239 13.5043 59.3044C13.7195 58.7848 14.0839 58.3407 14.5515 58.0283C15.0191 57.7158 15.5689 57.5491 16.1313 57.5491C16.8854 57.5491 17.6086 57.8486 18.1419 58.3819C18.6751 58.9151 18.9747 59.6384 18.9747 60.3925Z" fill="#F7958D"/>
<path d="M105.206 76.3765H117.519V79.3303C117.519 79.711 117.444 80.0879 117.298 80.4396C117.152 80.7912 116.939 81.1108 116.67 81.3799C116.401 81.6491 116.081 81.8626 115.729 82.0083C115.378 82.154 115.001 82.2289 114.62 82.2289H105.206C104.826 82.2289 104.449 82.154 104.097 82.0083C103.746 81.8626 103.426 81.6491 103.157 81.3799C102.888 81.1108 102.674 80.7912 102.529 80.4396C102.383 80.0879 102.308 79.711 102.308 79.3303V79.2291C102.32 78.4683 102.631 77.7428 103.173 77.2091C103.715 76.6754 104.446 76.3764 105.206 76.3765Z" fill="#D2F7FF"/>
<path d="M117.519 76.294H108.317L107.176 62.6934C107.152 62.4055 107.187 62.1158 107.281 61.8424C107.374 61.5691 107.524 61.3181 107.719 61.1054C107.915 60.8926 108.152 60.7227 108.416 60.6064C108.681 60.4901 108.967 60.43 109.255 60.4297H116.617C116.907 60.4287 117.193 60.4879 117.459 60.6037C117.724 60.7194 117.963 60.8891 118.16 61.102C118.356 61.3149 118.506 61.5663 118.6 61.8402C118.694 62.1142 118.73 62.4047 118.706 62.6934L117.519 76.294Z" fill="#29266B"/>
<path d="M113.498 61.2763H112.071C111.958 61.2693 111.847 61.2398 111.745 61.1896C111.644 61.1394 111.553 61.0695 111.478 60.9838C111.404 60.8982 111.347 60.7986 111.311 60.6908C111.276 60.583 111.262 60.4693 111.271 60.3561V58.6077C111.262 58.4945 111.276 58.3807 111.311 58.273C111.347 58.1652 111.404 58.0656 111.478 57.98C111.553 57.8943 111.644 57.8244 111.745 57.7742C111.847 57.7239 111.958 57.6945 112.071 57.6875H113.498C113.612 57.6933 113.723 57.7219 113.826 57.7716C113.929 57.8213 114.021 57.8911 114.096 57.9768C114.172 58.0626 114.229 58.1626 114.266 58.2709C114.302 58.3793 114.316 58.4938 114.307 58.6077V60.3653C114.32 60.5933 114.242 60.817 114.09 60.9876C113.938 61.1583 113.725 61.2621 113.498 61.2763Z" fill="#F7958D"/>
<path d="M109.366 57.7056C109.936 59.638 111.556 59.3436 113.498 58.773C114.006 58.6804 114.488 58.4819 114.914 58.1905C115.341 57.899 115.701 57.5212 115.972 57.0815C116.242 56.6418 116.417 56.1501 116.486 55.6383C116.554 55.1265 116.514 54.6061 116.367 54.1109C116.221 53.6157 115.973 53.1567 115.638 52.7638C115.303 52.3709 114.889 52.0529 114.423 51.8304C113.957 51.6079 113.45 51.486 112.933 51.4725C112.417 51.4589 111.904 51.5541 111.427 51.7519C109.504 52.3224 108.795 55.764 109.366 57.7056Z" fill="#FCA89E"/>
<path d="M113.396 53.5557C113.396 53.5557 113.396 54.8532 113.58 54.8532C113.813 54.7754 114.064 54.768 114.301 54.8318C114.539 54.8956 114.752 55.0279 114.915 55.2121C115.402 55.8286 114.915 56.4544 114.289 56.5924C113.663 56.7304 114.114 58.2395 115.494 57.9727C116.875 57.7058 117.335 54.4483 116.654 53.2061C115.973 51.9638 113.663 50.5743 112.863 50.6571C112.062 50.7399 105.262 52.8012 105.262 52.8012L113.396 53.5557Z" fill="#DA3F3A"/>
<path d="M107.397 61.6719L103.035 69.1715L106.421 70.607L109.127 66.1717L107.397 61.6719Z" fill="#29266B"/>
<path d="M118.117 61.1196L123.868 69.4014C124.01 69.6959 124.034 70.0336 123.934 70.345C123.835 70.6565 123.62 70.9181 123.334 71.0762L115.053 75.2263L113.893 73.2663L119.561 68.8677L115.025 64.4139L118.117 61.1196Z" fill="#29266B"/>
<path d="M118.574 69.1628L113.688 73.9199L113.823 74.0584L118.708 69.3012L118.574 69.1628Z" fill="#F5ABBC"/>
<path d="M120.079 72.5924L114.484 75.5349L114.574 75.7059L120.169 72.7634L120.079 72.5924Z" fill="#F5ABBC"/>
<path d="M115.292 75.1804H100.955V76.3951H115.292V75.1804Z" fill="white"/>
<path d="M112.89 64.1195C114.557 64.1195 115.908 62.7682 115.908 61.1013C115.908 59.4343 114.557 58.083 112.89 58.083C111.223 58.083 109.872 59.4343 109.872 61.1013C109.872 62.7682 111.223 64.1195 112.89 64.1195Z" fill="#F7958D"/>
<path d="M115.163 75.2171H111.482L111.234 73.616H113.994C114.247 73.6241 114.488 73.7207 114.677 73.8889C114.865 74.0572 114.988 74.2863 115.025 74.5362L115.163 75.2171Z" fill="#FCA89E"/>
<path d="M112.476 75.2264H100.964L99.3909 68.104H110.903L112.476 75.2264Z" fill="white"/>
<path d="M106.467 71.8585C106.467 72.0095 106.422 72.1572 106.339 72.2828C106.255 72.4084 106.135 72.5063 105.996 72.5641C105.856 72.6219 105.703 72.6371 105.554 72.6076C105.406 72.5781 105.27 72.5054 105.163 72.3986C105.057 72.2917 104.984 72.1556 104.954 72.0075C104.925 71.8593 104.94 71.7058 104.998 71.5662C105.056 71.4266 105.154 71.3074 105.279 71.2234C105.405 71.1395 105.552 71.0947 105.703 71.0947C105.906 71.0947 106.1 71.1752 106.244 71.3184C106.387 71.4617 106.467 71.6559 106.467 71.8585Z" fill="#4E687F"/>
<path d="M109.504 78.6127L107.986 95.4892H110.222C110.222 95.4892 113.783 84.502 114.142 80.9316C114.501 77.3612 111.915 77.987 111.915 77.987L109.504 78.6127Z" fill="#FCA89E"/>
<path d="M54.209 54.8164H76.7079C81.6817 54.8164 86.4518 56.7922 89.9688 60.3092C93.4858 63.8262 95.4616 68.5963 95.4616 73.5701V84.1984C95.4616 89.1722 93.4858 93.9423 89.9688 97.4593C86.4518 100.976 81.6817 102.952 76.7079 102.952H54.209C51.7459 102.953 49.3067 102.469 47.0309 101.527C44.755 100.585 42.6871 99.2036 40.9455 97.462C39.2038 95.7203 37.8224 93.6524 36.8804 91.3766C35.9384 89.1007 35.4541 86.6615 35.4553 84.1984V73.5701C35.4541 71.107 35.9384 68.6678 36.8804 66.3919C37.8224 64.1161 39.2038 62.0482 40.9455 60.3065C42.6871 58.5649 44.755 57.1835 47.0309 56.2415C49.3067 55.2995 51.7459 54.8152 54.209 54.8164Z" fill="#29266B"/>
<path d="M73.7355 55.0554C73.7355 55.0554 72.5668 60.2913 65.8494 59.8956C59.1319 59.4999 58.0369 54.7425 58.0369 54.7425L58.2761 45.3564H73.2662L73.7355 55.0554Z" fill="#F7958D"/>
<path d="M60.3284 49.5987C67.3495 55.212 72.0425 51.2459 76.892 43.6542C82.6156 34.6271 82.6525 25.7195 75.6313 20.0971C73.961 18.7551 72.0422 17.756 69.985 17.1572C67.9277 16.5584 65.7725 16.3716 63.6429 16.6076C61.5133 16.8435 59.4512 17.4976 57.5749 18.5322C55.6987 19.5669 54.0451 20.9618 52.7091 22.6369C47.0867 29.658 53.3073 43.9763 60.3284 49.5987Z" fill="#FCA89E"/>
<path d="M62.3435 32.4646L74.2325 39.3293L62.3435 46.194V32.4646Z" fill="white"/>
<path d="M98.8662 40.4887H98.5349L100.072 25.8667C100.605 20.7964 100.532 16.9683 94.6885 13.9041L94.8449 13.6096C100.863 16.7843 100.937 20.8884 100.366 25.9219L98.8662 40.4887Z" fill="#2A2873"/>
<path d="M84.6125 13.398L44.1697 12.5422L50.0498 29.1703L80.9593 29.1242L84.6125 13.398Z" fill="#1958DB"/>
<path d="M65.2882 24.873L36.3755 13.4349L66.3648 0L95.4431 13.7386L65.2882 24.873Z" fill="#29266B"/>
<path d="M96.0137 44.4182L98.9675 39.1731L100.937 44.8599L96.0137 44.4182Z" fill="#2A2873"/>
<path d="M118.816 50.2521C118.876 50.8662 118.748 51.484 118.45 52.024C118.151 52.564 117.696 53.0011 117.145 53.2776C116.593 53.5542 115.971 53.6572 115.36 53.5732C114.748 53.4893 114.177 53.2222 113.72 52.8072C113.264 52.3921 112.944 51.8486 112.802 51.2481C112.66 50.6476 112.704 50.0183 112.927 49.443C113.15 48.8677 113.541 48.3733 114.051 48.025C114.56 47.6767 115.163 47.4907 115.78 47.4915C116.548 47.4565 117.299 47.7273 117.868 48.2447C118.437 48.7621 118.778 49.4839 118.816 50.2521Z" fill="#DA3F3A"/>
<path d="M102.492 78.6128L100.974 95.4893H103.201C103.201 95.4893 106.743 84.5021 107.13 80.9777C107.516 77.4534 104.894 78.0331 104.894 78.0331L102.492 78.6128Z" fill="#FCA89E"/>
<path d="M108.013 95.489H110.203V97.1638H105.768C105.482 97.1638 105.381 96.5012 105.63 96.3632L108.013 95.489Z" fill="#29266B"/>
<path d="M101.075 95.489H103.256V97.1638H98.8295C98.5351 97.1638 98.4338 96.5012 98.6915 96.3632L101.075 95.489Z" fill="#29266B"/>
<path d="M88.4773 82.45H76.5146L76.8367 108.059H79.1372C79.1372 108.059 80.8672 95.1763 81.5205 88.054H83.1125L84.6584 97.4124L91.3115 104.562L93.0598 103.026L88.0079 95.2959C88.0079 95.2959 88.468 85.7535 88.4404 84.1063C88.4847 83.5554 88.497 83.0023 88.4773 82.45Z" fill="#A2CCDA"/>
<path d="M88.4774 82.4499H76.5148L74.9964 66.5305C74.8584 65.233 76.1191 64.1104 77.757 64.1104H87.2535C88.8546 64.1104 90.1061 65.233 90.0141 66.5305L88.4774 82.4499Z" fill="#FF645F"/>
<path d="M82.4223 65.8036C84.5479 65.8036 84.5387 64.3589 84.5387 63.9632V61.6535C84.5387 61.1198 83.7474 61.1658 83.2689 61.1658H81.7505C81.2812 61.1658 80.4807 61.5983 80.4807 62.086V63.9264C80.4752 64.1799 80.5222 64.4318 80.6187 64.6663C80.7152 64.9008 80.8591 65.1129 81.0414 65.2891C81.2237 65.4654 81.4405 65.6021 81.6781 65.6906C81.9157 65.7791 82.1691 65.8176 82.4223 65.8036Z" fill="#F7958D"/>
<path d="M79.1373 61.1749C79.7446 63.2361 81.4746 62.9233 83.5451 62.3067C84.529 62.0058 85.3542 61.3283 85.8411 60.4219C86.3279 59.5154 86.437 58.4533 86.1446 57.4668C85.8521 56.4804 85.1819 55.6493 84.2797 55.1546C83.3775 54.6599 82.3164 54.5416 81.3274 54.8255C79.2937 55.442 78.5576 59.1044 79.1373 61.1749Z" fill="#FCA89E"/>
<path d="M88.9834 64.6348C88.9834 64.6348 94.5046 70.5517 96.483 72.4105C97.5596 73.4411 96.483 74.2509 95.8665 74.9778C94.1549 77.1127 88.6245 80.9775 88.6245 80.9775L88.9374 77.7384L92.2685 73.8368C92.2685 73.8368 87.5755 70.1744 87.419 69.9351C86.9957 69.2266 87.3454 66.0887 87.3454 66.0887L88.9834 64.6348Z" fill="#FF645F"/>
<path d="M75.9441 64.6348C75.9441 64.6348 70.4229 70.5517 68.4444 72.4105C67.3678 73.4411 68.4445 74.2509 69.061 74.9778C70.7726 77.1127 77.168 81.0695 77.168 81.0695L77.0575 77.6464L72.6958 73.8C72.6958 73.8 77.3888 70.1744 77.5452 69.9075C77.9777 69.199 77.6188 66.0611 77.6188 66.0611L75.9441 64.6348Z" fill="#FF645F"/>
<path d="M76.7816 108.022H79.1373V109.807H74.389C74.0762 109.807 73.9657 109.108 74.2418 108.961L76.7816 108.022Z" fill="#2A2873"/>
<path d="M91.339 104.562L93.0874 103.025L94.2652 104.369L90.7224 107.488C90.4832 107.691 89.9495 107.24 90.0507 106.945L91.339 104.562Z" fill="#2A2873"/>
<path d="M80.4072 53.574C81.3274 52.8195 82.2476 54.0341 83.2323 54.393C84.2169 54.7519 85.9929 53.8041 87.0143 54.8347C88.0357 55.8653 86.8026 57.7057 86.7566 58.4235C86.7106 59.1413 87.2259 60.8252 86.6002 61.819C86.1942 62.3455 85.6086 62.704 84.9552 62.8262C84.3018 62.9484 83.6262 62.8257 83.0574 62.4816C82.036 61.9939 83.3151 60.3835 83.5175 59.5093C83.72 58.6351 83.5727 57.5585 82.3397 58.4511C81.7783 58.856 80.7937 59.3253 80.8765 57.9358C80.9778 56.1966 78.3828 55.212 80.4072 53.574Z" fill="#823024"/>
<path d="M115.651 76.8091L104.204 76.8735C103.82 76.9902 103.467 77.1889 103.168 77.4559C102.87 77.7229 102.632 78.0517 102.474 78.4194C102.087 79.5789 101.185 85.0357 101.185 85.0357H113.718L114.556 80.9224L115.651 76.8091Z" fill="#D2F7FF"/>
</svg>
