<svg width="49" height="44" viewBox="0 0 49 44" fill="none" xmlns="http://www.w3.org/2000/svg">
<path d="M34.838 18.9977C33.7983 25.5918 29.8422 26.4007 28.0374 29.2565C26.1934 32.2226 26.4746 33.4114 24.6502 33.1663C22.0345 32.817 22.5446 30.8805 20.7267 28.2637C18.6669 25.2853 14.7304 24.8441 14.4754 18.9793C14.3054 13.7397 19.0593 9.47437 24.6763 9.47437C30.2934 9.47437 35.662 13.7948 34.838 18.9977Z" fill="#FEB7B5"/>
<path d="M27.1087 30.6046H26.8537V21.1977H22.6425V29.5015H22.3875V21.1977H20.5108C20.3634 21.1986 20.2188 21.1598 20.0942 21.0861C19.9695 21.0124 19.87 20.9068 19.8074 20.7817C19.7448 20.6566 19.7218 20.5174 19.7409 20.3804C19.7601 20.2434 19.8208 20.1145 19.9157 20.0088L21.7598 17.9375C21.8245 17.8627 21.9124 17.8086 22.0113 17.7826C22.1102 17.7566 22.2153 17.76 22.3121 17.7922C22.4088 17.8245 22.4926 17.884 22.5518 17.9627C22.611 18.0414 22.6427 18.1354 22.6425 18.2316V20.9587H26.8537V18.06C26.8516 17.9928 26.8719 17.9266 26.9118 17.8706C26.9516 17.8146 27.009 17.7716 27.076 17.7475C27.1413 17.7193 27.2145 17.7112 27.285 17.7245C27.3555 17.7377 27.4197 17.7715 27.4684 17.821L29.6197 20.1559C29.7064 20.246 29.7626 20.3581 29.7812 20.4781C29.7998 20.5981 29.78 20.7206 29.7243 20.83C29.6724 20.9416 29.5863 21.0361 29.4768 21.1016C29.3673 21.1671 29.2395 21.2006 29.1097 21.1977H27.1087V30.6046ZM27.1087 20.9587H29.1097C29.1897 20.9602 29.2685 20.9395 29.3359 20.8992C29.4034 20.8588 29.4567 20.8006 29.4889 20.732C29.5245 20.6635 29.5373 20.5865 29.5257 20.5111C29.514 20.4357 29.4784 20.3653 29.4236 20.3091L27.2853 17.9804C27.2686 17.9706 27.2494 17.9654 27.2297 17.9654C27.21 17.9654 27.1908 17.9706 27.1741 17.9804C27.1541 17.987 27.1368 17.9995 27.125 18.0161C27.1132 18.0327 27.1075 18.0524 27.1087 18.0723V20.9587ZM22.1521 18.0049C22.1167 18.0053 22.0818 18.0133 22.0501 18.0281C22.0184 18.043 21.9907 18.0644 21.969 18.0907L20.1119 20.162C20.0465 20.2312 20.0041 20.3169 19.9902 20.4084C19.9762 20.4999 19.9913 20.5932 20.0334 20.6768C20.0753 20.7621 20.1427 20.8342 20.2274 20.8842C20.3122 20.9343 20.4106 20.9602 20.5108 20.9587H22.3875V18.2316C22.3882 18.185 22.3726 18.1394 22.343 18.1018C22.3135 18.0641 22.2718 18.0366 22.224 18.0233C22.2017 18.0126 22.1772 18.0063 22.1521 18.0049Z" fill="#FF645F"/>
<path d="M27.0304 33.0376C27.0317 33.4684 26.8965 33.8898 26.6419 34.2486C26.3874 34.6073 26.0249 34.8871 25.6004 35.0525C25.176 35.2179 24.7087 35.2615 24.2578 35.1777C23.8069 35.094 23.3927 34.8867 23.0676 34.582C22.7426 34.2774 22.5213 33.8892 22.432 33.4666C22.3426 33.044 22.3891 32.6061 22.5657 32.2083C22.7422 31.8106 23.0407 31.4708 23.4235 31.2323C23.8062 30.9937 24.2559 30.867 24.7156 30.8682C25.329 30.8698 25.9168 31.0989 26.3505 31.5054C26.7843 31.9119 27.0287 32.4627 27.0304 33.0376Z" fill="#2B79E6"/>
<path d="M26.9127 29.5016H22.5119C21.9991 29.5016 21.5834 29.8912 21.5834 30.3718V31.3156C21.5834 31.7962 21.9991 32.1858 22.5119 32.1858H26.9127C27.4255 32.1858 27.8413 31.7962 27.8413 31.3156V30.3718C27.8413 29.8912 27.4255 29.5016 26.9127 29.5016Z" fill="#73B3FF"/>
<path d="M25.8598 1.07245C25.8598 1.68528 24.7155 3.57279 24.7155 3.57279C24.7155 3.57279 23.5712 1.66077 23.5712 1.07245C23.5712 0.788018 23.6917 0.515237 23.9063 0.314113C24.1209 0.11299 24.412 0 24.7155 0C25.019 0 25.3101 0.11299 25.5247 0.314113C25.7393 0.515237 25.8598 0.788018 25.8598 1.07245Z" fill="#B3E3EF"/>
<path d="M14.3052 3.45018C14.6191 3.95883 14.6453 6.14663 14.6453 6.14663C14.6453 6.14663 12.6378 5.03128 12.3239 4.5165C12.2186 4.27662 12.2096 4.00909 12.2986 3.76347C12.3876 3.51785 12.5686 3.31078 12.808 3.18064C13.0474 3.05049 13.3291 3.00609 13.6008 3.05565C13.8725 3.10521 14.1158 3.24537 14.2856 3.45018H14.3052Z" fill="#B3E3EF"/>
<path d="M5.51695 10.9329C6.06623 11.227 7.25634 13.1084 7.25634 13.1084C7.25634 13.1084 4.92189 13.1084 4.37261 12.7897C4.11125 12.6463 3.92074 12.4121 3.84239 12.138C3.76405 11.8638 3.80419 11.5717 3.95411 11.3251C4.02864 11.2026 4.12837 11.0952 4.24751 11.009C4.36664 10.9229 4.50283 10.8598 4.64818 10.8233C4.79353 10.7868 4.94515 10.7777 5.09428 10.7965C5.2434 10.8153 5.38706 10.8617 5.51695 10.9329Z" fill="#B3E3EF"/>
<path d="M1.92681 21.5164C2.58072 21.5164 4.59475 22.5888 4.59475 22.5888C4.59475 22.5888 2.53494 23.6613 1.92681 23.6613C1.62331 23.6613 1.33224 23.5483 1.11764 23.3471C0.903034 23.146 0.782471 22.8732 0.782471 22.5888C0.782471 22.3044 0.903034 22.0316 1.11764 21.8305C1.33224 21.6293 1.62331 21.5164 1.92681 21.5164Z" fill="#B3E3EF"/>
<path d="M12.4415 40.5754C12.7619 40.0668 14.7694 38.9453 14.7694 38.9453C14.7694 38.9453 14.7694 41.1392 14.4229 41.6479C14.3591 41.7877 14.2643 41.9132 14.1448 42.016C14.0254 42.1189 13.8839 42.1968 13.7299 42.2445C13.5759 42.2922 13.4128 42.3087 13.2514 42.2929C13.0901 42.277 12.9342 42.2292 12.7941 42.1526C12.6539 42.076 12.5328 41.9724 12.4386 41.8485C12.3445 41.7247 12.2796 41.5835 12.2481 41.4344C12.2166 41.2853 12.2193 41.1315 12.256 40.9834C12.2928 40.8354 12.3627 40.6963 12.4611 40.5754H12.4415Z" fill="#B3E3EF"/>
<path d="M35.3154 41.5682C35.0015 41.0595 34.9753 38.8656 34.9753 38.8656C34.9753 38.8656 36.9828 39.9871 37.2967 40.4957C37.4064 40.7361 37.4186 41.0058 37.331 41.254C37.2434 41.5023 37.0621 41.712 36.8211 41.8437C36.5801 41.9754 36.2961 42.0201 36.0224 41.9694C35.7488 41.9187 35.5043 41.776 35.335 41.5682H35.3154Z" fill="#B3E3EF"/>
<path d="M44.0776 34.0856C43.5284 33.7914 42.3383 31.91 42.3383 31.91C42.3383 31.91 44.6727 31.91 45.222 32.2287C45.3712 32.2885 45.5051 32.3773 45.6148 32.4893C45.7246 32.6012 45.8077 32.7338 45.8586 32.8781C45.9095 33.0225 45.9271 33.1753 45.9102 33.3265C45.8933 33.4777 45.8423 33.6239 45.7606 33.7552C45.6788 33.8865 45.5682 34 45.4361 34.0883C45.304 34.1765 45.1533 34.2374 44.9942 34.2669C44.835 34.2964 44.671 34.2938 44.513 34.2594C44.355 34.225 44.2066 34.1595 44.0776 34.0672V34.0856Z" fill="#B3E3EF"/>
<path d="M23.9517 41.932C23.9263 41.3396 24.9965 39.396 24.9965 39.396C24.9965 39.396 26.2351 41.2505 26.2383 41.8559C26.2634 42.0061 26.2541 42.1596 26.211 42.3062C26.168 42.4528 26.0922 42.5891 25.9887 42.7061C25.8851 42.8232 25.7562 42.9183 25.6105 42.9851C25.4648 43.0519 25.3056 43.0889 25.1434 43.0936C24.9813 43.0984 24.8199 43.0707 24.67 43.0126C24.5201 42.9544 24.3851 42.8671 24.274 42.7563C24.1629 42.6455 24.0781 42.5139 24.0254 42.3701C23.9727 42.2263 23.9532 42.0737 23.9683 41.9223L23.9517 41.932Z" fill="#B3E3EF"/>
<path d="M4.19693 33.0022C4.72285 32.6727 7.05042 32.5135 7.05042 32.5135C7.05042 32.5135 6.00921 34.4717 5.45988 34.7903C5.33627 34.8887 5.19173 34.9614 5.03585 35.0036C4.87997 35.0457 4.71632 35.0563 4.55574 35.0346C4.39517 35.013 4.24135 34.9595 4.10448 34.8779C3.96761 34.7963 3.85082 34.6883 3.76186 34.5612C3.67289 34.4341 3.61379 34.2906 3.58848 34.1405C3.56316 33.9903 3.5722 33.8368 3.61501 33.6901C3.65781 33.5435 3.73339 33.4071 3.83675 33.2899C3.9401 33.1727 4.06886 33.0774 4.21449 33.0104L4.19693 33.0022Z" fill="#B3E3EF"/>
<path d="M47.6545 23.502C47.0006 23.502 44.9866 22.4295 44.9866 22.4295C44.9866 22.4295 47.0202 21.3571 47.6545 21.3571C47.958 21.3571 48.2491 21.47 48.4637 21.6712C48.6783 21.8723 48.7989 22.1451 48.7989 22.4295C48.7989 22.7139 48.6783 22.9867 48.4637 23.1878C48.2491 23.389 47.958 23.502 47.6545 23.502Z" fill="#B3E3EF"/>
<path d="M45.137 12.6488C44.5877 12.9429 42.2533 12.9736 42.2533 12.9736C42.2533 12.9736 43.4434 11.0922 43.9927 10.7919C44.2492 10.6891 44.537 10.6777 44.8018 10.7598C45.0667 10.8419 45.2905 11.0118 45.431 11.2376C45.5716 11.4635 45.6193 11.7297 45.5652 11.9861C45.511 12.2426 45.3588 12.4717 45.137 12.6304V12.6488Z" fill="#B3E3EF"/>
<path d="M37.1527 4.44301C36.8389 4.95166 34.8248 6.067 34.8248 6.067C34.8248 6.067 34.8575 3.87921 35.1714 3.37056C35.2352 3.23076 35.3299 3.10527 35.4494 3.00242C35.5689 2.89956 35.7103 2.82168 35.8643 2.77395C36.0184 2.72622 36.1815 2.70972 36.3428 2.72556C36.5042 2.7414 36.6601 2.78921 36.8002 2.86582C36.9403 2.94242 37.0615 3.04608 37.1556 3.16991C37.2497 3.29373 37.3147 3.4349 37.3462 3.58405C37.3777 3.7332 37.3749 3.88691 37.3382 4.035C37.3015 4.18309 37.2316 4.32217 37.1331 4.44301H37.1527Z" fill="#B3E3EF"/>
</svg>
