<svg width="223" height="164" viewBox="0 0 223 164" fill="none" xmlns="http://www.w3.org/2000/svg">
<path d="M192.406 6.63782H24.2452V110.922H192.406V6.63782Z" fill="#0A5DC1"/>
<path d="M186.287 105.658H30.3795V0H97.2014L105.442 4.94412L114.414 0H186.287V105.658Z" fill="#A2CCDA"/>
<path d="M104.663 4.48633L97.2014 0H30.3795V105.658H104.663V4.48633Z" fill="#B7DFEA"/>
<path d="M92.7916 17.3348H40.4053V18.342H92.7916V17.3348Z" fill="#A2CCDA"/>
<path d="M92.7916 23.2098H40.4053V24.217H92.7916V23.2098Z" fill="#A2CCDA"/>
<path d="M92.7916 36.3942H40.4053V37.4013H92.7916V36.3942Z" fill="#A2CCDA"/>
<path d="M171.76 36.9436H119.374V37.9507H171.76V36.9436Z" fill="#B7DFEA"/>
<path d="M171.76 17.3348H119.374V18.342H171.76V17.3348Z" fill="#B7DFEA"/>
<path d="M171.76 56.5522H119.374V57.5594H171.76V56.5522Z" fill="#B7DFEA"/>
<path d="M120.106 40.5601C120.115 43.4624 119.263 46.3021 117.657 48.7197C116.051 51.1373 113.764 53.024 111.085 54.141C108.407 55.2579 105.457 55.5548 102.609 54.9942C99.7614 54.4335 97.1442 53.0405 95.0887 50.9915C93.0333 48.9424 91.632 46.3296 91.0625 43.4837C90.4929 40.6378 90.7807 37.6869 91.8892 35.0047C92.9978 32.3224 94.8773 30.0294 97.2899 28.416C99.7024 26.8026 102.539 25.9414 105.442 25.9414C109.323 25.9414 113.046 27.4801 115.795 30.2203C118.544 32.9606 120.094 36.6788 120.106 40.5601Z" fill="#FF645F"/>
<path d="M101.871 34.6394L112.323 40.6822L101.871 46.7098V34.6394Z" fill="white"/>
<path d="M217.234 115.378H214.304C214.025 115.378 213.757 115.267 213.559 115.07C213.362 114.872 213.251 114.604 213.251 114.325V112.799L217.158 112.57L217.234 115.378Z" fill="#F7958D"/>
<path d="M178.169 118.781L175.789 119.88C175.209 119.88 174.263 115.393 174.263 114.798V113.272L178.169 113.043V118.781Z" fill="#F7958D"/>
<path d="M209.68 111.395H190.331L190.85 152.718H194.543C194.543 152.718 197.335 131.935 198.388 120.444H200.952L201.73 152.718H205.423C205.423 152.718 209.772 120.322 209.665 114.066C209.715 113.176 209.72 112.285 209.68 111.395Z" fill="#0E97CD"/>
<path d="M209.68 111.395H190.331L187.92 85.7133C187.706 83.6075 189.72 81.8068 192.299 81.8068H207.712C210.275 81.8068 212.289 83.6075 212.091 85.7133L209.68 111.395Z" fill="#2A2873"/>
<path d="M199.09 86.5373C199.146 86.6953 199.249 86.8322 199.386 86.929C199.522 87.0258 199.686 87.0778 199.853 87.0778C200.021 87.0778 200.184 87.0258 200.321 86.929C200.457 86.8322 200.561 86.6953 200.616 86.5373C201.471 84.7672 203.363 82.1273 203.363 81.5627V77.8241C203.363 76.9695 202.081 77.0306 201.318 77.0306H198.861C198.098 77.0306 196.816 77.7325 196.816 78.5565V81.6084C196.847 82.1883 198.373 84.7672 199.09 86.5373Z" fill="#F7958D"/>
<path d="M194.649 77.0459C195.626 80.3878 198.419 79.8689 201.76 78.8923C203.334 78.3941 204.649 77.2987 205.423 75.8414C206.198 74.384 206.37 72.6811 205.902 71.0984C205.434 69.5157 204.365 68.1796 202.922 67.3771C201.48 66.5746 199.781 66.3698 198.19 66.8067C194.848 67.7986 193.658 73.7193 194.649 77.0459Z" fill="#FCA89E"/>
<path d="M201.577 69.9195C201.577 69.9195 201.577 72.1474 201.882 72.1474C202.284 72.0128 202.717 71.9988 203.126 72.1073C203.536 72.2158 203.904 72.442 204.187 72.7578C205.026 73.826 204.11 74.9094 203.119 75.1383C202.127 75.3672 202.813 77.9766 205.179 77.5188C207.544 77.061 208.398 71.415 207.178 69.3091C205.957 67.2033 202.035 64.7313 200.662 64.9449C199.288 65.1585 190.178 69.9958 190.178 69.9958L201.577 69.9195Z" fill="#2A2873"/>
<path d="M188.042 84.5384L182.213 100.241L173.5 113.288L178.078 114.295C181.176 111.66 184.059 108.782 186.699 105.688C188.448 103.421 189.881 100.926 190.957 98.2721C191.643 97.1276 191.949 84.9351 191.949 84.9351L188.042 84.5384Z" fill="#2A2873"/>
<path d="M210.489 82.6461L221.842 92.397C222.36 92.8513 222.727 93.4519 222.896 94.1194C223.065 94.7869 223.027 95.4899 222.788 96.1356L217.096 112.57L213.19 112.799L216.242 97.158C216.242 97.158 208.215 91.6035 207.971 91.1763C207.284 90.0318 207.849 84.9656 207.849 84.9656L210.489 82.6461Z" fill="#2A2873"/>
<path d="M190.743 152.596H194.497V155.48H186.867C186.379 155.48 186.196 154.351 186.638 154.107L190.743 152.596Z" fill="#2A2873"/>
<path d="M201.837 152.596H205.591V155.48H197.961C197.457 155.48 197.289 154.351 197.717 154.107L201.837 152.596Z" fill="#2A2873"/>
<path d="M189.507 89.1925H189.171V103.216H189.507V89.1925Z" fill="#0E97CD"/>
<path d="M99.3072 117.865H119.145L118.626 160.333H114.857C114.857 160.333 111.988 138.969 110.905 127.159H108.341L105.594 142.678L94.6072 154.534L91.7079 151.986L100.07 139.153C100.07 139.153 99.3072 123.344 99.3682 120.597C99.2949 119.688 99.2745 118.776 99.3072 117.865Z" fill="#A2CCDA"/>
<path d="M99.3074 117.865H119.145L121.632 91.4509C121.861 89.2993 119.771 87.4529 117.054 87.4529H101.322C98.6817 87.4529 96.6064 89.2993 96.7437 91.4509L99.3074 117.865Z" fill="#FF645F"/>
<path d="M109.333 90.2454C105.823 90.2454 105.838 87.8497 105.838 87.2851V83.3786C105.838 82.5088 107.151 82.5698 107.929 82.5698H110.462C111.24 82.5698 112.552 83.287 112.552 84.0958V87.1477C112.559 87.5669 112.48 87.9829 112.319 88.37C112.158 88.7571 111.919 89.1068 111.617 89.3975C111.315 89.6881 110.956 89.9134 110.563 90.0593C110.17 90.2052 109.751 90.2685 109.333 90.2454Z" fill="#F7958D"/>
<path d="M114.75 82.5699C113.728 86.0033 110.874 85.4692 107.441 84.4621C105.838 83.941 104.502 82.815 103.716 81.3238C102.931 79.8325 102.759 78.0936 103.236 76.4772C103.713 74.8607 104.802 73.4943 106.271 72.6686C107.741 71.8429 109.474 71.6231 111.103 72.056C114.536 73.0632 115.757 79.1517 114.75 82.5699Z" fill="#FCA89E"/>
<path d="M98.4528 88.3227C98.4528 88.3227 89.2971 98.1194 86.0315 101.217C84.2309 102.911 86.0315 104.269 87.0539 105.475C89.8769 109.015 99.0632 115.347 99.0632 115.347L98.5444 109.991L93.0815 103.506C93.0815 103.506 100.879 97.4937 101.139 97.0665C101.84 95.8762 101.261 90.6879 101.261 90.6879L98.4528 88.3227Z" fill="#FF645F"/>
<path d="M120.091 88.3227C120.091 88.3227 129.247 98.1194 132.528 101.217C134.313 102.911 132.528 104.269 131.505 105.475C128.667 109.015 118.061 115.576 118.061 115.576L118.245 109.869L125.539 103.475C125.539 103.475 117.756 97.4632 117.497 97.0359C116.78 95.8457 117.375 90.6574 117.375 90.6574L120.091 88.3227Z" fill="#FF645F"/>
<path d="M118.702 160.226H114.841V163.278H122.669C123.188 163.278 123.371 162.118 122.914 161.859L118.702 160.226Z" fill="#2A2873"/>
<path d="M94.6072 154.534L91.7079 151.986L89.7546 154.199L95.6296 159.372C96.0111 159.723 96.9114 158.96 96.7436 158.471L94.6072 154.534Z" fill="#2A2873"/>
<path d="M112.675 69.9654C111.149 68.7293 109.623 70.7436 107.99 71.3387C106.357 71.9339 103.412 70.3469 101.734 72.0559C100.055 73.765 102.069 76.8322 102.161 78.0225C102.252 79.2127 101.383 82.0052 102.42 83.638C103.091 84.5134 104.061 85.111 105.145 85.3165C106.229 85.5219 107.35 85.321 108.295 84.752C109.989 83.9432 107.868 81.2575 107.532 79.8078C107.196 78.3582 107.441 76.5728 109.485 78.0682C110.416 78.7397 112.049 79.5026 111.912 77.2137C111.744 74.3144 116.047 72.6968 112.675 69.9654Z" fill="#4396CA"/>
<path d="M75.1209 88.1243C73.8238 88.8415 72.8472 92.1529 72.0689 98.6229C71.2907 105.093 71.4586 106.253 71.8248 106.924C72.191 107.596 78.2796 116.263 78.2796 116.263L81.6062 115.882L77.4098 103.506C77.4098 103.506 80.7822 95.4489 79.3478 88.0328C79.1494 86.9798 75.1209 88.1243 75.1209 88.1243Z" fill="#2EB3DB"/>
<path d="M68.1927 71.1709C66.5263 70.9333 64.8281 71.2534 63.3625 72.0814C61.8969 72.9094 60.7463 74.1988 60.0899 75.7488C59.3296 77.6887 59.0167 79.7751 59.1743 81.8527C59.1743 82.753 58.1061 91.451 59.0217 91.451L65.385 85.2403L68.1927 71.1709Z" fill="#4A4A99"/>
<path d="M59.0674 113.074H77.1806L76.7075 151.788H73.2436C73.2436 151.788 70.6189 128.364 69.6271 117.591H67.2313L66.5141 151.788H63.0502C63.0502 151.788 58.9606 121.421 59.0827 115.561C59.0246 114.733 59.0195 113.902 59.0674 113.074Z" fill="#2A2873"/>
<path d="M59.0677 113.074H77.1809L74.7699 103.766L79.5309 88.9484C79.5233 88.4307 79.4077 87.9202 79.1916 87.4496C78.9755 86.9791 78.6636 86.5587 78.2759 86.2155C77.8881 85.8723 77.433 85.6137 76.9397 85.4563C76.4464 85.2989 75.9257 85.2462 75.4108 85.3014H60.9142C60.3993 85.2462 59.8786 85.2989 59.3852 85.4563C58.8919 85.6137 58.4369 85.8723 58.0491 86.2155C57.6614 86.5587 57.3495 86.9791 57.1334 87.4496C56.9173 87.9202 56.8017 88.4307 56.7941 88.9484L61.9366 103.766L59.0677 113.074Z" fill="#0E97CD"/>
<path d="M68.2081 87.8955C65.0035 87.8955 65.0188 85.7134 65.0188 85.1793V81.6391C65.0188 80.8303 66.2243 80.8914 66.9415 80.8914H69.2305C69.9477 80.8914 71.1532 81.5475 71.1532 82.4173V85.2404C71.1418 85.6106 71.0557 85.9748 70.8999 86.3109C70.7442 86.647 70.5221 86.9481 70.247 87.1961C69.9718 87.4442 69.6494 87.634 69.299 87.7542C68.9486 87.8744 68.5775 87.9225 68.2081 87.8955Z" fill="#F7958D"/>
<path d="M73.1523 80.876C72.2214 84.0042 69.612 83.5159 66.4838 82.6003C65.0252 82.1213 63.8105 81.0931 63.0972 79.7337C62.3839 78.3742 62.228 76.7904 62.6626 75.318C63.0972 73.8456 64.0881 72.6003 65.4252 71.8461C66.7624 71.0918 68.3407 70.888 69.8257 71.2777C72.9539 72.2238 74.0678 77.8241 73.1523 80.876Z" fill="#FCA89E"/>
<path d="M66.6513 74.2076C66.6513 74.2076 66.6513 76.2982 66.3614 76.2982C65.9855 76.1724 65.5808 76.1603 65.1981 76.2635C64.8154 76.3666 64.4716 76.5804 64.2098 76.878C63.4163 77.8852 63.6452 78.9381 64.576 79.167C65.5069 79.3959 64.8965 87.7581 62.6686 87.3309C60.4407 86.9036 60.2575 75.6573 61.402 73.5972C62.5465 71.5372 66.2241 69.355 67.5059 69.5076C68.7877 69.6602 77.3331 74.2381 77.3331 74.2381L66.6513 74.2076Z" fill="#4A4A99"/>
<path d="M76.7532 151.742H73.2435V154.443H80.385C80.8581 154.443 81.0259 153.375 80.5987 153.146L76.7532 151.742Z" fill="#FC6262"/>
<path d="M66.4075 151.742H62.8826V154.443H70.0241C70.4971 154.443 70.665 153.375 70.253 153.146L66.4075 151.742Z" fill="#FC6262"/>
<path d="M61.2803 116.248L64.5001 114.905C64.5001 114.905 65.4614 117.713 63.8744 118.705C61.8754 119.941 61.2803 116.248 61.2803 116.248Z" fill="#F7958D"/>
<path d="M57.679 86.6136C56.3819 87.3309 55.4053 91.0542 54.627 97.5243C53.8488 103.994 54.0167 105.154 54.3981 105.841C54.7796 106.527 61.2802 116.248 61.2802 116.248L64.5 114.905L58.7471 103.842C58.7471 103.842 60.4104 95.037 60.151 92.0919C59.9669 90.0396 59.0959 88.1095 57.679 86.6136Z" fill="#2EB3DB"/>
<path d="M81.6059 115.882L78.2793 116.233C78.2793 116.233 78.4777 119.284 80.3394 119.498C82.6436 119.88 81.6059 115.882 81.6059 115.882Z" fill="#F7958D"/>
<path d="M67.2924 72.0712C66.3005 72.0712 64.4236 69.1261 66.1479 67.4933C66.5017 67.1911 66.9288 66.9871 67.3863 66.9019C67.8437 66.8166 68.3156 66.8531 68.7545 67.0077C69.1934 67.1622 69.584 67.4294 69.8872 67.7825C70.1903 68.1355 70.3953 68.5621 70.4817 69.0193C70.6343 71.9034 69.4135 72.0712 67.2924 72.0712Z" fill="#4A4A99"/>
<path d="M163.153 117.118H146.49L146.932 152.825H150.122C150.122 152.825 152.533 134.865 153.448 124.931H155.646L156.317 152.825H159.506C159.506 152.825 163.275 124.824 163.169 119.422C163.209 118.654 163.204 117.885 163.153 117.118Z" fill="#F7958D"/>
<path d="M146.383 152.764H150V155.541H142.675C142.187 155.541 142.019 154.458 142.446 154.214L146.383 152.764Z" fill="#FF645F"/>
<path d="M155.951 152.764H159.552V155.541H152.228C151.755 155.541 151.587 154.458 151.999 154.214L155.951 152.764Z" fill="#FF645F"/>
<path d="M147.039 105.459H162.65C162.65 105.459 166.083 107.077 166.495 112.326C167.243 121.879 161.261 138.679 161.261 138.679H146.49C146.49 138.679 141.607 118.628 142.69 112.326C142.863 110.931 143.343 109.593 144.095 108.405C144.847 107.218 145.852 106.212 147.039 105.459Z" fill="#823024"/>
<path d="M162.65 105.673H147.039L146.002 86.6594C146.008 86.2507 146.099 85.8478 146.27 85.4764C146.44 85.1049 146.686 84.7729 146.992 84.5017C147.298 84.2304 147.656 84.0257 148.046 83.9007C148.435 83.7756 148.846 83.7329 149.252 83.7753H161.46C161.873 83.7191 162.294 83.7514 162.694 83.8701C163.095 83.9888 163.465 84.1913 163.781 84.464C164.097 84.7367 164.351 85.0735 164.527 85.452C164.703 85.8305 164.797 86.242 164.802 86.6594L162.65 105.673Z" fill="#DA3F3A"/>
<path d="M160.834 83.2414C160.834 84.3708 160.499 85.4748 159.871 86.4136C159.244 87.3525 158.351 88.084 157.308 88.5155C156.264 88.947 155.116 89.0591 154.008 88.8377C152.901 88.6162 151.884 88.0711 151.086 87.2715C150.289 86.4718 149.746 85.4534 149.528 84.3454C149.309 83.2373 149.425 82.0893 149.859 81.0468C150.293 80.0042 151.027 79.1139 151.968 78.4887C152.908 77.8634 154.013 77.5312 155.142 77.5343C156.653 77.5383 158.101 78.1414 159.168 79.2112C160.235 80.2811 160.834 81.7304 160.834 83.2414Z" fill="#F7958D"/>
<path d="M134.511 82.1578L135.778 81.2728C135.892 81.1832 136.023 81.1182 136.164 81.0818C136.304 81.0455 136.451 81.0385 136.594 81.0614C136.737 81.0844 136.874 81.1367 136.996 81.215C137.118 81.2934 137.223 81.3962 137.304 81.5169L139.287 84.3247L136.342 86.4916L134.191 84.0806C134.085 83.9335 134.009 83.7669 133.968 83.5905C133.927 83.4141 133.921 83.2312 133.951 83.0525C133.98 82.8738 134.045 82.7027 134.141 82.5492C134.238 82.3956 134.363 82.2626 134.511 82.1578Z" fill="#F7958D"/>
<path d="M148.016 84.0501C147.185 84.5092 146.467 85.1471 145.913 85.9176C145.358 86.6882 144.982 87.5723 144.812 88.5059C143.987 90.7037 143.018 92.8447 141.912 94.915L139.242 84.3248L136.297 86.4916C136.297 86.4916 137.655 97.6617 139.349 101.492C140.386 103.766 144.964 102.53 148.489 94.6098C149.786 91.6799 148.016 84.0501 148.016 84.0501Z" fill="#DA3F3A"/>
<path d="M163.535 84.3857C165.172 85.7668 166.561 87.4184 167.64 89.2688C169.44 92.3207 173.438 101.629 173.866 102.484C174.293 103.338 175.849 114.844 175.849 114.844L172.599 115.515L168.021 102.133L161.75 92.1681L163.535 84.3857Z" fill="#DA3F3A"/>
<path d="M175.85 114.844L172.599 115.515C172.458 116.624 172.428 117.743 172.508 118.857C173.062 119.454 173.699 119.968 174.4 120.383C175.427 120.29 176.414 119.939 177.269 119.361C177.605 119.025 175.972 114.874 175.85 114.844Z" fill="#F7958D"/>
<path d="M158.453 72.5596C159.572 70.5266 160.952 68.649 162.558 66.9745C163.956 68.7299 165.073 70.6912 165.87 72.7885C165.763 73.3531 158.576 73.9329 158.576 73.9329L158.453 72.5596Z" fill="#823024"/>
<path d="M154.013 85.0724H156.164C156.506 85.0527 156.826 84.8989 157.054 84.6446C157.283 84.3902 157.402 84.0559 157.385 83.7143V81.0591C157.396 80.8887 157.372 80.7179 157.316 80.5566C157.261 80.3953 157.173 80.2466 157.06 80.119C156.947 79.9914 156.809 79.8874 156.655 79.8131C156.502 79.7387 156.335 79.6955 156.164 79.6857H154.013C153.671 79.7093 153.353 79.8668 153.127 80.1241C152.901 80.3813 152.786 80.7174 152.807 81.0591V83.7143C152.797 83.8827 152.82 84.0514 152.875 84.2109C152.93 84.3704 153.016 84.5174 153.128 84.6436C153.24 84.7698 153.376 84.8726 153.528 84.9462C153.68 85.0198 153.844 85.0627 154.013 85.0724Z" fill="#F7958D"/>
<path d="M148.931 77.1374C148.489 80.1893 150.9 80.7691 153.921 81.2117C155.363 81.3938 156.818 81.0008 157.971 80.1179C159.125 79.235 159.884 77.9331 160.085 76.4943C160.286 75.0555 159.911 73.5956 159.043 72.4307C158.175 71.2658 156.883 70.4897 155.447 70.2705C152.487 69.828 149.359 74.1159 148.931 77.1374Z" fill="#FF8860"/>
<path d="M148.931 77.1374C148.489 80.1893 150.9 80.7691 153.921 81.2117C155.363 81.3938 156.818 81.0008 157.971 80.1179C159.125 79.235 159.884 77.9331 160.085 76.4943C160.286 75.0555 159.911 73.5956 159.043 72.4307C158.175 71.2658 156.883 70.4897 155.447 70.2705C152.487 69.828 149.359 74.1159 148.931 77.1374Z" fill="#FCA89E"/>
<path d="M149.694 72.8647L157.065 76.878C157.065 76.878 158.469 75.352 159.079 76.878C159.69 78.4039 157.553 78.9838 157.431 79.3806C156.79 82.6766 159.369 84.5841 161.231 80.9065C163.092 77.2289 162.421 70.8962 161.933 70.6826C161.444 70.4689 156.821 67.6306 156.454 67.417C156.088 67.2034 151.541 70.652 151.053 70.4689C150.564 70.2858 149.694 72.8647 149.694 72.8647Z" fill="#823024"/>
<path d="M52.7349 83.6685C53.269 82.8597 53.5132 80.6165 52.8418 80.2656C52.1703 79.9146 50.385 78.6633 49.7898 80.0977L49.0269 83.0123L52.0788 84.7061L52.7349 83.6685Z" fill="#F7958D"/>
<path d="M13.9296 109.396H33.6603L33.1415 151.559H29.3723C29.3723 151.559 26.5188 130.348 25.4506 118.628H22.887L22.1087 151.559H18.3091C18.3091 151.559 13.8228 118.491 13.9448 112.113C13.8533 111.639 13.9296 109.396 13.9296 109.396Z" fill="#FF645F"/>
<path d="M13.9295 109.396H33.6602L36.1323 83.1955C36.3459 81.0439 34.2859 79.2127 31.6612 79.2127H15.9438C13.3191 79.2127 11.2438 81.0439 11.4727 83.1955L13.9295 109.396Z" fill="#A2CCDA"/>
<path d="M23.8941 81.99C20.3997 81.99 20.4149 79.6095 20.4149 79.0449V75.1689C20.4149 74.2991 21.7272 74.3754 22.5055 74.3754H25.0081C25.7863 74.3754 27.0834 75.0774 27.0834 75.9014V78.9533C27.0817 79.3646 26.997 79.7714 26.8342 80.1491C26.6714 80.5268 26.4339 80.8678 26.136 81.1514C25.8381 81.435 25.4859 81.6555 25.1007 81.7996C24.7154 81.9437 24.305 82.0085 23.8941 81.99Z" fill="#F7958D"/>
<path d="M29.2654 74.3755C28.2583 77.8242 25.42 77.2443 22.0171 76.2982C21.1789 76.086 20.3921 75.7068 19.7039 75.1833C19.0157 74.6598 18.4403 74.0027 18.0121 73.2515C17.584 72.5003 17.3118 71.6704 17.2121 70.8115C17.1123 69.9526 17.187 69.0824 17.4316 68.253C17.6762 67.4237 18.0857 66.6522 18.6355 65.9849C19.1854 65.3176 19.8643 64.7682 20.6316 64.3695C21.3989 63.9709 22.2388 63.7312 23.1009 63.6649C23.963 63.5986 24.8297 63.707 25.6489 63.9837C28.9907 64.9298 30.2726 70.9726 29.2654 74.3755Z" fill="#FCA89E"/>
<path d="M22.185 67.1423C22.185 67.1423 22.185 69.416 21.8798 69.416C21.47 69.2774 21.0284 69.2628 20.6103 69.3741C20.1923 69.4854 19.8164 69.7176 19.5298 70.0416C18.6752 71.1403 19.5298 72.2238 20.6285 72.4679C21.7272 72.7121 20.9337 75.352 18.5226 74.8942C16.1116 74.4364 15.2571 68.6683 16.4779 66.4709C17.6986 64.2735 21.7272 61.893 23.1311 62.0151C24.5349 62.1371 33.8128 67.1728 33.8128 67.1728L22.185 67.1423Z" fill="#FF645F"/>
<path d="M36.2237 82.402L41.1983 92.0308L48.9807 83.0124C48.9807 82.6614 52.582 84.0195 52.1394 84.813C51.407 86.0948 46.3866 96.3035 42.4343 100.485C40.2369 102.804 33.7669 94.3808 33.4159 93.7246C32.8513 92.7785 32.0883 86.9799 31.9815 83.7448C31.9557 83.374 32.075 83.0076 32.3141 82.7229C32.5532 82.4382 32.8935 82.2575 33.2633 82.2189L34.4383 80.1283C35.0944 80.1283 35.9948 81.7306 36.2237 82.402Z" fill="#A2CCDA"/>
<path d="M13.0903 80.0825C13.0903 80.0825 3.96507 89.8028 0.76055 92.87C-1.02483 94.5638 0.76055 95.8304 1.76769 97.0969C4.57546 100.622 13.7312 106.909 13.7312 106.909L13.2277 101.583L7.62738 95.159C7.62738 95.159 15.364 89.1772 15.6082 88.7499C16.3254 87.5749 15.7302 82.4172 15.7302 82.4172L13.0903 80.0825Z" fill="#A2CCDA"/>
<path d="M33.1873 151.498H29.3572V154.443H37.1243C37.6432 154.443 37.8263 153.283 37.3685 153.039L33.1873 151.498Z" fill="#2A2873"/>
<path d="M21.9256 151.498H18.0955V154.443H25.9389C26.4425 154.443 26.6256 153.283 26.1678 153.039L21.9256 151.498Z" fill="#2A2873"/>
<path d="M34.8506 86.7662H34.5149V101.08H34.8506V86.7662Z" fill="#0E97CD"/>
<path d="M15.2571 106.65C15.4922 106.624 15.7195 106.55 15.9252 106.433C16.131 106.317 16.3107 106.159 16.4536 105.971C16.5964 105.782 16.6993 105.567 16.7559 105.337C16.8126 105.107 16.8218 104.869 16.783 104.635L16.4626 101.583C16.4626 100.988 15.486 101.171 14.9366 101.202L13.4106 101.629L13.7311 106.909C13.7311 106.909 14.8298 106.68 15.2571 106.65Z" fill="#F7958D"/>
</svg>
