<svg width="344" height="328" viewBox="0 0 344 328" fill="none" xmlns="http://www.w3.org/2000/svg">
<path d="M221.344 75.9031C217.451 102.249 202.637 105.481 195.88 116.891C188.975 128.741 190.028 133.492 183.196 132.512C173.402 131.117 175.312 123.379 168.505 112.924C160.793 101.025 146.053 99.2617 145.098 75.8297C144.461 54.8951 162.262 37.8536 183.294 37.8536C204.327 37.8536 224.429 55.1155 221.344 75.9031Z" fill="#FEB7B5"/>
<path d="M192.403 122.277H191.448V84.6931H175.68V117.87H174.725V84.6931H167.697C167.146 84.6966 166.604 84.5419 166.137 84.2473C165.671 83.9527 165.298 83.5306 165.064 83.0309C164.829 82.5313 164.743 81.9749 164.815 81.4277C164.887 80.8804 165.114 80.3653 165.469 79.9431L172.374 71.6672C172.617 71.3686 172.946 71.1524 173.316 71.0485C173.686 70.9446 174.08 70.958 174.442 71.0868C174.804 71.2157 175.118 71.4537 175.34 71.7681C175.561 72.0825 175.68 72.4578 175.68 72.8425V83.7382H191.448V72.1569C191.44 71.8881 191.516 71.6237 191.665 71.4C191.814 71.1763 192.029 71.0044 192.28 70.9081C192.525 70.7955 192.799 70.7633 193.063 70.8161C193.327 70.8689 193.567 71.004 193.749 71.202L201.805 80.5307C202.129 80.8905 202.34 81.3385 202.409 81.8179C202.479 82.2974 202.405 82.7867 202.197 83.224C202.002 83.6698 201.68 84.0476 201.27 84.3092C200.86 84.5708 200.381 84.7045 199.895 84.6931H192.403V122.277ZM192.403 83.7382H199.895C200.195 83.7443 200.49 83.6615 200.742 83.5003C200.995 83.3391 201.194 83.1066 201.315 82.8323C201.448 82.5586 201.496 82.2511 201.453 81.9499C201.409 81.6486 201.276 81.3674 201.07 81.1428L193.064 71.8386C193.001 71.7995 192.929 71.7787 192.856 71.7787C192.782 71.7787 192.71 71.7995 192.648 71.8386C192.572 71.865 192.508 71.9151 192.464 71.9813C192.42 72.0476 192.398 72.1264 192.403 72.2058V83.7382ZM173.843 71.9365C173.71 71.9383 173.58 71.9701 173.461 72.0295C173.342 72.0888 173.239 72.1742 173.158 72.2793L166.204 80.5552C165.959 80.8315 165.8 81.1738 165.748 81.5394C165.696 81.9051 165.752 82.278 165.91 82.6119C166.067 82.9527 166.319 83.2407 166.636 83.4406C166.954 83.6406 167.322 83.744 167.697 83.7382H174.725V72.8425C174.727 72.656 174.669 72.4738 174.558 72.3236C174.448 72.1733 174.291 72.0632 174.112 72.01C174.029 71.9673 173.937 71.9423 173.843 71.9365Z" fill="#FF645F"/>
<path d="M103.033 260.519C96.2017 259.491 90.913 246.979 95.6875 239.462C100.462 231.945 103.033 229.668 99.0909 222.127C95.1488 214.585 83.6654 208.685 87.2157 199.184C90.766 189.684 102.249 189.39 99.4582 180.6C96.6669 171.81 85.5753 168.358 91.0109 154.744C95.9079 142.502 107.146 148.746 107.146 134.52C107.146 122.424 90.007 110.353 105.016 101.465C117.504 94.1198 125.73 113.708 125.584 124.285C125.314 142.869 110.893 147.913 116.475 159.617C119.217 165.444 130.015 169.092 127.64 183.71C125.265 198.327 111.333 196.809 111.333 205.918C111.333 215.026 128.203 219.825 126.808 237.014C125.584 252.194 123.257 263.531 103.033 260.519Z" fill="#A2CCDA"/>
<path d="M107.734 262.698H106.779C106.779 260.25 108.762 255.842 110.893 251.141C112.367 248.026 113.643 244.82 114.712 241.543C117.479 231.455 110.599 222.935 105.579 216.691C103.424 214.442 101.669 211.842 100.389 209.003C98.4053 201.878 102.837 197.936 107.024 194.116C110.011 191.423 113.096 188.631 114.051 184.689C115.422 179.082 112.925 176.095 110.011 172.643C106.412 169.014 104.165 164.261 103.645 159.176C103.327 155.136 105.677 151.831 108.542 148.207C112.47 143.582 115.075 137.981 116.083 131.998C116.918 125.168 115.2 118.271 111.26 112.63L112.019 112.043C116.063 117.897 117.806 125.037 116.916 132.096C115.901 138.235 113.235 143.982 109.203 148.721C106.583 152.271 104.306 155.356 104.624 159.029C105.127 163.924 107.297 168.497 110.77 171.982C113.708 175.483 116.475 178.789 115.006 184.885C113.978 189.097 110.77 191.986 107.661 194.679C103.474 198.45 99.5071 202.025 101.319 208.587C102.536 211.288 104.191 213.77 106.216 215.932C111.358 222.347 118.458 231.113 115.545 241.641C114.461 244.987 113.16 248.258 111.652 251.435C109.794 254.974 108.474 258.77 107.734 262.698Z" fill="white"/>
<path d="M113.39 112.386C113.39 112.729 113.288 113.065 113.097 113.351C112.906 113.637 112.635 113.86 112.317 113.992C111.999 114.123 111.65 114.158 111.312 114.091C110.975 114.024 110.666 113.858 110.422 113.615C110.179 113.372 110.014 113.062 109.947 112.725C109.88 112.387 109.914 112.038 110.046 111.72C110.177 111.403 110.4 111.131 110.686 110.94C110.972 110.749 111.308 110.647 111.652 110.647C112.113 110.647 112.555 110.83 112.881 111.156C113.207 111.482 113.39 111.924 113.39 112.386Z" fill="white"/>
<path d="M99.8254 267.056C94.9285 269.358 86.2853 263.653 86.0894 256.797C85.8936 249.941 86.5546 247.297 80.8007 244.285C75.0468 241.274 65.1794 242.327 63.3675 234.761C61.5556 227.195 68.7052 221.98 63.2206 217.621C57.736 213.263 49.0928 215.81 46.7178 204.767C44.5631 194.826 54.406 194.018 48.3093 184.959C43.1185 177.221 26.934 176.928 32.7369 164.783C37.6339 154.72 51.174 163.608 55.6792 170.488C63.4899 182.461 56.5117 191.839 65.0569 196.932C69.2928 199.38 77.7401 197.152 82.5146 207.509C87.2892 217.866 77.6177 222.861 81.6577 228.664C85.6977 234.467 98.3808 230.28 104.894 241.861C110.623 252.047 114.027 260.274 99.8254 267.056Z" fill="#A2CCDA"/>
<path d="M102.984 266.885C101.701 263.968 100.875 260.872 100.535 257.703C100.154 255.082 99.5983 252.489 98.8705 249.942C96.422 242.4 88.6114 240.148 82.4412 238.091C80.1221 237.592 77.909 236.689 75.9037 235.422C71.5209 231.7 72.6227 227.269 73.7001 222.984C74.745 220.109 74.8986 216.986 74.1408 214.022C72.6227 209.884 69.9049 209.125 66.477 208.121C62.5933 207.348 59.0927 205.265 56.5607 202.221C54.6019 199.772 54.7243 196.687 54.8712 193.112C55.3899 188.495 54.6451 183.824 52.7165 179.597C50.3933 174.939 46.4489 171.291 41.6249 169.337L41.9187 168.456C47.0532 170.423 51.2583 174.252 53.6959 179.18C55.6702 183.559 56.4475 188.384 55.9485 193.161C55.8016 196.662 55.6792 199.454 57.4176 201.633C59.8234 204.524 63.153 206.495 66.8443 207.215C70.2477 208.195 73.4797 209.101 75.1692 213.679C76.0007 216.823 75.8555 220.145 74.7529 223.204C73.7001 227.391 72.7207 231.358 76.6383 234.687C78.5592 235.891 80.6703 236.76 82.8819 237.258C88.9297 239.144 97.23 241.715 100.021 249.721C100.764 252.308 101.328 254.942 101.711 257.605C102.032 260.634 102.782 263.602 103.939 266.42L102.984 266.885Z" fill="white"/>
<path d="M42.7757 168.138C42.9286 168.357 43.013 168.616 43.0181 168.883C43.0231 169.15 42.9487 169.413 42.8042 169.637C42.6597 169.862 42.4517 170.038 42.2066 170.145C41.9615 170.251 41.6903 170.281 41.4277 170.233C41.165 170.185 40.9227 170.059 40.7314 169.873C40.5402 169.686 40.4088 169.447 40.3538 169.186C40.2988 168.925 40.3228 168.653 40.4227 168.405C40.5226 168.157 40.6939 167.945 40.9148 167.795C41.0588 167.693 41.2217 167.621 41.3939 167.583C41.5661 167.545 41.7441 167.542 41.9175 167.574C42.0908 167.606 42.2561 167.672 42.4035 167.769C42.5509 167.866 42.6774 167.991 42.7757 168.138Z" fill="white"/>
<path d="M99.6051 275.039C97.3035 279.103 88.1461 279.372 84.5714 274.549C80.9966 269.725 80.2131 267.546 74.5081 268.183C68.8031 268.819 62.2656 274.622 57.1973 270.068C52.1289 265.514 54.7488 258.217 48.5051 257.826C42.2615 257.434 37.438 263.604 30.2149 256.871C23.6775 250.774 30.3619 245.265 21.4249 241.813C13.8101 238.874 2.03286 246.71 0.123045 235.104C-1.46847 225.457 12.7817 225.016 19.5885 227.709C31.1943 232.386 30.9005 242.645 39.5927 242.008C43.9265 241.715 48.8234 235.814 57.4421 240.882C66.0608 245.95 61.7025 254.3 67.432 256.503C73.1614 258.707 80.262 249.305 90.7415 254.349C99.8499 258.83 106.412 263.065 99.6051 275.039Z" fill="#A2CCDA"/>
<path d="M101.809 273.447C99.44 271.965 97.31 270.133 95.4916 268.011C93.9077 266.327 92.2146 264.748 90.4232 263.286C84.8162 259.148 78.1808 261.278 72.7207 262.992C70.7632 263.782 68.6843 264.229 66.575 264.314C61.5311 263.824 60.111 260.078 58.7153 256.43C58.0332 253.833 56.5824 251.503 54.5529 249.746C51.4189 247.567 49.0683 248.35 46.1301 249.378C42.9413 250.771 39.37 251.021 36.0179 250.088C33.349 249.305 31.8799 247.003 30.1905 244.359C28.2788 240.831 25.4652 237.874 22.037 235.789C18.0111 233.604 13.3192 232.985 8.86415 234.051L8.59482 233.145C13.2588 232.032 18.1709 232.713 22.3553 235.055C25.9855 237.205 28.9708 240.292 30.9985 243.992C32.639 246.587 33.9611 248.644 36.2872 249.329C39.4486 250.202 42.8146 249.951 45.8118 248.619C48.7745 247.615 51.5658 246.661 55.0916 249.109C57.281 250.958 58.8459 253.438 59.5723 256.21C60.919 259.711 62.1922 263.041 66.6484 263.555C68.6255 263.466 70.5723 263.035 72.4024 262.282C77.7156 260.592 84.9876 258.291 90.9619 262.698C92.8011 264.211 94.5353 265.847 96.1527 267.595C97.8851 269.612 99.9067 271.361 102.152 272.786L101.809 273.447Z" fill="white"/>
<path d="M9.03552 232.606C9.18021 232.663 9.31241 232.747 9.42455 232.854C9.5367 232.961 9.6266 233.09 9.68912 233.232C9.75165 233.374 9.78557 233.527 9.78896 233.682C9.79234 233.837 9.76512 233.992 9.70885 234.137C9.65259 234.281 9.56837 234.413 9.46101 234.526C9.35365 234.638 9.22526 234.728 9.08315 234.79C8.94105 234.853 8.78803 234.887 8.63282 234.89C8.4776 234.893 8.32324 234.866 8.17855 234.81C8.03378 234.756 7.90137 234.673 7.78922 234.567C7.67707 234.461 7.58747 234.333 7.52577 234.191C7.46408 234.05 7.43155 233.897 7.43012 233.742C7.42869 233.588 7.45839 233.435 7.51746 233.292C7.57184 233.147 7.6543 233.014 7.76012 232.901C7.86593 232.788 7.99302 232.697 8.13407 232.634C8.27512 232.57 8.42736 232.535 8.58206 232.53C8.73676 232.525 8.89086 232.551 9.03552 232.606Z" fill="white"/>
<path d="M118.801 317.912H98.8216L93.0431 270.044C93.0431 270.044 93.8756 257.63 110.525 258.34C113.916 258.254 117.224 259.388 119.849 261.536C122.473 263.684 124.239 266.703 124.824 270.044L118.801 317.912Z" fill="#2A2873"/>
<path d="M234.811 298.348C230.06 285.494 226.437 264.608 232.925 251.239C240.05 236.548 252.831 237.993 254.815 226.975C258.145 208.415 250.53 202.71 246.71 188.436C243.894 177.858 247.249 160.474 262.895 159.396C283.829 157.976 279.593 178.666 295.729 177.956C306.674 177.491 328.71 154.304 340.928 176.046C356.158 203.175 309.93 206.236 307.629 212.21C301.924 226.901 325.87 210.692 323.323 229.35C321.903 239.805 295.239 236.965 295.729 251.704C296.121 263.604 295.729 274.549 278.589 289.778C261.45 305.008 254.325 304.053 254.325 304.053L234.811 298.348Z" fill="#A2CCDA"/>
<path d="M244.041 307.481L243.16 307.114C244.873 303.995 246.779 300.986 248.865 298.103C257.263 285.641 272.884 262.453 272.125 248.742C271.122 230.452 278.589 205.257 294.407 194.63C304.277 188.134 315.219 183.434 326.727 180.747L326.923 181.678C315.532 184.343 304.699 188.992 294.921 195.414C279.397 205.844 272.076 230.647 273.08 248.693C273.839 262.723 258.708 285.2 249.648 298.617C247.602 301.456 245.73 304.416 244.041 307.481Z" fill="white"/>
<path d="M242.401 300.723C241.892 291.882 242.212 283.012 243.356 274.231C244.727 260.519 248.644 254.643 254.08 246.269C255.892 243.502 257.949 240.392 260.103 236.646C275.921 209.174 267.449 184.787 263.996 174.381L263.752 173.671L264.658 173.353L264.902 174.087C268.502 184.616 276.949 209.272 260.936 237.111C258.757 240.882 256.7 244.016 254.888 246.905C249.526 255.059 245.657 260.935 244.311 274.426C243.215 283.171 242.92 291.998 243.429 300.797L242.401 300.723Z" fill="white"/>
<path d="M249.746 307.946L248.914 307.505C253.276 298.326 259.683 290.268 267.645 283.951L269.726 282.213C278.369 275.112 288.163 267.056 285.568 252.831C283.119 240.074 285.568 230.06 292.644 223.106L293.305 223.792C286.498 230.501 284.196 240.221 286.498 252.659C289.216 267.35 278.761 275.92 270.338 282.825L268.257 284.563C260.381 290.841 254.049 298.84 249.746 307.946Z" fill="white"/>
<path d="M266.176 174.528C266.073 174.773 265.923 174.994 265.734 175.181C265.546 175.367 265.322 175.514 265.077 175.614C264.831 175.715 264.568 175.765 264.303 175.764C264.038 175.762 263.776 175.708 263.531 175.605C263.287 175.503 263.065 175.353 262.879 175.164C262.692 174.975 262.545 174.752 262.445 174.506C262.345 174.261 262.294 173.998 262.296 173.733C262.297 173.468 262.351 173.205 262.454 172.961C262.557 172.717 262.707 172.495 262.895 172.309C263.084 172.122 263.307 171.975 263.553 171.875C263.799 171.775 264.061 171.724 264.327 171.726C264.592 171.727 264.854 171.781 265.098 171.884C265.343 171.987 265.564 172.137 265.751 172.325C265.937 172.514 266.085 172.737 266.185 172.983C266.285 173.228 266.335 173.491 266.334 173.756C266.332 174.022 266.279 174.284 266.176 174.528Z" fill="white"/>
<path d="M328.686 181.996C328.583 182.24 328.433 182.462 328.244 182.649C328.055 182.835 327.832 182.982 327.586 183.082C327.341 183.182 327.078 183.233 326.813 183.232C326.548 183.23 326.286 183.176 326.041 183.073C325.797 182.97 325.575 182.82 325.389 182.632C325.202 182.443 325.055 182.22 324.955 181.974C324.855 181.729 324.804 181.466 324.806 181.201C324.807 180.936 324.861 180.673 324.964 180.429C325.172 179.935 325.567 179.545 326.063 179.343C326.559 179.141 327.115 179.144 327.608 179.352C328.102 179.559 328.492 179.955 328.695 180.451C328.897 180.947 328.893 181.503 328.686 181.996Z" fill="white"/>
<path d="M294.676 224.061C294.572 224.307 294.42 224.53 294.229 224.718C294.039 224.905 293.813 225.053 293.565 225.154C293.317 225.254 293.052 225.304 292.785 225.301C292.517 225.299 292.253 225.243 292.007 225.138C291.646 224.979 291.34 224.717 291.127 224.384C290.914 224.052 290.804 223.664 290.81 223.269C290.816 222.875 290.939 222.491 291.162 222.165C291.386 221.84 291.7 221.587 292.066 221.44C292.432 221.292 292.834 221.255 293.22 221.334C293.607 221.414 293.962 221.605 294.24 221.885C294.519 222.165 294.709 222.52 294.786 222.907C294.864 223.294 294.825 223.696 294.676 224.061Z" fill="white"/>
<path d="M235.521 306.893C235.521 303.566 236.509 300.314 238.36 297.549C240.211 294.784 242.842 292.632 245.918 291.364C248.994 290.096 252.378 289.771 255.639 290.429C258.901 291.087 261.893 292.699 264.238 295.06C266.582 297.422 268.172 300.426 268.806 303.692C269.44 306.958 269.09 310.34 267.8 313.406C266.51 316.473 264.338 319.088 261.56 320.919C258.781 322.75 255.522 323.714 252.195 323.69C247.759 323.664 243.515 321.882 240.39 318.734C237.265 315.587 235.514 311.329 235.521 306.893Z" fill="#2B79E6"/>
<path d="M138.561 288.53H237.235V250.847H138.561C133.664 250.847 129.648 256.65 129.648 263.776V275.626C129.77 282.751 133.639 288.53 138.561 288.53Z" fill="#823024"/>
<path d="M140.054 284.171H237.112V255.23H140.054C136.259 255.23 136.259 284.171 140.054 284.171Z" fill="white"/>
<path d="M238.973 279.201H134.349V280.719H238.973V279.201Z" fill="#B3E3EF"/>
<path d="M238.973 274.133H134.349V275.651H238.973V274.133Z" fill="#B3E3EF"/>
<path d="M238.973 269.064H134.349V270.582H238.973V269.064Z" fill="#B3E3EF"/>
<path d="M238.973 263.996H134.349V265.514H238.973V263.996Z" fill="#B3E3EF"/>
<path d="M238.973 258.927H134.349V260.446H238.973V258.927Z" fill="#B3E3EF"/>
<path d="M167.575 251.68C167.575 251.68 161.258 260.592 165.641 265.955C170.024 271.317 205.674 267.105 207.118 261.058C208.563 255.01 204.939 248.007 204.939 248.007L167.575 251.68Z" fill="#9B9B9B"/>
<path d="M227.979 246.734H165.469V251.313H227.979V246.734Z" fill="#0C5C9B"/>
<path d="M160.548 174.234C153.741 175.214 137.483 213.41 142.331 222.102C147.179 230.794 173.843 241.029 173.843 241.029L172.399 225.995C172.399 225.995 154.255 218.234 155.602 213.361C156.949 208.489 167.575 190.394 167.575 190.394L160.548 174.234Z" fill="#FF645F"/>
<path d="M206.016 174.234C212.799 175.214 229.081 213.41 224.233 222.102C219.385 230.794 192.697 241.029 192.697 241.029L194.141 225.995C194.141 225.995 212.407 218.234 210.962 213.361C209.518 208.489 198.989 190.394 198.989 190.394L206.016 174.234Z" fill="#FF645F"/>
<path d="M164.71 173.133H202.025C203.324 173.113 204.613 173.352 205.818 173.835C207.024 174.319 208.121 175.037 209.046 175.949C209.971 176.86 210.705 177.946 211.207 179.144C211.708 180.342 211.966 181.628 211.966 182.926C211.966 182.926 204.841 212.039 204.768 221.784C204.768 227.122 206.457 243.086 206.457 243.086H160.303C160.303 243.086 162.433 226.412 162.384 220.805C162.384 211.304 154.794 183 154.794 183C154.784 181.697 155.034 180.406 155.53 179.201C156.025 177.996 156.756 176.902 157.679 175.983C158.603 175.064 159.7 174.339 160.908 173.849C162.115 173.36 163.408 173.116 164.71 173.133Z" fill="#FF645F"/>
<path d="M188.142 180.429C188.007 181.507 187.466 182.492 186.628 183.184C185.791 183.876 184.721 184.222 183.637 184.151C179.058 183.93 178.74 180.429 178.74 180.429V162.261H188.265L188.142 180.429Z" fill="#F7958D"/>
<path d="M195.17 161.6C195.17 168.089 189.881 177.785 183.392 177.785C176.904 177.785 171.591 167.991 171.591 161.6C171.518 160.007 171.769 158.415 172.329 156.921C172.889 155.428 173.745 154.063 174.847 152.91C175.949 151.757 177.273 150.839 178.74 150.211C180.206 149.584 181.785 149.261 183.38 149.261C184.975 149.261 186.554 149.584 188.02 150.211C189.487 150.839 190.811 151.757 191.913 152.91C193.015 154.063 193.872 155.428 194.431 156.921C194.991 158.415 195.242 160.007 195.17 161.6Z" fill="#FCA89E"/>
<path d="M214.635 209.786H152.125V247.052H214.635V209.786Z" fill="#2A2873"/>
<path d="M189.122 227.709C189.122 228.848 188.784 229.962 188.15 230.909C187.517 231.855 186.617 232.593 185.564 233.028C184.511 233.462 183.353 233.575 182.236 233.351C181.119 233.127 180.094 232.576 179.291 231.769C178.487 230.962 177.941 229.935 177.721 228.817C177.502 227.699 177.62 226.541 178.059 225.49C178.498 224.439 179.239 223.542 180.189 222.913C181.138 222.284 182.253 221.95 183.392 221.955C184.147 221.955 184.894 222.104 185.591 222.394C186.287 222.683 186.92 223.107 187.452 223.642C187.985 224.177 188.406 224.811 188.693 225.509C188.979 226.207 189.125 226.955 189.122 227.709Z" fill="#0C5C9B"/>
<path d="M179.205 266.885C177.896 267.934 176.424 268.761 174.847 269.334C171.493 270.754 164.857 273.374 165.861 276.263C167.208 280.131 171.86 279.862 174.97 278.932C179.8 277.27 184.4 274.999 188.657 272.174L179.205 266.885Z" fill="#2B79E6"/>
<path d="M187.212 256.797C198.573 248.521 204.498 242.4 217.23 234.761C220.266 232.9 222.348 232.312 227.612 234.418C232.068 236.181 231.603 243.869 229.154 247.077C221.809 256.724 193.578 270.019 187.873 272.027C185.425 272.908 176.708 265.587 180.234 262.062C182.446 260.161 184.777 258.403 187.212 256.797Z" fill="#B3E3EF"/>
<path d="M181.997 272.737C183.746 275.008 185.751 277.07 187.971 278.883C191.815 281.87 194.459 282.849 197.594 281.331C202.123 279.225 197.961 274.769 194.435 271.268C191.755 268.477 188.755 266.012 185.498 263.922L181.997 272.737Z" fill="#2B79E6"/>
<path d="M171.811 163.755C173.958 160.871 175.75 157.738 177.149 154.426C178.446 150.533 179.205 154.671 184.788 158.907C188.04 160.886 191.486 162.526 195.072 163.804C195.072 163.804 196.737 156.458 194.141 152.639C187.946 143.677 175.288 144.265 171.444 154.744C170.839 156.181 170.558 157.733 170.622 159.291C170.685 160.848 171.091 162.372 171.811 163.755Z" fill="#2A2873"/>
<path d="M182.56 261.988L187.457 266.004C188.431 266.84 189.259 267.833 189.905 268.942C191.497 271.88 186.037 277.879 182.56 274.353C179.083 270.827 175.875 267.008 175.875 267.008L182.56 261.988Z" fill="#F59762"/>
<path d="M168.138 268.183C154.941 261.547 146.861 259.172 138.389 247.224C136.297 244.123 135.506 240.325 136.185 236.646C137.238 233.61 141.695 231.749 146.959 233.022C151.366 234.075 180.993 257.287 185.62 261.645C187.604 263.531 181.531 272.982 176.561 271.439C173.654 270.631 170.833 269.54 168.138 268.183Z" fill="#8FD5E5"/>
<path d="M242.793 288.921H114.908V327.559H242.793C247.861 327.559 251.95 321.633 251.95 314.312V302.07C251.95 294.871 247.861 288.921 242.793 288.921Z" fill="#FF645F"/>
<path d="M241.274 293.402H115.079V323.2H241.274C245.143 323.2 245.143 293.402 241.274 293.402Z" fill="white"/>
<path d="M247.126 296.953H113.145V298.52H247.126V296.953Z" fill="#B3E3EF"/>
<path d="M247.126 302.143H113.145V303.71H247.126V302.143Z" fill="#B3E3EF"/>
<path d="M247.126 307.359H113.145V308.926H247.126V307.359Z" fill="#B3E3EF"/>
<path d="M247.126 312.549H113.145V314.116H247.126V312.549Z" fill="#B3E3EF"/>
<path d="M247.126 317.74H113.145V319.307H247.126V317.74Z" fill="#B3E3EF"/>
<path d="M192.109 131.998C192.114 133.719 191.607 135.403 190.654 136.836C189.701 138.269 188.344 139.387 186.754 140.048C185.165 140.709 183.415 140.883 181.727 140.549C180.039 140.214 178.488 139.386 177.271 138.169C176.053 136.952 175.225 135.401 174.89 133.712C174.556 132.024 174.73 130.274 175.391 128.685C176.052 127.095 177.17 125.738 178.603 124.785C180.036 123.832 181.72 123.325 183.441 123.33C185.738 123.337 187.939 124.252 189.563 125.876C191.187 127.5 192.102 129.701 192.109 131.998Z" fill="#2B79E6"/>
<path d="M191.668 117.87H175.19C173.27 117.87 171.713 119.427 171.713 121.347V125.118C171.713 127.038 173.27 128.595 175.19 128.595H191.668C193.588 128.595 195.145 127.038 195.145 125.118V121.347C195.145 119.427 193.588 117.87 191.668 117.87Z" fill="#73B3FF"/>
<path d="M187.726 4.28485C187.726 6.73334 183.441 14.2747 183.441 14.2747C183.441 14.2747 179.156 6.6354 179.156 4.28485C179.156 3.14844 179.608 2.05857 180.411 1.255C181.215 0.451438 182.305 0 183.441 0C184.578 0 185.668 0.451438 186.471 1.255C187.275 2.05857 187.726 3.14844 187.726 4.28485Z" fill="#B3E3EF"/>
<path d="M144.461 13.785C145.637 15.8172 145.735 24.5583 145.735 24.5583C145.735 24.5583 138.218 20.1021 137.042 18.0453C136.648 17.0869 136.614 16.018 136.948 15.0367C137.281 14.0553 137.959 13.228 138.855 12.708C139.752 12.188 140.806 12.0106 141.823 12.2086C142.841 12.4067 143.752 12.9667 144.388 13.785H144.461Z" fill="#B3E3EF"/>
<path d="M111.554 43.681C113.61 44.8563 118.067 52.3731 118.067 52.3731C118.067 52.3731 109.326 52.3731 107.269 51.0999C106.29 50.5269 105.577 49.5913 105.283 48.4958C104.99 47.4004 105.14 46.2334 105.702 45.248C105.981 44.7586 106.354 44.3294 106.8 43.9853C107.246 43.6411 107.756 43.3889 108.301 43.2431C108.845 43.0974 109.413 43.0611 109.971 43.1362C110.529 43.2114 111.067 43.3966 111.554 43.681Z" fill="#B3E3EF"/>
<path d="M98.1115 85.9664C100.56 85.9664 108.101 90.2512 108.101 90.2512C108.101 90.2512 100.389 94.5361 98.1115 94.5361C96.9751 94.5361 95.8852 94.0846 95.0817 93.2811C94.2781 92.4775 93.8267 91.3876 93.8267 90.2512C93.8267 89.1148 94.2781 88.0249 95.0817 87.2214C95.8852 86.4178 96.9751 85.9664 98.1115 85.9664Z" fill="#B3E3EF"/>
<path d="M137.483 162.114C138.683 160.082 146.2 155.601 146.2 155.601C146.2 155.601 146.2 164.367 144.902 166.399C144.663 166.958 144.308 167.459 143.861 167.87C143.414 168.281 142.884 168.592 142.307 168.783C141.731 168.974 141.12 169.039 140.516 168.976C139.912 168.913 139.328 168.722 138.803 168.416C138.279 168.11 137.825 167.696 137.472 167.201C137.12 166.706 136.877 166.142 136.759 165.546C136.641 164.95 136.651 164.336 136.789 163.744C136.926 163.153 137.188 162.597 137.557 162.114H137.483Z" fill="#B3E3EF"/>
<path d="M223.131 166.081C221.956 164.049 221.858 155.283 221.858 155.283C221.858 155.283 229.375 159.764 230.55 161.796C230.961 162.756 231.006 163.834 230.679 164.826C230.351 165.818 229.672 166.655 228.769 167.182C227.867 167.708 226.804 167.887 225.779 167.684C224.754 167.481 223.839 166.911 223.205 166.081H223.131Z" fill="#B3E3EF"/>
<path d="M255.941 136.185C253.884 135.01 249.428 127.493 249.428 127.493C249.428 127.493 258.169 127.493 260.226 128.766C260.784 129.005 261.286 129.36 261.697 129.807C262.108 130.254 262.419 130.784 262.609 131.361C262.8 131.937 262.866 132.548 262.803 133.152C262.74 133.756 262.549 134.34 262.242 134.865C261.936 135.389 261.522 135.843 261.027 136.196C260.533 136.548 259.969 136.791 259.373 136.909C258.777 137.027 258.163 137.017 257.571 136.879C256.979 136.742 256.424 136.48 255.941 136.111V136.185Z" fill="#B3E3EF"/>
<path d="M269.334 93.8995C266.886 93.8995 259.344 89.6146 259.344 89.6146C259.344 89.6146 266.959 85.3298 269.334 85.3298C270.471 85.3298 271.56 85.7812 272.364 86.5848C273.168 87.3883 273.619 88.4782 273.619 89.6146C273.619 90.751 273.168 91.8409 272.364 92.6445C271.56 93.448 270.471 93.8995 269.334 93.8995Z" fill="#B3E3EF"/>
<path d="M259.908 50.5368C257.851 51.7121 249.11 51.8345 249.11 51.8345C249.11 51.8345 253.566 44.3177 255.623 43.1179C256.583 42.7072 257.661 42.6616 258.652 42.9895C259.644 43.3175 260.482 43.9964 261.008 44.8987C261.535 45.801 261.713 46.8645 261.511 47.8893C261.308 48.914 260.738 49.8294 259.908 50.4634V50.5368Z" fill="#B3E3EF"/>
<path d="M230.011 17.7515C228.836 19.7838 221.295 24.24 221.295 24.24C221.295 24.24 221.417 15.4989 222.593 13.4667C222.831 12.9081 223.186 12.4067 223.634 11.9958C224.081 11.5848 224.61 11.2737 225.187 11.083C225.764 10.8923 226.375 10.8264 226.979 10.8896C227.583 10.9529 228.167 11.1439 228.691 11.45C229.216 11.7561 229.67 12.1702 230.022 12.665C230.375 13.1597 230.618 13.7237 230.736 14.3196C230.854 14.9155 230.843 15.5297 230.706 16.1214C230.568 16.713 230.307 17.2687 229.938 17.7515H230.011Z" fill="#B3E3EF"/>
</svg>
