<svg width="137" height="185" viewBox="0 0 137 185" fill="none" xmlns="http://www.w3.org/2000/svg">
<g clip-path="url(#clip0)">
<path d="M41.91 23.0002C44.58 33.3002 39.18 42.7702 29.08 46.0002C18.98 49.2302 7.30002 45.0002 2.27002 35.3702C0.839406 32.5961 0.0647817 29.5305 0.00583425 26.4098C-0.0531132 23.289 0.60519 20.1964 1.93002 17.3702C3.93002 9.37023 10.73 2.84023 19.82 4.03023C30 5.32023 39.3 12.9202 41.91 23.0002Z" fill="#FF645F"/>
<path d="M133 58.2898C130 65.0598 124.92 70.2898 117.35 71.2898C113.917 71.6928 110.438 71.2847 107.192 70.0985C103.946 68.9123 101.024 66.981 98.6599 64.4598C93.5399 59.2198 90.3399 52.4598 85.4099 47.0298C80.7699 41.9298 74.9599 37.2598 73.4099 30.2098C70.8199 18.8598 77.8399 9.72983 87.0599 4.51983C99.4299 -6.48017 119.42 4.78983 127.91 15.8198C132.434 21.8184 135.288 28.9084 136.183 36.3684C137.077 43.8284 135.979 51.3921 133 58.2898Z" fill="#FF645F"/>
<path d="M21.87 13.2798H21.78C21.5148 13.2798 21.2605 13.3851 21.0729 13.5727C20.8854 13.7602 20.78 14.0146 20.78 14.2798C20.78 14.545 20.8854 14.7994 21.0729 14.9869C21.2605 15.1744 21.5148 15.2798 21.78 15.2798H21.87C22.1352 15.2798 22.3896 15.1744 22.5771 14.9869C22.7647 14.7994 22.87 14.545 22.87 14.2798C22.87 14.0146 22.7647 13.7602 22.5771 13.5727C22.3896 13.3851 22.1352 13.2798 21.87 13.2798Z" fill="#263655"/>
<path d="M19.4399 20.9199C19.1747 20.9199 18.9204 21.0253 18.7328 21.2128C18.5453 21.4004 18.4399 21.6547 18.4399 21.9199C18.4399 22.1851 18.5453 22.4395 18.7328 22.627C18.9204 22.8146 19.1747 22.9199 19.4399 22.9199C19.7052 22.9199 19.9595 22.8146 20.147 22.627C20.3346 22.4395 20.4399 22.1851 20.4399 21.9199C20.4399 21.6547 20.3346 21.4004 20.147 21.2128C19.9595 21.0253 19.7052 20.9199 19.4399 20.9199Z" fill="#263655"/>
<path d="M21.2601 28.7598L21.1701 28.8498C20.9818 29.0368 20.8755 29.2909 20.8745 29.5563C20.8736 29.8216 20.9781 30.0765 21.1651 30.2648C21.3521 30.4531 21.6062 30.5594 21.8715 30.5604C22.1369 30.5613 22.3918 30.4568 22.5801 30.2698L22.6701 30.1798C22.7633 30.0872 22.8374 29.9772 22.8881 29.856C22.9388 29.7347 22.9652 29.6047 22.9656 29.4733C22.9661 29.3419 22.9407 29.2117 22.8908 29.0902C22.841 28.9686 22.7677 28.858 22.6751 28.7648C22.5825 28.6716 22.4725 28.5975 22.3512 28.5468C22.23 28.496 22.1 28.4697 21.9686 28.4692C21.8372 28.4688 21.707 28.4942 21.5854 28.5441C21.4639 28.5939 21.3533 28.6672 21.2601 28.7598Z" fill="#263655"/>
<path d="M29.1299 35.7101L28.9999 35.3501C28.4199 34.2001 26.6899 35.2001 27.2599 36.3501L27.4399 36.7001C27.9999 37.8601 29.6999 36.8601 29.1299 35.7101Z" fill="#263655"/>
<path d="M35.26 38.2899L35.17 38.1999C34.9831 38.0116 34.7289 37.9052 34.4636 37.9043C34.1982 37.9034 33.9433 38.0079 33.755 38.1949C33.5667 38.3818 33.4604 38.636 33.4595 38.9013C33.4585 39.1667 33.5631 39.4216 33.75 39.6099L33.84 39.6999C34.027 39.8882 34.2811 39.9945 34.5465 39.9954C34.8119 39.9964 35.0667 39.8918 35.255 39.7049C35.4433 39.5179 35.5497 39.2638 35.5506 38.9984C35.5515 38.733 35.447 38.4782 35.26 38.2899Z" fill="#263655"/>
<path d="M43.1799 38.5602C43.0638 38.4388 42.924 38.3424 42.7692 38.277C42.6144 38.2117 42.4479 38.1787 42.2799 38.1802C41.1299 38.1802 41.0199 39.7302 41.9399 40.1002C42.1466 40.2204 42.3895 40.2626 42.6246 40.219C42.8597 40.1755 43.0715 40.0491 43.2214 39.8629C43.3714 39.6767 43.4496 39.4428 43.442 39.2039C43.4344 38.9649 43.3414 38.7365 43.1799 38.5602Z" fill="#263655"/>
<path d="M49 35.3001C48.8561 35.2942 48.7129 35.3229 48.5824 35.3838C48.4519 35.4447 48.3379 35.536 48.25 35.6501C48.1008 35.7857 47.9961 35.9632 47.9496 36.1594C47.9031 36.3556 47.9169 36.5613 47.9894 36.7494C48.0619 36.9376 48.1895 37.0994 48.3556 37.2138C48.5216 37.3281 48.7184 37.3896 48.92 37.3901C49.0621 37.3936 49.2031 37.3638 49.3316 37.303C49.4601 37.2422 49.5726 37.1522 49.66 37.0401C49.8086 36.905 49.9131 36.7284 49.9599 36.5332C50.0067 36.3379 49.9937 36.1331 49.9225 35.9453C49.8513 35.7576 49.7252 35.5957 49.5607 35.4806C49.3961 35.3655 49.2008 35.3026 49 35.3001Z" fill="#263655"/>
<path d="M52.79 30V30.18C52.79 30.4452 52.8954 30.6996 53.0829 30.8871C53.2705 31.0746 53.5248 31.18 53.79 31.18C54.0553 31.18 54.3096 31.0746 54.4971 30.8871C54.6847 30.6996 54.79 30.4452 54.79 30.18V30C54.79 29.7348 54.6847 29.4804 54.4971 29.2929C54.3096 29.1054 54.0553 29 53.79 29C53.5248 29 53.2705 29.1054 53.0829 29.2929C52.8954 29.4804 52.79 29.7348 52.79 30Z" fill="#263655"/>
<path d="M54.5801 21V21.09C54.5801 21.3552 54.6854 21.6096 54.873 21.7971C55.0605 21.9846 55.3149 22.09 55.5801 22.09C55.8453 22.09 56.0996 21.9846 56.2872 21.7971C56.4747 21.6096 56.5801 21.3552 56.5801 21.09V21C56.5801 20.7348 56.4747 20.4804 56.2872 20.2929C56.0996 20.1054 55.8453 20 55.5801 20C55.3149 20 55.0605 20.1054 54.873 20.2929C54.6854 20.4804 54.5801 20.7348 54.5801 21Z" fill="#263655"/>
<path d="M53.8699 13.5701L53.7799 13.4801C53.5929 13.2918 53.3388 13.1855 53.0734 13.1846C52.8081 13.1836 52.5532 13.2882 52.3649 13.4751C52.1766 13.6621 52.0703 13.9162 52.0693 14.1816C52.0684 14.447 52.1729 14.7018 52.3599 14.8901L52.4499 14.9801C52.6369 15.1684 52.891 15.2748 53.1564 15.2757C53.4217 15.2766 53.6766 15.1721 53.8649 14.9851C54.0532 14.7982 54.1595 14.544 54.1605 14.2787C54.1614 14.0133 54.0569 13.7584 53.8699 13.5701Z" fill="#263655"/>
<path d="M48.3601 6.92991L48.1801 6.83991C47.0001 6.25991 46.0001 7.99991 47.1801 8.56991L47.3601 8.65991C48.5001 9.23991 49.5101 7.50991 48.3601 6.92991Z" fill="#263655"/>
<path d="M41.5599 3H41.3799C41.1147 3 40.8603 3.10536 40.6728 3.29289C40.4852 3.48043 40.3799 3.73478 40.3799 4C40.3799 4.26522 40.4852 4.51957 40.6728 4.70711C40.8603 4.89464 41.1147 5 41.3799 5H41.5599C41.8251 5 42.0795 4.89464 42.267 4.70711C42.4545 4.51957 42.5599 4.26522 42.5599 4C42.5599 3.73478 42.4545 3.48043 42.267 3.29289C42.0795 3.10536 41.8251 3 41.5599 3Z" fill="#263655"/>
<path d="M33.9999 1.51998L33.9099 1.60998C32.9999 2.51998 34.3999 3.93999 35.3099 3.02998L35.3999 2.93999C36.3399 1.99999 34.9399 0.609985 33.9999 1.51998Z" fill="#263655"/>
<path d="M28.4299 3.75C28.1647 3.75 27.9104 3.85536 27.7228 4.04289C27.5353 4.23043 27.4299 4.48478 27.4299 4.75C27.4299 5.01522 27.5353 5.26957 27.7228 5.45711C27.9104 5.64464 28.1647 5.75 28.4299 5.75C28.6951 5.75 28.9495 5.64464 29.137 5.45711C29.3246 5.26957 29.4299 5.01522 29.4299 4.75C29.4299 4.48478 29.3246 4.23043 29.137 4.04289C28.9495 3.85536 28.6951 3.75 28.4299 3.75Z" fill="#263655"/>
<path d="M24.9299 8C24.6647 8 24.4104 8.10536 24.2228 8.29289C24.0353 8.48043 23.9299 8.73478 23.9299 9C23.9299 9.26522 24.0353 9.51957 24.2228 9.70711C24.4104 9.89464 24.6647 10 24.9299 10C25.1951 10 25.4495 9.89464 25.637 9.70711C25.8246 9.51957 25.9299 9.26522 25.9299 9C25.9299 8.73478 25.8246 8.48043 25.637 8.29289C25.4495 8.10536 25.1951 8 24.9299 8Z" fill="#263655"/>
<path d="M24.41 17.6099L24.32 17.6999C24.1317 17.8869 24.0254 18.141 24.0244 18.4064C24.0235 18.6717 24.128 18.9266 24.315 19.1149C24.502 19.3032 24.7561 19.4095 25.0214 19.4105C25.2868 19.4114 25.5417 19.3069 25.73 19.1199L25.82 19.0299C26.0083 18.8429 26.1146 18.5888 26.1155 18.3234C26.1165 18.0581 26.012 17.8032 25.825 17.6149C25.638 17.4266 25.3839 17.3203 25.1185 17.3193C24.8531 17.3184 24.5983 17.4229 24.41 17.6099Z" fill="#263655"/>
<path d="M26.2799 26.3301L25.9199 25.8801C25.7325 25.6939 25.4791 25.5894 25.2149 25.5894C24.9507 25.5894 24.6973 25.6939 24.5099 25.8801C24.4162 25.9731 24.3418 26.0837 24.291 26.2056C24.2403 26.3274 24.2141 26.4581 24.2141 26.5901C24.2141 26.7222 24.2403 26.8529 24.291 26.9747C24.3418 27.0966 24.4162 27.2072 24.5099 27.3001L24.8699 27.7501C25.0573 27.9364 25.3107 28.0409 25.5749 28.0409C25.8391 28.0409 26.0925 27.9364 26.2799 27.7501C26.3736 27.6572 26.448 27.5466 26.4988 27.4247C26.5496 27.3029 26.5757 27.1722 26.5757 27.0401C26.5757 26.9081 26.5496 26.7774 26.4988 26.6556C26.448 26.5337 26.3736 26.4231 26.2799 26.3301Z" fill="#263655"/>
<path d="M32.35 31.9398L31.64 31.4698C30.56 30.7698 29.56 32.4698 30.64 33.1998L31.35 33.6698C32.43 34.3698 33.42 32.6398 32.35 31.9398Z" fill="#263655"/>
<path d="M40.84 33.7101L40.75 33.6201C39.84 32.7101 38.41 34.1101 39.32 35.0201L39.41 35.1101C40.32 36.0001 41.75 34.6201 40.84 33.7101Z" fill="#263655"/>
<path d="M46.77 30.3599C46.5048 30.3599 46.2504 30.4652 46.0629 30.6528C45.8754 30.8403 45.77 31.0946 45.77 31.3599C45.77 31.6251 45.8754 31.8794 46.0629 32.067C46.2504 32.2545 46.5048 32.3599 46.77 32.3599C47.0352 32.3599 47.2896 32.2545 47.4771 32.067C47.6647 31.8794 47.77 31.6251 47.77 31.3599C47.77 31.0946 47.6647 30.8403 47.4771 30.6528C47.2896 30.4652 47.0352 30.3599 46.77 30.3599Z" fill="#263655"/>
<path d="M49.6399 24.4399V24.5299C49.6399 24.7952 49.7452 25.0495 49.9328 25.237C50.1203 25.4246 50.3747 25.5299 50.6399 25.5299C50.9051 25.5299 51.1595 25.4246 51.347 25.237C51.5345 25.0495 51.6399 24.7952 51.6399 24.5299V24.4399C51.6399 24.1747 51.5345 23.9204 51.347 23.7328C51.1595 23.5453 50.9051 23.4399 50.6399 23.4399C50.3747 23.4399 50.1203 23.5453 49.9328 23.7328C49.7452 23.9204 49.6399 24.1747 49.6399 24.4399Z" fill="#263655"/>
<path d="M49.88 16L49.61 15.82C48.54 15.1 47.55 16.82 48.61 17.55L48.88 17.73C50 18.46 51 16.73 49.88 16Z" fill="#263655"/>
<path d="M43.5201 10.3398L43.2501 10.2498C43.1187 10.2126 42.981 10.2026 42.8456 10.2206C42.7102 10.2386 42.58 10.2841 42.4628 10.3544C42.3457 10.4247 42.2442 10.5182 42.1647 10.6292C42.0851 10.7402 42.0291 10.8663 42.0001 10.9998C41.967 11.1272 41.9594 11.2599 41.9777 11.3902C41.9961 11.5205 42.0399 11.646 42.1068 11.7593C42.1737 11.8726 42.2623 11.9717 42.3675 12.0507C42.4728 12.1297 42.5926 12.1872 42.7201 12.2198L42.9901 12.3098C43.1205 12.3549 43.2589 12.3725 43.3964 12.3615C43.534 12.3505 43.6678 12.3112 43.7894 12.246C43.911 12.1807 44.0178 12.0911 44.1031 11.9826C44.1883 11.874 44.2502 11.7491 44.2848 11.6155C44.3194 11.4819 44.326 11.3426 44.3042 11.2063C44.2823 11.0701 44.2325 10.9398 44.1578 10.8238C44.0832 10.7077 43.9853 10.6083 43.8704 10.5319C43.7555 10.4555 43.626 10.4037 43.4901 10.3798L43.5201 10.3398Z" fill="#263655"/>
<path d="M35.3001 7.83978L35.2101 7.99978C34.6401 9.14978 36.3701 10.1598 36.9501 8.99978L37.0001 8.83978C37.6101 7.69978 35.8801 6.68978 35.3001 7.83978Z" fill="#263655"/>
<path d="M30 10.6699C29.7348 10.6699 29.4804 10.7753 29.2929 10.9628C29.1054 11.1504 29 11.4047 29 11.6699C29 11.9351 29.1054 12.1895 29.2929 12.377C29.4804 12.5646 29.7348 12.6699 30 12.6699C30.2652 12.6699 30.5196 12.5646 30.7071 12.377C30.8946 12.1895 31 11.9351 31 11.6699C31 11.4047 30.8946 11.1504 30.7071 10.9628C30.5196 10.7753 30.2652 10.6699 30 10.6699Z" fill="#263655"/>
<path d="M29.0601 20.5698V20.6598C29.0601 20.925 29.1654 21.1794 29.353 21.3669C29.5405 21.5545 29.7948 21.6598 30.0601 21.6598C30.3253 21.6598 30.5796 21.5545 30.7672 21.3669C30.9547 21.1794 31.0601 20.925 31.0601 20.6598V20.5698C31.0601 20.3046 30.9547 20.0503 30.7672 19.8627C30.5796 19.6752 30.3253 19.5698 30.0601 19.5698C29.7948 19.5698 29.5405 19.6752 29.353 19.8627C29.1654 20.0503 29.0601 20.3046 29.0601 20.5698Z" fill="#263655"/>
<path d="M33.6099 27.17L33.4299 27.08C32.2799 26.51 31.2799 28.23 32.4299 28.81L32.6099 28.9C33.7499 29.48 34.7599 27.75 33.6099 27.17Z" fill="#263655"/>
<path d="M42.0599 27.2598L41.8799 27.3498C40.7299 27.9398 41.7299 29.6698 42.8799 29.0898L43.0599 28.9998C44.1999 28.4098 43.1999 26.6798 42.0599 27.2598Z" fill="#263655"/>
<path d="M46.1401 21.3001L46.0501 21.2101C45.1401 20.3001 43.7101 21.7101 44.6301 22.6201L44.7201 22.7101C44.8126 22.8033 44.9227 22.8774 45.0439 22.9281C45.1651 22.9788 45.2951 23.0052 45.4265 23.0056C45.5579 23.0061 45.6881 22.9807 45.8097 22.9308C45.9313 22.881 46.0418 22.8077 46.1351 22.7151C46.2283 22.6225 46.3024 22.5125 46.3531 22.3912C46.4038 22.27 46.4302 22.14 46.4306 22.0086C46.4311 21.8772 46.4057 21.747 46.3558 21.6254C46.306 21.5039 46.2326 21.3933 46.1401 21.3001Z" fill="#263655"/>
<path d="M39.58 13.8198H39.49C39.2248 13.8198 38.9704 13.9252 38.7829 14.1127C38.5953 14.3003 38.49 14.5546 38.49 14.8198C38.49 15.085 38.5953 15.3394 38.7829 15.5269C38.9704 15.7145 39.2248 15.8198 39.49 15.8198H39.58C39.8452 15.8198 40.0996 15.7145 40.2871 15.5269C40.4746 15.3394 40.58 15.085 40.58 14.8198C40.58 14.5546 40.4746 14.3003 40.2871 14.1127C40.0996 13.9252 39.8452 13.8198 39.58 13.8198Z" fill="#263655"/>
<path d="M33 15.7002C32.7348 15.7002 32.4804 15.8056 32.2929 15.9931C32.1054 16.1806 32 16.435 32 16.7002C32 16.9654 32.1054 17.2198 32.2929 17.4073C32.4804 17.5948 32.7348 17.7002 33 17.7002C33.2652 17.7002 33.5196 17.5948 33.7071 17.4073C33.8946 17.2198 34 16.9654 34 16.7002C34 16.435 33.8946 16.1806 33.7071 15.9931C33.5196 15.8056 33.2652 15.7002 33 15.7002Z" fill="#263655"/>
<path d="M36.4299 23.4502V23.5402C36.4299 23.8054 36.5353 24.0598 36.7228 24.2473C36.9104 24.4348 37.1647 24.5402 37.4299 24.5402C37.6951 24.5402 37.9495 24.4348 38.137 24.2473C38.3246 24.0598 38.4299 23.8054 38.4299 23.5402V23.4502C38.4299 23.185 38.3246 22.9306 38.137 22.7431C37.9495 22.5556 37.6951 22.4502 37.4299 22.4502C37.1647 22.4502 36.9104 22.5556 36.7228 22.7431C36.5353 22.9306 36.4299 23.185 36.4299 23.4502Z" fill="#263655"/>
<path d="M41.29 18C41.0248 18 40.7705 18.1054 40.5829 18.2929C40.3954 18.4804 40.29 18.7348 40.29 19C40.29 19.2652 40.3954 19.5196 40.5829 19.7071C40.7705 19.8946 41.0248 20 41.29 20C41.5553 20 41.8096 19.8946 41.9971 19.7071C42.1847 19.5196 42.29 19.2652 42.29 19C42.29 18.7348 42.1847 18.4804 41.9971 18.2929C41.8096 18.1054 41.5553 18 41.29 18Z" fill="#263655"/>
<path d="M25.74 21.73C25.4748 21.73 25.2204 21.8353 25.0329 22.0229C24.8453 22.2104 24.74 22.4648 24.74 22.73C24.74 22.9952 24.8453 23.2496 25.0329 23.4371C25.2204 23.6246 25.4748 23.73 25.74 23.73C26.0052 23.73 26.2596 23.6246 26.4471 23.4371C26.6346 23.2496 26.74 22.9952 26.74 22.73C26.74 22.4648 26.6346 22.2104 26.4471 22.0229C26.2596 21.8353 26.0052 21.73 25.74 21.73Z" fill="#263655"/>
<path d="M107.17 106.53V106.44C107.064 106.175 106.857 105.963 106.594 105.85C106.332 105.738 106.035 105.734 105.77 105.84C105.505 105.946 105.293 106.153 105.18 106.416C105.068 106.679 105.064 106.975 105.17 107.24V107.33C105.223 107.462 105.3 107.581 105.399 107.682C105.498 107.784 105.616 107.864 105.746 107.92C105.876 107.976 106.015 108.005 106.157 108.007C106.298 108.009 106.439 107.983 106.57 107.93C106.701 107.878 106.821 107.8 106.922 107.701C107.024 107.602 107.104 107.484 107.16 107.354C107.216 107.224 107.245 107.085 107.247 106.943C107.249 106.802 107.223 106.662 107.17 106.53Z" fill="#FF645F"/>
<path d="M98.59 107.11C98.4839 106.845 98.2768 106.633 98.0142 106.52C97.7517 106.408 97.4552 106.404 97.19 106.51C96.9248 106.616 96.7125 106.823 96.6 107.086C96.4875 107.348 96.4839 107.645 96.59 107.91C96.6961 108.175 96.9032 108.388 97.1657 108.5C97.4283 108.613 97.7248 108.616 97.99 108.51C98.2552 108.404 98.4674 108.197 98.5799 107.934C98.6924 107.672 98.6961 107.375 98.59 107.11Z" fill="#FF645F"/>
<path d="M91.48 112L91.36 111.94C91.0948 111.825 90.7946 111.819 90.5255 111.925C90.2564 112.031 90.0404 112.24 89.925 112.505C89.8096 112.77 89.8043 113.071 89.9103 113.34C90.0162 113.609 90.2248 113.825 90.49 113.94H90.61C90.8604 114.02 91.1313 114.004 91.3711 113.897C91.6109 113.79 91.8029 113.598 91.9104 113.358C92.0179 113.118 92.0335 112.848 91.9541 112.597C91.8747 112.347 91.706 112.134 91.48 112Z" fill="#FF645F"/>
<path d="M87.6299 122.61L87.9199 122.29C88.8499 121.29 87.1699 119.92 86.2499 120.94L85.9599 121.26C84.9999 122.3 86.7099 123.63 87.6299 122.61Z" fill="#FF645F"/>
<path d="M87.4801 129.75V129.62C87.5942 129.355 87.5982 129.055 87.4913 128.787C87.3844 128.519 87.1753 128.304 86.9101 128.19C86.6449 128.076 86.3453 128.072 86.0771 128.179C85.8089 128.286 85.5942 128.495 85.4801 128.76L85.4201 128.88C85.3048 129.153 85.3026 129.461 85.4142 129.736C85.5258 130.011 85.742 130.23 86.0151 130.345C86.2883 130.46 86.5961 130.463 86.8709 130.351C87.1456 130.239 87.3648 130.023 87.4801 129.75Z" fill="#FF645F"/>
<path d="M90.3201 137.75C90.3883 137.592 90.4235 137.422 90.4235 137.25C90.4235 137.078 90.3883 136.908 90.3201 136.75C89.9101 135.58 88.3201 136.11 88.3201 137.17C88.297 137.415 88.3603 137.661 88.4991 137.865C88.6378 138.069 88.8433 138.218 89.0802 138.287C89.3171 138.356 89.5705 138.34 89.7968 138.242C90.0231 138.144 90.2082 137.97 90.3201 137.75Z" fill="#FF645F"/>
<path d="M95.88 142.3C95.8309 142.155 95.7469 142.024 95.6352 141.92C95.5236 141.815 95.3878 141.74 95.24 141.7C95.0511 141.612 94.8406 141.581 94.6344 141.611C94.4281 141.641 94.2351 141.73 94.0789 141.868C93.9228 142.006 93.8104 142.187 93.7555 142.388C93.7007 142.589 93.7057 142.802 93.77 143C93.8228 143.144 93.908 143.274 94.0189 143.379C94.1299 143.485 94.2637 143.564 94.41 143.61C94.5999 143.695 94.8102 143.723 95.0157 143.691C95.2211 143.659 95.4129 143.568 95.5681 143.43C95.7234 143.291 95.8354 143.111 95.8907 142.911C95.946 142.71 95.9423 142.498 95.88 142.3Z" fill="#FF645F"/>
<path d="M102.65 144L102.47 144.07C102.205 144.175 101.992 144.381 101.879 144.642C101.765 144.904 101.76 145.2 101.865 145.465C101.97 145.73 102.176 145.943 102.437 146.056C102.699 146.17 102.995 146.175 103.26 146.07L103.44 146C103.705 145.895 103.918 145.689 104.031 145.428C104.145 145.166 104.15 144.87 104.045 144.605C103.94 144.34 103.734 144.127 103.473 144.014C103.211 143.9 102.915 143.895 102.65 144Z" fill="#FF645F"/>
<path d="M112.33 142.23H112.24C112.109 142.283 111.989 142.36 111.888 142.459C111.787 142.558 111.706 142.676 111.65 142.806C111.594 142.936 111.565 143.075 111.563 143.217C111.561 143.358 111.587 143.499 111.64 143.63C111.693 143.761 111.77 143.881 111.869 143.982C111.968 144.083 112.086 144.164 112.216 144.22C112.346 144.276 112.485 144.305 112.627 144.307C112.768 144.309 112.909 144.283 113.04 144.23H113.13C113.375 144.11 113.565 143.902 113.664 143.648C113.762 143.394 113.76 143.112 113.658 142.859C113.557 142.606 113.364 142.4 113.118 142.283C112.871 142.167 112.59 142.148 112.33 142.23Z" fill="#FF645F"/>
<path d="M119.48 138.59L119.54 138.46C119.655 138.195 119.661 137.895 119.555 137.626C119.449 137.356 119.24 137.14 118.975 137.025C118.71 136.91 118.41 136.904 118.14 137.01C117.871 137.116 117.655 137.325 117.54 137.59V137.72C117.46 137.97 117.476 138.241 117.583 138.481C117.69 138.721 117.882 138.913 118.122 139.021C118.362 139.128 118.633 139.144 118.883 139.064C119.133 138.985 119.346 138.816 119.48 138.59Z" fill="#FF645F"/>
<path d="M123.94 130.47V130.25C124.07 128.88 121.94 128.56 121.82 129.94V130.15C121.7 131.52 123.82 131.85 123.94 130.47Z" fill="#FF645F"/>
<path d="M125.16 122.14L125.09 121.96C124.97 121.715 124.763 121.525 124.508 121.427C124.254 121.329 123.972 121.331 123.719 121.432C123.466 121.533 123.26 121.726 123.144 121.973C123.027 122.219 123.008 122.5 123.09 122.76L123.17 122.94C123.276 123.204 123.483 123.415 123.744 123.527C124.006 123.638 124.301 123.641 124.565 123.535C124.829 123.429 125.04 123.223 125.151 122.961C125.263 122.699 125.266 122.404 125.16 122.14Z" fill="#FF645F"/>
<path d="M123.7 114H123.57C123.305 113.886 123.005 113.882 122.737 113.989C122.469 114.096 122.254 114.305 122.14 114.57C122.026 114.835 122.022 115.135 122.129 115.403C122.236 115.671 122.445 115.886 122.71 116H122.83C123.095 116.116 123.395 116.121 123.665 116.015C123.934 115.909 124.15 115.7 124.265 115.435C124.38 115.17 124.386 114.87 124.28 114.601C124.174 114.332 123.965 114.116 123.7 114Z" fill="#FF645F"/>
<path d="M119.27 109.32C119.164 109.055 118.957 108.843 118.694 108.73C118.432 108.618 118.135 108.614 117.87 108.72C117.605 108.826 117.392 109.033 117.28 109.296C117.167 109.558 117.164 109.855 117.27 110.12C117.322 110.251 117.4 110.371 117.499 110.472C117.598 110.574 117.716 110.654 117.846 110.71C117.976 110.766 118.115 110.795 118.257 110.797C118.398 110.799 118.539 110.773 118.67 110.72C118.801 110.668 118.921 110.59 119.022 110.491C119.123 110.392 119.204 110.274 119.26 110.144C119.316 110.014 119.345 109.875 119.347 109.733C119.349 109.592 119.322 109.451 119.27 109.32Z" fill="#FF645F"/>
<path d="M113.67 107.49C113.564 107.225 113.357 107.013 113.094 106.9C112.832 106.788 112.535 106.784 112.27 106.89C112.005 106.996 111.793 107.203 111.68 107.466C111.568 107.728 111.564 108.025 111.67 108.29C111.723 108.421 111.8 108.541 111.899 108.642C111.998 108.743 112.116 108.824 112.246 108.88C112.376 108.936 112.515 108.965 112.657 108.967C112.798 108.969 112.939 108.943 113.07 108.89C113.201 108.837 113.321 108.76 113.422 108.661C113.524 108.562 113.604 108.444 113.66 108.314C113.716 108.184 113.745 108.045 113.747 107.903C113.749 107.762 113.723 107.621 113.67 107.49Z" fill="#FF645F"/>
<path d="M103.85 110.77L103.72 110.71C103.455 110.596 103.155 110.592 102.887 110.699C102.619 110.806 102.404 111.015 102.29 111.28C102.176 111.545 102.172 111.845 102.279 112.113C102.386 112.381 102.595 112.596 102.86 112.71H102.98C103.23 112.79 103.501 112.774 103.741 112.667C103.981 112.56 104.173 112.368 104.28 112.128C104.388 111.888 104.403 111.618 104.324 111.367C104.245 111.117 104.076 110.904 103.85 110.77Z" fill="#FF645F"/>
<path d="M95.88 116.07L96.1901 115.54C96.3045 115.279 96.311 114.982 96.2079 114.716C96.1049 114.45 95.9007 114.236 95.64 114.12C95.3781 114.011 95.0841 114.007 94.8195 114.109C94.5549 114.212 94.3401 114.413 94.2201 114.67L93.92 115.2C93.8049 115.46 93.7971 115.755 93.8982 116.021C93.9993 116.287 94.2012 116.502 94.46 116.62C94.722 116.729 95.016 116.733 95.2806 116.63C95.5452 116.528 95.76 116.327 95.88 116.07Z" fill="#FF645F"/>
<path d="M92.6701 124.34L92.8601 123.44C93.1401 122.09 91.0101 121.78 90.7301 123.13L90.5501 124.02C90.2701 125.37 92.3901 125.68 92.6701 124.34Z" fill="#FF645F"/>
<path d="M94.2499 133.51V133.38C94.3653 133.115 94.3706 132.815 94.2646 132.545C94.1586 132.276 93.9501 132.06 93.6849 131.945C93.4197 131.83 93.1195 131.824 92.8504 131.93C92.5813 132.036 92.3653 132.245 92.2499 132.51L92.1899 132.64C92.0745 132.913 92.0724 133.221 92.184 133.496C92.2956 133.77 92.5117 133.99 92.7849 134.105C93.0581 134.22 93.3659 134.223 93.6406 134.111C93.9154 133.999 94.1345 133.783 94.2499 133.51Z" fill="#FF645F"/>
<path d="M99.9301 138.11C99.824 137.845 99.6169 137.633 99.3543 137.52C99.0918 137.408 98.7953 137.404 98.5301 137.51C98.2648 137.616 98.0526 137.823 97.9401 138.086C97.8276 138.348 97.824 138.645 97.9301 138.91C98.0361 139.175 98.2432 139.388 98.5058 139.5C98.7683 139.613 99.0648 139.616 99.3301 139.51C99.5953 139.404 99.8075 139.197 99.92 138.934C100.033 138.672 100.036 138.375 99.9301 138.11Z" fill="#FF645F"/>
<path d="M107 138.64H106.91C106.779 138.693 106.659 138.771 106.558 138.869C106.456 138.968 106.376 139.086 106.32 139.216C106.264 139.346 106.235 139.486 106.233 139.627C106.231 139.768 106.257 139.909 106.31 140.04C106.362 140.171 106.44 140.291 106.539 140.392C106.638 140.494 106.756 140.574 106.886 140.63C107.016 140.686 107.155 140.715 107.297 140.717C107.438 140.719 107.579 140.693 107.71 140.64H107.8C108.045 140.52 108.235 140.313 108.333 140.058C108.431 139.804 108.43 139.522 108.328 139.269C108.227 139.016 108.034 138.81 107.788 138.694C107.541 138.577 107.26 138.558 107 138.64Z" fill="#FF645F"/>
<path d="M115.47 135.57L115.55 135.23C115.84 133.88 113.71 133.57 113.42 134.91L113.35 135.25C113.06 136.6 115.18 136.91 115.47 135.57Z" fill="#FF645F"/>
<path d="M118.64 127V126.7C118.605 126.418 118.461 126.162 118.238 125.986C118.015 125.81 117.732 125.729 117.45 125.76C117.17 125.802 116.916 125.95 116.742 126.173C116.567 126.396 116.484 126.678 116.51 126.96V127.26C116.545 127.542 116.69 127.798 116.912 127.974C117.135 128.15 117.418 128.231 117.7 128.2C117.98 128.158 118.234 128.01 118.409 127.787C118.583 127.564 118.666 127.282 118.64 127Z" fill="#FF645F"/>
<path d="M117.89 117.79H117.67C116.3 117.67 115.98 119.79 117.36 119.91H117.57C118.94 120 119.27 117.92 117.89 117.79Z" fill="#FF645F"/>
<path d="M113 113.58C112.948 113.449 112.871 113.329 112.773 113.227C112.675 113.126 112.557 113.045 112.428 112.989C112.298 112.932 112.159 112.902 112.018 112.9C111.877 112.898 111.736 112.923 111.605 112.975C111.474 113.027 111.354 113.104 111.252 113.202C111.151 113.301 111.07 113.418 111.014 113.547C110.957 113.677 110.927 113.816 110.925 113.957C110.923 114.099 110.948 114.239 111 114.37C111.105 114.635 111.311 114.848 111.572 114.961C111.834 115.075 112.13 115.08 112.395 114.975C112.66 114.87 112.873 114.665 112.986 114.403C113.1 114.141 113.105 113.845 113 113.58Z" fill="#FF645F"/>
<path d="M102.72 116.57H102.63C102.365 116.676 102.152 116.883 102.04 117.146C101.927 117.408 101.924 117.705 102.03 117.97C102.136 118.235 102.343 118.447 102.606 118.56C102.868 118.672 103.165 118.676 103.43 118.57H103.52C103.765 118.45 103.955 118.242 104.053 117.988C104.151 117.734 104.15 117.452 104.048 117.198C103.947 116.945 103.754 116.74 103.508 116.623C103.261 116.507 102.98 116.488 102.72 116.57Z" fill="#FF645F"/>
<path d="M97.9301 123.72V123.5C98.0501 122.13 95.9301 121.81 95.8001 123.19V123.4C95.6801 124.77 97.8001 125.1 97.9301 123.72Z" fill="#FF645F"/>
<path d="M101.17 132.19L101 132C100 131.09 98.6201 132.77 99.6501 133.68L99.8101 133.82C100.86 134.78 102.2 133.1 101.17 132.19Z" fill="#FF645F"/>
<path d="M108.72 133.92V133.79C108.777 133.659 108.808 133.518 108.81 133.374C108.813 133.231 108.787 133.089 108.735 132.956C108.682 132.822 108.604 132.701 108.504 132.598C108.405 132.495 108.286 132.412 108.155 132.355C108.024 132.298 107.882 132.267 107.739 132.265C107.596 132.262 107.454 132.288 107.32 132.34C107.187 132.393 107.066 132.471 106.962 132.571C106.859 132.67 106.777 132.789 106.72 132.92V133.05C106.605 133.315 106.599 133.616 106.705 133.885C106.811 134.154 107.02 134.37 107.285 134.485C107.55 134.601 107.85 134.606 108.119 134.5C108.389 134.394 108.605 134.185 108.72 133.92Z" fill="#FF645F"/>
<path d="M113.61 124.42V124.33C113.49 124.085 113.283 123.894 113.028 123.796C112.774 123.698 112.492 123.7 112.239 123.801C111.986 123.903 111.78 124.096 111.664 124.342C111.547 124.589 111.528 124.87 111.61 125.13V125.21C111.662 125.341 111.739 125.461 111.837 125.562C111.936 125.664 112.053 125.745 112.182 125.801C112.312 125.857 112.451 125.888 112.592 125.89C112.734 125.892 112.874 125.867 113.005 125.815C113.136 125.763 113.256 125.686 113.358 125.588C113.459 125.489 113.54 125.372 113.597 125.243C113.653 125.113 113.683 124.974 113.685 124.833C113.687 124.691 113.662 124.551 113.61 124.42Z" fill="#FF645F"/>
<path d="M109.14 118.61C109.087 118.479 109.01 118.359 108.911 118.258C108.812 118.157 108.694 118.076 108.564 118.02C108.434 117.964 108.295 117.935 108.153 117.933C108.012 117.931 107.871 117.958 107.74 118.01C107.609 118.063 107.489 118.141 107.388 118.239C107.287 118.338 107.206 118.456 107.15 118.586C107.094 118.716 107.065 118.856 107.063 118.997C107.061 119.138 107.087 119.279 107.14 119.41C107.246 119.675 107.453 119.888 107.716 120C107.978 120.113 108.275 120.116 108.54 120.01C108.805 119.904 109.017 119.697 109.13 119.434C109.242 119.172 109.246 118.875 109.14 118.61Z" fill="#FF645F"/>
<path d="M102.75 125.06H102.66C102.395 125.166 102.183 125.373 102.07 125.636C101.957 125.898 101.954 126.195 102.06 126.46C102.166 126.725 102.373 126.937 102.636 127.05C102.898 127.163 103.195 127.166 103.46 127.06H103.55C103.795 126.94 103.985 126.732 104.083 126.478C104.181 126.224 104.18 125.942 104.078 125.689C103.977 125.436 103.784 125.23 103.538 125.114C103.291 124.997 103.01 124.978 102.75 125.06Z" fill="#FF645F"/>
<path d="M110.07 127.79C109.948 127.55 109.741 127.365 109.49 127.27C109.238 127.175 108.961 127.176 108.711 127.275C108.461 127.374 108.256 127.562 108.138 127.804C108.019 128.045 107.995 128.322 108.07 128.58C108.192 128.82 108.399 129.005 108.65 129.1C108.901 129.195 109.179 129.193 109.429 129.095C109.679 128.996 109.883 128.808 110.002 128.566C110.12 128.325 110.145 128.048 110.07 127.79Z" fill="#FF645F"/>
<path d="M100.26 113.71C100.207 113.579 100.129 113.459 100.031 113.358C99.9319 113.257 99.8142 113.176 99.6842 113.12C99.5542 113.065 99.4145 113.035 99.273 113.033C99.1316 113.032 98.9912 113.058 98.8599 113.11C98.7286 113.163 98.6089 113.241 98.5077 113.339C98.4064 113.438 98.3257 113.556 98.2699 113.686C98.2142 113.816 98.1847 113.956 98.1829 114.097C98.1812 114.239 98.2074 114.379 98.2599 114.51C98.366 114.775 98.5731 114.988 98.8356 115.1C99.0982 115.213 99.3947 115.216 99.6599 115.11C99.9251 115.004 100.137 114.797 100.25 114.534C100.362 114.272 100.366 113.975 100.26 113.71Z" fill="#FF645F"/>
<path d="M128.71 64.3501C123.04 52.4301 112.17 42.2501 102.24 33.8301C97.44 29.7501 92.24 25.1601 86.46 22.5901C80 19.7301 48.18 23.7501 41.27 28.2001C41.0573 28.1593 40.8374 28.1811 40.6369 28.2627C40.4363 28.3444 40.2637 28.4824 40.14 28.6601C39.9933 28.9001 39.8333 29.1401 39.66 29.3801C38.01 30.7801 24.46 54.3801 20.12 64.9401C17.503 71.2959 15.2527 77.7966 13.38 84.4101C11.79 90.0001 9.19998 96.9301 10.5 102.85C11.6 107.79 15.44 111.51 18.95 114.9C23.9129 119.705 29.1697 124.197 34.69 128.35C40.1263 132.452 45.8031 136.226 51.69 139.65C56.69 142.51 61.93 145.65 67.69 146.29C80.01 147.74 89.69 135.91 97.33 128.02C107.033 118.051 115.949 107.345 124 96.0001C131.18 85.8001 134.38 76.2601 128.71 64.3501Z" fill="#263655"/>
<path d="M98.52 45.1298C92.63 41.8098 87.87 43.7398 85.23 49.6498C84.97 50.2298 84.56 51.9598 84.09 52.3598C82.68 53.5698 78.23 52.3598 76.63 52.0998C74.14 51.6298 71.63 51.2098 69.16 50.9098C64.2833 50.2848 59.3467 50.2848 54.47 50.9098C53.76 47.6798 52.47 44.3498 48.94 43.3898C45.41 42.4298 40.88 44.6498 38.48 46.9998C31.48 53.9998 38.22 60.2698 45.05 62.8198C41.93 69.6098 37.67 77.0698 37.52 84.5998C37.37 92.1298 42.37 98.0298 47.26 103.32C50.66 107.01 54.03 110.78 57.55 114.32C59.66 116.47 61.47 118.04 64.55 118.39C70.6 119.07 79.81 119.25 84.74 115.11C90.74 110.11 95.5 101.11 98.74 94.1098C102.33 86.4598 102.67 80.9698 99.84 73.0098C98.9 70.3798 95.06 64.1698 96.76 61.8498C98.3 59.7398 101.91 59.5398 103.54 57.1498C106.71 52.6298 102.59 47.4298 98.52 45.1298Z" fill="#FEDA66"/>
<path d="M75.7599 102C69.5399 107 60.9099 102.44 58.0999 95.7699C54.2899 86.7699 61.3799 76.3 66.8399 69.6699C66.94 69.5303 67.0779 69.4222 67.2373 69.3584C67.3968 69.2946 67.5712 69.2778 67.7399 69.3099C68.5951 68.8463 69.5782 68.6743 70.5399 68.82C74.2899 69.28 77.5399 73.7 79.2399 76.73C83.4099 84.14 82.7899 96.42 75.7599 102Z" fill="#FF645F"/>
<path d="M54.8499 69.2002C54.4597 68.9161 54.0067 68.7303 53.5294 68.6587C53.0521 68.5871 52.5645 68.6317 52.1081 68.7887C51.6517 68.9458 51.2399 69.2106 50.9077 69.5608C50.5755 69.911 50.3327 70.3361 50.1999 70.8002C50.0905 71.3929 50.2033 72.0052 50.517 72.5199C50.8306 73.0346 51.323 73.4157 51.8999 73.5902C52.507 73.8131 53.1716 73.8238 53.7855 73.6203C54.3993 73.4169 54.9261 73.0115 55.2799 72.4702C55.5956 71.9589 55.7252 71.3544 55.6469 70.7587C55.5685 70.1629 55.287 69.6124 54.8499 69.2002Z" fill="#263655"/>
<path d="M84.7999 68.44C84.6403 68.3628 84.4669 68.3186 84.2899 68.3099C83.7831 68.3016 83.2836 68.432 82.8455 68.687C82.4075 68.942 82.0474 69.3119 81.8044 69.7568C81.5614 70.2016 81.4446 70.7044 81.4668 71.2108C81.4889 71.7173 81.649 72.208 81.9299 72.6299C83.2599 74.5499 86.7199 74.1899 87.1899 71.7499C87.2568 71.375 87.2477 70.9903 87.1629 70.619C87.0782 70.2476 86.9196 69.8971 86.6966 69.5883C86.4736 69.2794 86.1908 69.0186 85.8649 68.8214C85.5391 68.6241 85.1769 68.4944 84.7999 68.44Z" fill="#263655"/>
<path d="M73.8899 93.9001C69.9544 93.0581 65.8543 93.4636 62.1599 95.0601C62.0698 95.1061 61.9858 95.1632 61.9099 95.2301H61.6899C61.4052 95.3097 61.163 95.4977 61.0154 95.7539C60.8677 96.01 60.8262 96.3138 60.8999 96.6001C61.5115 98.2287 62.5163 99.6807 63.8248 100.827C65.1334 101.973 66.7051 102.778 68.3999 103.17C71.2899 103.68 74.5199 100.6 75.9899 98.4401C77.8199 95.8001 76.8499 94.5801 73.8899 93.9001Z" fill="#263655"/>
<path d="M91.9199 48.6499C90.9521 48.9145 90.0489 49.3749 89.2662 50.0028C88.4836 50.6306 87.8381 51.4124 87.3699 52.2999C87.204 52.3724 87.0579 52.4838 86.9441 52.6246C86.8302 52.7654 86.7518 52.9315 86.7155 53.1089C86.6793 53.2863 86.6862 53.4699 86.7357 53.6441C86.7852 53.8183 86.8758 53.978 86.9999 54.1099C88.2199 55.4432 89.4633 56.7432 90.7299 58.0099C91.5499 58.8399 92.5599 60.2999 93.8799 60.3199C94.2577 60.287 94.6233 60.1703 94.9503 59.9783C95.2772 59.7863 95.5572 59.5238 95.7699 59.2099C96.8161 58.1708 97.7543 57.0283 98.5699 55.7999C101.55 50.9099 96.7299 47.2099 91.9199 48.6499Z" fill="#F9F9F9"/>
<path d="M53.42 51.9202C52.61 48.9202 48.23 47.3502 45.49 47.4402C38.23 47.6902 39.74 58.3002 45.49 59.5702C45.5914 59.6727 45.7121 59.7541 45.8451 59.8096C45.9782 59.8651 46.1209 59.8937 46.265 59.8937C46.4092 59.8937 46.5519 59.8651 46.685 59.8096C46.818 59.7541 46.9387 59.6727 47.04 59.5702C48.66 58.0369 50.2667 56.4869 51.86 54.9202C52.81 54.0702 53.8 53.2802 53.42 51.9202Z" fill="#F9F9F9"/>
<path d="M66.5699 19.5301C66.4799 18.8201 65.3699 18.8201 65.4499 19.5301C66.4099 27.2634 67.0999 35.0134 67.5199 42.7801C67.5199 43.4901 68.6699 43.4901 68.6299 42.7801C68.2099 35.0067 67.5233 27.2567 66.5699 19.5301Z" fill="#57719B"/>
<path d="M81.2199 18.7902C80.1866 26.1235 79.0199 33.4035 77.7199 40.6301C77.5999 41.3302 78.7199 41.6301 78.7999 40.9101C80.1333 33.6501 81.2999 26.3701 82.2999 19.0701C82.3999 18.3701 81.3199 18.0802 81.2199 18.7902Z" fill="#57719B"/>
<path d="M53.51 41.9998C51.51 35.8998 49.63 29.6898 46.98 23.8198C46.68 23.1698 45.72 23.7298 45.98 24.3798C48.59 30.1498 50.39 36.2798 52.4 42.2798C52.66 42.9398 53.73 42.6598 53.51 41.9998Z" fill="#57719B"/>
<path d="M31.64 73.6001C26.5031 71.1528 21.5619 68.3145 16.86 65.1101C16.26 64.7001 15.71 65.6701 16.3 66.1101C21.0016 69.3236 25.9466 72.1655 31.09 74.6101C31.73 74.8701 32.29 73.9101 31.64 73.6001Z" fill="#57719B"/>
<path d="M28.3299 87.29C21.8416 86.1327 15.2954 85.3282 8.71993 84.88C7.99993 84.83 7.99993 86 8.71993 86C15.2014 86.4391 21.6543 87.2303 28.0499 88.37C28.7499 88.49 28.9999 87.41 28.3299 87.29Z" fill="#57719B"/>
<path d="M26.2701 96.7699C20.4836 99.5806 14.4933 101.951 8.35012 103.86C7.67012 104.08 7.95012 105.15 8.64012 104.94C14.8739 103.004 20.9514 100.597 26.8201 97.7399C27.4701 97.4199 26.9101 96.4499 26.2701 96.7699Z" fill="#57719B"/>
<path d="M32.8199 106C28.6466 109.76 24.5966 113.657 20.6699 117.69C20.1699 118.21 20.9499 119 21.4499 118.49C25.3832 114.49 29.4366 110.59 33.6099 106.79C34.1399 106.27 33.3599 105.48 32.8199 106Z" fill="#57719B"/>
<path d="M44.3201 114.05C41.0801 118.87 37.9534 123.757 34.9401 128.71C34.5601 129.32 35.5301 129.88 35.9401 129.27C38.9467 124.31 42.0734 119.423 45.3201 114.61C45.6801 114 44.7201 113.46 44.3201 114.05Z" fill="#57719B"/>
<path d="M54.5001 121.75C51.5001 127.3 47.8001 132.91 45.7101 138.84C45.4701 139.51 46.5501 139.79 46.7901 139.12C48.8401 133.29 52.5601 127.77 55.4601 122.31C55.8001 121.68 54.8301 121.12 54.5001 121.75Z" fill="#57719B"/>
<path d="M66.5999 126C65.8234 132.304 65.4293 138.648 65.4199 145C65.438 145.134 65.5042 145.257 65.6063 145.347C65.7084 145.436 65.8393 145.485 65.9749 145.485C66.1105 145.485 66.2415 145.436 66.3436 145.347C66.4456 145.257 66.5118 145.134 66.5299 145C66.5424 138.648 66.9398 132.303 67.7199 126C67.8099 125.27 66.6899 125.28 66.5999 126Z" fill="#57719B"/>
<path d="M77.4699 124.81C77.3599 124.11 76.2899 124.4 76.3899 125.1L79.2299 144.57C79.3399 145.28 80.4099 144.99 80.3099 144.28C79.3566 137.787 78.4099 131.297 77.4699 124.81Z" fill="#57719B"/>
<path d="M98.3501 130C95.2501 125.533 91.9901 121.2 88.5701 117C88.1201 116.44 87.3301 117.23 87.7801 117.78C91.1134 121.933 94.3134 126.203 97.3801 130.59C97.7901 131.09 98.7601 130.54 98.3501 130Z" fill="#57719B"/>
<path d="M99.5101 31.78L94.0001 40.69C93.6201 41.3 94.5901 41.86 95.0001 41.24C96.8335 38.28 98.6601 35.3133 100.48 32.34C100.85 31.73 99.8901 31.17 99.5101 31.78Z" fill="#57719B"/>
<path d="M36.67 45.7099L30.51 40.9999C29.94 40.5699 29.39 41.5399 29.96 41.9999L36.11 46.6899C36.68 47.1099 37.23 46.1399 36.67 45.7099Z" fill="#57719B"/>
<path d="M29.85 55.9299C27.8239 55.0053 25.9626 53.7554 24.34 52.2299C23.82 51.7399 23.03 52.5199 23.55 53.0099C25.2399 54.6137 27.1826 55.928 29.3 56.8999C29.94 57.1999 30.51 56.2299 29.85 55.9299Z" fill="#57719B"/>
<path d="M112.42 39.6102L105.49 46.9202C105 47.4402 105.78 48.2302 106.27 47.7102L113.21 40.4102C113.7 39.8902 112.92 39.0902 112.42 39.6102Z" fill="#57719B"/>
<path d="M120.91 50.9098C114.084 54.9489 107.579 59.5056 101.45 64.5398C100.89 64.9998 101.68 65.7898 102.23 65.3398C108.288 60.3654 114.72 55.8654 121.47 51.8798C122.08 51.5098 121.53 50.5398 120.91 50.9098Z" fill="#57719B"/>
<path d="M127.93 60.5399C120.129 63.8285 112.547 67.6129 105.23 71.8699C105.097 71.9428 104.999 72.0654 104.957 72.2108C104.915 72.3561 104.932 72.5123 105.005 72.6449C105.078 72.7775 105.201 72.8757 105.346 72.9179C105.491 72.9601 105.647 72.9428 105.78 72.8699C113.101 68.6129 120.686 64.8285 128.49 61.5399C129.15 61.2299 128.59 60.2599 127.93 60.5399Z" fill="#57719B"/>
<path d="M132.38 80.22C123.976 78.3103 115.335 77.6599 106.74 78.29C106.03 78.35 106.03 79.46 106.74 79.41C115.24 78.7764 123.788 79.4134 132.1 81.3C132.8 81.46 133.08 80.38 132.38 80.22Z" fill="#57719B"/>
<path d="M128.17 94.6901L106.17 86.1501C105.5 85.8901 105.17 86.9801 105.89 87.2301L127.89 95.7701C128.56 96.0001 128.83 95.0001 128.17 94.6901Z" fill="#57719B"/>
<path d="M117.36 107C112.77 103.248 107.768 100.031 102.45 97.41C101.81 97.09 101.25 98.06 101.89 98.41C107.121 100.976 112.043 104.13 116.56 107.81C117.11 108.19 117.91 107.41 117.36 107Z" fill="#57719B"/>
<path d="M107.36 119C106.12 118.63 105.05 117.3 104.08 116.48C103.11 115.66 102.32 115.01 101.41 114.31C99.6066 112.937 97.7305 111.661 95.79 110.49C95.17 110.12 94.62 111.08 95.23 111.49C97.7087 112.987 100.078 114.657 102.32 116.49C103.81 117.71 105.19 119.56 107.08 120.12C107.77 120.29 108.05 119.21 107.36 119Z" fill="#57719B"/>
<path d="M66.8499 73.51C66.6019 74.6373 66.2676 75.7439 65.8499 76.82C65.5899 77.49 66.6699 77.82 66.9299 77.1C67.3476 76.0239 67.6819 74.9173 67.9299 73.79C68.0899 73.09 66.9999 72.81 66.8499 73.51Z" fill="#FEDA66"/>
<path d="M70.6399 73.8998C70.5199 73.1899 69.4499 73.4799 69.5599 74.1899C69.6985 75.0729 69.762 75.9661 69.7499 76.8598C69.7499 77.0084 69.8089 77.1508 69.9139 77.2558C70.019 77.3609 70.1614 77.4198 70.3099 77.4198C70.4584 77.4198 70.6009 77.3609 70.7059 77.2558C70.8109 77.1508 70.8699 77.0084 70.8699 76.8598C70.8789 75.8684 70.8019 74.878 70.6399 73.8998Z" fill="#FEDA66"/>
<path d="M75.3801 76.5199L74.8201 73.7999C74.6801 73.0999 73.6001 73.3899 73.7501 74.0899C73.9301 74.9999 74.1201 75.8999 74.3001 76.8099C74.4501 77.5099 75.5301 77.2199 75.3801 76.5199Z" fill="#FEDA66"/>
<path d="M74.1599 78.9999C74.0299 78.2899 72.9499 78.5799 73.0799 79.2899C73.207 79.9494 73.2772 80.6185 73.2899 81.2899C73.2899 81.4385 73.3489 81.5809 73.4539 81.6859C73.559 81.7909 73.7014 81.8499 73.8499 81.8499C73.9984 81.8499 74.1409 81.7909 74.2459 81.6859C74.3509 81.5809 74.4099 81.4385 74.4099 81.2899C74.3892 80.5211 74.3056 79.7552 74.1599 78.9999Z" fill="#FEDA66"/>
<path d="M68.94 80.1599C68.87 79.4499 67.76 79.4499 67.82 80.1599C67.9 80.8777 67.9 81.6022 67.82 82.3199C67.73 83.0199 68.82 83.3199 68.9 82.5999C68.9983 81.7902 69.0117 80.9724 68.94 80.1599Z" fill="#FEDA66"/>
<path d="M63.0601 79.9299C62.9001 80.6299 62.7501 81.3199 62.6001 82.0199C62.4501 82.7199 63.5201 83.0199 63.6801 82.2999L64.1401 80.2099C64.2901 79.5099 63.2101 79.2299 63.0601 79.9299Z" fill="#FEDA66"/>
<path d="M79.6099 83.3299C79.3519 82.3722 79.1482 81.4006 78.9999 80.4199C78.8899 79.7099 77.8199 80.0099 77.9199 80.7099C78.0616 81.6902 78.2586 82.6618 78.5099 83.6199C78.5484 83.7658 78.6432 83.8904 78.7735 83.9664C78.9039 84.0423 79.0591 84.0634 79.2049 84.0249C79.3508 83.9865 79.4754 83.8916 79.5514 83.7613C79.6273 83.631 79.6484 83.4758 79.6099 83.3299Z" fill="#FEDA66"/>
<path d="M59.32 86L59.08 88.9C59.02 89.62 60.14 89.61 60.19 88.9L60.43 86C60.49 85.26 59.37 85.27 59.32 86Z" fill="#FEDA66"/>
<path d="M65.67 86.6099C65.6253 86.474 65.5302 86.3604 65.4042 86.2924C65.2783 86.2244 65.1311 86.2071 64.9929 86.2443C64.8547 86.2814 64.7359 86.37 64.661 86.4919C64.5861 86.6139 64.5607 86.7599 64.59 86.8999C64.7992 87.5796 64.8938 88.2893 64.87 88.9999C64.87 89.1498 64.9296 89.2935 65.0355 89.3995C65.1415 89.5054 65.2852 89.5649 65.435 89.5649C65.5849 89.5649 65.7286 89.5054 65.8346 89.3995C65.9405 89.2935 66 89.1498 66 88.9999C66.0183 88.1908 65.9069 87.3839 65.67 86.6099Z" fill="#FEDA66"/>
<path d="M72.1201 84.6298C72.0001 83.9198 70.9201 84.2098 71.0401 84.9198C71.2064 85.8635 71.2635 86.8231 71.21 87.7798C71.21 88.4998 72.3001 88.4898 72.3301 87.7798C72.3754 86.7253 72.305 85.669 72.1201 84.6298Z" fill="#FEDA66"/>
<path d="M78.1 85.81C78.0615 85.6642 77.9667 85.5395 77.8364 85.4636C77.706 85.3876 77.5509 85.3666 77.405 85.405C77.2591 85.4435 77.1345 85.5383 77.0586 85.6687C76.9826 85.799 76.9615 85.9542 77 86.1C77.2286 86.9812 77.399 87.8765 77.51 88.78C77.6 89.49 78.71 89.49 78.63 88.78C78.5181 87.7796 78.341 86.7875 78.1 85.81Z" fill="#FEDA66"/>
<path d="M74.9401 89.68C74.9401 88.97 73.7801 88.97 73.8201 89.68L73.9501 92.08C73.9501 92.8 75.1001 92.79 75.0601 92.08L74.9401 89.68Z" fill="#FEDA66"/>
<path d="M68.4901 89.7402C68.3901 89.0302 67.3101 89.3302 67.4101 90.0302C67.4815 90.5472 67.5183 91.0684 67.5201 91.5902C67.5382 91.7246 67.6044 91.8479 67.7065 91.9371C67.8085 92.0264 67.9395 92.0756 68.0751 92.0756C68.2107 92.0756 68.3417 92.0264 68.4437 91.9371C68.5458 91.8479 68.612 91.7246 68.6301 91.5902C68.6282 90.971 68.5814 90.3527 68.4901 89.7402Z" fill="#FEDA66"/>
<path d="M62.3699 91.0001C62.2599 90.2901 61.1899 90.5801 61.2999 91.2801C61.4099 91.9801 61.5099 92.6201 61.6099 93.2801C61.7099 93.9401 62.7999 93.6901 62.6899 92.9901C62.5799 92.2901 62.4799 91.6101 62.3699 91.0001Z" fill="#FEDA66"/>
<path d="M78.64 91.9999C78.6297 92.6381 78.5008 93.2688 78.26 93.8599C77.99 94.5299 79.07 94.8599 79.34 94.1399C79.6039 93.4566 79.7461 92.7323 79.76 91.9999C79.76 91.8514 79.701 91.709 79.596 91.604C79.491 91.4989 79.3485 91.4399 79.2 91.4399C79.0515 91.4399 78.9091 91.4989 78.804 91.604C78.699 91.709 78.64 91.8514 78.64 91.9999Z" fill="#FEDA66"/>
</g>
<defs>
<clipPath id="clip0">
<rect width="136.5" height="184.18" fill="white"/>
</clipPath>
</defs>
</svg>
