<svg width="115" height="122" viewBox="0 0 115 122" fill="none" xmlns="http://www.w3.org/2000/svg">
<path fill-rule="evenodd" clip-rule="evenodd" d="M60.8974 47.083L63.194 47.4459C64.0438 47.4326 64.5145 48.0235 64.3345 48.7574L64.2844 52.4138C64.8814 52.8033 65.4785 53.1927 65.8766 53.4524L69.0384 51.5419C69.6165 51.0677 70.3399 51.2558 70.8106 51.8466L72.4219 53.7489C72.5672 54.4113 72.7126 55.0737 72.1346 55.548L69.3171 58.2506C69.5888 58.7116 69.7342 59.374 69.8796 60.0364L73.623 60.7755C74.1474 60.8338 74.4918 61.626 74.6372 62.2884L74.1699 64.8214C74.1163 65.3539 73.5382 65.8282 72.8875 65.9713L69.0905 65.7648C68.8378 66.1675 68.4588 66.7716 68.0798 67.3757L70.1808 70.7327C70.4525 71.1937 70.4716 72.0574 70.0199 72.3304L67.9604 73.8248C67.3824 74.2991 66.659 74.111 66.261 73.8513L63.5819 70.9687C63.1302 71.2416 62.4795 71.3847 61.9551 71.3264L60.9289 75.1975C60.8752 75.73 60.2972 76.2043 59.5738 76.0162L57.1509 75.8547C56.4275 75.6666 55.9567 75.0758 56.0104 74.5432L56.1869 70.6854C55.5898 70.296 54.9927 69.9065 54.5947 69.6469L51.3065 71.7587C50.8548 72.0316 50.1314 71.8435 49.6606 71.2527L48.0494 69.3503C47.7777 68.8893 47.7586 68.0256 48.3366 67.5513L51.0278 65.05C50.8824 64.3876 50.737 63.7252 50.5916 63.0628L46.8482 62.3237C46.3239 62.2655 45.8531 61.6746 45.8341 60.8109L46.3013 58.2779C46.355 57.7453 46.933 57.271 47.5837 57.1279L51.3807 57.3345C51.4344 56.8019 51.8134 56.1978 52.1924 55.5937L50.1641 52.568C50.0187 51.9056 49.8733 51.2432 50.4513 50.7689L52.5108 49.2745C53.0888 48.8002 53.8122 48.9883 54.2103 49.2479L56.763 52.3319C57.341 51.8576 57.9917 51.7145 58.5161 51.7728L59.416 48.1031C59.596 47.3692 60.174 46.8949 60.8974 47.083ZM64.5666 62.2463C65.0338 59.7133 63.1508 57.35 60.7279 57.1884C58.2324 56.6957 56.0466 58.3915 55.7783 61.0543C55.4374 63.3859 57.1214 65.6195 59.617 66.1122C62.0399 66.2737 64.2256 64.5779 64.5666 62.2463Z" fill="#1194C8"/>
<path d="M71.58 79.722C68.21 74.672 60 74.002 63.8 65.632C67.6 57.262 51.8 55.332 56.44 43.142C61.08 30.952 51.61 28.212 52 18.542C52.39 8.87201 57 5.54201 65 6.54201C69.83 7.18201 75.22 5.54201 79.72 2.54201C87.07 -2.29799 95.9 2.33201 99.72 9.47201C103.54 16.612 99.72 30.082 95.51 33.022C91.3 35.962 82.32 41.322 86.68 47.522C92.15 55.302 95.68 64.132 88.36 68.972C80.71 73.972 79.75 80.972 79.75 80.972L71.58 79.722Z" fill="#A2CCDA"/>
<path d="M76.17 83.9221H75.81C75.9828 82.2729 76.26 80.6362 76.64 79.0221C78 72.1321 80.54 59.3121 77.72 53.5221C73.98 45.8321 72.64 33.6521 77.52 26.2221C80.6013 21.6472 84.4595 17.6468 88.92 14.4021L89.13 14.7021C84.7015 17.9149 80.8731 21.882 77.82 26.4221C73.02 33.7421 74.35 45.7621 78.05 53.3621C80.92 59.2621 78.46 71.6721 76.99 79.0921C76.6183 80.6838 76.3444 82.2969 76.17 83.9221Z" fill="white"/>
<path d="M74.36 81.2821C72.5298 77.5599 71.0468 73.6768 69.93 69.6821C68.04 63.5321 68.65 60.2621 69.5 55.6821C69.78 54.1621 70.1 52.4421 70.35 50.4421C72.19 35.7221 64.17 26.7221 60.75 22.8821L60.51 22.6221L60.78 22.3821L61.02 22.6421C64.47 26.5221 72.56 35.6421 70.71 50.4821C70.45 52.4821 70.13 54.2221 69.85 55.7421C69.02 60.2321 68.41 63.4721 70.28 69.5321C72.76 77.6121 74.66 81.0321 74.68 81.0621L74.36 81.2821Z" fill="white"/>
<path d="M78.6901 83.1021H78.3301C78.5572 78.3615 79.8601 73.7347 82.1401 69.5721L82.7301 68.4521C85.1701 63.8121 87.9401 58.5621 84.2501 52.9421C80.9301 47.8821 80.1501 43.1521 81.9201 38.9421L82.2501 39.0721C80.5301 43.2221 81.2501 47.8321 84.5501 52.7821C88.3601 58.5821 85.4101 64.1721 83.0501 68.6621L82.4601 69.7821C80.2129 73.8801 78.9239 78.4343 78.6901 83.1021Z" fill="white"/>
<path d="M89.8 55.4721L95.14 27.9021L110.54 27.8621L103.41 55.3521L89.8 55.4721Z" fill="#9BA7A8"/>
<path d="M89.28 52.242L94.91 28.912L108.18 28.762L101.3 55.352L89.28 52.242Z" fill="#AFB9BA"/>
<path d="M90.0801 53.6519L95.6901 29.9919L106.82 30.0019L100.89 52.9519L90.0801 53.6519Z" fill="#2B79E6"/>
<path d="M58.1901 50.772C59.3801 50.852 62.1901 51.552 62.1901 52.772C62.1901 53.992 61.3401 55.382 60.9201 55.342C60.5001 55.302 57.7701 55.992 56.7601 55.082C55.7501 54.172 58.1901 50.772 58.1901 50.772Z" fill="#F7958D"/>
<path d="M103.41 55.472H73.96V52.392L102.13 52.252L103.41 55.472Z" fill="#9BA7A8"/>
<path d="M0 43.792C0 59.402 10.36 72.052 23.14 72.052C35.92 72.052 46.28 59.402 46.28 43.792C46.28 28.182 35.92 15.532 23.14 15.532C10.36 15.532 0 28.182 0 43.792Z" fill="#FFCACA"/>
<path d="M15.4099 105.812C15.4099 105.622 15.4099 105.432 15.4099 105.232C15.4818 103.239 16.3239 101.352 17.7592 99.9676C19.1944 98.5832 21.1108 97.8096 23.1049 97.8096C25.099 97.8096 27.0154 98.5832 28.4506 99.9676C29.8859 101.352 30.7281 103.239 30.7999 105.232C30.7999 105.432 30.7999 105.622 30.7999 105.812H15.4099Z" fill="#FFCACA"/>
<path d="M24.1901 55.772H22.8401V105.812H24.1901V55.772Z" fill="#FFCACA"/>
<path d="M36.85 59.6921H9.42001C7.1225 59.6921 5.26001 61.5546 5.26001 63.8521V71.4021C5.26001 73.6996 7.1225 75.5621 9.42001 75.5621H36.85C39.1475 75.5621 41.01 73.6996 41.01 71.4021V63.8521C41.01 61.5546 39.1475 59.6921 36.85 59.6921Z" fill="#FFCACA"/>
<path d="M39.7399 60.8621H13.1699V67.2321C13.1699 68.8897 13.8284 70.4794 15.0005 71.6515C16.1726 72.8236 17.7623 73.4821 19.4199 73.4821H39.7399C40.5615 73.4834 41.3753 73.3227 42.1348 73.0092C42.8942 72.6957 43.5844 72.2355 44.1658 71.655C44.7472 71.0745 45.2085 70.3851 45.5232 69.6262C45.8379 68.8672 45.9999 68.0537 45.9999 67.2321V67.1121C45.9999 66.2905 45.8379 65.4769 45.5232 64.718C45.2085 63.9591 44.7472 63.2696 44.1658 62.6891C43.5844 62.1086 42.8942 61.6484 42.1348 61.3349C41.3753 61.0214 40.5615 60.8608 39.7399 60.8621Z" fill="#833125"/>
<path d="M32.2699 28.2121C27.8299 31.5121 36.4699 50.6021 38.0499 51.5521C39.6299 52.5021 55.4999 55.2321 56.7599 55.1221C58.0199 55.0121 58.8599 50.8121 58.1199 50.5021C57.3799 50.1921 43.2999 48.1821 42.4599 47.0021C41.6199 45.8221 36.3699 25.1721 32.2699 28.2121Z" fill="#0086B5"/>
<path d="M13.1701 60.782H33.0001L35.4701 31.412C35.5226 30.7919 35.4461 30.1677 35.2456 29.5786C35.0451 28.9895 34.7248 28.4483 34.305 27.989C33.8851 27.5297 33.3748 27.1623 32.806 26.9098C32.2372 26.6573 31.6224 26.5253 31.0001 26.522H15.1901C14.5662 26.5225 13.9491 26.6525 13.378 26.9038C12.8068 27.155 12.2941 27.5221 11.8721 27.9817C11.4501 28.4413 11.128 28.9835 10.9263 29.5739C10.7246 30.1644 10.6475 30.7902 10.7001 31.412L13.1701 60.782Z" fill="#1194C8"/>
<path d="M21.8299 28.3521H24.9099C25.1561 28.3369 25.3969 28.2729 25.6182 28.1637C25.8394 28.0546 26.0368 27.9025 26.1987 27.7164C26.3606 27.5303 26.4839 27.3138 26.5614 27.0796C26.6388 26.8453 26.6689 26.598 26.6499 26.3521V22.6021C26.6703 22.3558 26.6412 22.1079 26.5643 21.8731C26.4873 21.6383 26.3641 21.4213 26.2019 21.2349C26.0397 21.0484 25.8419 20.8964 25.6199 20.7877C25.398 20.679 25.1566 20.6159 24.9099 20.6021H21.8299C21.584 20.6172 21.3437 20.6812 21.1229 20.7905C20.9022 20.8997 20.7055 21.052 20.5443 21.2383C20.3832 21.4246 20.2609 21.6411 20.1846 21.8753C20.1082 22.1095 20.0794 22.3566 20.0999 22.6021V26.4021C20.0751 26.889 20.2426 27.3661 20.5661 27.7308C20.8897 28.0955 21.3435 28.3186 21.8299 28.3521Z" fill="#F7958D"/>
<path d="M29.8201 23.1322C27.3301 26.7122 24.2101 25.0122 20.6301 22.5222C19.7765 21.9312 19.0477 21.1779 18.4852 20.3053C17.9227 19.4327 17.5376 18.4578 17.3519 17.4364C16.9768 15.3735 17.4366 13.2461 18.6301 11.5222C19.8236 9.79828 21.653 8.61908 23.7159 8.24401C25.7788 7.86894 27.9062 8.32871 29.6301 9.52218C33.2301 12.0022 32.3101 19.5522 29.8201 23.1322Z" fill="#FCA89E"/>
<path d="M24.3799 11.9021C24.3799 11.9021 23.4999 14.5521 23.1299 14.4321C22.7034 14.1094 22.191 13.9202 21.6571 13.8882C21.1233 13.8561 20.5919 13.9828 20.1299 14.2521C18.6999 15.2021 19.3699 16.8421 20.4699 17.5121C21.5699 18.1821 19.7199 21.0121 17.0699 19.5121C14.4199 18.0121 15.6399 11.0021 17.9999 9.00212C20.3599 7.00212 25.8999 5.64212 27.4899 6.37212C29.0799 7.10212 41.5999 15.9221 41.5999 15.9221L24.3799 11.9021Z" fill="#FF645F"/>
<path d="M45.6 65.7821L48.87 102.202H44.06C44.06 102.202 36.37 78.4821 35.6 70.7821C34.83 63.0821 40.41 64.4321 40.41 64.4321L45.6 65.7821Z" fill="#833125"/>
<path d="M30.4001 65.7821L33.6701 102.202H28.8601C28.8601 102.202 21.1601 78.4821 20.3901 70.7821C19.6201 63.0821 25.2001 64.4321 25.2001 64.4321L30.4001 65.7821Z" fill="#833125"/>
<path d="M48.7801 102.202H44.0601V105.812H53.6301C54.2601 105.812 54.4701 104.392 53.9201 104.092L48.7801 102.202Z" fill="#FF645F"/>
<path d="M33.67 102.202H29V105.812H38.56C39.19 105.812 39.41 104.392 38.85 104.092L33.67 102.202Z" fill="#FF645F"/>
<path d="M106.9 55.262H26.2V57.372H106.9V55.262Z" fill="#0E96D2"/>
<path d="M26.9699 55.6421H26.2V105.682H26.9699V55.6421Z" fill="#0E96D2"/>
<path d="M106.87 55.6421H106.1V105.682H106.87V55.6421Z" fill="#0E96D2"/>
<path d="M23.1401 34.4921C26.741 34.4921 29.6601 31.573 29.6601 27.9721C29.6601 24.3713 26.741 21.4521 23.1401 21.4521C19.5392 21.4521 16.6201 24.3713 16.6201 27.9721C16.6201 31.573 19.5392 34.4921 23.1401 34.4921Z" fill="#F7958D"/>
<path d="M59.88 48.1321C59.3579 48.1321 58.8474 48.2869 58.4133 48.577C57.9791 48.8671 57.6408 49.2794 57.441 49.7618C57.2411 50.2442 57.1889 50.775 57.2907 51.2871C57.3926 51.7992 57.644 52.2696 58.0132 52.6388C58.3824 53.0081 58.8528 53.2595 59.365 53.3614C59.8771 53.4632 60.4079 53.4109 60.8903 53.2111C61.3727 53.0113 61.785 52.6729 62.0751 52.2388C62.3652 51.8046 62.52 51.2942 62.52 50.7721C62.52 50.0719 62.2418 49.4004 61.7468 48.9053C61.2517 48.4102 60.5802 48.1321 59.88 48.1321ZM59.88 52.4621C59.5433 52.4621 59.2143 52.3621 58.9345 52.1749C58.6547 51.9876 58.4368 51.7215 58.3085 51.4103C58.1801 51.0991 58.147 50.7568 58.2134 50.4267C58.2798 50.0967 58.4427 49.7938 58.6815 49.5565C58.9202 49.3191 59.2241 49.158 59.5545 49.0935C59.8849 49.0291 60.2271 49.0642 60.5375 49.1944C60.848 49.3246 61.1128 49.544 61.2984 49.8249C61.484 50.1058 61.582 50.4354 61.58 50.7721C61.58 50.9949 61.536 51.2154 61.4504 51.4211C61.3648 51.6268 61.2395 51.8136 61.0815 51.9706C60.9235 52.1277 60.736 52.252 60.5298 52.3363C60.3236 52.4207 60.1028 52.4634 59.88 52.4621Z" fill="#2A2873"/>
<path d="M59.26 45.802H68L66.33 55.382H60.92L59.26 45.802Z" fill="#2A2873"/>
<path d="M23.4599 9.27207C24.7399 7.92207 21.8499 -0.147936 15.7199 0.00206441C13.9198 0.122004 12.1696 0.644262 10.5982 1.53037C9.02671 2.41647 7.67408 3.64384 6.63991 5.12206C5.18222 7.51715 4.63555 10.357 5.09991 13.1221C5.09991 13.1221 11.2399 13.4921 13.7899 9.87206C15.9999 6.73206 18.4299 5.70206 19.6599 6.32206C22.6799 7.85206 22.5899 10.1821 23.4599 9.27207Z" fill="#FF645F"/>
<path d="M11.1401 28.532C6.70006 31.832 15.3401 50.922 16.9201 51.862C18.5001 52.802 34.3701 55.542 35.6301 55.4419C36.8901 55.3419 37.7301 51.132 37.0001 50.812C36.2701 50.492 22.1801 48.502 21.3401 47.342C20.5001 46.182 15.2401 25.482 11.1401 28.532Z" fill="#0086B5"/>
<path d="M39.6506 44.8615L38.6133 45.2839L42.6832 55.2769L43.7205 54.8545L39.6506 44.8615Z" fill="white"/>
<path d="M36.37 51.132C37.63 50.712 40.57 49.972 41.52 51.022C42.47 52.072 45.19 54.812 44.25 55.122C41.389 55.4483 38.5073 55.5553 35.63 55.442C34.16 55.332 36.37 51.132 36.37 51.132Z" fill="#F7958D"/>
<path d="M97.6201 38.6421L101.47 41.2221L97.3101 43.2621L97.6201 38.6421Z" fill="white"/>
<path d="M61.6999 22.642C61.7136 22.7742 61.6993 22.9079 61.658 23.0343C61.6167 23.1607 61.5493 23.277 61.4603 23.3757C61.3712 23.4744 61.2624 23.5534 61.1409 23.6074C61.0194 23.6614 60.8879 23.6893 60.7549 23.6893C60.622 23.6893 60.4905 23.6614 60.369 23.6074C60.2475 23.5534 60.1387 23.4744 60.0496 23.3757C59.9605 23.277 59.8932 23.1607 59.8519 23.0343C59.8106 22.9079 59.7963 22.7742 59.8099 22.642C59.834 22.4081 59.944 22.1915 60.1185 22.034C60.2931 21.8765 60.5198 21.7893 60.7549 21.7893C60.99 21.7893 61.2168 21.8765 61.3913 22.034C61.5659 22.1915 61.6758 22.4081 61.6999 22.642Z" fill="white"/>
<path d="M90 14.552C89.9902 14.7379 89.926 14.9168 89.8154 15.0665C89.7048 15.2162 89.5527 15.3301 89.3779 15.3941C89.2031 15.4581 89.0133 15.4693 88.8322 15.4264C88.6511 15.3835 88.4866 15.2883 88.3591 15.1527C88.2316 15.017 88.1468 14.847 88.1152 14.6635C88.0835 14.4801 88.1064 14.2914 88.1811 14.1209C88.2557 13.9504 88.3788 13.8056 88.5351 13.7045C88.6914 13.6034 88.8739 13.5503 89.06 13.552C89.1882 13.5532 89.3149 13.5803 89.4324 13.6318C89.5498 13.6832 89.6557 13.7579 89.7435 13.8513C89.8313 13.9448 89.8994 14.055 89.9434 14.1755C89.9875 14.2959 90.0068 14.424 90 14.552Z" fill="white"/>
<path d="M82.93 38.8322C82.9298 39.0179 82.8751 39.1994 82.7727 39.3544C82.6704 39.5094 82.5249 39.6309 82.3542 39.7041C82.1835 39.7772 81.9951 39.7987 81.8123 39.7659C81.6295 39.7332 81.4604 39.6475 81.3257 39.5196C81.1911 39.3917 81.0969 39.2271 81.0548 39.0463C81.0127 38.8654 81.0245 38.6762 81.0888 38.5019C81.1531 38.3277 81.267 38.1762 81.4165 38.066C81.5661 37.9559 81.7446 37.892 81.93 37.8822C82.0589 37.8754 82.1879 37.8949 82.3089 37.9396C82.43 37.9843 82.5408 38.0532 82.6343 38.1421C82.7279 38.231 82.8024 38.3381 82.8532 38.4567C82.9041 38.5753 82.9302 38.7031 82.93 38.8322Z" fill="white"/>
<path fill-rule="evenodd" clip-rule="evenodd" d="M93.8968 69.4244L97.2802 71.6313C98.2754 72.2805 98.4934 73.274 98.0608 74.4107L95.3005 79.7046C95.9702 80.4253 96.5136 81.3473 97.0571 82.2693L102.86 81.514C104.035 81.4292 105.03 82.0783 105.248 83.0719L106.12 87.0462C106.339 88.0398 105.707 89.0466 104.604 89.4626L99.0197 91.2115C98.9124 92.2767 98.6061 93.212 98.4988 94.2771L103.222 97.9254C104.091 98.7759 104.309 99.7694 103.677 100.776L101.529 104.2C101.024 105.005 99.9215 105.421 98.9264 104.772L93.5718 102.131C92.6684 102.676 91.964 103.352 91.1869 103.697L91.8447 109.801C92.0627 110.795 91.431 111.802 90.3286 112.218L86.5506 112.875C85.4482 113.291 84.4531 112.642 84.036 111.518L82.2759 105.83C81.2271 105.713 80.3047 105.395 79.2559 105.279L75.6995 110.053C74.9951 110.729 73.8927 111.145 72.8976 110.496L69.5142 108.289C68.7181 107.77 68.4273 106.445 68.9326 105.639L71.4939 100.216C70.9505 99.2936 70.2807 98.573 69.7373 97.6509L63.9345 98.4063C62.9584 98.6209 61.9633 97.9718 61.6725 96.647L60.8729 93.0039C60.5822 91.6791 61.2138 90.6723 62.1899 90.4576L67.7747 88.7087C67.882 87.6436 67.9893 86.5785 68.2956 85.6432L63.699 81.7935C62.9029 81.2742 62.6121 79.9495 63.1174 79.144L65.2651 75.7207C65.8968 74.7138 67.0719 74.629 67.9943 74.9469L73.2226 77.7897C73.927 77.1141 74.8304 76.5682 75.7338 76.0224L74.9497 70.1192C74.858 68.9242 75.4897 67.9174 76.6648 67.8326L80.3701 66.8442C81.5452 66.7593 82.5403 67.4084 82.7584 68.402L84.5185 74.0906C85.5673 74.2071 86.616 74.3237 87.5385 74.6416L91.2939 69.9968C91.9256 68.9899 93.1007 68.9051 93.8968 69.4244ZM89.3316 93.6892C91.353 90.4673 90.5343 85.9604 87.1509 83.7534C83.9665 81.6763 79.4115 82.678 77.3901 85.8999C75.2424 89.3232 76.3864 93.7585 79.5708 95.8357C82.9542 98.0426 87.1839 97.1125 89.3316 93.6892Z" fill="#1194C8"/>
<path fill-rule="evenodd" clip-rule="evenodd" d="M102.335 4.40182L103.908 4.57663C104.432 4.63491 104.704 5.09592 104.777 5.42711L104.707 8.21975C105.033 8.1482 105.431 8.40785 105.703 8.86886L107.762 7.37444C108.214 7.10152 108.738 7.15979 109.01 7.62081L110.15 8.9323C110.223 9.26349 110.169 9.79606 109.917 10.1988L108.056 11.823C108.328 12.2841 108.401 12.6152 108.347 13.1478L110.843 13.6405C111.367 13.6988 111.639 14.1598 111.585 14.6924L111.424 16.2901C111.37 16.8226 110.919 17.0956 110.394 17.0373L107.971 16.8758C107.719 17.2785 107.466 17.6812 107.213 18.084L108.698 20.1877C108.97 20.6487 108.717 21.0514 108.465 21.4542L107.11 22.2729C106.857 22.6757 106.333 22.6174 105.935 22.3578L104.323 20.4554C103.998 20.527 103.347 20.6701 103.022 20.7416L102.555 23.2746C102.302 23.6774 102.049 24.0801 101.525 24.0218L99.7527 23.7172C99.5537 23.5874 99.1556 23.3277 99.2093 22.7952L99.1522 20.2039C98.9531 20.0741 98.5551 19.8144 98.157 19.5548L95.8986 20.9194C95.7722 21.1207 95.2478 21.0625 94.8498 20.8028L93.8356 19.29C93.4376 19.0303 93.4912 18.4978 93.9429 18.2248L95.8033 16.6006C95.5316 16.1396 95.5853 15.607 95.5126 15.2758L93.017 14.7831C92.6189 14.5235 92.3472 14.0624 92.2745 13.7312L92.5618 11.9322C92.6154 11.3996 93.0671 11.1267 93.4652 11.3863L96.0144 11.3465C96.2671 10.9438 96.1944 10.6126 96.6461 10.3397L95.2875 8.0346C94.8895 7.77495 94.9431 7.24239 95.3948 6.96947L96.8762 5.94934C97.1289 5.5466 97.6533 5.60487 97.925 6.06589L99.5362 7.96822C99.9879 7.6953 100.313 7.62375 100.838 7.68202L101.431 4.94765C101.558 4.74628 101.81 4.34354 102.335 4.40182ZM104.913 14.5972C105.074 12.9995 103.861 11.3569 102.288 11.182C100.715 11.0072 99.2334 12.0273 98.9461 13.8264C98.7852 15.4241 99.7994 16.937 101.572 17.2416C103.145 17.4164 104.752 16.1949 104.913 14.5972Z" fill="#1194C8"/>
</svg>
