<svg width="209" height="193" viewBox="0 0 209 193" fill="none" xmlns="http://www.w3.org/2000/svg">
<path d="M150 39H158V43.5H163.5L169.5 57.5" stroke="#B3E3EF"/>
<path d="M152.5 28H176L169 31C175.333 31 187.8 31 187 31C186.2 31 182.333 34 180.5 35.5L200.5 52" stroke="#B3E3EF"/>
<path d="M147 18L179 4L175 13L208.5 0.5" stroke="#B3E3EF"/>
<path d="M99.6571 57.2807L97.368 53.3028C96.7019 52.1394 94.0375 51.3453 91.0542 51.313C91.3638 54.8732 93.4465 57.7629 96.2234 60.0682C98.8127 59.5483 100.309 58.4279 99.6571 57.2807Z" fill="#2B79E6"/>
<path d="M134.653 26.3271V40.1135C137.117 39.5611 139 36.6941 139 33.2203C139 29.7445 137.117 26.8796 134.653 26.3271Z" fill="#4396CA"/>
<path d="M132.264 11.1538C131.96 10.9905 131.589 11.0006 131.296 11.1901C131.125 11.303 113.954 22.2869 98.9918 22.4885C98.4737 22.4966 98.0583 22.92 98.0583 23.4361V43.0048C98.0583 43.5229 98.4757 43.9443 98.9918 43.9524C113.942 44.16 131.125 55.144 131.296 55.2528C131.454 55.3557 131.631 55.4041 131.811 55.4041C131.966 55.4041 132.121 55.3657 132.264 55.2891C132.569 55.1218 132.758 54.8032 132.758 54.4565V11.9844C132.758 11.6377 132.569 11.3191 132.264 11.1538ZM125.484 22.5994C116.665 27.4301 104.794 28.5148 104.294 28.5571C104.266 28.5612 104.238 28.5612 104.21 28.5612C103.724 28.5612 103.31 28.1902 103.266 27.6982C103.222 27.1741 103.605 26.7164 104.127 26.67C104.246 26.6579 116.109 25.5712 124.573 20.9361C125.032 20.6861 125.609 20.8535 125.859 21.3131C126.111 21.7728 125.944 22.3474 125.484 22.5994Z" fill="#2B79E6"/>
<path d="M96.7081 63.0137C97.6875 61.5305 98.1352 57.4169 96.9039 56.7733C95.6726 56.1296 92.3985 53.835 91.3072 56.4655L89.908 61.8104L95.5047 64.9166L96.7081 63.0137Z" fill="#F7958D"/>
<path d="M25.5449 110.195H61.7281L60.7767 187.515H53.8646C53.8646 187.515 48.6316 148.617 46.6728 127.126H41.9715L40.5443 187.515H33.5763C33.5763 187.515 25.349 126.874 25.5729 115.176C25.405 114.309 25.5449 110.195 25.5449 110.195Z" fill="#FF645F"/>
<path d="M25.5449 110.195H61.7281L66.2615 62.1461C66.6533 58.2004 62.8755 54.8423 58.0622 54.8423H29.2388C24.4255 54.8423 20.6197 58.2004 21.0395 62.1461L25.5449 110.195Z" fill="#A2CCDA"/>
<path d="M43.8183 59.9354C37.41 59.9354 37.438 55.5699 37.438 54.5345V47.4265C37.438 45.8315 39.8446 45.9714 41.2718 45.9714H45.8612C47.2883 45.9714 49.667 47.2586 49.667 48.7698V54.3666C49.664 55.1209 49.5085 55.8668 49.21 56.5595C48.9114 57.2522 48.4759 57.8774 47.9296 58.3975C47.3833 58.9177 46.7375 59.322 46.031 59.5863C45.3245 59.8506 44.5719 59.9693 43.8183 59.9354Z" fill="#F7958D"/>
<path d="M53.6686 45.9722C51.8216 52.2966 46.6166 51.2332 40.3762 49.4982C38.839 49.1091 37.3962 48.4137 36.1341 47.4536C34.8721 46.4936 33.8169 45.2886 33.0317 43.911C32.2465 42.5334 31.7475 41.0114 31.5645 39.4364C31.3816 37.8613 31.5185 36.2654 31.967 34.7445C32.4156 33.2236 33.1665 31.8089 34.1749 30.5851C35.1833 29.3614 36.4283 28.3538 37.8354 27.6227C39.2425 26.8917 40.7827 26.4522 42.3637 26.3306C43.9447 26.209 45.534 26.4078 47.0364 26.9151C53.1648 28.6502 55.5155 39.7318 53.6686 45.9722Z" fill="#FCA89E"/>
<path d="M40.6839 32.7073C40.6839 32.7073 40.6839 36.8769 40.1242 36.8769C39.3727 36.6227 38.5629 36.5959 37.7963 36.8C37.0296 37.0041 36.3403 37.43 35.8147 38.0242C34.2476 40.039 35.8147 42.0259 37.8295 42.4736C39.8444 42.9214 38.3892 47.7626 33.9678 46.9231C29.5463 46.0836 27.9792 35.5057 30.2179 31.476C32.4566 27.4463 39.8444 23.0808 42.4189 23.3047C44.9934 23.5285 62.0077 32.7632 62.0077 32.7632L40.6839 32.7073Z" fill="#FF645F"/>
<path d="M66.4292 60.6911L75.5519 78.349L89.8237 61.8105C89.8237 61.1668 96.4279 63.6574 95.6164 65.1126C94.2732 67.4632 85.0665 86.1845 77.8186 93.8521C73.7889 98.1056 61.9238 82.6585 61.2801 81.4552C60.2447 79.7202 58.8455 69.0863 58.6496 63.1537C58.6024 62.4735 58.8211 61.8016 59.2596 61.2796C59.6981 60.7576 60.3222 60.4262 61.0003 60.3553L63.155 56.5215C64.3584 56.5215 66.0094 59.4598 66.4292 60.6911Z" fill="#A2CCDA"/>
<path d="M93.6802 45.1214H95.0762V21.5454H87.6124C84.9943 21.5454 82.8228 24.1454 82.3897 27.5487H88.119V30.0222H82.2988V32.0927H88.121V34.5689H82.2988V36.6367H88.121V39.1102H82.3916C82.7513 41.9393 84.3214 44.1916 86.342 44.8765C85.8219 49.323 84.4258 64.7857 88.4497 76.8187C89.1052 78.7864 90.7662 81.0808 93.2896 81.0808H99.0073C100.276 81.0808 101.169 80.4934 101.461 79.4766C101.647 78.8339 101.662 77.8144 100.69 76.5948C97.2786 72.3327 91.9244 62.6046 93.6802 45.1214Z" fill="#2B79E6"/>
<path d="M24.0058 56.438C24.0058 56.438 7.27136 74.2638 1.39474 79.8885C-1.87938 82.9947 1.39474 85.3174 3.24168 87.6401C8.39072 94.1044 25.1811 105.634 25.1811 105.634L24.2576 95.8673L13.9875 84.0861C13.9875 84.0861 28.1754 73.1164 28.6231 72.3329C29.9383 70.1781 28.847 60.7195 28.847 60.7195L24.0058 56.438Z" fill="#A2CCDA"/>
<path d="M60.8609 187.403H53.8369V192.804H68.0807C69.0322 192.804 69.368 190.677 68.5285 190.229L60.8609 187.403Z" fill="#2A2873"/>
<path d="M40.2083 187.403H33.1843V192.804H47.5681C48.4915 192.804 48.8273 190.677 47.9878 190.229L40.2083 187.403Z" fill="#2A2873"/>
<path d="M63.9108 68.6943H63.2952V94.9433H63.9108V68.6943Z" fill="#0E97CD"/>
<path d="M27.9793 105.158C28.4105 105.11 28.8274 104.976 29.2047 104.762C29.5819 104.548 29.9116 104.259 30.1735 103.913C30.4355 103.567 30.6241 103.172 30.728 102.751C30.8319 102.33 30.8488 101.892 30.7777 101.464L30.19 95.8671C30.19 94.7757 28.3991 95.1115 27.3917 95.1675L24.5933 95.9511L25.1809 105.633C25.1809 105.633 27.1958 105.214 27.9793 105.158Z" fill="#F7958D"/>
</svg>
