<svg width="300" height="277" viewBox="0 0 631 601" fill="none" xmlns="http://www.w3.org/2000/svg">
<path d="M405.636 139.101C398.502 187.382 371.355 193.305 358.97 214.215C346.316 235.933 348.246 244.638 335.727 242.843C317.778 240.285 321.278 226.106 308.804 206.946C294.67 185.139 267.657 181.908 265.907 138.966C264.741 100.601 297.362 69.3711 335.906 69.3711C374.451 69.3711 411.29 101.005 405.636 139.101Z" fill="#FEB7B5"/>
<path d="M352.599 224.087H350.849V155.209H321.952V216.01H320.202V155.209H307.324C306.312 155.216 305.32 154.932 304.465 154.392C303.609 153.852 302.927 153.079 302.497 152.163C302.067 151.247 301.909 150.228 302.041 149.225C302.173 148.222 302.589 147.278 303.24 146.504L315.894 131.338C316.338 130.791 316.941 130.395 317.62 130.204C318.299 130.014 319.02 130.038 319.684 130.274C320.348 130.511 320.923 130.947 321.329 131.523C321.735 132.099 321.953 132.787 321.952 133.492V153.459H350.849V132.235C350.835 131.743 350.974 131.258 351.247 130.848C351.52 130.438 351.914 130.123 352.374 129.947C352.822 129.741 353.324 129.681 353.808 129.778C354.292 129.875 354.732 130.123 355.067 130.485L369.829 147.581C370.424 148.241 370.809 149.062 370.937 149.94C371.065 150.819 370.929 151.716 370.547 152.517C370.191 153.334 369.599 154.026 368.848 154.506C368.097 154.985 367.22 155.23 366.329 155.209H352.599V224.087ZM352.599 153.459H366.329C366.878 153.471 367.419 153.319 367.882 153.023C368.345 152.728 368.71 152.302 368.932 151.799C369.176 151.298 369.264 150.734 369.184 150.182C369.104 149.63 368.86 149.115 368.483 148.703L353.81 131.652C353.696 131.58 353.564 131.542 353.429 131.542C353.294 131.542 353.162 131.58 353.047 131.652C352.91 131.7 352.792 131.792 352.711 131.914C352.63 132.035 352.59 132.179 352.599 132.325V153.459ZM318.586 131.831C318.343 131.835 318.104 131.893 317.886 132.002C317.669 132.111 317.479 132.267 317.33 132.46L304.586 147.626C304.137 148.133 303.847 148.76 303.751 149.43C303.656 150.1 303.759 150.783 304.048 151.395C304.335 152.02 304.798 152.548 305.379 152.914C305.961 153.281 306.636 153.47 307.324 153.459H320.202V133.492C320.206 133.15 320.099 132.816 319.897 132.541C319.694 132.265 319.407 132.064 319.08 131.966C318.926 131.888 318.758 131.842 318.586 131.831Z" fill="#FF645F"/>
<path d="M487.795 319.842C487.607 320.289 487.332 320.696 486.986 321.037C486.641 321.379 486.231 321.649 485.781 321.832C485.331 322.016 484.85 322.109 484.364 322.106C483.878 322.103 483.397 322.005 482.949 321.816C482.502 321.627 482.095 321.352 481.754 321.007C481.412 320.661 481.142 320.252 480.959 319.802C480.775 319.352 480.682 318.87 480.685 318.384C480.688 317.898 480.786 317.418 480.975 316.97C481.164 316.522 481.439 316.116 481.784 315.774C482.13 315.433 482.539 315.162 482.989 314.979C483.439 314.796 483.921 314.703 484.407 314.706C484.893 314.708 485.373 314.807 485.821 314.996C486.269 315.184 486.675 315.459 487.017 315.805C487.358 316.15 487.629 316.56 487.812 317.01C487.995 317.46 488.088 317.941 488.085 318.427C488.083 318.913 487.984 319.394 487.795 319.842Z" fill="white"/>
<path d="M602.352 333.527C602.163 333.975 601.888 334.381 601.543 334.723C601.197 335.064 600.787 335.335 600.337 335.518C599.887 335.701 599.406 335.794 598.92 335.791C598.434 335.789 597.953 335.69 597.506 335.501C597.058 335.313 596.651 335.038 596.31 334.692C595.968 334.347 595.698 333.937 595.515 333.487C595.331 333.037 595.238 332.556 595.241 332.07C595.244 331.584 595.343 331.103 595.531 330.655C595.912 329.751 596.636 329.035 597.545 328.665C598.454 328.294 599.473 328.3 600.377 328.681C601.282 329.062 601.998 329.786 602.368 330.695C602.738 331.604 602.732 332.623 602.352 333.527Z" fill="white"/>
<path d="M540.026 410.616C539.835 411.067 539.556 411.476 539.207 411.82C538.858 412.163 538.444 412.435 537.99 412.618C537.535 412.802 537.049 412.893 536.559 412.889C536.069 412.884 535.585 412.783 535.135 412.59C534.473 412.298 533.912 411.818 533.521 411.209C533.131 410.599 532.929 409.889 532.941 409.165C532.952 408.442 533.177 407.738 533.586 407.142C533.995 406.545 534.572 406.083 535.242 405.812C535.913 405.541 536.649 405.474 537.358 405.619C538.066 405.764 538.717 406.115 539.227 406.628C539.737 407.14 540.085 407.792 540.227 408.502C540.369 409.211 540.299 409.946 540.026 410.616Z" fill="white"/>
<path d="M431.616 562.415C431.617 556.318 433.428 550.357 436.82 545.291C440.212 540.224 445.033 536.279 450.671 533.956C456.309 531.633 462.509 531.036 468.486 532.242C474.463 533.448 479.948 536.402 484.243 540.73C488.539 545.057 491.453 550.563 492.615 556.549C493.778 562.534 493.136 568.73 490.772 574.351C488.407 579.972 484.427 584.763 479.336 588.118C474.244 591.474 468.271 593.241 462.174 593.197C454.045 593.149 446.266 589.884 440.54 584.115C434.813 578.346 431.604 570.544 431.616 562.415Z" fill="#2B79E6"/>
<path d="M253.927 528.762H434.758V459.705H253.927C244.953 459.705 237.594 470.34 237.594 483.397V505.115C237.818 518.172 244.908 528.762 253.927 528.762Z" fill="#823024"/>
<path d="M256.664 520.775H434.534V467.737H256.664C249.709 467.737 249.709 520.775 256.664 520.775Z" fill="white"/>
<path d="M437.944 511.666H246.209V514.448H437.944V511.666Z" fill="#B3E3EF"/>
<path d="M437.944 502.377H246.209V505.159H437.944V502.377Z" fill="#B3E3EF"/>
<path d="M437.944 493.089H246.209V495.871H437.944V493.089Z" fill="#B3E3EF"/>
<path d="M437.944 483.801H246.209V486.583H437.944V483.801Z" fill="#B3E3EF"/>
<path d="M437.944 474.512H246.209V477.294H437.944V474.512Z" fill="#B3E3EF"/>
<path d="M307.099 461.231C307.099 461.231 295.523 477.564 303.555 487.391C311.587 497.217 376.919 489.5 379.566 478.416C382.214 467.333 375.573 454.5 375.573 454.5L307.099 461.231Z" fill="#9B9B9B"/>
<path d="M417.797 452.167H303.241V460.558H417.797V452.167Z" fill="#0C5C9B"/>
<path d="M294.221 319.303C281.747 321.098 251.952 391.097 260.837 407.026C269.721 422.956 318.586 441.712 318.586 441.712L315.939 414.161C315.939 414.161 282.689 399.937 285.157 391.007C287.625 382.078 307.099 348.918 307.099 348.918L294.221 319.303Z" fill="#FF645F"/>
<path d="M377.547 319.303C389.976 321.098 419.816 391.097 410.931 407.026C402.047 422.956 353.137 441.712 353.137 441.712L355.785 414.161C355.785 414.161 389.259 399.937 386.611 391.007C383.964 382.078 364.669 348.918 364.669 348.918L377.547 319.303Z" fill="#FF645F"/>
<path d="M301.849 317.284H370.233C372.613 317.248 374.976 317.686 377.184 318.572C379.393 319.458 381.404 320.774 383.099 322.445C384.794 324.115 386.14 326.106 387.059 328.301C387.978 330.496 388.451 332.852 388.451 335.232C388.451 335.232 375.393 388.584 375.259 406.443C375.259 416.225 378.355 445.481 378.355 445.481H293.773C293.773 445.481 297.676 414.923 297.587 404.648C297.587 387.238 283.677 335.367 283.677 335.367C283.658 332.98 284.117 330.613 285.025 328.405C285.933 326.197 287.272 324.192 288.964 322.508C290.657 320.824 292.668 319.495 294.88 318.598C297.093 317.7 299.462 317.254 301.849 317.284Z" fill="#FF645F"/>
<path d="M344.791 330.656C344.544 332.631 343.551 334.437 342.017 335.705C340.482 336.972 338.521 337.606 336.535 337.476C328.144 337.072 327.561 330.656 327.561 330.656V297.361H345.016L344.791 330.656Z" fill="#F7958D"/>
<path d="M357.669 296.15C357.669 308.041 347.977 325.809 336.086 325.809C324.195 325.809 314.458 307.861 314.458 296.15C314.325 293.23 314.785 290.313 315.811 287.576C316.837 284.838 318.407 282.337 320.426 280.224C322.445 278.11 324.872 276.428 327.56 275.279C330.248 274.129 333.141 273.537 336.064 273.537C338.987 273.537 341.88 274.129 344.567 275.279C347.255 276.428 349.682 278.11 351.701 280.224C353.721 282.337 355.291 284.838 356.316 287.576C357.342 290.313 357.802 293.23 357.669 296.15Z" fill="#FCA89E"/>
<path d="M393.341 384.456H278.785V452.75H393.341V384.456Z" fill="#2A2873"/>
<path d="M346.586 417.302C346.586 419.389 345.966 421.43 344.806 423.165C343.645 424.9 341.995 426.251 340.066 427.048C338.137 427.845 336.014 428.051 333.967 427.64C331.921 427.23 330.042 426.221 328.569 424.742C327.096 423.263 326.095 421.38 325.694 419.331C325.292 417.283 325.507 415.161 326.312 413.235C327.117 411.309 328.475 409.665 330.215 408.512C331.955 407.359 333.999 406.748 336.086 406.757C337.469 406.757 338.838 407.03 340.114 407.56C341.391 408.091 342.551 408.868 343.526 409.848C344.502 410.828 345.274 411.991 345.799 413.27C346.324 414.549 346.592 415.919 346.586 417.302Z" fill="#0C5C9B"/>
<path d="M328.413 489.095C326.014 491.017 323.316 492.533 320.426 493.583C314.279 496.185 302.118 500.986 303.958 506.281C306.426 513.371 314.952 512.877 320.65 511.172C329.504 508.127 337.933 503.965 345.733 498.788L328.413 489.095Z" fill="#2B79E6"/>
<path d="M343.086 470.609C363.906 455.442 374.765 444.224 398.098 430.224C403.662 426.814 407.476 425.737 417.124 429.596C425.29 432.827 424.438 446.917 419.95 452.795C406.489 470.474 354.753 494.839 344.298 498.518C339.811 500.134 323.836 486.717 330.298 480.256C334.353 476.773 338.624 473.551 343.086 470.609Z" fill="#B3E3EF"/>
<path d="M333.528 499.82C336.734 503.981 340.408 507.76 344.477 511.082C351.522 516.557 356.368 518.351 362.111 515.569C370.412 511.71 362.784 503.544 356.323 497.127C351.411 492.013 345.914 487.495 339.945 483.666L333.528 499.82Z" fill="#2B79E6"/>
<path d="M314.862 300.098C318.796 294.813 322.081 289.073 324.644 283.003C327.022 275.868 328.413 283.451 338.644 291.214C344.603 294.84 350.918 297.847 357.49 300.188C357.49 300.188 360.541 286.727 355.785 279.727C344.432 263.304 321.234 264.381 314.189 283.586C313.08 286.219 312.566 289.063 312.682 291.917C312.799 294.771 313.543 297.565 314.862 300.098Z" fill="#2A2873"/>
<path d="M334.56 480.121L343.535 487.48C345.32 489.012 346.837 490.832 348.022 492.865C350.938 498.249 340.932 509.243 334.56 502.781C328.189 496.32 322.311 489.32 322.311 489.32L334.56 480.121Z" fill="#F59762"/>
<path d="M308.131 491.474C283.946 479.314 269.138 474.961 253.613 453.064C249.779 447.381 248.329 440.421 249.575 433.68C251.504 428.116 259.671 424.705 269.318 427.039C277.395 428.968 331.689 471.506 340.169 479.493C343.804 482.948 332.676 500.268 323.567 497.442C318.24 495.96 313.07 493.961 308.131 491.474Z" fill="#8FD5E5"/>
<path d="M444.944 529.479H210.582V600.286H444.944C454.232 600.286 461.726 589.427 461.726 576.011V553.575C461.726 540.383 454.232 529.479 444.944 529.479Z" fill="#FF645F"/>
<path d="M442.161 537.691H210.896V592.299H442.161C449.251 592.299 449.251 537.691 442.161 537.691Z" fill="white"/>
<path d="M452.886 544.198H207.351V547.07H452.886V544.198Z" fill="#B3E3EF"/>
<path d="M452.886 553.71H207.351V556.582H452.886V553.71Z" fill="#B3E3EF"/>
<path d="M452.886 563.268H207.351V566.14H452.886V563.268Z" fill="#B3E3EF"/>
<path d="M452.886 572.781H207.351V575.652H452.886V572.781Z" fill="#B3E3EF"/>
<path d="M452.886 582.293H207.351V585.165H452.886V582.293Z" fill="#B3E3EF"/>
<path d="M352.06 241.901C352.069 245.055 351.141 248.141 349.394 250.767C347.647 253.394 345.16 255.442 342.247 256.654C339.335 257.865 336.128 258.184 333.034 257.571C329.94 256.958 327.098 255.44 324.867 253.209C322.637 250.979 321.119 248.136 320.506 245.042C319.892 241.948 320.212 238.741 321.423 235.829C322.634 232.916 324.683 230.429 327.309 228.682C329.935 226.935 333.021 226.007 336.176 226.016C340.385 226.028 344.418 227.705 347.395 230.682C350.371 233.658 352.048 237.691 352.06 241.901Z" fill="#2B79E6"/>
<path d="M351.252 216.01H321.054C317.535 216.01 314.682 218.862 314.682 222.381V229.291C314.682 232.81 317.535 235.663 321.054 235.663H351.252C354.771 235.663 357.624 232.81 357.624 229.291V222.381C357.624 218.862 354.771 216.01 351.252 216.01Z" fill="#73B3FF"/>
<path d="M344.028 7.85245C344.028 12.3396 336.176 26.1599 336.176 26.1599C336.176 26.1599 328.323 12.1601 328.323 7.85245C328.323 5.76985 329.151 3.77255 330.623 2.29993C332.096 0.82731 334.093 0 336.176 0C338.259 0 340.256 0.82731 341.728 2.29993C343.201 3.77255 344.028 5.76985 344.028 7.85245Z" fill="#B3E3EF"/>
<path d="M264.741 25.2624C266.895 28.9867 267.074 45.0057 267.074 45.0057C267.074 45.0057 253.299 36.8392 251.145 33.07C250.422 31.3136 250.361 29.3548 250.971 27.5563C251.582 25.7579 252.824 24.2418 254.467 23.2889C256.11 22.3359 258.043 22.0108 259.907 22.3737C261.771 22.7365 263.441 23.7628 264.606 25.2624H264.741Z" fill="#B3E3EF"/>
<path d="M204.434 80.0503C208.203 82.2042 216.37 95.9796 216.37 95.9796C216.37 95.9796 200.351 95.9796 196.581 93.6463C194.788 92.5962 193.481 90.8815 192.943 88.874C192.406 86.8664 192.681 84.7279 193.71 82.9221C194.221 82.0252 194.905 81.2386 195.723 80.6079C196.541 79.9772 197.475 79.515 198.472 79.2479C199.47 78.9808 200.51 78.9142 201.534 79.052C202.557 79.1897 203.543 79.529 204.434 80.0503Z" fill="#B3E3EF"/>
<path d="M179.8 157.542C184.287 157.542 198.107 165.395 198.107 165.395C198.107 165.395 183.973 173.247 179.8 173.247C177.717 173.247 175.72 172.42 174.247 170.947C172.775 169.475 171.947 167.478 171.947 165.395C171.947 163.312 172.775 161.315 174.247 159.842C175.72 158.37 177.717 157.542 179.8 157.542Z" fill="#B3E3EF"/>
<path d="M493.584 172.081C489.097 172.081 475.277 164.229 475.277 164.229C475.277 164.229 489.232 156.376 493.584 156.376C495.667 156.376 497.664 157.204 499.137 158.676C500.609 160.149 501.437 162.146 501.437 164.229C501.437 166.311 500.609 168.309 499.137 169.781C497.664 171.254 495.667 172.081 493.584 172.081Z" fill="#B3E3EF"/>
<path d="M476.308 92.6142C472.539 94.768 456.52 94.9924 456.52 94.9924C456.52 94.9924 464.687 81.2169 468.456 79.0183C470.216 78.2657 472.191 78.182 474.008 78.783C475.826 79.384 477.361 80.6282 478.326 82.2818C479.29 83.9354 479.618 85.8844 479.246 87.7623C478.875 89.6403 477.83 91.3179 476.308 92.4796V92.6142Z" fill="#B3E3EF"/>
<path d="M421.521 32.5319C419.367 36.2562 405.547 44.4228 405.547 44.4228C405.547 44.4228 405.771 28.4037 407.925 24.6794C408.362 23.6559 409.013 22.737 409.833 21.9839C410.652 21.2308 411.623 20.6605 412.68 20.3111C413.737 19.9616 414.856 19.8408 415.963 19.9568C417.07 20.0728 418.14 20.4228 419.102 20.9837C420.063 21.5447 420.895 22.3036 421.54 23.2103C422.186 24.1169 422.632 25.1506 422.848 26.2426C423.064 27.3347 423.046 28.4602 422.794 29.5445C422.541 30.6288 422.062 31.6471 421.386 32.5319H421.521Z" fill="#B3E3EF"/>
</svg>
