<svg width="146" height="90" viewBox="0 0 146 90" fill="none" xmlns="http://www.w3.org/2000/svg">
<path d="M105.254 27.7242C105.254 28.8733 103.168 34.416 103.168 34.416C103.168 34.416 101.082 28.8733 101.082 27.7242C101.082 27.4503 101.136 27.1791 101.241 26.926C101.346 26.6729 101.5 26.443 101.693 26.2493C101.887 26.0557 102.117 25.902 102.37 25.7972C102.623 25.6924 102.894 25.6384 103.168 25.6384C103.442 25.6384 103.713 25.6924 103.966 25.7972C104.219 25.902 104.449 26.0557 104.643 26.2493C104.837 26.443 104.99 26.6729 105.095 26.926C105.2 27.1791 105.254 27.4503 105.254 27.7242Z" fill="#D2F7FF"/>
<path d="M93.8785 29.6652C94.4579 30.6308 95.4235 36.5115 95.4235 36.5115C95.4235 36.5115 90.8464 32.7552 90.2671 31.7606C90.1295 31.5235 90.0399 31.2616 90.0036 30.9898C89.9672 30.7181 89.9847 30.4419 90.0551 30.1769C90.1255 29.9119 90.2474 29.6634 90.4138 29.4456C90.5802 29.2277 90.7879 29.0448 91.0251 28.9072C91.2622 28.7696 91.5241 28.6801 91.7958 28.6437C92.0676 28.6073 92.3438 28.6248 92.6088 28.6952C92.8737 28.7656 93.1223 28.8875 93.3401 29.0539C93.558 29.2204 93.7409 29.4281 93.8785 29.6652Z" fill="#D2F7FF"/>
<path d="M85.053 37.0232C86.0187 37.5929 89.8039 42.1796 89.8039 42.1796C89.8039 42.1796 84.0101 41.214 82.9673 40.6346C82.7237 40.5011 82.5092 40.3202 82.3365 40.1026C82.1638 39.885 82.0362 39.6352 81.9614 39.3676C81.8866 39.1001 81.8659 38.8203 81.9007 38.5447C81.9354 38.2691 82.0249 38.0032 82.1639 37.7626C82.3028 37.522 82.4884 37.3116 82.7097 37.1438C82.9311 36.9759 83.1838 36.854 83.4529 36.7851C83.722 36.7162 84.0022 36.7018 84.277 36.7427C84.5518 36.7836 84.8156 36.8789 85.053 37.0232Z" fill="#D2F7FF"/>
<path d="M81.1131 47.7998C82.2719 47.7998 87.8146 49.8856 87.8146 49.8856C87.8146 49.8856 82.2332 51.9713 81.1131 51.9713C80.5599 51.9713 80.0294 51.7516 79.6383 51.3604C79.2471 50.9693 79.0273 50.4387 79.0273 49.8856C79.0273 49.3324 79.2471 48.8019 79.6383 48.4107C80.0294 48.0196 80.5599 47.7998 81.1131 47.7998Z" fill="#F2D18F"/>
<path d="M83.044 59.1266C84.0097 58.5472 89.8904 57.5815 89.8904 57.5815C89.8904 57.5815 86.1244 62.1586 85.1298 62.738C84.6518 63.0001 84.0902 63.0646 83.5651 62.9178C83.0401 62.7709 82.5935 62.4243 82.3209 61.9523C82.0482 61.4802 81.9712 60.9201 82.1064 60.392C82.2416 59.8638 82.5781 59.4096 83.044 59.1266Z" fill="#D2F7FF"/>
<path d="M90.3735 67.9525C90.9529 66.9868 95.53 63.1919 95.53 63.1919C95.53 63.1919 94.5643 69.0436 93.985 70.0382C93.8514 70.2818 93.6705 70.4963 93.453 70.669C93.2354 70.8417 92.9855 70.9693 92.718 71.0441C92.4504 71.1189 92.1706 71.1396 91.895 71.1048C91.6194 71.07 91.3535 70.9805 91.1129 70.8416C90.8724 70.7027 90.662 70.5171 90.4941 70.2957C90.3263 70.0744 90.2043 69.8217 90.1354 69.5526C90.0666 69.2835 90.0521 69.0033 90.093 68.7285C90.1339 68.4537 90.2293 68.1899 90.3735 67.9525Z" fill="#D2F7FF"/>
<path d="M101.159 71.9307C101.159 70.772 103.245 65.2292 103.245 65.2292C103.245 65.2292 105.331 70.772 105.331 71.9307C105.331 72.4839 105.111 73.0144 104.72 73.4056C104.329 73.7967 103.798 74.0165 103.245 74.0165C102.692 74.0165 102.161 73.7967 101.77 73.4056C101.379 73.0144 101.159 72.4839 101.159 71.9307Z" fill="#D2F7FF"/>
<path d="M112.476 69.9801C111.897 69.0145 110.931 63.1338 110.931 63.1338C110.931 63.1338 115.518 66.8901 116.088 67.8943C116.232 68.1318 116.327 68.3956 116.368 68.6704C116.409 68.9452 116.395 69.2253 116.326 69.4945C116.257 69.7636 116.135 70.0163 115.967 70.2376C115.799 70.459 115.589 70.6446 115.348 70.7835C115.108 70.9225 114.842 71.0119 114.566 71.0467C114.291 71.0815 114.011 71.0608 113.743 70.986C113.476 70.9112 113.226 70.7836 113.008 70.6109C112.791 70.4382 112.61 70.2237 112.476 69.9801Z" fill="#D2F7FF"/>
<path d="M121.312 62.6318C120.346 62.0524 116.552 57.4753 116.552 57.4753C116.552 57.4753 122.403 58.441 123.398 59.0203C123.641 59.1539 123.856 59.3348 124.029 59.5524C124.201 59.7699 124.329 60.0198 124.404 60.2874C124.479 60.5549 124.499 60.8347 124.464 61.1103C124.43 61.3859 124.34 61.6518 124.201 61.8924C124.062 62.1329 123.877 62.3433 123.655 62.5112C123.434 62.679 123.181 62.801 122.912 62.8699C122.643 62.9388 122.363 62.9532 122.088 62.9123C121.813 62.8714 121.549 62.7761 121.312 62.6318Z" fill="#D2F7FF"/>
<path d="M123.33 40.5575C122.365 41.1272 116.494 42.0928 116.494 42.0928C116.494 42.0928 120.25 37.5157 121.245 36.9363C121.482 36.7994 121.745 36.7106 122.017 36.6751C122.289 36.6395 122.565 36.6579 122.83 36.7292C123.095 36.8005 123.344 36.9233 123.561 37.0905C123.779 37.2578 123.961 37.4663 124.098 37.704C124.235 37.9418 124.324 38.2042 124.359 38.4763C124.395 38.7484 124.376 39.0248 124.305 39.2897C124.234 39.5547 124.111 39.803 123.944 40.0205C123.777 40.2381 123.568 40.4205 123.33 40.5575Z" fill="#D2F7FF"/>
<path d="M115.982 31.6929C115.412 32.6585 110.825 36.4535 110.825 36.4535C110.825 36.4535 111.791 30.6018 112.37 29.6072C112.504 29.3636 112.685 29.1491 112.902 28.9764C113.12 28.8036 113.37 28.6761 113.637 28.6013C113.905 28.5264 114.185 28.5058 114.46 28.5406C114.736 28.5753 115.002 28.6648 115.242 28.8038C115.483 28.9427 115.693 29.1283 115.861 29.3496C116.029 29.571 116.151 29.8237 116.22 30.0928C116.289 30.3619 116.303 30.6421 116.262 30.9169C116.222 31.1917 116.126 31.4555 115.982 31.6929Z" fill="#D2F7FF"/>
<path d="M138.761 33.8559H138.414V29.8486C138.414 28.516 138.298 27.5214 136.704 26.8841L136.83 26.5654C138.626 27.28 138.761 28.4291 138.761 29.8486V33.8559Z" fill="#1958DB"/>
<path d="M107.581 54.0764C107.188 54.048 106.806 53.94 106.456 53.7588C106.107 53.5776 105.798 53.3271 105.549 53.0225C105.299 52.718 105.114 52.3658 105.006 51.9875C104.897 51.6092 104.866 51.2127 104.916 50.8222C105.264 48.891 107.929 51.6333 107.929 51.6333L107.581 54.0764Z" fill="#FDA8A1"/>
<path d="M136.415 58.5276H122.838L123.205 87.4965H125.793C125.793 87.4965 127.724 72.9058 128.496 64.8428H130.293L130.833 87.4965H133.421C133.421 87.4965 136.482 64.7462 136.405 60.3623C136.441 59.7513 136.444 59.1389 136.415 58.5276Z" fill="#FF645F"/>
<path d="M136.415 58.528H122.838L121.148 40.4901C120.993 39.0223 122.413 37.7573 124.219 37.7573H135.034C136.839 37.7573 138.259 39.0223 138.104 40.4901L136.415 58.528Z" fill="#823024"/>
<path d="M129.559 39.6691C131.963 39.6691 131.953 38.0372 131.953 37.6413V34.9858C131.953 34.3774 131.055 34.4257 130.515 34.4257H128.796C128.265 34.4257 127.367 34.9182 127.367 35.5169V37.6606C127.371 37.9388 127.432 38.2131 127.547 38.4669C127.661 38.7206 127.825 38.9485 128.031 39.1364C128.236 39.3244 128.477 39.4686 128.74 39.5602C129.003 39.6517 129.281 39.6888 129.559 39.6691Z" fill="#F7958D"/>
<path d="M125.87 34.4259C126.555 36.7628 128.516 36.4055 130.853 35.7199C131.939 35.3564 132.841 34.5858 133.371 33.5701C133.9 32.5545 134.015 31.3731 133.691 30.2746C133.367 29.176 132.629 28.2461 131.633 27.6804C130.638 27.1147 129.461 26.9574 128.352 27.2416C126.015 27.9369 125.175 32.0891 125.87 34.4259Z" fill="#FDA8A1"/>
<path d="M130.737 29.4237C130.737 29.4237 130.737 30.988 130.949 30.988C131.23 30.8921 131.533 30.8813 131.82 30.9569C132.107 31.0325 132.365 31.1911 132.562 31.4129C133.151 32.166 132.504 32.9192 131.809 33.0834C131.113 33.2475 131.596 35.0726 133.257 34.7539C134.918 34.4353 135.517 30.5052 134.657 28.9601C133.798 27.4151 131.055 25.7832 130.09 25.8894C129.124 25.9957 122.732 29.4333 122.732 29.4333L130.737 29.4237Z" fill="#E8C079"/>
<path d="M136.994 38.3557C136.994 38.3557 143.271 45.0475 145.482 47.1526C146.699 48.321 145.482 49.1901 144.787 50.0495C142.855 52.4732 136.579 56.8089 136.579 56.8089L136.926 53.1106L140.712 48.688C140.712 48.688 135.391 44.584 135.217 44.2847C134.734 43.4736 135.13 39.9297 135.13 39.9297L136.994 38.3557Z" fill="#823024"/>
<path d="M130.911 87.4873H133.547V89.5151H128.197C127.85 89.5151 127.724 88.7137 128.033 88.5495L130.911 87.4873Z" fill="#112256"/>
<path d="M135.536 56.6351C135.225 56.5786 134.95 56.4019 134.769 56.1433C134.588 55.8847 134.517 55.5652 134.57 55.2543L134.783 53.1202C134.783 52.705 135.459 52.8305 135.864 52.8595L136.965 53.1492L136.617 56.8089C136.617 56.8089 135.797 56.6641 135.536 56.6351Z" fill="#FDA8A1"/>
<path d="M121.505 39.0801C120.347 41.0693 117.15 49.4413 116.619 49.9627C116.088 50.4842 108.431 51.1215 107.697 51.1215C106.963 51.1215 107.262 53.6032 107.581 54.0184C107.9 54.4336 118.367 54.984 119.757 53.6611C120.52 52.9658 124.344 46.6506 124.972 43.8117C125.6 40.9727 121.505 39.0801 121.505 39.0801Z" fill="#823024"/>
<path d="M104.481 60.9806L103.197 60.0826L101.884 60.9806V51.5271H104.481V60.9806Z" fill="#0E97CD"/>
<path d="M87.4475 48.5337C88.4131 47.568 93.1254 43.6476 94.0621 44.9029C94.9987 46.1582 91.7349 47.317 92.0149 49.3158C92.295 51.3147 94.6994 50.4263 97.2197 50.4263C99.74 50.4263 102.26 50.8995 100.686 53.4198C99.1123 55.9401 87.7662 54.8392 87.7662 54.8392L87.4475 48.5337Z" fill="#FDA8A1"/>
<path d="M46.0121 68.3867H38.1326V84.4548H46.0121V68.3867Z" fill="#2A2873"/>
<path d="M3.30246 70.2796H72.0168C72.8731 70.2977 73.7017 69.9755 74.3208 69.3835C74.9399 68.7916 75.299 67.9783 75.3192 67.122V3.1489C75.3092 2.72533 75.2158 2.30787 75.0444 1.9204C74.873 1.53293 74.6269 1.18303 74.3202 0.890687C74.0135 0.598348 73.6522 0.369303 73.257 0.216638C72.8618 0.063973 72.4403 -0.0093199 72.0168 0.000947102H3.30246C2.87889 -0.0093199 2.45744 0.063973 2.06221 0.216638C1.66697 0.369303 1.30569 0.598348 0.999001 0.890687C0.692315 1.18303 0.446235 1.53293 0.274823 1.9204C0.10341 2.30787 0.010024 2.72533 0 3.1489L0 67.122C0.0202628 67.9783 0.379317 68.7916 0.998413 69.3835C1.61751 69.9755 2.4461 70.2977 3.30246 70.2796Z" fill="#2A2873"/>
<path d="M123.166 87.4873H125.802V89.5151H120.453C120.105 89.5151 119.98 88.7137 120.289 88.5495L123.166 87.4873Z" fill="#112256"/>
<path d="M7.08761 70.2796H75.7922C76.6486 70.2977 77.4772 69.9755 78.0963 69.3835C78.7154 68.7916 79.0744 67.9783 79.0947 67.122V3.1489C79.0847 2.72533 78.9913 2.30787 78.8199 1.9204C78.6485 1.53293 78.4024 1.18303 78.0957 0.890687C77.789 0.598348 77.4277 0.369303 77.0325 0.216638C76.6373 0.063973 76.2158 -0.0093199 75.7922 0.000947102H7.08761C6.66404 -0.0093199 6.2426 0.063973 5.84736 0.216638C5.45213 0.369303 5.09084 0.598348 4.78416 0.890687C4.47747 1.18303 4.23139 1.53293 4.05998 1.9204C3.88857 2.30787 3.79518 2.72533 3.78516 3.1489V67.122C3.80542 67.9783 4.16447 68.7916 4.78357 69.3835C5.40266 69.9755 6.23126 70.2977 7.08761 70.2796Z" fill="#1958DB"/>
<path d="M72.6444 3.46753H12.7657C11.1124 3.46753 9.77222 4.80775 9.77222 6.46099V63.8195C9.77222 65.4727 11.1124 66.8129 12.7657 66.8129H72.6444C74.2977 66.8129 75.6379 65.4727 75.6379 63.8195V6.46099C75.6379 4.80775 74.2977 3.46753 72.6444 3.46753Z" fill="#B3E3EF"/>
<path d="M55.9393 40.4993C57.8706 40.6538 64.4465 40.9724 65.3928 51.9999C66.3391 63.0274 66.3585 74.6826 66.3585 74.6826L53.7473 76.6139L55.9393 40.4993Z" fill="#C62222"/>
<path d="M51.6807 39.3889H34.5021C28.6731 39.3889 23.9478 44.1143 23.9478 49.9433V70.5884C23.9478 76.4175 28.6731 81.1428 34.5021 81.1428H51.6807C57.5097 81.1428 62.235 76.4175 62.235 70.5884V49.9433C62.235 44.1143 57.5097 39.3889 51.6807 39.3889Z" fill="#DA3F3A"/>
<path d="M36.4042 83.1997H51.8543C52.5053 83.1432 53.1523 83.3458 53.6549 83.7634C54.1575 84.181 54.4751 84.78 54.5387 85.4303V87.2747C54.475 87.9258 54.1578 88.5257 53.6555 88.9448C53.1532 89.364 52.5063 89.5688 51.8543 89.515H36.4042C35.7522 89.5688 35.1052 89.364 34.603 88.9448C34.1007 88.5257 33.7834 87.9258 33.7197 87.2747V85.4303C33.7834 84.78 34.101 84.181 34.6036 83.7634C35.1062 83.3458 35.7532 83.1432 36.4042 83.1997Z" fill="#1958DB"/>
<path d="M48.5326 68.3867H40.6531V84.4548H48.5326V68.3867Z" fill="#1958DB"/>
<path d="M49.3823 40.8086C49.3823 40.8086 48.6387 42.8557 45.1045 42.7398C43.3257 42.6484 41.6275 41.9691 40.2764 40.8086V29.4624H49.3823V40.8086Z" fill="#F7958D"/>
<path d="M42.0727 36.0189C47.4319 39.8814 50.9951 35.8258 54.819 30.4569C56.6539 27.8805 57.3903 24.6807 56.866 21.5614C56.3418 18.4421 54.5999 15.6588 52.0235 13.8239C49.4471 11.9889 46.2473 11.2526 43.128 11.7768C40.0087 12.3011 37.2255 14.043 35.3905 16.6194C31.5666 21.9883 36.6941 32.195 42.0727 36.0189Z" fill="#FDA8A1"/>
<path d="M38.7603 14.4854C38.7603 17.0057 51.6804 25.2039 57.0396 21.4187C62.3989 17.6334 61.1339 9.76351 51.0527 8.86547C40.9715 7.96743 38.7603 14.4854 38.7603 14.4854Z" fill="#FF645F"/>
<path d="M36.5589 28.6801C35.294 28.3614 28.9884 20.4819 34.3476 15.1613C39.7069 9.84064 42.5459 11.9747 43.4535 15.451C44.3612 18.9272 39.591 17.9616 36.8679 21.5827C35.1395 23.9195 36.5589 28.6801 36.5589 28.6801Z" fill="#FF645F"/>
<path d="M28.5249 45.3858C29.896 42.8365 32.7736 41.137 38.606 43.8118C44.4384 46.4866 58.2953 49.7987 60.3521 49.9629C62.4088 50.127 87.6022 46.0231 88.3553 46.9694C89.1085 47.9157 89.7748 56.1043 88.674 56.2588C87.5732 56.4133 64.2532 61.1449 58.2566 60.6717C52.2601 60.1986 41.2808 57.6686 34.0386 54.0765C26.7964 50.4843 27.4144 47.4329 28.5249 45.3858Z" fill="#EA4949"/>
<path d="M109.667 46.0132H92.6521C91.8682 46.0132 91.2327 46.6487 91.2327 47.4327V50.1075C91.2327 50.8914 91.8682 51.5269 92.6521 51.5269H109.667C110.451 51.5269 111.086 50.8914 111.086 50.1075V47.4327C111.086 46.6487 110.451 46.0132 109.667 46.0132Z" fill="#D4E4E8"/>
<path d="M104.481 46.0132H101.884V51.5559H104.481V46.0132Z" fill="#0C5A9A"/>
<path d="M111.241 50.4262C111.241 50.5766 111.211 50.7254 111.152 50.8639C111.093 51.0024 111.007 51.1277 110.899 51.2322C110.791 51.3367 110.663 51.4184 110.522 51.4724C110.382 51.5263 110.232 51.5515 110.082 51.5463C109.934 51.5476 109.787 51.5195 109.65 51.4638C109.513 51.4081 109.389 51.3258 109.284 51.2216C109.179 51.1175 109.095 50.9936 109.038 50.8571C108.981 50.7205 108.952 50.5741 108.952 50.4262V47.1334C108.952 46.9854 108.981 46.839 109.038 46.7025C109.095 46.5659 109.179 46.442 109.284 46.3379C109.389 46.2337 109.513 46.1514 109.65 46.0957C109.787 46.04 109.934 46.012 110.082 46.0132C110.379 46.0132 110.664 46.1312 110.874 46.3413C111.084 46.5514 111.202 46.8363 111.202 47.1334L111.241 50.4262Z" fill="#ADC3C9"/>
<path d="M135.459 26.4593L126.507 24.1128L126.923 28.1298L133.808 29.7617L135.459 26.4593Z" fill="#29266B"/>
<path d="M130.553 27.9851L124.721 23.9005L132.118 22.51L137.854 27.1161L130.553 27.9851Z" fill="#1958DB"/>
<path d="M137.515 35.4397L138.587 33.0449L139.669 35.4397H137.515Z" fill="#29266B"/>
</svg>
