<svg width="12" height="10" viewBox="0 0 12 10" fill="none" xmlns="http://www.w3.org/2000/svg">
<g clip-path="url(#clip0)">
<path d="M7.04005 5.96993C7.04137 6.38857 7.20826 6.78968 7.50428 7.08571C7.8003 7.38173 8.20142 7.54861 8.62005 7.54993C8.68596 7.54865 8.7488 7.5219 8.79541 7.47529C8.84202 7.42868 8.86877 7.36584 8.87005 7.29993C8.87005 7.23363 8.84371 7.17004 8.79683 7.12316C8.74995 7.07627 8.68636 7.04993 8.62005 7.04993C8.35713 7.04574 8.10476 6.94577 7.91029 6.76876C7.71583 6.59176 7.59262 6.34988 7.56378 6.08851C7.53494 5.82713 7.60246 5.56422 7.75366 5.34907C7.90486 5.13393 8.12936 4.98134 8.38505 4.91993C8.44846 4.90443 8.50351 4.86519 8.53886 4.81031C8.57421 4.75543 8.58716 4.68908 8.57505 4.62493C8.50383 4.28641 8.30979 3.98625 8.03036 3.78232C7.75092 3.57839 7.40588 3.48513 7.06176 3.52054C6.71765 3.55594 6.39882 3.7175 6.16677 3.97406C5.93471 4.23061 5.80586 4.564 5.80505 4.90993C5.80505 4.97624 5.83139 5.03983 5.87828 5.08671C5.92516 5.13359 5.98875 5.15993 6.05505 5.15993C6.12136 5.15993 6.18495 5.13359 6.23183 5.08671C6.27871 5.03983 6.30505 4.97624 6.30505 4.90993C6.30306 4.70766 6.36965 4.51068 6.49396 4.35111C6.61828 4.19153 6.79298 4.07877 6.98959 4.03121C7.1862 3.98366 7.39312 4.0041 7.57662 4.08922C7.76012 4.17434 7.90938 4.31911 8.00005 4.49993C7.71299 4.6231 7.46872 4.82833 7.29792 5.08987C7.12712 5.3514 7.03741 5.65758 7.04005 5.96993Z" fill="#0047AA"/>
<path d="M7.35495 1.75C6.58225 1.75132 5.84157 2.05886 5.29519 2.60524C4.74881 3.15163 4.44127 3.8923 4.43995 4.665C4.43864 5.22787 4.60202 5.77883 4.90995 6.25L6.80995 9.185C6.95479 9.41128 7.16948 9.58415 7.42144 9.6774C7.67341 9.77065 7.94891 9.7792 8.20616 9.70174C8.46342 9.62428 8.6884 9.46504 8.84699 9.24817C9.00558 9.0313 9.08912 8.76863 9.08495 8.5C9.08495 8.4337 9.05861 8.37011 9.01173 8.32322C8.96484 8.27634 8.90125 8.25 8.83495 8.25C8.76864 8.25 8.70506 8.27634 8.65817 8.32322C8.61129 8.37011 8.58495 8.4337 8.58495 8.5C8.5861 8.65952 8.53531 8.81509 8.44026 8.94321C8.34521 9.07133 8.21106 9.16504 8.05806 9.21021C7.90506 9.25537 7.74152 9.24954 7.59214 9.19358C7.44275 9.13762 7.31562 9.03457 7.22995 8.9L5.32495 6C5.08273 5.63489 4.94441 5.21077 4.92479 4.77307C4.90517 4.33537 5.005 3.90057 5.21358 3.51526C5.42216 3.12995 5.73164 2.80864 6.10885 2.58576C6.48607 2.36287 6.91682 2.24681 7.35495 2.25C7.7191 2.24764 8.07783 2.33824 8.39719 2.51323C8.71655 2.68822 8.98597 2.94181 9.17995 3.25C9.21979 3.30274 9.27854 3.33795 9.34384 3.34821C9.40913 3.35847 9.47585 3.34298 9.52995 3.305C9.57369 3.26895 9.60357 3.21885 9.61451 3.16323C9.62545 3.10762 9.61677 3.04993 9.58995 3C9.35372 2.61945 9.02473 2.30512 8.63381 2.08649C8.24289 1.86785 7.80285 1.75207 7.35495 1.75Z" fill="#0047AA"/>
<path d="M3.82005 6.25C3.854 6.25016 3.8876 6.24311 3.91863 6.22932C3.94966 6.21552 3.97741 6.19531 4.00005 6.17C4.02333 6.14719 4.04182 6.11996 4.05445 6.08991C4.06708 6.05986 4.07358 6.02759 4.07358 5.995C4.07358 5.9624 4.06708 5.93014 4.05445 5.90009C4.04182 5.87004 4.02333 5.84281 4.00005 5.82C3.65715 5.48846 3.45942 5.03468 3.45005 4.55781C3.44068 4.08094 3.62044 3.61975 3.95005 3.275C3.97562 3.252 3.99617 3.22397 4.01042 3.19267C4.02466 3.16137 4.0323 3.12746 4.03284 3.09307C4.03339 3.05868 4.02683 3.02455 4.01358 2.99281C4.00034 2.96107 3.98068 2.93241 3.95585 2.90861C3.93102 2.88482 3.90155 2.8664 3.86927 2.85452C3.837 2.84263 3.80262 2.83753 3.76829 2.83954C3.73395 2.84154 3.7004 2.85061 3.66973 2.86618C3.63906 2.88174 3.61193 2.90347 3.59005 2.93C3.16805 3.36977 2.93786 3.95907 2.95005 4.56845C2.96223 5.17782 3.2158 5.75745 3.65505 6.18C3.69923 6.22333 3.75818 6.24834 3.82005 6.25Z" fill="#0047AA"/>
<path d="M3.07999 2.61997C3.10557 2.59697 3.12612 2.56894 3.14037 2.53764C3.15461 2.50634 3.16225 2.47243 3.16279 2.43804C3.16334 2.40365 3.15678 2.36952 3.14353 2.33778C3.13028 2.30605 3.11063 2.27738 3.0858 2.25359C3.06097 2.22979 3.03149 2.21137 2.99922 2.19949C2.96695 2.1876 2.93257 2.1825 2.89823 2.18451C2.8639 2.18652 2.83035 2.19558 2.79968 2.21115C2.76901 2.22671 2.74188 2.24844 2.71999 2.27497C2.14178 2.87119 1.8189 3.66942 1.81999 4.49997C1.8177 4.90136 1.89721 5.299 2.05366 5.66865C2.21012 6.03829 2.44024 6.37219 2.72999 6.64997C2.75181 6.67295 2.77822 6.69106 2.80752 6.70312C2.83681 6.71519 2.86833 6.72093 2.89999 6.71997C2.93353 6.72045 2.96682 6.71405 2.99778 6.70115C3.02874 6.68825 3.05672 6.66913 3.07999 6.64497C3.10343 6.62173 3.12203 6.59408 3.13472 6.56361C3.14741 6.53315 3.15394 6.50047 3.15394 6.46747C3.15394 6.43447 3.14741 6.40179 3.13472 6.37132C3.12203 6.34086 3.10343 6.31321 3.07999 6.28997C2.83832 6.05891 2.64628 5.78102 2.51561 5.47325C2.38494 5.16549 2.31838 4.83432 2.31999 4.49997C2.31838 3.79815 2.59112 3.1235 3.07999 2.61997Z" fill="#0047AA"/>
</g>
<defs>
<clipPath id="clip0">
<rect width="12" height="10" fill="white"/>
</clipPath>
</defs>
</svg>
