<svg width="187" height="137" viewBox="0 0 187 137" fill="none" xmlns="http://www.w3.org/2000/svg">
<g clip-path="url(#clip0)">
<path d="M49.626 78.1491C49.5571 78.1551 49.4878 78.1551 49.4189 78.1491L38.7256 77.0104L37.3645 72.4912L49.6615 74.8338L61.497 71.6431L62.1953 74.2526L50.1468 78.0957C49.9775 78.1431 49.8014 78.1611 49.626 78.1491Z" fill="#FCA89E"/>
<path d="M42.3885 72.8233L40.4652 78.161L36.7844 76.5063C36.4814 76.3704 36.2088 76.175 35.9826 75.9316C35.7564 75.6882 35.5813 75.4018 35.4676 75.0893C35.3539 74.7768 35.304 74.4446 35.3208 74.1124C35.3376 73.7802 35.4207 73.4548 35.5653 73.1554C36.0802 72.0938 36.7489 71.3465 37.9324 71.6431L42.3885 72.8233Z" fill="#2B79E6"/>
<path d="M46.4482 126.491L46.5903 121.918H50.1587L49.9693 126.491H46.4482Z" fill="#FCA89E"/>
<path d="M25.174 133.139L26.7422 127.659L23.4401 127.006L21.292 133.139H25.174Z" fill="#FCA89E"/>
<path d="M40.0452 95.6094L41.1163 99.8914L28.192 100.449C28.192 100.449 27.115 96.7184 28.5293 95.1527C30.4585 93.0117 40.0452 95.6094 40.0452 95.6094Z" fill="#2F3D6E"/>
<path d="M31.6716 99.9742L46.4659 107.583L46.1937 124.415L50.3361 124.296L52.2771 106.801C52.3224 106.444 52.2729 106.082 52.1337 105.751C51.9944 105.419 51.7704 105.131 51.4842 104.915L40.3233 96.7183L31.6716 99.9742Z" fill="#2F3D6E"/>
<path d="M28.2452 99.7075L27.7244 112.542L21.5286 131.312H26.387L33.938 113.52C34.0641 113.216 34.1496 112.897 34.1925 112.571L36.6128 97.3589L28.2452 99.7075Z" fill="#2F3D6E"/>
<path d="M51.1896 122.986L45.4495 123.017L45.4603 125.022L51.2004 124.991L51.1896 122.986Z" fill="#6072A6"/>
<path d="M27.4997 129.735L21.4813 129.391L21.0967 131.36L27.115 131.704L27.4997 129.735Z" fill="#6072A6"/>
<path d="M46.4481 126.491L45.9629 129.403C45.9629 129.607 46.0439 129.803 46.1882 129.948C46.3325 130.092 46.5282 130.174 46.7322 130.174H54.1471C54.2323 130.174 54.3168 130.158 54.3958 130.126C54.4747 130.094 54.5465 130.047 54.607 129.986C54.6676 129.926 54.7156 129.855 54.7484 129.776C54.7812 129.697 54.7981 129.613 54.7981 129.527C54.7978 129.427 54.7748 129.329 54.7307 129.24C54.6866 129.15 54.6226 129.072 54.5436 129.011L49.9751 126.497L46.4481 126.491Z" fill="#222C38"/>
<path d="M21.3037 133.139L20.4338 136.045C20.4338 136.25 20.5149 136.446 20.6592 136.59C20.8034 136.735 20.9991 136.816 21.2031 136.816H29.3459C29.5186 136.816 29.6841 136.747 29.8062 136.625C29.9283 136.503 29.9969 136.337 29.9969 136.164C29.9971 136.065 29.9742 135.967 29.93 135.879C29.8858 135.79 29.8216 135.713 29.7424 135.654L25.1739 133.139H21.3037Z" fill="#222C38"/>
<path d="M31.4348 72.1531C27.8013 74.2644 27.9196 77.2594 27.6001 81.0077L25.3987 95.7159C32.3875 98.2305 40.6605 95.2177 40.6605 95.2177V76.951C40.6605 75.2252 38.7491 71.2338 36.2873 71.2872C36.2873 71.2872 34.3818 70.445 31.4348 72.1531Z" fill="#6484F1"/>
<path d="M34.4767 72.8233H35.1099C35.5029 72.8202 35.8789 72.6624 36.1568 72.3839C36.4346 72.1054 36.5921 71.7285 36.5952 71.3347L36.6426 64.9473H33.015L32.9736 71.305C32.9704 71.5043 33.007 71.7021 33.0813 71.887C33.1556 72.0719 33.266 72.24 33.406 72.3814C33.5461 72.5229 33.713 72.6349 33.8968 72.7107C34.0807 72.7866 34.2778 72.8249 34.4767 72.8233Z" fill="#FCA89E"/>
<path d="M43.9271 85.0821C43.6427 85.0814 43.3627 85.0122 43.1105 84.8804L34.1511 81.4228L33.2161 75.6641L44.2644 81.5236L55.6442 80.9306L55.9697 83.6705L44.1343 85.0821H43.9271Z" fill="#FCA89E"/>
<path d="M39.406 77.6926L36.098 83.3268L31.5591 79.7091C31.2704 79.4986 31.0271 79.2319 30.8438 78.9248C30.6604 78.6178 30.5409 78.2768 30.4922 77.9224C30.4436 77.5679 30.4669 77.2073 30.5608 76.862C30.6546 76.5168 30.8171 76.1942 31.0384 75.9134C31.4148 75.4269 31.9484 75.0868 32.5477 74.9515C33.1469 74.8162 33.7745 74.8942 34.3227 75.1721L39.406 77.6926Z" fill="#6484F1"/>
<path d="M36.6662 82.3957L36.1218 83.3268L31.6716 80.9189" stroke="#2B79E6" stroke-width="0.71" stroke-miterlimit="10"/>
<path d="M38.8853 78.5937L39.4061 77.6922L33.3049 74.4185" stroke="#2B79E6" stroke-width="0.71" stroke-miterlimit="10"/>
<path d="M32.9736 68.5474C32.9736 68.5474 33.9678 71.0324 36.6012 70.8366V68.8854L32.9736 68.5474Z" fill="#DC9B85"/>
<path d="M39.9091 60.25C39.9091 60.25 43.655 60.6948 40.2345 64.5557L39.2522 61.9225L39.9091 60.25Z" fill="#3B3142"/>
<path d="M36.098 69.9825C37.2265 69.9809 38.3085 69.5313 39.107 68.7322C39.9055 67.933 40.3556 66.8493 40.3588 65.7183V61.5668C40.3572 61.0749 40.1616 60.6037 39.8145 60.2559C39.4675 59.9081 38.9973 59.712 38.5065 59.7104H33.7309C33.2401 59.712 32.7699 59.9081 32.4229 60.2559C32.0759 60.6037 31.8802 61.0749 31.8787 61.5668V65.7183C31.8817 66.8421 32.3261 67.9196 33.1157 68.7176C33.9053 69.5156 34.9767 69.97 36.098 69.9825Z" fill="#FCA89E"/>
<path d="M32.5475 64.556C32.9097 64.3567 33.2284 64.0867 33.4848 63.7619C33.7412 63.4372 33.9302 63.0643 34.0405 62.6652C34.1508 62.2661 34.1802 61.8489 34.1271 61.4382C34.0739 61.0276 33.9393 60.6317 33.731 60.274H31.3639C31.1368 60.2372 30.9039 60.2675 30.6937 60.3612C30.4835 60.455 30.3051 60.6081 30.1804 60.8019C29.6596 61.4957 30.9379 64.556 30.9379 64.556H32.5475Z" fill="#3B3142"/>
<path d="M33.9085 60.695C33.9085 60.695 40.7909 62.6937 41.9093 59.5741C43.0928 56.241 39.5422 55.648 37.9089 55.7607C33.8434 56.0335 29.5886 58.0677 31.6716 61.0212L33.9085 60.695Z" fill="#3B3142"/>
<path d="M29.991 65.1014C29.991 65.4041 30.0805 65.6999 30.2483 65.9515C30.416 66.2032 30.6545 66.3993 30.9335 66.5151C31.2125 66.6309 31.5194 66.6612 31.8156 66.6022C32.1118 66.5431 32.3838 66.3974 32.5973 66.1834C32.8109 65.9694 32.9563 65.6968 33.0152 65.3999C33.0741 65.1031 33.0439 64.7955 32.9283 64.5159C32.8127 64.2363 32.6171 63.9973 32.366 63.8292C32.1149 63.661 31.8197 63.5713 31.5177 63.5713C31.317 63.5705 31.1181 63.6096 30.9326 63.6862C30.747 63.7628 30.5783 63.8755 30.4364 64.0177C30.2945 64.16 30.1821 64.329 30.1056 64.515C30.0292 64.7009 29.9902 64.9003 29.991 65.1014Z" fill="#FCA89E"/>
<path d="M111.312 99.1739C112.489 99.1755 113.652 99.424 114.727 99.9033C114.727 99.9033 116.407 100.823 117.763 100.23V80.5098C117.76 79.6074 117.401 78.7427 116.765 78.104C116.128 77.4653 115.266 77.1043 114.366 77.0997H95.3522C94.6599 75.7119 95.6304 73.9623 95.6304 73.9623C96.2038 72.6701 96.446 71.2548 96.3349 69.845C96.2238 68.4352 95.7629 67.0755 94.9942 65.8896C94.2254 64.7037 93.1731 63.7291 91.9329 63.0545C90.6928 62.3798 89.304 62.0264 87.8929 62.0264C86.4818 62.0264 85.0931 62.3798 83.8529 63.0545C82.6128 63.7291 81.5605 64.7037 80.7917 65.8896C80.023 67.0755 79.5621 68.4352 79.451 69.845C79.3399 71.2548 79.5821 72.6701 80.1555 73.9623C80.1555 73.9623 81.126 75.7415 80.4337 77.0997H61.4082C60.5046 77.0996 59.6379 77.4585 58.9979 78.0977C58.3579 78.7369 57.9968 79.6043 57.9937 80.5098V133.59C57.9944 134.039 58.0834 134.483 58.2554 134.897C58.4274 135.311 58.6791 135.687 58.9962 136.004C59.3133 136.32 59.6895 136.571 60.1033 136.742C60.5172 136.913 60.9606 137.001 61.4082 137H114.366C114.814 137.001 115.258 136.913 115.672 136.742C116.086 136.57 116.463 136.319 116.78 136.002C117.097 135.684 117.349 135.307 117.52 134.893C117.692 134.478 117.78 134.033 117.78 133.584V115.098C116.407 114.505 114.727 115.418 114.727 115.418C113.574 115.928 112.323 116.174 111.064 116.138C109.804 116.102 108.569 115.784 107.448 115.209C106.326 114.633 105.348 113.813 104.583 112.81C103.818 111.807 103.286 110.645 103.026 109.41C102.766 108.174 102.785 106.896 103.081 105.669C103.377 104.441 103.943 103.296 104.737 102.316C105.531 101.335 106.533 100.545 107.671 100.003C108.808 99.46 110.052 99.1789 111.312 99.1798V99.1739Z" fill="#FF645F"/>
<path d="M174.253 77.1827H155.802C155.21 78.5586 156.121 80.2429 156.121 80.2429C156.602 81.3214 156.85 82.4896 156.849 83.6709C156.853 84.9365 156.575 86.187 156.034 87.3308C155.494 88.4747 154.705 89.4829 153.726 90.2816C152.746 91.0804 151.601 91.6495 150.373 91.9472C149.146 92.245 147.867 92.2638 146.632 92.0024C145.396 91.741 144.235 91.2059 143.232 90.4364C142.229 89.6669 141.411 88.6824 140.837 87.555C140.264 86.4275 139.949 85.1858 139.916 83.9206C139.883 82.6554 140.132 81.3989 140.646 80.2429C140.646 80.2429 141.581 78.5586 140.966 77.1827H121.313C120.408 77.1842 119.541 77.5453 118.901 78.1867C118.261 78.8281 117.9 79.6976 117.899 80.6047V100.23C116.514 100.923 114.768 99.9567 114.768 99.9567C113.48 99.3862 112.07 99.147 110.666 99.2607C109.263 99.3744 107.909 99.8375 106.729 100.608C105.549 101.378 104.58 102.432 103.908 103.673C103.237 104.913 102.886 106.303 102.886 107.714C102.886 109.126 103.237 110.515 103.908 111.756C104.58 112.997 105.549 114.05 106.729 114.82C107.909 115.591 109.263 116.054 110.666 116.167C112.07 116.281 113.48 116.042 114.768 115.471C114.768 115.471 116.514 114.505 117.899 115.199V133.697C117.9 134.603 118.261 135.472 118.901 136.113C119.541 136.753 120.409 137.113 121.313 137.113H174.277C175.181 137.113 176.048 136.753 176.687 136.112C177.326 135.472 177.685 134.603 177.685 133.697V80.6166C177.687 80.1647 177.599 79.717 177.427 79.2992C177.255 78.8815 177.002 78.5021 176.683 78.1828C176.364 77.8636 175.985 77.6108 175.568 77.4391C175.151 77.2675 174.704 77.1803 174.253 77.1827Z" fill="#FCA89E"/>
<path d="M62.0415 77.0996H80.4811C81.1025 75.7237 80.1675 74.0394 80.1675 74.0394C79.5982 72.7483 79.3595 71.3353 79.473 69.9284C79.5865 68.5216 80.0485 67.1653 80.8172 65.9826C81.5859 64.7999 82.637 63.8282 83.8752 63.1556C85.1134 62.483 86.4995 62.1307 87.9078 62.1307C89.3162 62.1307 90.7023 62.483 91.9405 63.1556C93.1787 63.8282 94.2298 64.7999 94.9985 65.9826C95.7672 67.1653 96.2292 68.5216 96.3427 69.9284C96.4561 71.3353 96.2174 72.7483 95.6482 74.0394C95.6482 74.0394 94.7132 75.7237 95.3287 77.0996H114.999C115.905 77.0996 116.773 76.7391 117.414 76.0974C118.054 75.4556 118.414 74.5852 118.414 73.6776V54.0825C119.804 53.3886 121.544 54.3612 121.544 54.3612C122.832 54.9317 124.242 55.1709 125.646 55.0572C127.05 54.9435 128.403 54.4804 129.583 53.71C130.763 52.9396 131.733 51.8862 132.404 50.6453C133.075 49.4044 133.427 48.0153 133.427 46.6038C133.427 45.1923 133.075 43.8032 132.404 42.5623C131.733 41.3214 130.763 40.268 129.583 39.4976C128.403 38.7272 127.05 38.2641 125.646 38.1504C124.242 38.0367 122.832 38.2759 121.544 38.8464C121.544 38.8464 119.804 39.819 118.414 39.1251V20.6213C118.414 19.7137 118.054 18.8433 117.414 18.2015C116.773 17.5598 115.905 17.1992 114.999 17.1992H62.0415C61.1359 17.1992 60.2674 17.5598 59.627 18.2015C58.9867 18.8433 58.627 19.7137 58.627 20.6213V73.6954C58.6316 74.5999 58.9935 75.4657 59.6333 76.1037C60.2731 76.7416 61.139 77.0997 62.0415 77.0996Z" fill="#FCA89E"/>
<path d="M55.2478 83.291C56.1118 84.3052 58.5618 84.2221 59.6329 83.291C59.8876 83.0874 60.0998 82.8354 60.2571 82.5494C60.4144 82.2634 60.5138 81.9491 60.5495 81.6245C60.5853 81.2999 60.5567 80.9714 60.4654 80.658C60.3741 80.3445 60.2219 80.0522 60.0175 79.7978C59.1535 78.7836 57.2421 78.8904 56.171 79.7978C55.0999 80.7052 54.3898 82.2828 55.2478 83.291Z" fill="#FCA89E"/>
</g>
<defs>
<clipPath id="clip0">
<rect width="187" height="137" fill="white"/>
</clipPath>
</defs>
</svg>
