<svg width="165" height="121" viewBox="0 0 165 121" fill="none" xmlns="http://www.w3.org/2000/svg">
<g clip-path="url(#clip0)">
<path d="M43.7876 69.0223C43.7268 69.0277 43.6657 69.0277 43.6049 69.0223L34.1696 68.0166L32.9686 64.0252L43.8189 66.0942L54.262 63.2761L54.8781 65.5809L44.2471 68.9752C44.0977 69.017 43.9423 69.0329 43.7876 69.0223Z" fill="#FCA89E"/>
<path d="M37.4017 64.3184L35.7047 69.0327L32.4569 67.5713C32.1896 67.4513 31.949 67.2787 31.7495 67.0637C31.5499 66.8487 31.3954 66.5958 31.2951 66.3198C31.1948 66.0438 31.1507 65.7504 31.1655 65.457C31.1803 65.1636 31.2537 64.8762 31.3813 64.6118C31.8355 63.6742 32.4256 63.0142 33.4699 63.2761L37.4017 64.3184Z" fill="#2B79E6"/>
<path d="M40.9838 111.718L41.1091 107.679H44.2577L44.0906 111.718H40.9838Z" fill="#FCA89E"/>
<path d="M22.2123 117.59L23.596 112.75L20.6824 112.174L18.787 117.59H22.2123Z" fill="#FCA89E"/>
<path d="M35.334 84.4432L36.2791 88.2251L24.8753 88.7175C24.8753 88.7175 23.925 85.4227 25.173 84.0398C26.8752 82.1489 35.334 84.4432 35.334 84.4432Z" fill="#2F3D6E"/>
<path d="M27.9456 88.2984L40.9994 95.0189L40.7592 109.885L44.4142 109.78L46.1269 94.3275C46.1668 94.0126 46.1232 93.6928 46.0003 93.4003C45.8774 93.1078 45.6797 92.853 45.4272 92.6618L35.5794 85.4227L27.9456 88.2984Z" fill="#2F3D6E"/>
<path d="M24.9223 88.0628L24.4628 99.398L18.9958 115.977H23.2827L29.9454 100.262C30.0566 99.9941 30.1321 99.7123 30.1699 99.4242L32.3055 85.9885L24.9223 88.0628Z" fill="#2F3D6E"/>
<path d="M45.1673 108.622L40.1025 108.65L40.1121 110.42L45.1769 110.393L45.1673 108.622Z" fill="#6072A6"/>
<path d="M24.2644 114.583L18.9541 114.279L18.6147 116.018L23.925 116.322L24.2644 114.583Z" fill="#6072A6"/>
<path d="M40.9837 111.718L40.5555 114.29C40.5555 114.47 40.6271 114.644 40.7544 114.771C40.8817 114.899 41.0543 114.971 41.2343 114.971H47.7769C47.8521 114.971 47.9267 114.957 47.9963 114.929C48.066 114.9 48.1293 114.858 48.1827 114.805C48.2361 114.752 48.2785 114.689 48.3075 114.62C48.3364 114.55 48.3513 114.475 48.3513 114.4C48.3511 114.312 48.3307 114.225 48.2918 114.146C48.2529 114.067 48.1964 113.998 48.1268 113.944L44.0957 111.723L40.9837 111.718Z" fill="#222C38"/>
<path d="M18.7975 117.59L18.0299 120.157C18.0299 120.337 18.1014 120.51 18.2287 120.638C18.356 120.766 18.5287 120.838 18.7087 120.838H25.8935C26.0458 120.838 26.1919 120.777 26.2997 120.669C26.4074 120.561 26.4679 120.414 26.4679 120.261C26.4681 120.174 26.4479 120.088 26.4089 120.009C26.3699 119.931 26.3132 119.863 26.2434 119.811L22.2123 117.59H18.7975Z" fill="#222C38"/>
<path d="M27.7367 63.7266C24.5307 65.5913 24.6351 68.2366 24.3532 71.547L22.4108 84.5375C28.5774 86.7585 35.8771 84.0975 35.8771 84.0975V67.9642C35.8771 66.4399 34.1905 62.9147 32.0184 62.9618C32.0184 62.9618 30.337 62.218 27.7367 63.7266Z" fill="#6484F1"/>
<path d="M30.4205 64.3185H30.9793C31.326 64.3158 31.6578 64.1764 31.903 63.9304C32.1482 63.6844 32.2871 63.3516 32.2899 63.0037L32.3316 57.3623H29.1308L29.0943 62.9775C29.0915 63.1535 29.1238 63.3283 29.1893 63.4916C29.2549 63.6548 29.3523 63.8033 29.4759 63.9283C29.5994 64.0532 29.7467 64.1521 29.9089 64.2191C30.0711 64.2861 30.2451 64.3199 30.4205 64.3185Z" fill="#FCA89E"/>
<path d="M38.7593 75.1456C38.5084 75.145 38.2612 75.0839 38.0387 74.9675L30.1333 71.9137L29.3083 66.8275L39.0569 72.0027L49.0979 71.4789L49.3851 73.8989L38.942 75.1456H38.7593Z" fill="#FCA89E"/>
<path d="M34.7702 68.619L31.8514 73.5951L27.8465 70.3999C27.5917 70.214 27.377 69.9784 27.2153 69.7073C27.0535 69.4361 26.948 69.1349 26.9051 68.8219C26.8622 68.5088 26.8828 68.1903 26.9656 67.8854C27.0484 67.5805 27.1917 67.2955 27.387 67.0475C27.7191 66.6178 28.1899 66.3174 28.7187 66.198C29.2475 66.0785 29.8012 66.1474 30.2849 66.3928L34.7702 68.619Z" fill="#6484F1"/>
<path d="M32.3525 72.7727L31.8721 73.5951L27.9456 71.4684" stroke="#2B79E6" stroke-width="0.71" stroke-miterlimit="10"/>
<path d="M34.3106 69.415L34.7701 68.6188L29.3867 65.7274" stroke="#2B79E6" stroke-width="0.71" stroke-miterlimit="10"/>
<path d="M29.0944 60.5419C29.0944 60.5419 29.9716 62.7366 32.2952 62.5638V60.8404L29.0944 60.5419Z" fill="#DC9B85"/>
<path d="M35.214 53.2136C35.214 53.2136 38.5192 53.6065 35.5012 57.0165L34.6344 54.6908L35.214 53.2136Z" fill="#3B3142"/>
<path d="M31.8512 61.8094C32.847 61.8081 33.8016 61.411 34.5062 60.7051C35.2108 59.9993 35.608 59.0422 35.6107 58.0433V54.3766C35.6094 53.9422 35.4367 53.526 35.1305 53.2188C34.8243 52.9116 34.4094 52.7384 33.9764 52.7371H29.7626C29.3296 52.7384 28.9147 52.9116 28.6085 53.2188C28.3023 53.526 28.1297 53.9422 28.1283 54.3766V58.0433C28.131 59.0359 28.5231 59.9875 29.2198 60.6923C29.9165 61.3971 30.8618 61.7984 31.8512 61.8094Z" fill="#FCA89E"/>
<path d="M28.7183 57.0165C29.0379 56.8405 29.3191 56.602 29.5454 56.3152C29.7716 56.0284 29.9383 55.699 30.0357 55.3466C30.133 54.9941 30.159 54.6256 30.1121 54.2629C30.0652 53.9002 29.9464 53.5506 29.7626 53.2346H27.674C27.4736 53.2021 27.2681 53.2289 27.0826 53.3117C26.8972 53.3945 26.7398 53.5297 26.6297 53.7008C26.1702 54.3137 27.2981 57.0165 27.2981 57.0165H28.7183Z" fill="#3B3142"/>
<path d="M29.9193 53.6065C29.9193 53.6065 35.9919 55.3718 36.9788 52.6165C38.0231 49.6727 34.8902 49.1489 33.449 49.2484C29.8619 49.4894 26.1076 51.2861 27.9456 53.8946L29.9193 53.6065Z" fill="#3B3142"/>
<path d="M26.4627 57.4984C26.4627 57.7657 26.5417 58.027 26.6897 58.2492C26.8377 58.4715 27.0481 58.6447 27.2943 58.747C27.5404 58.8493 27.8113 58.876 28.0726 58.8239C28.3339 58.7717 28.574 58.643 28.7624 58.454C28.9508 58.265 29.0791 58.0242 29.1311 57.7621C29.183 57.4999 29.1564 57.2282 29.0544 56.9812C28.9524 56.7343 28.7798 56.5232 28.5582 56.3747C28.3367 56.2262 28.0762 56.147 27.8098 56.147C27.6327 56.1463 27.4572 56.1808 27.2935 56.2484C27.1297 56.3161 26.9809 56.4156 26.8557 56.5413C26.7305 56.6669 26.6313 56.8162 26.5638 56.9804C26.4963 57.1447 26.462 57.3207 26.4627 57.4984Z" fill="#FCA89E"/>
<path d="M98.2168 87.5914C99.2549 87.5929 100.281 87.8123 101.23 88.2357C101.23 88.2357 102.713 89.0476 103.908 88.5238V71.1072C103.905 70.3101 103.589 69.5464 103.028 68.9823C102.466 68.4182 101.706 68.0994 100.911 68.0953H84.1343C83.5234 66.8695 84.3798 65.3243 84.3798 65.3243C84.8858 64.183 85.0995 62.933 85.0014 61.6879C84.9034 60.4427 84.4967 59.2418 83.8184 58.1944C83.1401 57.147 82.2116 56.2863 81.1173 55.6904C80.0231 55.0945 78.7977 54.7823 77.5526 54.7823C76.3075 54.7823 75.0822 55.0945 73.9879 55.6904C72.8936 56.2863 71.9652 57.147 71.2868 58.1944C70.6085 59.2418 70.2019 60.4427 70.1038 61.6879C70.0058 62.933 70.2195 64.183 70.7255 65.3243C70.7255 65.3243 71.5818 66.8957 70.9709 68.0953H54.1837C53.3865 68.0952 52.6217 68.4122 52.057 68.9768C51.4923 69.5413 51.1737 70.3074 51.1709 71.1072V117.988C51.1716 118.384 51.2501 118.777 51.4018 119.142C51.5536 119.508 51.7757 119.84 52.0555 120.12C52.3353 120.4 52.6672 120.621 53.0324 120.772C53.3975 120.923 53.7888 121.001 54.1837 121H100.911C101.306 121.001 101.698 120.923 102.064 120.772C102.429 120.621 102.761 120.398 103.041 120.118C103.321 119.838 103.543 119.505 103.694 119.139C103.846 118.772 103.924 118.38 103.924 117.983V101.656C102.713 101.132 101.23 101.939 101.23 101.939C100.213 102.389 99.1085 102.607 97.9973 102.575C96.8862 102.543 95.7961 102.262 94.8068 101.753C93.8175 101.245 92.9538 100.521 92.2789 99.6351C91.6039 98.749 91.1347 97.723 90.9055 96.6318C90.6763 95.5406 90.6928 94.4118 90.9539 93.3278C91.215 92.2438 91.7141 91.232 92.4147 90.3662C93.1153 89.5004 93.9998 88.8025 95.0036 88.3233C96.0074 87.8442 97.1051 87.5959 98.2168 87.5967V87.5914Z" fill="#FF645F"/>
<path d="M153.753 68.1684H137.472C136.95 69.3836 137.754 70.8712 137.754 70.8712C138.179 71.8238 138.397 72.8555 138.396 73.8989C138.4 75.0167 138.154 76.1211 137.677 77.1314C137.201 78.1416 136.505 79.0321 135.64 79.7376C134.776 80.443 133.765 80.9456 132.682 81.2086C131.599 81.4716 130.471 81.4882 129.381 81.2573C128.291 81.0265 127.266 80.5539 126.381 79.8742C125.497 79.1946 124.775 78.325 124.268 77.3293C123.762 76.3336 123.484 75.2368 123.455 74.1194C123.426 73.002 123.646 71.8922 124.1 70.8712C124.1 70.8712 124.925 69.3836 124.382 68.1684H107.041C106.243 68.1698 105.477 68.4886 104.912 69.0551C104.348 69.6216 104.03 70.3896 104.028 71.1908V88.5236C102.807 89.1365 101.266 88.2827 101.266 88.2827C100.129 87.7788 98.8854 87.5675 97.6468 87.668C96.4082 87.7684 95.2141 88.1774 94.1728 88.8578C93.1316 89.5382 92.2761 90.4686 91.6839 91.5646C91.0917 92.6606 90.7816 93.8875 90.7816 95.1341C90.7816 96.3807 91.0917 97.6076 91.6839 98.7036C92.2761 99.7996 93.1316 100.73 94.1728 101.41C95.2141 102.091 96.4082 102.5 97.6468 102.6C98.8854 102.701 100.129 102.489 101.266 101.986C101.266 101.986 102.807 101.132 104.028 101.745V118.082C104.03 118.883 104.348 119.65 104.913 120.216C105.477 120.782 106.243 121.099 107.041 121.099H153.774C154.571 121.099 155.336 120.781 155.9 120.216C156.464 119.65 156.781 118.882 156.781 118.082V71.2012C156.783 70.8021 156.705 70.4067 156.554 70.0378C156.402 69.6688 156.179 69.3337 155.897 69.0517C155.616 68.7698 155.281 68.5465 154.913 68.3949C154.545 68.2433 154.151 68.1663 153.753 68.1684Z" fill="#FCA89E"/>
<path d="M54.7424 68.0952H71.0127C71.5609 66.88 70.7359 65.3923 70.7359 65.3923C70.2337 64.2521 70.0231 63.0041 70.1232 61.7615C70.2233 60.5189 70.631 59.3211 71.3093 58.2765C71.9875 57.2319 72.915 56.3737 74.0075 55.7797C75.1 55.1856 76.323 54.8745 77.5657 54.8745C78.8084 54.8745 80.0314 55.1856 81.1239 55.7797C82.2164 56.3737 83.1439 57.2319 83.8221 58.2765C84.5004 59.3211 84.9081 60.5189 85.0082 61.7615C85.1083 63.0041 84.8977 64.2521 84.3954 65.3923C84.3954 65.3923 83.5704 66.88 84.1135 68.0952H101.47C102.269 68.0952 103.035 67.7768 103.6 67.21C104.165 66.6431 104.483 65.8744 104.483 65.0728V47.7661C105.71 47.1533 107.245 48.0123 107.245 48.0123C108.381 48.5162 109.626 48.7275 110.864 48.627C112.103 48.5266 113.297 48.1176 114.338 47.4372C115.379 46.7568 116.235 45.8264 116.827 44.7304C117.419 43.6344 117.729 42.4075 117.729 41.1609C117.729 39.9143 117.419 38.6874 116.827 37.5914C116.235 36.4954 115.379 35.565 114.338 34.8846C113.297 34.2042 112.103 33.7952 110.864 33.6948C109.626 33.5943 108.381 33.8056 107.245 34.3095C107.245 34.3095 105.71 35.1685 104.483 34.5557V18.2128C104.483 17.4112 104.165 16.6425 103.6 16.0757C103.035 15.5089 102.269 15.1904 101.47 15.1904H54.7424C53.9434 15.1904 53.1771 15.5089 52.612 16.0757C52.047 16.6425 51.7296 17.4112 51.7296 18.2128V65.0885C51.7338 65.8874 52.053 66.6521 52.6176 67.2155C53.1821 67.7789 53.9461 68.0952 54.7424 68.0952Z" fill="#FCA89E"/>
<path d="M48.7481 73.5637C49.5104 74.4594 51.6721 74.3861 52.6172 73.5637C52.842 73.3839 53.0292 73.1613 53.168 72.9087C53.3068 72.6561 53.3945 72.3785 53.4261 72.0918C53.4576 71.8052 53.4324 71.515 53.3518 71.2382C53.2712 70.9613 53.1369 70.7031 52.9566 70.4785C52.1943 69.5828 50.5077 69.677 49.5626 70.4785C48.6175 71.2799 47.9909 72.6732 48.7481 73.5637Z" fill="#FCA89E"/>
</g>
<defs>
<clipPath id="clip0">
<rect width="165" height="121" fill="white"/>
</clipPath>
</defs>
</svg>
