<svg width="41" height="42" viewBox="0 0 41 42" fill="none" xmlns="http://www.w3.org/2000/svg">
<path d="M2.36791 30.9968L1.87653 31.3346L2.74427 32.6006L3.2246 32.282L2.36791 30.9968Z" fill="#FCA89E"/>
<path d="M1.87701 31.3344C1.87701 31.3344 2.35011 32.0037 2.55081 32.2777C2.7515 32.5516 3.03209 32.52 2.88482 32.7026C2.73754 32.8852 2.35541 33.6936 2.37514 34.0635C2.39487 34.4334 2.64851 36.7947 2.18263 36.9794C1.71674 37.1641 1.28214 36.156 0.832143 34.6851C0.382144 33.2142 0.0139664 33.2842 9.21605e-06 32.219C-0.00480361 31.8875 1.87701 31.3344 1.87701 31.3344Z" fill="#2A2873"/>
<path d="M36.3874 39.7245H33.5498V41.6111H36.3874V39.7245Z" fill="#D1C0BA"/>
<path d="M4.97837 41.6111H7.81601V39.7246H4.97837V41.6111Z" fill="#D1C0BA"/>
<path d="M14.9799 24.8167C14.9799 24.8167 11.4968 29.1646 10.4077 29.5272C8.26213 30.2411 3.04407 32.4011 3.04407 32.4011L2.27402 31.0614C2.27402 31.0614 5.6324 28.8055 6.88952 28.0262C8.43636 27.0669 9.40952 27.0119 9.99331 25.6432C10.3841 24.7274 11.2995 21.5355 11.2995 21.5355L14.9799 24.8167Z" fill="#FCA89E"/>
<path d="M26.2511 36.098L26.5783 36.623L27.7392 35.6513L27.4307 35.1381L26.2511 36.098Z" fill="#FCA89E"/>
<path d="M16.9638 22.0882C16.9638 22.0882 16.8098 22.3377 16.5345 22.7414C16.3805 22.9671 16.189 23.2405 15.9656 23.5461C15.9031 23.6312 15.8381 23.7194 15.7707 23.8097C15.6172 24.0172 15.4512 24.231 15.274 24.4535C15.1778 24.5729 15.0815 24.6943 14.9809 24.8167C14.9463 24.8121 11.9349 24.3778 10.5671 23.5056C10.8596 22.8173 11.0907 22.1005 11.2573 21.3649C11.5994 19.7695 12.1664 17.883 12.6963 17.2894C13.14 16.7908 16.9638 22.0882 16.9638 22.0882Z" fill="#2B79E6"/>
<path d="M24.8491 12.4844C24.8491 12.4844 25.0686 11.8037 25.1047 11.7009C25.1408 11.5982 25.3742 11.4213 25.6582 11.2433C25.9421 11.0653 26.3998 10.9616 26.4504 10.9886C26.5009 11.0155 26.5644 11.0176 26.6342 11.1546C26.6773 11.2457 26.6978 11.3472 26.6939 11.4493C26.6939 11.4493 26.8542 11.5748 26.8277 11.7679C26.871 11.8094 26.9019 11.8639 26.9165 11.9244C26.9311 11.9849 26.9286 12.0487 26.9095 12.1077C26.9095 12.1077 27.0491 12.2338 26.9903 12.3853C26.9903 12.3853 26.7574 12.5632 26.6886 12.6556C26.6198 12.7479 26.111 13.0821 25.5778 13.3213C25.5778 13.3213 24.9983 13.6097 24.8491 12.4844Z" fill="#FCA89E"/>
<path d="M25.7184 12.073C25.7184 12.073 25.741 12.4336 25.7001 12.54C25.6592 12.6463 26.3951 12.8331 26.3951 12.8331C26.3951 12.8331 26.1251 12.0533 25.7184 12.073Z" fill="#CF8C6C"/>
<path d="M24.619 12.7432C24.619 12.7432 24.8746 12.4838 24.9872 12.2581C25.0998 12.0324 25.608 13.2205 25.608 13.2205C25.608 13.2205 24.9737 13.2485 24.6936 13.4602C24.4135 13.6719 24.619 12.7432 24.619 12.7432Z" fill="#FCA89E"/>
<path d="M26.3743 11.0322C26.3743 11.0322 25.6649 11.5023 25.7212 11.6351C25.7332 11.6709 25.7533 11.7028 25.7797 11.728C25.8061 11.7532 25.838 11.7709 25.8724 11.7794L25.662 12.1161C25.662 12.1161 25.6394 12.4232 25.9566 12.3605C25.9566 12.3605 25.9085 12.6453 26.2073 12.5446C26.2073 12.5446 26.2531 12.748 26.3998 12.7283C26.5466 12.7086 26.9909 12.3854 26.9909 12.3854C26.9909 12.3854 27.0563 12.2717 26.91 12.1078C26.9297 12.0488 26.9324 11.9849 26.9178 11.9242C26.9032 11.8636 26.872 11.8091 26.8282 11.7679C26.8282 11.7679 26.8624 11.5972 26.6944 11.4494C26.6944 11.4494 26.7425 11.0623 26.4509 10.9886C26.4504 10.9886 26.4042 11.012 26.3743 11.0322Z" fill="#DB9C7C"/>
<path d="M25.1259 11.6833C25.1259 11.6833 25.6953 11.6356 26.0173 11.757C26.0899 11.784 26.1559 11.825 26.1616 11.9085C26.1674 11.992 26.0587 12.1031 25.8127 12.1373C25.5668 12.1715 25.2636 12.3371 25.2636 12.3371C25.2636 12.3371 24.9998 12.293 25.1259 11.6833Z" fill="#FCA89E"/>
<path d="M18.1015 8.03589L19.94 13.0458C19.94 13.0458 20.0314 13.74 21.3742 13.271C22.7444 12.7921 24.9511 12.1695 24.9511 12.1695C24.9511 12.1695 25.585 13.2528 25.4228 13.3545C24.954 13.6497 21.1336 15.4989 19.5579 15.9617C18.3065 16.3296 15.9165 9.43469 15.9165 9.43469L18.1015 8.03589Z" fill="#FCA89E"/>
<path d="M20.2125 21.4879C20.2125 21.4879 23.5059 25.263 23.5632 26.4901C23.6204 27.7171 27.5578 35.3472 27.5578 35.3472L26.3767 36.2972C26.3767 36.2972 22.2108 30.3684 21.4768 29.0194C20.6586 27.5148 20.8738 27.1801 19.5964 26.3531C18.7951 25.8342 16.9638 24.7219 16.9638 24.7219L20.2125 21.4879Z" fill="#FCA89E"/>
<path d="M17.8768 18.4962C17.8768 18.4962 19.4597 20.5067 21.0051 22.4321C21.0051 22.4321 18.4288 23.9222 17.0322 24.7617C17.0322 24.7617 11.8425 20.9877 11.4873 19.6387C11.3107 18.973 17.8768 18.4962 17.8768 18.4962Z" fill="#2B79E6"/>
<path d="M19.3302 15.4621C18.8326 16.7909 18.1174 18.3614 18.4254 19.1915C18.4254 19.1915 16.5393 19.7986 11.0416 20.1254C11.0416 20.1254 12.4046 17.8789 13.5924 15.3941C13.654 15.2644 13.7156 15.1347 13.7762 15.004C14.4361 13.5839 15.0131 12.1213 15.2273 10.9814C15.2726 10.7386 15.1845 10.4921 15.184 10.255C15.183 9.94792 15.2044 9.64121 15.248 9.33772C15.4028 8.24898 15.8456 7.23149 16.5234 6.40731C16.6158 6.29559 16.7121 6.1894 16.8122 6.08874C17.0916 5.80219 17.4041 5.55562 17.742 5.3551C18.2766 5.67351 18.7611 6.08098 19.1777 6.56244C19.2662 6.66621 20.507 8.66894 20.6379 10.6478C20.7953 13.0682 20.0358 13.5792 19.3302 15.4621Z" fill="#FF645F"/>
<path d="M26.5249 36.5374C26.5249 36.5374 27.1679 36.015 27.4307 35.7945C27.6935 35.5739 27.6641 35.2652 27.8379 35.4271C28.0116 35.589 28.7792 36.0191 29.1315 35.9978C29.4838 35.9766 31.7377 35.7114 31.911 36.2282C32.0842 36.745 31.1207 37.2207 29.7153 37.7105C28.31 38.2003 28.374 38.6066 27.3571 38.6175C27.0428 38.6237 26.5249 36.5374 26.5249 36.5374Z" fill="#2A2873"/>
<path d="M21.7453 2.08071C21.7453 2.08071 22.0047 3.13499 21.741 3.22216C21.5229 3.29272 21.7342 4.31587 21.7554 4.47983C21.7766 4.64378 21.3516 4.64845 21.2448 4.72316C21.1379 4.79787 20.622 5.9165 20.2822 5.86773C19.9424 5.81895 18.5809 4.8757 18.2767 4.31691C17.9725 3.75812 18.0967 1.61894 18.5597 0.826672C19.0227 0.0344034 21.2828 0.23675 21.7453 2.08071Z" fill="#FCA89E"/>
<path d="M19.5584 5.19992C19.5584 5.19992 19.5377 5.2985 19.5102 5.45156C19.4886 5.56466 19.4621 5.70683 19.4347 5.86092C19.362 6.27859 19.2903 6.7829 19.309 7.02105C19.3466 7.4657 17.7425 5.3535 17.7425 5.3535C17.9629 4.3876 18.1013 3.40205 18.1559 2.40908C18.2377 0.79756 19.5584 5.19992 19.5584 5.19992Z" fill="#FCA89E"/>
<path d="M21.8002 2.29909C21.8002 2.29909 22.4937 1.42381 21.7944 0.451504C21.0951 -0.520803 19.2056 0.379385 19.0145 0.383017C18.8234 0.386648 17.7993 0.197272 17.871 2.26381C17.9427 4.33035 17.9923 4.00556 17.9923 4.00556C17.9923 4.00556 18.4124 3.1474 18.7546 3.14999C19.1262 3.14999 19.7268 3.21744 19.7268 3.21744C19.7268 3.21744 19.6161 2.26433 20.121 2.26381C20.6258 2.26329 21.3603 1.97897 21.8002 2.29909Z" fill="#421504"/>
<path d="M19.3298 2.58396C19.3144 2.45321 19.3298 2.04126 18.8485 2.2379C18.3672 2.43454 18.7859 3.43901 18.8547 3.47014C18.9236 3.50127 19.4597 3.68494 19.3298 2.58396Z" fill="#FCA89E"/>
<path d="M19.5079 5.45162C19.4862 5.56472 19.4597 5.70689 19.4323 5.86098C19.0361 5.44608 18.6842 4.98473 18.3831 4.48553C18.6136 4.81967 19.5079 5.45162 19.5079 5.45162Z" fill="#A77860"/>
<path d="M15.7702 23.8097C15.6166 24.0172 15.4506 24.231 15.2735 24.4536C14.4125 23.5347 13.3445 21.8075 13.3445 21.8075C13.9904 22.4088 15.7702 23.8097 15.7702 23.8097Z" fill="#1B1C2E"/>
<path d="M18.2546 9.68484L13.744 12.0046C13.744 12.0046 13.1077 12.1504 13.6333 13.5611C14.1699 15.0024 14.7624 17.2936 14.7624 17.2936C14.7624 17.2936 13.9375 18.0885 13.8321 17.9214C13.5274 17.4374 11.5551 13.4547 11.0189 11.7913C10.5935 10.4719 16.8107 7.42944 16.8107 7.42944L18.2546 9.68484Z" fill="#FCA89E"/>
<path d="M18.5366 8.0359C18.5366 8.0359 19.491 9.80774 16.2154 10.9845L15.6172 7.9451C15.6172 7.9451 17.6838 6.05134 18.5366 8.0359Z" fill="#FF556F"/>
<path d="M17.7401 5.35352C17.7401 5.35352 20.9782 12.2115 20.5763 10.0584C20.1248 7.64057 19.7716 7.43043 19.3379 6.48355L17.7401 5.35352Z" fill="#FCA89E"/>
<path d="M41.0001 38.8234H0.365829V40.8551H41.0001V38.8234Z" fill="#2B79E6"/>
<path d="M39.1125 40.5527L30.2617 26.3816L38.1898 10.7874L39.1048 11.328L31.4817 26.3214L39.9783 39.9244L39.1125 40.5527Z" fill="#2B79E6"/>
<path d="M35.0354 19.082H25.0575C24.7962 19.082 24.5844 19.3103 24.5844 19.592V20.0231C24.5844 20.3048 24.7962 20.5332 25.0575 20.5332H35.0354C35.2967 20.5332 35.5085 20.3048 35.5085 20.0231V19.592C35.5085 19.3103 35.2967 19.082 35.0354 19.082Z" fill="#0559CE"/>
<path d="M34.5918 20.4206L34.2318 20.2058C34.0373 20.0899 33.8935 19.8954 33.8321 19.6652C33.7706 19.435 33.7965 19.1879 33.904 18.9782L39.0008 9.04243C39.054 8.93858 39.1257 8.84706 39.2117 8.77309C39.2977 8.69911 39.3965 8.64415 39.5022 8.61133C39.608 8.57852 39.7187 8.5685 39.828 8.58184C39.9374 8.59518 40.0432 8.63163 40.1395 8.6891L40.499 8.90338C40.5954 8.96074 40.6803 9.038 40.7489 9.13076C40.8175 9.22351 40.8685 9.32993 40.8989 9.44394C40.9294 9.55794 40.9387 9.6773 40.9263 9.79519C40.9139 9.91307 40.8801 10.0272 40.8268 10.131L35.7305 20.0673C35.6228 20.2768 35.4424 20.4317 35.2289 20.498C35.0154 20.5642 34.7863 20.5364 34.5918 20.4206Z" fill="#0559CE"/>
<path d="M14.4683 19.662C14.4683 19.662 14.3365 19.5489 14.3013 19.469C14.3013 19.469 14.2474 19.3191 14.2051 19.2148C14.1906 19.1816 14.1776 19.153 14.1675 19.1354C14.1252 19.0627 14.0116 18.9164 13.9548 18.7105C13.898 18.5045 13.7296 17.7402 13.7296 17.7402L14.3389 17.5223L14.7287 17.1591C14.7287 17.1591 15.6634 18.0494 15.7365 18.2347C15.7435 18.2516 15.7496 18.2689 15.7548 18.2866C15.8029 18.45 15.775 18.5932 15.7909 18.6819C15.7967 18.7146 15.8333 19.0451 15.7702 19.1146C15.7376 19.1569 15.6956 19.1895 15.6482 19.2095C15.6007 19.2295 15.5493 19.2361 15.4988 19.2288C15.4988 19.2288 15.3192 19.4156 15.1518 19.4301C15.1518 19.4301 14.991 19.6086 14.7778 19.5629C14.7759 19.5639 14.5944 19.7253 14.4683 19.662Z" fill="#FCA89E"/>
</svg>
