<svg width="43" height="43" viewBox="0 0 43 43" fill="none" xmlns="http://www.w3.org/2000/svg">
<g clip-path="url(#clip0)">
<path d="M39.1389 22.0416C39.4383 12.3 31.7837 4.16009 22.042 3.86075C12.3003 3.56141 4.16046 11.216 3.86113 20.9577C3.56179 30.6994 11.2163 38.8392 20.958 39.1386C30.6997 39.4379 38.8396 31.7833 39.1389 22.0416Z" fill="#819FDE"/>
<path d="M36.7026 36.7028C45.0989 28.3065 45.0989 14.6935 36.7026 6.2972C28.3063 -2.09907 14.6933 -2.09907 6.297 6.2972C-2.09928 14.6935 -2.09928 28.3065 6.297 36.7028C14.6933 45.0991 28.3063 45.0991 36.7026 36.7028Z" fill="#FFEFE9"/>
<path d="M19.6571 22.9959C19.6571 22.9959 15.0539 22.9959 13.4423 23.803C11.8308 24.61 11.0263 26.6791 11.3707 28.0618C11.7151 29.4446 9.87483 32.899 11.8231 34.7367C13.5811 36.392 14.9665 36.1889 15.5653 35.9627C15.6322 35.937 15.6913 35.9113 15.7375 35.8882C16.1976 35.6569 15.7375 41.9874 15.7375 41.9874C15.7375 41.9874 27.3627 42.6788 28.0541 41.9874C28.7455 41.296 28.9742 26.7947 27.3627 25.1832C25.7512 23.5716 21.261 22.9959 21.261 22.9959H19.6571Z" fill="#6DAAA3"/>
<path d="M19.2562 18.9093L19.084 22.9959L22.8597 25.5019C22.8942 25.5218 22.933 25.5333 22.9728 25.5357C23.0126 25.538 23.0524 25.531 23.089 25.5153C23.1257 25.4996 23.1582 25.4756 23.184 25.4452C23.2097 25.4147 23.2281 25.3787 23.2375 25.34L23.8595 22.0167L20.1763 17.5291L19.2562 18.9093Z" fill="#FCA89E"/>
<g style="mix-blend-mode:multiply" opacity="0.45">
<path d="M18.9685 21.5C18.9685 21.5 19.5442 21.9601 19.9965 21.5C19.9965 21.5 22.6439 25.9902 24.9442 25.1832C27.2446 24.3761 22.5282 20.693 22.5282 20.693L20.1251 18.8707L18.7371 19.8988L18.9685 21.5Z" fill="#FCA89E"/>
</g>
<path d="M19.485 17.4134C21.3279 17.2977 21.5566 14.306 21.5566 13.9616C21.5566 13.6171 24.4353 12.6944 25.1267 13.0388C25.8181 13.3833 25.9568 15.478 25.9903 15.6296C27.0004 15.0179 27.8871 12.8307 27.427 11.543C26.8513 9.93143 26.1625 10.5149 25.7024 10.8516C25.2423 11.1883 25.2397 9.58702 22.8237 8.20424C20.4077 6.82145 23.1681 9.81577 20.3049 9.58702C17.4417 9.35827 17.1846 12.2344 17.1846 12.2344C15.6862 12.2344 14.6504 13.5015 15.8019 14.766C16.9533 16.0306 16.0332 16.1488 15.8019 17.2977C15.6811 17.8992 16.8454 18.1536 17.9866 18.2616C18.157 18.0171 18.3801 17.814 18.6394 17.6672C18.8987 17.5204 19.1877 17.4337 19.485 17.4134Z" fill="#2B79E6"/>
<path d="M22.4793 19.1405C24.5972 20.0607 26.566 18.994 27.2677 18.5288C26.7536 17.7192 26.3167 16.9044 26.2756 16.1488C26.2582 15.8023 26.2092 15.4582 26.1291 15.1207L26.1599 15.1027C26.1265 14.9511 25.7821 13.3729 25.1318 13.0465C24.4816 12.7201 21.5566 13.6222 21.5566 13.9615C21.5566 14.234 21.4101 16.1796 20.4257 17.0252C20.8101 17.97 21.5464 18.7284 22.4793 19.1405Z" fill="#FCA89E"/>
<path d="M27.2677 18.5289C26.566 18.9941 24.5972 20.071 22.4794 19.1406C21.5455 18.729 20.8081 17.9705 20.4232 17.0253C20.1626 17.2573 19.8309 17.3942 19.4825 17.4134C19.1865 17.4348 18.8991 17.5221 18.6412 17.6688C18.3832 17.8155 18.1614 18.0181 17.9918 18.2616C18.6813 18.3228 19.3737 18.3468 20.0659 18.3335C20.6417 24.8953 27.5479 24.4353 28.6993 22.7029C29.4473 21.59 28.2316 20.0479 27.2677 18.5289Z" fill="#2E5271"/>
<path d="M15.7897 19.4141L21.0762 19.7078L21.2271 16.9927L15.9405 16.699L15.7897 19.4141Z" fill="#112256"/>
<path d="M15.5731 21.5565C15.5731 21.5565 15.5731 17.989 16.1488 17.5289C16.7245 17.0689 18.1048 15.3417 18.7962 15.8017C19.4876 16.2618 19.1406 16.4931 19.6006 16.7219C20.0607 16.9506 19.832 17.2976 20.1764 17.5289C20.5208 17.7603 20.9809 18.6804 20.7521 18.6804H19.724C19.724 18.6804 18.1125 21.6722 17.4108 21.5565L17.2951 22.0166H15.5731V21.5565Z" fill="#FCA89E"/>
<path d="M17.2412 21.9601C17.2412 21.9601 17.4725 33.3565 16.4341 34.0402C15.3957 34.7239 12.6379 33.9271 13.2136 31.6242C13.7894 29.3212 15.861 20.9191 15.861 20.9191L17.2412 21.9601Z" fill="#FCA89E"/>
<path d="M22.536 19.8884C22.536 19.8884 24.5485 20.4924 25.4686 20.2894C25.4852 20.2848 25.5027 20.285 25.5192 20.2898C25.5358 20.2947 25.5506 20.304 25.5621 20.3169C25.5735 20.3297 25.5812 20.3454 25.5842 20.3624C25.5873 20.3793 25.5855 20.3968 25.5791 20.4128C25.4544 20.7267 25.3606 21.0521 25.299 21.3843C25.299 21.6156 23.2274 21.2686 22.536 19.8884Z" fill="#EFFDFF"/>
<path d="M24.7925 16.4341C24.7925 16.4341 27.481 18.0508 26.751 18.7473C26.0211 19.4438 25.4659 19.3333 25.4659 19.3333C25.4659 19.3333 24.5175 16.8453 24.7925 16.4341Z" fill="#FB8E83"/>
<path d="M22.5359 17.0098C22.5262 16.8619 22.567 16.7151 22.6515 16.5934C22.6991 16.5273 22.7606 16.4723 22.8316 16.4324C22.9026 16.3924 22.9815 16.3684 23.0628 16.3621C23.2173 16.3567 23.3699 16.3989 23.4997 16.4829C23.5581 16.524 23.6139 16.5686 23.6668 16.6165C23.7157 16.6684 23.7612 16.7233 23.803 16.781C23.7355 16.7626 23.6694 16.7394 23.6051 16.7116C23.5434 16.6859 23.4791 16.6705 23.4226 16.6474C23.3117 16.6098 23.1953 16.5907 23.0782 16.5908C22.9704 16.5987 22.8682 16.6421 22.7878 16.7142C22.6909 16.801 22.6062 16.9004 22.5359 17.0098Z" fill="#F7958D"/>
<path d="M26.2755 15.8995C26.2302 15.7914 26.1508 15.7012 26.0494 15.6424C25.9917 15.6106 25.9279 15.5916 25.8623 15.5868C25.7966 15.5819 25.7307 15.5912 25.669 15.6142C25.5536 15.6626 25.4564 15.7463 25.3914 15.8532C25.3621 15.9036 25.3363 15.956 25.3143 16.01C25.2958 16.0637 25.2812 16.1187 25.2706 16.1745C25.3133 16.1386 25.3537 16.1 25.3914 16.0588C25.4274 16.0177 25.4685 15.9843 25.5045 15.9457C25.5711 15.8795 25.6496 15.8263 25.7358 15.7889C25.8192 15.7611 25.9094 15.7611 25.9928 15.7889C26.0911 15.8145 26.186 15.8516 26.2755 15.8995Z" fill="#F7958D"/>
<path d="M21.9344 16.118C21.9679 15.9325 22.0426 15.7568 22.1529 15.6039C22.4485 15.1875 22.924 15.1361 23.3969 15.2312C23.6154 15.2749 23.6539 14.9331 23.4457 14.8894C23.1786 14.8135 22.8956 14.8136 22.6285 14.8899C22.3615 14.9662 22.1211 15.1156 21.9344 15.3212C21.7537 15.5431 21.6357 15.8094 21.5926 16.0923C21.5865 16.1376 21.5986 16.1835 21.6263 16.2199C21.654 16.2563 21.695 16.2802 21.7404 16.2863C21.7857 16.2925 21.8316 16.2803 21.868 16.2526C21.9044 16.2249 21.9283 16.1839 21.9344 16.1385V16.118Z" fill="#2E5271"/>
<path d="M24.885 14.6863C25.0149 14.5973 25.1635 14.5392 25.3194 14.5167C25.7332 14.4576 26.0339 14.712 26.2447 15.0436C26.3423 15.1978 26.5711 15.0307 26.4734 14.8791C26.3677 14.6783 26.2079 14.511 26.0122 14.3961C25.8165 14.2812 25.5925 14.2233 25.3657 14.2288C25.1341 14.2462 24.9113 14.3252 24.7205 14.4576C24.6935 14.4806 24.6762 14.5129 24.6719 14.5481C24.6677 14.5833 24.6768 14.6188 24.6975 14.6476C24.7182 14.6764 24.749 14.6964 24.7837 14.7036C24.8185 14.7107 24.8546 14.7046 24.885 14.6863Z" fill="#2E5271"/>
</g>
<defs>
<clipPath id="clip0">
<rect width="43" height="43" fill="white"/>
</clipPath>
</defs>
</svg>
