<svg width="47" height="44" viewBox="0 0 47 44" fill="none" xmlns="http://www.w3.org/2000/svg">
<path d="M33.0935 9.49866H34.8585V10.492H36.0719L37.3956 13.5824" stroke="#B3E3EF"/>
<path d="M33.6451 7.07043H38.8297L37.2854 7.73267C38.6827 7.73267 41.4331 7.73267 41.2566 7.73267C41.0801 7.73267 40.227 8.3949 39.8226 8.72601L44.235 12.3683" stroke="#B3E3EF"/>
<path d="M32.4316 4.86301L39.4915 1.7726L38.609 3.7593L45.9999 1" stroke="#B3E3EF"/>
<path d="M21.9867 13.534L21.4817 12.6559C21.3347 12.3991 20.7469 12.2238 20.0887 12.2167C20.157 13.0026 20.6165 13.6404 21.2291 14.1493C21.8004 14.0346 22.1305 13.7873 21.9867 13.534Z" fill="#2B79E6"/>
<path d="M29.7076 6.70123V9.74449C30.2512 9.62254 30.6667 8.98968 30.6667 8.22286C30.6667 7.45559 30.2512 6.82318 29.7076 6.70123Z" fill="#4396CA"/>
<path d="M29.1806 3.35174C29.1135 3.31569 29.0316 3.31792 28.9671 3.35975C28.9293 3.38468 25.1409 5.80931 21.84 5.85381C21.7256 5.85559 21.634 5.94906 21.634 6.06299V10.3826C21.634 10.497 21.7261 10.59 21.84 10.5918C25.1382 10.6377 28.9293 13.0623 28.9671 13.0863C29.0018 13.109 29.041 13.1197 29.0805 13.1197C29.1148 13.1197 29.1491 13.1112 29.1806 13.0943C29.2478 13.0574 29.2896 12.9871 29.2896 12.9105V3.5351C29.2896 3.45856 29.2478 3.38824 29.1806 3.35174ZM27.6847 5.87829C25.7392 6.94463 23.1201 7.18407 23.0098 7.19342C23.0036 7.19431 22.9974 7.19431 22.9911 7.19431C22.8839 7.19431 22.7927 7.11242 22.783 7.00382C22.7732 6.88811 22.8577 6.78708 22.9729 6.77685C22.9991 6.77418 25.6164 6.5343 27.4837 5.51113C27.5851 5.45594 27.7123 5.49288 27.7675 5.59435C27.8231 5.69582 27.7862 5.82266 27.6847 5.87829Z" fill="#2B79E6"/>
<path d="M21.3361 14.7995C21.5522 14.4721 21.651 13.564 21.3793 13.422C21.1077 13.2799 20.3853 12.7733 20.1445 13.354L19.8358 14.5339L21.0706 15.2195L21.3361 14.7995Z" fill="#F7958D"/>
<path d="M5.63587 25.2145H13.6187L13.4088 42.2823H11.8839C11.8839 42.2823 10.7293 33.6959 10.2972 28.9518H9.25995L8.94508 42.2823H7.40778C7.40778 42.2823 5.59265 28.8962 5.64204 26.3141C5.605 26.1226 5.63587 25.2145 5.63587 25.2145Z" fill="#FF645F"/>
<path d="M5.63583 25.2144H13.6187L14.6189 14.608C14.7053 13.737 13.8718 12.9957 12.8099 12.9957H6.45079C5.38888 12.9957 4.54922 13.737 4.64183 14.608L5.63583 25.2144Z" fill="#A2CCDA"/>
<path d="M9.66731 14.12C8.25348 14.12 8.25965 13.1564 8.25965 12.9278V11.3588C8.25965 11.0067 8.79061 11.0376 9.10548 11.0376H10.118C10.4329 11.0376 10.9577 11.3217 10.9577 11.6553V12.8907C10.957 13.0572 10.9227 13.2219 10.8568 13.3748C10.791 13.5277 10.6949 13.6657 10.5744 13.7806C10.4538 13.8954 10.3113 13.9846 10.1555 14.043C9.99961 14.1013 9.83356 14.1275 9.66731 14.12Z" fill="#F7958D"/>
<path d="M11.8405 11.0376C11.433 12.4336 10.2847 12.1989 8.9079 11.8159C8.56875 11.73 8.25043 11.5765 7.972 11.3646C7.69357 11.1527 7.46076 10.8867 7.28753 10.5826C7.11429 10.2785 7.00419 9.94251 6.96383 9.59482C6.92347 9.24713 6.95368 8.89487 7.05264 8.55913C7.1516 8.2234 7.31728 7.91111 7.53975 7.64098C7.76222 7.37084 8.0369 7.14842 8.34734 6.98704C8.65778 6.82566 8.99759 6.72865 9.34639 6.70181C9.6952 6.67497 10.0458 6.71886 10.3773 6.83085C11.7294 7.21384 12.248 9.66004 11.8405 11.0376Z" fill="#FCA89E"/>
<path d="M8.97587 8.10955C8.97587 8.10955 8.97587 9.02997 8.85239 9.02997C8.68659 8.97386 8.50793 8.96795 8.33879 9.01301C8.16965 9.05806 8.01757 9.15207 7.90161 9.28324C7.55587 9.728 7.90161 10.1666 8.34613 10.2654C8.79065 10.3643 8.46961 11.4329 7.49413 11.2476C6.51865 11.0623 6.17291 8.72728 6.66682 7.83775C7.16074 6.94823 8.79065 5.98457 9.35865 6.03399C9.92665 6.08341 13.6804 8.12191 13.6804 8.12191L8.97587 8.10955Z" fill="#FF645F"/>
<path d="M14.6559 14.2868L16.6686 18.1847L19.8173 14.5339C19.8173 14.3918 21.2743 14.9416 21.0953 15.2628C20.7989 15.7817 18.7677 19.9143 17.1687 21.6069C16.2796 22.5458 13.6619 19.136 13.5199 18.8703C13.2915 18.4874 12.9828 16.14 12.9396 14.8304C12.9291 14.6803 12.9774 14.532 13.0741 14.4167C13.1709 14.3015 13.3086 14.2283 13.4582 14.2127L13.9336 13.3664C14.199 13.3664 14.5633 14.015 14.6559 14.2868Z" fill="#A2CCDA"/>
<path d="M20.6681 10.8498H20.9761V5.64557H19.3294C18.7518 5.64557 18.2727 6.21949 18.1771 6.97076H19.4412V7.51678H18.1571V7.97382H19.4416V8.52041H18.1571V8.97688H19.4416V9.52289H18.1776C18.2569 10.1474 18.6033 10.6446 19.0491 10.7957C18.9343 11.7773 18.6263 15.1906 19.5141 17.8468C19.6587 18.2812 20.0252 18.7876 20.5819 18.7876H21.8434C22.1232 18.7876 22.3203 18.658 22.3847 18.4335C22.4257 18.2916 22.4291 18.0666 22.2145 17.7974C21.462 16.8565 20.2807 14.7091 20.6681 10.8498Z" fill="#2B79E6"/>
<path d="M5.29624 13.3479C5.29624 13.3479 1.60423 17.2828 0.307712 18.5245C-0.414636 19.2101 0.307712 19.7228 0.715191 20.2356C1.85119 21.6625 5.55554 24.2075 5.55554 24.2075L5.3518 22.0517L3.08597 19.451C3.08597 19.451 6.21615 17.0296 6.31493 16.8566C6.60511 16.3809 6.36432 14.293 6.36432 14.293L5.29624 13.3479Z" fill="#A2CCDA"/>
<path d="M13.4273 42.2576H11.8776V43.4498H15.0202C15.2301 43.4498 15.3042 42.9803 15.1189 42.8815L13.4273 42.2576Z" fill="#2A2873"/>
<path d="M8.87083 42.2576H7.32118V43.4498H10.4946C10.6983 43.4498 10.7724 42.9803 10.5872 42.8815L8.87083 42.2576Z" fill="#2A2873"/>
<path d="M14.1003 16.0535H13.9645V21.8478H14.1003V16.0535Z" fill="#0E97CD"/>
<path d="M6.17287 24.1026C6.26799 24.0921 6.35998 24.0623 6.44321 24.0151C6.52645 23.9678 6.59918 23.9041 6.65697 23.8278C6.71475 23.7515 6.75637 23.6642 6.77929 23.5712C6.80221 23.4783 6.80594 23.3816 6.79026 23.2872L6.66061 22.0517C6.66061 21.8108 6.26548 21.8849 6.04322 21.8973L5.42583 22.0702L5.55548 24.2076C5.55548 24.2076 6 24.1149 6.17287 24.1026Z" fill="#F7958D"/>
</svg>
