<svg width="36" height="41" viewBox="0 0 36 41" fill="none" xmlns="http://www.w3.org/2000/svg">
<g clip-path="url(#clip0)">
<path d="M11.0532 5.94072C11.7574 8.60114 10.3332 11.0472 7.66946 11.8815C5.00572 12.7158 1.92528 11.6232 0.598687 9.13581C0.221382 8.41927 0.0170856 7.62746 0.00153904 6.82139C-0.0140075 6.01532 0.159611 5.21651 0.509016 4.48653C1.03649 2.42018 2.8299 0.733519 5.22726 1.04089C7.91209 1.37409 10.3648 3.33712 11.0532 5.94072Z" fill="#FF645F"/>
<path d="M35.077 15.0559C34.2858 16.8045 32.946 18.1554 30.9495 18.4137C30.0442 18.5177 29.1267 18.4124 28.2706 18.106C27.4145 17.7996 26.6437 17.3007 26.0203 16.6495C24.6699 15.2961 23.826 13.55 22.5258 12.1475C21.302 10.8302 19.7697 9.62394 19.3609 7.80297C18.6778 4.87134 20.5293 2.51311 22.9609 1.1674C26.2233 -1.67383 31.4954 1.23714 33.7346 4.08612C34.9277 5.63551 35.6805 7.46681 35.9163 9.39368C36.1521 11.3206 35.8625 13.2742 35.077 15.0559Z" fill="#FF645F"/>
<path d="M5.76788 3.43018H5.74414C5.6742 3.43018 5.60711 3.45739 5.55765 3.50583C5.50819 3.55427 5.48041 3.61997 5.48041 3.68847C5.48041 3.75697 5.50819 3.82267 5.55765 3.87111C5.60711 3.91955 5.6742 3.94676 5.74414 3.94676H5.76788C5.83783 3.94676 5.90491 3.91955 5.95437 3.87111C6.00383 3.82267 6.03162 3.75697 6.03162 3.68847C6.03162 3.61997 6.00383 3.55427 5.95437 3.50583C5.90491 3.45739 5.83783 3.43018 5.76788 3.43018Z" fill="#263655"/>
<path d="M5.12702 5.4035C5.05707 5.4035 4.98999 5.43072 4.94053 5.47916C4.89107 5.5276 4.86328 5.59329 4.86328 5.6618C4.86328 5.7303 4.89107 5.796 4.94053 5.84444C4.98999 5.89288 5.05707 5.92009 5.12702 5.92009C5.19696 5.92009 5.26405 5.89288 5.31351 5.84444C5.36297 5.796 5.39075 5.7303 5.39075 5.6618C5.39075 5.59329 5.36297 5.5276 5.31351 5.47916C5.26405 5.43072 5.19696 5.4035 5.12702 5.4035Z" fill="#263655"/>
<path d="M5.60715 7.4285L5.58341 7.45175C5.53375 7.50005 5.50571 7.56568 5.50546 7.63422C5.50522 7.70277 5.53278 7.7686 5.58209 7.81723C5.63141 7.86587 5.69843 7.89333 5.76841 7.89357C5.8384 7.89381 5.90562 7.86682 5.95528 7.81852L5.97902 7.79528C6.00361 7.77136 6.02315 7.74294 6.03652 7.71163C6.0499 7.68032 6.05684 7.64674 6.05697 7.6128C6.05709 7.57887 6.05038 7.54524 6.03724 7.51384C6.02409 7.48244 6.00475 7.45388 5.98034 7.4298C5.95592 7.40571 5.9269 7.38658 5.89493 7.37348C5.86296 7.36038 5.82867 7.35358 5.79402 7.35346C5.75936 7.35334 5.72502 7.3599 5.69296 7.37278C5.6609 7.38566 5.63174 7.40459 5.60715 7.4285Z" fill="#263655"/>
<path d="M7.68268 9.22361L7.64839 9.13063C7.49542 8.83359 7.03916 9.09188 7.18949 9.38892L7.23696 9.47932C7.38465 9.77895 7.83301 9.52065 7.68268 9.22361Z" fill="#263655"/>
<path d="M9.29946 9.88999L9.27572 9.86675C9.22641 9.81811 9.15939 9.79065 9.0894 9.79041C9.01942 9.79016 8.9522 9.81716 8.90254 9.86546C8.85287 9.91375 8.82483 9.97939 8.82459 10.0479C8.82434 10.1165 8.8519 10.1823 8.90122 10.2309L8.92495 10.2542C8.97427 10.3028 9.04129 10.3303 9.11127 10.3305C9.18126 10.3308 9.24848 10.3038 9.29814 10.2555C9.3478 10.2072 9.37584 10.1415 9.37609 10.073C9.37634 10.0045 9.34877 9.93863 9.29946 9.88999Z" fill="#263655"/>
<path d="M11.3882 9.9598C11.3576 9.92843 11.3207 9.90353 11.2799 9.88665C11.2391 9.86977 11.1951 9.86126 11.1508 9.86165C10.8475 9.86165 10.8185 10.262 11.0611 10.3576C11.1157 10.3886 11.1797 10.3995 11.2417 10.3882C11.3037 10.377 11.3596 10.3444 11.3991 10.2963C11.4387 10.2482 11.4593 10.1878 11.4573 10.126C11.4553 10.0643 11.4308 10.0053 11.3882 9.9598Z" fill="#263655"/>
<path d="M12.923 9.11775C12.8851 9.11622 12.8473 9.12363 12.8129 9.13936C12.7785 9.15509 12.7484 9.17868 12.7252 9.20815C12.6859 9.24318 12.6583 9.28904 12.646 9.33971C12.6337 9.39039 12.6374 9.44351 12.6565 9.49211C12.6756 9.5407 12.7093 9.58251 12.7531 9.61204C12.7969 9.64157 12.8488 9.65745 12.9019 9.65758C12.9394 9.65849 12.9766 9.65079 13.0105 9.63509C13.0444 9.61939 13.074 9.59613 13.0971 9.56718C13.1363 9.5323 13.1639 9.48668 13.1762 9.43625C13.1886 9.38581 13.1851 9.33291 13.1663 9.28442C13.1476 9.23593 13.1143 9.1941 13.0709 9.16437C13.0275 9.13465 12.976 9.1184 12.923 9.11775Z" fill="#263655"/>
<path d="M13.9227 7.74877V7.79526C13.9227 7.86377 13.9505 7.92947 13.9999 7.9779C14.0494 8.02634 14.1165 8.05356 14.1864 8.05356C14.2564 8.05356 14.3235 8.02634 14.3729 7.9779C14.4224 7.92947 14.4502 7.86377 14.4502 7.79526V7.74877C14.4502 7.68027 14.4224 7.61457 14.3729 7.56613C14.3235 7.51769 14.2564 7.49048 14.1864 7.49048C14.1165 7.49048 14.0494 7.51769 13.9999 7.56613C13.9505 7.61457 13.9227 7.68027 13.9227 7.74877Z" fill="#263655"/>
<path d="M14.3948 5.42413V5.44737C14.3948 5.51588 14.4226 5.58157 14.472 5.63001C14.5215 5.67845 14.5886 5.70567 14.6585 5.70567C14.7285 5.70567 14.7956 5.67845 14.845 5.63001C14.8945 5.58157 14.9223 5.51588 14.9223 5.44737V5.42413C14.9223 5.35562 14.8945 5.28992 14.845 5.24148C14.7956 5.19305 14.7285 5.16583 14.6585 5.16583C14.5886 5.16583 14.5215 5.19305 14.472 5.24148C14.4226 5.28992 14.3948 5.35562 14.3948 5.42413Z" fill="#263655"/>
<path d="M14.2075 3.50504L14.1838 3.4818C14.1345 3.43316 14.0675 3.4057 13.9975 3.40546C13.9275 3.40522 13.8603 3.43221 13.8106 3.48051C13.7609 3.5288 13.7329 3.59444 13.7327 3.66298C13.7324 3.73152 13.76 3.79736 13.8093 3.84599L13.833 3.86924C13.8823 3.91788 13.9494 3.94534 14.0193 3.94558C14.0893 3.94582 14.1565 3.91883 14.2062 3.87053C14.2559 3.82224 14.2839 3.7566 14.2842 3.68806C14.2844 3.61951 14.2568 3.55368 14.2075 3.50504Z" fill="#263655"/>
<path d="M12.7542 1.78998L12.7068 1.76673C12.3956 1.61692 12.1318 2.06635 12.443 2.21358L12.4905 2.23683C12.7912 2.38664 13.0575 1.93979 12.7542 1.78998Z" fill="#263655"/>
<path d="M10.9608 0.774841H10.9133C10.8434 0.774841 10.7763 0.802054 10.7268 0.850494C10.6774 0.898933 10.6496 0.964631 10.6496 1.03313C10.6496 1.10164 10.6774 1.16734 10.7268 1.21578C10.7763 1.26422 10.8434 1.29143 10.9133 1.29143H10.9608C11.0308 1.29143 11.0978 1.26422 11.1473 1.21578C11.1968 1.16734 11.2245 1.10164 11.2245 1.03313C11.2245 0.964631 11.1968 0.898933 11.1473 0.850494C11.0978 0.802054 11.0308 0.774841 10.9608 0.774841Z" fill="#263655"/>
<path d="M8.96707 0.392647L8.94334 0.415893C8.70333 0.650941 9.07257 1.01772 9.31257 0.78267L9.3363 0.759424C9.58422 0.516628 9.21498 0.1576 8.96707 0.392647Z" fill="#263655"/>
<path d="M7.49796 0.968567C7.42801 0.968567 7.36093 0.99578 7.31147 1.04422C7.26201 1.09266 7.23422 1.15836 7.23422 1.22686C7.23422 1.29536 7.26201 1.36106 7.31147 1.4095C7.36093 1.45794 7.42801 1.48515 7.49796 1.48515C7.56791 1.48515 7.63499 1.45794 7.68445 1.4095C7.73391 1.36106 7.7617 1.29536 7.7617 1.22686C7.7617 1.15836 7.73391 1.09266 7.68445 1.04422C7.63499 0.99578 7.56791 0.968567 7.49796 0.968567Z" fill="#263655"/>
<path d="M6.57491 2.06628C6.50496 2.06628 6.43788 2.0935 6.38842 2.14194C6.33896 2.19038 6.31117 2.25607 6.31117 2.32458C6.31117 2.39308 6.33896 2.45878 6.38842 2.50722C6.43788 2.55566 6.50496 2.58287 6.57491 2.58287C6.64486 2.58287 6.71194 2.55566 6.7614 2.50722C6.81086 2.45878 6.83864 2.39308 6.83864 2.32458C6.83864 2.25607 6.81086 2.19038 6.7614 2.14194C6.71194 2.0935 6.64486 2.06628 6.57491 2.06628Z" fill="#263655"/>
<path d="M6.43791 4.54856L6.41418 4.57181C6.36452 4.6201 6.33648 4.68574 6.33623 4.75428C6.33598 4.82282 6.36355 4.88866 6.41286 4.93729C6.46217 4.98593 6.52919 5.01339 6.59918 5.01363C6.66917 5.01388 6.73638 4.98688 6.78605 4.93859L6.80978 4.91534C6.85945 4.86704 6.88748 4.8014 6.88773 4.73286C6.88798 4.66432 6.86041 4.59849 6.8111 4.54985C6.76179 4.50121 6.69477 4.47375 6.62478 4.47351C6.55479 4.47327 6.48758 4.50027 6.43791 4.54856Z" fill="#263655"/>
<path d="M6.93109 6.8009L6.83614 6.68467C6.78673 6.63656 6.71988 6.60956 6.65021 6.60956C6.58053 6.60956 6.51369 6.63656 6.46427 6.68467C6.43955 6.70868 6.41993 6.73725 6.40654 6.76872C6.39315 6.8002 6.38626 6.83396 6.38626 6.86806C6.38626 6.90215 6.39315 6.93591 6.40654 6.96739C6.41993 6.99886 6.43955 7.02743 6.46427 7.05144L6.55922 7.16767C6.60863 7.21578 6.67548 7.24278 6.74515 7.24278C6.81483 7.24278 6.88167 7.21578 6.93109 7.16767C6.95581 7.14366 6.97543 7.11509 6.98882 7.08362C7.00221 7.05214 7.0091 7.01838 7.0091 6.98429C7.0091 6.95019 7.00221 6.91643 6.98882 6.88495C6.97543 6.85348 6.95581 6.82491 6.93109 6.8009Z" fill="#263655"/>
<path d="M8.53183 8.24987L8.34458 8.12847C8.05974 7.94767 7.79601 8.38677 8.08084 8.57532L8.26809 8.69672C8.55293 8.87752 8.81403 8.43068 8.53183 8.24987Z" fill="#263655"/>
<path d="M10.771 8.70702L10.7473 8.68378C10.5073 8.44873 10.1301 8.81034 10.3701 9.04539L10.3939 9.06864C10.6339 9.29852 11.011 8.94207 10.771 8.70702Z" fill="#263655"/>
<path d="M12.335 7.84174C12.2651 7.84174 12.198 7.86895 12.1486 7.91739C12.0991 7.96583 12.0713 8.03153 12.0713 8.10003C12.0713 8.16853 12.0991 8.23423 12.1486 8.28267C12.198 8.33111 12.2651 8.35832 12.335 8.35832C12.405 8.35832 12.4721 8.33111 12.5215 8.28267C12.571 8.23423 12.5988 8.16853 12.5988 8.10003C12.5988 8.03153 12.571 7.96583 12.5215 7.91739C12.4721 7.86895 12.405 7.84174 12.335 7.84174Z" fill="#263655"/>
<path d="M13.0919 6.31268V6.33592C13.0919 6.40443 13.1197 6.47012 13.1692 6.51856C13.2186 6.567 13.2857 6.59422 13.3557 6.59422C13.4256 6.59422 13.4927 6.567 13.5422 6.51856C13.5916 6.47012 13.6194 6.40443 13.6194 6.33592V6.31268C13.6194 6.24417 13.5916 6.17847 13.5422 6.13003C13.4927 6.0816 13.4256 6.05438 13.3557 6.05438C13.2857 6.05438 13.2186 6.0816 13.1692 6.13003C13.1197 6.17847 13.0919 6.24417 13.0919 6.31268Z" fill="#263655"/>
<path d="M13.1551 4.13275L13.0839 4.08626C12.8017 3.90028 12.5406 4.34455 12.8201 4.5331L12.8913 4.5796C13.1867 4.76815 13.4504 4.3213 13.1551 4.13275Z" fill="#263655"/>
<path d="M11.4778 2.67067L11.4066 2.64743C11.372 2.63781 11.3357 2.63524 11.3 2.63988C11.2643 2.64453 11.2299 2.65629 11.199 2.67444C11.1681 2.69259 11.1414 2.71675 11.1204 2.74542C11.0994 2.77409 11.0846 2.80667 11.077 2.84115C11.0683 2.87405 11.0662 2.90832 11.0711 2.94198C11.0759 2.97564 11.0875 3.00804 11.1051 3.03731C11.1228 3.06659 11.1461 3.09217 11.1739 3.11258C11.2016 3.13299 11.2332 3.14784 11.2669 3.15626L11.3381 3.17951C11.3725 3.19116 11.409 3.1957 11.4452 3.19286C11.4815 3.19002 11.5168 3.17986 11.5489 3.16302C11.5809 3.14617 11.6091 3.123 11.6316 3.09498C11.6541 3.06695 11.6704 3.03467 11.6795 3.00017C11.6887 2.96566 11.6904 2.92968 11.6846 2.89449C11.6789 2.85929 11.6657 2.82565 11.646 2.79567C11.6264 2.76569 11.6005 2.74003 11.5702 2.72029C11.5399 2.70056 11.5058 2.68718 11.4699 2.68101L11.4778 2.67067Z" fill="#263655"/>
<path d="M9.30987 2.02494L9.28614 2.06627C9.13581 2.36331 9.59207 2.62419 9.74504 2.32456L9.75822 2.28324C9.9191 1.98878 9.46284 1.72791 9.30987 2.02494Z" fill="#263655"/>
<path d="M7.91205 2.75592C7.8421 2.75592 7.77502 2.78313 7.72556 2.83157C7.6761 2.88001 7.64832 2.94571 7.64832 3.01421C7.64832 3.08272 7.6761 3.14842 7.72556 3.19686C7.77502 3.2453 7.8421 3.27251 7.91205 3.27251C7.982 3.27251 8.04908 3.2453 8.09854 3.19686C8.148 3.14842 8.17579 3.08272 8.17579 3.01421C8.17579 2.94571 8.148 2.88001 8.09854 2.83157C8.04908 2.78313 7.982 2.75592 7.91205 2.75592Z" fill="#263655"/>
<path d="M7.66411 5.31304V5.33629C7.66411 5.40479 7.6919 5.47049 7.74136 5.51893C7.79082 5.56737 7.8579 5.59458 7.92785 5.59458C7.99779 5.59458 8.06488 5.56737 8.11434 5.51893C8.1638 5.47049 8.19158 5.40479 8.19158 5.33629V5.31304C8.19158 5.24454 8.1638 5.17884 8.11434 5.1304C8.06488 5.08196 7.99779 5.05475 7.92785 5.05475C7.8579 5.05475 7.79082 5.08196 7.74136 5.1304C7.6919 5.17884 7.66411 5.24454 7.66411 5.31304Z" fill="#263655"/>
<path d="M8.86418 7.01776L8.81671 6.99452C8.51341 6.84729 8.24967 7.29156 8.55297 7.44137L8.60044 7.46461C8.9011 7.61442 9.16748 7.16757 8.86418 7.01776Z" fill="#263655"/>
<path d="M11.0928 7.04109L11.0453 7.06433C10.742 7.21673 11.0057 7.66357 11.309 7.51376L11.3565 7.49052C11.6572 7.33812 11.3934 6.89127 11.0928 7.04109Z" fill="#263655"/>
<path d="M12.1689 5.5016L12.1451 5.47836C11.9051 5.24331 11.528 5.6075 11.7706 5.84255L11.7944 5.8658C11.8188 5.88988 11.8478 5.90902 11.8798 5.92212C11.9117 5.93521 11.946 5.94202 11.9807 5.94214C12.0153 5.94226 12.0497 5.93569 12.0817 5.92282C12.1138 5.90994 12.143 5.891 12.1676 5.86709C12.1921 5.84318 12.2117 5.81475 12.2251 5.78344C12.2384 5.75214 12.2454 5.71855 12.2455 5.68461C12.2456 5.65068 12.2389 5.61705 12.2258 5.58564C12.2126 5.55424 12.1933 5.52569 12.1689 5.5016Z" fill="#263655"/>
<path d="M10.4386 3.56958H10.4149C10.3449 3.56958 10.2778 3.59679 10.2284 3.64523C10.1789 3.69367 10.1511 3.75937 10.1511 3.82787C10.1511 3.89638 10.1789 3.96207 10.2284 4.01051C10.2778 4.05895 10.3449 4.08617 10.4149 4.08617H10.4386C10.5086 4.08617 10.5756 4.05895 10.6251 4.01051C10.6746 3.96207 10.7023 3.89638 10.7023 3.82787C10.7023 3.75937 10.6746 3.69367 10.6251 3.64523C10.5756 3.59679 10.5086 3.56958 10.4386 3.56958Z" fill="#263655"/>
<path d="M8.70334 4.05518C8.6334 4.05518 8.56631 4.08239 8.51685 4.13083C8.46739 4.17927 8.43961 4.24497 8.43961 4.31347C8.43961 4.38197 8.46739 4.44767 8.51685 4.49611C8.56631 4.54455 8.6334 4.57176 8.70334 4.57176C8.77329 4.57176 8.84037 4.54455 8.88983 4.49611C8.93929 4.44767 8.96708 4.38197 8.96708 4.31347C8.96708 4.24497 8.93929 4.17927 8.88983 4.13083C8.84037 4.08239 8.77329 4.05518 8.70334 4.05518Z" fill="#263655"/>
<path d="M9.60786 6.057V6.08025C9.60786 6.14875 9.63565 6.21445 9.68511 6.26289C9.73457 6.31133 9.80165 6.33854 9.8716 6.33854C9.94155 6.33854 10.0086 6.31133 10.0581 6.26289C10.1076 6.21445 10.1353 6.14875 10.1353 6.08025V6.057C10.1353 5.9885 10.1076 5.9228 10.0581 5.87436C10.0086 5.82592 9.94155 5.79871 9.8716 5.79871C9.80165 5.79871 9.73457 5.82592 9.68511 5.87436C9.63565 5.9228 9.60786 5.9885 9.60786 6.057Z" fill="#263655"/>
<path d="M10.8897 4.64929C10.8198 4.64929 10.7527 4.6765 10.7033 4.72494C10.6538 4.77338 10.626 4.83908 10.626 4.90759C10.626 4.97609 10.6538 5.04179 10.7033 5.09023C10.7527 5.13867 10.8198 5.16588 10.8897 5.16588C10.9597 5.16588 11.0268 5.13867 11.0762 5.09023C11.1257 5.04179 11.1535 4.97609 11.1535 4.90759C11.1535 4.83908 11.1257 4.77338 11.0762 4.72494C11.0268 4.6765 10.9597 4.64929 10.8897 4.64929Z" fill="#263655"/>
<path d="M6.78856 5.61267C6.71862 5.61267 6.65153 5.63988 6.60207 5.68832C6.55261 5.73676 6.52483 5.80246 6.52483 5.87096C6.52483 5.93947 6.55261 6.00517 6.60207 6.05361C6.65153 6.10205 6.71862 6.12926 6.78856 6.12926C6.85851 6.12926 6.92559 6.10205 6.97505 6.05361C7.02451 6.00517 7.0523 5.93947 7.0523 5.87096C7.0523 5.80246 7.02451 5.73676 6.97505 5.68832C6.92559 5.63988 6.85851 5.61267 6.78856 5.61267Z" fill="#263655"/>
<path d="M28.2646 27.516V27.4927C28.2366 27.4242 28.182 27.3694 28.1127 27.3404C28.0435 27.3113 27.9653 27.3104 27.8953 27.3378C27.8254 27.3652 27.7694 27.4187 27.7397 27.4865C27.71 27.5543 27.7091 27.6309 27.7371 27.6994V27.7226C27.7509 27.7565 27.7715 27.7875 27.7975 27.8136C27.8236 27.8398 27.8546 27.8606 27.8889 27.875C27.9232 27.8894 27.96 27.897 27.9973 27.8975C28.0346 27.8979 28.0717 27.8912 28.1063 27.8776C28.1409 27.864 28.1725 27.8439 28.1992 27.8184C28.2259 27.7929 28.2472 27.7625 28.2619 27.7289C28.2766 27.6953 28.2844 27.6592 28.2849 27.6227C28.2853 27.5862 28.2784 27.5499 28.2646 27.516Z" fill="#FF645F"/>
<path d="M26.0018 27.6658C25.9738 27.5973 25.9192 27.5425 25.8499 27.5134C25.7807 27.4843 25.7025 27.4834 25.6325 27.5108C25.5626 27.5382 25.5066 27.5917 25.4769 27.6595C25.4473 27.7273 25.4463 27.8039 25.4743 27.8724C25.5023 27.9409 25.5569 27.9957 25.6261 28.0248C25.6954 28.0539 25.7736 28.0548 25.8435 28.0274C25.9135 28 25.9694 27.9465 25.9991 27.8787C26.0288 27.8109 26.0297 27.7343 26.0018 27.6658Z" fill="#FF645F"/>
<path d="M24.1265 28.9289L24.0949 28.9134C24.025 28.8836 23.9458 28.8822 23.8748 28.9096C23.8038 28.937 23.7469 28.9908 23.7164 29.0593C23.686 29.1278 23.6846 29.2054 23.7126 29.2749C23.7405 29.3444 23.7955 29.4002 23.8654 29.43H23.8971C23.9631 29.4505 24.0346 29.4466 24.0978 29.4188C24.1611 29.3911 24.2117 29.3416 24.2401 29.2797C24.2684 29.2178 24.2725 29.1478 24.2516 29.0831C24.2307 29.0184 24.1861 28.9635 24.1265 28.9289Z" fill="#FF645F"/>
<path d="M23.1113 31.6694L23.1878 31.5867C23.433 31.3284 22.99 30.9745 22.7473 31.238L22.6708 31.3207C22.4177 31.5893 22.8686 31.9328 23.1113 31.6694Z" fill="#FF645F"/>
<path d="M23.0717 33.5136V33.48C23.1018 33.4115 23.1028 33.3341 23.0746 33.2648C23.0465 33.1956 22.9913 33.1401 22.9214 33.1106C22.8514 33.0812 22.7724 33.0801 22.7017 33.1078C22.6309 33.1354 22.5743 33.1894 22.5442 33.2579L22.5284 33.2889C22.498 33.3594 22.4974 33.4389 22.5268 33.5099C22.5563 33.5808 22.6133 33.6375 22.6853 33.6673C22.7574 33.6971 22.8386 33.6976 22.911 33.6688C22.9835 33.64 23.0413 33.5841 23.0717 33.5136Z" fill="#FF645F"/>
<path d="M23.8206 35.5799C23.8386 35.5391 23.8479 35.4952 23.8479 35.4508C23.8479 35.4063 23.8386 35.3624 23.8206 35.3216C23.7125 35.0194 23.2931 35.1563 23.2931 35.4301C23.287 35.4935 23.3037 35.557 23.3403 35.6097C23.3769 35.6624 23.4311 35.7009 23.4936 35.7186C23.5561 35.7364 23.6229 35.7322 23.6826 35.7069C23.7423 35.6816 23.7911 35.6367 23.8206 35.5799Z" fill="#FF645F"/>
<path d="M25.287 36.7552C25.274 36.7177 25.2518 36.684 25.2224 36.657C25.193 36.6299 25.1572 36.6104 25.1182 36.6002C25.0684 36.5774 25.0128 36.5694 24.9584 36.5771C24.904 36.5849 24.8531 36.608 24.812 36.6436C24.7708 36.6793 24.7411 36.7259 24.7267 36.7779C24.7122 36.8298 24.7135 36.8848 24.7305 36.936C24.7444 36.9731 24.7669 37.0067 24.7961 37.034C24.8254 37.0613 24.8607 37.0817 24.8993 37.0935C24.9494 37.1154 25.0048 37.1226 25.059 37.1144C25.1132 37.1061 25.1638 37.0827 25.2047 37.047C25.2456 37.0112 25.2752 36.9647 25.2898 36.9129C25.3044 36.8612 25.3034 36.8064 25.287 36.7552Z" fill="#FF645F"/>
<path d="M27.0725 37.1943L27.025 37.2124C26.955 37.2394 26.8989 37.2926 26.869 37.3602C26.8391 37.4277 26.8378 37.5042 26.8654 37.5727C26.8931 37.6412 26.9473 37.6961 27.0163 37.7254C27.0853 37.7547 27.1634 37.756 27.2333 37.729L27.2808 37.7109C27.3507 37.6838 27.4069 37.6306 27.4368 37.5631C27.4667 37.4955 27.468 37.4191 27.4404 37.3506C27.4127 37.282 27.3584 37.2271 27.2895 37.1978C27.2205 37.1685 27.1424 37.1672 27.0725 37.1943Z" fill="#FF645F"/>
<path d="M29.6255 36.7371H29.6018C29.5671 36.7507 29.5356 36.7708 29.5089 36.7963C29.4822 36.8218 29.4609 36.8522 29.4462 36.8858C29.4315 36.9194 29.4237 36.9555 29.4232 36.992C29.4228 37.0285 29.4297 37.0648 29.4435 37.0987C29.4574 37.1326 29.4779 37.1636 29.504 37.1897C29.53 37.2158 29.5611 37.2367 29.5954 37.2511C29.6297 37.2655 29.6665 37.2731 29.7038 37.2736C29.7411 37.274 29.7781 37.2673 29.8128 37.2537H29.8365C29.9011 37.2228 29.9513 37.1691 29.9772 37.1034C30.003 37.0377 30.0026 36.9648 29.9759 36.8995C29.9492 36.8341 29.8982 36.781 29.8332 36.7509C29.7683 36.7208 29.6941 36.7159 29.6255 36.7371Z" fill="#FF645F"/>
<path d="M31.5112 35.7969L31.527 35.7634C31.5574 35.6949 31.5588 35.6173 31.5309 35.5478C31.5029 35.4783 31.4479 35.4225 31.378 35.3927C31.3081 35.3629 31.2289 35.3615 31.1579 35.3889C31.0869 35.4163 31.03 35.4701 30.9995 35.5386V35.5722C30.9786 35.6369 30.9826 35.7069 31.0109 35.7688C31.0392 35.8308 31.0898 35.8803 31.153 35.9081C31.2162 35.9359 31.2877 35.9399 31.3537 35.9194C31.4198 35.8989 31.4758 35.8553 31.5112 35.7969Z" fill="#FF645F"/>
<path d="M32.6875 33.6996V33.6428C32.7218 33.2889 32.16 33.2062 32.1284 33.5627V33.6169C32.0968 33.9708 32.6559 34.056 32.6875 33.6996Z" fill="#FF645F"/>
<path d="M33.0093 31.548L32.9908 31.5015C32.9592 31.4383 32.9044 31.3891 32.8373 31.3638C32.7703 31.3384 32.6959 31.3389 32.6291 31.365C32.5624 31.3912 32.5082 31.4411 32.4774 31.5047C32.4467 31.5684 32.4417 31.6411 32.4633 31.7082L32.4844 31.7547C32.5124 31.8228 32.5669 31.8773 32.6359 31.9061C32.7049 31.935 32.7828 31.9358 32.8524 31.9084C32.922 31.881 32.9776 31.8276 33.007 31.76C33.0364 31.6925 33.0373 31.6162 33.0093 31.548Z" fill="#FF645F"/>
<path d="M32.6242 29.4455H32.5899C32.5199 29.416 32.4409 29.415 32.3702 29.4426C32.2994 29.4702 32.2428 29.5242 32.2127 29.5927C32.1826 29.6612 32.1816 29.7386 32.2098 29.8079C32.238 29.8771 32.2931 29.9326 32.3631 29.962H32.3947C32.4647 29.9918 32.5438 29.9932 32.6148 29.9658C32.6858 29.9385 32.7427 29.8846 32.7732 29.8161C32.8036 29.7476 32.805 29.6701 32.777 29.6006C32.7491 29.5311 32.6941 29.4753 32.6242 29.4455Z" fill="#FF645F"/>
<path d="M31.4558 28.2366C31.4278 28.1681 31.3732 28.1133 31.304 28.0843C31.2347 28.0552 31.1565 28.0543 31.0866 28.0817C31.0166 28.1091 30.9606 28.1626 30.931 28.2304C30.9013 28.2982 30.9003 28.3748 30.9283 28.4433C30.9422 28.4772 30.9627 28.5081 30.9888 28.5342C31.0148 28.5604 31.0459 28.5813 31.0802 28.5956C31.1144 28.61 31.1513 28.6177 31.1886 28.6181C31.2259 28.6186 31.2629 28.6118 31.2976 28.5982C31.3322 28.5847 31.3638 28.5646 31.3904 28.539C31.4171 28.5135 31.4384 28.4831 31.4531 28.4495C31.4678 28.416 31.4756 28.3799 31.4761 28.3433C31.4765 28.3068 31.4696 28.2706 31.4558 28.2366Z" fill="#FF645F"/>
<path d="M29.979 27.7639C29.951 27.6954 29.8964 27.6406 29.8271 27.6115C29.7579 27.5825 29.6797 27.5815 29.6097 27.6089C29.5398 27.6363 29.4838 27.6898 29.4542 27.7577C29.4245 27.8255 29.4235 27.9021 29.4515 27.9706C29.4654 28.0045 29.4859 28.0354 29.5119 28.0615C29.538 28.0877 29.5691 28.1086 29.6033 28.1229C29.6376 28.1373 29.6745 28.145 29.7118 28.1454C29.7491 28.1459 29.7861 28.1391 29.8207 28.1255C29.8554 28.112 29.8869 28.0919 29.9136 28.0663C29.9403 28.0408 29.9616 28.0104 29.9763 27.9768C29.991 27.9432 29.9988 27.9072 29.9993 27.8706C29.9997 27.8341 29.9928 27.7978 29.979 27.7639Z" fill="#FF645F"/>
<path d="M27.389 28.6112L27.3547 28.5957C27.2848 28.5662 27.2057 28.5652 27.135 28.5928C27.0643 28.6204 27.0077 28.6744 26.9776 28.7429C26.9475 28.8114 26.9464 28.8888 26.9746 28.9581C27.0028 29.0274 27.058 29.0828 27.1279 29.1123H27.1596C27.2256 29.1328 27.297 29.1289 27.3603 29.1012C27.4235 29.0734 27.4742 29.0239 27.5025 28.962C27.5309 28.9001 27.535 28.8301 27.514 28.7654C27.4931 28.7007 27.4486 28.6458 27.389 28.6112Z" fill="#FF645F"/>
<path d="M25.2871 29.9801L25.3689 29.8432C25.3991 29.7757 25.4008 29.6993 25.3736 29.6306C25.3464 29.5618 25.2926 29.5064 25.2238 29.4765C25.1547 29.4483 25.0772 29.4473 25.0074 29.4738C24.9376 29.5002 24.881 29.5521 24.8493 29.6185L24.7702 29.7554C24.7398 29.8226 24.7378 29.8988 24.7644 29.9675C24.7911 30.0362 24.8443 30.0918 24.9126 30.1222C24.9817 30.1504 25.0592 30.1514 25.129 30.1249C25.1988 30.0984 25.2555 30.0466 25.2871 29.9801Z" fill="#FF645F"/>
<path d="M24.4405 32.1162L24.4906 31.8838C24.5644 31.5351 24.0026 31.455 23.9288 31.8037L23.8813 32.0336C23.8075 32.3823 24.3666 32.4623 24.4405 32.1162Z" fill="#FF645F"/>
<path d="M24.8572 34.4847V34.4512C24.8876 34.3827 24.889 34.3051 24.8611 34.2356C24.8331 34.1661 24.7781 34.1103 24.7082 34.0805C24.6383 34.0507 24.5591 34.0493 24.4881 34.0767C24.4171 34.1041 24.3602 34.1579 24.3297 34.2264L24.3139 34.26C24.2835 34.3306 24.2829 34.4101 24.3124 34.4811C24.3418 34.552 24.3988 34.6086 24.4708 34.6384C24.5429 34.6682 24.6241 34.6688 24.6965 34.64C24.769 34.6111 24.8268 34.5553 24.8572 34.4847Z" fill="#FF645F"/>
<path d="M26.3552 35.673C26.3272 35.6045 26.2726 35.5497 26.2033 35.5206C26.1341 35.4915 26.0559 35.4906 25.9859 35.518C25.916 35.5454 25.86 35.5989 25.8303 35.6667C25.8007 35.7345 25.7997 35.8111 25.8277 35.8796C25.8557 35.9481 25.9103 36.0029 25.9795 36.032C26.0488 36.0611 26.127 36.062 26.1969 36.0346C26.2669 36.0072 26.3228 35.9537 26.3525 35.8859C26.3822 35.8181 26.3831 35.7415 26.3552 35.673Z" fill="#FF645F"/>
<path d="M28.2199 35.8098H28.1962C28.1615 35.8234 28.13 35.8435 28.1033 35.869C28.0766 35.8945 28.0553 35.9249 28.0406 35.9585C28.0259 35.9921 28.0181 36.0282 28.0176 36.0647C28.0172 36.1012 28.0241 36.1375 28.0379 36.1714C28.0518 36.2053 28.0723 36.2362 28.0984 36.2624C28.1244 36.2885 28.1555 36.3094 28.1898 36.3238C28.224 36.3382 28.2609 36.3458 28.2982 36.3463C28.3355 36.3467 28.3725 36.34 28.4071 36.3264H28.4309C28.4955 36.2955 28.5457 36.2418 28.5716 36.1761C28.5974 36.1104 28.597 36.0375 28.5703 35.9722C28.5436 35.9068 28.4926 35.8537 28.4276 35.8236C28.3626 35.7935 28.2884 35.7886 28.2199 35.8098Z" fill="#FF645F"/>
<path d="M30.4537 35.0168L30.4748 34.929C30.5513 34.5803 29.9895 34.5002 29.913 34.8463L29.8946 34.9341C29.8181 35.2828 30.3772 35.3629 30.4537 35.0168Z" fill="#FF645F"/>
<path d="M31.2896 32.8033V32.7259C31.2803 32.6531 31.2422 32.5869 31.1835 32.5414C31.1248 32.496 31.0501 32.475 30.9757 32.4831C30.9018 32.494 30.835 32.5321 30.7889 32.5898C30.7428 32.6474 30.7209 32.7201 30.7278 32.793V32.8705C30.7371 32.9432 30.7752 33.0095 30.8339 33.0549C30.8926 33.1004 30.9673 33.1213 31.0417 33.1133C31.1156 33.1024 31.1824 33.0642 31.2285 33.0066C31.2746 32.949 31.2965 32.8762 31.2896 32.8033Z" fill="#FF645F"/>
<path d="M31.0918 30.4243H31.0338C30.6725 30.3933 30.5881 30.9409 30.952 30.9719H31.0074C31.3687 30.9951 31.4558 30.4579 31.0918 30.4243Z" fill="#FF645F"/>
<path d="M29.8023 29.3369C29.7886 29.303 29.7682 29.2721 29.7423 29.2459C29.7164 29.2197 29.6855 29.1987 29.6514 29.1842C29.6172 29.1697 29.5805 29.1619 29.5432 29.1613C29.506 29.1607 29.469 29.1673 29.4344 29.1807C29.3997 29.1941 29.3681 29.214 29.3414 29.2394C29.3146 29.2647 29.2932 29.295 29.2784 29.3285C29.2636 29.3619 29.2556 29.3979 29.255 29.4344C29.2544 29.4708 29.2611 29.5071 29.2748 29.541C29.3024 29.6095 29.3567 29.6644 29.4257 29.6937C29.4947 29.7231 29.5728 29.7243 29.6427 29.6973C29.7127 29.6702 29.7688 29.617 29.7987 29.5495C29.8286 29.4819 29.8299 29.4054 29.8023 29.3369Z" fill="#FF645F"/>
<path d="M27.091 30.1092H27.0672C26.9973 30.1366 26.9413 30.1901 26.9117 30.258C26.882 30.3258 26.881 30.4024 26.909 30.4709C26.937 30.5394 26.9916 30.5942 27.0608 30.6232C27.1301 30.6523 27.2083 30.6532 27.2782 30.6258H27.302C27.3666 30.5949 27.4168 30.5412 27.4427 30.4755C27.4685 30.4098 27.468 30.337 27.4413 30.2716C27.4146 30.2062 27.3637 30.1532 27.2987 30.1231C27.2337 30.0929 27.1595 30.088 27.091 30.1092Z" fill="#FF645F"/>
<path d="M25.8276 31.956V31.8992C25.8593 31.5453 25.3002 31.4626 25.2659 31.8191V31.8733C25.2342 32.2272 25.7934 32.3124 25.8276 31.956Z" fill="#FF645F"/>
<path d="M26.6823 34.1439L26.6374 34.0948C26.3737 33.8598 26.0097 34.2937 26.2814 34.5287L26.3236 34.5649C26.6005 34.8129 26.9539 34.3789 26.6823 34.1439Z" fill="#FF645F"/>
<path d="M28.6734 34.5907V34.5571C28.6885 34.5232 28.6966 34.4867 28.6973 34.4497C28.6979 34.4127 28.6911 34.376 28.6773 34.3416C28.6635 34.3072 28.6428 34.2757 28.6166 34.2491C28.5904 34.2225 28.5591 34.2012 28.5244 34.1865C28.4898 34.1717 28.4525 34.1638 28.4148 34.1631C28.377 34.1625 28.3395 34.1691 28.3043 34.1827C28.2692 34.1962 28.2371 34.2164 28.2099 34.2421C28.1828 34.2678 28.161 34.2985 28.146 34.3324V34.366C28.1155 34.4345 28.1142 34.512 28.1421 34.5815C28.17 34.651 28.225 34.7068 28.295 34.7366C28.3649 34.7664 28.4441 34.7678 28.5151 34.7404C28.586 34.7131 28.643 34.6592 28.6734 34.5907Z" fill="#FF645F"/>
<path d="M29.9631 32.1369V32.1136C29.9315 32.0504 29.8767 32.0011 29.8096 31.9758C29.7426 31.9505 29.6682 31.951 29.6014 31.9771C29.5347 32.0033 29.4805 32.0532 29.4497 32.1168C29.419 32.1804 29.414 32.2531 29.4356 32.3202V32.3409C29.4493 32.3748 29.4697 32.4058 29.4956 32.432C29.5215 32.4582 29.5524 32.4792 29.5866 32.4937C29.6207 32.5082 29.6575 32.516 29.6947 32.5166C29.7319 32.5172 29.7689 32.5106 29.8036 32.4972C29.8382 32.4838 29.8698 32.4638 29.8966 32.4385C29.9233 32.4131 29.9447 32.3828 29.9595 32.3494C29.9743 32.3159 29.9823 32.2799 29.9829 32.2435C29.9835 32.207 29.9768 32.1708 29.9631 32.1369Z" fill="#FF645F"/>
<path d="M28.7841 30.6362C28.7703 30.6023 28.7497 30.5714 28.7237 30.5453C28.6976 30.5191 28.6666 30.4982 28.6323 30.4839C28.598 30.4695 28.5611 30.4618 28.5238 30.4614C28.4865 30.4609 28.4495 30.4677 28.4149 30.4813C28.3803 30.4948 28.3487 30.5149 28.322 30.5405C28.2953 30.566 28.274 30.5964 28.2593 30.63C28.2446 30.6636 28.2368 30.6996 28.2363 30.7362C28.2359 30.7727 28.2428 30.809 28.2566 30.8429C28.2846 30.9114 28.3392 30.9662 28.4085 30.9953C28.4777 31.0243 28.5559 31.0253 28.6259 30.9979C28.6958 30.9704 28.7518 30.917 28.7815 30.8491C28.8111 30.7813 28.8121 30.7047 28.7841 30.6362Z" fill="#FF645F"/>
<path d="M27.0989 32.3022H27.0752C27.0052 32.3296 26.9493 32.3831 26.9196 32.4509C26.8899 32.5187 26.8889 32.5953 26.9169 32.6638C26.9449 32.7323 26.9995 32.7871 27.0688 32.8162C27.138 32.8452 27.2162 32.8462 27.2862 32.8188H27.3099C27.3745 32.7878 27.4247 32.7341 27.4506 32.6684C27.4764 32.6028 27.476 32.5299 27.4493 32.4645C27.4226 32.3992 27.3716 32.3461 27.3066 32.316C27.2417 32.2859 27.1674 32.2809 27.0989 32.3022Z" fill="#FF645F"/>
<path d="M29.0294 33.0073C28.9973 32.9454 28.9427 32.8975 28.8764 32.8729C28.8101 32.8483 28.7369 32.8488 28.6709 32.8743C28.605 32.8998 28.5511 32.9485 28.5199 33.0108C28.4887 33.0731 28.4823 33.1446 28.502 33.2113C28.5341 33.2732 28.5887 33.3211 28.655 33.3457C28.7213 33.3703 28.7945 33.3698 28.8605 33.3443C28.9264 33.3188 28.9803 33.2701 29.0115 33.2078C29.0428 33.1455 29.0491 33.074 29.0294 33.0073Z" fill="#FF645F"/>
<path d="M26.4423 29.3706C26.4284 29.3366 26.4079 29.3057 26.3818 29.2796C26.3558 29.2534 26.3247 29.2326 26.2904 29.2182C26.2561 29.2038 26.2193 29.1961 26.182 29.1957C26.1447 29.1953 26.1077 29.202 26.073 29.2156C26.0384 29.2291 26.0068 29.2493 25.9801 29.2748C25.9534 29.3003 25.9321 29.3307 25.9174 29.3643C25.9027 29.3979 25.8949 29.4339 25.8945 29.4705C25.894 29.507 25.9009 29.5433 25.9148 29.5772C25.9428 29.6457 25.9974 29.7005 26.0666 29.7296C26.1359 29.7586 26.2141 29.7596 26.284 29.7322C26.354 29.7048 26.4099 29.6513 26.4396 29.5835C26.4693 29.5156 26.4702 29.4391 26.4423 29.3706Z" fill="#FF645F"/>
<path d="M33.9455 16.6211C32.4501 13.5422 29.5833 10.9128 26.9644 8.73797C25.6984 7.68413 24.327 6.49856 22.8026 5.83475C21.0989 5.09603 12.7068 6.13437 10.8844 7.28377C10.8283 7.27324 10.7703 7.27886 10.7174 7.29995C10.6645 7.32104 10.619 7.35669 10.5864 7.40259C10.5477 7.46458 10.5055 7.52657 10.4598 7.58856C10.0246 7.95017 6.45098 14.0459 5.30636 16.7735C4.61618 18.4152 4.02268 20.0942 3.52878 21.8025C3.10944 23.2463 2.42636 25.0363 2.76922 26.5654C3.05933 27.8414 4.07208 28.8022 4.99779 29.6778C6.30669 30.919 7.6931 32.0792 9.149 33.1519C10.5827 34.2115 12.0799 35.1861 13.6325 36.0706C14.9512 36.8093 16.3332 37.6204 17.8523 37.7857C21.1015 38.1602 23.6545 35.1046 25.6694 33.0666C28.2283 30.4916 30.58 27.7265 32.7033 24.7961C34.5969 22.1615 35.4409 19.6974 33.9455 16.6211Z" fill="#263655"/>
<path d="M25.9832 11.6568C24.4298 10.7992 23.1744 11.2977 22.4782 12.8242C22.4096 12.9741 22.3014 13.4209 22.1775 13.5242C21.8056 13.8368 20.632 13.5242 20.21 13.4571C19.5533 13.3357 18.8913 13.2272 18.2399 13.1497C16.9537 12.9883 15.6518 12.9883 14.3656 13.1497C14.1784 12.3154 13.8382 11.4553 12.9072 11.2073C11.9762 10.9594 10.7815 11.5328 10.1485 12.1398C8.30233 13.9478 10.0799 15.5673 11.8812 16.226C11.0584 17.9798 9.93486 19.9067 9.8953 21.8516C9.85574 23.7966 11.1744 25.3205 12.4641 26.6869C13.3608 27.64 14.2496 28.6137 15.1779 29.5281C15.7344 30.0834 16.2118 30.4889 17.0241 30.5793C18.6197 30.755 21.0487 30.8015 22.3489 29.7321C23.9313 28.4407 25.1867 26.116 26.0412 24.308C26.988 22.332 27.0777 20.914 26.3313 18.858C26.0834 18.1787 25.0707 16.5747 25.519 15.9754C25.9252 15.4304 26.8773 15.3788 27.3072 14.7615C28.1432 13.594 27.0566 12.2508 25.9832 11.6568Z" fill="#FEDA66"/>
<path d="M19.9806 26.3459C18.3401 27.6374 16.0641 26.4596 15.323 24.7367C14.3181 22.4121 16.188 19.7078 17.628 17.9953C17.6544 17.9592 17.6908 17.9313 17.7328 17.9148C17.7749 17.8983 17.8209 17.894 17.8654 17.9023C18.0909 17.7825 18.3502 17.7381 18.6038 17.7757C19.5929 17.8945 20.45 19.0362 20.8984 19.8188C21.9981 21.7328 21.8346 24.9046 19.9806 26.3459Z" fill="#FF645F"/>
<path d="M14.4659 17.8739C14.363 17.8005 14.2435 17.7525 14.1176 17.734C13.9918 17.7155 13.8632 17.7271 13.7428 17.7676C13.6224 17.8082 13.5138 17.8766 13.4262 17.967C13.3386 18.0575 13.2746 18.1673 13.2396 18.2872C13.2107 18.4403 13.2405 18.5984 13.3232 18.7314C13.4059 18.8643 13.5357 18.9627 13.6879 19.0078C13.848 19.0654 14.0233 19.0681 14.1852 19.0156C14.3471 18.9631 14.486 18.8583 14.5793 18.7185C14.6626 18.5865 14.6968 18.4303 14.6761 18.2764C14.6555 18.1226 14.5812 17.9804 14.4659 17.8739Z" fill="#263655"/>
<path d="M22.3648 17.6776C22.3228 17.6577 22.277 17.6463 22.2303 17.644C22.0967 17.6419 21.9649 17.6755 21.8494 17.7414C21.7339 17.8073 21.6389 17.9028 21.5748 18.0177C21.5107 18.1326 21.4799 18.2625 21.4858 18.3933C21.4916 18.5241 21.5338 18.6509 21.6079 18.7598C21.9587 19.2558 22.8712 19.1628 22.9952 18.5325C23.0128 18.4357 23.0104 18.3363 22.9881 18.2404C22.9657 18.1445 22.9239 18.054 22.8651 17.9742C22.8063 17.8944 22.7317 17.8271 22.6457 17.7761C22.5598 17.7252 22.4643 17.6917 22.3648 17.6776Z" fill="#263655"/>
<path d="M19.4875 24.2537C18.4496 24.0362 17.3682 24.141 16.3939 24.5533C16.3701 24.5652 16.348 24.58 16.328 24.5973H16.2699C16.1948 24.6178 16.131 24.6664 16.092 24.7325C16.0531 24.7987 16.0421 24.8772 16.0616 24.9511C16.2229 25.3718 16.4879 25.7468 16.833 26.0429C17.1781 26.339 17.5926 26.5469 18.0396 26.6481C18.8018 26.7798 19.6537 25.9843 20.0414 25.4264C20.524 24.7445 20.2682 24.4294 19.4875 24.2537Z" fill="#263655"/>
<path d="M24.2427 12.566C23.9875 12.6343 23.7493 12.7532 23.5428 12.9154C23.3364 13.0776 23.1662 13.2795 23.0427 13.5087C22.999 13.5275 22.9604 13.5562 22.9304 13.5926C22.9004 13.629 22.8797 13.6719 22.8701 13.7177C22.8606 13.7635 22.8624 13.8109 22.8754 13.8559C22.8885 13.9009 22.9124 13.9422 22.9451 13.9762C23.2669 14.3206 23.5948 14.6564 23.9289 14.9836C24.1451 15.198 24.4115 15.5751 24.7596 15.5802C24.8593 15.5717 24.9557 15.5416 25.0419 15.492C25.1282 15.4424 25.202 15.3746 25.2581 15.2935C25.534 15.0251 25.7814 14.73 25.9966 14.4127C26.7825 13.1497 25.5113 12.194 24.2427 12.566Z" fill="#F9F9F9"/>
<path d="M14.0888 13.4106C13.8752 12.6357 12.72 12.2302 11.9974 12.2534C10.0826 12.318 10.4809 15.0585 11.9974 15.3866C12.0241 15.413 12.0559 15.434 12.091 15.4484C12.1261 15.4627 12.1637 15.4701 12.2017 15.4701C12.2398 15.4701 12.2774 15.4627 12.3125 15.4484C12.3476 15.434 12.3794 15.413 12.4061 15.3866C12.8334 14.9905 13.2571 14.5901 13.6774 14.1855C13.9279 13.9659 14.189 13.7619 14.0888 13.4106Z" fill="#F9F9F9"/>
<path d="M17.5569 5.04446C17.5332 4.86107 17.2405 4.86107 17.2616 5.04446C17.5147 7.04193 17.6967 9.04371 17.8075 11.0498C17.8075 11.2332 18.1108 11.2332 18.1002 11.0498C17.9895 9.04199 17.8084 7.04021 17.5569 5.04446Z" fill="#57719B"/>
<path d="M21.4207 4.85334C21.1482 6.7475 20.8405 8.62787 20.4976 10.4945C20.466 10.6753 20.7614 10.7528 20.7825 10.5668C21.1341 8.69159 21.4418 6.81121 21.7056 4.92566C21.7319 4.74486 21.4471 4.66995 21.4207 4.85334Z" fill="#57719B"/>
<path d="M14.1125 10.8483C13.585 9.27267 13.0892 7.66867 12.3903 6.15249C12.3112 5.98459 12.058 6.12924 12.1266 6.29713C12.8149 7.78748 13.2897 9.37083 13.8198 10.9206C13.8883 11.0911 14.1705 11.0187 14.1125 10.8483Z" fill="#57719B"/>
<path d="M8.34452 19.0104C6.98975 18.3783 5.68657 17.6451 4.4465 16.8175C4.28826 16.7116 4.14321 16.9621 4.29881 17.0758C5.53878 17.9058 6.84295 18.6398 8.19947 19.2713C8.36826 19.3384 8.51595 19.0904 8.34452 19.0104Z" fill="#57719B"/>
<path d="M7.47159 22.5464C5.76039 22.2475 4.0339 22.0397 2.29972 21.9239C2.10983 21.911 2.10983 22.2132 2.29972 22.2132C4.00913 22.3266 5.71098 22.531 7.39774 22.8254C7.58236 22.8564 7.64829 22.5774 7.47159 22.5464Z" fill="#57719B"/>
<path d="M6.92842 24.9951C5.4023 25.721 3.82244 26.3332 2.20227 26.8264C2.02293 26.8832 2.09677 27.1596 2.27875 27.1053C3.92283 26.6054 5.52569 25.9837 7.07348 25.2456C7.2449 25.163 7.09721 24.9124 6.92842 24.9951Z" fill="#57719B"/>
<path d="M8.65582 27.3791C7.55516 28.3503 6.48703 29.3568 5.45143 30.3986C5.31956 30.5329 5.52527 30.737 5.65714 30.6052C6.6945 29.5721 7.76351 28.5647 8.86417 27.5832C9.00395 27.4489 8.79824 27.2448 8.65582 27.3791Z" fill="#57719B"/>
<path d="M11.6888 29.4583C10.8343 30.7033 10.0097 31.9655 9.21495 33.2449C9.11473 33.4025 9.37055 33.5471 9.47869 33.3896C10.2717 32.1084 11.0963 30.8462 11.9525 29.603C12.0475 29.4454 11.7943 29.3059 11.6888 29.4583Z" fill="#57719B"/>
<path d="M14.3736 31.4473C13.5824 32.8808 12.6066 34.3299 12.0553 35.8615C11.9921 36.0346 12.2769 36.1069 12.3402 35.9339C12.8808 34.428 13.8619 33.0022 14.6268 31.592C14.7165 31.4292 14.4606 31.2846 14.3736 31.4473Z" fill="#57719B"/>
<path d="M17.5648 32.5449C17.36 34.1731 17.2561 35.812 17.2536 37.4525C17.2584 37.4872 17.2758 37.519 17.3028 37.5421C17.3297 37.5652 17.3642 37.5779 17.4 37.5779C17.4357 37.5779 17.4703 37.5652 17.4972 37.5421C17.5241 37.519 17.5416 37.4872 17.5463 37.4525C17.5496 35.8119 17.6544 34.1731 17.8602 32.5449C17.8839 32.3564 17.5885 32.359 17.5648 32.5449Z" fill="#57719B"/>
<path d="M20.4316 32.2376C20.4026 32.0568 20.1204 32.1317 20.1467 32.3125L20.8957 37.3415C20.9248 37.5249 21.207 37.45 21.1806 37.2666C20.9292 35.5894 20.6795 33.9131 20.4316 32.2376Z" fill="#57719B"/>
<path d="M25.9385 33.5782C25.1209 32.4245 24.2611 31.3052 23.3591 30.2203C23.2405 30.0757 23.0321 30.2798 23.1508 30.4218C24.0299 31.4946 24.8739 32.5975 25.6827 33.7306C25.7908 33.8597 26.0466 33.7176 25.9385 33.5782Z" fill="#57719B"/>
<path d="M26.2444 8.20854L24.7912 10.5099C24.691 10.6675 24.9468 10.8121 25.0549 10.652C25.5385 9.88745 26.0202 9.12118 26.5002 8.35318C26.5978 8.19563 26.3446 8.05098 26.2444 8.20854Z" fill="#57719B"/>
<path d="M9.67118 11.8066L8.04657 10.59C7.89624 10.479 7.75118 10.7295 7.90151 10.8483L9.52349 12.0597C9.67382 12.1682 9.81887 11.9177 9.67118 11.8066Z" fill="#57719B"/>
<path d="M7.87259 14.4463C7.33822 14.2075 6.84734 13.8847 6.4194 13.4906C6.28226 13.3641 6.07391 13.5655 6.21105 13.6921C6.65674 14.1064 7.1691 14.4458 7.72753 14.6969C7.89632 14.7744 8.04665 14.5238 7.87259 14.4463Z" fill="#57719B"/>
<path d="M29.6492 10.231L27.8216 12.1191C27.6923 12.2534 27.898 12.4575 28.0273 12.3231L29.8576 10.4376C29.9868 10.3033 29.7811 10.0967 29.6492 10.231Z" fill="#57719B"/>
<path d="M31.8885 13.1497C30.0883 14.193 28.3725 15.37 26.7561 16.6703C26.6085 16.7891 26.8168 16.9931 26.9619 16.8769C28.5596 15.592 30.256 14.4297 32.0361 13.4003C32.197 13.3047 32.052 13.0541 31.8885 13.1497Z" fill="#57719B"/>
<path d="M33.7398 15.6371C31.6825 16.4865 29.6828 17.464 27.753 18.5636C27.718 18.5824 27.6921 18.6141 27.681 18.6516C27.6699 18.6892 27.6744 18.7295 27.6937 18.7637C27.7129 18.798 27.7453 18.8234 27.7836 18.8343C27.8219 18.8452 27.8631 18.8407 27.8981 18.8219C29.8288 17.7223 31.8294 16.7448 33.8875 15.8954C34.0616 15.8153 33.9139 15.5648 33.7398 15.6371Z" fill="#57719B"/>
<path d="M34.9134 20.7203C32.697 20.2271 30.418 20.0591 28.1512 20.2218C27.9639 20.2373 27.9639 20.524 28.1512 20.5111C30.393 20.3475 32.6472 20.512 34.8395 20.9993C35.0242 21.0406 35.098 20.7617 34.9134 20.7203Z" fill="#57719B"/>
<path d="M33.8031 24.4577L28.0009 22.2519C27.8242 22.1848 27.7371 22.4663 27.927 22.5309L33.7292 24.7367C33.9059 24.7961 33.9771 24.5378 33.8031 24.4577Z" fill="#57719B"/>
<path d="M30.952 27.6374C29.7414 26.6682 28.4222 25.8372 27.0197 25.1603C26.8509 25.0777 26.7032 25.3282 26.872 25.4186C28.2516 26.0815 29.5496 26.896 30.741 27.8466C30.8861 27.9447 31.097 27.7433 30.952 27.6374Z" fill="#57719B"/>
<path d="M28.3148 30.7369C27.9877 30.6414 27.7055 30.2978 27.4497 30.086C27.1939 29.8742 26.9855 29.7063 26.7455 29.5255C26.2699 29.1708 25.7751 28.8414 25.2633 28.5388C25.0998 28.4433 24.9548 28.6912 25.1156 28.7971C25.7694 29.1837 26.3942 29.6153 26.9855 30.0886C27.3785 30.4037 27.7425 30.8816 28.2409 31.0262C28.4229 31.0701 28.4967 30.7912 28.3148 30.7369Z" fill="#57719B"/>
<path d="M17.6308 18.9871C17.5654 19.2783 17.4772 19.5641 17.367 19.8421C17.2985 20.0151 17.5833 20.1004 17.6519 19.9144C17.762 19.6364 17.8502 19.3506 17.9156 19.0594C17.9578 18.8786 17.6703 18.8063 17.6308 18.9871Z" fill="#FEDA66"/>
<path d="M18.6303 19.0879C18.5987 18.9045 18.3165 18.9794 18.3455 19.1628C18.382 19.3908 18.3988 19.6215 18.3956 19.8524C18.3956 19.8908 18.4111 19.9276 18.4388 19.9547C18.4665 19.9818 18.5041 19.997 18.5433 19.997C18.5824 19.997 18.62 19.9818 18.6477 19.9547C18.6754 19.9276 18.691 19.8908 18.691 19.8524C18.6933 19.5963 18.673 19.3405 18.6303 19.0879Z" fill="#FEDA66"/>
<path d="M19.8805 19.7646L19.7328 19.0621C19.6959 18.8813 19.411 18.9562 19.4506 19.137C19.4981 19.372 19.5482 19.6045 19.5957 19.8395C19.6352 20.0203 19.92 19.9454 19.8805 19.7646Z" fill="#FEDA66"/>
<path d="M19.5586 20.4052C19.5243 20.2218 19.2394 20.2967 19.2737 20.4801C19.3072 20.6504 19.3258 20.8232 19.3291 20.9967C19.3291 21.035 19.3447 21.0718 19.3724 21.0989C19.4001 21.1261 19.4376 21.1413 19.4768 21.1413C19.516 21.1413 19.5535 21.1261 19.5812 21.0989C19.6089 21.0718 19.6245 21.035 19.6245 20.9967C19.619 20.7981 19.597 20.6002 19.5586 20.4052Z" fill="#FEDA66"/>
<path d="M18.1821 20.7048C18.1636 20.5214 17.8709 20.5214 17.8867 20.7048C17.9078 20.8902 17.9078 21.0773 17.8867 21.2627C17.8629 21.4435 18.1504 21.521 18.1715 21.335C18.1974 21.1259 18.201 20.9147 18.1821 20.7048Z" fill="#FEDA66"/>
<path d="M16.6313 20.6454C16.5891 20.8262 16.5496 21.0045 16.51 21.1853C16.4705 21.3661 16.7527 21.4436 16.7949 21.2576L16.9162 20.7178C16.9557 20.537 16.6709 20.4646 16.6313 20.6454Z" fill="#FEDA66"/>
<path d="M20.996 21.5235C20.928 21.2762 20.8743 21.0252 20.8352 20.7719C20.8061 20.5885 20.5239 20.666 20.5503 20.8468C20.5877 21.1 20.6397 21.351 20.7059 21.5985C20.7161 21.6361 20.7411 21.6683 20.7755 21.6879C20.8098 21.7075 20.8508 21.713 20.8892 21.7031C20.9277 21.6931 20.9606 21.6686 20.9806 21.635C21.0006 21.6013 21.0062 21.5612 20.996 21.5235Z" fill="#FEDA66"/>
<path d="M15.6448 22.2132L15.5815 22.9623C15.5657 23.1483 15.8611 23.1457 15.8743 22.9623L15.9376 22.2132C15.9534 22.0221 15.658 22.0247 15.6448 22.2132Z" fill="#FEDA66"/>
<path d="M17.3195 22.3708C17.3077 22.3357 17.2826 22.3064 17.2494 22.2888C17.2162 22.2712 17.1774 22.2668 17.1409 22.2764C17.1045 22.286 17.0732 22.3088 17.0534 22.3403C17.0337 22.3718 17.027 22.4096 17.0347 22.4457C17.0899 22.6213 17.1148 22.8046 17.1085 22.9881C17.1085 23.0269 17.1242 23.064 17.1522 23.0913C17.1801 23.1187 17.218 23.1341 17.2576 23.1341C17.2971 23.1341 17.335 23.1187 17.3629 23.0913C17.3909 23.064 17.4066 23.0269 17.4066 22.9881C17.4114 22.7791 17.382 22.5707 17.3195 22.3708Z" fill="#FEDA66"/>
<path d="M19.0207 21.8593C18.9891 21.6759 18.7042 21.7509 18.7359 21.9342C18.7798 22.178 18.7948 22.4259 18.7807 22.673C18.7807 22.8589 19.0682 22.8564 19.0761 22.673C19.088 22.4006 19.0695 22.1277 19.0207 21.8593Z" fill="#FEDA66"/>
<path d="M20.5978 22.1642C20.5877 22.1265 20.5627 22.0943 20.5283 22.0747C20.4939 22.0551 20.453 22.0496 20.4145 22.0595C20.376 22.0695 20.3432 22.094 20.3231 22.1276C20.3031 22.1613 20.2975 22.2014 20.3077 22.2391C20.368 22.4667 20.4129 22.6979 20.4422 22.9313C20.4659 23.1147 20.7587 23.1147 20.7376 22.9313C20.7081 22.6729 20.6614 22.4166 20.5978 22.1642Z" fill="#FEDA66"/>
<path d="M19.7643 23.1638C19.7643 22.9804 19.4584 22.9804 19.4689 23.1638L19.5032 23.7837C19.5032 23.9696 19.8065 23.9671 19.796 23.7837L19.7643 23.1638Z" fill="#FEDA66"/>
<path d="M18.0633 23.1793C18.0369 22.9959 17.7521 23.0734 17.7784 23.2542C17.7973 23.3877 17.807 23.5223 17.8074 23.6571C17.8122 23.6918 17.8297 23.7237 17.8566 23.7467C17.8835 23.7698 17.9181 23.7825 17.9538 23.7825C17.9896 23.7825 18.0241 23.7698 18.051 23.7467C18.078 23.7237 18.0954 23.6918 18.1002 23.6571C18.0997 23.4972 18.0874 23.3375 18.0633 23.1793Z" fill="#FEDA66"/>
<path d="M16.4493 23.5046C16.4203 23.3213 16.1381 23.3962 16.1671 23.577C16.1961 23.7578 16.2225 23.9231 16.2488 24.0936C16.2752 24.264 16.5627 24.1995 16.5337 24.0187C16.5047 23.8379 16.4783 23.6622 16.4493 23.5046Z" fill="#FEDA66"/>
<path d="M20.7401 23.763C20.7374 23.9278 20.7034 24.0907 20.6399 24.2434C20.5687 24.4165 20.8535 24.5017 20.9247 24.3157C20.9943 24.1392 21.0318 23.9522 21.0355 23.763C21.0355 23.7246 21.0199 23.6878 20.9922 23.6607C20.9645 23.6336 20.927 23.6183 20.8878 23.6183C20.8486 23.6183 20.8111 23.6336 20.7834 23.6607C20.7557 23.6878 20.7401 23.7246 20.7401 23.763Z" fill="#FEDA66"/>
</g>
<defs>
<clipPath id="clip0">
<rect width="36" height="41" fill="white"/>
</clipPath>
</defs>
</svg>
