<svg width="34" height="52" viewBox="0 0 34 52" fill="none" xmlns="http://www.w3.org/2000/svg">
<g clip-path="url(#clip0)">
<path d="M19.0959 19.0101L17.8417 19.3184L17.6229 19.3712H17.5752C17.5948 19.3879 17.6706 19.4573 17.7744 19.5601L17.9989 19.7906C18.1871 19.9901 18.3605 20.2026 18.5179 20.4267C18.5849 20.5233 18.6449 20.6245 18.6975 20.7295C18.7211 20.7763 18.7417 20.8245 18.7592 20.8739C18.8537 20.863 18.9474 20.8463 19.0398 20.8239C19.3818 20.7227 19.6825 20.5165 19.8983 20.2351L20.1481 20.1378C20.4567 20.0045 20.1144 18.8018 19.5589 18.899L19.0959 19.0101Z" fill="#FCA89E"/>
<path d="M17.0477 21.6238C17.0627 21.6524 17.0862 21.6757 17.1151 21.6905C17.3283 21.796 17.6257 21.3794 17.8361 21.0127C18.0808 20.9041 18.3011 20.7483 18.4843 20.5544C18.5404 20.4961 18.5965 20.435 18.6498 20.3739L18.2374 20.0322L17.4826 20.6794C17.2133 21.0322 16.9579 21.4433 17.0477 21.6238Z" fill="#FCA89E"/>
<path d="M17.8305 21.9183C18.0606 21.9989 18.1111 21.5545 18.285 21.2128C18.4587 21.1244 18.6177 21.0101 18.7564 20.8739C18.8041 20.8267 18.849 20.7767 18.8911 20.7267C18.9332 20.6767 18.9416 20.6628 18.964 20.6295L18.5824 20.3517L18.5151 20.4184L17.9539 20.9739C17.7239 21.3323 17.5892 21.8322 17.8305 21.9183Z" fill="#FCA89E"/>
<path d="M16.6016 21.1489C16.7587 21.3211 17.1627 20.9322 17.4433 20.5934C17.753 20.5115 18.0405 20.3625 18.285 20.1573C18.3096 20.1403 18.333 20.1218 18.3552 20.1017L18.0073 19.7212L17.1487 20.2212C16.7924 20.5295 16.422 20.9517 16.6016 21.1489Z" fill="#FCA89E"/>
<path d="M16.192 20.435C16.1959 20.4608 16.2055 20.4854 16.2201 20.5072C16.3491 20.6961 16.8036 20.3683 17.1179 20.085C17.431 20.0608 17.7343 19.9658 18.0045 19.8072L18.0606 19.7767L17.9484 19.5572L17.8305 19.3267L17.8137 19.2961L17.6117 19.3795L17.5696 19.3961L17.2694 19.5156L16.8822 19.6711C16.5371 19.8933 16.1499 20.2044 16.192 20.435Z" fill="#FCA89E"/>
<path opacity="0.1" d="M17.8248 19.2879L17.2805 19.5073C17.4372 19.5761 17.6102 19.6001 17.7799 19.5768L17.9595 19.549L18.111 19.524C18.6722 19.8768 19.483 19.9323 19.455 19.0768C19.3339 19.0624 19.2139 19.0401 19.0958 19.0101L17.8248 19.2879Z" fill="#1D1D1B"/>
<path d="M18.5544 18.7018C18.5021 18.6777 18.4451 18.6652 18.3874 18.6652C18.3298 18.6652 18.2728 18.6777 18.2205 18.7018C17.8399 18.9109 17.3915 18.9638 16.9719 18.849C16.7755 19.0129 16.9467 19.2518 17.202 19.3434C17.6004 19.4906 17.6537 19.4434 18.0746 19.3768C18.6526 19.7295 19.758 20.21 19.4185 18.9296C19.1215 18.892 18.8309 18.8154 18.5544 18.7018Z" fill="#FCA89E"/>
<path opacity="0.1" d="M19.831 20.1157C19.5364 20.4545 19.239 20.6462 18.9332 20.6073C18.6273 20.5684 18.1728 20.0157 18.0213 19.5796C18.0067 19.5819 17.9935 19.5899 17.9848 19.6018C17.7314 19.8122 17.4121 19.9291 17.0814 19.9323C16.8176 20.2768 16.4781 20.5545 16.192 20.4351C16.1958 20.4609 16.2054 20.4856 16.22 20.5073C16.3491 20.6962 16.8036 20.3684 17.1179 20.0851C17.4305 20.0583 17.7332 19.9635 18.0045 19.8074C18.0479 19.9255 18.1014 20.0398 18.1644 20.149L17.4377 20.4545C17.115 20.7879 16.8766 21.1073 16.596 21.1489C16.7531 21.3212 17.1571 20.9323 17.4377 20.5934C17.7204 20.5216 17.9844 20.3909 18.2121 20.2101C18.2766 20.3184 18.3468 20.4268 18.4169 20.5212C18.25 20.6997 18.0347 20.827 17.7968 20.8879C17.5892 21.2767 17.3563 21.5684 17.0533 21.61C17.0683 21.6386 17.0918 21.6619 17.1207 21.6767C17.3339 21.7822 17.6313 21.3656 17.8417 20.999C18.0706 20.8951 18.278 20.7501 18.4534 20.5712C18.5095 20.6496 18.5724 20.723 18.6414 20.7906C18.5268 20.9333 18.381 21.0482 18.2149 21.1267C18.0634 21.5961 17.9343 21.8684 17.8361 21.9045C18.0662 21.985 18.1167 21.5406 18.2907 21.1989C18.4644 21.1105 18.6233 20.9963 18.762 20.8601L18.8518 20.8462H18.8742H18.9332H18.9612H19.0117C19.3637 20.7483 19.674 20.5397 19.8955 20.2518L20.1453 20.1546L20.1284 20.1018L19.831 20.1157Z" fill="#1D1D1B"/>
<path opacity="0.15" d="M22.4459 4.30534L22.864 4.49977C22.6667 4.43174 22.4583 4.40065 22.2495 4.40811L22.4375 4.25256C22.4417 4.26991 22.4445 4.28756 22.4459 4.30534Z" fill="#171715"/>
<path opacity="0.15" d="M22.7434 4.13596C22.8584 4.18596 22.9706 4.23318 23.0885 4.27484C22.8809 4.27484 22.6648 4.1554 22.4768 4.2304L22.7742 4.00541L22.8472 3.95264C22.8883 3.96062 22.9275 3.97668 22.9622 3.99986L23.2147 4.14429C23.0717 4.10818 22.9342 4.07763 22.7883 4.05263C22.7518 4.05263 22.6957 4.05263 22.6985 4.09152C22.7013 4.13041 22.7265 4.12763 22.7434 4.13596Z" fill="#171715"/>
<path opacity="0.15" d="M24.4549 5.71362C24.4324 5.78441 24.3951 5.84972 24.3455 5.90528L23.9078 6.46081C23.8411 6.56121 23.7518 6.64489 23.6468 6.70524C23.573 6.73782 23.4944 6.75845 23.414 6.76635C23.2761 6.79319 23.1363 6.80898 22.9959 6.81357C23.0604 6.77038 23.1206 6.72107 23.1755 6.66635C23.3578 6.48581 23.5065 6.27471 23.6945 6.11083C23.9386 5.89139 24.2557 5.72473 24.3707 5.4192C24.3946 5.35784 24.4088 5.29319 24.4128 5.22754L24.4549 5.5053C24.4693 5.57401 24.4693 5.64492 24.4549 5.71362Z" fill="#171715"/>
<path d="M10.8722 40.2756C10.8863 40.3838 10.9338 40.485 11.0081 40.5655C11.0824 40.646 11.1799 40.7019 11.2875 40.7256C11.5455 40.7908 11.8153 40.7965 12.0759 40.7422C12.8284 40.5953 13.5603 40.3594 14.256 40.0395L15.0977 39.6923C15.2374 39.652 15.3604 39.5682 15.4484 39.4534C15.5662 39.2562 15.4484 39.009 15.4063 38.784C15.3841 38.6178 15.3427 38.4548 15.2829 38.2979C15.1257 37.9952 14.7526 37.8896 14.4187 37.8146L13.1617 37.5369C13.0775 37.7265 12.9838 37.9119 12.8811 38.0924C12.5002 38.7639 11.9624 39.3353 11.3127 39.759C11.1135 39.884 10.8778 40.0395 10.8722 40.2756Z" fill="#343038"/>
<path d="M20.8467 43.7866L22.0223 42.5339C22.1692 42.4041 22.2737 42.2339 22.3225 42.0451C22.3758 41.6673 21.9886 41.3756 21.8848 41.0062C21.878 40.9458 21.8514 40.8892 21.809 40.8451C21.7678 40.8168 21.7189 40.8014 21.6687 40.8007C20.9659 40.7401 20.2578 40.8002 19.5757 40.9784C19.5311 41.8525 19.2394 42.6965 18.7339 43.4144C18.5908 43.6172 18.4225 43.8588 18.5095 44.0894C18.5677 44.1943 18.6528 44.2821 18.7562 44.3441C18.8597 44.406 18.9778 44.4398 19.0987 44.4422C19.4316 44.5173 19.7789 44.501 20.1031 44.3949C20.3926 44.2479 20.6463 44.0403 20.8467 43.7866Z" fill="#343038"/>
<path d="M22.4179 41.1089C22.3583 41.1715 22.2935 41.2291 22.2243 41.2811C22.0219 41.4328 21.7767 41.5183 21.5229 41.5255C20.7541 41.57 19.9741 41.0367 19.4943 41.3839L17.2497 35.0148L16.9439 33.9954L16.2733 26.943L15.4091 31.9427C15.636 33.6012 15.7784 35.2698 15.8356 36.9425C15.8805 38.0035 15.903 37.8952 15.9114 39.0285C15.8216 39.0285 15.7374 39.0285 15.656 39.0285C14.2784 39.0035 13.88 37.848 12.9934 38.0591C12.7886 36.5564 12.6118 36.3147 12.494 34.9398C12.3673 33.6114 12.3176 32.2768 12.3453 30.9428C12.4771 28.4151 12.3004 25.3347 12.7325 23.121C12.815 22.6628 12.9447 22.2142 13.1197 21.7822C13.1982 21.5988 18.9107 22.1349 18.9107 22.1349L19.7524 21.9099L20.2294 21.7822C20.2603 21.9599 20.3052 22.4571 20.336 22.7432C20.336 22.8015 20.3529 22.8515 20.3557 22.8877C20.597 24.3792 20.1256 25.7486 19.8254 26.7486C20.2294 28.879 20.3585 31.5427 20.4174 34.337C21.3234 36.0703 21.9339 37.9398 22.2243 39.8701C22.2804 40.2756 22.3506 40.6923 22.4179 41.1089Z" fill="#3F668A"/>
<path d="M24.2585 11.0522C24.2585 11.2828 24.2585 11.5161 24.2585 11.7494C24.2585 12.2383 24.1631 12.7827 23.7955 13.1104C22.7013 14.0854 21.4752 14.4992 20.51 15.2798C19.7693 15.8769 21.4611 19.2379 20.336 22.7377C20.045 23.1108 19.6875 23.4281 19.2811 23.6738C17.2469 24.9154 14.3065 24.3126 13.4423 23.7737C13.1576 23.6104 12.914 23.3853 12.7297 23.1155C12.6903 23.0547 12.6547 22.9916 12.623 22.9266C12.5978 22.8682 11.2763 20.9822 12.7661 17.8518L12.8727 14.7715V14.7215C12.8727 14.7215 10.9087 12.9354 9.2842 8.59678C9.18881 8.34124 9.09341 8.07737 9.00363 7.80516C8.86883 7.40091 8.84654 6.96817 8.9391 6.55245C9.27324 4.90977 9.96343 3.35842 10.962 2.00547C10.9889 1.98226 11.018 1.96178 11.049 1.94436C11.1791 1.88148 11.3205 1.84492 11.4651 1.83681C11.6096 1.8287 11.7543 1.84921 11.8907 1.89714C12.2302 1.98602 12.5361 2.22212 12.5501 2.49989C12.5487 2.5063 12.5487 2.51292 12.5501 2.51933L11.742 6.78299C12.3228 8.594 12.8335 9.08564 13.8604 10.5439L14.6544 10.9105L17.6958 11.1883L18.8181 11.4661C19.9937 11.5466 20.8719 11.505 21.6239 10.6328L22.0363 6.66633C22.0381 6.5034 22.1046 6.34772 22.2215 6.23302C22.5189 5.94137 23.1137 5.95526 23.5318 6.26357C23.6453 6.34771 23.7407 6.45348 23.8123 6.57467C23.9174 6.74262 23.98 6.93319 23.9947 7.13019C24.1263 8.02303 24.2059 8.92261 24.2332 9.82449C24.2528 10.2161 24.2585 10.63 24.2585 11.0522Z" fill="#DCDCDC"/>
<path d="M17.7856 11.0772C17.7772 11.1844 17.7772 11.2922 17.7856 11.3994C17.7856 11.7299 17.7856 11.8216 17.8052 12.1521C17.4798 13.3521 14.4215 13.7409 14.8171 12.2882C14.8674 11.9766 14.8974 11.6621 14.9069 11.3466C14.9069 11.2939 14.9069 11.2383 14.9069 11.1828C14.9069 10.6717 14.5955 10.1634 14.4608 9.51617C14.4294 9.28421 14.4163 9.05019 14.4215 8.81621C14.4393 8.47312 14.4958 8.13306 14.5898 7.80238C14.5953 7.58159 14.64 7.36347 14.7217 7.15797C15.3951 6.13302 17.0673 6.42467 17.6593 6.84687C17.9541 7.01419 18.1886 7.26867 18.3299 7.57461C18.7985 8.96065 17.881 10.4828 17.7856 11.0772Z" fill="#FCA89E"/>
<path d="M24.4549 5.71356C24.4324 5.78436 24.3952 5.84966 24.3455 5.90522L23.9078 6.46075C23.8411 6.56115 23.7518 6.64483 23.6468 6.70518C23.573 6.73776 23.4944 6.75839 23.414 6.76629C23.2761 6.79313 23.1363 6.80892 22.9959 6.81351C22.9427 6.81767 22.8892 6.81767 22.836 6.81351C22.6171 6.76242 22.4109 6.66793 22.2299 6.53574C22.2397 6.37664 22.2284 6.21696 22.1963 6.06077C22.1757 5.94772 22.1437 5.83699 22.1009 5.73023L22.0672 5.64412C22.035 5.56882 22.0069 5.49187 21.983 5.41358C21.951 5.27798 21.9359 5.13897 21.9382 4.99971C21.9289 4.89217 21.9443 4.78394 21.983 4.68306C22.0291 4.60452 22.0912 4.5364 22.1654 4.48308L22.2608 4.4053L22.4488 4.24975C22.4593 4.24393 22.4688 4.23642 22.4769 4.22753L22.7743 4.00255L22.8472 3.94977C22.9153 3.90077 22.9912 3.86323 23.0717 3.83867C23.2335 3.81669 23.3982 3.84179 23.5458 3.91088C23.703 3.97477 23.8601 4.04143 24.0116 4.11643C24.0968 4.1515 24.172 4.20683 24.2304 4.27753C24.2805 4.36231 24.3103 4.45734 24.3174 4.55529C24.3483 4.77473 24.3791 4.99416 24.4128 5.21359L24.4549 5.49135C24.4714 5.56453 24.4714 5.64039 24.4549 5.71356Z" fill="#FCA89E"/>
<path d="M13.6022 0.891638C13.5619 1.12976 13.5076 1.36534 13.4395 1.59716C13.4345 1.72775 13.3958 1.85492 13.3272 1.96658C13.2921 2.00689 13.2526 2.04323 13.2094 2.07491C13.0831 2.16935 12.9569 2.26656 12.825 2.35267C12.6697 2.45828 12.4995 2.54065 12.32 2.5971C12.1506 2.64546 11.9731 2.65962 11.7981 2.63877C11.6283 2.6179 11.4684 2.54839 11.338 2.43878C11.1611 2.26204 11.0478 2.03272 11.0153 1.78603C10.9704 1.54438 10.9676 1.29439 10.9339 1.04996C10.9153 0.958297 10.9153 0.863865 10.9339 0.772199C10.9698 0.674139 11.0295 0.58636 11.1079 0.516658L11.467 0.152788C11.5156 0.0921354 11.5795 0.0451989 11.6522 0.0166843C11.7079 0.00142857 11.7658 -0.00420933 11.8234 1.85219e-05L12.9625 0.0305724C12.9925 0.0286034 13.0224 0.0343449 13.0495 0.0472382C13.1112 0.0805698 13.114 0.169454 13.1617 0.219451C13.2028 0.248305 13.2497 0.268186 13.2992 0.277781C13.4082 0.335889 13.496 0.426362 13.5504 0.536475C13.6047 0.646588 13.6229 0.770799 13.6022 0.891638Z" fill="#FCA89E"/>
<path opacity="0.15" d="M22.8921 5.38028C22.6918 5.47244 22.5245 5.62256 22.4123 5.81081C22.375 5.8928 22.3227 5.96721 22.258 6.03025C22.2396 6.04423 22.2186 6.0546 22.1962 6.0608C22.1756 5.94775 22.1437 5.83702 22.1009 5.73026L22.0672 5.64415C22.0955 5.66256 22.1287 5.67236 22.1626 5.67236C22.1965 5.67236 22.2296 5.66256 22.258 5.64415C22.3506 5.57749 22.3365 5.44417 22.3365 5.33306C22.3398 5.18029 22.3854 5.03135 22.4684 4.90253C22.4534 4.96127 22.454 5.02286 22.4702 5.08129C22.4865 5.13972 22.5177 5.19297 22.561 5.23584C22.6029 5.28147 22.6541 5.3179 22.7111 5.34278C22.7681 5.36766 22.8298 5.38043 22.8921 5.38028Z" fill="#171715"/>
<path opacity="0.15" d="M13.1 1.02491L13.0411 1.69432C13.0382 1.74031 13.0306 1.7859 13.0186 1.83042C12.9932 1.89181 12.9632 1.95124 12.9288 2.00819C12.8867 2.11969 12.852 2.23382 12.825 2.34984C12.6697 2.45545 12.4996 2.53781 12.32 2.59427C12.1506 2.64262 11.9731 2.65679 11.7981 2.63593C11.8796 2.46206 11.9199 2.27205 11.916 2.08041C11.8907 1.66654 11.5765 1.32489 11.2791 1.02491L12.0058 1.0388L12.0899 1.42766C12.1064 1.54626 12.1485 1.65994 12.2134 1.76098C12.2357 1.80221 12.2688 1.83668 12.3094 1.86071C12.3499 1.88474 12.3962 1.89743 12.4435 1.89743C12.4907 1.89743 12.537 1.88474 12.5776 1.86071C12.6181 1.83668 12.6512 1.80221 12.6735 1.76098C12.6817 1.7519 12.6883 1.74158 12.6932 1.73043C12.7327 1.64875 12.7837 1.57301 12.8447 1.50544L12.8587 1.48877C12.8893 1.46676 12.9175 1.44162 12.9429 1.41378C12.9653 1.38067 12.9789 1.34242 12.9822 1.30267C13 1.20083 13.0093 1.09771 13.0102 0.994355C13.0149 0.947173 13.0082 0.899553 12.9906 0.855473C12.9176 0.699926 12.6286 0.68326 12.6342 0.511047C12.7128 0.680483 12.9934 0.666595 13.0747 0.830475C13.1023 0.891408 13.1111 0.95905 13.1 1.02491Z" fill="#171715"/>
<path opacity="0.15" d="M11.5484 0.613841C11.7565 0.623096 11.9636 0.646296 12.1685 0.683282C12.1923 0.68744 12.2152 0.695915 12.2359 0.70828C12.2589 0.72692 12.2772 0.75072 12.2892 0.777721C12.323 0.838761 12.353 0.901845 12.3789 0.9666C12.4264 1.10496 12.4658 1.24593 12.4968 1.3888C12.5289 1.53441 12.5985 1.66933 12.6988 1.78045C12.6785 1.65846 12.6367 1.54095 12.5753 1.43324C12.494 1.2277 12.5108 0.988821 12.4126 0.791609C12.3869 0.733192 12.3451 0.683132 12.292 0.647172C12.2275 0.614992 12.1565 0.597887 12.0843 0.597175C11.906 0.573513 11.7249 0.579144 11.5484 0.613841Z" fill="#171715"/>
<path opacity="0.15" d="M12.5753 0.622135C12.6528 0.935016 12.7464 1.24374 12.8559 1.54709C12.7886 1.2221 12.7072 0.902675 12.6259 0.583248C12.6186 0.552267 12.6053 0.523005 12.5866 0.497141C12.5552 0.46948 12.516 0.452026 12.4743 0.447144C12.2897 0.410551 12.1012 0.397483 11.9132 0.408257L12.4743 0.524918C12.5005 0.528279 12.5256 0.537803 12.5473 0.552694C12.5613 0.573723 12.5708 0.597347 12.5753 0.622135Z" fill="#171715"/>
<path opacity="0.15" d="M12.6259 0.29166H12.696H12.7241C12.7549 0.29166 12.7746 0.244441 12.8054 0.244441C12.5697 0.183681 12.3231 0.17703 12.0844 0.224997C12.2626 0.262556 12.4438 0.284859 12.6259 0.29166Z" fill="#171715"/>
<path opacity="0.2" d="M17.2525 35.0149L16.9523 33.9955L16.2733 26.9431L15.4091 31.9428C15.636 33.6012 15.7783 35.2699 15.8356 36.9425C15.5662 35.1019 15.3044 33.2687 15.05 31.4428C15.0201 31.2517 15.0069 31.0584 15.0107 30.8651C15.0372 30.6227 15.0918 30.3841 15.1734 30.154C15.4403 29.2763 15.642 28.3804 15.7767 27.4736C15.8063 27.3484 15.8063 27.2182 15.7767 27.0931C15.7289 26.9837 15.6614 26.8839 15.5775 26.7986C15.1098 26.2543 14.7517 25.6264 14.5225 24.9487C14.817 25.4384 15.2439 25.8369 15.7551 26.099C16.2663 26.3611 16.8413 26.4764 17.4152 26.432C17.0439 27.2086 16.8403 28.0534 16.8176 28.9124C16.6773 30.954 16.9663 32.9844 17.2525 35.0149Z" fill="#171715"/>
<path d="M17.2076 10.9995C17.1366 11.1385 17.035 11.26 16.9102 11.355C16.7862 11.4453 16.649 11.5165 16.5034 11.5661C16.2055 11.6553 15.897 11.7048 15.5859 11.7133C15.3518 11.751 15.1119 11.727 14.8901 11.6439C14.798 11.602 14.7158 11.5415 14.6488 11.4661C14.577 11.3894 14.5174 11.3023 14.472 11.2078C14.4245 11.1188 14.3851 11.0259 14.3542 10.93C14.0512 10.0273 14.2504 9.1968 14.3682 8.1052C14.3922 7.7598 14.5191 7.42921 14.733 7.15525C14.7618 7.11928 14.7937 7.08583 14.8284 7.05525C14.958 6.94463 15.1061 6.85721 15.2661 6.79693C15.8051 6.57656 16.4104 6.57656 16.9495 6.79693C17.1872 6.89989 17.3898 7.06876 17.5326 7.28317C17.6755 7.49757 17.7527 7.74834 17.7548 8.0052C17.78 8.41351 17.3283 10.7495 17.2076 10.9995Z" fill="#FCA89E"/>
<path d="M17.3058 8.84399L17.1936 9.59395L17.7182 9.44396L17.6481 10.6772C17.6475 10.7237 17.6586 10.7695 17.6805 10.8106C17.7024 10.8517 17.7343 10.8867 17.7734 10.9123C17.8125 10.938 17.8574 10.9536 17.9042 10.9577C17.9509 10.9617 17.9979 10.9541 18.0409 10.9355C18.1518 10.877 18.2491 10.7961 18.3264 10.698C18.4038 10.5999 18.4594 10.4869 18.4898 10.3661C18.863 9.21064 18.9808 7.69961 18.3411 7.5885C18.4058 7.74708 18.4118 7.92319 18.358 8.0857C18.2626 8.31069 18.1419 8.41068 17.7744 8.46623C17.5218 8.49123 17.3423 8.594 17.3058 8.84399Z" fill="#2B79E6"/>
<path d="M18.2626 9.46892C18.2149 9.80779 18.0072 10.2855 17.8108 10.2578C17.6144 10.23 17.4994 9.93278 17.5499 9.59391C17.6004 9.25504 17.6874 8.95783 17.9876 8.94117C18.1728 8.93006 18.3131 9.13283 18.2626 9.46892Z" fill="#FCA89E"/>
<path opacity="0.2" d="M24.2585 11.055C24.2585 11.2855 24.2585 11.5189 24.2585 11.7522C24.2585 12.241 24.1631 12.7855 23.7955 13.1132C22.7013 14.0882 21.4752 14.502 20.51 15.2825C19.7693 15.8797 21.4611 19.2407 20.336 22.7405C20.336 22.7988 20.3529 22.8488 20.3557 22.8849C20.597 24.3765 20.1256 25.7459 19.8254 26.7458C20.2294 28.8763 20.3585 31.54 20.4174 34.3343C21.3234 36.0675 21.9339 37.9371 22.2243 39.8673C22.2916 40.2756 22.3618 40.7006 22.4291 41.1089C22.3695 41.1715 22.3047 41.2291 22.2355 41.2811C22.0331 41.4329 21.7879 41.5183 21.5341 41.5256C21.1469 38.748 20.9729 36.1259 19.6795 34.226C20.2182 32.2983 19.8029 29.7012 19.0931 26.9014C19.5504 25.9736 19.7103 24.482 19.2811 23.6765C19.5124 23.1086 19.6708 22.5142 19.7524 21.9072C20.033 19.8906 19.7244 17.3963 19.1913 14.7215C21.2731 14.2909 23.3438 13.1188 24.2585 11.055Z" fill="#171715"/>
<path opacity="0.2" d="M12.8615 14.777V14.7215C12.8615 14.7215 10.8975 12.9355 9.27295 8.5968C10.8049 10.9106 11.9328 13.1243 13.3778 13.1327C13.09 13.6384 12.9141 14.1989 12.8615 14.777Z" fill="#171715"/>
<path opacity="0.2" d="M14.4075 11.5161L17.3142 11.3883C17.3367 13.9632 13.6976 14.3659 14.4075 11.5161Z" fill="#171715"/>
<path d="M17.1936 9.59392L16.7334 10.6078C16.6696 10.7517 16.569 10.8768 16.4416 10.9708C16.3142 11.0648 16.1644 11.1244 16.0068 11.1438C15.7003 11.1848 15.3891 11.1736 15.0865 11.1105C14.8587 11.0594 14.6547 10.9348 14.5063 10.7563C14.358 10.5778 14.2739 10.3555 14.2672 10.1244L14.2363 9.20227C13.0972 12.1354 14.5169 12.7882 16.2256 12.4938C16.7868 12.4688 17.3226 11.6299 17.3872 11.0716L17.5696 9.4717L17.1936 9.59392Z" fill="#2B79E6"/>
<path d="M0.667762 40.4006C0.518713 40.4041 0.372822 40.3578 0.253515 40.2693C0.134208 40.1808 0.0484081 40.0552 0.00989266 39.9126C-0.0286228 39.77 -0.0176191 39.6187 0.0411369 39.4831C0.0998928 39.3474 0.202992 39.2353 0.333879 39.1646L4.12444 36.998C4.20016 36.9546 4.28377 36.9264 4.3705 36.915C4.45723 36.9036 4.54539 36.9092 4.62993 36.9315C4.71448 36.9538 4.79376 36.9924 4.86324 37.045C4.93272 37.0977 4.99106 37.1633 5.0349 37.2383C5.07875 37.3133 5.10725 37.396 5.11878 37.4819C5.13032 37.5678 5.12465 37.655 5.10212 37.7387C5.07958 37.8224 5.04061 37.9009 4.98744 37.9697C4.93426 38.0385 4.86792 38.0962 4.7922 38.1396L0.99884 40.3062C0.899166 40.3668 0.784728 40.3994 0.667762 40.4006Z" fill="#343038"/>
<path d="M13.7144 46.3253C13.28 46.3329 12.85 46.2377 12.4603 46.0476L0.897798 40.034C0.826362 39.9972 0.772632 39.9338 0.748427 39.8577C0.724223 39.7817 0.731528 39.6992 0.768734 39.6285C0.805941 39.5578 0.870001 39.5046 0.946823 39.4806C1.02365 39.4566 1.10694 39.4639 1.17837 39.5007L12.7408 45.5143C13.0547 45.658 13.3971 45.7302 13.7429 45.7253C14.0886 45.7205 14.4289 45.6389 14.7385 45.4865H14.761C14.9686 45.3671 15.0921 45.2087 15.0949 45.081C15.0834 44.9982 15.0519 44.9193 15.003 44.8511C14.9542 44.7829 14.8894 44.7274 14.8143 44.6893L4.28714 38.0702C4.2229 38.026 4.17844 37.9589 4.16307 37.8829C4.14769 37.807 4.1626 37.7281 4.20465 37.6627C4.24671 37.5974 4.31266 37.5507 4.3887 37.5325C4.46474 37.5142 4.54497 37.5257 4.6126 37.5647L15.1313 44.1643C15.297 44.2538 15.4361 44.3848 15.5346 44.5442C15.6331 44.7036 15.6875 44.8858 15.6925 45.0726C15.6766 45.2669 15.6094 45.4536 15.4976 45.614C15.3858 45.7744 15.2334 45.9028 15.0556 45.9865H15.0331C14.6302 46.2094 14.1761 46.3261 13.7144 46.3253Z" fill="#9897A3"/>
<path d="M12.1078 42.4702L9.46901 43.9785L9.77203 44.498L12.4108 42.9898L12.1078 42.4702Z" fill="#9897A3"/>
<path d="M15.0808 45.4283L14.7175 46.0513L23.3993 51.0136L23.7626 50.3905L15.0808 45.4283Z" fill="#9897A3"/>
<path d="M23.7815 50.3556C23.7815 50.0973 23.5963 49.9946 23.3718 50.1223C23.2524 50.2002 23.1532 50.305 23.0825 50.4281C23.0118 50.5512 22.9715 50.6892 22.965 50.8306C22.965 51.0889 23.1474 51.1945 23.3718 51.0639C23.492 50.9865 23.5918 50.8819 23.663 50.7588C23.7342 50.6356 23.7749 50.4974 23.7815 50.3556Z" fill="#343038"/>
<path d="M23.6609 50.0945L23.0829 51.0834L23.8376 51.6445L24.5278 50.4612L23.6609 50.0945Z" fill="#343038"/>
<path d="M24.7383 50.8028C24.7383 50.4917 24.5166 50.364 24.2416 50.5251C24.098 50.618 23.9784 50.7432 23.8927 50.8903C23.8069 51.0375 23.7573 51.2026 23.7478 51.3722C23.7478 51.6861 23.9695 51.8111 24.2416 51.65C24.386 51.5575 24.5062 51.4326 24.5925 51.2853C24.6788 51.1381 24.7287 50.9728 24.7383 50.8028Z" fill="#47424D"/>
<path d="M3.51276 43.3977C3.39658 43.4119 3.27868 43.3951 3.17118 43.3493C3.06369 43.3034 2.97047 43.23 2.90111 43.1366C2.79633 42.9961 2.75197 42.8202 2.77773 42.6475C2.80349 42.4747 2.89727 42.319 3.03859 42.2144L6.55419 39.6312C6.62413 39.5744 6.70501 39.5322 6.79192 39.5072C6.87884 39.4823 6.96997 39.4751 7.05978 39.4861C7.14959 39.497 7.23621 39.526 7.31438 39.5711C7.39255 39.6162 7.46064 39.6766 7.51451 39.7486C7.56838 39.8206 7.60691 39.9027 7.62776 39.9899C7.6486 40.0771 7.65133 40.1675 7.63578 40.2558C7.62023 40.344 7.58672 40.4282 7.53728 40.5033C7.48785 40.5783 7.42352 40.6426 7.34821 40.6923L3.83262 43.2727C3.73974 43.3429 3.62901 43.3862 3.51276 43.3977Z" fill="#343038"/>
<path d="M17.16 47.8086C16.7286 47.8633 16.2903 47.8167 15.8805 47.6725L3.7008 43.006C3.66363 42.9922 3.6296 42.9712 3.60069 42.9442C3.57178 42.9172 3.54857 42.8849 3.53239 42.849C3.51621 42.8131 3.50738 42.7743 3.50643 42.735C3.50548 42.6957 3.51242 42.6566 3.52685 42.62C3.54113 42.5831 3.56264 42.5493 3.59015 42.5207C3.61765 42.492 3.65059 42.469 3.68709 42.453C3.72359 42.437 3.76293 42.4283 3.80284 42.4274C3.84275 42.4265 3.88245 42.4334 3.91965 42.4477L16.0994 47.1114C16.4272 47.2187 16.7751 47.2517 17.1175 47.2079C17.4599 47.1642 17.7879 47.0448 18.0774 46.8586H18.0999C18.1788 46.8125 18.2455 46.7483 18.2943 46.6715C18.3431 46.5947 18.3726 46.5074 18.3805 46.417C18.3805 46.2864 18.2458 46.1587 18.0466 46.0614L6.82359 40.6895C6.75104 40.6549 6.69535 40.5931 6.66878 40.5179C6.64221 40.4426 6.64693 40.36 6.6819 40.2881C6.71688 40.2163 6.77924 40.1612 6.85527 40.1349C6.93131 40.1086 7.01478 40.1132 7.08733 40.1479L18.3103 45.5226C18.4856 45.5918 18.6396 45.7051 18.7572 45.8512C18.8748 45.9973 18.9519 46.1713 18.9809 46.3559C18.9871 46.5503 18.9417 46.7429 18.8491 46.9145C18.7565 47.0861 18.6201 47.2306 18.4534 47.3336L18.431 47.3503C18.0537 47.6078 17.6162 47.7656 17.16 47.8086Z" fill="#ACABB9"/>
<path d="M15.1191 44.155L12.6719 45.9522L13.033 46.4341L15.4802 44.6368L15.1191 44.155Z" fill="#ACABB9"/>
<path d="M18.4145 46.7593L18.1255 47.4194L27.3239 51.3657L27.6128 50.7056L18.4145 46.7593Z" fill="#ACABB9"/>
<path d="M27.6253 50.6723C27.5945 50.4167 27.4009 50.3334 27.1933 50.4862C27.0835 50.5754 26.9967 50.6891 26.9401 50.8181C26.8835 50.9471 26.8587 51.0875 26.8678 51.2278C26.8959 51.4833 27.0895 51.5667 27.2999 51.4139C27.4092 51.3243 27.4956 51.2104 27.5521 51.0816C27.6086 50.9527 27.6337 50.8125 27.6253 50.6723Z" fill="#343038"/>
<path d="M27.4767 50.4251L27.0165 51.4751L27.8302 51.9445L28.3801 50.6918L27.4767 50.4251Z" fill="#343038"/>
<path d="M28.6186 51.0084C28.5822 50.6973 28.3381 50.5973 28.094 50.7834C27.9618 50.8924 27.8574 51.0307 27.7891 51.187C27.7209 51.3434 27.6908 51.5134 27.7012 51.6834C27.7376 51.9917 27.9817 52.0945 28.2258 51.9084C28.358 51.7994 28.4624 51.6611 28.5306 51.5048C28.5989 51.3484 28.629 51.1784 28.6186 51.0084Z" fill="#47424D"/>
</g>
<defs>
<clipPath id="clip0">
<rect width="34" height="52" fill="white"/>
</clipPath>
</defs>
</svg>
