<svg width="56" height="41" viewBox="0 0 56 41" fill="none" xmlns="http://www.w3.org/2000/svg">
<g clip-path="url(#clip0)">
<path d="M14.8612 23.3877C14.8405 23.3895 14.8198 23.3895 14.7991 23.3877L11.5969 23.0469L11.1893 21.6945L14.8718 22.3956L18.4161 21.4407L18.6252 22.2216L15.0171 23.3718C14.9664 23.3859 14.9137 23.3913 14.8612 23.3877Z" fill="#FCA89E"/>
<path d="M12.6939 21.7939L12.1179 23.3913L11.0156 22.8961C10.9249 22.8554 10.8433 22.7969 10.7755 22.7241C10.7078 22.6512 10.6554 22.5655 10.6213 22.472C10.5873 22.3785 10.5723 22.2791 10.5774 22.1797C10.5824 22.0803 10.6073 21.9829 10.6506 21.8933C10.8048 21.5756 11.005 21.3519 11.3594 21.4407L12.6939 21.7939Z" fill="#2B79E6"/>
<path d="M13.9095 37.8548L13.952 36.4864H15.0207L14.9639 37.8548H13.9095Z" fill="#FCA89E"/>
<path d="M7.53881 39.8445L8.00843 38.2045L7.01957 38.0093L6.37628 39.8445H7.53881Z" fill="#FCA89E"/>
<path d="M11.9921 28.6129L12.3129 29.8944L8.44249 30.0613C8.44249 30.0613 8.11996 28.9449 8.54351 28.4763C9.12123 27.8355 11.9921 28.6129 11.9921 28.6129Z" fill="#2F3D6E"/>
<path d="M9.48453 29.9193L13.9149 32.1965L13.8334 37.2336L15.0739 37.1981L15.6552 31.9622C15.6687 31.8555 15.6539 31.7471 15.6122 31.648C15.5705 31.5489 15.5034 31.4626 15.4177 31.3978L12.0754 28.9449L9.48453 29.9193Z" fill="#2F3D6E"/>
<path d="M8.45844 29.8395L8.30249 33.6803L6.44705 39.2979H7.90199L10.1633 33.9732C10.201 33.8823 10.2266 33.7868 10.2395 33.6892L10.9643 29.1366L8.45844 29.8395Z" fill="#2F3D6E"/>
<path d="M15.3295 36.806L13.6105 36.8153L13.6137 37.4152L15.3327 37.4059L15.3295 36.806Z" fill="#6072A6"/>
<path d="M8.23513 38.8257L6.43285 38.7228L6.31766 39.312L8.11994 39.415L8.23513 38.8257Z" fill="#6072A6"/>
<path d="M13.9096 37.8549L13.7642 38.7263C13.7642 38.7875 13.7885 38.8462 13.8317 38.8895C13.8749 38.9328 13.9335 38.9571 13.9946 38.9571H16.2151C16.2406 38.9573 16.266 38.9525 16.2896 38.9429C16.3132 38.9332 16.3347 38.919 16.3529 38.901C16.371 38.8831 16.3854 38.8616 16.3952 38.8381C16.405 38.8145 16.4101 38.7892 16.4101 38.7636C16.41 38.7337 16.4031 38.7043 16.3899 38.6775C16.3767 38.6508 16.3575 38.6274 16.3339 38.6092L14.9658 37.8566L13.9096 37.8549Z" fill="#222C38"/>
<path d="M6.37969 39.8445L6.11919 40.7142C6.11919 40.7754 6.14346 40.8341 6.18666 40.8773C6.22987 40.9206 6.28847 40.9449 6.34957 40.9449H8.78805C8.83975 40.9449 8.88933 40.9243 8.92589 40.8877C8.96245 40.8511 8.98298 40.8015 8.98298 40.7497C8.98305 40.72 8.9762 40.6908 8.96297 40.6643C8.94973 40.6378 8.93049 40.6148 8.90678 40.597L7.53868 39.8445H6.37969Z" fill="#222C38"/>
<path d="M9.41358 21.5934C8.32548 22.2252 8.36092 23.1215 8.26523 24.2433L7.60599 28.645C9.6989 29.3976 12.1764 28.4959 12.1764 28.4959V23.0292C12.1764 22.5128 11.604 21.3183 10.8667 21.3342C10.8667 21.3342 10.2961 21.0822 9.41358 21.5934Z" fill="#6484F1"/>
<path d="M10.3244 21.7939H10.5141C10.6317 21.793 10.7443 21.7457 10.8276 21.6624C10.9108 21.579 10.9579 21.4663 10.9589 21.3484L10.973 19.4368H9.88671L9.87431 21.3395C9.87336 21.3991 9.88433 21.4584 9.90657 21.5137C9.92881 21.569 9.96188 21.6193 10.0038 21.6617C10.0458 21.704 10.0957 21.7375 10.1508 21.7602C10.2059 21.7829 10.2649 21.7944 10.3244 21.7939Z" fill="#FCA89E"/>
<path d="M13.1546 25.4626C13.0695 25.4624 12.9856 25.4417 12.9101 25.4022L10.2271 24.3675L9.94705 22.644L13.2557 24.3976L16.6635 24.2201L16.761 25.0401L13.2167 25.4626H13.1546Z" fill="#FCA89E"/>
<path d="M11.8007 23.251L10.8101 24.9372L9.45086 23.8545C9.3644 23.7915 9.29153 23.7117 9.23663 23.6198C9.18173 23.5279 9.14593 23.4259 9.13136 23.3198C9.1168 23.2137 9.12378 23.1058 9.15188 23.0025C9.17998 22.8992 9.22863 22.8026 9.29491 22.7186C9.40762 22.573 9.56743 22.4712 9.74689 22.4307C9.92635 22.3902 10.1143 22.4136 10.2785 22.4967L11.8007 23.251Z" fill="#6484F1"/>
<path d="M10.9802 24.6585L10.8172 24.9372L9.48453 24.2166" stroke="#2B79E6" stroke-width="0.71" stroke-miterlimit="10"/>
<path d="M11.6448 23.5208L11.8007 23.251L9.97365 22.2712" stroke="#2B79E6" stroke-width="0.71" stroke-miterlimit="10"/>
<path d="M9.87437 20.5142C9.87437 20.5142 10.1721 21.2578 10.9607 21.1993V20.6153L9.87437 20.5142Z" fill="#DC9B85"/>
<path d="M11.9514 18.0311C11.9514 18.0311 13.0732 18.1642 12.0488 19.3197L11.7547 18.5316L11.9514 18.0311Z" fill="#3B3142"/>
<path d="M10.8101 20.9437C11.1481 20.9432 11.4721 20.8087 11.7112 20.5695C11.9503 20.3303 12.0851 20.006 12.086 19.6675V18.4251C12.0856 18.2779 12.027 18.1369 11.9231 18.0328C11.8191 17.9287 11.6783 17.87 11.5314 17.8696H10.1012C9.95427 17.87 9.81346 17.9287 9.70953 18.0328C9.60561 18.1369 9.54702 18.2779 9.54655 18.4251V19.6675C9.54747 20.0039 9.68055 20.3263 9.91701 20.5651C10.1535 20.804 10.4743 20.94 10.8101 20.9437Z" fill="#FCA89E"/>
<path d="M9.74678 19.3197C9.85525 19.26 9.95069 19.1792 10.0275 19.082C10.1043 18.9848 10.1608 18.8732 10.1939 18.7538C10.2269 18.6344 10.2357 18.5095 10.2198 18.3866C10.2039 18.2637 10.1636 18.1452 10.1012 18.0382H9.39235C9.32434 18.0272 9.25459 18.0362 9.19164 18.0643C9.12869 18.0923 9.07527 18.1382 9.03792 18.1962C8.88197 18.4038 9.26475 19.3197 9.26475 19.3197H9.74678Z" fill="#3B3142"/>
<path d="M10.1544 18.1642C10.1544 18.1642 12.2154 18.7623 12.5504 17.8287C12.9048 16.8313 11.8415 16.6538 11.3524 16.6875C10.1349 16.7691 8.86076 17.3779 9.48456 18.2618L10.1544 18.1642Z" fill="#3B3142"/>
<path d="M8.98122 19.483C8.98122 19.5735 9.00803 19.6621 9.05827 19.7374C9.10851 19.8127 9.17992 19.8714 9.26347 19.906C9.34701 19.9407 9.43894 19.9497 9.52763 19.9321C9.61632 19.9144 9.69779 19.8708 9.76173 19.8068C9.82567 19.7427 9.86922 19.6611 9.88686 19.5723C9.9045 19.4835 9.89545 19.3914 9.86084 19.3077C9.82624 19.224 9.76764 19.1525 9.69245 19.1022C9.61726 19.0519 9.52886 19.025 9.43843 19.025C9.37833 19.0248 9.31877 19.0365 9.26319 19.0594C9.20761 19.0823 9.15712 19.1161 9.11461 19.1586C9.07211 19.2012 9.03844 19.2518 9.01555 19.3074C8.99265 19.3631 8.98099 19.4228 8.98122 19.483Z" fill="#FCA89E"/>
<path d="M33.3342 29.6798C33.6865 29.6802 34.0348 29.7546 34.3567 29.8981C34.3567 29.8981 34.86 30.1732 35.2658 29.9957V24.0942C35.2649 23.8241 35.1575 23.5653 34.967 23.3742C34.7765 23.183 34.5183 23.075 34.2486 23.0736H28.5547C28.3473 22.6583 28.638 22.1347 28.638 22.1347C28.8097 21.748 28.8822 21.3244 28.849 20.9025C28.8157 20.4806 28.6777 20.0737 28.4475 19.7188C28.2172 19.3639 27.9021 19.0722 27.5307 18.8703C27.1593 18.6684 26.7435 18.5626 26.3209 18.5626C25.8983 18.5626 25.4824 18.6684 25.111 18.8703C24.7397 19.0722 24.4245 19.3639 24.1943 19.7188C23.9641 20.0737 23.8261 20.4806 23.7928 20.9025C23.7595 21.3244 23.8321 21.748 24.0038 22.1347C24.0038 22.1347 24.2944 22.6672 24.0871 23.0736H18.3896C18.119 23.0736 17.8595 23.181 17.6678 23.3723C17.4762 23.5636 17.368 23.8232 17.3671 24.0942V39.9795C17.3673 40.1137 17.394 40.2466 17.4455 40.3705C17.497 40.4945 17.5724 40.6071 17.6673 40.7018C17.7623 40.7966 17.8749 40.8717 17.9989 40.9229C18.1228 40.974 18.2556 41.0002 18.3896 41H34.2486C34.3828 41.0002 34.5157 40.974 34.6398 40.9227C34.7638 40.8714 34.8766 40.7962 34.9715 40.7012C35.0665 40.6063 35.1419 40.4935 35.1933 40.3693C35.2447 40.2452 35.2711 40.1121 35.2711 39.9777V34.4453C34.86 34.2679 34.3567 34.5412 34.3567 34.5412C34.0116 34.6939 33.6368 34.7675 33.2597 34.7567C32.8826 34.7458 32.5126 34.6508 32.1769 34.4785C31.8411 34.3061 31.548 34.0609 31.3189 33.7607C31.0898 33.4604 30.9306 33.1127 30.8528 32.743C30.775 32.3733 30.7806 31.9908 30.8692 31.6235C30.9578 31.2562 31.1272 30.9133 31.365 30.62C31.6028 30.3266 31.903 30.0901 32.2436 29.9278C32.5843 29.7654 32.9569 29.6813 33.3342 29.6815V29.6798Z" fill="#FF645F"/>
<path d="M52.1828 23.0984H46.6572C46.48 23.5102 46.7529 24.0142 46.7529 24.0142C46.897 24.337 46.9713 24.6866 46.9709 25.0401C46.9722 25.4189 46.8888 25.7931 46.7269 26.1354C46.5651 26.4778 46.3288 26.7795 46.0355 27.0185C45.7421 27.2576 45.3991 27.4279 45.0316 27.517C44.664 27.6061 44.2812 27.6117 43.9112 27.5335C43.5412 27.4553 43.1933 27.2951 42.8931 27.0648C42.5928 26.8346 42.3478 26.5399 42.176 26.2025C42.0041 25.8651 41.9098 25.4935 41.8999 25.1149C41.89 24.7362 41.9648 24.3602 42.1188 24.0142C42.1188 24.0142 42.3988 23.5102 42.2145 23.0984H36.3291C36.0581 23.0989 35.7983 23.2069 35.6066 23.3989C35.415 23.5908 35.3071 23.851 35.3066 24.1225V29.9956C34.8919 30.2033 34.3691 29.914 34.3691 29.914C33.9834 29.7433 33.5611 29.6717 33.1408 29.7057C32.7204 29.7397 32.3151 29.8783 31.9617 30.1089C31.6083 30.3394 31.318 30.6547 31.117 31.026C30.916 31.3974 30.8107 31.8131 30.8107 32.2355C30.8107 32.658 30.916 33.0737 31.117 33.4451C31.318 33.8164 31.6083 34.1317 31.9617 34.3622C32.3151 34.5928 32.7204 34.7314 33.1408 34.7654C33.5611 34.7994 33.9834 34.7278 34.3691 34.5571C34.3691 34.5571 34.8919 34.2678 35.3066 34.4755V40.0113C35.3071 40.2827 35.415 40.5427 35.6067 40.7344C35.7984 40.926 36.0583 41.0337 36.3291 41.0337H52.1899C52.4606 41.0337 52.7203 40.926 52.9117 40.7342C53.1031 40.5425 53.2107 40.2825 53.2107 40.0113V24.1261C53.2111 23.9908 53.1849 23.8568 53.1334 23.7318C53.0818 23.6068 53.0061 23.4933 52.9106 23.3977C52.815 23.3022 52.7015 23.2265 52.5766 23.1752C52.4517 23.1238 52.3178 23.0977 52.1828 23.0984Z" fill="#FCA89E"/>
<path d="M18.5792 23.0736H24.1013C24.2874 22.6618 24.0074 22.1578 24.0074 22.1578C23.8369 21.7714 23.7654 21.3485 23.7994 20.9275C23.8334 20.5065 23.9717 20.1006 24.2019 19.7466C24.4321 19.3927 24.7469 19.1019 25.1177 18.9006C25.4885 18.6993 25.9036 18.5939 26.3253 18.5939C26.7471 18.5939 27.1622 18.6993 27.533 18.9006C27.9038 19.1019 28.2185 19.3927 28.4487 19.7466C28.6789 20.1006 28.8173 20.5065 28.8513 20.9275C28.8852 21.3485 28.8138 21.7714 28.6433 22.1578C28.6433 22.1578 28.3633 22.6618 28.5476 23.0736H34.4382C34.7094 23.0736 34.9695 22.9657 35.1613 22.7737C35.353 22.5816 35.4608 22.3211 35.4608 22.0495V16.1853C35.8772 15.9776 36.3982 16.2687 36.3982 16.2687C36.784 16.4394 37.2062 16.511 37.6266 16.477C38.047 16.4429 38.4523 16.3044 38.8057 16.0738C39.1591 15.8433 39.4494 15.528 39.6504 15.1566C39.8514 14.7853 39.9566 14.3695 39.9566 13.9471C39.9566 13.5247 39.8514 13.109 39.6504 12.7376C39.4494 12.3663 39.1591 12.051 38.8057 11.8204C38.4523 11.5899 38.047 11.4513 37.6266 11.4173C37.2062 11.3833 36.784 11.4548 36.3982 11.6256C36.3982 11.6256 35.8772 11.9167 35.4608 11.709V6.17133C35.4608 5.89972 35.353 5.63923 35.1613 5.44717C34.9695 5.25511 34.7094 5.14722 34.4382 5.14722H18.5792C18.3081 5.14722 18.048 5.25511 17.8562 5.44717C17.6644 5.63923 17.5567 5.89972 17.5567 6.17133V22.0548C17.5581 22.3255 17.6665 22.5846 17.8581 22.7756C18.0497 22.9665 18.309 23.0736 18.5792 23.0736Z" fill="#FCA89E"/>
<path d="M16.5449 24.9265C16.8036 25.23 17.5373 25.2052 17.858 24.9265C17.9343 24.8656 17.9979 24.7902 18.045 24.7046C18.0921 24.619 18.1218 24.5249 18.1325 24.4278C18.1433 24.3306 18.1347 24.2323 18.1073 24.1385C18.08 24.0447 18.0344 23.9572 17.9732 23.8811C17.7145 23.5776 17.1421 23.6095 16.8213 23.8811C16.5006 24.1527 16.2879 24.6248 16.5449 24.9265Z" fill="#FCA89E"/>
</g>
<defs>
<clipPath id="clip0">
<rect width="56" height="41" fill="white"/>
</clipPath>
</defs>
</svg>
