<svg width="360" height="168" viewBox="0 0 360 168" fill="none" xmlns="http://www.w3.org/2000/svg">
<g clip-path="url(#clip0)">
<path d="M207.573 167.891C180.009 162.999 172.75 53.6894 158.938 50.4137C145.373 47.1983 145.832 85.9091 129.371 90.0535C112.91 94.1978 110.665 76.6552 96.0266 70.4538C82.0034 64.4997 66.7311 90.9644 66.5802 91.2358C66.5156 91.3487 66.4294 91.4478 66.3266 91.5274C66.2237 91.607 66.1061 91.6655 65.9806 91.6997C65.8551 91.7339 65.7241 91.743 65.5951 91.7265C65.466 91.7101 65.3415 91.6684 65.2286 91.6038C65.1157 91.5393 65.0166 91.4531 64.937 91.3502C64.8573 91.2474 64.7988 91.1299 64.7646 91.0044C64.7304 90.8789 64.7213 90.7479 64.7378 90.6189C64.7542 90.4899 64.7959 90.3654 64.8605 90.2525C65.5182 89.0943 81.1525 61.9962 96.799 68.6319C112.095 75.1229 113.694 91.9537 128.888 88.1351C144.257 84.2743 143.37 44.7009 159.421 48.4893C175.17 52.2053 182.857 166.027 208.937 166.027C224.088 166.027 241.846 104.749 254.88 59.7521C266.128 20.9387 272.24 0.63323 277.526 0.0299772C284.399 -0.790447 287.959 24.7634 292.141 51.9098C297.028 83.5745 303.111 122.985 313.175 124.584C323.24 126.182 326.451 108.429 329.287 92.7681C331.736 79.1828 333.848 67.4315 339.931 65.6579C353.682 61.598 348.65 82.7903 359.578 89.8303C359.798 89.9727 359.954 90.1969 360.009 90.4537C360.065 90.7105 360.016 90.9788 359.873 91.1996C359.731 91.4204 359.507 91.5756 359.25 91.631C358.993 91.6865 358.724 91.6376 358.504 91.4952C346.81 83.9546 351.812 64.2222 340.486 67.5581C328.798 71.0027 333.595 129.82 312.868 126.538C296.642 123.962 291.748 50.2508 283.94 16.2696C280.923 3.10054 278.606 1.92419 277.761 2.02071C272.56 2.60587 258.663 53.6894 256.751 60.3251C244.453 102.74 225.675 171.094 207.573 167.891Z" fill="#1194C8"/>
<path d="M199.125 167.891C171.567 162.999 164.308 53.6895 150.496 50.4138C136.932 47.2045 137.39 85.9092 120.929 90.0536C104.468 94.1979 102.224 76.6613 87.5849 70.4539C73.5616 64.5058 58.2894 90.9645 58.1385 91.2359C58.0081 91.4639 57.7924 91.6308 57.5389 91.6998C57.2854 91.7688 57.0149 91.7343 56.7869 91.6039C56.5588 91.4735 56.3919 91.2579 56.3229 91.0045C56.2539 90.7511 56.2884 90.4806 56.4188 90.2526C57.0765 89.0944 72.7108 61.9963 88.3572 68.632C103.654 75.123 105.253 91.9538 120.447 88.1352C135.821 84.2744 134.928 44.701 150.979 48.4894C166.728 52.2055 174.409 166.027 200.495 166.027C215.646 166.027 233.399 104.749 246.438 59.7522C257.686 20.9388 263.799 0.633335 269.084 0.0300818C275.788 -0.766212 279.264 23.1347 283.699 51.9099C288.587 83.5746 294.669 122.985 304.734 124.584C314.799 126.182 318.009 108.429 320.839 92.7682C323.295 79.1829 325.407 67.4316 331.489 65.658C345.241 61.5981 340.208 82.7904 351.13 89.8304C351.343 89.9753 351.491 90.1977 351.543 90.4503C351.595 90.7028 351.546 90.9655 351.406 91.1824C351.267 91.3994 351.049 91.5535 350.798 91.6119C350.547 91.6704 350.283 91.6285 350.062 91.4953C338.368 83.9547 343.37 64.2223 332.044 67.5583C320.356 71.0028 325.153 129.82 304.426 126.538C288.2 123.962 283.307 50.2509 275.499 16.2697C272.482 3.10064 270.164 1.9243 269.32 2.02082C264.148 2.62407 250.252 53.7437 248.339 60.3373C236.012 102.74 217.227 171.095 199.125 167.891Z" fill="#1194C8"/>
<path d="M190.677 167.891C163.126 162.999 155.867 53.6893 142.055 50.4136C128.49 47.2043 128.949 85.9091 112.451 90.0534C95.9542 94.1978 93.7457 76.6672 79.107 70.4537C65.0898 64.5056 49.8175 90.9643 49.6666 91.2358C49.5268 91.4454 49.3127 91.5942 49.0675 91.6522C48.8223 91.7102 48.5642 91.673 48.3453 91.5483C48.1264 91.4236 47.9629 91.2205 47.8879 90.98C47.8128 90.7395 47.8318 90.4796 47.9409 90.2525C48.6046 89.1003 64.2329 61.9961 79.8854 68.6319C95.1818 75.1229 96.7808 91.9537 111.975 88.1351C127.35 84.2743 126.456 44.7008 142.507 48.4893C158.256 52.2053 165.938 166.027 192.023 166.027C207.175 166.027 224.927 104.749 237.967 59.752C249.208 20.9387 255.327 0.651281 260.612 -0.000232432C267.147 -0.778429 270.545 21.4816 275.227 51.8795C280.115 83.5443 286.197 122.955 296.262 124.553C306.327 126.152 309.537 108.398 312.367 92.7379C314.823 79.1526 316.935 67.4013 323.017 65.6277C336.769 61.5678 331.73 82.7601 342.658 89.8C342.871 89.945 343.019 90.1674 343.071 90.42C343.123 90.6725 343.074 90.9352 342.934 91.1521C342.795 91.3691 342.577 91.5232 342.326 91.5816C342.075 91.6401 341.811 91.5982 341.59 91.465C329.896 83.9244 334.898 64.1919 323.572 67.5279C311.884 70.9725 316.681 129.79 295.954 126.508C279.722 123.932 274.835 50.2206 267.027 16.2393C264.01 3.07033 261.687 1.89398 260.848 1.9905C255.677 2.59376 241.78 53.7134 239.867 60.307C227.57 102.74 208.78 171.094 190.677 167.891Z" fill="#4396CA"/>
<path d="M182.26 167.891C154.684 162.999 147.419 53.6893 133.613 50.4136C120.048 47.2043 120.507 85.909 104.01 90.0534C87.5125 94.1977 85.304 76.6672 70.6653 70.4537C56.6481 64.5056 41.3758 90.9643 41.2249 91.2358C41.0851 91.4453 40.8711 91.5941 40.6258 91.6521C40.3806 91.7101 40.1226 91.673 39.9036 91.5483C39.6847 91.4235 39.5213 91.2205 39.4462 90.98C39.3711 90.7395 39.3901 90.4795 39.4992 90.2524C40.1629 89.1002 55.7912 61.9961 71.4437 68.6319C86.7401 75.1229 88.3391 91.9536 103.527 88.135C118.908 84.2742 118.009 44.7008 134.065 48.4892C149.814 52.2053 157.496 166.027 183.575 166.027C198.733 166.027 216.485 104.749 229.525 59.752C240.772 20.9387 246.885 0.633151 252.171 0.0298973C258.543 -0.736234 261.88 19.9071 266.785 51.8795C271.673 83.5443 277.755 122.955 287.82 124.553C297.885 126.152 301.095 108.398 303.925 92.7379C306.375 79.1526 308.493 67.4012 314.569 65.6277C328.333 61.5678 323.289 82.76 334.216 89.8C334.326 89.8705 334.42 89.9619 334.494 90.0688C334.568 90.1758 334.62 90.2963 334.648 90.4235C334.675 90.5506 334.677 90.682 334.654 90.8099C334.631 90.9379 334.583 91.0601 334.512 91.1694C334.441 91.2787 334.35 91.3731 334.243 91.4471C334.136 91.5211 334.016 91.5734 333.888 91.6008C333.761 91.6283 333.63 91.6304 333.502 91.6071C333.374 91.5838 333.252 91.5355 333.142 91.465C321.454 83.9243 326.456 64.1919 315.13 67.5279C303.442 70.9725 308.24 129.79 287.512 126.508C271.281 123.932 266.393 50.2206 258.549 16.2393C255.532 3.07029 253.215 1.89395 252.376 1.99047C247.205 2.59372 233.308 53.7134 231.395 60.307C219.128 102.74 200.362 171.094 182.26 167.891Z" fill="#1194C8"/>
<path d="M173.818 167.891C146.242 162.999 138.977 53.6894 125.171 50.4138C111.607 47.2045 112.065 85.9092 95.568 90.0536C78.9803 94.222 76.8623 76.6734 62.2236 70.4539C48.2064 64.5058 32.9341 90.9645 32.7772 91.2359C32.7133 91.3487 32.6277 91.4477 32.5254 91.5273C32.4231 91.6069 32.306 91.6655 32.181 91.6997C32.0559 91.7339 31.9253 91.743 31.7967 91.7266C31.6681 91.7102 31.544 91.6685 31.4316 91.6039C31.2035 91.4736 31.0363 91.2584 30.9662 91.0053C30.8961 90.7522 30.9289 90.4817 31.0575 90.2526C31.7212 89.1004 47.3495 61.9962 63.002 68.632C78.2984 75.123 79.8974 91.9538 95.0853 88.1352C110.466 84.2744 109.567 44.701 125.624 48.4894C141.373 52.2054 149.054 166.027 175.134 166.027C190.291 166.027 208.043 104.749 221.083 59.7521C232.331 20.9388 238.443 0.633333 243.723 0.03008C249.932 -0.699856 253.16 18.2725 258.344 51.9099C263.231 83.5746 269.314 122.985 279.378 124.584C289.443 126.182 292.653 108.429 295.483 92.7682C297.933 79.1829 300.051 67.4316 306.128 65.658C319.891 61.5981 314.847 82.7844 325.775 89.8304C325.995 89.9727 326.151 90.197 326.206 90.4538C326.262 90.7106 326.213 90.9789 326.07 91.1997C325.928 91.4205 325.704 91.5757 325.447 91.6311C325.19 91.6866 324.921 91.6377 324.701 91.4953C313.013 83.9547 318.015 64.2223 306.689 67.5582C295.001 71.0028 299.798 129.82 279.071 126.538C262.839 123.962 257.951 50.2509 250.137 16.2697C247.12 3.10064 244.803 1.92429 243.964 2.02082C238.793 2.62407 224.897 53.7437 222.984 60.3373C210.686 102.74 191.92 171.095 173.818 167.891Z" fill="#0A5DC1"/>
<path d="M166.408 167.915C138.7 164.254 131.284 53.6895 117.436 50.4138C103.877 47.1985 104.329 85.9092 87.8383 90.0536C71.2385 94.222 69.1628 76.6794 54.4939 70.4539C40.4707 64.5058 25.1984 90.9645 25.0475 91.2359C24.9171 91.4639 24.7014 91.6308 24.4479 91.6998C24.1945 91.7688 23.9239 91.7343 23.6959 91.6039C23.4678 91.4735 23.3009 91.2579 23.2319 91.0045C23.1629 90.7511 23.1974 90.4806 23.3278 90.2526C23.9855 89.1004 39.6199 61.9963 55.2663 68.632C70.5687 75.123 72.1617 91.9538 87.3556 88.1352C102.73 84.2744 101.837 44.701 117.894 48.4894C133.637 52.2055 141.325 166.027 167.404 166.027C182.555 166.027 200.314 104.749 213.353 59.7522C224.595 20.9388 230.714 0.633333 235.993 0.03008C242.202 -0.699856 245.425 18.2725 250.614 51.9099C255.496 83.5746 261.578 122.985 271.649 124.584C281.72 126.182 284.924 108.429 287.754 92.7682C290.204 79.1829 292.316 67.4316 298.398 65.658C312.156 61.5981 307.117 82.7904 318.045 89.8304C318.154 89.9009 318.249 89.9922 318.323 90.0992C318.397 90.2062 318.449 90.3267 318.476 90.4538C318.504 90.581 318.506 90.7123 318.483 90.8403C318.459 90.9683 318.411 91.0904 318.341 91.1997C318.27 91.3091 318.179 91.4034 318.072 91.4774C317.965 91.5515 317.844 91.6037 317.717 91.6311C317.59 91.6586 317.458 91.6607 317.33 91.6374C317.202 91.6141 317.08 91.5658 316.971 91.4953C305.277 83.9547 310.279 64.2223 298.959 67.5582C287.271 71.0028 292.068 129.82 271.335 126.538C255.109 123.962 250.216 50.2509 242.408 16.2697C239.391 3.10064 237.067 1.9243 236.229 2.02082C231.057 2.62407 217.161 53.7437 215.254 60.3373C202.365 104.773 184.154 170.316 166.408 167.915Z" fill="#1194C8"/>
<path d="M158.992 167.946C131.151 165.533 123.59 53.6955 109.706 50.4138C96.1412 47.1985 96.5998 85.9092 80.1026 90.0536C63.5028 94.222 61.4392 76.6794 46.7582 70.4539C32.741 64.5058 17.4687 90.9645 17.3179 91.2359C17.1781 91.4455 16.964 91.5943 16.7188 91.6523C16.4736 91.7103 16.2155 91.6732 15.9966 91.5484C15.7776 91.4237 15.6142 91.2206 15.5391 90.9802C15.4641 90.7397 15.483 90.4797 15.5921 90.2526C16.2559 89.1004 31.8842 61.9963 47.5366 68.632C62.833 75.123 64.4321 91.9538 79.6199 88.1352C94.9948 84.2744 94.1017 44.701 110.158 48.4894C125.907 52.2055 133.589 166.027 159.668 166.027C174.826 166.027 192.578 104.749 205.618 59.7522C216.865 20.9388 222.978 0.633333 228.264 0.03008C234.473 -0.699856 237.695 18.2725 242.878 51.9099C247.766 83.5746 253.848 122.985 263.913 124.584C273.978 126.182 277.188 108.429 280.018 92.7682C282.468 79.1829 284.586 67.4316 290.662 65.658C304.42 61.5981 299.388 82.7904 310.309 89.8304C310.522 89.9753 310.671 90.1977 310.722 90.4503C310.774 90.7028 310.725 90.9655 310.586 91.1824C310.447 91.3994 310.228 91.5535 309.977 91.6119C309.726 91.6704 309.462 91.6285 309.241 91.4953C297.547 83.9547 302.549 64.2223 291.223 67.5582C279.535 71.0028 284.332 129.82 263.605 126.538C247.374 123.962 242.486 50.2509 234.672 16.2697C231.655 3.10064 229.338 1.9243 228.499 2.02082C223.328 2.62407 209.431 53.7437 207.519 60.3373C194.044 106.776 176.383 169.544 158.992 167.946Z" fill="#2A2873"/>
<path d="M151.582 167.97C123.608 166.751 115.897 53.6895 101.976 50.4138C88.4176 47.1985 88.8701 85.9092 72.379 90.0536C55.7611 94.2281 53.7034 76.6855 39.0285 70.4539C25.0113 64.5058 9.733 90.9645 9.58215 91.2359C9.45172 91.4663 9.23509 91.6355 8.97991 91.7062C8.72473 91.7769 8.45191 91.7434 8.22146 91.613C7.99101 91.4826 7.82181 91.266 7.75109 91.0109C7.68036 90.7558 7.7139 90.483 7.84433 90.2526C8.50205 89.0944 24.1364 61.9963 39.7828 68.632C55.0792 75.123 56.6782 91.9538 71.8721 88.1352C87.2349 84.2744 86.3539 44.701 102.411 48.4894C118.154 52.2055 125.841 166.027 151.92 166.027C167.072 166.027 184.83 104.749 197.87 59.7522C209.111 20.9388 215.23 0.633333 220.51 0.03008C226.725 -0.699856 229.941 18.2725 235.131 51.9099C240.012 83.5746 246.094 122.985 256.165 124.584C266.236 126.182 269.44 108.429 272.27 92.7682C274.72 79.1829 276.838 67.4316 282.914 65.658C296.666 61.5981 291.634 82.7904 302.561 89.8304C302.782 89.9728 302.938 90.197 302.993 90.4538C303.048 90.7106 303 90.979 302.857 91.1997C302.715 91.4205 302.49 91.5757 302.234 91.6311C301.977 91.6866 301.708 91.6377 301.487 91.4953C289.793 83.9547 294.796 64.2223 283.476 67.5582C271.806 70.9666 276.603 129.784 255.846 126.502C239.62 123.926 234.726 50.2147 226.918 16.2335C223.901 3.06444 221.578 1.8881 220.739 1.98462C215.598 2.60597 201.696 53.6895 199.789 60.3252C185.723 108.833 168.617 168.772 151.582 167.97Z" fill="#40AFCA"/>
<path d="M144.167 168C116.066 168 108.204 53.7136 94.2411 50.4138C80.6765 47.1985 81.1351 85.9092 64.6379 90.0536C48.02 94.2281 45.9925 76.6915 31.2935 70.4539C17.2763 64.4998 2.00397 90.9645 1.85312 91.2359C1.71332 91.4455 1.49923 91.5943 1.25402 91.6523C1.00881 91.7103 0.750728 91.6732 0.53181 91.5484C0.312892 91.4237 0.149425 91.2206 0.0743694 90.9802C-0.000685813 90.7397 0.0182546 90.4797 0.127371 90.2526C0.791121 89.0944 16.4194 61.9963 32.0719 68.632C47.3622 75.123 48.9673 91.9538 64.1551 88.1352C79.5179 84.2744 78.6369 44.701 94.6937 48.4894C110.425 52.2055 118.124 166.027 144.215 166.027C159.367 166.027 177.119 104.749 190.159 59.7522C201.407 20.9388 207.519 0.633333 212.805 0.03008C219.02 -0.699856 222.236 18.2725 227.42 51.9099C232.307 83.5746 238.39 122.985 248.454 124.584C258.519 126.182 261.729 108.429 264.559 92.7682C267.009 79.1829 269.127 67.4316 275.21 65.658C288.961 61.5981 283.929 82.7904 294.851 89.8304C295.064 89.9753 295.212 90.1977 295.263 90.4503C295.315 90.7028 295.266 90.9655 295.127 91.1824C294.988 91.3994 294.769 91.5535 294.518 91.6119C294.267 91.6704 294.003 91.6285 293.783 91.4953C282.088 83.9547 287.091 64.2223 275.765 67.5582C264.077 71.0028 268.874 129.82 248.147 126.538C231.915 123.962 227.027 50.2509 219.183 16.2697C216.166 3.10064 213.849 1.9243 213.01 2.02082C207.839 2.62407 193.942 53.7437 192.03 60.3373C177.403 110.86 160.851 168 144.167 168Z" fill="#00FFF8"/>
</g>
<defs>
<clipPath id="clip0">
<rect width="360" height="168" fill="white"/>
</clipPath>
</defs>
</svg>
