<svg width="134" height="126" viewBox="0 0 134 126" fill="none" xmlns="http://www.w3.org/2000/svg">
<path d="M7.72966 93.8592L6.12561 94.882L8.95823 98.7154L10.5262 97.7507L7.72966 93.8592Z" fill="#FCA89E"/>
<path d="M6.12719 94.8819C6.12719 94.8819 7.67155 96.9086 8.32668 97.7381C8.98182 98.5676 9.89774 98.4718 9.417 99.0248C8.93625 99.5778 7.68883 102.026 7.75324 103.146C7.81766 104.266 8.64561 111.416 7.12481 111.975C5.60402 112.534 4.18534 109.482 2.71639 105.028C1.24744 100.574 0.045591 100.786 3.00843e-05 97.5606C-0.0156806 96.5567 6.12719 94.8819 6.12719 94.8819Z" fill="#2A2873"/>
<path d="M118.781 120.288H109.518V126H118.781V120.288Z" fill="#D1C0BA"/>
<path d="M16.2512 126H25.5142V120.287H16.2512V126Z" fill="#D1C0BA"/>
<path d="M48.8994 75.1459C48.8994 75.1459 37.5296 88.3114 33.9742 89.4096C26.9704 91.5714 9.93692 98.1117 9.93692 98.1117L7.42322 94.0552C7.42322 94.0552 18.3861 87.2242 22.4897 84.8645C27.5391 81.9596 30.7159 81.7931 32.6216 77.6486C33.8973 74.8757 36.8854 65.2104 36.8854 65.2104L48.8994 75.1459Z" fill="#FCA89E"/>
<path d="M85.6923 109.306L86.7606 110.896L90.55 107.953L89.5429 106.399L85.6923 109.306Z" fill="#FCA89E"/>
<path d="M55.3754 66.8837C55.3754 66.8837 54.8727 67.6394 53.974 68.8617C53.4713 69.5451 52.846 70.3731 52.117 71.2984C51.9128 71.5561 51.7007 71.8232 51.4808 72.0965C50.9796 72.725 50.4376 73.3722 49.8594 74.0462C49.5452 74.4076 49.231 74.7752 48.9026 75.146C48.7895 75.1318 38.9594 73.8169 34.4944 71.1759C35.4494 69.0915 36.2037 66.921 36.7473 64.6937C37.8643 59.8626 39.715 54.1503 41.4448 52.353C42.8933 50.8432 55.3754 66.8837 55.3754 66.8837Z" fill="#2B79E6"/>
<path d="M81.1157 37.8032C81.1157 37.8032 81.8321 35.742 81.95 35.4309C82.0678 35.1198 82.8298 34.5841 83.7567 34.0452C84.6836 33.5063 86.1777 33.1921 86.3427 33.2738C86.5076 33.3555 86.715 33.3618 86.9428 33.7766C87.0834 34.0523 87.1505 34.3597 87.1376 34.6689C87.1376 34.6689 87.6608 35.0491 87.5744 35.6336C87.7159 35.7593 87.8168 35.9243 87.8643 36.1075C87.9119 36.2907 87.9039 36.4839 87.8415 36.6626C87.8415 36.6626 88.2971 37.0444 88.1054 37.5031C88.1054 37.5031 87.345 38.042 87.1203 38.3217C86.8957 38.6013 85.235 39.6131 83.4943 40.3373C83.4943 40.3373 81.6028 41.2109 81.1157 37.8032Z" fill="#FCA89E"/>
<path d="M83.9533 36.5578C83.9533 36.5578 84.0271 37.6496 83.8936 37.9717C83.76 38.2938 86.1622 38.8594 86.1622 38.8594C86.1622 38.8594 85.2808 36.4981 83.9533 36.5578Z" fill="#CF8C6C"/>
<path d="M80.3646 38.5872C80.3646 38.5872 81.1988 37.8016 81.5665 37.1182C81.9341 36.4348 83.5931 40.0325 83.5931 40.0325C83.5931 40.0325 81.5225 40.1174 80.6081 40.7584C79.6937 41.3994 80.3646 38.5872 80.3646 38.5872Z" fill="#FCA89E"/>
<path d="M86.0945 33.4059C86.0945 33.4059 83.7788 34.8293 83.9626 35.2315C84.0018 35.3397 84.0674 35.4364 84.1536 35.5127C84.2398 35.589 84.3437 35.6425 84.4559 35.6682L83.7693 36.6879C83.7693 36.6879 83.6955 37.6179 84.7308 37.4278C84.7308 37.4278 84.5737 38.2903 85.5494 37.9856C85.5494 37.9856 85.6986 38.6014 86.1778 38.5417C86.657 38.482 88.1071 37.5032 88.1071 37.5032C88.1071 37.5032 88.3207 37.1592 87.8431 36.6627C87.9073 36.4842 87.9161 36.2905 87.8685 36.1069C87.8208 35.9234 87.7189 35.7584 87.5761 35.6337C87.5761 35.6337 87.6876 35.1168 87.1393 34.669C87.1393 34.669 87.2964 33.497 86.3443 33.2739C86.3428 33.2739 86.1919 33.3446 86.0945 33.4059Z" fill="#DB9C7C"/>
<path d="M82.0191 35.3776C82.0191 35.3776 83.8776 35.2331 84.9287 35.6007C85.1659 35.6824 85.3811 35.8065 85.4 36.0595C85.4188 36.3124 85.0638 36.6486 84.261 36.7523C83.4582 36.856 82.4684 37.3572 82.4684 37.3572C82.4684 37.3572 81.6074 37.2236 82.0191 35.3776Z" fill="#FCA89E"/>
<path d="M59.0895 24.3329L65.0909 39.5031C65.0909 39.5031 65.3894 41.6052 69.7727 40.185C74.2455 38.7349 81.4489 36.8496 81.4489 36.8496C81.4489 36.8496 83.518 40.13 82.9885 40.4379C81.4583 41.3318 68.9872 46.9311 63.8435 48.3325C59.7587 49.4464 51.9568 28.5685 51.9568 28.5685L59.0895 24.3329Z" fill="#FCA89E"/>
<path d="M65.9801 65.0659C65.9801 65.0659 76.7309 76.497 76.9179 80.2126C77.1048 83.9282 89.9577 107.032 89.9577 107.032L86.1023 109.909C86.1023 109.909 72.5031 91.9563 70.1073 87.8715C67.4365 83.3154 68.1387 82.3021 63.9691 79.7978C61.3533 78.2268 55.3754 74.8584 55.3754 74.8584L65.9801 65.0659Z" fill="#FCA89E"/>
<path d="M58.3557 56.0072C58.3557 56.0072 63.523 62.0951 68.5677 67.9253C68.5677 67.9253 60.1577 72.4374 55.5985 74.9794C55.5985 74.9794 38.6577 63.5514 37.4982 59.4667C36.9217 57.451 58.3557 56.0072 58.3557 56.0072Z" fill="#2B79E6"/>
<path d="M63.1004 46.8198C61.4759 50.8433 59.1413 55.5989 60.1468 58.1127C60.1468 58.1127 53.9898 59.9508 36.0435 60.9406C36.0435 60.9406 40.4927 54.1379 44.3701 46.614C44.5712 46.2213 44.7723 45.8285 44.9702 45.4326C47.1242 41.1326 49.0079 36.7037 49.707 33.2521C49.8547 32.5168 49.5672 31.7706 49.5656 31.0526C49.5623 30.1227 49.6322 29.1939 49.7746 28.275C50.2798 24.9782 51.7253 21.8972 53.9379 19.4016C54.2395 19.0633 54.5538 18.7417 54.8805 18.4369C55.7928 17.5693 56.8129 16.8226 57.9158 16.2155C59.6608 17.1796 61.2425 18.4134 62.6023 19.8713C62.8914 20.1855 66.9416 26.2499 67.3689 32.2419C67.8827 39.5709 65.4036 41.1184 63.1004 46.8198Z" fill="#FF645F"/>
<path d="M86.5861 110.636C86.5861 110.636 88.685 109.054 89.5428 108.387C90.4006 107.719 90.3048 106.784 90.8719 107.274C91.4391 107.765 93.9449 109.067 95.0949 109.003C96.245 108.938 103.602 108.135 104.168 109.7C104.733 111.265 101.588 112.706 97.0007 114.189C92.4132 115.672 92.6221 116.902 89.3024 116.935C88.2765 116.954 86.5861 110.636 86.5861 110.636Z" fill="#2A2873"/>
<path d="M70.9839 6.30039C70.9839 6.30039 71.8307 9.4928 70.9697 9.75674C70.258 9.9704 70.9478 13.0686 71.0169 13.565C71.086 14.0615 69.6988 14.0756 69.35 14.3018C69.0012 14.5281 67.317 17.9153 66.2079 17.7676C65.0987 17.6199 60.6541 14.7637 59.6612 13.0717C58.6683 11.3797 59.0736 4.90214 60.585 2.50312C62.0964 0.104103 69.4741 0.716817 70.9839 6.30039Z" fill="#FCA89E"/>
<path d="M63.845 15.7456C63.845 15.7456 63.7774 16.0441 63.6879 16.5076C63.6172 16.8501 63.5308 17.2806 63.4412 17.7472C63.204 19.0119 62.9699 20.539 63.0312 21.2601C63.1537 22.6065 57.9174 16.2107 57.9174 16.2107C58.6371 13.2859 59.0887 10.3016 59.2669 7.29486C59.534 2.41512 63.845 15.7456 63.845 15.7456Z" fill="#FCA89E"/>
<path d="M71.1628 6.96174C71.1628 6.96174 73.4268 4.31135 71.144 1.36717C68.8613 -1.57701 62.6932 1.14879 62.0695 1.15979C61.4458 1.17079 58.1026 0.597346 58.3367 6.85491C58.5708 13.1125 58.7326 12.129 58.7326 12.129C58.7326 12.129 60.1041 9.53044 61.2212 9.53829C62.434 9.53829 64.3947 9.74253 64.3947 9.74253C64.3947 9.74253 64.0334 6.85648 65.6814 6.85491C67.3295 6.85333 69.7269 5.99239 71.1628 6.96174Z" fill="#421504"/>
<path d="M63.0986 7.82415C63.0484 7.42824 63.0986 6.18081 61.5276 6.77625C59.9565 7.37168 61.3233 10.4133 61.548 10.5075C61.7726 10.6018 63.5228 11.158 63.0986 7.82415Z" fill="#FCA89E"/>
<path d="M63.6801 16.5075C63.6094 16.85 63.523 17.2804 63.4335 17.7471C62.1402 16.4907 60.9914 15.0937 60.0085 13.5822C60.7611 14.5939 63.6801 16.5075 63.6801 16.5075Z" fill="#A77860"/>
<path d="M51.4791 72.0966C50.9779 72.725 50.4359 73.3723 49.8578 74.0463C47.0471 71.2639 43.5609 66.0338 43.5609 66.0338C45.6693 67.8547 51.4791 72.0966 51.4791 72.0966Z" fill="#1B1C2E"/>
<path d="M59.5891 29.3259L44.8651 36.3501C44.8651 36.3501 42.7881 36.7916 44.5037 41.0633C46.2554 45.4278 48.1894 52.3656 48.1894 52.3656C48.1894 52.3656 45.4966 54.7725 45.1526 54.2666C44.1581 52.8008 37.7198 40.7413 35.9697 35.7044C34.5808 31.7092 54.8759 22.4965 54.8759 22.4965L59.5891 29.3259Z" fill="#FCA89E"/>
<path d="M60.5097 24.333C60.5097 24.333 63.6252 29.6982 52.9325 33.2614L50.9796 24.0581C50.9796 24.0581 57.7258 18.3237 60.5097 24.333Z" fill="#FF556F"/>
<path d="M57.9095 16.2108C57.9095 16.2108 68.4797 36.9772 67.1678 30.4573C65.6942 23.1361 64.541 22.4998 63.1255 19.6326L57.9095 16.2108Z" fill="#FCA89E"/>
<path d="M133.838 117.558H1.19409V123.711H133.838V117.558Z" fill="#2B79E6"/>
<path d="M127.676 122.795L98.7839 79.8844L124.664 32.6644L127.651 34.3015L102.767 79.7022L130.502 120.892L127.676 122.795Z" fill="#2B79E6"/>
<path d="M114.367 57.781H81.7961C80.9432 57.781 80.2517 58.4725 80.2517 59.3254V60.6309C80.2517 61.4838 80.9432 62.1753 81.7961 62.1753H114.367C115.22 62.1753 115.912 61.4838 115.912 60.6309V59.3254C115.912 58.4725 115.22 57.781 114.367 57.781Z" fill="#0559CE"/>
<path d="M112.919 61.8345L111.744 61.1841C111.109 60.833 110.64 60.2442 110.439 59.5471C110.238 58.85 110.323 58.1018 110.674 57.467L127.311 27.381C127.485 27.0666 127.719 26.7894 128 26.5654C128.281 26.3415 128.603 26.175 128.948 26.0757C129.294 25.9763 129.655 25.9459 130.012 25.9863C130.369 26.0267 130.714 26.1371 131.029 26.3111L132.202 26.96C132.517 27.1337 132.794 27.3676 133.018 27.6485C133.242 27.9293 133.408 28.2516 133.508 28.5968C133.607 28.942 133.637 29.3034 133.597 29.6604C133.556 30.0174 133.446 30.3628 133.272 30.6771L116.636 60.7646C116.285 61.3991 115.696 61.8681 114.999 62.0688C114.302 62.2694 113.554 62.1851 112.919 61.8345Z" fill="#0559CE"/>
<path d="M47.2292 59.5374C47.2292 59.5374 46.7988 59.195 46.6841 58.953C46.6841 58.953 46.5081 58.499 46.3699 58.1832C46.3227 58.0826 46.2803 57.9962 46.2473 57.9428C46.1091 57.7229 45.7383 57.2798 45.5529 56.6561C45.3675 56.0324 44.8176 53.7182 44.8176 53.7182L46.8066 53.0584L48.0792 51.9586C48.0792 51.9586 51.1302 54.6546 51.369 55.2154C51.3918 55.2666 51.4118 55.3191 51.4287 55.3725C51.5858 55.8674 51.4947 56.301 51.5465 56.5697C51.5654 56.6687 51.6848 57.6694 51.479 57.88C51.3727 58.0079 51.2356 58.1068 51.0806 58.1672C50.9256 58.2277 50.7578 58.2478 50.5929 58.2256C50.5929 58.2256 50.0069 58.7912 49.4601 58.8352C49.4601 58.8352 48.9354 59.3756 48.2394 59.2374C48.2331 59.2405 47.6408 59.7291 47.2292 59.5374Z" fill="#FCA89E"/>
</svg>
