<svg width="151" height="143" viewBox="0 0 151 143" fill="none" xmlns="http://www.w3.org/2000/svg">
<path d="M8.72088 105.895L6.91113 107.049L10.107 111.374L11.876 110.286L8.72088 105.895Z" fill="#FCA89E"/>
<path d="M6.9129 107.049C6.9129 107.049 8.65529 109.335 9.39444 110.271C10.1336 111.207 11.167 111.099 10.6246 111.723C10.0822 112.347 8.67479 115.109 8.74746 116.372C8.82013 117.636 9.75426 125.703 8.03845 126.334C6.32264 126.965 4.72204 123.521 3.06472 118.496C1.40741 113.471 0.0514373 113.71 3.3942e-05 110.071C-0.0176913 108.938 6.9129 107.049 6.9129 107.049Z" fill="#2A2873"/>
<path d="M134.012 135.712H123.561V142.157H134.012V135.712Z" fill="#D1C0BA"/>
<path d="M18.3351 142.157H28.7859V135.712H18.3351V142.157Z" fill="#D1C0BA"/>
<path d="M55.17 84.7817C55.17 84.7817 42.3422 99.6355 38.331 100.875C30.429 103.314 11.2113 110.693 11.2113 110.693L8.37524 106.116C8.37524 106.116 20.7439 98.4089 25.3738 95.7466C31.0707 92.4692 34.6548 92.2813 36.8048 87.6054C38.2441 84.4769 41.6155 73.5723 41.6155 73.5723L55.17 84.7817Z" fill="#FCA89E"/>
<path d="M96.6809 123.323L97.8862 125.116L102.162 121.796L101.025 120.043L96.6809 123.323Z" fill="#FCA89E"/>
<path d="M62.4764 75.4604C62.4764 75.4604 61.9092 76.3129 60.8953 77.692C60.3281 78.463 59.6226 79.3972 58.8002 80.4412C58.5697 80.7319 58.3305 81.0332 58.0823 81.3416C57.5169 82.0506 56.9054 82.7809 56.2531 83.5413C55.8986 83.949 55.544 84.3638 55.1736 84.7821C55.046 84.7661 43.9553 83.2825 38.9177 80.3029C39.9952 77.9513 40.8463 75.5024 41.4595 72.9895C42.7198 67.5389 44.8078 61.094 46.7594 59.0662C48.3937 57.3628 62.4764 75.4604 62.4764 75.4604Z" fill="#2B79E6"/>
<path d="M91.5176 42.6511C91.5176 42.6511 92.3259 40.3255 92.4588 39.9745C92.5917 39.6236 93.4514 39.0191 94.4972 38.4112C95.543 37.8032 97.2287 37.4487 97.4148 37.5409C97.6009 37.633 97.8349 37.6401 98.0919 38.1081C98.2505 38.4192 98.3262 38.7659 98.3117 39.1149C98.3117 39.1149 98.902 39.5438 98.8045 40.2032C98.9641 40.3451 99.0779 40.5312 99.1316 40.7379C99.1852 40.9446 99.1762 41.1626 99.1058 41.3642C99.1058 41.3642 99.6198 41.7949 99.4036 42.3125C99.4036 42.3125 98.5457 42.9205 98.2922 43.236C98.0387 43.5515 96.1651 44.693 94.2012 45.5101C94.2012 45.5101 92.0671 46.4957 91.5176 42.6511Z" fill="#FCA89E"/>
<path d="M94.7187 41.2454C94.7187 41.2454 94.802 42.4773 94.6513 42.8407C94.5007 43.204 97.2109 43.8422 97.2109 43.8422C97.2109 43.8422 96.2165 41.178 94.7187 41.2454Z" fill="#CF8C6C"/>
<path d="M90.67 43.5355C90.67 43.5355 91.6113 42.6492 92.026 41.8782C92.4408 41.1071 94.3126 45.1662 94.3126 45.1662C94.3126 45.1662 91.9764 45.2619 90.9448 45.9851C89.9132 46.7083 90.67 43.5355 90.67 43.5355Z" fill="#FCA89E"/>
<path d="M97.1347 37.6894C97.1347 37.6894 94.522 39.2953 94.7294 39.7491C94.7735 39.8712 94.8476 39.9803 94.9448 40.0664C95.0421 40.1525 95.1593 40.2128 95.2859 40.2419L94.5113 41.3922C94.5113 41.3922 94.428 42.4416 95.5961 42.2271C95.5961 42.2271 95.4189 43.2002 96.5196 42.8563C96.5196 42.8563 96.688 43.5512 97.2286 43.4838C97.7692 43.4165 99.4053 42.3122 99.4053 42.3122C99.4053 42.3122 99.6464 41.924 99.1075 41.3639C99.1799 41.1625 99.1899 40.944 99.1361 40.7368C99.0824 40.5297 98.9674 40.3436 98.8062 40.2029C98.8062 40.2029 98.932 39.6197 98.3134 39.1145C98.3134 39.1145 98.4907 37.7922 97.4165 37.5405C97.4147 37.5405 97.2446 37.6203 97.1347 37.6894Z" fill="#DB9C7C"/>
<path d="M92.5366 39.9139C92.5366 39.9139 94.6335 39.7509 95.8194 40.1656C96.087 40.2578 96.3299 40.3978 96.3511 40.6832C96.3724 40.9686 95.9718 41.3479 95.066 41.4649C94.1603 41.5819 93.0436 42.1473 93.0436 42.1473C93.0436 42.1473 92.0722 41.9966 92.5366 39.9139Z" fill="#FCA89E"/>
<path d="M66.6664 27.4531L73.4375 44.5687C73.4375 44.5687 73.7743 46.9403 78.7196 45.3379C83.766 43.7019 91.8931 41.5749 91.8931 41.5749C91.8931 41.5749 94.2275 45.2759 93.6301 45.6233C91.9037 46.6319 77.8334 52.9492 72.0301 54.5303C67.4215 55.787 58.6191 32.2319 58.6191 32.2319L66.6664 27.4531Z" fill="#FCA89E"/>
<path d="M74.4409 73.4097C74.4409 73.4097 86.5703 86.3066 86.7813 90.4986C86.9922 94.6907 101.493 120.757 101.493 120.757L97.1435 124.003C97.1435 124.003 81.8004 103.748 79.0973 99.1397C76.084 93.9994 76.8764 92.8561 72.1721 90.0307C69.2208 88.2581 62.4763 84.4579 62.4763 84.4579L74.4409 73.4097Z" fill="#FCA89E"/>
<path d="M65.8389 63.1895C65.8389 63.1895 71.6688 70.058 77.3604 76.6359C77.3604 76.6359 67.872 81.7265 62.7281 84.5945C62.7281 84.5945 43.615 71.7011 42.3068 67.0925C41.6563 64.8184 65.8389 63.1895 65.8389 63.1895Z" fill="#2B79E6"/>
<path d="M71.192 52.8238C69.3592 57.3632 66.7252 62.7287 67.8597 65.5647C67.8597 65.5647 60.9131 67.6386 40.6655 68.7553C40.6655 68.7553 45.6853 61.0802 50.0599 52.5916C50.2868 52.1485 50.5137 51.7053 50.737 51.2586C53.1671 46.4072 55.2924 41.4105 56.0812 37.5162C56.2478 36.6867 55.9234 35.8447 55.9217 35.0347C55.9179 33.9855 55.9968 32.9377 56.1574 31.9009C56.7274 28.1814 58.3583 24.7053 60.8546 21.8896C61.1949 21.5079 61.5494 21.1451 61.9181 20.8013C62.9474 19.8223 64.0983 18.98 65.3427 18.2949C67.3114 19.3827 69.0959 20.7748 70.6301 22.4196C70.9562 22.7741 75.5258 29.6161 76.008 36.3765C76.5876 44.6453 73.7905 46.3913 71.192 52.8238Z" fill="#FF645F"/>
<path d="M97.6895 124.824C97.6895 124.824 100.058 123.039 101.025 122.286C101.993 121.532 101.885 120.478 102.525 121.031C103.165 121.584 105.992 123.053 107.289 122.981C108.587 122.908 116.888 122.002 117.526 123.768C118.164 125.533 114.615 127.158 109.44 128.832C104.264 130.505 104.5 131.893 100.754 131.93C99.5967 131.951 97.6895 124.824 97.6895 124.824Z" fill="#2A2873"/>
<path d="M80.0864 7.10846C80.0864 7.10846 81.0417 10.7102 80.0704 11.008C79.2674 11.2491 80.0456 14.7445 80.1236 15.3046C80.2016 15.8648 78.6364 15.8807 78.2429 16.136C77.8494 16.3912 75.9493 20.2128 74.6979 20.0462C73.4465 19.8795 68.432 16.6571 67.3117 14.7481C66.1915 12.8391 66.6488 5.53091 68.354 2.82426C70.0592 0.117608 78.383 0.808892 80.0864 7.10846Z" fill="#FCA89E"/>
<path d="M72.032 17.7647C72.032 17.7647 71.9558 18.1015 71.8547 18.6244C71.775 19.0108 71.6775 19.4965 71.5764 20.023C71.3088 21.4498 71.0447 23.1727 71.1138 23.9863C71.252 25.5054 65.3442 18.2894 65.3442 18.2894C66.1562 14.9896 66.6658 11.6226 66.8668 8.23031C67.1681 2.72484 72.032 17.7647 72.032 17.7647Z" fill="#FCA89E"/>
<path d="M80.2883 7.85446C80.2883 7.85446 82.8426 4.86421 80.2671 1.54249C77.6916 -1.77923 70.7326 1.2961 70.029 1.30851C69.3253 1.32092 65.5533 0.673945 65.8174 7.73393C66.0815 14.7939 66.2641 13.6843 66.2641 13.6843C66.2641 13.6843 67.8115 10.7525 69.0718 10.7614C70.4402 10.7614 72.6523 10.9918 72.6523 10.9918C72.6523 10.9918 72.2446 7.7357 74.104 7.73393C75.9634 7.73216 78.6682 6.76081 80.2883 7.85446Z" fill="#421504"/>
<path d="M71.1899 8.82721C71.1332 8.38054 71.1899 6.97315 69.4174 7.64494C67.6449 8.31673 69.187 11.7483 69.4404 11.8547C69.6939 11.961 71.6685 12.5885 71.1899 8.82721Z" fill="#FCA89E"/>
<path d="M71.8458 18.6247C71.766 19.0111 71.6685 19.4968 71.5675 20.0232C70.1084 18.6057 68.8123 17.0296 67.7034 15.3242C68.5524 16.4657 71.8458 18.6247 71.8458 18.6247Z" fill="#A77860"/>
<path d="M58.0803 81.3416C57.5149 82.0507 56.9033 82.7809 56.251 83.5414C53.08 80.4022 49.1467 74.5015 49.1467 74.5015C51.5255 76.5558 58.0803 81.3416 58.0803 81.3416Z" fill="#1B1C2E"/>
<path d="M67.2302 33.0865L50.6181 41.0115C50.6181 41.0115 48.2748 41.5096 50.2104 46.3291C52.1868 51.2532 54.3688 59.0807 54.3688 59.0807C54.3688 59.0807 51.3307 61.7962 50.9425 61.2254C49.8205 59.5717 42.5566 45.9657 40.582 40.283C39.0151 35.7754 61.9127 25.3813 61.9127 25.3813L67.2302 33.0865Z" fill="#FCA89E"/>
<path d="M68.269 27.4533C68.269 27.4533 71.784 33.5065 59.7201 37.5266L57.5168 27.1431C57.5168 27.1431 65.1281 20.6734 68.269 27.4533Z" fill="#FF556F"/>
<path d="M65.3354 18.2896C65.3354 18.2896 77.261 41.7188 75.781 34.3629C74.1183 26.1029 72.8173 25.385 71.2202 22.1501L65.3354 18.2896Z" fill="#FCA89E"/>
<path d="M151 132.633H1.34717V139.575H151V132.633Z" fill="#2B79E6"/>
<path d="M144.048 138.541L111.451 90.1282L140.65 36.853L144.02 38.7L115.945 89.9226L147.237 136.395L144.048 138.541Z" fill="#2B79E6"/>
<path d="M129.033 65.1904H92.2849C91.3226 65.1904 90.5425 65.9705 90.5425 66.9328V68.4058C90.5425 69.3681 91.3226 70.1482 92.2849 70.1482H129.033C129.995 70.1482 130.775 69.3681 130.775 68.4058V66.9328C130.775 65.9705 129.995 65.1904 129.033 65.1904Z" fill="#0559CE"/>
<path d="M127.399 69.764L126.073 69.0302C125.357 68.6341 124.827 67.9697 124.601 67.1832C124.375 66.3968 124.47 65.5526 124.866 64.8363L143.637 30.8924C143.833 30.5376 144.097 30.225 144.414 29.9722C144.731 29.7195 145.094 29.5318 145.484 29.4197C145.873 29.3075 146.281 29.2733 146.684 29.3189C147.086 29.3645 147.476 29.489 147.831 29.6853L149.155 30.4174C149.51 30.6133 149.822 30.8773 150.075 31.1942C150.328 31.511 150.516 31.8746 150.628 32.2641C150.74 32.6536 150.774 33.0613 150.728 33.4641C150.683 33.8668 150.558 34.2566 150.362 34.6112L131.593 68.5569C131.196 69.2727 130.532 69.8019 129.745 70.0282C128.959 70.2546 128.115 70.1595 127.399 69.764Z" fill="#0559CE"/>
<path d="M53.2858 67.1723C53.2858 67.1723 52.8001 66.7859 52.6707 66.5129C52.6707 66.5129 52.4722 66.0006 52.3162 65.6443C52.263 65.5309 52.2152 65.4334 52.178 65.3731C52.022 65.125 51.6036 64.6251 51.3945 63.9214C51.1853 63.2178 50.5649 60.6068 50.5649 60.6068L52.809 59.8624L54.2447 58.6216C54.2447 58.6216 57.687 61.6632 57.9564 62.296C57.9822 62.3538 58.0047 62.413 58.0238 62.4733C58.201 63.0316 58.0982 63.5208 58.1567 63.824C58.178 63.9356 58.3127 65.0647 58.0805 65.3022C57.9605 65.4466 57.8059 65.5581 57.631 65.6263C57.4561 65.6945 57.2668 65.7172 57.0808 65.6922C57.0808 65.6922 56.4196 66.3303 55.8028 66.3799C55.8028 66.3799 55.2107 66.9897 54.4255 66.8337C54.4184 66.8372 53.7502 67.3885 53.2858 67.1723Z" fill="#FCA89E"/>
</svg>
