<svg width="122" height="188" viewBox="0 0 122 188" fill="none" xmlns="http://www.w3.org/2000/svg">
<g clip-path="url(#clip0)">
<path d="M68.0599 68.4401L63.5899 69.5501L62.8099 69.7401H62.6399C62.7099 69.8001 62.9799 70.0501 63.3499 70.4201L64.1499 71.2501C64.8207 71.9681 65.439 72.7334 65.9999 73.5401C66.2385 73.888 66.4524 74.2522 66.6399 74.6301C66.7241 74.7987 66.7976 74.9723 66.8599 75.1501C67.1966 75.1109 67.5306 75.0507 67.8599 74.9701C69.0789 74.6058 70.1505 73.8633 70.9199 72.8501L71.8099 72.5001C72.9099 72.0201 71.6899 67.6901 69.7099 68.0401L68.0599 68.4401Z" fill="#FCA89E"/>
<path d="M60.7599 77.8501C60.8131 77.953 60.897 78.0369 60.9999 78.0901C61.7599 78.4701 62.8199 76.9701 63.5699 75.6501C64.4418 75.2589 65.227 74.698 65.8799 74.0001C66.0799 73.7901 66.2799 73.5701 66.4699 73.3501L64.9999 72.1201L62.3099 74.4501C61.3499 75.7201 60.4399 77.2001 60.7599 77.8501Z" fill="#FCA89E"/>
<path d="M63.5499 78.91C64.3699 79.2 64.5499 77.6 65.1699 76.37C65.7891 76.0518 66.3557 75.6403 66.8499 75.15C67.0199 74.98 67.1799 74.8 67.3299 74.62C67.4799 74.44 67.5099 74.39 67.5899 74.27L66.2299 73.27L65.9899 73.51L63.9899 75.51C63.1699 76.8 62.6899 78.6 63.5499 78.91Z" fill="#FCA89E"/>
<path d="M59.17 76.14C59.73 76.76 61.17 75.36 62.17 74.14C63.2738 73.8451 64.2985 73.3089 65.17 72.57C65.2576 72.5089 65.3411 72.4421 65.42 72.37L64.18 71L61.12 72.8C59.85 73.91 58.53 75.43 59.17 76.14Z" fill="#FCA89E"/>
<path d="M57.71 73.5702C57.7238 73.6632 57.7579 73.7519 57.81 73.8302C58.27 74.5102 59.89 73.3302 61.01 72.3102C62.126 72.2232 63.2071 71.8811 64.17 71.3102L64.37 71.2002L63.97 70.4102L63.55 69.5802L63.49 69.4702L62.77 69.7702L62.62 69.8302L61.55 70.2602L60.17 70.8202C58.94 71.6202 57.56 72.7402 57.71 73.5702Z" fill="#FCA89E"/>
<path opacity="0.1" d="M63.5301 69.4399L61.5901 70.2299C62.1486 70.4774 62.765 70.564 63.3701 70.4799L64.0101 70.3799L64.5501 70.2899C66.5501 71.5599 69.4401 71.7599 69.3401 68.6799C68.9086 68.6281 68.481 68.5479 68.0601 68.4399L63.5301 69.4399Z" fill="#1D1D1B"/>
<path d="M66.1301 67.3299C65.9437 67.2432 65.7407 67.1982 65.5351 67.1982C65.3296 67.1982 65.1265 67.2432 64.9401 67.3299C63.5835 68.0829 61.9856 68.2732 60.4901 67.8599C59.7901 68.4499 60.4001 69.3099 61.3101 69.6399C62.7301 70.1699 62.9201 69.9999 64.4201 69.7599C66.4801 71.0299 70.4201 72.7599 69.2101 68.1499C68.1515 68.0148 67.1157 67.739 66.1301 67.3299Z" fill="#FCA89E"/>
<path opacity="0.1" d="M70.68 72.4202C69.63 73.6402 68.57 74.3302 67.48 74.1902C66.39 74.0502 64.77 72.0602 64.23 70.4902C64.1778 70.4987 64.131 70.5274 64.1 70.5702C63.1968 71.3278 62.0587 71.7484 60.88 71.7602C59.94 73.0002 58.73 74.0002 57.71 73.5702C57.7238 73.6632 57.7579 73.752 57.81 73.8302C58.27 74.5102 59.89 73.3302 61.01 72.3102C62.1241 72.2138 63.2032 71.8723 64.17 71.3102C64.3248 71.7356 64.5155 72.1471 64.74 72.5402L62.15 73.6402C61 74.8402 60.15 75.9902 59.15 76.1402C59.71 76.7602 61.15 75.3602 62.15 74.1402C63.1576 73.8816 64.0985 73.4111 64.91 72.7602C65.14 73.1502 65.39 73.5402 65.64 73.8802C65.045 74.5229 64.2779 74.9811 63.43 75.2002C62.69 76.6002 61.86 77.6502 60.78 77.8002C60.8332 77.9031 60.9171 77.987 61.02 78.0402C61.78 78.4202 62.84 76.9202 63.59 75.6002C64.4058 75.2264 65.145 74.7042 65.77 74.0602C65.9701 74.3424 66.1943 74.6067 66.44 74.8502C66.0317 75.3637 65.5119 75.7775 64.92 76.0602C64.38 77.7502 63.92 78.7302 63.57 78.8602C64.39 79.1502 64.57 77.5502 65.19 76.3202C65.8091 76.002 66.3757 75.5905 66.87 75.1002L67.19 75.0502H67.27H67.48H67.58H67.76C69.0145 74.6979 70.1202 73.9467 70.91 72.9102L71.8 72.5602L71.74 72.3702L70.68 72.4202Z" fill="#1D1D1B"/>
<path opacity="0.15" d="M80 15.5001L81.49 16.2001C80.7868 15.9551 80.0442 15.8432 79.3 15.8701L79.97 15.3101C79.9849 15.3725 79.9949 15.436 80 15.5001Z" fill="#171715"/>
<path opacity="0.15" d="M81.0601 14.89C81.4701 15.07 81.8701 15.24 82.2901 15.39C81.5501 15.39 80.7801 14.96 80.1101 15.23L81.1701 14.42L81.4301 14.23C81.5767 14.2587 81.7161 14.3165 81.8401 14.4L82.7401 14.92C82.2301 14.79 81.7401 14.68 81.2201 14.59C81.0901 14.59 80.8901 14.59 80.9001 14.73C80.9101 14.87 81.0001 14.86 81.0601 14.89Z" fill="#171715"/>
<path opacity="0.15" d="M87.16 20.5698C87.0799 20.8247 86.947 21.0598 86.77 21.2598L85.21 23.2598C84.9724 23.6213 84.654 23.9225 84.28 24.1398C84.0169 24.2571 83.7366 24.3314 83.45 24.3598C82.9587 24.4565 82.4604 24.5133 81.96 24.5298C82.19 24.3743 82.4043 24.1968 82.6 23.9998C83.25 23.3498 83.78 22.5898 84.45 21.9998C85.32 21.2098 86.45 20.6098 86.86 19.5098C86.9452 19.2889 86.9958 19.0562 87.01 18.8198L87.16 19.8198C87.2115 20.0672 87.2115 20.3225 87.16 20.5698Z" fill="#171715"/>
<path d="M38.75 145C38.8003 145.39 38.9693 145.754 39.2342 146.044C39.499 146.334 39.8467 146.535 40.23 146.62C41.1497 146.855 42.1111 146.876 43.04 146.68C45.722 146.151 48.3307 145.302 50.81 144.15L53.81 142.9C54.3081 142.755 54.7463 142.453 55.06 142.04C55.48 141.33 55.06 140.44 54.91 139.63C54.8308 139.032 54.6832 138.445 54.47 137.88C53.91 136.79 52.58 136.41 51.39 136.14L46.91 135.14C46.6098 135.823 46.2761 136.49 45.91 137.14C44.5522 139.558 42.6355 141.615 40.32 143.14C39.61 143.59 38.77 144.15 38.75 145Z" fill="#343038"/>
<path d="M74.3 157.64L78.49 153.13C79.0137 152.663 79.3862 152.05 79.56 151.37C79.75 150.01 78.37 148.96 78 147.63C77.976 147.412 77.8811 147.208 77.73 147.05C77.583 146.948 77.4089 146.892 77.23 146.89C74.7251 146.672 72.2012 146.888 69.77 147.53C69.6111 150.676 68.5716 153.715 66.77 156.3C66.26 157.03 65.66 157.9 65.97 158.73C66.1775 159.108 66.4808 159.424 66.8495 159.647C67.2182 159.87 67.6392 159.992 68.07 160C69.2566 160.27 70.4944 160.212 71.65 159.83C72.6816 159.301 73.5858 158.553 74.3 157.64Z" fill="#343038"/>
<path d="M79.9 148C79.6876 148.226 79.4568 148.433 79.21 148.62C78.4885 149.166 77.6146 149.474 76.71 149.5C73.97 149.66 71.19 147.74 69.48 148.99L61.48 126.06L60.39 122.39L58 97.0002L54.92 115C55.7287 120.971 56.236 126.979 56.44 133C56.6 136.82 56.68 136.43 56.71 140.51C56.39 140.51 56.09 140.51 55.8 140.51C50.89 140.42 49.47 136.26 46.31 137.02C45.58 131.61 44.95 130.74 44.53 125.79C44.0785 121.008 43.9016 116.203 44 111.4C44.47 102.3 43.84 91.2102 45.38 83.2402C45.6741 81.5906 46.1365 79.9755 46.76 78.4202C47.04 77.7602 67.4 79.6902 67.4 79.6902L70.4 78.8802L72.1 78.4202C72.21 79.0602 72.37 80.8502 72.48 81.8802C72.48 82.0902 72.54 82.2702 72.55 82.4002C73.41 87.7702 71.73 92.7002 70.66 96.3002C72.1 103.97 72.56 113.56 72.77 123.62C75.9991 129.86 78.175 136.591 79.21 143.54C79.41 145 79.66 146.5 79.9 148Z" fill="#3F668A"/>
<path d="M86.4601 39.7899C86.4601 40.6199 86.4601 41.4599 86.4601 42.2999C86.4601 44.0599 86.1201 46.0199 84.8101 47.1999C80.9101 50.7099 76.5401 52.1999 73.1001 55.0099C70.4601 57.1599 76.4901 69.2599 72.4801 81.8599C71.4429 83.2032 70.1685 84.3453 68.7201 85.2299C61.4701 89.6999 50.9901 87.5299 47.9101 85.5899C46.8954 85.0017 46.027 84.1914 45.3701 83.2199C45.23 83.001 45.1031 82.7739 44.9901 82.5399C44.9001 82.3299 40.1901 75.5399 45.5001 64.2699L45.8801 53.1799V52.9999C45.8801 52.9999 38.8801 46.5699 33.0901 30.9499C32.7501 30.0299 32.4101 29.0799 32.0901 28.0999C31.6097 26.6445 31.5302 25.0866 31.8601 23.5899C33.051 17.6759 35.5109 12.0908 39.0701 7.21986C39.1658 7.1363 39.2696 7.06259 39.3801 6.99986C39.8437 6.77348 40.3479 6.64185 40.863 6.61266C41.3781 6.58347 41.8939 6.65731 42.3801 6.82986C43.5901 7.14986 44.6801 7.99986 44.7301 8.99986C44.7252 9.02294 44.7252 9.04678 44.7301 9.06986L41.8501 24.4199C43.9201 30.9399 45.7401 32.7099 49.4001 37.9599L52.2301 39.2799L63.0701 40.2799L67.0701 41.2799C71.2601 41.5699 74.3901 41.4199 77.0701 38.2799L78.5401 23.9999C78.5464 23.4133 78.7835 22.8528 79.2001 22.4399C80.2601 21.3899 82.3801 21.4399 83.8701 22.5499C84.2748 22.8528 84.6148 23.2336 84.8701 23.6699C85.2445 24.2745 85.4675 24.9606 85.5201 25.6699C85.9891 28.8842 86.2729 32.1229 86.3701 35.3699C86.4401 36.7799 86.4601 38.2699 86.4601 39.7899Z" fill="#DCDCDC"/>
<path d="M63.3899 39.8802C63.3602 40.2663 63.3602 40.6541 63.3899 41.0402C63.3899 42.2302 63.3899 42.5602 63.4599 43.7502C62.2999 48.0702 51.3999 49.4702 52.8099 44.2402C52.9892 43.1182 53.0961 41.9859 53.1299 40.8502C53.1299 40.6602 53.1299 40.4602 53.1299 40.2602C53.1299 38.4202 52.0199 36.5902 51.5399 34.2602C51.4282 33.4251 51.3814 32.5825 51.3999 31.7402C51.4634 30.505 51.6647 29.2807 51.9999 28.0902C52.0195 27.2953 52.1786 26.51 52.4699 25.7702C54.8699 22.0802 60.8299 23.1302 62.9399 24.6502C63.9906 25.2526 64.8263 26.1687 65.3299 27.2702C66.9999 32.2602 63.7299 37.7402 63.3899 39.8802Z" fill="#FCA89E"/>
<path d="M87.1599 20.5698C87.0799 20.8247 86.947 21.0598 86.7699 21.2598L85.2099 23.2598C84.9723 23.6213 84.654 23.9226 84.2799 24.1398C84.0168 24.2571 83.7366 24.3314 83.4499 24.3598C82.9586 24.4565 82.4604 24.5133 81.9599 24.5298C81.7702 24.5448 81.5796 24.5448 81.3899 24.5298C80.6098 24.3459 79.875 24.0057 79.2299 23.5298C79.2648 22.957 79.2244 22.3821 79.1099 21.8198C79.0365 21.4128 78.9226 21.0142 78.7699 20.6298L78.6499 20.3198C78.5352 20.0487 78.435 19.7717 78.3499 19.4898C78.2356 19.0016 78.1818 18.5012 78.1899 17.9998C78.1571 17.6126 78.2118 17.223 78.3499 16.8598C78.5139 16.5771 78.7354 16.3318 78.9999 16.1398L79.3399 15.8598L80.0099 15.2998C80.0475 15.2789 80.0812 15.2518 80.1099 15.2198L81.1699 14.4098L81.4299 14.2198C81.6728 14.0434 81.9431 13.9083 82.2299 13.8198C82.8066 13.7407 83.3938 13.8311 83.9199 14.0798C84.4799 14.3098 85.0399 14.5498 85.5799 14.8198C85.8837 14.9461 86.1516 15.1453 86.3599 15.3998C86.5384 15.705 86.6445 16.0472 86.6699 16.3998C86.7799 17.1898 86.8899 17.9798 87.0099 18.7698L87.1599 19.7698C87.2186 20.0333 87.2186 20.3064 87.1599 20.5698Z" fill="#FCA89E"/>
<path d="M48.4801 3.21002C48.3366 4.0673 48.1429 4.91543 47.9001 5.75002C47.8823 6.2202 47.7446 6.67803 47.5001 7.08002C47.3749 7.22516 47.2341 7.35596 47.0801 7.47002C46.6301 7.81002 46.1801 8.16002 45.7101 8.47002C45.1566 8.85024 44.5501 9.14676 43.9101 9.35002C43.3064 9.5241 42.6739 9.57511 42.0501 9.50002C41.4449 9.42489 40.8749 9.17464 40.4101 8.78002C39.7798 8.14373 39.3758 7.31814 39.2601 6.43002C39.1001 5.56002 39.0901 4.66002 38.9701 3.78002C38.9035 3.45 38.9035 3.11003 38.9701 2.78002C39.0978 2.42698 39.3108 2.11096 39.5901 1.86002L40.8701 0.550018C41.0433 0.331657 41.2709 0.162676 41.5301 0.0600181C41.7284 0.00509456 41.9348 -0.015203 42.1401 1.81128e-05L46.2001 0.110018C46.3068 0.102929 46.4136 0.1236 46.5101 0.170018C46.7301 0.290018 46.7401 0.610018 46.9101 0.790018C47.0567 0.893897 47.2237 0.965474 47.4001 1.00002C47.7886 1.20922 48.1017 1.53494 48.2954 1.93136C48.4891 2.32779 48.5537 2.77498 48.4801 3.21002Z" fill="#FCA89E"/>
<path opacity="0.15" d="M81.5899 19.3699C80.8762 19.7017 80.28 20.2421 79.8799 20.9199C79.7471 21.2151 79.5606 21.4829 79.3299 21.7099C79.2642 21.7602 79.1896 21.7976 79.1099 21.8199C79.0365 21.4129 78.9226 21.0143 78.7699 20.6299L78.6499 20.3199C78.7509 20.3862 78.8691 20.4214 78.9899 20.4214C79.1107 20.4214 79.2289 20.3862 79.3299 20.3199C79.6599 20.0799 79.6099 19.5999 79.6099 19.1999C79.6215 18.6499 79.7841 18.1137 80.0799 17.6499C80.0263 17.8614 80.0286 18.0831 80.0864 18.2935C80.1442 18.5038 80.2557 18.6956 80.4099 18.8499C80.5594 19.0142 80.7416 19.1453 80.9448 19.2349C81.1481 19.3245 81.3678 19.3704 81.5899 19.3699Z" fill="#171715"/>
<path opacity="0.15" d="M46.6899 3.68984L46.4799 6.09984C46.4695 6.26542 46.4427 6.42956 46.4 6.58984C46.3094 6.81087 46.2025 7.02481 46.08 7.22984C45.9297 7.63126 45.8061 8.04215 45.7099 8.45984C45.1565 8.84007 44.5499 9.13659 43.91 9.33984C43.3063 9.51393 42.6737 9.56493 42.0499 9.48984C42.3405 8.86387 42.4841 8.1798 42.47 7.48984C42.38 5.99984 41.26 4.76984 40.2 3.68984L42.79 3.73984L43.09 5.13984C43.1487 5.56681 43.2988 5.97609 43.5299 6.33984C43.6094 6.48828 43.7276 6.61237 43.872 6.69888C44.0164 6.7854 44.1816 6.8311 44.3499 6.8311C44.5183 6.8311 44.6835 6.7854 44.8279 6.69888C44.9723 6.61237 45.0905 6.48828 45.1699 6.33984C45.199 6.30715 45.2226 6.27001 45.24 6.22984C45.381 5.93581 45.5628 5.66313 45.7799 5.41984L45.83 5.35984C45.9391 5.28058 46.0397 5.19008 46.13 5.08984C46.21 4.97067 46.2582 4.83295 46.27 4.68984C46.3334 4.32318 46.3669 3.95195 46.3699 3.57984C46.3868 3.40998 46.3628 3.23854 46.2999 3.07984C46.0399 2.51984 45.0099 2.45984 45.0299 1.83984C45.3099 2.44984 46.3099 2.39984 46.5999 2.98984C46.6983 3.20921 46.7296 3.45274 46.6899 3.68984Z" fill="#171715"/>
<path opacity="0.15" d="M41.1599 2.20981C41.9014 2.24313 42.6397 2.32665 43.3699 2.45981C43.4548 2.47478 43.5361 2.50529 43.6099 2.54981C43.6922 2.61691 43.7573 2.7026 43.7999 2.79981C43.9207 3.01957 44.0276 3.24668 44.1199 3.47981C44.2891 3.97794 44.4294 4.48546 44.5399 4.99981C44.6543 5.52405 44.9023 6.00979 45.2599 6.40981C45.1874 5.97064 45.0385 5.54757 44.8199 5.15981C44.5299 4.41981 44.5899 3.55981 44.2399 2.84981C44.1483 2.6395 43.9993 2.45927 43.8099 2.32981C43.5803 2.21395 43.3271 2.15237 43.0699 2.14981C42.4343 2.06462 41.7889 2.08489 41.1599 2.20981Z" fill="#171715"/>
<path opacity="0.15" d="M44.82 2.24019C45.0959 3.36663 45.4297 4.4781 45.82 5.57019C45.58 4.40019 45.29 3.25019 45 2.10019C44.9741 1.98865 44.9266 1.88331 44.86 1.79019C44.7482 1.6906 44.6086 1.62777 44.46 1.61019C43.802 1.47845 43.1299 1.4314 42.46 1.47019L44.46 1.89019C44.5534 1.90229 44.6425 1.93658 44.72 1.99019C44.7699 2.0659 44.8039 2.15095 44.82 2.24019Z" fill="#171715"/>
<path opacity="0.15" d="M45.0001 1.05019H45.2501H45.3501C45.4601 1.05019 45.5301 0.880191 45.6401 0.880191C44.7999 0.661444 43.9209 0.637502 43.0701 0.810191C43.7053 0.94541 44.351 1.02571 45.0001 1.05019Z" fill="#171715"/>
<path opacity="0.2" d="M61.49 126.06L60.42 122.39L58 96.9998L54.92 115C55.7286 120.97 56.2359 126.978 56.44 133C55.48 126.373 54.5467 119.773 53.64 113.2C53.5333 112.512 53.4865 111.816 53.5 111.12C53.5943 110.247 53.7889 109.388 54.08 108.56C55.0313 105.4 55.7499 102.175 56.23 98.9098C56.3357 98.4593 56.3357 97.9904 56.23 97.5398C56.0599 97.1462 55.8193 96.787 55.52 96.4798C53.8532 94.5201 52.5769 92.2594 51.76 89.8198C52.8095 91.5829 54.3312 93.0173 56.1531 93.9609C57.975 94.9046 60.0245 95.3198 62.07 95.1598C60.7464 97.9559 60.0209 100.997 59.94 104.09C59.44 111.44 60.47 118.75 61.49 126.06Z" fill="#171715"/>
<path d="M61.3301 39.6C61.0769 40.1006 60.7147 40.538 60.2701 40.88C59.8279 41.2052 59.339 41.4614 58.8201 41.64C57.7584 41.9611 56.6587 42.1393 55.55 42.17C54.7158 42.3056 53.8605 42.2194 53.0701 41.92C52.7417 41.7693 52.4487 41.5512 52.21 41.28C51.9542 41.0037 51.7418 40.6901 51.5801 40.35C51.4108 40.0298 51.2702 39.6951 51.1601 39.35C50.0801 36.1 50.79 33.11 51.21 29.18C51.2955 27.9365 51.7479 26.7463 52.51 25.76C52.6129 25.6306 52.7267 25.5101 52.85 25.4C53.3121 25.0018 53.84 24.6871 54.4101 24.47C56.3314 23.6767 58.4887 23.6767 60.4101 24.47C61.2573 24.8407 61.9791 25.4487 62.4884 26.2206C62.9977 26.9925 63.2726 27.8953 63.28 28.82C63.37 30.29 61.7601 38.7 61.3301 39.6Z" fill="#FCA89E"/>
<path d="M61.68 31.8398L61.28 34.5398L63.15 33.9998L62.9 38.4398C62.8978 38.607 62.9375 38.7721 63.0155 38.92C63.0935 39.0678 63.2073 39.1938 63.3466 39.2863C63.4859 39.3788 63.6461 39.4349 63.8127 39.4495C63.9792 39.4641 64.1468 39.4367 64.3 39.3698C64.6954 39.1591 65.042 38.8678 65.3177 38.5147C65.5933 38.1615 65.7917 37.7545 65.9 37.3198C67.23 33.1598 67.65 27.7198 65.37 27.3198C65.6005 27.8907 65.6218 28.5248 65.43 29.1098C65.09 29.9198 64.66 30.2798 63.35 30.4798C62.45 30.5698 61.81 30.9398 61.68 31.8398Z" fill="#2B79E6"/>
<path d="M65.0901 34.09C64.9201 35.31 64.1801 37.03 63.4801 36.93C62.7801 36.83 62.3701 35.76 62.5501 34.54C62.7301 33.32 63.0401 32.25 64.1101 32.19C64.7701 32.15 65.2701 32.88 65.0901 34.09Z" fill="#FCA89E"/>
<path opacity="0.2" d="M86.46 39.7998C86.46 40.6298 86.46 41.4698 86.46 42.3098C86.46 44.0698 86.12 46.0298 84.81 47.2098C80.91 50.7198 76.54 52.2098 73.1 55.0198C70.46 57.1698 76.49 69.2698 72.48 81.8698C72.48 82.0798 72.54 82.2598 72.55 82.3898C73.41 87.7598 71.73 92.6898 70.66 96.2898C72.1 103.96 72.56 113.55 72.77 123.61C75.9991 129.85 78.175 136.58 79.21 143.53C79.45 145 79.7 146.53 79.94 148C79.7276 148.225 79.4968 148.433 79.25 148.62C78.5285 149.166 77.6546 149.474 76.75 149.5C75.37 139.5 74.75 130.06 70.14 123.22C72.06 116.28 70.58 106.93 68.05 96.8498C69.68 93.5098 70.25 88.1398 68.72 85.2398C69.5446 83.1952 70.109 81.0551 70.4 78.8698C71.4 71.6098 70.3 62.6298 68.4 52.9998C75.82 51.4498 83.2 47.2298 86.46 39.7998Z" fill="#171715"/>
<path opacity="0.2" d="M45.84 53.2002V53.0002C45.84 53.0002 38.84 46.5702 33.05 30.9502C38.51 39.2802 42.5301 47.2502 47.68 47.2802C46.6545 49.101 46.0274 51.1189 45.84 53.2002Z" fill="#171715"/>
<path opacity="0.2" d="M51.35 41.46L61.71 41C61.79 50.27 48.82 51.72 51.35 41.46Z" fill="#171715"/>
<path d="M61.28 34.5399L59.64 38.1899C59.4123 38.7083 59.0539 39.1587 58.5999 39.497C58.1459 39.8353 57.6118 40.0499 57.05 40.1199C55.9578 40.2675 54.8484 40.2269 53.77 39.9999C52.9583 39.816 52.2309 39.3674 51.7023 38.7247C51.1736 38.082 50.8738 37.2817 50.85 36.4499L50.74 33.1299C46.68 43.6899 51.74 46.0399 57.83 44.9799C59.83 44.8899 61.74 41.8699 61.97 39.8599L62.62 34.0999L61.28 34.5399Z" fill="#2B79E6"/>
<path d="M2.38001 145.45C1.84878 145.462 1.32881 145.296 0.903584 144.977C0.478361 144.659 0.17256 144.206 0.0352858 143.693C-0.101988 143.18 -0.0627694 142.635 0.146644 142.147C0.356057 141.658 0.723514 141.254 1.19001 141L14.7 133.2C14.9699 133.044 15.2679 132.942 15.577 132.901C15.8861 132.86 16.2003 132.88 16.5017 132.96C16.803 133.041 17.0855 133.18 17.3332 133.369C17.5808 133.559 17.7887 133.795 17.945 134.065C18.1013 134.335 18.2029 134.633 18.244 134.942C18.2851 135.251 18.2649 135.565 18.1846 135.867C18.1042 136.168 17.9654 136.451 17.7758 136.698C17.5863 136.946 17.3499 137.154 17.08 137.31L3.56001 145.11C3.20476 145.328 2.79689 145.446 2.38001 145.45Z" fill="#343038"/>
<path d="M48.8801 166.78C47.3317 166.807 45.7993 166.464 44.4101 165.78L3.20008 144.13C2.94547 143.997 2.75397 143.769 2.66771 143.495C2.58144 143.221 2.60747 142.924 2.74008 142.67C2.87269 142.415 3.10101 142.224 3.37481 142.137C3.64862 142.051 3.94547 142.077 4.20008 142.21L45.4101 163.86C46.5286 164.377 47.7491 164.637 48.9815 164.62C50.2138 164.602 51.4265 164.309 52.5301 163.76H52.6101C53.3501 163.33 53.7901 162.76 53.8001 162.3C53.7592 162.002 53.6469 161.718 53.4728 161.472C53.2987 161.227 53.0679 161.027 52.8001 160.89L15.2801 137.06C15.0511 136.901 14.8927 136.659 14.8379 136.385C14.7831 136.112 14.8362 135.828 14.9861 135.593C15.136 135.358 15.3711 135.19 15.6421 135.124C15.9131 135.058 16.199 135.1 16.4401 135.24L53.9301 159C54.5207 159.322 55.0163 159.794 55.3673 160.367C55.7183 160.941 55.9124 161.597 55.9301 162.27C55.8735 162.969 55.6339 163.641 55.2355 164.219C54.8371 164.796 54.2937 165.259 53.6601 165.56H53.5801C52.1438 166.363 50.5254 166.783 48.8801 166.78Z" fill="#9897A3"/>
<path d="M43.1538 152.901L33.7488 158.331L34.8288 160.202L44.2338 154.772L43.1538 152.901Z" fill="#9897A3"/>
<path d="M53.7498 163.551L52.4548 165.794L83.3979 183.659L84.6929 181.416L53.7498 163.551Z" fill="#9897A3"/>
<path d="M84.7601 181.29C84.7601 180.36 84.1001 179.99 83.3001 180.45C82.8743 180.73 82.5209 181.108 82.2689 181.551C82.0169 181.994 81.8734 182.491 81.8501 183C81.8501 183.93 82.5001 184.31 83.3001 183.84C83.7283 183.561 84.0841 183.184 84.3379 182.741C84.5918 182.298 84.7365 181.8 84.7601 181.29Z" fill="#343038"/>
<path d="M84.33 180.35L82.27 183.91L84.96 185.93L87.42 181.67L84.33 180.35Z" fill="#343038"/>
<path d="M88.1699 182.9C88.1699 181.78 87.3799 181.32 86.3999 181.9C85.8879 182.235 85.4618 182.685 85.1561 183.215C84.8503 183.745 84.6735 184.339 84.6399 184.95C84.6399 186.08 85.4299 186.53 86.3999 185.95C86.9143 185.617 87.3428 185.167 87.6504 184.637C87.9579 184.107 88.136 183.512 88.1699 182.9Z" fill="#47424D"/>
<path d="M12.52 156.24C12.1059 156.291 11.6857 156.231 11.3026 156.065C10.9195 155.9 10.5872 155.636 10.34 155.3C9.96656 154.794 9.80846 154.161 9.90027 153.539C9.99208 152.917 10.3263 152.356 10.83 151.98L23.36 142.68C23.6093 142.475 23.8976 142.323 24.2073 142.233C24.5171 142.144 24.8419 142.118 25.162 142.157C25.4821 142.197 25.7908 142.301 26.0694 142.463C26.3481 142.626 26.5907 142.843 26.7827 143.102C26.9747 143.362 27.112 143.657 27.1863 143.971C27.2606 144.285 27.2704 144.61 27.2149 144.928C27.1595 145.246 27.0401 145.549 26.8639 145.819C26.6877 146.089 26.4584 146.321 26.19 146.5L13.66 155.79C13.329 156.042 12.9343 156.198 12.52 156.24Z" fill="#343038"/>
<path d="M61.1601 172.12C59.6227 172.317 58.0606 172.149 56.6001 171.63L13.1901 154.83C13.0576 154.78 12.9364 154.704 12.8333 154.607C12.7303 154.51 12.6475 154.394 12.5899 154.264C12.5322 154.135 12.5008 153.996 12.4974 153.854C12.494 153.713 12.5187 153.572 12.5701 153.44C12.621 153.307 12.6977 153.186 12.7957 153.083C12.8937 152.979 13.0112 152.897 13.1413 152.839C13.2714 152.781 13.4116 152.75 13.5538 152.747C13.696 152.744 13.8375 152.768 13.9701 152.82L57.3801 169.61C58.5483 169.996 59.7884 170.115 61.0087 169.958C62.229 169.8 63.3983 169.37 64.4301 168.7H64.5101C64.7915 168.534 65.029 168.303 65.2029 168.026C65.3769 167.75 65.4822 167.436 65.5101 167.11C65.5101 166.64 65.0301 166.18 64.3201 165.83L24.3201 146.49C24.0615 146.365 23.8631 146.143 23.7684 145.872C23.6737 145.601 23.6905 145.304 23.8151 145.045C23.9398 144.786 24.162 144.588 24.433 144.493C24.704 144.399 25.0015 144.415 25.2601 144.54L65.2601 163.89C65.8849 164.139 66.4338 164.547 66.8529 165.073C67.272 165.599 67.5468 166.225 67.6501 166.89C67.6723 167.59 67.5104 168.283 67.1804 168.901C66.8505 169.519 66.3642 170.039 65.7701 170.41L65.6901 170.47C64.3455 171.397 62.7861 171.965 61.1601 172.12Z" fill="#ACABB9"/>
<path d="M53.8863 158.966L45.1643 165.437L46.4512 167.171L55.1732 160.701L53.8863 158.966Z" fill="#ACABB9"/>
<path d="M65.6317 168.343L64.6018 170.719L97.3857 184.926L98.4156 182.55L65.6317 168.343Z" fill="#ACABB9"/>
<path d="M98.4599 182.43C98.3499 181.51 97.6599 181.21 96.9199 181.76C96.5286 182.081 96.2193 182.491 96.0176 182.955C95.8159 183.419 95.7276 183.925 95.7599 184.43C95.8599 185.35 96.5499 185.65 97.2999 185.1C97.6894 184.777 97.9974 184.368 98.1989 183.904C98.4004 183.44 98.4899 182.935 98.4599 182.43Z" fill="#343038"/>
<path d="M97.93 181.54L96.29 185.32L99.19 187.01L101.15 182.5L97.93 181.54Z" fill="#343038"/>
<path d="M102 183.64C101.87 182.52 101 182.16 100.13 182.83C99.659 183.222 99.2868 183.72 99.0436 184.283C98.8004 184.846 98.693 185.458 98.73 186.07C98.86 187.18 99.73 187.55 100.6 186.88C101.071 186.488 101.443 185.99 101.686 185.427C101.93 184.864 102.037 184.252 102 183.64Z" fill="#47424D"/>
</g>
<defs>
<clipPath id="clip0">
<rect width="121.18" height="187.21" fill="white"/>
</clipPath>
</defs>
</svg>
