<svg width="12" height="15" viewBox="0 0 12 15" xmlns="http://www.w3.org/2000/svg">
<path d="M10.5501 2.06775H8.2861C8.15026 0.905585 7.16921 0 5.97686 0H5.87121C4.67885 0 3.6978 0.905585 3.57706 2.06775H1.3131C0.58863 2.06775 0 2.65638 0 3.38085C0 3.56197 0.135838 3.6978 0.316955 3.6978H11.5462C11.7273 3.6978 11.8632 3.56197 11.8632 3.38085C11.8632 2.65638 11.2745 2.06775 10.5501 2.06775ZM5.8863 1.22254H5.99195C6.50512 1.22254 6.92772 1.58477 7.04847 2.06775H4.82978C4.93544 1.58477 5.37313 1.22254 5.8863 1.22254Z" fill="#CD221C"/>
<path d="M1.75083 13.2215C1.79611 13.8554 2.32437 14.3384 2.95828 14.3384H8.90495C9.53886 14.3384 10.0671 13.8554 10.1124 13.2215L10.8369 4.51282H1.02637L1.75083 13.2215ZM7.16925 7.00317C7.18434 6.71641 7.42583 6.5051 7.7126 6.5202C7.99937 6.53529 8.21067 6.77678 8.19558 7.06355L7.9239 11.8481C7.90881 12.1197 7.68241 12.331 7.41074 12.331C7.39564 12.331 7.39564 12.331 7.38055 12.331C7.09378 12.3159 6.88248 12.0744 6.89757 11.7877L7.16925 7.00317ZM4.16573 6.5202C4.4525 6.5051 4.69398 6.71641 4.70908 7.00317L4.98075 11.7877C4.99585 12.0744 4.78454 12.3159 4.49777 12.331C4.48268 12.331 4.48268 12.331 4.46759 12.331C4.19591 12.331 3.96952 12.1197 3.95442 11.8481L3.68275 7.06355C3.66765 6.77678 3.87896 6.53529 4.16573 6.5202Z" fill="#CD221C"/>
</svg>
