<svg width="177" height="221" viewBox="0 0 177 221" fill="none" xmlns="http://www.w3.org/2000/svg">
<path d="M134.5 136C136.5 159 139.3 196.2 134.5 199C131.02 201.03 131.577 199.696 131.683 199.485C131.602 199.626 131.15 200.355 129.5 202.5C120.781 213.835 83 212 77 209C71 206 41.5 191 40.5 185C39.5 179 50 136 55.5 133C59.9 130.6 107.667 132.5 134.5 136Z" fill="#FAAC30"/>
<path d="M105.341 200.048C106.795 196.364 106.795 180.05 103.888 159L114.062 160.579V197.416C114.062 204.258 116 206.363 116 210.046C116 212.88 108.248 218.466 103.888 214.783C99.5278 211.099 103.888 203.731 105.341 200.048Z" fill="#FF7A13"/>
<path d="M137.993 137.991L138 137L130 146.5V191.5C130 194.5 124 205 125 209.5C126 214 128.5 215.5 133 215.5C137.48 215.5 137.5 212.526 137.993 137.991Z" fill="#FF7A13"/>
<path d="M168.749 84.642C162.4 70.7907 150.23 58.9612 139.112 49.177C133.737 44.4359 127.915 39.1022 121.444 36.1158C114.211 32.7924 78.5837 37.4637 70.847 42.6348C70.6433 42.7709 70.2245 42.9051 70 43C70 43 69.6385 43.2935 69.5 43.5C69.3358 43.7789 69.2384 43.7271 69.0444 44.0059C67.197 45.6328 52.0258 73.0566 47.1665 85.3276C44.2364 92.7133 41.7168 100.267 39.6201 107.952C37.8399 114.448 34.94 122.501 36.3955 129.38C37.6271 135.121 41.9266 139.443 45.8565 143.383C51.4132 148.966 57.299 154.186 63.4797 159.012C69.5664 163.779 75.9224 168.164 82.5137 172.143C88.1119 175.466 93.9789 179.115 100.428 179.859C114.222 181.544 125.06 167.797 133.614 158.628C144.478 147.043 154.461 134.604 163.475 121.42C171.514 109.568 175.097 98.4818 168.749 84.642Z" fill="#263655"/>
<path d="M134.707 50.0389C128.148 46.3577 122.848 48.4977 119.908 55.0505C119.619 55.6936 119.162 57.6118 118.639 58.0553C117.068 59.3969 112.113 58.0553 110.331 57.767C107.559 57.2459 104.764 56.7802 102.013 56.4476C96.5828 55.7546 91.0856 55.7546 85.6552 56.4476C84.8645 52.8662 83.428 49.174 79.4972 48.1096C75.5664 47.0452 70.522 49.5066 67.8494 52.1123C60.0546 59.8737 67.5599 66.8257 75.1655 69.653C71.6912 77.1816 66.9475 85.453 66.7804 93.8021C66.6134 102.151 72.1812 108.693 77.6264 114.558C81.4125 118.65 85.1652 122.83 89.0849 126.755C91.4345 129.139 93.45 130.879 96.8798 131.268C103.617 132.022 113.873 132.221 119.362 127.631C126.044 122.087 131.344 112.108 134.952 104.347C138.95 95.8644 139.328 89.7773 136.177 80.9514C135.13 78.0354 130.854 71.1499 132.747 68.5775C134.462 66.238 138.482 66.0163 140.297 63.3663C143.827 58.3546 139.239 52.589 134.707 50.0389Z" fill="#FAAC30"/>
<path d="M93.4053 65.4467C93.122 65.2257 92.7931 65.0811 92.4466 65.0254C92.1001 64.9696 91.7461 65.0043 91.4148 65.1265C91.0835 65.2488 90.7845 65.4549 90.5434 65.7274C90.3022 65.9999 90.126 66.3308 90.0296 66.6919C89.9501 67.1531 90.0321 67.6296 90.2597 68.0302C90.4874 68.4307 90.8449 68.7273 91.2637 68.8631C91.7044 69.0366 92.1869 69.0448 92.6325 68.8865C93.0782 68.7283 93.4606 68.4127 93.7174 67.9915C93.9466 67.5936 94.0407 67.1232 93.9838 66.6596C93.927 66.196 93.7226 65.7676 93.4053 65.4467Z" fill="#263655"/>
<path d="M118.313 65.094C118.202 65.0384 118.082 65.0065 117.959 65.0003C117.608 64.9943 117.261 65.0883 116.958 65.2721C116.654 65.4559 116.404 65.7226 116.236 66.0433C116.067 66.364 115.987 66.7265 116.002 67.0916C116.017 67.4567 116.128 67.8105 116.323 68.1147C117.245 69.4989 119.644 69.2394 119.969 67.4803C120.016 67.2099 120.009 66.9327 119.951 66.6649C119.892 66.3972 119.782 66.1445 119.627 65.9219C119.473 65.6992 119.277 65.5112 119.051 65.369C118.825 65.2267 118.574 65.1332 118.313 65.094Z" fill="#263655"/>
<path d="M127.358 53.9414C126.28 54.2348 125.274 54.7453 124.403 55.4414C123.531 56.1376 122.812 57.0045 122.291 57.9884C122.106 58.0688 121.944 58.1923 121.817 58.3484C121.69 58.5045 121.603 58.6887 121.562 58.8854C121.522 59.0822 121.53 59.2857 121.585 59.4788C121.64 59.672 121.741 59.8491 121.879 59.9953C123.238 61.4736 124.622 62.915 126.033 64.3195C126.946 65.2398 128.07 66.8586 129.54 66.8808C129.961 66.8443 130.368 66.7149 130.732 66.502C131.096 66.2891 131.408 65.9981 131.645 65.65C132.81 64.4979 133.855 63.2311 134.763 61.8691C138.081 56.4472 132.714 52.3447 127.358 53.9414Z" fill="#F9F9F9"/>
<path d="M84.486 57.5671C83.584 54.2407 78.7067 52.5 75.6555 52.5998C67.5711 52.877 69.2526 64.641 75.6555 66.0492C75.7684 66.1628 75.9028 66.253 76.0509 66.3146C76.1991 66.3762 76.358 66.4079 76.5185 66.4079C76.679 66.4079 76.838 66.3762 76.9861 66.3146C77.1342 66.253 77.2686 66.1628 77.3815 66.0492C79.1855 64.3491 80.9746 62.6305 82.7488 60.8934C83.8067 59.9509 84.9091 59.075 84.486 57.5671Z" fill="#F9F9F9"/>
<path d="M99.0588 31.3942C98.974 30.8686 97.9285 30.8686 98.0039 31.3942C98.9081 37.1191 99.558 42.8563 99.9536 48.6058C99.9536 49.1314 101.037 49.1314 100.999 48.6058C100.603 42.8513 99.9567 37.1141 99.0588 31.3942Z" fill="#57719B"/>
<path d="M115.818 31.3036C114.694 36.7372 113.424 42.1312 112.01 47.4857C111.879 48.0044 113.098 48.2267 113.185 47.6932C114.636 42.314 115.905 36.9199 116.993 31.5111C117.102 30.9924 115.927 30.7776 115.818 31.3036Z" fill="#57719B"/>
<path d="M84.965 48.5193C82.5977 44.0541 80.3725 39.5084 77.2359 35.2116C76.8808 34.7358 75.7445 35.1457 76.0523 35.6215C79.1415 39.8452 81.2721 44.3323 83.6511 48.7243C83.9589 49.2074 85.2254 49.0025 84.965 48.5193Z" fill="#57719B"/>
<path d="M60.2327 81.6056C54.5126 78.8922 49.0103 75.7451 43.7744 72.1921C43.1063 71.7375 42.4938 72.813 43.1508 73.3009C48.3863 76.8639 53.8928 80.015 59.6203 82.7255C60.333 83.0137 60.9566 81.9493 60.2327 81.6056Z" fill="#57719B"/>
<path d="M56.5469 96.7847C49.3218 95.5015 42.0322 94.6095 34.7101 94.1126C33.9083 94.0571 33.9083 95.3544 34.7101 95.3544C41.9276 95.8413 49.1132 96.7185 56.2351 97.9822C57.0146 98.1152 57.2929 96.9178 56.5469 96.7847Z" fill="#57719B"/>
<path d="M54.253 107.296C47.8094 110.412 41.1388 113.04 34.2981 115.157C33.5409 115.401 33.8527 116.587 34.6211 116.355C41.5627 114.208 48.3304 111.54 54.8655 108.371C55.5893 108.017 54.9657 106.941 54.253 107.296Z" fill="#57719B"/>
<path d="M61.5468 117.53C56.8996 121.699 52.3897 126.019 48.0172 130.492C47.4604 131.068 48.329 131.944 48.8857 131.379C53.2657 126.943 57.7793 122.619 62.4265 118.406C63.0167 117.829 62.1481 116.953 61.5468 117.53Z" fill="#57719B"/>
<path d="M74.3527 126.456C70.7448 131.8 67.263 137.218 63.9075 142.71C63.4844 143.387 64.5645 144.007 65.0211 143.331C68.3692 137.832 71.8509 132.413 75.4662 127.077C75.8671 126.4 74.7981 125.801 74.3527 126.456Z" fill="#57719B"/>
<path d="M85.6886 134.993C82.3479 141.146 78.2278 147.367 75.9004 153.942C75.6332 154.685 76.8358 154.995 77.1031 154.252C79.3859 147.788 83.5283 141.668 86.7576 135.614C87.1362 134.915 86.056 134.294 85.6886 134.993Z" fill="#57719B"/>
<path d="M99.1626 139.705C98.2979 146.695 97.8591 153.73 97.8486 160.772C97.8688 160.921 97.9425 161.058 98.0562 161.157C98.1698 161.256 98.3157 161.31 98.4667 161.31C98.6176 161.31 98.7635 161.256 98.8771 161.157C98.9908 161.058 99.0645 160.921 99.0847 160.772C99.0985 153.73 99.5411 146.695 100.41 139.705C100.51 138.896 99.2628 138.907 99.1626 139.705Z" fill="#57719B"/>
<path d="M111.267 138.386C111.144 137.609 109.953 137.931 110.064 138.707L113.227 160.295C113.349 161.082 114.541 160.761 114.429 159.973C113.368 152.774 112.314 145.578 111.267 138.386Z" fill="#57719B"/>
<path d="M134.518 144.141C131.066 139.188 127.436 134.383 123.627 129.726C123.126 129.106 122.247 129.981 122.748 130.591C126.46 135.196 130.023 139.931 133.438 144.795C133.894 145.349 134.975 144.739 134.518 144.141Z" fill="#57719B"/>
<path d="M135.891 41.1845L130.091 47.4256C129.691 47.8528 130.712 48.2451 131.144 47.8108C133.074 45.7375 134.996 43.6595 136.912 41.5768C137.302 41.1495 136.291 40.7572 135.891 41.1845Z" fill="#57719B"/>
<path d="M65.7397 51.2657L58.8801 48.0728C58.2453 47.7813 57.6329 48.4389 58.2676 48.7507L65.1161 51.9301C65.7508 52.2148 66.3633 51.5572 65.7397 51.2657Z" fill="#57719B"/>
<path d="M58.2395 62.0133C55.9833 60.9881 53.9107 59.6024 52.1038 57.9109C51.5248 57.3676 50.6451 58.2324 51.2241 58.7757C53.1059 60.554 55.2692 62.0112 57.627 63.0888C58.3397 63.4215 58.9744 62.3459 58.2395 62.0133Z" fill="#57719B"/>
<path d="M150.186 43.9186L142.469 52.0237C141.923 52.6003 142.792 53.4762 143.337 52.8996L151.065 44.8056C151.611 44.229 150.742 43.342 150.186 43.9186Z" fill="#57719B"/>
<path d="M159.64 56.4476C152.039 60.9261 144.794 65.9784 137.97 71.5602C137.346 72.0703 138.226 72.9462 138.839 72.4472C145.584 66.9317 152.747 61.9423 160.263 57.5232C160.943 57.1129 160.33 56.0374 159.64 56.4476Z" fill="#57719B"/>
<path d="M167.457 67.1249C158.77 70.7713 150.327 74.9673 142.179 79.6873C142.032 79.7682 141.922 79.9042 141.875 80.0653C141.828 80.2265 141.847 80.3996 141.929 80.5466C142.01 80.6937 142.146 80.8026 142.308 80.8493C142.47 80.8961 142.644 80.877 142.792 80.7961C150.944 76.076 159.39 71.88 168.08 68.2337C168.815 67.89 168.192 66.8145 167.457 67.1249Z" fill="#57719B"/>
<path d="M172.412 88.9455C163.054 86.8281 153.432 86.1069 143.861 86.8056C143.07 86.8721 143.07 88.1028 143.861 88.0474C153.326 87.3448 162.844 88.0511 172.1 90.143C172.88 90.3204 173.192 89.1229 172.412 88.9455Z" fill="#57719B"/>
<path d="M167.724 104.99L143.226 95.5207C142.48 95.2324 142.112 96.441 142.914 96.7182L167.412 106.187C168.158 106.442 168.459 105.333 167.724 104.99Z" fill="#57719B"/>
<path d="M155.687 118.638C150.575 114.478 145.005 110.911 139.083 108.005C138.371 107.651 137.747 108.726 138.46 109.114C144.285 111.959 149.765 115.456 154.796 119.537C155.408 119.958 156.299 119.093 155.687 118.638Z" fill="#57719B"/>
<path d="M144.551 131.944C143.17 131.534 141.979 130.059 140.899 129.15C139.818 128.241 138.939 127.52 137.925 126.744C135.917 125.221 133.828 123.807 131.667 122.508C130.977 122.098 130.364 123.162 131.044 123.617C133.804 125.276 136.442 127.129 138.939 129.161C140.598 130.514 142.135 132.565 144.239 133.186C145.008 133.374 145.319 132.177 144.551 131.944Z" fill="#57719B"/>
<path d="M103.194 59.1654C103.092 59.6267 102.955 60.0795 102.783 60.5198C102.676 60.7939 103.12 60.9289 103.227 60.6343C103.398 60.194 103.536 59.7413 103.638 59.28C103.703 58.9936 103.256 58.879 103.194 59.1654Z" fill="#FEDA66"/>
<path d="M104.751 59.3251C104.702 59.0346 104.262 59.1533 104.308 59.4438C104.365 59.8051 104.391 60.1706 104.386 60.5363C104.386 60.597 104.41 60.6553 104.453 60.6983C104.496 60.7413 104.555 60.7654 104.616 60.7654C104.677 60.7654 104.735 60.7413 104.778 60.6983C104.822 60.6553 104.846 60.597 104.846 60.5363C104.85 60.1306 104.818 59.7254 104.751 59.3251Z" fill="#FEDA66"/>
<path d="M106.699 60.397L106.469 59.2841C106.411 58.9977 105.968 59.1163 106.029 59.4027C106.103 59.7751 106.181 60.1433 106.255 60.5157C106.317 60.8021 106.761 60.6834 106.699 60.397Z" fill="#FEDA66"/>
<path d="M106.198 61.412C106.144 61.1215 105.701 61.2402 105.754 61.5307C105.806 61.8005 105.835 62.0743 105.84 62.349C105.84 62.4098 105.865 62.4681 105.908 62.511C105.951 62.554 106.009 62.5782 106.07 62.5782C106.131 62.5782 106.19 62.554 106.233 62.511C106.276 62.4681 106.301 62.4098 106.301 62.349C106.292 62.0344 106.258 61.721 106.198 61.412Z" fill="#FEDA66"/>
<path d="M104.053 61.8863C104.024 61.5958 103.568 61.5958 103.593 61.8863C103.625 62.18 103.625 62.4765 103.593 62.7701C103.556 63.0566 104.003 63.1793 104.036 62.8847C104.077 62.5534 104.082 62.2188 104.053 61.8863Z" fill="#FEDA66"/>
<path d="M101.636 61.7924C101.571 62.0788 101.509 62.3611 101.447 62.6475C101.386 62.9339 101.825 63.0567 101.891 62.7621L102.08 61.9069C102.142 61.6205 101.698 61.506 101.636 61.7924Z" fill="#FEDA66"/>
<path d="M108.437 63.1831C108.331 62.7912 108.248 62.3937 108.187 61.9924C108.142 61.7019 107.702 61.8246 107.743 62.1111C107.801 62.5122 107.882 62.9097 107.985 63.3017C108.001 63.3614 108.04 63.4124 108.094 63.4435C108.147 63.4746 108.211 63.4832 108.271 63.4674C108.331 63.4517 108.382 63.4129 108.413 63.3596C108.445 63.3062 108.453 63.2428 108.437 63.1831Z" fill="#FEDA66"/>
<path d="M100.1 64.2759L100.001 65.4624C99.9763 65.757 100.437 65.753 100.457 65.4624L100.556 64.2759C100.58 63.9731 100.12 63.9772 100.1 64.2759Z" fill="#FEDA66"/>
<path d="M102.709 64.5256C102.691 64.47 102.651 64.4235 102.6 64.3957C102.548 64.3679 102.487 64.3608 102.431 64.376C102.374 64.3912 102.325 64.4275 102.294 64.4773C102.264 64.5272 102.253 64.587 102.265 64.6443C102.351 64.9224 102.39 65.2128 102.38 65.5035C102.38 65.5649 102.405 65.6237 102.448 65.667C102.492 65.7104 102.551 65.7347 102.612 65.7347C102.674 65.7347 102.733 65.7104 102.777 65.667C102.82 65.6237 102.845 65.5649 102.845 65.5035C102.852 65.1725 102.806 64.8423 102.709 64.5256Z" fill="#FEDA66"/>
<path d="M105.359 63.7153C105.31 63.4247 104.866 63.5434 104.916 63.8339C104.984 64.22 105.007 64.6127 104.986 65.0041C104.986 65.2987 105.433 65.2946 105.446 65.0041C105.464 64.5727 105.435 64.1405 105.359 63.7153Z" fill="#FEDA66"/>
<path d="M107.817 64.1978C107.801 64.1381 107.762 64.0871 107.709 64.0561C107.655 64.025 107.591 64.0164 107.531 64.0321C107.471 64.0478 107.42 64.0866 107.389 64.14C107.358 64.1933 107.349 64.2568 107.365 64.3165C107.459 64.677 107.529 65.0433 107.574 65.413C107.611 65.7036 108.068 65.7036 108.035 65.413C107.989 65.0037 107.916 64.5978 107.817 64.1978Z" fill="#FEDA66"/>
<path d="M106.518 65.7814C106.518 65.4908 106.042 65.4908 106.058 65.7814L106.112 66.7634C106.112 67.058 106.584 67.0539 106.568 66.7634L106.518 65.7814Z" fill="#FEDA66"/>
<path d="M103.868 65.8059C103.827 65.5154 103.383 65.6381 103.424 65.9245C103.453 66.1361 103.469 66.3493 103.469 66.5628C103.477 66.6178 103.504 66.6683 103.546 66.7048C103.588 66.7413 103.642 66.7614 103.697 66.7614C103.753 66.7614 103.807 66.7413 103.849 66.7048C103.891 66.6683 103.918 66.6178 103.925 66.5628C103.925 66.3095 103.905 66.0565 103.868 65.8059Z" fill="#FEDA66"/>
<path d="M101.353 66.3215C101.308 66.031 100.868 66.1496 100.913 66.436C100.958 66.7225 100.999 66.9843 101.041 67.2544C101.082 67.5244 101.53 67.4221 101.484 67.1357C101.439 66.8493 101.398 66.5711 101.353 66.3215Z" fill="#FEDA66"/>
<path d="M108.039 66.7306C108.035 66.9917 107.982 67.2498 107.883 67.4917C107.772 67.7658 108.215 67.9008 108.326 67.6062C108.435 67.3266 108.493 67.0303 108.499 66.7306C108.499 66.6698 108.475 66.6115 108.432 66.5686C108.388 66.5256 108.33 66.5015 108.269 66.5015C108.208 66.5015 108.149 66.5256 108.106 66.5686C108.063 66.6115 108.039 66.6698 108.039 66.7306Z" fill="#FEDA66"/>
<path d="M107.491 70.2196C105.53 69.788 103.487 69.9959 101.646 70.8142C101.601 70.8378 101.559 70.867 101.521 70.9013H101.411C101.27 70.9421 101.149 71.0385 101.075 71.1698C101.002 71.3011 100.981 71.4568 101.018 71.6036C101.323 72.4384 101.823 73.1827 102.475 73.7702C103.127 74.3578 103.911 74.7704 104.755 74.9713C106.196 75.2327 107.805 73.6539 108.538 72.5467C109.45 71.1935 108.966 70.5682 107.491 70.2196Z" fill="#263655"/>
<path d="M98.457 78.3922C94.3373 80.5586 92.3168 85.9207 90.5612 91.5023L88.204 100.499C85.5532 110.891 87.7036 116.48 90.5612 121.063C93.4919 125.763 97.3109 125.763 104.956 125.763C111.738 125.763 114.056 124.404 118.469 121.063C122.913 117.699 121.099 107.366 119.344 100.499C117.815 94.5224 115.231 82.9831 112.881 79.7516C110.531 76.5201 102.577 76.2259 98.457 78.3922Z" fill="#323639"/>
<path d="M108.739 78.7104C108.739 79.8461 108.476 80.7668 108.151 80.7668C107.827 80.7668 107.564 79.8461 107.564 78.7104C107.564 77.5747 107.564 77.2174 108.151 77.5109C108.739 77.5109 108.739 77.5747 108.739 78.7104Z" fill="white"/>
<path d="M101.688 78.3537C101.688 79.3485 101.951 80.155 102.276 80.155C102.6 80.155 102.864 79.3485 102.864 78.3537C102.864 77.3588 102.864 77.0458 102.276 77.303C101.688 77.303 101.688 77.3588 101.688 78.3537Z" fill="white"/>
<path d="M104.039 77.5766C104.039 78.0271 103.776 78.3924 103.451 78.3924C103.127 78.3924 102.864 78.0271 102.864 77.5766C102.864 77.126 103.127 77.2269 103.451 77.2269C103.776 77.2269 104.039 77.126 104.039 77.5766Z" fill="white"/>
<path d="M105.214 77.5766C105.214 78.0271 104.951 78.3924 104.626 78.3924C104.302 78.3924 104.039 78.0271 104.039 77.5766C104.039 77.126 104.302 77.2269 104.626 77.2269C104.951 77.2269 105.214 77.126 105.214 77.5766Z" fill="white"/>
<path d="M106.389 77.5766C106.389 78.0271 106.126 78.3924 105.801 78.3924C105.477 78.3924 105.214 78.0271 105.214 77.5766C105.214 77.126 105.477 77.2269 105.801 77.2269C106.126 77.2269 106.389 77.126 106.389 77.5766Z" fill="white"/>
<path d="M107.564 77.5766C107.564 78.0271 107.301 78.3924 106.976 78.3924C106.652 78.3924 106.389 78.0271 106.389 77.5766C106.389 77.126 106.652 77.2269 106.976 77.2269C107.301 77.2269 107.564 77.126 107.564 77.5766Z" fill="white"/>
<path d="M109.214 123.991C109.214 122.495 108.867 121.282 108.44 121.282C108.012 121.282 107.666 122.495 107.666 123.991C107.666 125.487 107.666 125.958 108.44 125.571C109.214 125.571 109.214 125.487 109.214 123.991Z" fill="white"/>
<path d="M99.9259 124.462C99.9259 123.151 100.272 122.089 100.7 122.089C101.127 122.089 101.474 123.151 101.474 124.462C101.474 125.772 101.474 126.184 100.7 125.846C99.9259 125.846 99.9259 125.772 99.9259 124.462Z" fill="white"/>
<path d="M103.022 125.485C103.022 124.892 102.675 124.411 102.248 124.411C101.82 124.411 101.474 124.892 101.474 125.485C101.474 126.079 101.82 125.946 102.248 125.946C102.675 125.946 103.022 126.079 103.022 125.485Z" fill="white"/>
<path d="M104.57 125.485C104.57 124.892 104.223 124.411 103.796 124.411C103.368 124.411 103.022 124.892 103.022 125.485C103.022 126.079 103.368 125.946 103.796 125.946C104.223 125.946 104.57 126.079 104.57 125.485Z" fill="white"/>
<path d="M106.118 125.485C106.118 124.892 105.771 124.411 105.344 124.411C104.916 124.411 104.57 124.892 104.57 125.485C104.57 126.079 104.916 125.946 105.344 125.946C105.771 125.946 106.118 126.079 106.118 125.485Z" fill="white"/>
<path d="M107.666 125.485C107.666 124.892 107.319 124.411 106.892 124.411C106.464 124.411 106.118 124.892 106.118 125.485C106.118 126.079 106.464 125.946 106.892 125.946C107.319 125.946 107.666 126.079 107.666 125.485Z" fill="white"/>
<path d="M87.5975 212.5C84.7975 213.7 61.7641 210.333 50.5975 208.5C44.4238 207.492 37.0929 210.707 41 180C46.8642 177.167 45 156.731 63.5 161C76.5 164 69 198 78 198C87 198 91.0975 211 87.5975 212.5Z" fill="#FD7914"/>
<path d="M105.51 211.797C105.552 211.582 104.689 210.915 104.64 211.122L103.312 216.938C103.268 217.154 104.131 217.822 104.182 217.612C104.62 215.668 105.063 213.73 105.51 211.797Z" fill="#57719B"/>
<path d="M108.838 211.639C108.832 211.42 107.844 210.958 107.841 211.172L107.821 217.137C107.826 217.357 108.814 217.82 108.818 217.604C108.819 215.611 108.826 213.623 108.838 211.639Z" fill="#57719B"/>
<path d="M112.643 211.427C112.591 211.215 111.528 210.97 111.57 211.179L112.8 217.016C112.851 217.231 113.914 217.476 113.872 217.264C113.456 215.316 113.047 213.37 112.643 211.427Z" fill="#57719B"/>
<path d="M128.429 210.817C128.47 210.603 127.608 209.935 127.558 210.143L126.231 215.958C126.187 216.174 127.05 216.842 127.101 216.633C127.539 214.689 127.982 212.75 128.429 210.817Z" fill="#57719B"/>
<path d="M131.604 211.634C131.598 211.415 130.61 210.952 130.608 211.165L130.58 217.13C130.585 217.351 131.572 217.814 131.577 217.598C131.58 215.606 131.589 213.618 131.604 211.634Z" fill="#57719B"/>
<path d="M135.071 210.518C135.038 210.302 134.002 209.962 134.025 210.174L134.721 216.098C134.752 216.317 135.789 216.657 135.767 216.443C135.529 214.464 135.297 212.49 135.071 210.518Z" fill="#57719B"/>
<path d="M9.5286 192.151C13.1852 191.087 13.7946 192.682 40 198V196.405C30.6554 194.632 10.8693 190.343 6.48146 187.365C0.996612 183.643 1.60604 188.428 2.8249 191.087C4.04374 193.746 5.87199 193.214 9.52847 192.151L9.5286 192.151Z" fill="#FAAC30"/>
</svg>
