<svg width="150" height="148" viewBox="0 0 150 148" fill="none" xmlns="http://www.w3.org/2000/svg">
<path d="M42.1899 21.6737C44.6899 31.3137 39.6299 40.1837 30.1899 43.2437C25.5039 44.8043 20.4176 44.6633 15.8252 42.8453C11.2329 41.0274 7.42819 37.6489 5.07995 33.3037C3.73355 30.702 3.00435 27.8251 2.94886 24.8961C2.89337 21.9671 3.51307 19.0647 4.75995 16.4137C6.63995 8.92374 12.9999 2.81374 21.5099 3.92374C31.0499 5.16374 39.7499 12.2737 42.1899 21.6737Z" fill="#F9F9F9"/>
<path d="M15.06 33.4838H15C14.7348 33.4838 14.4804 33.5891 14.2929 33.7766C14.1054 33.9642 14 34.2185 14 34.4838C14 34.749 14.1054 35.0033 14.2929 35.1909C14.4804 35.3784 14.7348 35.4838 15 35.4838H15.09C15.3552 35.4798 15.608 35.3706 15.7927 35.1803C15.9774 34.9899 16.079 34.734 16.075 34.4688C16.071 34.2035 15.9619 33.9508 15.7715 33.766C15.5812 33.5813 15.3252 33.4798 15.06 33.4838Z" fill="#263655"/>
<path d="M12.63 41.1238C12.3648 41.1238 12.1104 41.2291 11.9229 41.4167C11.7354 41.6042 11.63 41.8586 11.63 42.1238C11.63 42.389 11.7354 42.6434 11.9229 42.8309C12.1104 43.0184 12.3648 43.1238 12.63 43.1238C12.8952 43.1238 13.1496 43.0184 13.3371 42.8309C13.5246 42.6434 13.63 42.389 13.63 42.1238C13.63 41.8586 13.5246 41.6042 13.3371 41.4167C13.1496 41.2291 12.8952 41.1238 12.63 41.1238Z" fill="#263655"/>
<path d="M14.45 49.0037L14.36 49.0937C14.1717 49.2807 14.0654 49.5348 14.0645 49.8002C14.0635 50.0655 14.168 50.3204 14.355 50.5087C14.542 50.697 14.7961 50.8033 15.0615 50.8043C15.3268 50.8052 15.5817 50.7007 15.77 50.5137L15.86 50.4237C16.0483 50.2367 16.1546 49.9826 16.1556 49.7172C16.1565 49.4519 16.052 49.197 15.865 49.0087C15.678 48.8204 15.4239 48.7141 15.1586 48.7131C14.8932 48.7122 14.6383 48.8167 14.45 49.0037Z" fill="#263655"/>
<path d="M22.3101 55.9238L22.1401 55.5638C21.5601 54.4038 19.8201 55.4038 20.4001 56.5638L20.5801 56.9238C21.1501 58.0638 22.8901 57.0738 22.3101 55.9238Z" fill="#263655"/>
<path d="M28.45 58.5038L28.36 58.4138C27.45 57.5038 26.03 58.9038 26.94 59.8138L27.03 59.9038C27.94 60.8138 29.36 59.4138 28.45 58.5038Z" fill="#263655"/>
<path d="M36.36 58.7739C36.2473 58.6507 36.1096 58.5531 35.9561 58.4875C35.8026 58.422 35.6368 58.39 35.47 58.3939C34.31 58.3939 34.21 59.9339 35.13 60.3039C35.3353 60.412 35.5718 60.4454 35.799 60.3982C36.0262 60.3511 36.2299 60.2265 36.3753 60.0456C36.5207 59.8648 36.5987 59.639 36.5959 59.407C36.5931 59.175 36.5097 58.9511 36.36 58.7739Z" fill="#263655"/>
<path d="M42.2 55.5037C42.0579 55.5002 41.9169 55.53 41.7884 55.5908C41.6599 55.6516 41.5474 55.7416 41.46 55.8537C41.3108 55.9893 41.206 56.1669 41.1595 56.363C41.113 56.5592 41.1269 56.7649 41.1994 56.953C41.2718 57.1412 41.3994 57.3031 41.5655 57.4174C41.7316 57.5317 41.9283 57.5932 42.13 57.5937C42.2724 57.5997 42.4142 57.5709 42.5431 57.51C42.672 57.449 42.7842 57.3576 42.87 57.2437C43.0192 57.1081 43.1239 56.9305 43.1704 56.7344C43.2169 56.5382 43.203 56.3325 43.1306 56.1444C43.0581 55.9562 42.9305 55.7943 42.7644 55.68C42.5983 55.5657 42.4016 55.5042 42.2 55.5037Z" fill="#263655"/>
<path d="M46 50.2236V50.4036C46 50.6688 46.1054 50.9232 46.2929 51.1107C46.4804 51.2983 46.7348 51.4036 47 51.4036C47.2652 51.4036 47.5196 51.2983 47.7071 51.1107C47.8946 50.9232 48 50.6688 48 50.4036V50.2236C48 49.9584 47.8946 49.7041 47.7071 49.5165C47.5196 49.329 47.2652 49.2236 47 49.2236C46.7348 49.2236 46.4804 49.329 46.2929 49.5165C46.1054 49.7041 46 49.9584 46 50.2236Z" fill="#263655"/>
<path d="M47.77 41.2336V41.3236C47.77 41.5889 47.8754 41.8432 48.0629 42.0308C48.2504 42.2183 48.5048 42.3236 48.77 42.3236C49.0352 42.3236 49.2896 42.2183 49.4771 42.0308C49.6647 41.8432 49.77 41.5889 49.77 41.3236V41.2336C49.77 40.9684 49.6647 40.7141 49.4771 40.5265C49.2896 40.339 49.0352 40.2336 48.77 40.2336C48.5048 40.2336 48.2504 40.339 48.0629 40.5265C47.8754 40.7141 47.77 40.9684 47.77 41.2336Z" fill="#263655"/>
<path d="M47.06 33.7838L47 33.6938C46.09 32.7838 44.66 34.1838 45.57 35.0938L45.66 35.1838C46.54 36.0938 48 34.6938 47.06 33.7838Z" fill="#263655"/>
<path d="M41.55 27.1338L41.37 27.0038C40.22 26.4338 39.21 28.1638 40.37 28.7438L40.55 28.8338C41.69 29.4438 42.7 27.7138 41.55 27.1338Z" fill="#263655"/>
<path d="M34.7401 23.2336H34.5601C34.2948 23.2336 34.0405 23.339 33.853 23.5265C33.6654 23.7141 33.5601 23.9684 33.5601 24.2336C33.5601 24.4989 33.6654 24.7532 33.853 24.9408C34.0405 25.1283 34.2948 25.2336 34.5601 25.2336H34.7401C35.0053 25.2336 35.2596 25.1283 35.4472 24.9408C35.6347 24.7532 35.7401 24.4989 35.7401 24.2336C35.7401 23.9684 35.6347 23.7141 35.4472 23.5265C35.2596 23.339 35.0053 23.2336 34.7401 23.2336Z" fill="#263655"/>
<path d="M27.22 21.7238L27.13 21.8138C26.21 22.7238 27.62 24.1538 28.53 23.2438L28.62 23.1538C29.53 22.2438 28.13 20.8138 27.22 21.7238Z" fill="#263655"/>
<path d="M21.62 24.0037C21.3548 24.0037 21.1004 24.109 20.9129 24.2966C20.7254 24.4841 20.62 24.7384 20.62 25.0037C20.62 25.2689 20.7254 25.5232 20.9129 25.7108C21.1004 25.8983 21.3548 26.0037 21.62 26.0037C21.8852 26.0037 22.1396 25.8983 22.3271 25.7108C22.5146 25.5232 22.62 25.2689 22.62 25.0037C22.62 24.7384 22.5146 24.4841 22.3271 24.2966C22.1396 24.109 21.8852 24.0037 21.62 24.0037Z" fill="#263655"/>
<path d="M18.11 28.1838C17.8448 28.1838 17.5904 28.2892 17.4029 28.4767C17.2153 28.6643 17.11 28.9186 17.11 29.1838C17.11 29.4491 17.2153 29.7034 17.4029 29.8909C17.5904 30.0785 17.8448 30.1838 18.11 30.1838C18.3752 30.1838 18.6296 30.0785 18.8171 29.8909C19.0046 29.7034 19.11 29.4491 19.11 29.1838C19.11 28.9186 19.0046 28.6643 18.8171 28.4767C18.6296 28.2892 18.3752 28.1838 18.11 28.1838Z" fill="#263655"/>
<path d="M17.6 37.8137L17.51 37.9037C16.6 38.8137 18 40.2437 18.91 39.3337L19 39.2437C19.91 38.3337 18.51 36.9037 17.6 37.8137Z" fill="#263655"/>
<path d="M19.47 46.5438L19.11 46.0938C18.9226 45.9075 18.6692 45.803 18.405 45.803C18.1408 45.803 17.8873 45.9075 17.7 46.0938C17.5137 46.2811 17.4092 46.5346 17.4092 46.7988C17.4092 47.063 17.5137 47.3164 17.7 47.5038L18.05 47.9538C18.2356 48.1434 18.489 48.2515 18.7544 48.2543C19.0197 48.2571 19.2753 48.1544 19.465 47.9688C19.6546 47.7831 19.7627 47.5297 19.7655 47.2644C19.7683 46.999 19.6656 46.7434 19.48 46.5538L19.47 46.5438Z" fill="#263655"/>
<path d="M25.54 52.1437L24.83 51.6837C23.75 50.9737 22.75 52.6837 23.83 53.4137L24.54 53.8737C25.61 54.5837 26.61 52.8437 25.54 52.1437Z" fill="#263655"/>
<path d="M34 53.9136L33.91 53.8236C33.723 53.6353 33.4689 53.529 33.2036 53.5281C32.9382 53.5271 32.6833 53.6317 32.495 53.8186C32.3067 54.0056 32.2004 54.2597 32.1995 54.5251C32.1985 54.7905 32.303 55.0453 32.49 55.2336L32.58 55.3236C32.767 55.5119 33.0211 55.6183 33.2865 55.6192C33.5519 55.6201 33.8067 55.5156 33.995 55.3286C34.1833 55.1417 34.2896 54.8875 34.2906 54.6222C34.2915 54.3568 34.187 54.1019 34 53.9136Z" fill="#263655"/>
<path d="M40 50.5637C39.7348 50.5637 39.4804 50.6691 39.2929 50.8566C39.1054 51.0441 39 51.2985 39 51.5637C39 51.8289 39.1054 52.0833 39.2929 52.2708C39.4804 52.4584 39.7348 52.5637 40 52.5637C40.2652 52.5637 40.5196 52.4584 40.7071 52.2708C40.8946 52.0833 41 51.8289 41 51.5637C41 51.2985 40.8946 51.0441 40.7071 50.8566C40.5196 50.6691 40.2652 50.5637 40 50.5637Z" fill="#263655"/>
<path d="M42.83 44.6438V44.7338C42.83 44.999 42.9353 45.2534 43.1228 45.4409C43.3104 45.6284 43.5647 45.7338 43.83 45.7338C44.0952 45.7338 44.3495 45.6284 44.5371 45.4409C44.7246 45.2534 44.83 44.999 44.83 44.7338V44.6438C44.83 44.3786 44.7246 44.1242 44.5371 43.9367C44.3495 43.7492 44.0952 43.6438 43.83 43.6438C43.5647 43.6438 43.3104 43.7492 43.1228 43.9367C42.9353 44.1242 42.83 44.3786 42.83 44.6438Z" fill="#263655"/>
<path d="M43.0701 36.2238L42.8001 36.0038C41.7301 35.2938 40.7301 37.0038 41.8001 37.7338L42.0701 37.9138C43.1401 38.6738 44.1401 36.9338 43.0701 36.2238Z" fill="#263655"/>
<path d="M36.7101 30.5437L36.4401 30.4537C36.3127 30.4206 36.18 30.413 36.0497 30.4314C35.9194 30.4497 35.7939 30.4935 35.6806 30.5604C35.5672 30.6273 35.4682 30.7159 35.3892 30.8212C35.3102 30.9264 35.2527 31.0462 35.2201 31.1737C35.187 31.3011 35.1794 31.4337 35.1977 31.5641C35.216 31.6944 35.2599 31.8198 35.3268 31.9332C35.3937 32.0465 35.4823 32.1455 35.5875 32.2246C35.6928 32.3036 35.8126 32.3611 35.9401 32.3937L36.2101 32.4837C36.3374 32.5168 36.4701 32.5244 36.6004 32.506C36.7308 32.4877 36.8562 32.4439 36.9695 32.377C37.0829 32.3101 37.1819 32.2215 37.2609 32.1162C37.34 32.011 37.3974 31.8912 37.4301 31.7637C37.4631 31.6363 37.4707 31.5037 37.4524 31.3733C37.4341 31.243 37.3902 31.1176 37.3233 31.0042C37.2564 30.8909 37.1678 30.7919 37.0626 30.7128C36.9574 30.6338 36.8376 30.5763 36.7101 30.5437Z" fill="#263655"/>
<path d="M28.49 28.0537L28.4 28.2337C27.83 29.3737 29.56 30.3837 30.13 29.2337L30.22 29.0537C30.8 27.9037 29.07 26.8937 28.49 28.0537Z" fill="#263655"/>
<path d="M23.15 30.8738C22.8848 30.8738 22.6305 30.9791 22.4429 31.1667C22.2554 31.3542 22.15 31.6086 22.15 31.8738C22.15 32.139 22.2554 32.3933 22.4429 32.5809C22.6305 32.7684 22.8848 32.8738 23.15 32.8738C23.4152 32.8738 23.6696 32.7684 23.8571 32.5809C24.0447 32.3933 24.15 32.139 24.15 31.8738C24.15 31.6086 24.0447 31.3542 23.8571 31.1667C23.6696 30.9791 23.4152 30.8738 23.15 30.8738Z" fill="#263655"/>
<path d="M22.24 40.7837V40.8737C22.24 41.1389 22.3453 41.3933 22.5329 41.5808C22.7204 41.7683 22.9748 41.8737 23.24 41.8737C23.5052 41.8737 23.7596 41.7683 23.9471 41.5808C24.1346 41.3933 24.24 41.1389 24.24 40.8737V40.7837C24.24 40.5185 24.1346 40.2641 23.9471 40.0766C23.7596 39.8891 23.5052 39.7837 23.24 39.7837C22.9748 39.7837 22.7204 39.8891 22.5329 40.0766C22.3453 40.2641 22.24 40.5185 22.24 40.7837Z" fill="#263655"/>
<path d="M26.8 47.3838L26.62 47.2938C25.47 46.7138 24.46 48.4438 25.62 49.0238L25.8 49.1138C26.94 49.6838 28 48.0038 26.8 47.3838Z" fill="#263655"/>
<path d="M35.25 47.4637L35.07 47.5537C33.92 48.1437 34.91 49.8737 36.07 49.2937L36.25 49.2037C37.39 48.6137 36.39 46.8837 35.25 47.4637Z" fill="#263655"/>
<path d="M39.33 41.5138L39.24 41.4238C38.33 40.5138 36.9 41.9138 37.81 42.8238L37.9 42.9138C38.81 43.8238 40.24 42.4238 39.33 41.5138Z" fill="#263655"/>
<path d="M32.7701 34.0037H32.6801C32.4148 34.0037 32.1605 34.109 31.9729 34.2966C31.7854 34.4841 31.6801 34.7384 31.6801 35.0037C31.6801 35.2689 31.7854 35.5232 31.9729 35.7108C32.1605 35.8983 32.4148 36.0037 32.6801 36.0037H32.7701C33.0353 36.0037 33.2896 35.8983 33.4772 35.7108C33.6647 35.5232 33.7701 35.2689 33.7701 35.0037C33.7701 34.7384 33.6647 34.4841 33.4772 34.2966C33.2896 34.109 33.0353 34.0037 32.7701 34.0037Z" fill="#263655"/>
<path d="M26.2 35.9138C25.9347 35.9138 25.6804 36.0192 25.4928 36.2067C25.3053 36.3942 25.2 36.6486 25.2 36.9138C25.2 37.179 25.3053 37.4334 25.4928 37.6209C25.6804 37.8085 25.9347 37.9138 26.2 37.9138C26.4652 37.9138 26.7195 37.8085 26.9071 37.6209C27.0946 37.4334 27.2 37.179 27.2 36.9138C27.2 36.6486 27.0946 36.3942 26.9071 36.2067C26.7195 36.0192 26.4652 35.9138 26.2 35.9138Z" fill="#263655"/>
<path d="M29.61 43.6538V43.7438C29.61 44.009 29.7153 44.2634 29.9029 44.4509C30.0904 44.6384 30.3448 44.7438 30.61 44.7438C30.8752 44.7438 31.1296 44.6384 31.3171 44.4509C31.5046 44.2634 31.61 44.009 31.61 43.7438V43.6538C31.61 43.3886 31.5046 43.1342 31.3171 42.9467C31.1296 42.7592 30.8752 42.6538 30.61 42.6538C30.3448 42.6538 30.0904 42.7592 29.9029 42.9467C29.7153 43.1342 29.61 43.3886 29.61 43.6538Z" fill="#263655"/>
<path d="M34.47 38.2437C34.2048 38.2437 33.9504 38.349 33.7629 38.5365C33.5753 38.7241 33.47 38.9784 33.47 39.2437C33.47 39.5089 33.5753 39.7632 33.7629 39.9508C33.9504 40.1383 34.2048 40.2437 34.47 40.2437C34.7352 40.2437 34.9895 40.1383 35.1771 39.9508C35.3646 39.7632 35.47 39.5089 35.47 39.2437C35.47 38.9784 35.3646 38.7241 35.1771 38.5365C34.9895 38.349 34.7352 38.2437 34.47 38.2437Z" fill="#263655"/>
<path d="M18.92 41.9338C18.6548 41.9338 18.4005 42.0392 18.2129 42.2267C18.0254 42.4143 17.92 42.6686 17.92 42.9338C17.92 43.1991 18.0254 43.4534 18.2129 43.6409C18.4005 43.8285 18.6548 43.9338 18.92 43.9338C19.1853 43.9338 19.4396 43.8285 19.6272 43.6409C19.8147 43.4534 19.92 43.1991 19.92 42.9338C19.92 42.6686 19.8147 42.4143 19.6272 42.2267C19.4396 42.0392 19.1853 41.9338 18.92 41.9338Z" fill="#263655"/>
<path d="M112.43 103.514V103.424C112.331 103.174 112.136 102.975 111.89 102.869C111.643 102.763 111.364 102.759 111.115 102.859C110.866 102.958 110.666 103.153 110.56 103.399C110.454 103.646 110.451 103.924 110.55 104.174V104.264C110.65 104.513 110.844 104.713 111.091 104.819C111.337 104.924 111.616 104.928 111.865 104.829C112.114 104.729 112.314 104.535 112.42 104.288C112.526 104.042 112.53 103.763 112.43 103.514Z" fill="#FFE388"/>
<path d="M104.36 104.064C104.261 103.816 104.067 103.618 103.821 103.512C103.575 103.407 103.298 103.404 103.05 103.504C102.802 103.603 102.604 103.797 102.499 104.043C102.394 104.288 102.391 104.566 102.49 104.814C102.589 105.062 102.783 105.26 103.029 105.365C103.151 105.417 103.281 105.445 103.414 105.446C103.546 105.448 103.677 105.423 103.8 105.374C103.923 105.325 104.035 105.252 104.129 105.159C104.224 105.067 104.299 104.956 104.351 104.835C104.403 104.713 104.431 104.582 104.432 104.45C104.434 104.318 104.409 104.187 104.36 104.064Z" fill="#FFE388"/>
<path d="M97.6901 108.674H97.5701C97.3261 108.565 97.0489 108.558 96.7994 108.653C96.55 108.749 96.3488 108.94 96.2401 109.184C96.1313 109.428 96.124 109.705 96.2196 109.954C96.3152 110.204 96.5061 110.405 96.7501 110.514L96.8701 110.564C97.1207 110.672 97.4042 110.677 97.6584 110.577C97.9125 110.476 98.1163 110.279 98.2251 110.029C98.3338 109.778 98.3385 109.494 98.2382 109.24C98.1379 108.986 97.9407 108.782 97.6901 108.674Z" fill="#FFE388"/>
<path d="M94.0701 118.624L94.3401 118.324C95.2101 117.324 93.6301 116.094 92.7701 117.054L92.5001 117.354C91.6301 118.324 93.2101 119.584 94.0701 118.624Z" fill="#FFE388"/>
<path d="M93.92 125.334V125.214C94.0288 124.97 94.0361 124.693 93.9405 124.443C93.8448 124.194 93.654 123.993 93.41 123.884C93.166 123.775 92.8888 123.768 92.6394 123.863C92.39 123.959 92.1888 124.15 92.08 124.394V124.514C92.0262 124.635 91.9967 124.765 91.9932 124.897C91.9896 125.029 92.0122 125.161 92.0596 125.284C92.1552 125.534 92.346 125.735 92.59 125.844C92.834 125.953 93.1112 125.96 93.3606 125.864C93.6101 125.769 93.8113 125.578 93.92 125.334Z" fill="#FFE388"/>
<path d="M96.6 132.854C96.6694 132.696 96.7053 132.526 96.7053 132.354C96.7053 132.182 96.6694 132.011 96.6 131.854C96.22 130.754 94.69 131.244 94.68 132.244C94.5991 132.498 94.6226 132.775 94.7455 133.012C94.8683 133.249 95.0804 133.428 95.335 133.509C95.5896 133.59 95.8659 133.566 96.1031 133.443C96.3404 133.32 96.5191 133.108 96.6 132.854Z" fill="#FFE388"/>
<path d="M101.82 137.124C101.772 136.988 101.693 136.866 101.588 136.767C101.484 136.668 101.358 136.595 101.22 136.554C101.038 136.457 100.83 136.42 100.626 136.446C100.421 136.472 100.23 136.56 100.078 136.699C99.9258 136.839 99.8203 137.021 99.7759 137.222C99.7315 137.424 99.7504 137.634 99.83 137.824C99.8792 137.959 99.959 138.08 100.063 138.179C100.167 138.278 100.293 138.352 100.43 138.394C100.612 138.49 100.82 138.528 101.024 138.502C101.228 138.476 101.42 138.387 101.572 138.248C101.724 138.109 101.83 137.926 101.874 137.725C101.918 137.524 101.899 137.314 101.82 137.124Z" fill="#FFE388"/>
<path d="M108.17 138.704L108 138.764C107.877 138.814 107.764 138.887 107.669 138.981C107.574 139.074 107.499 139.185 107.447 139.308C107.395 139.43 107.367 139.562 107.366 139.695C107.365 139.828 107.39 139.96 107.44 140.084C107.541 140.333 107.736 140.532 107.984 140.637C108.107 140.689 108.238 140.716 108.371 140.718C108.504 140.719 108.637 140.694 108.76 140.644L108.92 140.574C109.168 140.474 109.366 140.28 109.471 140.035C109.576 139.789 109.579 139.512 109.48 139.264C109.381 139.016 109.187 138.817 108.941 138.712C108.695 138.607 108.418 138.604 108.17 138.704Z" fill="#FFE388"/>
<path d="M117.27 137.064H117.19C117.067 137.113 116.955 137.186 116.861 137.279C116.766 137.371 116.691 137.481 116.639 137.603C116.587 137.725 116.559 137.855 116.558 137.987C116.556 138.12 116.581 138.251 116.63 138.374C116.729 138.622 116.923 138.82 117.169 138.925C117.291 138.977 117.421 139.005 117.554 139.006C117.686 139.008 117.817 138.983 117.94 138.934H118.02C118.268 138.834 118.466 138.641 118.571 138.395C118.676 138.149 118.679 137.872 118.58 137.624C118.481 137.376 118.287 137.178 118.041 137.073C117.795 136.968 117.518 136.964 117.27 137.064Z" fill="#FFE388"/>
<path d="M124 133.634L124.05 133.514C124.157 133.27 124.164 132.993 124.067 132.745C123.97 132.496 123.779 132.296 123.535 132.189C123.291 132.081 123.014 132.075 122.766 132.172C122.517 132.268 122.317 132.46 122.21 132.704V132.814C122.151 133.041 122.174 133.282 122.275 133.494C122.376 133.706 122.548 133.875 122.762 133.973C122.975 134.071 123.216 134.09 123.443 134.028C123.669 133.966 123.866 133.827 124 133.634Z" fill="#FFE388"/>
<path d="M128.18 126.004V125.804C128.3 124.514 126.3 124.214 126.18 125.504V125.704C126.07 127.004 128.07 127.304 128.18 126.004Z" fill="#FFE388"/>
<path d="M129.33 118.184L129.26 118.014C129.161 117.766 128.967 117.567 128.721 117.462C128.475 117.357 128.198 117.354 127.95 117.454C127.702 117.553 127.504 117.747 127.399 117.993C127.294 118.238 127.291 118.516 127.39 118.764L127.45 118.934C127.549 119.183 127.744 119.383 127.991 119.489C128.237 119.595 128.516 119.598 128.765 119.499C129.014 119.399 129.214 119.205 129.32 118.958C129.426 118.712 129.429 118.433 129.33 118.184Z" fill="#FFE388"/>
<path d="M128 110.564H127.88C127.636 110.455 127.359 110.448 127.109 110.543C126.86 110.639 126.659 110.83 126.55 111.074C126.441 111.318 126.434 111.595 126.53 111.844C126.625 112.094 126.816 112.295 127.06 112.404L127.18 112.454C127.304 112.508 127.438 112.536 127.573 112.539C127.708 112.541 127.842 112.517 127.968 112.467C128.094 112.417 128.209 112.343 128.306 112.249C128.403 112.155 128.481 112.043 128.535 111.919C128.589 111.795 128.618 111.661 128.62 111.526C128.622 111.391 128.598 111.256 128.548 111.13C128.498 111.005 128.424 110.89 128.33 110.793C128.236 110.695 128.124 110.618 128 110.564Z" fill="#FFE388"/>
<path d="M123.79 106.134C123.689 105.886 123.494 105.688 123.247 105.584C123.001 105.48 122.723 105.478 122.475 105.579C122.227 105.679 122.029 105.875 121.925 106.121C121.821 106.368 121.819 106.646 121.92 106.894C122.021 107.142 122.216 107.339 122.463 107.444C122.709 107.548 122.987 107.549 123.235 107.449C123.483 107.348 123.681 107.153 123.785 106.906C123.889 106.659 123.891 106.382 123.79 106.134Z" fill="#FFE388"/>
<path d="M118.53 104.414C118.431 104.166 118.237 103.967 117.991 103.862C117.745 103.757 117.468 103.754 117.22 103.854C116.972 103.953 116.774 104.147 116.669 104.393C116.564 104.638 116.561 104.916 116.66 105.164C116.76 105.412 116.953 105.61 117.199 105.715C117.321 105.767 117.451 105.794 117.584 105.796C117.716 105.797 117.847 105.773 117.97 105.724C118.093 105.674 118.205 105.601 118.299 105.509C118.394 105.416 118.469 105.306 118.521 105.185C118.573 105.063 118.601 104.932 118.602 104.8C118.604 104.668 118.579 104.536 118.53 104.414Z" fill="#FFE388"/>
<path d="M109.3 107.494H109.19C108.945 107.385 108.666 107.378 108.416 107.475C108.165 107.571 107.964 107.763 107.855 108.009C107.746 108.254 107.739 108.533 107.836 108.783C107.933 109.033 108.125 109.235 108.37 109.344H108.49C108.735 109.451 109.013 109.457 109.263 109.359C109.512 109.262 109.713 109.069 109.82 108.824C109.927 108.578 109.933 108.301 109.835 108.051C109.738 107.802 109.545 107.601 109.3 107.494Z" fill="#FFE388"/>
<path d="M101.82 112.484L102.1 111.974C102.155 111.853 102.185 111.723 102.189 111.59C102.193 111.458 102.171 111.326 102.123 111.202C102.076 111.078 102.004 110.965 101.913 110.869C101.821 110.774 101.711 110.697 101.59 110.644C101.469 110.589 101.338 110.56 101.205 110.556C101.072 110.553 100.94 110.576 100.816 110.625C100.692 110.673 100.579 110.746 100.484 110.838C100.388 110.931 100.312 111.042 100.26 111.164L99.97 111.664C99.9155 111.785 99.8857 111.916 99.8824 112.049C99.8791 112.182 99.9023 112.314 99.9507 112.438C99.9992 112.562 100.072 112.675 100.164 112.77C100.257 112.866 100.368 112.942 100.49 112.994C100.611 113.049 100.741 113.079 100.874 113.083C101.006 113.087 101.138 113.065 101.262 113.017C101.385 112.97 101.499 112.898 101.594 112.807C101.69 112.715 101.767 112.605 101.82 112.484Z" fill="#FFE388"/>
<path d="M98.8 120.244L98.98 119.404C99.24 118.134 97.24 117.844 96.98 119.114L96.81 119.944C96.55 121.214 98.54 121.514 98.8 120.244Z" fill="#FFE388"/>
<path d="M100.28 128.864V128.744C100.389 128.5 100.396 128.222 100.3 127.973C100.205 127.724 100.014 127.522 99.77 127.414C99.526 127.305 99.2488 127.298 98.9994 127.393C98.75 127.489 98.5487 127.68 98.44 127.924V128.044C98.3313 128.288 98.3239 128.565 98.4196 128.814C98.5152 129.064 98.706 129.265 98.95 129.374C99.194 129.482 99.4712 129.49 99.7206 129.394C99.9701 129.298 100.171 129.108 100.28 128.864Z" fill="#FFE388"/>
<path d="M105.63 133.184C105.531 132.934 105.336 132.735 105.09 132.629C104.843 132.523 104.564 132.519 104.315 132.619C104.066 132.718 103.866 132.913 103.76 133.159C103.654 133.406 103.651 133.684 103.75 133.934C103.849 134.183 104.044 134.383 104.291 134.489C104.537 134.594 104.816 134.598 105.065 134.499C105.314 134.399 105.514 134.205 105.62 133.958C105.726 133.712 105.729 133.433 105.63 133.184Z" fill="#FFE388"/>
<path d="M112.24 133.684H112.15C112.027 133.733 111.915 133.806 111.821 133.898C111.726 133.991 111.651 134.101 111.599 134.223C111.547 134.344 111.519 134.475 111.518 134.607C111.516 134.74 111.541 134.871 111.59 134.994C111.639 135.117 111.712 135.228 111.805 135.323C111.897 135.418 112.007 135.493 112.129 135.545C112.251 135.597 112.381 135.625 112.514 135.626C112.646 135.628 112.777 135.603 112.9 135.554H112.99C113.113 135.504 113.225 135.432 113.319 135.339C113.414 135.247 113.489 135.136 113.541 135.015C113.593 134.893 113.621 134.762 113.622 134.63C113.624 134.498 113.599 134.367 113.55 134.244C113.501 134.121 113.428 134.009 113.335 133.914C113.243 133.82 113.133 133.744 113.011 133.692C112.889 133.64 112.759 133.613 112.626 133.611C112.494 133.61 112.363 133.634 112.24 133.684Z" fill="#FFE388"/>
<path d="M120.22 130.794L120.29 130.474C120.57 129.204 118.57 128.914 118.29 130.184L118.22 130.504C118 131.774 120 132.064 120.22 130.794Z" fill="#FFE388"/>
<path d="M123.2 122.734V122.444C123.168 122.179 123.032 121.937 122.822 121.772C122.612 121.607 122.345 121.532 122.08 121.564C121.815 121.596 121.573 121.732 121.408 121.942C121.243 122.152 121.168 122.419 121.2 122.684V122.974C121.215 123.106 121.256 123.233 121.32 123.349C121.385 123.464 121.472 123.566 121.576 123.648C121.68 123.73 121.8 123.79 121.927 123.826C122.055 123.861 122.189 123.871 122.32 123.854C122.452 123.839 122.579 123.798 122.695 123.734C122.811 123.669 122.912 123.582 122.994 123.478C123.076 123.374 123.137 123.254 123.172 123.127C123.207 122.999 123.217 122.865 123.2 122.734Z" fill="#FFE388"/>
<path d="M122.49 114.094H122.29C121.01 113.974 120.7 115.974 122 116.094H122.2C123.49 116.204 123.79 114.214 122.49 114.094Z" fill="#FFE388"/>
<path d="M117.87 110.134C117.771 109.886 117.577 109.688 117.331 109.583C117.085 109.478 116.808 109.474 116.56 109.574C116.312 109.673 116.114 109.867 116.009 110.113C115.904 110.359 115.901 110.636 116 110.884C116.049 111.007 116.122 111.119 116.215 111.213C116.307 111.308 116.417 111.383 116.539 111.435C116.661 111.487 116.791 111.515 116.924 111.516C117.056 111.518 117.187 111.493 117.31 111.444C117.433 111.395 117.545 111.322 117.639 111.229C117.734 111.137 117.809 111.026 117.861 110.905C117.913 110.783 117.941 110.653 117.942 110.52C117.944 110.388 117.919 110.257 117.87 110.134Z" fill="#FFE388"/>
<path d="M108.24 113.004H108.16C107.912 113.103 107.714 113.297 107.609 113.543C107.504 113.788 107.501 114.066 107.6 114.314C107.699 114.562 107.893 114.76 108.139 114.865C108.385 114.97 108.662 114.973 108.91 114.874H108.99C109.238 114.774 109.436 114.58 109.541 114.335C109.646 114.089 109.649 113.812 109.55 113.564C109.451 113.316 109.257 113.118 109.011 113.012C108.765 112.907 108.488 112.904 108.24 113.004Z" fill="#FFE388"/>
<path d="M103.74 119.664V119.464C103.85 118.174 101.86 117.864 101.74 119.164V119.364C101.63 120.654 103.62 121.004 103.74 119.664Z" fill="#FFE388"/>
<path d="M106.79 127.624L106.63 127.484C105.63 126.624 104.4 128.204 105.37 129.064L105.52 129.194C106.5 130.054 107.76 128.474 106.79 127.624Z" fill="#FFE388"/>
<path d="M113.88 129.244L113.93 129.124C114.037 128.88 114.044 128.603 113.947 128.355C113.85 128.106 113.659 127.906 113.415 127.799C113.171 127.691 112.894 127.685 112.646 127.782C112.397 127.878 112.197 128.07 112.09 128.314V128.424C112.031 128.651 112.054 128.892 112.155 129.104C112.256 129.316 112.428 129.485 112.642 129.583C112.855 129.681 113.096 129.701 113.323 129.639C113.549 129.576 113.746 129.437 113.88 129.244Z" fill="#FFE388"/>
<path d="M118.48 120.324V120.234C118.381 119.986 118.187 119.787 117.941 119.682C117.695 119.577 117.418 119.574 117.17 119.674C116.922 119.773 116.724 119.967 116.619 120.213C116.514 120.458 116.511 120.736 116.61 120.984V121.074C116.659 121.197 116.732 121.308 116.825 121.403C116.917 121.498 117.027 121.573 117.149 121.625C117.271 121.677 117.401 121.705 117.534 121.706C117.666 121.708 117.797 121.683 117.92 121.634C118.043 121.584 118.155 121.512 118.249 121.419C118.344 121.327 118.419 121.216 118.471 121.095C118.523 120.973 118.551 120.842 118.552 120.71C118.554 120.578 118.529 120.447 118.48 120.324Z" fill="#FFE388"/>
<path d="M114.28 114.864C114.181 114.616 113.987 114.418 113.741 114.313C113.495 114.208 113.218 114.204 112.97 114.304C112.722 114.403 112.524 114.597 112.419 114.843C112.314 115.089 112.311 115.366 112.41 115.614C112.51 115.862 112.703 116.06 112.949 116.165C113.195 116.27 113.472 116.273 113.72 116.174C113.968 116.074 114.166 115.88 114.271 115.635C114.376 115.389 114.379 115.112 114.28 114.864Z" fill="#FFE388"/>
<path d="M108.27 120.924H108.19C107.942 121.023 107.744 121.217 107.639 121.463C107.534 121.708 107.531 121.986 107.63 122.234C107.729 122.482 107.923 122.68 108.169 122.785C108.415 122.89 108.692 122.893 108.94 122.794H109.02C109.268 122.694 109.466 122.5 109.571 122.255C109.676 122.009 109.679 121.732 109.58 121.484C109.481 121.236 109.287 121.037 109.041 120.932C108.795 120.827 108.518 120.824 108.27 120.924Z" fill="#FFE388"/>
<path d="M115.15 123.484C115.051 123.234 114.856 123.035 114.61 122.929C114.363 122.823 114.084 122.819 113.835 122.919C113.586 123.018 113.386 123.213 113.28 123.459C113.174 123.706 113.171 123.984 113.27 124.234C113.369 124.483 113.564 124.683 113.811 124.789C114.057 124.895 114.336 124.898 114.585 124.799C114.834 124.699 115.034 124.505 115.14 124.258C115.246 124.012 115.249 123.733 115.15 123.484Z" fill="#FFE388"/>
<path d="M105.93 110.264C105.83 110.016 105.637 109.817 105.391 109.712C105.145 109.607 104.868 109.604 104.62 109.704C104.372 109.803 104.174 109.997 104.069 110.243C103.964 110.488 103.96 110.766 104.06 111.014C104.159 111.262 104.353 111.46 104.599 111.565C104.721 111.617 104.851 111.645 104.984 111.646C105.116 111.648 105.247 111.623 105.37 111.574C105.493 111.525 105.605 111.452 105.699 111.359C105.794 111.267 105.869 111.156 105.921 111.035C105.973 110.913 106.001 110.782 106.002 110.65C106.004 110.518 105.979 110.387 105.93 110.264Z" fill="#FFE388"/>
<path d="M150 79.2237V82.4737C147.516 83.3891 144.874 83.7939 142.23 83.6637C135.72 83.3537 131.37 79.0437 125.69 76.5837C115.94 72.3537 107 80.0037 98.5 83.7637C92.0495 86.6014 84.763 86.8873 78.11 84.5637C70.11 82.0037 62.7 76.5637 53.95 79.1337C47.67 81.0037 42.56 85.5837 36.22 87.3237C29.88 89.0637 25.41 86.6337 19.94 83.9137C13.38 80.6637 5.13 80.4337 0 85.6337V81.7337C2.52182 79.9898 5.44099 78.9067 8.49 78.5837C14.79 77.8437 19.42 80.5137 24.91 83.1537C33.56 87.3137 40.1 82.3037 47.66 78.5437C53.33 75.7137 58.83 74.5437 65.06 76.3137C73.27 78.6537 80.54 83.9137 89.46 83.1637C98.79 82.3937 105.9 75.1637 114.83 72.9937C121.64 71.3537 126.66 73.4837 132.39 76.9237C138.12 80.3637 144.44 81.6237 150 79.2237Z" fill="#FFE388"/>
<path d="M150 70.7739V73.9439C141.63 75.8339 129.56 66.7039 122.59 65.3639C112.16 63.3639 104.59 67.3639 95.32 71.1839C92.6015 72.3517 89.6737 72.954 86.715 72.954C83.7563 72.954 80.8285 72.3517 78.11 71.1839C71.68 68.6539 65.5 63.9139 58.39 63.6439C50.69 63.3439 45.03 69.4039 38.68 72.7439C36.2716 74.1354 33.5735 74.9499 30.7975 75.1234C28.0214 75.2969 25.2429 74.8247 22.68 73.7439C19.01 72.3239 15.57 70.0539 11.68 69.3639C9.63509 69.011 7.5389 69.0913 5.52696 69.5994C3.51502 70.1076 1.63212 71.0323 0 72.3139L0 68.7139C2.7769 66.9993 5.97645 66.0921 9.24 66.0939C16.91 66.0939 23.02 72.8039 30.66 72.2339C37.97 71.6939 43.53 65.3039 49.93 62.4239C55.25 60.0039 60.62 60.2639 66 62.3139C72.56 64.7839 78.66 69.5039 85.78 70.0039C94.12 70.6439 101.31 64.0039 109.35 62.4139C116.327 61.0465 123.551 61.7415 130.14 64.4139C135.31 66.6439 144.15 73.1439 150 70.7739Z" fill="#FFE388"/>
<path d="M150 97.7837V100.914C147.207 101.589 144.308 101.704 141.47 101.254C134.47 100.144 129.18 95.2537 122.92 92.4337C108.07 85.6337 98.51 104.214 83.64 101.774C76.32 100.574 70.12 95.8837 62.84 94.5837C54.49 93.0937 48.48 98.5837 41.61 102.244C35.84 105.244 30.5 105.824 24.42 103.434C19.84 101.634 15.61 99.1737 10.5 100.084C8.27443 100.507 6.17354 101.428 4.35502 102.779C2.53649 104.13 1.04757 105.875 0 107.884L0 102.754C2.97061 99.4274 7.08967 97.3483 11.53 96.9337C19.93 96.1837 26.71 103.684 35.11 101.684C41.86 100.074 46.99 94.6237 53.51 92.3737C59.68 90.2537 65.57 91.8137 71.4 94.2237C79.72 97.6637 86.98 101.124 95.68 96.6437C101.68 93.5437 107.02 88.5337 114 87.7637C120.23 87.0837 125.55 90.2737 130.7 93.3437C137 97.1037 143.6 99.3537 150 97.7837Z" fill="#FFE388"/>
<path d="M112.18 29.6438C111.71 30.6438 111.18 31.7038 110.61 32.6438C104.859 32.4166 99.1512 33.7211 94.07 36.4238L94 36.2638C95.3286 30.0177 95.552 23.587 94.66 17.2638C100.344 12.494 107.594 10.0001 115.01 10.2638C115.062 10.1833 115.136 10.1194 115.223 10.0796C115.31 10.0399 115.407 10.0261 115.502 10.0398C115.597 10.0535 115.685 10.0941 115.758 10.1569C115.83 10.2196 115.883 10.3019 115.91 10.3938C117.33 16.6538 114.78 23.9238 112.18 29.6438Z" fill="#263655"/>
<path d="M100.36 42.7237C105.65 57.6137 106.82 73.6137 104.75 89.2337C103.809 96.6185 102.134 103.891 99.75 110.944C97.86 116.454 95 121.494 90 124.804C79.87 131.564 67.35 128.244 59.37 119.804C50.22 110.154 48.2 96.1137 47.43 83.3737C46.65 70.2537 47.77 56.7837 53.51 44.8237C47.471 43.7272 41.9939 40.5843 38 35.9237C42.9972 34.5117 48.2745 34.4153 53.32 35.6437C54.7172 35.9368 56.0469 36.4897 57.24 37.2737C54.41 33.7737 54.24 28.8537 54.59 24.3737C54.7346 21.8333 55.2466 19.3272 56.11 16.9337C59.8688 19.9743 62.745 23.9658 64.44 28.4937C64.0171 24.1695 63.1114 19.9063 61.74 15.7837C60.9461 13.4268 60.3638 11.0039 60 8.54368C59.84 7.34368 59.69 6.36368 60.73 5.62368C62.27 4.53368 65.38 4.46368 67.19 4.23368C69.74 3.90368 72.32 3.73368 74.88 3.57368C80.3467 3.24701 85.8167 3.06368 91.29 3.02368C91.3667 3.02453 91.4422 3.04268 91.5109 3.07676C91.5797 3.11085 91.6398 3.15999 91.6869 3.22054C91.734 3.28109 91.7668 3.35148 91.7829 3.42647C91.7991 3.50147 91.7981 3.57913 91.78 3.65368C88.61 12.0037 85.69 20.5837 85.84 29.5737C87.6617 24.7735 90.6848 20.5212 94.62 17.2237C95.512 23.5469 95.2886 29.9776 93.96 36.2237L94.07 36.4337C99.1512 33.731 104.859 32.4265 110.61 32.6537C108.246 36.9364 104.684 40.4362 100.36 42.7237Z" fill="#F9F9F9"/>
<path d="M57.28 37.2537C56.0869 36.4697 54.7572 35.9168 53.36 35.6237C48.3001 34.3948 43.0081 34.4981 38 35.9237C37.57 35.4337 37.15 34.9237 36.76 34.4137C31.51 27.4637 29.65 18.5837 30 10.0037C29.9488 9.91928 29.9218 9.82244 29.9218 9.72371C29.9218 9.62498 29.9488 9.52813 30 9.44371C29.9952 9.35711 29.9952 9.27031 30 9.18371C30 8.54371 31 8.53371 31 9.18371C40.05 8.74371 49.35 11.3537 56.13 16.9037C55.2666 19.2973 54.7547 21.8033 54.61 24.3437C54.24 28.8337 54.45 33.7537 57.28 37.2537Z" fill="#263655"/>
<path d="M92.39 128.654C91.93 130.894 91.39 133.134 90.76 135.324C89.76 138.724 88.3601 143.674 85.6901 146.174C84.4701 147.324 82.69 147.254 81.09 147.394C78.7367 147.614 76.3834 147.78 74.03 147.894C72.12 147.984 70.03 148.214 68.38 147.154C67.0764 146.133 66.0201 144.83 65.29 143.344C62.88 139.344 60.68 135.134 59.92 130.514C59.19 126.114 60.14 121.764 61.38 117.514C62.62 113.264 64.18 108.134 66.83 104.584C69.2 101.434 73.9601 102.164 77.4101 102.474C77.5 102.481 77.5864 102.512 77.6601 102.564C78.9501 102.844 84.42 108.884 85.85 110.484C87.5704 112.387 89.1765 114.391 90.6601 116.484C91.8101 118.144 93.1 119.914 93.3 121.974C93.5 124.034 92.82 126.544 92.39 128.654Z" fill="#263655"/>
<path d="M56 70.1937C55.6659 69.9399 55.2705 69.7793 54.854 69.7283C54.4376 69.6773 54.015 69.7377 53.6296 69.9035C53.2442 70.0693 52.9097 70.3344 52.6603 70.6717C52.4108 71.0091 52.2554 71.4066 52.2099 71.8237C52.1422 72.4429 52.2035 73.0694 52.39 73.6637C52.4076 74.412 52.6221 75.1424 53.0118 75.7814C53.4015 76.4205 53.9528 76.9455 54.61 77.3037C56.48 78.1037 57.9499 76.5837 58.0999 74.7937C58.181 73.9105 58.0299 73.0214 57.6616 72.2145C57.2932 71.4076 56.7204 70.711 56 70.1937Z" fill="#263655"/>
<path d="M97.24 67.3137C96.9945 67.1141 96.702 66.9809 96.3904 66.9266C96.0787 66.8723 95.7584 66.8989 95.46 67.0037C95.2496 66.932 95.0214 66.9324 94.8114 67.0049C94.6013 67.0773 94.4214 67.2176 94.3 67.4037C93.2158 68.8857 92.6183 70.6677 92.59 72.5037C92.5705 72.8265 92.6218 73.1496 92.7403 73.4505C92.8588 73.7514 93.0416 74.0228 93.2759 74.2457C93.5102 74.4685 93.7904 74.6375 94.0968 74.7408C94.4032 74.8441 94.7285 74.8792 95.05 74.8437C98.08 74.3837 99.89 69.2537 97.24 67.3137Z" fill="#263655"/>
<path d="M65.2 98.0037C64.4814 97.1776 63.4986 96.6264 62.419 96.444C61.3394 96.2616 60.23 96.4595 59.28 97.0037C57.28 98.2037 56.43 100.704 56.28 103.004L56.18 103.124C56.0402 103.31 55.9528 103.531 55.9267 103.762C55.9006 103.994 55.9368 104.229 56.0316 104.442C56.1264 104.655 56.2763 104.838 56.4659 104.974C56.6554 105.11 56.8778 105.193 57.11 105.214C57.3185 105.305 57.5448 105.348 57.7722 105.34C57.9995 105.332 58.2222 105.273 58.4238 105.167C58.6253 105.062 58.8006 104.912 58.9367 104.73C59.0727 104.548 59.1661 104.337 59.21 104.114C60.78 102.324 62.84 101.594 64.9 100.424C65.106 100.307 65.2818 100.143 65.4133 99.9461C65.5449 99.7491 65.6286 99.5241 65.6577 99.289C65.6868 99.0539 65.6606 98.8153 65.5812 98.5921C65.5017 98.3689 65.3712 98.1674 65.2 98.0037Z" fill="#263655"/>
<path d="M65.7 90.4737C62.95 89.0837 59.77 88.3237 56.82 89.5837C55.3365 90.2252 54.0728 91.2863 53.1844 92.6366C52.2961 93.9869 51.8218 95.5674 51.82 97.1837C51.8055 97.3818 51.8348 97.5806 51.906 97.766C51.9771 97.9514 52.0882 98.1188 52.2315 98.2564C52.3747 98.3939 52.5466 98.4981 52.7347 98.5616C52.9229 98.6251 53.1227 98.6463 53.32 98.6237C53.5003 98.6865 53.6924 98.7078 53.882 98.6862C54.0716 98.6645 54.254 98.6003 54.4154 98.4985C54.5768 98.3966 54.7132 98.2597 54.8144 98.0978C54.9156 97.936 54.9791 97.7535 55 97.5637C55.3 95.8137 58.71 94.5637 60.18 94.1237C61.88 93.6337 63.67 93.7537 65.36 93.2237C65.6394 93.137 65.8879 92.9715 66.0756 92.7471C66.2632 92.5227 66.3822 92.2489 66.4181 91.9585C66.454 91.6682 66.4053 91.3736 66.2779 91.1103C66.1506 90.8469 65.9499 90.6259 65.7 90.4737Z" fill="#263655"/>
<path d="M66.46 84.2038C65.54 80.9438 60.86 79.7538 57.85 80.0938C53.76 80.5538 50.98 83.7038 49.85 87.4838C49.41 88.9238 51.09 89.7038 52.11 89.0838C52.253 89.0338 52.3878 88.9631 52.51 88.8738C54.2133 87.5672 56.1739 86.636 58.2628 86.1413C60.3517 85.6467 62.5217 85.5998 64.63 86.0038C64.8794 86.0617 65.1395 86.0557 65.3859 85.9863C65.6324 85.9169 65.8573 85.7864 66.0399 85.6069C66.2224 85.4273 66.3566 85.2046 66.4301 84.9593C66.5036 84.714 66.5139 84.4541 66.46 84.2038Z" fill="#263655"/>
<path d="M76.9999 52.8339C77.0325 52.5815 76.9866 52.3252 76.8686 52.0998C76.7505 51.8744 76.5659 51.6908 76.3399 51.5739C76.1259 51.3609 75.8553 51.2137 75.5602 51.1497C75.2651 51.0857 74.9579 51.1076 74.6748 51.2128C74.3918 51.318 74.1448 51.5021 73.9632 51.7434C73.7816 51.9846 73.6729 52.2728 73.6499 52.5739C73.1599 60.7839 72.6499 69.0039 72.2499 77.2339C71.8799 84.4539 71.1399 91.7839 72.2499 98.9739C72.4799 100.494 74.8199 100.334 75.1499 98.9739C78.8199 83.7639 75.9099 68.2239 76.9999 52.8339Z" fill="#263655"/>
<path d="M71.13 57.1938C71.27 55.9238 69.68 54.7138 68.64 55.8938C65.74 59.1838 64.64 64.4138 64.35 68.6938C64.19 71.0938 64.1 77.1438 67.67 77.0238C68.0002 77.0133 68.3186 76.8982 68.5792 76.6951C68.8397 76.492 69.0291 76.2114 69.12 75.8938C69.79 73.6138 69.56 70.7738 69.71 68.4038C69.8533 64.9608 70.356 61.5423 71.21 58.2038C71.3134 57.8693 71.2848 57.5079 71.13 57.1938Z" fill="#263655"/>
<path d="M63.64 54.3139C63.5105 54.2048 63.3601 54.1232 63.198 54.0741C63.0359 54.0249 62.8655 54.0092 62.6972 54.0279C62.5288 54.0466 62.3661 54.0993 62.2187 54.1829C62.0714 54.2664 61.9425 54.379 61.8401 54.5138C60.0242 56.5706 58.7279 59.0327 58.0601 61.6938C57.5901 63.6938 56.96 66.9639 58.28 68.6939C58.435 68.9349 58.655 69.1272 58.9146 69.2486C59.1741 69.37 59.4627 69.4155 59.7471 69.38C60.0314 69.3445 60.2999 69.2293 60.5216 69.0477C60.7433 68.8661 60.9092 68.6256 61.0001 68.3538L62.5901 62.2439C62.9701 60.8039 63.2001 57.7539 64.4301 56.7739C65.6601 55.7939 64.73 54.5439 63.64 54.3139Z" fill="#263655"/>
<path d="M82.1801 46.2839C81.6624 45.5374 80.9896 44.9115 80.2078 44.449C79.426 43.9864 78.5535 43.6982 77.6501 43.6039C77.4137 43.4689 77.1405 43.4129 76.8701 43.4439C74.0201 43.6439 71.1301 44.0939 69.2301 46.4439C68.5301 47.3039 68.8301 49.2039 70.2901 49.0139C71.9235 48.7001 73.5392 48.2995 75.13 47.8139C77.21 47.2939 78.5401 48.1139 80.5001 48.4739C81.6101 48.6839 83.0001 47.4139 82.1801 46.2839Z" fill="#263655"/>
<path d="M85.73 98.5336C86.4497 97.7092 87.4324 97.1591 88.5115 96.9769C89.5906 96.7946 90.6995 96.9913 91.65 97.5336C93.65 98.7336 94.5 101.234 94.65 103.534L94.75 103.654C94.8898 103.84 94.9772 104.061 95.0033 104.292C95.0294 104.524 94.9932 104.759 94.8984 104.972C94.8036 105.185 94.6537 105.368 94.4641 105.504C94.2746 105.64 94.0522 105.723 93.82 105.744C93.6115 105.835 93.3852 105.878 93.1578 105.87C92.9305 105.862 92.7078 105.803 92.5062 105.697C92.3047 105.592 92.1294 105.442 91.9933 105.26C91.8573 105.077 91.7638 104.867 91.72 104.644C90.15 102.864 88.09 102.124 86.03 100.954C85.824 100.837 85.6482 100.673 85.5167 100.476C85.3851 100.279 85.3014 100.054 85.2723 99.819C85.2431 99.5839 85.2694 99.3452 85.3488 99.1221C85.4283 98.8989 85.5588 98.6974 85.73 98.5336Z" fill="#263655"/>
<path d="M85.23 91.0038C87.98 89.6138 91.16 88.8538 94.11 90.1138C95.5928 90.7563 96.8558 91.8177 97.7439 93.1677C98.6321 94.5178 99.1069 96.0977 99.11 97.7138C99.1245 97.9118 99.0951 98.1106 99.024 98.296C98.9529 98.4814 98.8417 98.6489 98.6985 98.7864C98.5552 98.9239 98.3834 99.0282 98.1953 99.0917C98.0071 99.1552 97.8073 99.1764 97.61 99.1538C97.4361 99.206 97.2531 99.22 97.0733 99.1949C96.8936 99.1698 96.7214 99.1062 96.5685 99.0084C96.4156 98.9106 96.2856 98.7809 96.1875 98.6282C96.0894 98.4755 96.0254 98.3035 96 98.1238C95.7 96.3738 92.29 95.1238 90.82 94.6938C89.12 94.1938 87.33 94.3138 85.64 93.7838C85.348 93.7108 85.0843 93.5527 84.8822 93.3297C84.6801 93.1067 84.5488 92.8287 84.5049 92.5309C84.461 92.2332 84.5065 91.9291 84.6355 91.6573C84.7646 91.3854 84.9715 91.1579 85.23 91.0038Z" fill="#263655"/>
<path d="M86.2999 86.6038C88.4055 86.1962 90.5735 86.2375 92.662 86.7252C94.7505 87.2129 96.7126 88.1359 98.4199 89.4338C98.5422 89.5231 98.677 89.5939 98.8199 89.6438C99.0692 89.812 99.3637 89.9003 99.6644 89.8969C99.965 89.8935 100.258 89.7987 100.503 89.6249C100.748 89.4512 100.935 89.2069 101.038 88.9244C101.141 88.642 101.156 88.3348 101.08 88.0438C99.9499 84.2638 97.1699 81.1238 93.0799 80.6538C90.0799 80.3138 85.3899 81.5038 84.4699 84.7638C84.4079 85.0169 84.412 85.2817 84.4818 85.5327C84.5516 85.7838 84.6848 86.0127 84.8685 86.1974C85.0523 86.3822 85.2804 86.5166 85.5311 86.5878C85.7818 86.6589 86.0465 86.6645 86.2999 86.6038Z" fill="#263655"/>
<path d="M79.8 57.7539C79.66 56.4839 81.25 55.2739 82.29 56.4539C85.19 59.7539 86.29 64.9739 86.58 69.2539C86.74 71.6539 86.83 77.7039 83.26 77.5839C82.9311 77.574 82.6137 77.4603 82.3533 77.2592C82.0928 77.058 81.9027 76.7796 81.81 76.4639C81.14 74.1739 81.37 71.3339 81.22 68.9639C81.076 65.521 80.5733 62.1025 79.72 58.7639C79.6166 58.4293 79.6453 58.0679 79.8 57.7539Z" fill="#263655"/>
<path d="M87.29 54.8838C87.4183 54.7728 87.5681 54.6894 87.73 54.6386C87.8918 54.5878 88.0624 54.5708 88.2312 54.5886C88.3999 54.6064 88.5632 54.6587 88.7109 54.7421C88.8586 54.8256 88.9876 54.9385 89.09 55.0738C90.906 57.1343 92.2021 59.5997 92.87 62.2638C93.34 64.2638 93.97 67.5338 92.65 69.2638C92.4963 69.5133 92.2737 69.7131 92.0091 69.8391C91.7445 69.9651 91.4491 70.0118 91.1585 69.9738C90.8679 69.9358 90.5945 69.8145 90.3712 69.6247C90.1479 69.4348 89.9843 69.1845 89.9 68.9038L88.31 62.8038C87.93 61.3738 87.7 58.3138 86.47 57.3338C85.24 56.3538 86.2 55.1038 87.29 54.8838Z" fill="#263655"/>
<path d="M68.75 46.8437C69.2691 46.0986 69.9422 45.4737 70.7237 45.0114C71.5053 44.549 72.377 44.2599 73.28 44.1637C73.518 44.0331 73.7898 43.9774 74.06 44.0037C76.91 44.2037 79.8 44.6537 81.7 47.0037C82.4 47.8737 82.1 49.7637 80.64 49.5737C79.0065 49.2599 77.3909 48.8593 75.8 48.3737C73.72 47.8637 72.39 48.6837 70.43 49.0437C69.32 49.2437 67.9 48.0037 68.75 46.8437Z" fill="#263655"/>
<path d="M95.46 54.8838C95.3778 55.165 95.2156 55.4161 94.9932 55.6067C94.7708 55.7973 94.4978 55.9191 94.2074 55.9572C93.917 55.9954 93.6218 55.9483 93.3577 55.8216C93.0936 55.6949 92.872 55.4942 92.72 55.2438C89.9756 50.5216 86.2646 46.4323 81.83 43.2438C79.7157 41.7496 77.1749 40.9793 74.5869 41.0478C71.9988 41.1163 69.5023 42.0199 67.47 43.6238C63.5876 46.6425 60.3188 50.3763 57.84 54.6238C57.6863 54.8734 57.4637 55.0732 57.1991 55.1991C56.9345 55.3251 56.6391 55.3719 56.3485 55.3339C56.0579 55.2958 55.7845 55.1746 55.5612 54.9847C55.3379 54.7949 55.1743 54.5445 55.09 54.2638C53.75 50.6238 58.73 45.3738 61.26 42.8838C60.0124 43.8667 58.5544 44.5478 57 44.8738C56.6827 44.9467 56.3503 44.9157 56.0519 44.7855C55.7535 44.6553 55.5048 44.4327 55.3424 44.1505C55.18 43.8682 55.1126 43.5414 55.1499 43.2179C55.1873 42.8945 55.3275 42.5916 55.55 42.3538C60.82 36.7338 74.88 34.0038 75.1 34.3538C82.1 34.8538 90.18 37.7238 95.02 42.8838C95.2485 43.1187 95.3944 43.4216 95.4357 43.7467C95.477 44.0718 95.4114 44.4015 95.2488 44.686C95.0862 44.9705 94.8354 45.1944 94.5344 45.3239C94.2334 45.4534 93.8984 45.4815 93.58 45.4038C92.0256 45.0985 90.5617 44.4417 89.3 43.4838C91.83 46.0038 96.81 51.2438 95.46 54.8838Z" fill="#263655"/>
<path d="M71.0001 27.8638C69.1301 19.9138 68.1201 10.6538 64.7901 3.17383C64.0001 1.41383 61.4101 2.91383 62.1801 4.66383C63.8301 8.42383 64.4001 13.0038 65.3401 17.0038L68.0901 28.6538C68.5301 30.5238 71.4301 29.7438 71.0001 27.8638Z" fill="#263655"/>
<path d="M75.22 1.44375C75.22 -0.486248 72.16 -0.476248 72.22 1.44375C72.4733 10.3171 72.5433 19.1871 72.43 28.0538C72.43 29.9838 75.43 29.9638 75.43 28.0538C75.5433 19.1871 75.4733 10.3171 75.22 1.44375Z" fill="#263655"/>
<path d="M78.06 1.64373C77.86 10.4837 77.6566 19.3237 77.45 28.1637C77.45 30.0937 80.45 30.0737 80.45 28.1637C80.6566 19.3237 80.86 10.4837 81.06 1.64373C81.11 -0.30627 78.11 -0.28627 78.06 1.64373Z" fill="#263655"/>
<path d="M85.33 1.42374C84.0833 10.6371 82.64 19.8304 81 29.0037C80.67 30.8837 83.57 31.6637 83.91 29.7537C85.5367 20.5871 86.98 11.3971 88.24 2.18374C88.49 0.29374 85.59 -0.48626 85.33 1.42374Z" fill="#263655"/>
<path d="M89.76 121.224C88.18 120.224 85.94 121.144 84.6 122.144C82.8965 123.504 81.7164 125.412 81.26 127.544C81.198 127.827 81.2177 128.122 81.3169 128.394C81.416 128.667 81.5904 128.905 81.8199 129.082C82.0493 129.259 82.3244 129.368 82.613 129.394C82.9016 129.421 83.1918 129.366 83.45 129.234C83.6057 129.258 83.7643 129.258 83.92 129.234C85.9845 128.733 87.843 127.604 89.24 126.004C90.33 124.674 91.7 122.484 89.76 121.224Z" fill="white"/>
<path d="M70.14 127.404C70.094 127.281 70.0336 127.163 69.96 127.054C68.42 124.894 63.15 122.954 61.63 126.174C61.4808 126.54 61.4124 126.933 61.4296 127.328C61.4468 127.723 61.5491 128.109 61.7296 128.461C61.9101 128.812 62.1644 129.12 62.4752 129.364C62.7859 129.608 63.1458 129.782 63.53 129.874C65.5412 130.379 67.6407 130.42 69.67 129.994C71.09 129.784 71 128.174 70.14 127.404Z" fill="white"/>
</svg>
