<svg width="132" height="166" viewBox="0 0 132 166" fill="none" xmlns="http://www.w3.org/2000/svg">
<path d="M75.7184 36.8951C82.3873 37.3377 89.6195 39.2991 93.824 44.942C98.0285 50.5849 98.3101 58.4105 98.3906 65.2806C98.4811 72.5027 98.0888 79.8354 99.6479 86.9368C100.868 92.43 103.324 97.5728 106.83 101.974C112.01 108.513 122.23 116.328 131.383 115.121V0H22.7496C21.7438 11.4568 27.6582 22.6923 37.1536 29.2807C42.2592 32.7632 48.0645 35.0873 54.1628 36.0904C61.3245 37.3075 68.5366 36.4123 75.7184 36.8951Z" fill="#FFE388"/>
<path d="M126.575 3.4601C126.676 2.81635 127.641 3.08793 127.581 3.72163C127.335 5.29818 127.244 6.8951 127.309 8.48942C127.309 9.13317 126.303 9.12311 126.303 8.48942C126.232 6.80815 126.323 5.1239 126.575 3.4601Z" fill="#FC6D48"/>
<path d="M120.238 3.63081C120.389 2.99711 121.365 3.25864 121.244 3.89233C120.911 5.34998 120.68 6.82872 120.55 8.31813C120.55 8.96189 119.544 8.96189 119.544 8.31813C119.665 6.74135 119.897 5.17504 120.238 3.63081Z" fill="#FC6D48"/>
<path d="M113.026 7.64448C113.094 6.29481 113.248 4.9509 113.489 3.62102C113.569 2.98733 114.575 2.98733 114.494 3.62102C114.344 4.9387 114.293 6.3268 114.022 7.64448C113.861 8.42905 113.318 8.89175 112.523 8.56987C111.929 8.26811 112.432 7.39301 113.026 7.64448Z" fill="#FC6D48"/>
<path d="M105.572 3.6112C105.754 2.99763 106.729 3.25915 106.578 3.87273C106.137 5.3173 105.874 6.81029 105.794 8.31865C105.794 8.9624 104.788 8.9624 104.788 8.31865C104.852 6.72296 105.116 5.14157 105.572 3.6112Z" fill="#FC6D48"/>
<path d="M97.4752 3.46023C97.4818 3.40628 97.4995 3.35428 97.5272 3.30753C97.5549 3.26078 97.592 3.2203 97.6362 3.18865C97.6708 3.12034 97.7212 3.06125 97.7831 3.01624C97.8451 2.97124 97.9168 2.94162 97.9925 2.92983C98.0682 2.91804 98.1455 2.92441 98.2183 2.94843C98.291 2.97244 98.3569 3.01341 98.4107 3.06794L98.5917 3.249C98.6504 3.31004 98.6927 3.38491 98.7147 3.46667C98.7368 3.54842 98.7378 3.63441 98.7177 3.71666C98.6977 3.79892 98.6572 3.87478 98.6 3.93721C98.5428 3.99964 98.4708 4.04663 98.3906 4.07381C98.1592 5.47196 97.9279 6.87011 97.7066 8.26826C97.5959 8.91201 96.6303 8.64043 96.7007 8.00673L97.4752 3.46023Z" fill="#FC6D48"/>
<path d="M89.0159 3.26905C89.2473 2.67559 90.223 2.92706 90.0218 3.53058C89.4614 4.93088 89.2441 6.44493 89.3881 7.94632C89.4585 8.59007 88.4527 8.58002 88.3823 7.94632C88.2136 6.35895 88.431 4.75433 89.0159 3.26905Z" fill="#FC6D48"/>
<path d="M80.3856 4.02324C80.4761 3.38955 81.482 3.37949 81.3915 4.02324C81.1869 5.58012 81.1229 7.15227 81.2003 8.72062C81.2003 9.37443 80.1945 9.36438 80.1945 8.72062C80.1223 7.15225 80.1862 5.58057 80.3856 4.02324Z" fill="#FC6D48"/>
<path d="M71.1819 3.33963C71.4334 2.74617 72.2984 3.2491 72.057 3.84256C71.4536 5.25225 71.162 6.7757 71.2021 8.30859C71.2021 8.44198 71.1491 8.5699 71.0547 8.66422C70.9604 8.75854 70.8325 8.81153 70.6991 8.81153C70.5657 8.81153 70.4378 8.75854 70.3435 8.66422C70.2492 8.5699 70.1962 8.44198 70.1962 8.30859C70.1624 6.60055 70.4987 4.90543 71.1819 3.33963Z" fill="#FC6D48"/>
<path d="M63.0949 8.19777C63.4773 6.74992 63.7397 5.273 63.8795 3.78203C63.9398 3.14833 64.9457 3.13828 64.8853 3.78203C64.746 5.35871 64.47 6.92031 64.0605 8.44924C64.015 8.56285 63.9296 8.65596 63.8203 8.71112C63.711 8.76627 63.5854 8.77968 63.4669 8.74883C63.3485 8.71799 63.2454 8.645 63.1769 8.54355C63.1084 8.44211 63.0792 8.31917 63.0949 8.19777Z" fill="#FC6D48"/>
<path d="M56.255 4.02351C56.4662 3.40994 57.4318 3.6614 57.2608 4.28504C56.8696 5.41229 56.6956 6.60345 56.7478 7.7955C56.7478 8.43926 55.742 8.43926 55.742 7.7955C55.679 6.5173 55.8529 5.23847 56.255 4.02351Z" fill="#FC6D48"/>
<path d="M49.2642 3.96294C49.2642 3.32924 50.27 3.31918 50.27 3.96294L49.9079 8.12721C49.8476 8.77097 48.8417 8.77097 48.902 8.12721L49.2642 3.96294Z" fill="#FC6D48"/>
<path d="M41.7504 4.02333C41.8409 3.37958 42.8166 3.65116 42.7562 4.28486C42.5399 5.80396 42.4391 7.33726 42.4545 8.8716C42.4545 9.00498 42.4015 9.13291 42.3072 9.22722C42.2128 9.32154 42.0849 9.37453 41.9515 9.37453C41.8181 9.37453 41.6902 9.32154 41.5959 9.22722C41.5016 9.13291 41.4486 9.00498 41.4486 8.8716C41.4283 7.25025 41.5292 5.62965 41.7504 4.02333Z" fill="#FC6D48"/>
<path d="M35.4336 4.02333C35.5241 3.37958 36.4998 3.65116 36.4395 4.28486C36.2282 5.68297 36.1273 7.09554 36.1377 8.50949C36.1377 8.64287 36.0847 8.7708 35.9904 8.86511C35.8961 8.95943 35.7681 9.01242 35.6348 9.01242C35.5014 9.01242 35.3734 8.95943 35.2791 8.86511C35.1848 8.7708 35.1318 8.64287 35.1318 8.50949C35.1116 7.00842 35.2125 5.50817 35.4336 4.02333Z" fill="#FC6D48"/>
<path d="M29.2274 3.48044C29.2621 3.34706 29.3483 3.23291 29.4672 3.16312C29.586 3.09332 29.7277 3.0736 29.8611 3.10828C29.9945 3.14296 30.1086 3.2292 30.1784 3.34804C30.2482 3.46688 30.268 3.60858 30.2333 3.74197C29.8405 5.16958 29.6609 6.6474 29.7002 8.12754C29.7002 8.26092 29.6472 8.38884 29.5529 8.48316C29.4585 8.57748 29.3306 8.63047 29.1972 8.63047C29.0639 8.63047 28.9359 8.57748 28.8416 8.48316C28.7473 8.38884 28.6943 8.26092 28.6943 8.12754C28.6397 6.56061 28.8194 4.99431 29.2274 3.48044Z" fill="#FC6D48"/>
<path d="M24.7011 3.29943C24.9022 2.68586 25.8779 2.94738 25.7069 3.56096C25.2724 4.8553 25.0948 6.222 25.1839 7.58441C25.1839 8.23823 24.178 8.22817 24.178 7.58441C24.074 6.13571 24.2516 4.68058 24.7011 3.29943Z" fill="#FC6D48"/>
<path d="M123.517 12.8249C123.618 12.1912 124.593 12.4527 124.523 13.0864C124.28 14.6633 124.193 16.2602 124.261 17.8542C124.261 18.498 123.255 18.498 123.255 17.8542C123.182 16.1733 123.269 14.4891 123.517 12.8249Z" fill="#FC6D48"/>
<path d="M117.19 13.006C117.331 12.3723 118.307 12.6338 118.196 13.2574C117.855 14.7135 117.623 16.1928 117.502 17.6832C117.442 18.327 116.436 18.327 116.496 17.6832C116.616 16.1097 116.848 14.5466 117.19 13.006Z" fill="#FC6D48"/>
<path d="M109.978 17.0092C110.036 15.6587 110.191 14.3141 110.441 12.9857C110.511 12.342 111.517 12.342 111.447 12.9857C111.286 14.3135 111.235 15.7016 110.974 17.0092C110.803 17.7938 110.26 18.2565 109.475 17.9245C108.882 17.6328 109.385 16.7678 109.978 17.0092Z" fill="#FC6D48"/>
<path d="M102.515 12.9859C102.706 12.3622 103.681 12.6238 103.52 13.2474C103.071 14.6869 102.804 16.1772 102.726 17.6833C102.726 18.327 101.72 18.327 101.72 17.6833C101.793 16.091 102.06 14.5135 102.515 12.9859Z" fill="#FC6D48"/>
<path d="M94.4275 12.835C94.4338 12.7797 94.4514 12.7261 94.4791 12.6777C94.5067 12.6293 94.5439 12.587 94.5884 12.5534C94.6227 12.486 94.6728 12.4277 94.7343 12.3836C94.7958 12.3396 94.867 12.3109 94.942 12.3C95.0169 12.2892 95.0933 12.2965 95.1648 12.3213C95.2363 12.3462 95.3008 12.3878 95.3528 12.4428L95.5339 12.6238C95.5929 12.6838 95.6355 12.7579 95.6577 12.8391C95.6799 12.9202 95.681 13.0057 95.6608 13.0874C95.6406 13.169 95.5999 13.2442 95.5425 13.3057C95.485 13.3671 95.4128 13.4129 95.3327 13.4386C95.1114 14.8367 94.8801 16.2349 94.6487 17.6431C94.5482 18.2768 93.5725 18.0152 93.6429 17.3816L94.4275 12.835Z" fill="#FC6D48"/>
<path d="M85.9581 12.6438C86.1995 12.0504 87.1651 12.3018 86.964 12.9053C86.3942 14.3031 86.1766 15.8195 86.3303 17.3211C86.3906 17.9648 85.3848 17.9548 85.3244 17.3211C85.1589 15.7338 85.3762 14.1299 85.9581 12.6438Z" fill="#FC6D48"/>
<path d="M77.3378 13.3378C77.4183 12.7041 78.4242 12.7041 78.3437 13.3378C78.1443 14.8951 78.0804 16.4668 78.1526 18.0352C78.1526 18.679 77.1467 18.6689 77.1467 18.0352C77.0745 16.4668 77.1385 14.8951 77.3378 13.3378Z" fill="#FC6D48"/>
<path d="M68.1242 12.714C68.3756 12.1105 69.2507 12.6235 68.9993 13.2069C68.4056 14.6196 68.1144 16.1409 68.1443 17.6729C68.1443 17.8063 68.0913 17.9343 67.997 18.0286C67.9027 18.1229 67.7747 18.1759 67.6414 18.1759C67.508 18.1759 67.38 18.1229 67.2857 18.0286C67.1914 17.9343 67.1384 17.8063 67.1384 17.6729C67.1111 15.9687 67.4471 14.2782 68.1242 12.714Z" fill="#FC6D48"/>
<path d="M60.037 17.5626C60.4218 16.1182 60.6876 14.6447 60.8316 13.1569C60.892 12.5131 61.8978 12.5131 61.8375 13.1569C61.676 14.7335 61.3867 16.2944 60.9724 17.8241C60.916 17.9192 60.8298 17.9931 60.7271 18.0343C60.6244 18.0755 60.511 18.0816 60.4045 18.0519C60.2979 18.0221 60.2042 17.958 60.1378 17.8695C60.0713 17.7811 60.0359 17.6732 60.037 17.5626Z" fill="#FC6D48"/>
<path d="M53.2072 13.358C53.4083 12.7445 54.384 13.006 54.213 13.6196C53.8306 14.7487 53.6601 15.9389 53.7101 17.13C53.7101 17.7838 52.7042 17.7738 52.7042 17.13C52.635 15.8523 52.8055 14.5729 53.2072 13.358Z" fill="#FC6D48"/>
<path d="M46.2064 13.3378C46.2667 12.694 47.2726 12.694 47.2122 13.3378L46.8904 17.5021C46.8904 18.1358 45.8845 18.1458 45.8845 17.5021L46.2064 13.3378Z" fill="#FC6D48"/>
<path d="M38.7026 13.3681C38.7932 12.7344 39.7085 12.9959 39.7085 13.6296C39.4959 15.1524 39.3984 16.689 39.4168 18.2264C39.4168 18.3598 39.3638 18.4877 39.2695 18.5821C39.1752 18.6764 39.0472 18.7294 38.9139 18.7294C38.7805 18.7294 38.6526 18.6764 38.5582 18.5821C38.4639 18.4877 38.4109 18.3598 38.4109 18.2264C38.3817 16.6019 38.4793 14.9775 38.7026 13.3681Z" fill="#FC6D48"/>
<path d="M32.3757 13.3681C32.4763 12.7344 33.4419 12.9959 33.3816 13.6296C33.1624 15.0303 33.0581 16.4466 33.0697 17.8643C33.0697 17.9977 33.0168 18.1256 32.9224 18.2199C32.8281 18.3143 32.7002 18.3673 32.5668 18.3673C32.4334 18.3673 32.3055 18.3143 32.2112 18.2199C32.1169 18.1256 32.0639 17.9977 32.0639 17.8643C32.0464 16.3596 32.1507 14.856 32.3757 13.3681Z" fill="#FC6D48"/>
<path d="M26.1696 12.8447C26.2042 12.7113 26.2905 12.5972 26.4093 12.5274C26.5282 12.4576 26.6699 12.4379 26.8032 12.4725C26.9366 12.5072 27.0508 12.5935 27.1206 12.7123C27.1904 12.8311 27.2101 12.9728 27.1754 13.1062C26.7791 14.5367 26.5961 16.0179 26.6322 17.5019C26.6322 18.1456 25.6264 18.1456 25.6264 17.5019C25.5747 15.9311 25.7578 14.3614 26.1696 12.8447Z" fill="#FC6D48"/>
<path d="M129.17 13.6393C129.381 13.0358 130.347 13.2873 130.176 13.9008C129.738 15.1944 129.56 16.5618 129.653 17.9243C129.653 18.5681 128.647 18.558 128.647 17.9243C128.544 16.4756 128.722 15.0207 129.17 13.6393Z" fill="#FC6D48"/>
<path d="M124.945 22.6823C125.046 22.0385 126.012 22.3101 125.951 22.9438C125.705 24.5204 125.614 26.1173 125.68 27.7116C125.68 28.3553 124.674 28.3453 124.674 27.7116C124.602 26.0303 124.693 24.3461 124.945 22.6823Z" fill="#FC6D48"/>
<path d="M118.618 22.8535C118.759 22.2198 119.735 22.4813 119.624 23.115C119.292 24.5726 119.06 26.0514 118.93 27.5408C118.88 28.1845 117.874 28.1845 117.924 27.5408C118.039 25.9633 118.271 24.3965 118.618 22.8535Z" fill="#FC6D48"/>
<path d="M111.396 26.8668C111.462 25.5003 111.617 24.1395 111.859 22.793C111.94 22.1593 112.945 22.1493 112.865 22.793C112.714 24.1208 112.664 25.5088 112.392 26.8165C112.231 27.601 111.688 28.0637 110.903 27.7419C110.26 27.4904 110.803 26.6153 111.396 26.8668Z" fill="#FC6D48"/>
<path d="M103.943 22.8331C104.134 22.2195 105.1 22.471 104.949 23.0946C104.507 24.539 104.243 26.0321 104.164 27.5405C104.164 28.1843 103.158 28.1843 103.158 27.5405C103.223 25.9448 103.486 24.3635 103.943 22.8331Z" fill="#FC6D48"/>
<path d="M95.8457 22.6822C95.8523 22.6282 95.87 22.5762 95.8977 22.5295C95.9254 22.4827 95.9625 22.4422 96.0067 22.4106C96.0413 22.3423 96.0916 22.2832 96.1536 22.2382C96.2155 22.1932 96.2873 22.1635 96.363 22.1518C96.4386 22.14 96.516 22.1463 96.5887 22.1704C96.6615 22.1944 96.7274 22.2353 96.7812 22.2899L96.9622 22.4709C97.0209 22.532 97.0632 22.6068 97.0852 22.6886C97.1073 22.7703 97.1083 22.8563 97.0882 22.9386C97.0682 23.0208 97.0277 23.0967 96.9705 23.1591C96.9133 23.2216 96.8412 23.2686 96.7611 23.2957C96.5297 24.6939 96.2984 26.092 96.0771 27.4902C95.9664 28.1339 95.0008 27.8624 95.0712 27.2287L95.8457 22.6822Z" fill="#FC6D48"/>
<path d="M87.3864 22.4912C87.6178 21.8978 88.5935 22.1492 88.3923 22.7527C87.8182 24.1461 87.5905 25.6578 87.7284 27.1584C87.7888 27.8022 86.7829 27.7921 86.7226 27.1584C86.5651 25.5719 86.7929 23.9709 87.3864 22.4912Z" fill="#FC6D48"/>
<path d="M78.7662 23.185C78.8466 22.5513 79.8525 22.5513 79.772 23.185C79.5674 24.7419 79.5035 26.314 79.5809 27.8824C79.5809 28.5261 78.5751 28.5261 78.5751 27.8824C78.4984 26.314 78.5624 24.7419 78.7662 23.185Z" fill="#FC6D48"/>
<path d="M69.5525 22.5618C69.804 21.9683 70.6791 22.4713 70.4276 23.0647C69.8242 24.4744 69.5325 25.9979 69.5726 27.5308C69.5726 27.6641 69.5196 27.7921 69.4253 27.8864C69.331 27.9807 69.2031 28.0337 69.0697 28.0337C68.9363 28.0337 68.8084 27.9807 68.7141 27.8864C68.6198 27.7921 68.5668 27.6641 68.5668 27.5308C68.538 25.8232 68.8741 24.1291 69.5525 22.5618Z" fill="#FC6D48"/>
<path d="M61.4653 27.4196C61.8469 25.9715 62.1093 24.4947 62.2499 23.0038C62.3103 22.3601 63.3262 22.3601 63.2558 23.0038C63.1173 24.5839 62.8414 26.1489 62.431 27.6811C62.3862 27.7971 62.3 27.8923 62.1891 27.9485C62.0782 28.0047 61.9504 28.0178 61.8304 27.9853C61.7103 27.9528 61.6066 27.877 61.5392 27.7725C61.4718 27.668 61.4455 27.5423 61.4653 27.4196Z" fill="#FC6D48"/>
<path d="M54.6254 23.2153C54.8367 22.6017 55.8023 22.8532 55.6313 23.4668C55.2407 24.5977 55.0667 25.792 55.1183 26.9873C55.1183 27.6311 54.1124 27.621 54.1124 26.9873C54.0495 25.7091 54.2234 24.4303 54.6254 23.2153Z" fill="#FC6D48"/>
<path d="M47.6346 23.1851C47.6849 22.5514 48.6908 22.5414 48.6405 23.1851L48.2885 27.3393C48.2281 27.9831 47.2222 27.9831 47.2826 27.3393L47.6346 23.1851Z" fill="#FC6D48"/>
<path d="M40.121 23.2255C40.2115 22.5817 41.1872 22.8533 41.1268 23.487C40.9105 25.0061 40.8097 26.5394 40.8251 28.0737C40.8251 28.2071 40.7721 28.3351 40.6778 28.4294C40.5835 28.5237 40.4555 28.5767 40.3221 28.5767C40.1888 28.5767 40.0608 28.5237 39.9665 28.4294C39.8722 28.3351 39.8192 28.2071 39.8192 28.0737C39.7987 26.4524 39.8996 24.8318 40.121 23.2255Z" fill="#FC6D48"/>
<path d="M33.8142 23.2255C33.9148 22.5817 34.8804 22.8533 34.82 23.487C34.6088 24.8851 34.5079 26.2977 34.5183 27.7116C34.5183 27.845 34.4653 27.9729 34.371 28.0673C34.2767 28.1616 34.1487 28.2146 34.0153 28.2146C33.882 28.2146 33.754 28.1616 33.6597 28.0673C33.5654 27.9729 33.5124 27.845 33.5124 27.7116C33.4922 26.2106 33.5931 24.7103 33.8142 23.2255Z" fill="#FC6D48"/>
<path d="M121.888 32.0466C121.988 31.4129 122.964 31.6744 122.893 32.3081C122.651 33.885 122.563 35.4819 122.632 37.0759C122.632 37.7196 121.626 37.7196 121.626 37.0759C121.552 35.3949 121.639 33.7108 121.888 32.0466Z" fill="#FC6D48"/>
<path d="M115.561 32.1875C115.702 31.5639 116.677 31.8254 116.567 32.4491C116.226 33.9051 115.994 35.3844 115.873 36.8749C115.812 37.5186 114.806 37.5186 114.867 36.8749C114.988 35.298 115.219 33.7317 115.561 32.1875Z" fill="#FC6D48"/>
<path d="M108.349 36.2111C108.412 34.8611 108.567 33.5169 108.811 32.1877C108.882 31.554 109.888 31.554 109.817 32.1877C109.656 33.5154 109.606 34.9035 109.345 36.2111C109.174 37.0058 108.63 37.4685 107.846 37.1365C107.242 36.8549 107.755 35.9898 108.349 36.2111Z" fill="#FC6D48"/>
<path d="M100.885 32.1875C101.076 31.5639 102.052 31.8254 101.891 32.4491C101.439 33.8876 101.176 35.3786 101.106 36.8849C101.106 37.5287 100.101 37.5287 100.101 36.8849C100.165 35.2925 100.429 33.7145 100.885 32.1875Z" fill="#FC6D48"/>
<path d="M92.7979 32.0569C92.8043 32.0016 92.8219 31.948 92.8495 31.8996C92.8772 31.8512 92.9144 31.8089 92.9589 31.7753C92.9939 31.7088 93.0439 31.6514 93.105 31.6076C93.1661 31.5639 93.2366 31.535 93.3108 31.5232C93.385 31.5115 93.461 31.5173 93.5326 31.5401C93.6042 31.5629 93.6695 31.6021 93.7233 31.6546L93.9044 31.8356C93.963 31.8967 94.0053 31.9716 94.0274 32.0533C94.0494 32.1351 94.0504 32.2211 94.0304 32.3033C94.0103 32.3856 93.9698 32.4614 93.9126 32.5239C93.8554 32.5863 93.7834 32.6333 93.7032 32.6605C93.4819 34.0586 93.2506 35.4568 93.0192 36.8549C92.9186 37.4987 91.9429 37.2371 92.0133 36.6034L92.7979 32.0569Z" fill="#FC6D48"/>
<path d="M84.3286 31.8657C84.57 31.2723 85.5456 31.5237 85.3344 32.1273C84.7639 33.5248 84.5462 35.0414 84.7007 36.543C84.7611 37.1868 83.7552 37.1767 83.6949 36.543C83.5294 34.9557 83.7467 33.3518 84.3286 31.8657Z" fill="#FC6D48"/>
<path d="M75.7084 32.5597C75.7889 31.926 76.7948 31.926 76.7143 32.5597C76.515 34.1204 76.451 35.6955 76.5232 37.2672C76.5232 37.9109 75.5173 37.9009 75.5173 37.2672C75.4445 35.6955 75.5085 34.1204 75.7084 32.5597Z" fill="#FC6D48"/>
<path d="M66.4947 31.9362C66.7461 31.3327 67.6212 31.8457 67.3698 32.4291C66.7761 33.8417 66.4848 35.3631 66.5148 36.8951C66.5148 37.0285 66.4618 37.1564 66.3675 37.2507C66.2732 37.3451 66.1452 37.398 66.0118 37.398C65.8785 37.398 65.7505 37.3451 65.6562 37.2507C65.5619 37.1564 65.5089 37.0285 65.5089 36.8951C65.4816 35.1909 65.8176 33.5004 66.4947 31.9362Z" fill="#FC6D48"/>
<path d="M58.4075 36.7846C58.7932 35.337 59.059 33.8601 59.2021 32.3688C59.2624 31.7351 60.2683 31.7351 60.208 32.3688C60.0589 33.9442 59.783 35.505 59.3832 37.036C59.3498 37.1654 59.2664 37.2763 59.1514 37.3442C59.0363 37.4121 58.899 37.4315 58.7696 37.3981C58.6402 37.3648 58.5294 37.2814 58.4614 37.1664C58.3935 37.0513 58.3741 36.914 58.4075 36.7846Z" fill="#FC6D48"/>
<path d="M51.5776 32.5797C51.7788 31.9661 52.7545 32.2277 52.5835 32.8412C52.201 33.9704 52.0305 35.1606 52.0806 36.3517C52.0806 36.9955 51.0747 36.9955 51.0747 36.3517C51.0047 35.074 51.1753 33.7945 51.5776 32.5797Z" fill="#FC6D48"/>
<path d="M44.5769 32.5597C44.6372 31.916 45.6431 31.916 45.5827 32.5597L45.2307 36.724C45.2307 37.3577 44.2248 37.3677 44.2248 36.724L44.5769 32.5597Z" fill="#FC6D48"/>
<path d="M127.551 32.8614C127.752 32.2479 128.728 32.5094 128.557 33.123C128.119 34.4165 127.941 35.7839 128.033 37.1464C128.033 37.7902 127.028 37.7801 127.028 37.1464C126.919 35.6976 127.097 34.2416 127.551 32.8614Z" fill="#FC6D48"/>
<path d="M126.354 42.1457C126.454 41.512 127.43 41.7735 127.36 42.4072C127.103 43.9828 127.002 45.5797 127.058 47.175C127.058 47.8188 126.052 47.8188 126.052 47.175C125.991 45.4928 126.092 43.8086 126.354 42.1457Z" fill="#FC6D48"/>
<path d="M120.017 42.3268C120.157 41.6931 121.133 41.9546 121.023 42.5782C120.682 44.0343 120.45 45.5136 120.328 47.004C120.268 47.6478 119.262 47.6478 119.323 47.004C119.443 45.4305 119.675 43.8674 120.017 42.3268Z" fill="#FC6D48"/>
<path d="M112.805 46.3303C112.863 44.9594 113.021 43.5945 113.277 42.2465C113.348 41.6027 114.354 41.6027 114.283 42.2465C114.122 43.5742 114.072 44.9623 113.81 46.2699C113.639 47.0545 113.096 47.5172 112.312 47.1853C111.708 46.9539 112.211 46.0889 112.805 46.3303Z" fill="#FC6D48"/>
<path d="M105.341 42.3067C105.532 41.683 106.508 41.9446 106.347 42.5682C105.896 44.007 105.632 45.4979 105.562 47.0041C105.562 47.6478 104.557 47.6478 104.557 47.0041C104.626 45.4122 104.89 43.8347 105.341 42.3067Z" fill="#FC6D48"/>
<path d="M97.254 42.1558C97.2604 42.1005 97.2779 42.0469 97.3056 41.9985C97.3333 41.9501 97.3705 41.9078 97.4149 41.8742C97.4493 41.8068 97.4993 41.7485 97.5608 41.7044C97.6224 41.6604 97.6936 41.6317 97.7685 41.6208C97.8434 41.61 97.9198 41.6173 97.9913 41.6421C98.0628 41.667 98.1273 41.7086 98.1794 41.7636L98.3604 41.9446C98.4194 42.0046 98.462 42.0787 98.4842 42.1599C98.5064 42.241 98.5075 42.3265 98.4873 42.4082C98.4672 42.4898 98.4264 42.565 98.369 42.6265C98.3116 42.6879 98.2394 42.7337 98.1593 42.7594C97.938 44.1575 97.7066 45.5557 97.4753 46.9639C97.3747 47.5976 96.399 47.336 96.4694 46.7024L97.254 42.1558Z" fill="#FC6D48"/>
<path d="M123.336 51.5204C123.437 50.8767 124.402 51.1482 124.342 51.7819C124.104 53.3593 124.016 54.9558 124.08 56.5497C124.08 57.1935 123.075 57.1834 123.075 56.5497C123 54.8688 123.087 53.1845 123.336 51.5204Z" fill="#FC6D48"/>
<path d="M116.959 51.6914C117.11 51.0577 118.075 51.3192 117.965 51.9529C117.632 53.4105 117.4 54.8893 117.271 56.3787C117.271 57.0224 116.265 57.0224 116.265 56.3787C116.385 54.8018 116.617 53.2354 116.959 51.6914Z" fill="#FC6D48"/>
<path d="M109.747 55.7045C109.813 54.338 109.967 52.9773 110.21 51.6308C110.28 50.9971 111.296 50.9971 111.215 51.6308C111.065 52.9485 111.014 54.3366 110.743 55.6542C110.582 56.4388 110.039 56.9015 109.244 56.5796C108.65 56.3282 109.153 55.4531 109.747 55.7045Z" fill="#FC6D48"/>
<path d="M102.293 51.6715C102.474 51.0579 103.45 51.3094 103.299 51.933C102.858 53.3776 102.595 54.8705 102.515 56.3789C102.515 57.0227 101.509 57.0227 101.509 56.3789C101.573 54.7832 101.837 53.2018 102.293 51.6715Z" fill="#FC6D48"/>
<path d="M94.166 51.5203C94.1726 51.4663 94.1903 51.4143 94.218 51.3676C94.2457 51.3208 94.2828 51.2804 94.327 51.2487C94.3616 51.1804 94.4119 51.1213 94.4739 51.0763C94.5359 51.0313 94.6076 51.0017 94.6833 50.9899C94.759 50.9781 94.8363 50.9845 94.9091 51.0085C94.9818 51.0325 95.0477 51.0735 95.1015 51.128L95.2825 51.3091C95.3412 51.3701 95.3835 51.445 95.4055 51.5267C95.4276 51.6085 95.4286 51.6945 95.4085 51.7767C95.3885 51.859 95.348 51.9348 95.2908 51.9973C95.2336 52.0597 95.1616 52.1067 95.0814 52.1339C94.85 53.532 94.6187 54.9302 94.3974 56.3283C94.2867 56.9721 93.3211 56.7005 93.3915 56.0668L94.166 51.5203Z" fill="#FC6D48"/>
<path d="M128.949 52.3051C129.15 51.6915 130.126 51.953 129.955 52.5666C129.517 53.8603 129.336 55.227 129.421 56.59C129.421 57.2438 128.416 57.2338 128.416 56.59C128.315 55.1407 128.496 53.6855 128.949 52.3051Z" fill="#FC6D48"/>
<path d="M124.714 61.3579C124.815 60.7242 125.79 60.9857 125.72 61.6194C125.467 63.1953 125.369 64.7922 125.428 66.3872C125.428 67.0309 124.422 67.0309 124.422 66.3872C124.358 64.7053 124.456 63.0211 124.714 61.3579Z" fill="#FC6D48"/>
<path d="M118.387 61.5388C118.538 60.9152 119.504 61.1767 119.393 61.8004C119.052 63.2564 118.82 64.7357 118.699 66.2262C118.639 66.8699 117.633 66.8699 117.693 66.2262C117.814 64.6494 118.046 63.083 118.387 61.5388Z" fill="#FC6D48"/>
<path d="M111.175 65.5519C111.237 64.1851 111.391 62.824 111.638 61.4782C111.708 60.8445 112.714 60.8445 112.644 61.4782C112.483 62.8059 112.432 64.194 112.171 65.5017C112 66.2963 111.457 66.759 110.672 66.4271C110.079 66.1756 110.582 65.3105 111.175 65.5519Z" fill="#FC6D48"/>
<path d="M103.712 61.5288C103.903 60.9052 104.878 61.1667 104.718 61.7904C104.266 63.229 104.002 64.7199 103.933 66.2262C103.933 66.87 102.927 66.87 102.927 66.2262C102.992 64.6338 103.255 63.0558 103.712 61.5288Z" fill="#FC6D48"/>
<path d="M95.6245 61.3577C95.6309 61.3023 95.6484 61.2488 95.6761 61.2004C95.7038 61.152 95.741 61.1097 95.7854 61.0761C95.8204 61.0096 95.8705 60.9522 95.9316 60.9084C95.9927 60.8646 96.0631 60.8357 96.1374 60.824C96.2116 60.8123 96.2876 60.8181 96.3592 60.8409C96.4308 60.8637 96.4961 60.9029 96.5499 60.9554L96.7309 61.1364C96.7898 61.1968 96.8325 61.271 96.8552 61.3522C96.8779 61.4334 96.8798 61.5189 96.8608 61.6011C96.8418 61.6832 96.8024 61.7592 96.7463 61.8222C96.6902 61.8851 96.6192 61.9329 96.5398 61.9612L95.8458 66.1557C95.7452 66.7994 94.7695 66.5379 94.8399 65.9042L95.6245 61.3577Z" fill="#FC6D48"/>
<path d="M121.666 70.7423C121.767 70.0986 122.732 70.3702 122.672 71.0038C122.403 72.5747 122.288 74.1683 122.33 75.7616C122.33 76.4154 121.324 76.4053 121.324 75.7616C121.277 74.0814 121.391 72.4005 121.666 70.7423Z" fill="#FC6D48"/>
<path d="M115.289 70.9135C115.43 70.2798 116.406 70.5414 116.295 71.175C115.963 72.6327 115.731 74.1114 115.601 75.6009C115.551 76.2446 114.545 76.2446 114.595 75.6009C114.71 74.0233 114.942 72.4566 115.289 70.9135Z" fill="#FC6D48"/>
<path d="M108.117 74.9268C108.185 73.5772 108.34 72.2332 108.58 70.9034C108.66 70.2697 109.666 70.2596 109.586 70.9034C109.435 72.2311 109.385 73.6192 109.113 74.9268C108.952 75.7114 108.409 76.1741 107.624 75.8522C107.021 75.5505 107.524 74.6754 108.117 74.9268Z" fill="#FC6D48"/>
<path d="M100.664 70.8931C100.845 70.2796 101.821 70.531 101.67 71.1547C101.228 72.599 100.964 74.0921 100.885 75.6006C100.885 76.2443 99.8793 76.2443 99.8793 75.6006C99.9439 74.0049 100.207 72.4235 100.664 70.8931Z" fill="#FC6D48"/>
<path d="M127.36 71.5574C127.561 70.9439 128.536 71.1953 128.365 71.819C127.928 73.1127 127.747 74.4794 127.832 75.8424C127.832 76.4962 126.826 76.4862 126.826 75.8424C126.726 74.3931 126.907 72.9379 127.36 71.5574Z" fill="#FC6D48"/>
<path d="M125.73 80.2178C125.831 79.5741 126.806 79.8356 126.736 80.4693C126.49 82.0459 126.399 83.6428 126.464 85.2371C126.464 85.8909 125.458 85.8808 125.458 85.2371C125.388 83.5592 125.479 81.8783 125.73 80.2178Z" fill="#FC6D48"/>
<path d="M119.403 80.3884C119.544 79.7547 120.52 80.0162 120.409 80.6499C120.075 82.1069 119.847 83.5859 119.725 85.0757C119.665 85.7094 118.659 85.7094 118.719 85.0757C118.835 83.499 119.064 81.9326 119.403 80.3884Z" fill="#FC6D48"/>
<path d="M112.181 84.392C112.247 83.0417 112.405 81.6975 112.654 80.3686C112.724 79.7248 113.73 79.7248 113.66 80.3686C113.499 81.6963 113.448 83.0844 113.177 84.392C113.016 85.1766 112.473 85.6393 111.688 85.3073C111.085 85.0156 111.598 84.1506 112.181 84.392Z" fill="#FC6D48"/>
<path d="M104.728 80.3686C104.762 80.2352 104.848 80.1211 104.967 80.0513C105.086 79.9815 105.228 79.9618 105.361 79.9965C105.495 80.0311 105.609 80.1174 105.679 80.2362C105.748 80.3551 105.768 80.4968 105.733 80.6302C105.283 82.073 105.016 83.5666 104.939 85.0761C104.939 85.7198 103.933 85.7198 103.933 85.0761C104 83.4799 104.267 81.8984 104.728 80.3686Z" fill="#FC6D48"/>
<path d="M96.6303 80.2178C96.6577 80.1246 96.7055 80.0386 96.7703 79.9662C96.835 79.8938 96.9151 79.8367 97.0047 79.7992C97.0943 79.7616 97.1912 79.7445 97.2882 79.749C97.3852 79.7536 97.4801 79.7797 97.5657 79.8255L97.7468 80.0065C97.8057 80.0665 97.8484 80.1406 97.8706 80.2218C97.8928 80.3029 97.8939 80.3884 97.8737 80.4701C97.8535 80.5517 97.8128 80.6269 97.7554 80.6884C97.6979 80.7498 97.6257 80.7956 97.5456 80.8213C97.3143 82.2295 97.093 83.6276 96.8616 85.0258C96.751 85.6595 95.7854 85.398 95.8558 84.7643L96.6303 80.2178Z" fill="#FC6D48"/>
<path d="M122.682 89.5824C122.783 88.9387 123.748 89.2102 123.688 89.8439C123.42 91.4184 123.302 93.0149 123.336 94.6117C123.336 95.2555 122.33 95.2454 122.33 94.6117C122.28 92.9278 122.398 91.243 122.682 89.5824Z" fill="#FC6D48"/>
<path d="M116.295 89.7531C116.446 89.1194 117.412 89.3809 117.301 90.0146C116.964 91.4715 116.732 92.9505 116.607 94.4404C116.557 95.0842 115.551 95.0842 115.601 94.4404C115.722 92.8636 115.954 91.2973 116.295 89.7531Z" fill="#FC6D48"/>
<path d="M109.133 93.7668C109.202 92.4172 109.356 91.0733 109.596 89.7433C109.666 89.1096 110.672 89.1096 110.602 89.7433C110.451 91.061 110.401 92.4491 110.129 93.7668C109.968 94.5614 109.425 95.0241 108.63 94.6922C108.037 94.3904 108.54 93.5455 109.133 93.7668Z" fill="#FC6D48"/>
<path d="M101.67 89.733C101.861 89.1195 102.836 89.381 102.676 89.9946C102.23 91.438 101.966 92.9316 101.891 94.4405C101.891 95.0842 100.885 95.0842 100.885 94.4405C100.954 92.8453 101.218 91.2645 101.67 89.733Z" fill="#FC6D48"/>
<path d="M128.365 90.3968C128.567 89.7833 129.542 90.0448 129.371 90.6584C128.943 91.9541 128.765 93.3196 128.848 94.6818C128.848 95.3256 127.842 95.3155 127.842 94.6818C127.738 93.2331 127.916 91.778 128.365 90.3968Z" fill="#FC6D48"/>
<path d="M124.1 99.4294C124.201 98.7957 125.177 99.0572 125.106 99.6909C124.86 101.267 124.769 102.864 124.835 104.459C124.835 105.102 123.829 105.102 123.829 104.459C123.763 102.777 123.854 101.094 124.1 99.4294Z" fill="#FC6D48"/>
<path d="M117.774 99.5804C117.914 98.9467 118.89 99.2083 118.779 99.8319C118.447 101.289 118.219 102.768 118.095 104.258C118.035 104.901 117.029 104.901 117.09 104.258C117.206 102.684 117.435 101.121 117.774 99.5804Z" fill="#FC6D48"/>
<path d="M110.551 103.604C110.618 102.254 110.776 100.91 111.024 99.5807C111.095 98.937 112.1 98.937 112.03 99.5807C111.869 100.908 111.819 102.297 111.557 103.604C111.386 104.389 110.843 104.851 110.059 104.52C109.465 104.238 109.968 103.373 110.551 103.604Z" fill="#FC6D48"/>
<path d="M121.053 108.804C121.153 108.161 122.119 108.432 122.059 109.066C121.82 110.643 121.733 112.24 121.797 113.834C121.797 114.477 120.791 114.467 120.791 113.834C120.712 112.153 120.799 110.468 121.053 108.804Z" fill="#FC6D48"/>
<path d="M114.716 108.976C114.867 108.342 115.832 108.603 115.722 109.237C115.389 110.695 115.157 112.173 115.028 113.663C114.977 114.307 113.971 114.307 114.022 113.663C114.142 112.086 114.374 110.52 114.716 108.976Z" fill="#FC6D48"/>
<path d="M126.706 109.639C126.907 109.025 127.883 109.287 127.712 109.901C127.282 111.196 127.104 112.562 127.189 113.924C127.189 114.578 126.183 114.568 126.183 113.924C126.079 112.475 126.256 111.02 126.706 109.639Z" fill="#FC6D48"/>
<path d="M18.1629 93.4751V93.3846C18.2696 93.1178 18.4779 92.9044 18.742 92.7912C19.0061 92.678 19.3043 92.6744 19.5711 92.7811C19.8378 92.8878 20.0513 93.0961 20.1645 93.3602C20.2777 93.6243 20.2813 93.9225 20.1746 94.1893V94.2798C20.1218 94.4119 20.0434 94.5323 19.9441 94.6341C19.8447 94.736 19.7262 94.8172 19.5955 94.8732C19.4647 94.9293 19.3242 94.959 19.1819 94.9608C19.0397 94.9625 18.8985 94.9362 18.7664 94.8834C18.6343 94.8305 18.5139 94.7522 18.4121 94.6528C18.3103 94.5535 18.229 94.435 18.173 94.3042C18.1169 94.1735 18.0872 94.033 18.0855 93.8907C18.0837 93.7484 18.11 93.6072 18.1629 93.4751Z" fill="#263655"/>
<path d="M26.7731 94.0685C26.8798 93.8017 27.0881 93.5882 27.3522 93.475C27.6163 93.3619 27.9145 93.3582 28.1813 93.4649C28.4481 93.5716 28.6615 93.78 28.7747 94.044C28.8879 94.3081 28.8915 94.6064 28.7848 94.8731C28.6781 95.1399 28.4698 95.3534 28.2057 95.4666C27.9416 95.5797 27.6434 95.5834 27.3766 95.4767C27.1098 95.37 26.8964 95.1616 26.7832 94.8975C26.67 94.6335 26.6664 94.3352 26.7731 94.0685Z" fill="#263655"/>
<path d="M33.9449 98.9973H34.0756C34.2077 98.9398 34.3499 98.909 34.4939 98.9064C34.6379 98.9039 34.781 98.9297 34.9151 98.9825C35.0491 99.0353 35.1714 99.1139 35.2751 99.214C35.3787 99.314 35.4616 99.4335 35.5191 99.5656C35.5765 99.6977 35.6074 99.8398 35.6099 99.9838C35.6125 100.128 35.5866 100.271 35.5338 100.405C35.4811 100.539 35.4024 100.661 35.3024 100.765C35.2023 100.869 35.0828 100.952 34.9507 101.009L34.82 101.069C34.5452 101.185 34.2356 101.188 33.9592 101.075C33.6829 100.963 33.4624 100.746 33.3464 100.471C33.2304 100.196 33.2282 99.8865 33.3405 99.6101C33.4527 99.3338 33.6701 99.1133 33.9449 98.9973Z" fill="#263655"/>
<path d="M37.8376 109.639L37.5459 109.317C36.6205 108.311 38.3104 106.933 39.2358 107.969L39.5275 108.291C40.4327 109.337 38.7429 110.645 37.8376 109.639Z" fill="#263655"/>
<path d="M37.9784 116.841V116.71C37.8624 116.443 37.857 116.142 37.9636 115.871C38.0702 115.6 38.2799 115.383 38.5467 115.267C38.8135 115.151 39.1154 115.145 39.3861 115.252C39.6568 115.359 39.8741 115.568 39.9901 115.835V115.966C40.1062 116.233 40.1115 116.535 40.0049 116.805C39.8983 117.076 39.6886 117.293 39.4218 117.409C39.155 117.525 38.8531 117.531 38.5824 117.424C38.3117 117.318 38.0944 117.108 37.9784 116.841Z" fill="#263655"/>
<path d="M35.1117 124.888C35.0453 124.728 35.0111 124.558 35.0111 124.385C35.0111 124.212 35.0453 124.041 35.1117 123.882C35.514 122.695 37.1234 123.228 37.1234 124.294C37.138 124.537 37.0699 124.778 36.9301 124.977C36.7903 125.176 36.5871 125.322 36.3536 125.391C36.1202 125.46 35.8703 125.448 35.6447 125.356C35.4192 125.265 35.2313 125.1 35.1117 124.888Z" fill="#263655"/>
<path d="M29.5191 129.465C29.5732 129.319 29.6604 129.188 29.7738 129.081C29.8873 128.975 30.0239 128.896 30.1729 128.851C30.3677 128.761 30.5851 128.73 30.7975 128.763C31.0099 128.795 31.2077 128.891 31.366 129.036C31.5243 129.181 31.6359 129.37 31.6867 129.579C31.7375 129.788 31.7253 130.007 31.6515 130.209C31.6021 130.355 31.5175 130.486 31.4052 130.592C31.2929 130.697 31.1564 130.773 31.0077 130.813C30.8135 130.905 30.5962 130.937 30.3834 130.906C30.1706 130.875 29.972 130.781 29.8125 130.637C29.6531 130.492 29.5401 130.304 29.4879 130.095C29.4356 129.887 29.4465 129.667 29.5191 129.465Z" fill="#263655"/>
<path d="M22.7496 131.154L22.9307 131.225C23.1975 131.332 23.4109 131.54 23.5241 131.804C23.6373 132.068 23.6409 132.366 23.5342 132.633C23.4275 132.9 23.2192 133.113 22.9551 133.226C22.691 133.34 22.3928 133.343 22.126 133.237L21.9449 133.166C21.6782 133.059 21.4647 132.851 21.3515 132.587C21.2384 132.323 21.2347 132.025 21.3414 131.758C21.4481 131.491 21.6564 131.278 21.9205 131.165C22.1846 131.051 22.4829 131.048 22.7496 131.154Z" fill="#263655"/>
<path d="M12.9827 129.394H13.0733C13.34 129.501 13.5535 129.709 13.6667 129.973C13.7799 130.238 13.7835 130.536 13.6768 130.803C13.5701 131.069 13.3618 131.283 13.0977 131.396C12.8336 131.509 12.5354 131.513 12.2686 131.406H12.178C11.9113 131.299 11.6978 131.091 11.5846 130.827C11.4715 130.563 11.4678 130.265 11.5745 129.998C11.6812 129.731 11.8896 129.518 12.1536 129.404C12.4177 129.291 12.716 129.288 12.9827 129.394Z" fill="#263655"/>
<path d="M5.79078 125.733L5.73043 125.612C5.67297 125.48 5.64209 125.338 5.63955 125.194C5.63701 125.05 5.66287 124.907 5.71564 124.773C5.76841 124.639 5.84707 124.516 5.94712 124.413C6.04716 124.309 6.16664 124.226 6.29874 124.169C6.43083 124.111 6.57295 124.08 6.71698 124.078C6.861 124.075 7.00412 124.101 7.13815 124.154C7.27218 124.207 7.39451 124.285 7.49814 124.385C7.60178 124.485 7.6847 124.605 7.74216 124.737L7.80251 124.858C7.91855 125.124 7.92387 125.426 7.81729 125.697C7.71071 125.968 7.50096 126.185 7.23419 126.301C6.96742 126.417 6.66548 126.422 6.39479 126.316C6.12409 126.209 5.90682 126 5.79078 125.733Z" fill="#263655"/>
<path d="M1.29459 117.555V117.344C1.17388 115.966 3.30632 115.634 3.43708 117.022V117.244C3.55779 118.622 1.42535 118.944 1.29459 117.555Z" fill="#263655"/>
<path d="M0.0774486 109.187L0.147851 109.005C0.200688 108.873 0.279033 108.753 0.378397 108.651C0.477762 108.549 0.596207 108.468 0.726972 108.412C0.857736 108.356 0.998243 108.326 1.1405 108.325C1.28276 108.323 1.42396 108.349 1.55605 108.402C1.68815 108.455 1.80855 108.533 1.91037 108.632C2.01219 108.732 2.09342 108.85 2.14946 108.981C2.20551 109.112 2.23525 109.252 2.23698 109.395C2.23871 109.537 2.21242 109.678 2.15958 109.81L2.08918 109.991C2.03634 110.123 1.95799 110.244 1.85863 110.346C1.75927 110.447 1.64082 110.529 1.51006 110.585C1.37929 110.641 1.23877 110.67 1.09651 110.672C0.954255 110.674 0.81305 110.648 0.680958 110.595C0.548866 110.542 0.428476 110.464 0.326658 110.364C0.224841 110.265 0.14359 110.146 0.0875478 110.016C0.0315058 109.885 0.00176644 109.744 3.19481e-05 109.602C-0.00170255 109.46 0.0246119 109.319 0.0774486 109.187Z" fill="#263655"/>
<path d="M1.546 101.029L1.6667 100.969C1.93348 100.853 2.23542 100.847 2.50612 100.954C2.77681 101.061 2.99408 101.27 3.11012 101.537C3.22617 101.804 3.23149 102.106 3.12491 102.376C3.01833 102.647 2.80859 102.864 2.54182 102.98L2.4211 103.031C2.28967 103.088 2.14821 103.119 2.00479 103.122C1.86138 103.125 1.71882 103.099 1.58525 103.047C1.45168 102.995 1.32973 102.917 1.22635 102.817C1.12296 102.718 1.04018 102.599 0.982723 102.467C0.925263 102.336 0.894252 102.195 0.891462 102.051C0.888673 101.908 0.914164 101.765 0.966469 101.632C1.01877 101.498 1.09687 101.376 1.19631 101.273C1.29575 101.169 1.41457 101.087 1.546 101.029Z" fill="#263655"/>
<path d="M6.00197 96.2914C6.05481 96.1593 6.13314 96.0389 6.23251 95.9371C6.33187 95.8352 6.45032 95.754 6.58108 95.6979C6.71185 95.6419 6.85237 95.6122 6.99463 95.6104C7.13688 95.6087 7.27809 95.635 7.41018 95.6878C7.54227 95.7407 7.66266 95.819 7.76448 95.9184C7.8663 96.0177 7.94755 96.1362 8.00359 96.2669C8.05963 96.3977 8.08937 96.5382 8.09111 96.6805C8.09284 96.8227 8.06653 96.964 8.0137 97.096C7.90699 97.3628 7.69867 97.5763 7.43458 97.6895C7.17049 97.8026 6.87226 97.8063 6.60549 97.6996C6.33871 97.5929 6.12527 97.3845 6.01208 97.1205C5.8989 96.8564 5.89526 96.5581 6.00197 96.2914Z" fill="#263655"/>
<path d="M11.6248 94.4403C11.7452 94.194 11.9543 94.0023 12.2102 93.9037C12.466 93.8051 12.7497 93.8069 13.0043 93.9088C13.2588 94.0106 13.4655 94.2049 13.5827 94.4527C13.7 94.7006 13.7192 94.9836 13.6366 95.245C13.5161 95.4914 13.307 95.683 13.0512 95.7816C12.7954 95.8802 12.5117 95.8784 12.2571 95.7766C12.0025 95.6748 11.7959 95.4804 11.6786 95.2326C11.5613 94.9848 11.5421 94.7017 11.6248 94.4403Z" fill="#263655"/>
<path d="M21.5124 97.74H21.6331C21.8999 97.6239 22.2019 97.6186 22.4726 97.7252C22.7432 97.8318 22.9605 98.0415 23.0766 98.3083C23.1926 98.5751 23.1979 98.877 23.0913 99.1477C22.9848 99.4184 22.775 99.6357 22.5082 99.7517L22.3875 99.8121C22.1128 99.9281 21.8031 99.9302 21.5268 99.818C21.2504 99.7058 21.03 99.4883 20.914 99.2136C20.7979 98.9388 20.7958 98.6292 20.908 98.3528C21.0202 98.0765 21.2377 97.856 21.5124 97.74Z" fill="#263655"/>
<path d="M29.5292 103.081L29.2173 102.538C29.1605 102.409 29.1298 102.269 29.1268 102.128C29.1239 101.986 29.1488 101.846 29.2002 101.714C29.2515 101.583 29.3283 101.462 29.4262 101.36C29.5241 101.258 29.6411 101.176 29.7706 101.12C30.0314 101.01 30.3246 101.005 30.589 101.106C30.8533 101.207 31.0683 101.407 31.1888 101.663L31.5006 102.206C31.5575 102.335 31.5882 102.475 31.5912 102.616C31.5941 102.758 31.5692 102.898 31.5178 103.03C31.4665 103.161 31.3897 103.282 31.2918 103.384C31.1939 103.486 31.0769 103.568 30.9474 103.624C30.6866 103.734 30.3934 103.739 30.129 103.638C29.8647 103.537 29.6497 103.337 29.5292 103.081Z" fill="#263655"/>
<path d="M32.748 111.389L32.5669 110.494C32.2853 109.136 34.4177 108.814 34.6993 110.172L34.8904 111.077C35.1721 112.435 33.0296 112.747 32.748 111.389Z" fill="#263655"/>
<path d="M31.1687 120.613L31.1084 120.492C30.9923 120.225 30.987 119.924 31.0936 119.653C31.2002 119.382 31.4099 119.165 31.6767 119.049C31.9435 118.933 32.2454 118.927 32.5161 119.034C32.7868 119.141 33.0041 119.35 33.1201 119.617V119.738C33.2001 119.99 33.1847 120.262 33.0768 120.503C32.9688 120.745 32.7759 120.938 32.5348 121.046C32.2936 121.154 32.0212 121.17 31.7692 121.09C31.5173 121.01 31.3036 120.84 31.1687 120.613Z" fill="#263655"/>
<path d="M25.4454 125.24C25.5658 124.994 25.7749 124.802 26.0307 124.704C26.2866 124.605 26.5702 124.607 26.8248 124.709C27.0794 124.81 27.286 125.005 27.4033 125.253C27.5206 125.5 27.5398 125.783 27.4571 126.045C27.3367 126.291 27.1276 126.483 26.8718 126.581C26.6159 126.68 26.3322 126.678 26.0777 126.576C25.8231 126.475 25.6164 126.28 25.4992 126.032C25.3819 125.785 25.3627 125.502 25.4454 125.24Z" fill="#263655"/>
<path d="M18.3741 125.783H18.4646C18.7314 125.89 18.9449 126.098 19.058 126.362C19.1712 126.626 19.1749 126.924 19.0681 127.191C18.9614 127.458 18.7531 127.671 18.489 127.785C18.2249 127.898 17.9267 127.901 17.6599 127.795H17.5694C17.3026 127.688 17.0892 127.48 16.976 127.216C16.8628 126.952 16.8592 126.653 16.9659 126.387C17.0726 126.12 17.2809 125.906 17.545 125.793C17.8091 125.68 18.1073 125.676 18.3741 125.783Z" fill="#263655"/>
<path d="M9.81418 122.715L9.74377 122.373C9.45207 121.016 11.5845 120.704 11.8762 122.062L11.9567 122.404C12.2484 123.721 10.1059 124.043 9.81418 122.715Z" fill="#263655"/>
<path d="M6.65583 114.055V113.743C6.69051 113.459 6.83663 113.2 7.06205 113.024C7.28747 112.848 7.57373 112.768 7.85784 112.803C8.14195 112.837 8.40065 112.983 8.57703 113.209C8.7534 113.434 8.833 113.721 8.79832 114.005V114.316C8.76364 114.601 8.61752 114.859 8.3921 115.036C8.16668 115.212 7.88042 115.292 7.59631 115.257C7.3122 115.222 7.05351 115.076 6.87713 114.851C6.70076 114.625 6.62115 114.339 6.65583 114.055Z" fill="#263655"/>
<path d="M7.39015 104.811H7.60138C8.97941 104.69 9.31135 106.823 7.92325 106.944H7.70196C6.32393 107.064 6.00206 104.932 7.39015 104.811Z" fill="#263655"/>
<path d="M12.3389 100.586C12.4593 100.34 12.6684 100.148 12.9243 100.05C13.1801 99.9511 13.4638 99.9529 13.7184 100.055C13.9729 100.157 14.1796 100.351 14.2969 100.599C14.4141 100.847 14.4334 101.13 14.3507 101.391C14.2303 101.637 14.0212 101.829 13.7653 101.928C13.5095 102.026 13.2258 102.024 12.9712 101.923C12.7167 101.821 12.51 101.626 12.3927 101.379C12.2755 101.131 12.2562 100.848 12.3389 100.586Z" fill="#263655"/>
<path d="M22.6491 103.604H22.7396C22.9859 103.724 23.1776 103.933 23.2762 104.189C23.3748 104.445 23.373 104.729 23.2712 104.983C23.1694 105.238 22.975 105.445 22.7272 105.562C22.4793 105.679 22.1963 105.698 21.9349 105.616H21.8444C21.5776 105.509 21.3642 105.301 21.251 105.036C21.1378 104.772 21.1342 104.474 21.2409 104.207C21.3476 103.941 21.5559 103.727 21.82 103.614C22.0841 103.501 22.3823 103.497 22.6491 103.604Z" fill="#263655"/>
<path d="M27.4672 110.766V110.555C27.3465 109.177 29.4789 108.845 29.5996 110.233V110.454C29.7304 111.832 27.5879 112.154 27.4672 110.766Z" fill="#263655"/>
<path d="M24.2081 119.285L24.3691 119.144C25.3749 118.219 26.763 119.909 25.7169 120.824L25.556 120.975C24.5099 121.89 23.1721 120.211 24.2081 119.285Z" fill="#263655"/>
<path d="M16.6139 121.026L16.5536 120.905C16.4961 120.773 16.4652 120.631 16.4627 120.487C16.4602 120.343 16.486 120.199 16.5388 120.065C16.5916 119.931 16.6702 119.809 16.7703 119.705C16.8703 119.602 16.9898 119.519 17.1219 119.461C17.254 119.404 17.3961 119.373 17.5401 119.371C17.6841 119.368 17.8273 119.394 17.9613 119.447C18.0953 119.499 18.2176 119.578 18.3213 119.678C18.4249 119.778 18.5078 119.898 18.5653 120.03V120.15C18.6453 120.402 18.6299 120.675 18.522 120.916C18.414 121.157 18.2211 121.35 17.98 121.458C17.7388 121.567 17.4663 121.582 17.2144 121.502C16.9625 121.423 16.7487 121.253 16.6139 121.026Z" fill="#263655"/>
<path d="M11.6851 111.47V111.379C11.7918 111.112 12.0001 110.899 12.2642 110.786C12.5283 110.673 12.8265 110.669 13.0933 110.776C13.3601 110.882 13.5735 111.091 13.6867 111.355C13.7999 111.619 13.8035 111.917 13.6968 112.184V112.274C13.5901 112.541 13.3818 112.755 13.1177 112.868C12.8536 112.981 12.5554 112.985 12.2886 112.878C12.0218 112.771 11.8084 112.563 11.6952 112.299C11.582 112.035 11.5784 111.737 11.6851 111.47Z" fill="#263655"/>
<path d="M16.1813 105.616C16.3017 105.37 16.5108 105.178 16.7667 105.079C17.0225 104.981 17.3062 104.982 17.5608 105.084C17.8153 105.186 18.022 105.38 18.1393 105.628C18.2565 105.876 18.2758 106.159 18.1931 106.421C18.0727 106.667 17.8636 106.859 17.6077 106.957C17.3519 107.056 17.0682 107.054 16.8136 106.952C16.5591 106.85 16.3524 106.656 16.2351 106.408C16.1179 106.16 16.0986 105.877 16.1813 105.616Z" fill="#263655"/>
<path d="M22.6088 112.123H22.6994C22.9661 112.229 23.1801 112.436 23.2943 112.699C23.4084 112.962 23.4133 113.26 23.3079 113.527C23.2025 113.793 22.9955 114.007 22.7324 114.122C22.4692 114.236 22.1715 114.241 21.9047 114.135H21.8142C21.5474 114.03 21.3335 113.823 21.2193 113.56C21.1052 113.296 21.1003 112.999 21.2057 112.732C21.311 112.465 21.5181 112.251 21.7812 112.137C22.0444 112.023 22.3421 112.018 22.6088 112.123Z" fill="#263655"/>
<path d="M15.256 114.859C15.3088 114.727 15.3872 114.607 15.4865 114.505C15.5859 114.403 15.7043 114.322 15.8351 114.266C15.9659 114.21 16.1064 114.18 16.2487 114.179C16.3909 114.177 16.5321 114.203 16.6642 114.256C16.7963 114.309 16.9167 114.387 17.0185 114.486C17.1203 114.586 17.2016 114.704 17.2576 114.835C17.3137 114.966 17.3434 115.106 17.3451 115.249C17.3469 115.391 17.3206 115.532 17.2677 115.664C17.161 115.931 16.9527 116.144 16.6886 116.258C16.4245 116.371 16.1263 116.374 15.8595 116.268C15.5928 116.161 15.3793 115.953 15.2661 115.689C15.1529 115.424 15.1493 115.126 15.256 114.859Z" fill="#263655"/>
<path d="M25.1135 100.707C25.2339 100.461 25.443 100.269 25.6988 100.17C25.9547 100.072 26.2383 100.074 26.4929 100.175C26.7475 100.277 26.9541 100.472 27.0714 100.719C27.1887 100.967 27.2079 101.25 27.1252 101.512C27.0048 101.758 26.7957 101.95 26.5398 102.048C26.284 102.147 26.0003 102.145 25.7458 102.043C25.4912 101.941 25.2845 101.747 25.1673 101.499C25.05 101.251 25.0308 100.968 25.1135 100.707Z" fill="#263655"/>
<path d="M70.0554 84.74C68.6654 89.49 66.2954 100.07 59.7554 100.37C56.2554 100.53 55.1654 97.77 54.9954 94.9C54.8607 94.8473 54.7379 94.7682 54.6344 94.6671C54.5309 94.5661 54.4487 94.4454 54.3927 94.312C54.3367 94.1786 54.3081 94.0354 54.3086 93.8907C54.3091 93.7461 54.3386 93.603 54.3954 93.47C54.6454 92.92 54.8754 92.37 55.1254 91.81L55.1854 91.33C55.1989 91.1974 55.2441 91.0701 55.3172 90.9587C55.3903 90.8473 55.4891 90.7551 55.6054 90.69C64.3595 70.4048 70.097 48.9473 72.6354 27C72.6354 26.7348 72.7407 26.4804 72.9283 26.2929C73.1158 26.1054 73.3701 26 73.6354 26C73.9006 26 74.1549 26.1054 74.3425 26.2929C74.53 26.4804 74.6354 26.7348 74.6354 27C77.0333 46.3583 75.4751 66.0018 70.0554 84.74Z" fill="#263655"/>
<path d="M49.2454 92.59C49.4091 93.0159 49.449 93.4795 49.3605 93.9271C49.272 94.3748 49.0588 94.7883 48.7454 95.12C46.8154 97.39 43.6054 96.55 41.1954 94.97C41.1174 95.1293 40.9985 95.265 40.8507 95.3632C40.703 95.4614 40.5318 95.5185 40.3547 95.5286C40.1776 95.5388 40.0009 95.5017 39.8429 95.4211C39.6849 95.3405 39.5512 95.2193 39.4554 95.07C29.1754 74.56 22.4554 51.07 31.8354 28.93C32.2254 28 33.7354 28.49 33.7054 29.43C32.973 47.4848 36.4299 65.4641 43.8054 81.96C44.6454 83.8 45.5154 85.61 46.4454 87.41C47.2254 88.92 48.9254 90.93 49.2454 92.59Z" fill="#263655"/>
<path d="M37.2555 135.34C35.506 141.756 35.6205 148.537 37.5855 154.89C36.0682 151.455 34.8406 147.899 33.9155 144.26C30.3755 131.39 28.8255 118.09 25.3455 105.2C20.7652 102.674 16.6957 99.3168 13.3455 95.3C17.7586 94.1703 22.4268 94.605 26.5555 96.53C23.4449 89.6637 22.3757 82.0473 23.4755 74.59C23.6535 73.081 24.0686 71.6095 24.7055 70.23C25.1084 70.6227 25.4827 71.0437 25.8255 71.49C30.4855 77.58 31.9955 85.27 32.3555 92.79C32.5355 92.7 32.7155 92.6 32.8955 92.52C36.6389 96.9548 39.4531 102.097 41.1709 107.64C42.8887 113.183 43.4752 119.016 42.8955 124.79C40.1684 127.784 38.2301 131.409 37.2555 135.34Z" fill="#FFE388"/>
<path d="M26.5954 96.5299C22.4668 94.6049 17.7985 94.1702 13.3854 95.2999C5.44543 85.8099 1.90543 73.1499 3.29543 60.2999C2.65543 59.6899 18.4154 63.9799 24.7454 70.2299C24.1086 71.6094 23.6935 73.0809 23.5154 74.5899C22.4156 82.0472 23.4848 89.6636 26.5954 96.5299Z" fill="#263655"/>
<path d="M81.4553 103.29C81.4699 103.376 81.4699 103.464 81.4553 103.55C78.3912 117.424 74.2212 131.031 68.9853 144.24C67.1453 148.87 64.6953 155.24 60.8853 159.8C63.8271 153.332 65.1978 146.259 64.8853 139.16C64.8771 136.934 64.595 134.717 64.0453 132.56C63.1246 129.314 61.2838 126.403 58.7453 124.18L58.8153 124.1C58.2097 118.206 59.0601 112.253 61.2918 106.765C63.5236 101.276 67.0685 96.419 71.6153 92.62L72.2353 92.94C72.2353 92.67 72.2353 92.41 72.2353 92.14C72.2253 85.4859 74.4117 79.0145 78.4553 73.73C80.0153 76.73 80.2153 80.44 80.1953 83.91C80.1953 88.45 79.9653 93.07 78.5753 97.39H78.6553C81.8796 94.6148 85.4657 92.2903 89.3153 90.48C91.1164 89.6789 93.0015 89.0819 94.9353 88.7C91.6277 94.5381 87.014 99.5317 81.4553 103.29Z" fill="#FFE388"/>
<path d="M58.7954 124.14L58.7254 124.22C57.6005 123.211 56.3461 122.357 54.9954 121.68C53.8304 121.046 52.5396 120.677 51.2154 120.6C49.5629 120.62 47.9489 121.101 46.5554 121.99C45.2193 122.774 44.0034 123.748 42.9454 124.88C43.5252 119.105 42.9387 113.273 41.2209 107.73C39.503 102.186 36.6889 97.0446 32.9454 92.6098C38.937 89.5639 45.5662 87.9847 52.2875 88.0021C59.0087 88.0195 65.6297 89.633 71.6054 92.7098C67.0642 96.5028 63.5219 101.351 61.2887 106.83C59.0555 112.31 58.1994 118.253 58.7954 124.14Z" fill="#263655"/>
<path d="M60.8854 159.8C58.3954 162.8 55.3254 164.92 51.4554 165.25C44.5554 165.84 40.3354 160.78 37.5854 154.89C35.6204 148.537 35.5059 141.756 37.2554 135.34C38.2522 131.422 40.2075 127.814 42.9454 124.84C44.0034 123.708 45.2192 122.734 46.5554 121.95C47.9489 121.061 49.5629 120.58 51.2154 120.56C52.5396 120.637 53.8304 121.006 54.9954 121.64C56.3438 122.305 57.598 123.145 58.7254 124.14C61.2639 126.363 63.1046 129.273 64.0254 132.52C64.575 134.677 64.8571 136.894 64.8654 139.12C65.1904 146.231 63.8265 153.318 60.8854 159.8Z" fill="#263655"/>
<path d="M97.4354 83.8299C96.6762 85.5053 95.8317 87.1408 94.9054 88.7299C92.9716 89.1118 91.0865 89.7089 89.2854 90.5099C85.4357 92.3202 81.8497 94.6448 78.6254 97.4199H78.5454C79.9354 93.0999 80.1454 88.4799 80.1654 83.9399C80.1654 80.4699 79.9854 76.7399 78.4254 73.7599C83.8354 66.4999 92.1954 61.1999 101.105 58.2699C101.215 58.1183 101.364 58.0003 101.537 57.9293C101.71 57.8584 101.9 57.8373 102.084 57.8686C102.268 57.8998 102.44 57.9821 102.58 58.106C102.72 58.23 102.822 58.3907 102.875 58.5699C104.925 66.5599 100.705 76.5999 97.4354 83.8299Z" fill="#263655"/>
<path d="M34.9654 106.62C34.695 106.45 34.393 106.337 34.0776 106.288C33.7622 106.238 33.4401 106.253 33.1307 106.332C32.8212 106.41 32.531 106.551 32.2774 106.745C32.0238 106.938 31.8122 107.182 31.6554 107.46C31.4889 107.594 31.3812 107.788 31.3554 108C31.3554 108 31.3554 108.06 31.3554 108.09C31.305 108.213 31.2648 108.34 31.2354 108.47C31.1495 108.943 31.1495 109.427 31.2354 109.9C31.1891 110.523 31.3113 111.147 31.5893 111.707C31.8673 112.266 32.2909 112.741 32.8154 113.08C33.1522 113.295 33.535 113.427 33.9325 113.465C34.3301 113.504 34.7311 113.447 35.1027 113.301C35.4744 113.155 35.8061 112.922 36.0708 112.623C36.3354 112.324 36.5255 111.967 36.6254 111.58C36.8201 110.68 36.7687 109.745 36.4766 108.872C36.1845 107.999 35.6624 107.221 34.9654 106.62Z" fill="#263655"/>
<path d="M70.6454 107.87C70.579 107.556 70.4479 107.259 70.2605 106.999C70.0731 106.738 69.8334 106.519 69.5568 106.357C69.2802 106.194 68.9727 106.091 68.6539 106.053C68.3352 106.016 68.0121 106.045 67.7054 106.14C67.5119 106.208 67.3272 106.298 67.1554 106.41C67.042 106.418 66.9313 106.449 66.83 106.5C66.7286 106.552 66.6387 106.623 66.5654 106.71C64.9654 108.47 63.0154 113.41 66.8354 114.02C70.0554 114.55 71.3954 110.38 70.6454 107.87Z" fill="#263655"/>
<path d="M58.3654 148.4C57.7654 146.32 55.4254 146.3 53.2654 146.59C51.5884 146.818 49.8979 146.932 48.2054 146.93C46.2054 146.93 44.2054 147.19 43.1254 148.39C41.3654 150.39 43.2454 152.92 45.1854 153.93C46.4943 154.531 47.9128 154.856 49.3527 154.885C50.7927 154.914 52.2232 154.647 53.5554 154.1C55.7254 153.27 59.1654 151.23 58.3654 148.4Z" fill="white"/>
<path d="M50.2454 152.05C50.2454 151.917 50.1927 151.79 50.0989 151.696C50.0051 151.602 49.878 151.55 49.7454 151.55C49.6128 151.55 49.4856 151.602 49.3918 151.696C49.298 151.79 49.2454 151.917 49.2454 152.05C49.2454 154.69 49.2454 157.32 49.3354 159.96C49.3354 160.6 50.3354 160.6 50.3354 159.96C50.2287 157.333 50.1987 154.696 50.2454 152.05Z" fill="white"/>
<path d="M43.7554 98.3899C43.479 97.3448 43.076 96.3373 42.5554 95.3899C42.2554 94.8199 41.3854 95.3199 41.6954 95.8799C42.1662 96.7502 42.5321 97.6734 42.7854 98.6299C42.8213 98.7541 42.9039 98.8595 43.0158 98.9242C43.1278 98.9888 43.2604 99.0075 43.3858 98.9765C43.5113 98.9454 43.6199 98.867 43.6888 98.7576C43.7577 98.6483 43.7816 98.5165 43.7554 98.3899Z" fill="#57719B"/>
<path d="M48.9254 94.8399C48.5654 94.3099 47.6954 94.8399 48.0554 95.3299C48.621 96.1519 48.8795 97.1466 48.7854 98.1399C48.7854 98.7799 49.7854 98.7699 49.7854 98.1399C49.8834 96.9741 49.58 95.8097 48.9254 94.8399Z" fill="#57719B"/>
<path d="M55.5154 95.2799C55.4809 95.1473 55.3952 95.0339 55.277 94.9645C55.1589 94.8951 55.018 94.8755 54.8854 94.9099C54.7528 94.9444 54.6393 95.0302 54.5699 95.1483C54.5005 95.2665 54.4809 95.4073 54.5154 95.5399C54.7552 96.5209 54.8195 97.5366 54.7054 98.5399C54.6454 99.1799 55.6454 99.1699 55.7054 98.5399C55.8396 97.4507 55.7752 96.3462 55.5154 95.2799Z" fill="#57719B"/>
<path d="M60.1854 95.8298C60.1459 97.0972 59.9954 98.3587 59.7355 99.5998C59.6055 100.23 60.5655 100.49 60.7355 99.8498C61.0173 98.5337 61.1813 97.1951 61.2254 95.8498C61.2054 95.1398 60.2054 95.1898 60.1854 95.8298Z" fill="#57719B"/>
<path d="M56.8554 102.59L56.4454 104.74C56.3254 105.37 57.2854 105.63 57.4454 105L57.8554 102.84C57.9454 102.21 56.9754 101.95 56.8554 102.59Z" fill="#57719B"/>
<path d="M50.8555 103.14V105.54C50.8555 105.673 50.9081 105.8 51.0019 105.893C51.0957 105.987 51.2229 106.04 51.3555 106.04C51.4881 106.04 51.6153 105.987 51.709 105.893C51.8028 105.8 51.8555 105.673 51.8555 105.54V103.14C51.8555 103.007 51.8028 102.88 51.709 102.786C51.6153 102.693 51.4881 102.64 51.3555 102.64C51.2229 102.64 51.0957 102.693 51.0019 102.786C50.9081 102.88 50.8555 103.007 50.8555 103.14Z" fill="#57719B"/>
<path d="M46.7554 103.51C46.6454 102.88 45.6854 103.14 45.7554 103.77L46.1454 106.2C46.2554 106.84 47.2154 106.57 47.1454 105.94L46.7554 103.51Z" fill="#57719B"/>
<path d="M49.6654 109.72C49.5954 109.08 48.5954 109.08 48.6654 109.72L48.9654 112.42C49.0354 113.05 50.0354 113.05 49.9654 112.42L49.6654 109.72Z" fill="#57719B"/>
<path d="M55.0554 108.77C55.0554 108.13 54.0554 108.13 54.0554 108.77C54.0554 109.77 54.1654 110.83 54.2154 111.87C54.2154 112.51 55.2154 112.51 55.2154 111.87L55.0554 108.77Z" fill="#57719B"/>
<path d="M47.2154 118.14C47.0254 117.32 46.8354 116.51 46.6354 115.69C46.4954 115.06 45.5254 115.32 45.6354 115.95L46.2054 118.4C46.3954 118.98 47.3654 118.72 47.2154 118.14Z" fill="#57719B"/>
<path d="M52.6754 115.14C52.6754 114.49 51.6754 114.5 51.6754 115.14C51.6253 115.997 51.6454 116.856 51.7354 117.71C51.7954 118.34 52.7954 118.35 52.7354 117.71C52.6455 116.856 52.6254 115.997 52.6754 115.14Z" fill="#57719B"/>
<path d="M57.4655 115.5C57.4055 114.87 56.4055 114.87 56.4655 115.5C56.5305 116.445 56.5305 117.394 56.4655 118.34C56.4655 118.98 57.4655 118.97 57.4655 118.34C57.5305 117.394 57.5305 116.445 57.4655 115.5Z" fill="#57719B"/>
<path d="M70.6955 82.0099C66.4691 82.8837 62.1278 83.056 57.8455 82.5199C57.2155 82.4399 57.2255 83.4399 57.8455 83.5199C62.2127 84.0583 66.6388 83.8725 70.9455 82.9699C71.5855 82.8399 71.3255 81.8799 70.6955 82.0099Z" fill="#57719B"/>
<path d="M72.2455 77.86C67.942 77.8772 63.6444 77.5428 59.3954 76.86C58.7754 76.76 58.5154 77.73 59.1454 77.86C63.4772 78.5528 67.8587 78.8873 72.2455 78.86C72.3781 78.86 72.5052 78.8073 72.599 78.7136C72.6928 78.6198 72.7455 78.4926 72.7455 78.36C72.7455 78.2274 72.6928 78.1002 72.599 78.0064C72.5052 77.9127 72.3781 77.86 72.2455 77.86Z" fill="#57719B"/>
<path d="M74.0554 70.5999C70.0424 71.6903 65.927 72.3605 61.7754 72.5999C61.1354 72.5999 61.1354 73.5999 61.7754 73.5999C66.0096 73.3649 70.2084 72.6947 74.3054 71.5999C74.438 71.5667 74.552 71.4822 74.6223 71.365C74.6927 71.2478 74.7136 71.1075 74.6804 70.9749C74.6473 70.8423 74.5628 70.7282 74.4456 70.6579C74.3284 70.5876 74.188 70.5667 74.0554 70.5999Z" fill="#57719B"/>
<path d="M74.3854 65.4599L63.2654 66.8699C62.6354 66.9499 62.6254 67.9499 63.2654 67.8699L74.3954 66.4599C75.0554 66.3799 75.0554 65.3799 74.3854 65.4599Z" fill="#57719B"/>
<path d="M75.7555 61.8199C74.7555 62.2599 71.6555 60.5499 70.6255 60.1699L65.2355 58.1699C64.6255 57.9499 64.3755 58.9099 64.9855 59.1699L71.9155 61.6999C73.1955 62.1699 74.9155 63.2999 76.2555 62.6999C76.8455 62.4299 76.3455 61.5599 75.7555 61.8199Z" fill="#57719B"/>
<path d="M75.1555 54.6698L71.0555 55.4498L69.1755 55.8198C68.5799 55.9965 67.9758 56.1434 67.3655 56.2598C67.3345 56.2074 67.2925 56.1624 67.2425 56.1279C67.1924 56.0934 67.1354 56.0701 67.0755 56.0598H66.9655C66.8382 56.026 66.7028 56.0439 66.5886 56.1094C66.4744 56.1749 66.3906 56.2829 66.3555 56.4098V56.5498C66.3273 56.6554 66.3346 56.7674 66.3761 56.8685C66.4177 56.9697 66.4912 57.0544 66.5855 57.1098C67.4355 57.5698 68.9455 56.9098 69.8055 56.7398L75.4455 55.6498C76.0555 55.5098 75.7855 54.5498 75.1555 54.6698Z" fill="#57719B"/>
<path d="M75.4754 50.2L67.5654 50.3499C67.4328 50.3499 67.3056 50.4026 67.2119 50.4964C67.1181 50.5902 67.0654 50.7173 67.0654 50.8499C67.0654 50.9826 67.1181 51.1097 67.2119 51.2035C67.3056 51.2973 67.4328 51.3499 67.5654 51.3499L75.4754 51.2C75.608 51.2 75.7352 51.1473 75.829 51.0535C75.9227 50.9597 75.9754 50.8326 75.9754 50.7C75.9754 50.5673 75.9227 50.4402 75.829 50.3464C75.7352 50.2526 75.608 50.2 75.4754 50.2Z" fill="#57719B"/>
<path d="M75.6854 44.7199C73.3554 45.1099 71.0254 45.5499 68.6854 46.0199C68.0554 46.1499 68.3154 47.1199 68.9454 47.0199C71.2554 46.5399 73.5854 46.1099 75.9454 45.7099C76.5754 45.5799 76.3154 44.6099 75.6854 44.7199Z" fill="#57719B"/>
<path d="M75.7754 39.3499L69.6454 42.5499C69.0654 42.8499 69.5654 43.7199 70.1354 43.4199C72.1887 42.3599 74.2321 41.2932 76.2654 40.2199C76.8354 39.9199 76.3454 39.0499 75.7754 39.3499Z" fill="#57719B"/>
<path d="M75.7155 35.5398L70.7155 36.9098C70.5829 36.9443 70.4694 37.03 70.4 37.1482C70.3306 37.2663 70.311 37.4072 70.3455 37.5398C70.38 37.6724 70.4657 37.7859 70.5839 37.8553C70.702 37.9247 70.8429 37.9443 70.9755 37.9098L75.9755 36.5398C76.0411 36.5227 76.1028 36.4929 76.1569 36.452C76.2111 36.4111 76.2566 36.3599 76.291 36.3014C76.3253 36.2429 76.3478 36.1783 76.3572 36.1111C76.3665 36.0439 76.3626 35.9755 76.3455 35.9098C76.3284 35.8442 76.2986 35.7825 76.2577 35.7284C76.2168 35.6742 76.1656 35.6287 76.1071 35.5943C76.0486 35.56 75.9839 35.5375 75.9167 35.5281C75.8495 35.5188 75.7811 35.5227 75.7155 35.5398Z" fill="#57719B"/>
<path d="M33.7655 35.5199C32.3006 35.4375 30.8436 35.2503 29.4055 34.9599C28.7855 34.8299 28.5255 35.7999 29.1555 35.9599C30.6794 36.2665 32.2234 36.4636 33.7755 36.5499C34.4155 36.5599 34.4055 35.5599 33.7655 35.5199Z" fill="#57719B"/>
<path d="M34.6955 38.8199C32.4974 39.311 30.356 40.0281 28.3055 40.9599C27.7255 41.2299 28.2255 42.0999 28.8055 41.8299C30.7778 40.9325 32.8392 40.2454 34.9555 39.7799C35.5855 39.6499 35.3255 38.6799 34.6955 38.8199Z" fill="#57719B"/>
<path d="M35.0555 44.6399C32.4899 44.7542 29.9205 44.5255 27.4155 43.9599C26.7955 43.8199 26.5355 44.7799 27.1655 44.9599C29.7558 45.5452 32.4123 45.784 35.0655 45.6699C35.6755 45.6099 35.6755 44.6099 35.0555 44.6399Z" fill="#57719B"/>
<path d="M35.1254 47.7599L27.6154 51.4499C27.0354 51.7299 27.5354 52.5999 28.1154 52.3199L35.6154 48.6299C36.1954 48.3499 35.6954 47.4799 35.1254 47.7599Z" fill="#57719B"/>
<path d="M35.7754 54.6799C33.1048 55.2756 30.3524 55.4142 27.6354 55.0899C26.9954 55.0199 27.0054 56.0199 27.6354 56.0899C30.4471 56.4244 33.2954 56.2722 36.0554 55.6399C36.6654 55.4999 36.4054 54.5399 35.7754 54.6799Z" fill="#57719B"/>
<path d="M36.0555 57.61C33.412 58.8122 30.6638 59.7696 27.8455 60.47C27.7798 60.4871 27.7182 60.5169 27.664 60.5578C27.6099 60.5987 27.5644 60.6498 27.53 60.7083C27.4957 60.7669 27.4732 60.8315 27.4638 60.8987C27.4544 60.9659 27.4584 61.0343 27.4755 61.1C27.4926 61.1656 27.5224 61.2273 27.5633 61.2814C27.6042 61.3356 27.6554 61.3811 27.7139 61.4155C27.7724 61.4498 27.8371 61.4723 27.9043 61.4817C27.9714 61.491 28.0398 61.4871 28.1055 61.47C31.0071 60.7276 33.8354 59.7235 36.5555 58.47C37.1755 58.22 36.6755 57.35 36.0555 57.61Z" fill="#57719B"/>
<path d="M36.5155 63.0198C33.9529 64.0221 31.2579 64.6453 28.5155 64.8698C27.8855 64.9198 27.8855 65.9198 28.5155 65.8698C31.3288 65.6379 34.0939 65.0013 36.7255 63.9798C37.3655 63.7498 37.1155 62.7798 36.5155 63.0198Z" fill="#57719B"/>
<path d="M38.4155 64.9198C35.8413 67.5066 32.916 69.7182 29.7255 71.4898C29.6101 71.5561 29.5258 71.6655 29.4911 71.794C29.4564 71.9224 29.4742 72.0594 29.5405 72.1748C29.6068 72.2902 29.7162 72.3745 29.8447 72.4092C29.9731 72.4438 30.1101 72.4261 30.2255 72.3598C33.4904 70.5454 36.4831 68.2798 39.1155 65.6298C39.5755 65.1398 38.8655 64.4598 38.4155 64.9198Z" fill="#57719B"/>
<path d="M39.4154 72.0698L31.4954 74.9098C30.8854 75.1298 31.1454 76.0998 31.7454 75.9098L39.6754 73.0598C40.2754 72.8198 40.0554 71.8498 39.4154 72.0698Z" fill="#57719B"/>
<path d="M41.0555 75.5C40.1555 76.7 38.5955 77.38 37.3255 78.14L33.4555 80.45C32.9055 80.78 33.3955 81.65 33.9455 81.32L38.8555 78.39C40.0278 77.8058 41.0716 76.9932 41.9255 76C42.3455 75.49 41.4755 74.99 41.0555 75.5Z" fill="#57719B"/>
<path d="M43.0554 81.04C40.2287 82.3267 37.3421 83.4733 34.3954 84.48C33.7854 84.69 34.0354 85.66 34.6454 85.48C37.6699 84.4509 40.6403 83.2694 43.5454 81.94C44.1254 81.64 43.6254 80.78 43.0554 81.04Z" fill="#57719B"/>
<path d="M45.9655 83.38C42.8455 85.75 38.7155 86.03 35.5555 88.38C35.0455 88.76 35.5555 89.63 36.0555 89.25C39.2755 86.88 43.4655 86.56 46.6655 84.12C47.1755 83.7 46.4655 82.99 45.9655 83.38Z" fill="#57719B"/>
</svg>
