<svg width="146" height="150" viewBox="0 0 146 150" fill="none" xmlns="http://www.w3.org/2000/svg">
<path d="M139.53 18.5C136.88 27.96 130.11 36.68 120.24 39.17C112.66 41.09 102.83 37.39 105.82 27.97C107.49 22.72 111.12 18.13 113.34 13.09C114.652 10.115 115.771 7.05866 116.69 3.94C116.99 2.94 117.45 1.65 117.81 0.31C117.81 0.21 117.81 0.1 117.75 0H139.75C141.71 5.87 141.15 12.74 139.53 18.5Z" fill="#FFE388"/>
<path d="M95.26 23.65C86.91 29.52 76.2 30 66.41 28.71C61.05 28 55.87 26.6 50.59 25.54C44.81 24.38 38.28 23.72 33.05 27C28.24 30 25.84 35.51 22.72 40C19.9736 44.0236 16.5009 47.4997 12.48 50.25C8.69919 52.843 4.46624 54.7051 0 55.74L0 0H105.88C108.62 8.66 102.07 18.85 95.26 23.65Z" fill="#FFE388"/>
<path d="M12.63 10.9001C11.2676 10.2689 10.0671 9.33522 9.12001 8.17008C8.31001 7.17008 6.89001 8.59008 7.70001 9.58008C8.76189 10.8815 10.1058 11.9244 11.63 12.6301C12.78 13.1701 13.79 11.4401 12.63 10.9001Z" fill="#FC6D48"/>
<path d="M20 7.17994C20 5.89994 18 5.89995 18 7.18995C18.0661 8.31199 17.965 9.43763 17.7 10.5299C17.6564 10.7776 17.7078 11.0327 17.8438 11.2442C17.9799 11.4557 18.1906 11.6082 18.4341 11.6713C18.6776 11.7344 18.9358 11.7034 19.1575 11.5845C19.3791 11.4657 19.5478 11.2676 19.63 11.0299C19.9429 9.77194 20.0676 8.47451 20 7.17994Z" fill="#FC6D48"/>
<path d="M18.18 20.3499L16.49 17.5199C15.82 16.4199 14.09 17.4099 14.75 18.5199L16.44 21.3499C16.5726 21.5807 16.7915 21.7493 17.0484 21.8187C17.3053 21.8881 17.5793 21.8525 17.81 21.7199C18.0408 21.5873 18.2094 21.3685 18.2788 21.1116C18.3482 20.8546 18.3126 20.5807 18.18 20.3499Z" fill="#FC6D48"/>
<path d="M8.73999 23.4799C8.57316 24.5701 8.13661 25.6013 7.46999 26.4799C7.28374 26.6673 7.1792 26.9207 7.1792 27.1849C7.1792 27.4491 7.28374 27.7025 7.46999 27.8899C7.65735 28.0762 7.91081 28.1807 8.17499 28.1807C8.43918 28.1807 8.69263 28.0762 8.87999 27.8899C9.80018 26.7669 10.4196 25.4282 10.68 23.9999C10.89 22.7299 8.99999 22.2099 8.73999 23.4799Z" fill="#FC6D48"/>
<path d="M16.21 35.4301L13.21 32.6501C12.27 31.7801 10.85 33.1801 11.79 34.0601L14.79 36.8301C15.73 37.7101 17.16 36.3101 16.21 35.4301Z" fill="#FC6D48"/>
<path d="M25 32.6499C23.849 32.5312 22.7209 32.2484 21.65 31.8099C21.4003 31.76 21.141 31.8073 20.925 31.9421C20.709 32.0768 20.5525 32.2889 20.4874 32.5351C20.4224 32.7812 20.4537 33.0429 20.5749 33.2668C20.6962 33.4907 20.8983 33.6599 21.14 33.7399C22.3798 34.227 23.6831 34.5334 25.01 34.6499C26.3 34.7699 26.29 32.7699 25 32.6499Z" fill="#FC6D48"/>
<path d="M31 40.2L29.93 37.5C29.8619 37.2444 29.6953 37.0261 29.4666 36.893C29.238 36.76 28.9659 36.7229 28.71 36.79C28.4565 36.8582 28.24 37.0233 28.1072 37.2496C27.9744 37.476 27.9358 37.7455 28 38L29.06 40.7C29.0936 40.8277 29.1522 40.9475 29.2324 41.0524C29.3125 41.1573 29.4127 41.2453 29.527 41.3113C29.6414 41.3773 29.7677 41.42 29.8986 41.437C30.0296 41.4539 30.1626 41.4448 30.29 41.41C30.5434 41.3419 30.7599 41.1768 30.8928 40.9504C31.0256 40.7241 31.0641 40.4545 31 40.2Z" fill="#FC6D48"/>
<path d="M23.36 49.15C22.5045 48.447 21.8463 47.5339 21.45 46.5C21.3798 46.2462 21.2123 46.0303 20.9839 45.8992C20.7554 45.7682 20.4846 45.7325 20.23 45.8C19.9787 45.8682 19.764 46.0317 19.6314 46.2558C19.4988 46.4799 19.4588 46.7469 19.52 47C20.0001 48.3675 20.8312 49.5848 21.93 50.53C22.91 51.38 24.34 50 23.36 49.15Z" fill="#FC6D48"/>
<path d="M12.71 43.08C12.55 43.8411 12.2067 44.5516 11.71 45.15C11.6163 45.243 11.5419 45.3536 11.4911 45.4754C11.4403 45.5973 11.4142 45.728 11.4142 45.86C11.4142 45.992 11.4403 46.1227 11.4911 46.2446C11.5419 46.3664 11.6163 46.477 11.71 46.57C11.8973 46.7563 12.1508 46.8608 12.415 46.8608C12.6792 46.8608 12.9326 46.7563 13.12 46.57C13.8478 45.7025 14.3586 44.6741 14.61 43.57C14.92 42.33 13 41.81 12.71 43.08Z" fill="#FC6D48"/>
<path d="M31.21 47.1899L27.62 46.1199C26.38 45.7499 25.88 47.6799 27.11 48.0499L30.71 49.1199C31.94 49.4899 32.45 47.5599 31.21 47.1899Z" fill="#FC6D48"/>
<path d="M15.87 50.4201C15.6048 50.4201 15.3504 50.5254 15.1629 50.713C14.9754 50.9005 14.87 51.1549 14.87 51.4201C14.8342 51.698 14.7294 51.9625 14.5652 52.1895C14.401 52.4166 14.1827 52.599 13.93 52.7201C12.79 53.3301 13.79 55.0601 14.93 54.4601C15.488 54.1676 15.9636 53.7396 16.3131 53.2154C16.6625 52.6912 16.8747 52.0876 16.93 51.4601C16.9359 51.3202 16.9123 51.1807 16.8608 51.0505C16.8094 50.9204 16.7312 50.8024 16.6312 50.7044C16.5313 50.6064 16.4119 50.5304 16.2808 50.4814C16.1497 50.4325 16.0097 50.4115 15.87 50.4201Z" fill="#FC6D48"/>
<path d="M6.24002 42.5299L5.48002 39.1199C5.20002 37.8599 3.27002 38.3799 3.55002 39.6399L4.31002 42.9999C4.59002 44.2999 6.52002 43.7799 6.24002 42.5299Z" fill="#FC6D48"/>
<path d="M26.42 22.69C26.3555 22.5746 26.2687 22.4731 26.1648 22.3914C26.0608 22.3097 25.9417 22.2495 25.8143 22.2141C25.6869 22.1788 25.5537 22.1691 25.4225 22.1855C25.2913 22.202 25.1647 22.2443 25.05 22.31C24.7764 22.5238 24.4634 22.6816 24.1288 22.7742C23.7941 22.8669 23.4445 22.8926 23.1 22.85C22.8441 22.7829 22.572 22.8199 22.3433 22.953C22.1147 23.0861 21.948 23.3043 21.88 23.56C21.8469 23.6874 21.8393 23.82 21.8576 23.9504C21.8759 24.0807 21.9198 24.2061 21.9867 24.3195C22.0536 24.4328 22.1422 24.5318 22.2474 24.6109C22.3527 24.6899 22.4725 24.7474 22.6 24.78C23.7851 24.9898 25.0054 24.7278 26 24.05C26.1175 23.9889 26.2217 23.9051 26.3065 23.8035C26.3913 23.7018 26.4552 23.5843 26.4942 23.4578C26.5333 23.3313 26.5469 23.1982 26.5341 23.0664C26.5214 22.9346 26.4826 22.8067 26.42 22.69Z" fill="#FC6D48"/>
<path d="M31.83 11.8999C30.91 10.7865 29.9433 9.71655 28.93 8.68988C28.7399 8.5246 28.4944 8.43718 28.2426 8.44507C27.9908 8.45297 27.7512 8.55561 27.5719 8.73248C27.3925 8.90934 27.2864 9.1474 27.275 9.39906C27.2635 9.65072 27.3474 9.89743 27.51 10.0899C28.51 11.0899 29.51 12.1999 30.41 13.2999C31.31 14.3999 32.65 12.8799 31.83 11.8999Z" fill="#FC6D48"/>
<path d="M6.14001 15.8401L3.86001 19.1201C3.13001 20.1701 4.86001 21.1701 5.60001 20.1201C6.34001 19.0701 7.11001 17.9301 7.87001 16.8401C8.63001 15.7501 6.87001 14.7901 6.14001 15.8401Z" fill="#FC6D48"/>
<path d="M16.85 2.26001C15.5501 2.63068 14.1849 2.7126 12.85 2.50001C11.59 2.29001 11.07 4.23001 12.35 4.43001C14.0139 4.7211 15.7216 4.63913 17.35 4.19001C17.5877 4.10785 17.7857 3.93913 17.9046 3.71749C18.0234 3.49585 18.0544 3.23755 17.9914 2.99409C17.9283 2.75062 17.7758 2.53986 17.5643 2.40381C17.3527 2.26777 17.0977 2.21642 16.85 2.26001Z" fill="#FC6D48"/>
<path d="M36.22 6.22002C35.94 5.22002 35.66 4.22002 35.37 3.15002C35.294 2.90213 35.1247 2.69344 34.8978 2.56798C34.6709 2.44252 34.4041 2.4101 34.1538 2.47755C33.9034 2.545 33.6891 2.70706 33.5559 2.92953C33.4227 3.152 33.3812 3.4175 33.44 3.67002L34.29 6.74002C34.366 6.98791 34.5353 7.1966 34.7622 7.32206C34.9891 7.44752 35.2559 7.47994 35.5063 7.41249C35.7566 7.34504 35.971 7.18298 36.1041 6.96051C36.2373 6.73804 36.2789 6.47254 36.22 6.22002Z" fill="#FC6D48"/>
<path d="M34.8 18.8299L30.65 17.5899C29.42 17.2299 28.92 19.1599 30.15 19.5299L34.29 20.7699C35.52 21.1399 36 19.1999 34.8 18.8299Z" fill="#FC6D48"/>
<path d="M44.76 17.9999L43.09 14.3499C42.55 13.1699 40.82 14.1799 41.35 15.3499L43 18.9999C43.56 20.1999 45.29 19.1899 44.76 17.9999Z" fill="#FC6D48"/>
<path d="M38.64 27.08C38.46 27.98 38.27 28.88 38.09 29.78C37.84 31.03 39.77 31.55 40.03 30.28L40.57 27.59C40.83 26.33 38.89 25.82 38.64 27.08Z" fill="#FC6D48"/>
<path d="M33.44 29.3601L31.67 26.2801C31.5374 26.0493 31.3186 25.8807 31.0616 25.8113C30.8047 25.7419 30.5308 25.7774 30.3 25.9101C30.0693 26.0427 29.9007 26.2615 29.8313 26.5184C29.7619 26.7754 29.7974 27.0493 29.93 27.2801L31.7 30.3601C31.8326 30.5908 32.0515 30.7594 32.3084 30.8288C32.5653 30.8982 32.8393 30.8627 33.07 30.7301C33.3008 30.5974 33.4694 30.3786 33.5388 30.1217C33.6081 29.8648 33.5726 29.5908 33.44 29.3601Z" fill="#FC6D48"/>
<path d="M49 31.3601C48.0463 31.6691 47.0154 31.6409 46.08 31.2801C44.87 30.8501 44.37 32.7801 45.58 33.2201C46.8496 33.6779 48.235 33.7025 49.52 33.2901C50.76 32.9001 50.25 31.0001 49 31.3601Z" fill="#FC6D48"/>
<path d="M42.25 40.9399C41.9364 39.56 41.4244 38.2329 40.73 36.9999C40.5917 36.7822 40.3745 36.6265 40.124 36.5651C39.8735 36.5037 39.609 36.5415 39.3857 36.6706C39.1624 36.7997 38.9976 37.01 38.9257 37.2578C38.8538 37.5055 38.8805 37.7714 39 37.9999C39.6047 39.0739 40.0526 40.229 40.33 41.4299C40.61 42.7099 42.54 42.1899 42.25 40.9399Z" fill="#FC6D48"/>
<path d="M36.21 48.6401C35.99 49.8401 35.76 51.0401 35.54 52.2401C35.32 53.4401 37.24 54.0201 37.47 52.7501C37.7 51.4801 37.92 50.3501 38.15 49.1401C38.38 47.9301 36.45 47.3701 36.21 48.6401Z" fill="#FC6D48"/>
<path d="M51.34 42.74C50.1918 42.4189 49.0741 41.9973 48 41.48C46.85 40.92 45.84 42.65 47 43.21C48.2488 43.8102 49.5469 44.302 50.88 44.68C51.1286 44.7186 51.3826 44.662 51.5914 44.5217C51.8002 44.3813 51.9483 44.1673 52.0064 43.9225C52.0644 43.6777 52.0281 43.4201 51.9046 43.2009C51.781 42.9817 51.5794 42.8171 51.34 42.74Z" fill="#FC6D48"/>
<path d="M60.46 30.7799C60.367 30.6862 60.2564 30.6118 60.1346 30.561C60.0127 30.5103 59.882 30.4841 59.75 30.4841C59.618 30.4841 59.4873 30.5103 59.3654 30.561C59.2436 30.6118 59.133 30.6862 59.04 30.7799C58.2803 31.7396 57.6108 32.7673 57.04 33.8499C56.44 34.9899 58.17 35.9899 58.77 34.8499C59.2398 33.9179 59.7991 33.0337 60.44 32.2099C60.5366 32.1181 60.6138 32.008 60.6672 31.8859C60.7206 31.7639 60.749 31.6324 60.7509 31.4991C60.7528 31.3659 60.728 31.2337 60.678 31.1102C60.6281 30.9867 60.5539 30.8744 60.46 30.7799Z" fill="#FC6D48"/>
<path d="M54.75 23.84C54.49 22.57 52.55 23.1 52.82 24.35C53.05 25.4567 53.2203 26.575 53.33 27.7C53.45 28.97 55.45 28.97 55.33 27.7C55.2128 26.403 55.0191 25.1141 54.75 23.84Z" fill="#FC6D48"/>
<path d="M47.63 22.84C47.08 24 46.54 25.17 46 26.33C45.46 27.49 47.18 28.5 47.73 27.33C48.28 26.16 48.82 25 49.37 23.84C49.92 22.68 48.18 21.67 47.63 22.84Z" fill="#FC6D48"/>
<path d="M58.42 17.1101C57.3177 17.5564 56.1148 17.6947 54.94 17.5101C53.69 17.3001 53.17 19.2401 54.44 19.4501C55.9496 19.721 57.5042 19.5793 58.94 19.0401C60.13 18.5801 59.62 16.6501 58.42 17.1101Z" fill="#FC6D48"/>
<path d="M52.05 8.56008C51.67 7.33008 49.74 7.84008 50.12 9.07008C50.4573 10.1551 50.6325 11.2839 50.64 12.4201C50.64 12.6853 50.7453 12.9397 50.9329 13.1272C51.1204 13.3147 51.3748 13.4201 51.64 13.4201C51.9052 13.4201 52.1595 13.3147 52.3471 13.1272C52.5346 12.9397 52.64 12.6853 52.64 12.4201C52.6355 11.1113 52.4366 9.81045 52.05 8.56008Z" fill="#FC6D48"/>
<path d="M43.26 3.79002L43.05 6.66002C42.95 7.94002 44.95 7.93002 45.05 6.66002L45.26 3.79002C45.36 2.49002 43.36 2.51002 43.26 3.79002Z" fill="#FC6D48"/>
<path d="M62.74 5.78C61.5231 5.13723 60.3938 4.3407 59.38 3.41C58.44 2.53 57.01 3.93 57.96 4.81C59.0981 5.86949 60.3687 6.77704 61.74 7.51C62.88 8.11 63.88 6.38 62.74 5.78Z" fill="#FC6D48"/>
<path d="M62.92 13.7101C62.2076 12.3538 61.0838 11.258 59.71 10.5801C58.56 10.0201 57.55 11.7501 58.71 12.3201C59.7714 12.822 60.639 13.658 61.18 14.7001C61.78 15.8501 63.52 14.8501 62.92 13.7101Z" fill="#FC6D48"/>
<path d="M68.8 12.33C68.377 13.5767 67.611 14.6789 66.59 15.51C65.59 16.34 67.02 17.75 68 16.93C69.2725 15.845 70.2207 14.4296 70.74 12.84C71.14 11.62 69.2 11.11 68.8 12.33Z" fill="#FC6D48"/>
<path d="M71.22 5.27998C69.7202 5.35003 68.2175 5.33 66.72 5.21997C65.43 5.12997 65.45 7.13997 66.72 7.21997C68.2175 7.32995 69.7202 7.34999 71.22 7.27998C72.51 7.22998 72.51 5.22998 71.22 5.27998Z" fill="#FC6D48"/>
<path d="M77.59 10.0699C77.45 8.79993 75.45 8.79993 75.59 10.0699C75.73 11.3399 75.86 12.4699 75.99 13.6599C76.12 14.8499 78.13 14.9299 77.99 13.6599C77.85 12.3899 77.72 11.2699 77.59 10.0699Z" fill="#FC6D48"/>
<path d="M76.09 19.46C75.9027 19.2737 75.6492 19.1692 75.385 19.1692C75.1209 19.1692 74.8674 19.2737 74.68 19.46C73.8505 20.4617 72.9551 21.4071 72 22.29C71 23.16 72.45 24.58 73.4 23.72C74.3754 22.8348 75.2876 21.8825 76.13 20.87C76.3111 20.6774 76.4085 20.4209 76.401 20.1567C76.3935 19.8925 76.2817 19.642 76.09 19.46Z" fill="#FC6D48"/>
<path d="M67.24 24.86L65.64 21.79C65.04 20.65 63.31 21.64 63.9 22.79C64.49 23.94 64.97 24.79 65.5 25.86C66.03 26.93 67.83 26 67.24 24.86Z" fill="#FC6D48"/>
<path d="M65.63 30.7601L63.77 34.2401C63.17 35.3701 64.9 36.3801 65.5 35.2401L67.36 31.7601C68 30.6301 66.24 29.6201 65.63 30.7601Z" fill="#FC6D48"/>
<path d="M71.71 40.5099L70.12 37.4399C69.52 36.2999 67.78 37.2899 68.38 38.4399L70 41.4999C70.57 42.6499 72.3 41.6499 71.71 40.5099Z" fill="#FC6D48"/>
<path d="M65.91 45.4101L65 48.2701C64.61 49.4901 66.54 50.0001 66.94 48.7701L67.87 45.9101C68.24 44.6901 66.31 44.1801 65.91 45.4101Z" fill="#FC6D48"/>
<path d="M81 34.23C80.9319 33.9744 80.7653 33.7561 80.5366 33.623C80.308 33.4899 80.0359 33.4529 79.78 33.52C78.8527 33.6533 77.9168 33.7168 76.98 33.71C76.7148 33.71 76.4604 33.8154 76.2729 34.0029C76.0853 34.1904 75.98 34.4448 75.98 34.71C75.98 34.9752 76.0853 35.2296 76.2729 35.4171C76.4604 35.6047 76.7148 35.71 76.98 35.71C78.0885 35.7133 79.1955 35.6264 80.29 35.45C80.5456 35.3819 80.7639 35.2153 80.897 34.9867C81.0301 34.758 81.0671 34.4859 81 34.23Z" fill="#FC6D48"/>
<path d="M86.29 26.1199L84.57 23.5499C83.86 22.4799 82.12 23.4699 82.83 24.5499L84.55 27.1199C85.26 28.1799 87 27.1899 86.29 26.1199Z" fill="#FC6D48"/>
<path d="M75.77 26.67L73.28 30.28C72.55 31.34 74.28 32.28 75.01 31.28C75.84 30.08 76.67 28.87 77.51 27.67C78.35 26.47 76.5 25.61 75.77 26.67Z" fill="#FC6D48"/>
<path d="M90 19.4301L86.41 18.3201C85.18 17.9401 84.68 19.8801 85.91 20.2601L89.49 21.3701C90.69 21.7501 91.2 19.8101 90 19.4301Z" fill="#FC6D48"/>
<path d="M89 9.20998C88.8864 9.14344 88.7609 9.09998 88.6305 9.08206C88.5001 9.06415 88.3675 9.07214 88.2402 9.10559C88.113 9.13903 87.9935 9.19727 87.8888 9.27696C87.7841 9.35665 87.6961 9.45622 87.63 9.56998C87.1959 10.6143 86.5643 11.565 85.77 12.37C84.87 13.28 86.27 14.71 87.18 13.79C88.1054 12.8656 88.8454 11.7726 89.36 10.57C89.4912 10.3416 89.527 10.0706 89.4596 9.81597C89.3922 9.56132 89.227 9.34356 89 9.20998Z" fill="#FC6D48"/>
<path d="M85 5.68012C84.6637 4.64635 84.193 3.66125 83.6 2.75012C82.91 1.66012 81.17 2.65012 81.86 3.75012C82.3461 4.50955 82.7294 5.33002 83 6.19012C83.43 7.42012 85.36 6.90012 85 5.68012Z" fill="#FC6D48"/>
<path d="M81.16 15.38C80.8732 16.5307 80.6957 17.706 80.63 18.89C80.57 20.17 82.57 20.16 82.63 18.89C82.6864 17.8769 82.8438 16.8719 83.1 15.89C83.1335 15.7627 83.1415 15.6299 83.1237 15.4994C83.1059 15.3689 83.0626 15.2432 82.9962 15.1295C82.8621 14.8997 82.6423 14.7327 82.385 14.665C82.1277 14.5974 81.8541 14.6347 81.6244 14.7688C81.3947 14.9029 81.2276 15.1228 81.16 15.38Z" fill="#FC6D48"/>
<path d="M96.18 3.26005C95.0872 2.66406 93.8539 2.37387 92.61 2.42005C91.33 2.48005 91.33 4.48005 92.61 4.42005C93.5038 4.37201 94.3935 4.57279 95.18 5.00005C96.31 5.60005 97.32 3.87005 96.18 3.26005Z" fill="#FC6D48"/>
<path d="M102.94 6.74991C102.181 6.50335 101.471 6.12785 100.84 5.63991C100.653 5.45366 100.399 5.34912 100.135 5.34912C99.8708 5.34912 99.6174 5.45366 99.43 5.63991C99.3363 5.73288 99.2619 5.84348 99.2111 5.96534C99.1604 6.0872 99.1342 6.2179 99.1342 6.34991C99.1342 6.48193 99.1604 6.61263 99.2111 6.73449C99.2619 6.85635 99.3363 6.96695 99.43 7.05991C100.327 7.77745 101.342 8.3325 102.43 8.69991C102.557 8.73481 102.689 8.74439 102.82 8.72809C102.95 8.71179 103.076 8.66993 103.19 8.60492C103.304 8.5399 103.405 8.453 103.485 8.34919C103.566 8.24538 103.625 8.12669 103.66 7.99991C103.698 7.87055 103.709 7.73491 103.693 7.60115C103.677 7.46739 103.634 7.33826 103.566 7.22151C103.499 7.10477 103.409 7.00281 103.301 6.92177C103.194 6.84073 103.071 6.78228 102.94 6.74991Z" fill="#FC6D48"/>
<path d="M95.56 10.89L94.83 14.67C94.59 15.92 96.52 16.44 96.77 15.17L97.5 11.4C97.74 10.14 95.81 9.61998 95.56 10.89Z" fill="#FC6D48"/>
<path d="M107.47 2.31996C106.321 2.65861 105.136 2.86001 103.94 2.91996C102.65 2.97996 102.66 4.97996 103.94 4.91996C105.295 4.85405 106.638 4.62917 107.94 4.24996C108.17 4.16466 108.36 3.99796 108.475 3.78153C108.59 3.5651 108.621 3.31399 108.564 3.07589C108.506 2.83779 108.362 2.62927 108.161 2.48992C107.959 2.35057 107.713 2.29009 107.47 2.31996Z" fill="#FC6D48"/>
<path d="M105.26 15.0901C104.3 14.8459 103.366 14.5111 102.47 14.0901C101.32 13.5301 100.31 15.2601 101.47 15.8201C102.525 16.3213 103.627 16.7166 104.76 17.0001C104.996 17.0228 105.233 16.9606 105.428 16.8246C105.623 16.6886 105.763 16.4877 105.823 16.2579C105.883 16.0281 105.86 15.7844 105.756 15.5704C105.653 15.3564 105.477 15.1862 105.26 15.0901Z" fill="#FC6D48"/>
<path d="M100 22.6601C98.88 22.0077 97.9333 21.0953 97.24 20.0001C96.56 18.9101 94.82 19.9001 95.5 21.0001C96.3803 22.3926 97.5802 23.5548 99 24.3901C99.2286 24.5097 99.4945 24.5363 99.7422 24.4644C99.9899 24.3926 100.2 24.2278 100.329 24.0045C100.458 23.7812 100.496 23.5166 100.435 23.2661C100.373 23.0156 100.218 22.7985 100 22.6601Z" fill="#FC6D48"/>
<path d="M95.2 28.7201C93.9268 28.4716 92.7205 27.9571 91.66 27.2101C90.66 26.47 89.66 28.2101 90.66 28.9401C91.8592 29.7833 93.2218 30.3658 94.66 30.6501C96 30.9001 96.47 29.0001 95.2 28.7201Z" fill="#FC6D48"/>
<path d="M98.46 28.87C98.27 30.13 98.09 31.39 97.9 32.65C97.71 33.91 99.65 34.43 99.84 33.15C100.03 31.87 100.21 30.64 100.39 29.38C100.57 28.12 98.65 27.6 98.46 28.87Z" fill="#FC6D48"/>
<path d="M86.85 33.2699L84.76 36.5499C84.06 37.6399 85.76 38.6299 86.49 37.5499L88.58 34.2699C89.28 33.1899 87.54 32.1899 86.85 33.2699Z" fill="#FC6D48"/>
<path d="M4.69001 3.00011C4.32001 4.32011 3.94001 5.63011 3.57001 7.00011C3.52642 7.24781 3.57776 7.50284 3.71381 7.71437C3.84986 7.9259 4.06062 8.0784 4.30409 8.14147C4.54755 8.20454 4.80585 8.17356 5.02749 8.0547C5.24913 7.93583 5.41785 7.73782 5.50001 7.50011C5.88001 6.19011 6.25001 4.87011 6.63001 3.56011C6.70427 3.30285 6.67329 3.02663 6.54389 2.79221C6.41449 2.55779 6.19727 2.38437 5.94001 2.31011C5.81263 2.27334 5.67925 2.26202 5.54749 2.2768C5.41573 2.29157 5.28818 2.33216 5.1721 2.39623C4.93768 2.52563 4.76427 2.74285 4.69001 3.00011Z" fill="#FC6D48"/>
<path d="M6.79001 33.1501C5.82084 31.9641 4.70529 30.9056 3.47001 30.0001C3.35619 29.9277 3.22891 29.8791 3.09583 29.8573C2.96275 29.8354 2.82662 29.8406 2.69562 29.8727C2.56463 29.9048 2.44147 29.963 2.33357 30.044C2.22567 30.1249 2.13526 30.2268 2.06776 30.3435C2.00027 30.4603 1.95709 30.5895 1.94083 30.7234C1.92457 30.8573 1.93555 30.9931 1.97313 31.1226C2.01071 31.2521 2.0741 31.3727 2.15949 31.4771C2.24488 31.5815 2.3505 31.6676 2.47001 31.7301C3.55184 32.5553 4.52608 33.5128 5.37001 34.5801C5.55737 34.7663 5.81082 34.8709 6.07501 34.8709C6.33919 34.8709 6.59265 34.7663 6.78001 34.5801C6.87591 34.4876 6.95237 34.3769 7.0049 34.2545C7.05742 34.1321 7.08496 34.0004 7.08589 33.8672C7.08683 33.734 7.06113 33.6019 7.01032 33.4788C6.95951 33.3556 6.88461 33.2439 6.79001 33.1501Z" fill="#FC6D48"/>
<path d="M4.79003 47.93L3.59003 51.93C3.21003 53.16 5.15003 53.66 5.52003 52.43L6.73003 48.43C7.10003 47.2 5.17003 46.69 4.79003 47.93Z" fill="#FC6D48"/>
<path d="M24.94 14.85C23.8981 14.2462 22.954 13.4875 22.14 12.6C21.28 11.65 19.85 13.06 20.72 14.01C21.6539 15.0281 22.7402 15.8951 23.94 16.58C24.1686 16.6996 24.4345 16.7262 24.6822 16.6543C24.9299 16.5825 25.1402 16.4177 25.2693 16.1944C25.3984 15.9711 25.4362 15.7065 25.3748 15.456C25.3135 15.2055 25.1577 14.9884 24.94 14.85Z" fill="#FC6D48"/>
<path d="M27.92 2.37991L26.3 5.06991C26.1805 5.29845 26.1538 5.56435 26.2257 5.81206C26.2976 6.05977 26.4624 6.27013 26.6857 6.3992C26.909 6.52828 27.1735 6.56609 27.424 6.50472C27.6745 6.44336 27.8916 6.28758 28.03 6.06991L29.66 3.37991C29.7926 3.14917 29.8281 2.87521 29.7587 2.61828C29.6894 2.36136 29.5208 2.14252 29.29 2.00991C29.0593 1.8773 28.7853 1.84179 28.5284 1.91118C28.2715 1.98056 28.0526 2.14917 27.92 2.37991Z" fill="#FC6D48"/>
<path d="M37.91 13.7301C37.1258 13.2999 36.4674 12.6726 36 11.9101C35.32 10.8101 33.58 11.8001 34.26 12.9101C34.9183 13.9823 35.8411 14.8673 36.94 15.4801C37.172 15.6087 37.4457 15.6399 37.7007 15.5667C37.9558 15.4936 38.1713 15.3221 38.3 15.0901C38.4286 14.858 38.4598 14.5843 38.3866 14.3293C38.3135 14.0742 38.142 13.8587 37.91 13.7301Z" fill="#FC6D48"/>
<path d="M7.69999 56.2201C7.5726 56.187 7.43994 56.1794 7.30961 56.1977C7.17929 56.216 7.05386 56.2599 6.94051 56.3268C6.82717 56.3937 6.72815 56.4823 6.64912 56.5875C6.5701 56.6928 6.51262 56.8126 6.47999 56.9401C6.06666 57.9534 5.60666 58.9534 5.09999 59.9401C4.49999 61.0801 6.22999 62.0801 6.82999 60.9401C7.42999 59.8001 7.93999 58.6601 8.41999 57.4701C8.45762 57.3407 8.46871 57.2051 8.45262 57.0713C8.43652 56.9375 8.39356 56.8084 8.32631 56.6917C8.25907 56.5749 8.16892 56.473 8.0613 56.3919C7.95367 56.3109 7.83077 56.2524 7.69999 56.2201Z" fill="#FC6D48"/>
<path d="M30.9 56.16C29.9178 55.1051 28.8796 54.1037 27.79 53.16C26.79 52.32 25.39 53.72 26.36 54.57C27.4521 55.511 28.4904 56.5125 29.47 57.57C30.35 58.51 31.77 57.1 30.9 56.16Z" fill="#FC6D48"/>
<path d="M123.3 93.4801V93.3701C123.167 93.0518 122.914 92.7993 122.595 92.668C122.276 92.5367 121.918 92.5375 121.6 92.6701C121.282 92.8027 121.029 93.0563 120.898 93.3751C120.767 93.6939 120.767 94.0518 120.9 94.3701V94.4801C121.033 94.7983 121.286 95.0509 121.605 95.1822C121.924 95.3134 122.282 95.3127 122.6 95.1801C122.918 95.0475 123.171 94.7939 123.302 94.475C123.433 94.1562 123.433 93.7983 123.3 93.4801Z" fill="#FC6D48"/>
<path d="M113 94.1899C112.867 93.8716 112.614 93.6191 112.295 93.4878C111.976 93.3565 111.618 93.3573 111.3 93.4899C110.982 93.6225 110.729 93.8761 110.598 94.1949C110.467 94.5137 110.467 94.8716 110.6 95.1899C110.733 95.5082 110.986 95.7607 111.305 95.892C111.624 96.0233 111.982 96.0225 112.3 95.8899C112.618 95.7573 112.871 95.5037 113.002 95.1849C113.133 94.8661 113.133 94.5082 113 94.1899Z" fill="#FC6D48"/>
<path d="M104.45 100.08L104.3 100.01C103.996 99.9206 103.67 99.946 103.384 100.081C103.098 100.217 102.871 100.453 102.748 100.744C102.624 101.036 102.612 101.363 102.714 101.662C102.816 101.962 103.024 102.214 103.3 102.37L103.45 102.44C103.754 102.529 104.08 102.504 104.366 102.369C104.652 102.233 104.879 101.997 105.002 101.706C105.126 101.414 105.138 101.088 105.036 100.788C104.934 100.488 104.726 100.236 104.45 100.08Z" fill="#FC6D48"/>
<path d="M99.82 112.81L100.17 112.42C101.28 111.18 99.26 109.57 98.17 110.8L97.82 111.19C96.7 112.43 98.72 114 99.82 112.81Z" fill="#FC6D48"/>
<path d="M99.63 121.39L99.7 121.24C99.7894 120.936 99.764 120.61 99.6287 120.324C99.4933 120.038 99.2573 119.811 98.9658 119.688C98.6743 119.564 98.3475 119.552 98.0477 119.654C97.7479 119.756 97.496 119.965 97.34 120.24L97.27 120.39C97.1806 120.694 97.206 121.02 97.3413 121.306C97.4767 121.592 97.7127 121.819 98.0042 121.942C98.2957 122.066 98.6225 122.078 98.9223 121.976C99.2221 121.874 99.474 121.666 99.63 121.39Z" fill="#FC6D48"/>
<path d="M103.05 131C103.139 130.802 103.185 130.587 103.185 130.37C103.185 130.153 103.139 129.938 103.05 129.74C102.57 128.33 100.61 128.97 100.6 130.24C100.499 130.565 100.532 130.917 100.69 131.218C100.849 131.519 101.12 131.744 101.445 131.845C101.77 131.946 102.122 131.913 102.423 131.755C102.724 131.596 102.949 131.325 103.05 131Z" fill="#FC6D48"/>
<path d="M109.73 136.47C109.668 136.297 109.565 136.14 109.432 136.014C109.298 135.887 109.136 135.793 108.96 135.74C108.727 135.632 108.468 135.595 108.214 135.635C107.961 135.674 107.725 135.787 107.535 135.96C107.346 136.134 107.212 136.359 107.151 136.608C107.089 136.857 107.103 137.119 107.19 137.36C107.251 137.534 107.353 137.691 107.487 137.818C107.621 137.945 107.783 138.038 107.96 138.09C108.193 138.198 108.452 138.235 108.706 138.195C108.959 138.156 109.195 138.043 109.385 137.87C109.574 137.696 109.708 137.471 109.769 137.222C109.831 136.973 109.817 136.711 109.73 136.47Z" fill="#FC6D48"/>
<path d="M117.86 138.49L117.64 138.57C117.322 138.703 117.069 138.956 116.938 139.275C116.807 139.594 116.807 139.952 116.94 140.27C117.073 140.588 117.326 140.841 117.645 140.972C117.964 141.103 118.322 141.103 118.64 140.97L118.86 140.88C119.177 140.747 119.428 140.494 119.559 140.176C119.689 139.859 119.688 139.502 119.555 139.185C119.422 138.868 119.169 138.617 118.851 138.486C118.534 138.356 118.177 138.357 117.86 138.49Z" fill="#FC6D48"/>
<path d="M129.49 136.39H129.39C129.072 136.523 128.819 136.776 128.688 137.095C128.557 137.414 128.557 137.772 128.69 138.09C128.823 138.408 129.076 138.661 129.395 138.792C129.714 138.923 130.072 138.923 130.39 138.79L130.5 138.74C130.769 138.58 130.97 138.328 131.067 138.03C131.164 137.732 131.149 137.41 131.025 137.122C130.902 136.835 130.678 136.602 130.395 136.467C130.113 136.332 129.791 136.305 129.49 136.39Z" fill="#FC6D48"/>
<path d="M138.09 132L138.16 131.85C138.299 131.537 138.308 131.182 138.186 130.862C138.063 130.542 137.818 130.284 137.505 130.145C137.192 130.006 136.837 129.997 136.517 130.119C136.197 130.242 135.939 130.487 135.8 130.8L135.73 130.95C135.591 131.263 135.582 131.618 135.704 131.938C135.827 132.258 136.072 132.516 136.385 132.655C136.698 132.794 137.053 132.803 137.373 132.681C137.693 132.558 137.951 132.313 138.09 132Z" fill="#FC6D48"/>
<path d="M143.45 122.25V121.99C143.59 120.35 141.04 119.99 140.89 121.61V121.87C140.75 123.52 143.3 123.91 143.45 122.25Z" fill="#FC6D48"/>
<path d="M144.91 112.24L144.83 112.03C144.697 111.712 144.444 111.459 144.125 111.328C143.806 111.197 143.448 111.197 143.13 111.33C142.812 111.463 142.559 111.716 142.428 112.035C142.297 112.354 142.297 112.712 142.43 113.03L142.52 113.24C142.653 113.557 142.906 113.808 143.224 113.939C143.541 114.069 143.898 114.068 144.215 113.935C144.532 113.802 144.783 113.549 144.914 113.231C145.044 112.914 145.043 112.557 144.91 112.24Z" fill="#FC6D48"/>
<path d="M143.16 102.5L143.01 102.43C142.706 102.341 142.38 102.366 142.094 102.501C141.808 102.637 141.581 102.873 141.458 103.164C141.334 103.456 141.322 103.782 141.424 104.082C141.526 104.382 141.734 104.634 142.01 104.79L142.16 104.86C142.464 104.949 142.79 104.924 143.076 104.789C143.362 104.653 143.589 104.417 143.712 104.126C143.836 103.834 143.848 103.507 143.746 103.208C143.644 102.908 143.436 102.656 143.16 102.5Z" fill="#FC6D48"/>
<path d="M137.84 96.84C137.774 96.6825 137.678 96.5393 137.557 96.4189C137.436 96.2984 137.293 96.203 137.135 96.138C136.977 96.073 136.808 96.0397 136.637 96.04C136.467 96.0404 136.298 96.0744 136.14 96.14C135.982 96.2057 135.839 96.3018 135.719 96.4227C135.598 96.5437 135.503 96.6872 135.438 96.8451C135.373 97.0029 135.34 97.172 135.34 97.3428C135.34 97.5135 135.374 97.6825 135.44 97.84C135.573 98.1583 135.826 98.4108 136.145 98.5421C136.464 98.6734 136.822 98.6727 137.14 98.54C137.458 98.4074 137.711 98.1538 137.842 97.835C137.973 97.5162 137.973 97.1583 137.84 96.84Z" fill="#FC6D48"/>
<path d="M131.11 94.6401C130.977 94.3232 130.724 94.0719 130.406 93.9416C130.089 93.8112 129.732 93.8125 129.415 93.9451C129.098 94.0777 128.847 94.3308 128.716 94.6487C128.586 94.9665 128.587 95.3232 128.72 95.6401C128.786 95.797 128.882 95.9395 129.002 96.0594C129.123 96.1792 129.266 96.2741 129.424 96.3387C129.581 96.4032 129.75 96.4361 129.92 96.4355C130.09 96.4349 130.258 96.4008 130.415 96.3351C130.572 96.2695 130.714 96.1735 130.834 96.0528C130.954 95.9321 131.049 95.7889 131.114 95.6316C131.178 95.4742 131.211 95.3056 131.21 95.1355C131.21 94.9654 131.176 94.797 131.11 94.6401Z" fill="#FC6D48"/>
<path d="M119.31 98.58L119.16 98.51C118.856 98.4206 118.53 98.446 118.244 98.5814C117.958 98.7168 117.731 98.9527 117.608 99.2442C117.484 99.5358 117.472 99.8625 117.574 100.162C117.676 100.462 117.884 100.714 118.16 100.87L118.31 100.94C118.614 101.029 118.94 101.004 119.226 100.869C119.512 100.733 119.739 100.497 119.862 100.206C119.986 99.9143 119.998 99.5876 119.896 99.2878C119.794 98.9879 119.585 98.7361 119.31 98.58Z" fill="#FC6D48"/>
<path d="M109.73 105L110.1 104.36C110.235 104.047 110.242 103.693 110.118 103.375C109.995 103.057 109.751 102.8 109.44 102.66C109.127 102.529 108.777 102.524 108.46 102.645C108.144 102.766 107.886 103.004 107.74 103.31L107.37 103.96C107.235 104.273 107.228 104.627 107.352 104.945C107.475 105.263 107.719 105.52 108.03 105.66C108.344 105.792 108.696 105.798 109.014 105.674C109.331 105.551 109.588 105.309 109.73 105Z" fill="#FC6D48"/>
<path d="M105.88 114.88L106.1 113.81C106.43 112.18 103.88 111.81 103.55 113.43L103.32 114.5C103 116.13 105.54 116.5 105.88 114.88Z" fill="#FC6D48"/>
<path d="M107.77 125.9L107.83 125.75C107.919 125.446 107.894 125.12 107.759 124.834C107.623 124.548 107.387 124.321 107.096 124.198C106.804 124.074 106.478 124.062 106.178 124.164C105.878 124.266 105.626 124.475 105.47 124.75L105.41 124.9C105.321 125.204 105.346 125.53 105.481 125.816C105.617 126.102 105.853 126.329 106.144 126.452C106.436 126.576 106.762 126.588 107.062 126.486C107.362 126.384 107.614 126.176 107.77 125.9Z" fill="#FC6D48"/>
<path d="M114.6 131.43C114.467 131.113 114.214 130.862 113.896 130.731C113.579 130.601 113.222 130.602 112.905 130.735C112.588 130.868 112.337 131.121 112.206 131.438C112.076 131.756 112.077 132.113 112.21 132.43C112.343 132.747 112.596 132.998 112.914 133.128C113.231 133.259 113.588 133.258 113.905 133.125C114.222 132.992 114.473 132.739 114.604 132.421C114.734 132.103 114.733 131.747 114.6 131.43Z" fill="#FC6D48"/>
<path d="M123.06 132.08H122.95C122.793 132.146 122.651 132.241 122.531 132.362C122.411 132.483 122.316 132.626 122.251 132.783C122.187 132.941 122.154 133.109 122.155 133.28C122.155 133.45 122.189 133.618 122.255 133.775C122.321 133.932 122.417 134.074 122.537 134.194C122.658 134.314 122.801 134.409 122.959 134.473C123.116 134.538 123.285 134.571 123.455 134.57C123.625 134.57 123.793 134.536 123.95 134.47H124.06C124.217 134.404 124.359 134.308 124.479 134.188C124.599 134.067 124.694 133.924 124.759 133.766C124.823 133.609 124.856 133.44 124.855 133.27C124.855 133.1 124.821 132.932 124.755 132.775C124.689 132.618 124.593 132.475 124.473 132.356C124.352 132.236 124.209 132.141 124.051 132.076C123.894 132.012 123.725 131.979 123.555 131.98C123.385 131.98 123.217 132.014 123.06 132.08Z" fill="#FC6D48"/>
<path d="M133.27 128.38L133.36 127.97C133.71 126.35 131.16 125.97 130.81 127.59L130.72 128C130.37 129.62 132.92 130 133.27 128.38Z" fill="#FC6D48"/>
<path d="M137.08 118.06V117.7C137.037 117.36 136.862 117.05 136.593 116.839C136.323 116.627 135.981 116.53 135.64 116.57C135.302 116.615 134.995 116.789 134.782 117.056C134.57 117.322 134.469 117.661 134.5 118V118.36C134.519 118.535 134.574 118.704 134.661 118.858C134.748 119.011 134.865 119.145 135.005 119.252C135.146 119.358 135.306 119.435 135.477 119.478C135.648 119.521 135.826 119.528 136 119.5C136.329 119.441 136.623 119.26 136.824 118.993C137.024 118.725 137.116 118.392 137.08 118.06Z" fill="#FC6D48"/>
<path d="M136.18 107H135.92C134.27 106.85 133.92 109.4 135.54 109.55H135.8C137.44 109.72 137.83 107.17 136.18 107Z" fill="#FC6D48"/>
<path d="M130.26 102C130.127 101.682 129.874 101.429 129.555 101.298C129.236 101.167 128.878 101.167 128.56 101.3C128.242 101.433 127.989 101.686 127.858 102.005C127.727 102.324 127.727 102.682 127.86 103C127.993 103.318 128.246 103.571 128.565 103.702C128.884 103.833 129.242 103.833 129.56 103.7C129.878 103.567 130.131 103.314 130.262 102.995C130.393 102.676 130.393 102.318 130.26 102Z" fill="#FC6D48"/>
<path d="M118 105.55H117.89C117.573 105.683 117.322 105.936 117.191 106.254C117.061 106.572 117.062 106.928 117.195 107.245C117.328 107.562 117.581 107.813 117.899 107.944C118.216 108.074 118.573 108.073 118.89 107.94H119C119.157 107.874 119.299 107.779 119.419 107.658C119.539 107.537 119.634 107.394 119.699 107.237C119.763 107.079 119.796 106.911 119.795 106.74C119.795 106.57 119.761 106.402 119.695 106.245C119.629 106.088 119.533 105.946 119.413 105.826C119.292 105.706 119.149 105.611 118.991 105.547C118.834 105.482 118.665 105.449 118.495 105.45C118.325 105.45 118.157 105.484 118 105.55Z" fill="#FC6D48"/>
<path d="M112.19 114.14V113.88C112.34 112.23 109.79 111.88 109.64 113.5V113.76C109.49 115.4 112 115.79 112.19 114.14Z" fill="#FC6D48"/>
<path d="M116.08 124.32L115.89 124.15C114.64 123.04 113.03 125.06 114.27 126.15L114.47 126.32C115.72 127.43 117.33 125.41 116.08 124.32Z" fill="#FC6D48"/>
<path d="M125.16 126.39L125.22 126.24C125.309 125.936 125.284 125.61 125.149 125.324C125.013 125.038 124.777 124.811 124.486 124.688C124.194 124.564 123.868 124.552 123.568 124.654C123.268 124.756 123.016 124.965 122.86 125.24L122.8 125.39C122.711 125.694 122.736 126.02 122.871 126.306C123.007 126.592 123.243 126.819 123.534 126.942C123.826 127.066 124.153 127.078 124.452 126.976C124.752 126.874 125.004 126.666 125.16 126.39Z" fill="#FC6D48"/>
<path d="M131 115V114.89C130.867 114.573 130.614 114.322 130.296 114.192C129.979 114.061 129.622 114.063 129.305 114.195C128.988 114.328 128.737 114.581 128.606 114.899C128.476 115.217 128.477 115.573 128.61 115.89V116C128.743 116.317 128.996 116.568 129.314 116.699C129.631 116.829 129.988 116.828 130.305 116.695C130.622 116.563 130.873 116.309 131.004 115.992C131.134 115.674 131.133 115.317 131 115Z" fill="#FC6D48"/>
<path d="M125.67 108C125.537 107.682 125.284 107.429 124.965 107.298C124.646 107.167 124.288 107.167 123.97 107.3C123.652 107.433 123.399 107.686 123.268 108.005C123.137 108.324 123.137 108.682 123.27 109C123.403 109.318 123.656 109.571 123.975 109.702C124.294 109.833 124.652 109.833 124.97 109.7C125.288 109.567 125.541 109.314 125.672 108.995C125.803 108.676 125.803 108.318 125.67 108Z" fill="#FC6D48"/>
<path d="M118 115.76H117.89C117.573 115.893 117.322 116.146 117.191 116.464C117.061 116.781 117.062 117.138 117.195 117.455C117.328 117.772 117.581 118.023 117.899 118.154C118.216 118.284 118.573 118.283 118.89 118.15H119C119.157 118.084 119.299 117.988 119.419 117.868C119.539 117.747 119.634 117.604 119.699 117.446C119.763 117.289 119.796 117.121 119.795 116.95C119.795 116.78 119.761 116.612 119.695 116.455C119.629 116.298 119.533 116.156 119.413 116.036C119.292 115.916 119.149 115.821 118.991 115.757C118.834 115.692 118.665 115.659 118.495 115.66C118.325 115.66 118.157 115.694 118 115.76Z" fill="#FC6D48"/>
<path d="M126.78 119C126.647 118.682 126.394 118.429 126.075 118.298C125.756 118.167 125.398 118.167 125.08 118.3C124.762 118.433 124.509 118.686 124.378 119.005C124.247 119.324 124.247 119.682 124.38 120C124.513 120.318 124.766 120.571 125.085 120.702C125.404 120.833 125.762 120.833 126.08 120.7C126.398 120.567 126.651 120.314 126.782 119.995C126.913 119.676 126.913 119.318 126.78 119Z" fill="#FC6D48"/>
<path d="M115 102.12C114.867 101.802 114.614 101.549 114.295 101.418C113.976 101.287 113.618 101.287 113.3 101.42C112.982 101.553 112.729 101.806 112.598 102.125C112.467 102.444 112.467 102.802 112.6 103.12C112.733 103.438 112.986 103.691 113.305 103.822C113.624 103.953 113.982 103.953 114.3 103.82C114.618 103.687 114.871 103.434 115.002 103.115C115.133 102.796 115.133 102.438 115 102.12Z" fill="#FC6D48"/>
<path d="M138.22 52.2001C135.56 60.8301 130.96 69.6501 124.34 75.8401C124.05 76.1101 123.76 76.3801 123.46 76.6301C121.388 76.1007 119.241 75.9216 117.11 76.1001C113.19 76.3701 108.11 77.1001 104.88 79.6301C104.795 79.7169 104.681 79.7697 104.559 79.7785C104.438 79.7874 104.318 79.7516 104.221 79.678C104.124 79.6044 104.057 79.498 104.033 79.3787C104.009 79.2594 104.029 79.1355 104.09 79.0301C106.44 73.4101 110.2 64.2401 107 58.1501L107.77 57.4401C108.838 56.5097 109.982 55.6701 111.19 54.9301C119.13 50.0601 128.96 49.8701 137.86 51.5901C137.987 51.6253 138.096 51.7086 138.163 51.8224C138.23 51.9361 138.251 52.0716 138.22 52.2001Z" fill="#F9F9F9"/>
<path d="M42.18 80.66C37.54 81.41 31 84 28.85 88.6C28.55 88.46 28.26 88.31 27.96 88.15C25.9696 87.154 24.0779 85.9721 22.31 84.62C17.1673 80.7367 13.3076 75.4001 11.23 69.3C10.42 66.87 9.28999 63.08 9.94999 60.49C10.52 58.23 13.63 58.49 15.46 58.49C21.5587 58.2549 27.6365 59.3361 33.28 61.66L34.28 62.1C34.53 68.92 36.04 76 42.28 79.78C42.64 80 42.63 80.59 42.18 80.66Z" fill="#F9F9F9"/>
<path d="M106.26 84.1599C107.78 88.9792 108.407 94.0355 108.11 99.0799C108.11 99.4899 108.11 99.8799 108.04 100.28C107.726 105.185 106.716 110.02 105.04 114.64C104.88 115.07 104.71 115.49 104.53 115.91C102.27 121.31 98.69 125.98 93.16 128.81L92.73 129.03C87.73 131.47 82.05 132.3 76.51 132.51C70.68 132.73 64.51 132.61 58.99 130.36C58.1578 130.021 57.3493 129.627 56.57 129.18C55.7787 128.744 55.0171 128.256 54.29 127.72C52.3428 126.259 50.6006 124.544 49.11 122.62C44.54 116.78 41.9 109.09 40.61 102.16C39.9852 98.8657 39.7836 95.5052 40.01 92.1599C36.1533 91.4545 32.4028 90.2581 28.85 88.5999C31 83.9999 37.54 81.4099 42.18 80.6599C42.63 80.5899 42.64 79.9499 42.3 79.7499C36.05 75.9699 34.54 68.8899 34.3 62.0699C35.22 62.4699 36.12 62.9199 37.01 63.3899C41.76 65.9399 46.1 69.9999 46.44 75.3899C47.6891 73.925 49.1131 72.6186 50.68 71.4999L50 61.6499C50.0484 60.8364 49.9947 60.0201 49.84 59.2199C49.43 58.1599 48.57 58.1499 47.58 57.8299C46.5924 57.6277 45.6649 57.1999 44.87 56.5799C41.49 53.5199 46.17 50.2699 48.87 49.2199C51.57 48.1699 56.87 47.8599 57.08 52.0199C57.0959 52.7541 56.9347 53.4813 56.61 54.1399C56.3955 54.5856 56.1304 55.005 55.82 55.3899C55.26 56.0799 55 56.0399 55.06 56.9299C55.15 58.2499 56.81 60.0699 57.5 61.1899L59.93 65.1899C63.3649 63.0553 67.307 61.8752 71.3499 61.7715C75.3927 61.6678 79.3901 62.6442 82.93 64.5999C82.9055 64.5413 82.8929 64.4785 82.8929 64.4149C82.8929 64.3514 82.9055 64.2885 82.93 64.2299C84.3741 61.1585 85.5356 57.962 86.4 54.6799C86.54 54.0799 86.96 52.9099 86.59 52.3399C86.34 51.9399 85.11 51.6999 84.7 51.4699C84.0452 51.1615 83.4678 50.7105 83.01 50.1499C80.81 46.9999 84.83 45.1599 87.4 44.9999C90.57 44.8399 96.24 46.4399 97.7 49.6299C99.16 52.8199 95.33 54.1599 92.77 54.3199L93.22 69.4299C95.6874 70.3945 97.9429 71.8314 99.86 73.6599C99.9592 70.7298 100.642 67.8489 101.868 65.1858C103.094 62.5226 104.839 60.1307 107 58.1499C110.2 64.2399 106.44 73.4099 104.09 79.0299C104.029 79.1354 104.009 79.2593 104.033 79.3786C104.057 79.4979 104.124 79.6043 104.221 79.6779C104.318 79.7515 104.438 79.7872 104.559 79.7784C104.681 79.7696 104.795 79.7168 104.88 79.6299C108.06 77.1299 113.19 76.3699 117.11 76.0999C119.241 75.9215 121.388 76.1006 123.46 76.6299C118.71 80.9625 112.665 83.609 106.26 84.1599Z" fill="#FFE388"/>
<path d="M92.85 119.71C93.65 125.96 93.53 132.16 91.15 138.07C89.31 142.63 86.05 147.07 81.34 148.9C76.23 150.9 69.42 149.5 64.88 146.62C53.58 139.45 56.44 123.62 58.57 112.62C60.83 101 64.85 89.58 72.39 80.38C72.73 79.82 73.05 79.26 73.39 78.71C73.7807 77.8943 74.4364 77.2351 75.25 76.84C77.53 76.06 79.38 78.95 80.49 80.41C84.71 85.99 87.33 92.61 89.09 99.34C90.7684 106.045 92.0242 112.848 92.85 119.71Z" fill="#FC6D48"/>
<path d="M54.33 127.73C52.3829 126.269 50.6406 124.554 49.15 122.63C50.94 122.07 53.07 121.75 54.36 122.81C55.65 123.87 55.13 126.16 54.33 127.73Z" fill="#FC6D48"/>
<path d="M99.86 113.58C100.47 114.82 100.76 117.22 99.2 117.92C97.64 118.62 95.2 118.24 94.2 116.92C92.97 115.39 94.2 113.09 95.1 111.73C95.1755 111.617 95.2919 111.539 95.4245 111.511C95.5572 111.483 95.6955 111.508 95.81 111.58C96.6125 111.383 97.4587 111.476 98.1995 111.842C98.9403 112.208 99.5283 112.823 99.86 113.58Z" fill="#FC6D48"/>
<path d="M55.45 104.87C56.15 106.51 55.32 108.8 54.94 110.44C54.63 111.8 54.16 112.83 52.71 113.22C50.8647 113.558 48.9614 113.368 47.22 112.67C43.59 111.44 45.03 107.3 45.89 104.54C45.933 104.412 46.0221 104.305 46.14 104.24C46.2428 103.935 46.4054 103.653 46.6183 103.41C46.8312 103.168 47.0901 102.971 47.38 102.83C48.9476 102.273 50.6437 102.186 52.26 102.58C52.9356 102.68 53.5775 102.94 54.1324 103.339C54.6872 103.737 55.1389 104.262 55.45 104.87Z" fill="#FC6D48"/>
<path d="M50.5 119.1C49.11 118.49 49.8 116.49 50.18 115.46C50.2234 115.337 50.3111 115.236 50.4259 115.174C50.5406 115.113 50.6741 115.098 50.8 115.13C51.0927 114.846 51.465 114.659 51.8671 114.593C52.2692 114.527 52.6819 114.585 53.05 114.76C53.5824 115.049 53.9921 115.522 54.2035 116.09C54.4149 116.658 54.4136 117.283 54.2 117.85C54.059 118.149 53.8481 118.409 53.5853 118.609C53.3225 118.809 53.0155 118.943 52.69 119C51.9886 119.262 51.2224 119.297 50.5 119.1Z" fill="#FC6D48"/>
<path d="M108.11 99.0901C108.11 99.5001 108.11 99.8901 108.04 100.29C107.726 105.195 106.716 110.03 105.04 114.65C104.88 115.08 104.71 115.5 104.53 115.92C103.259 115.164 102.103 114.227 101.1 113.14C99.5994 111.644 98.6812 109.662 98.51 107.55C98.51 105.47 100.41 104.19 101.89 103.03C103.836 101.526 105.918 100.207 108.11 99.0901Z" fill="#FC6D48"/>
<path d="M57.33 86.8699C57.0513 86.7442 56.745 86.692 56.4404 86.7183C56.1358 86.7445 55.8431 86.8484 55.59 87.0199H55.52C53.77 87.8199 53.52 90.1299 54.36 91.6999C55.23 93.4199 57.19 92.9999 58.11 91.5499C59.03 90.0999 59.26 87.6499 57.33 86.8699Z" fill="#263655"/>
<path d="M91.38 86.8699C91.6587 86.7442 91.9649 86.692 92.2695 86.7183C92.5741 86.7445 92.8669 86.8484 93.12 87.0199H93.19C94.94 87.8199 95.13 90.1299 94.34 91.6999C93.47 93.4199 91.52 92.9999 90.6 91.5499C89.68 90.0999 89.45 87.6499 91.38 86.8699Z" fill="#263655"/>
<path d="M84.56 132.76C82.4 133.89 79.15 132.76 80.32 129.89C81.0688 128.418 82.1262 127.126 83.42 126.1C84.1475 125.295 85.0759 124.698 86.11 124.37C86.5532 124.056 87.0868 123.894 87.63 123.91C88.0845 123.95 88.5073 124.159 88.8147 124.496C89.1222 124.834 89.2918 125.274 89.29 125.73C89.67 128.72 87 131.48 84.56 132.76Z" fill="#263655"/>
<path d="M67.14 131.94C69.3 133.07 72.55 131.94 71.38 129.07C70.6312 127.598 69.5738 126.306 68.28 125.28C67.5525 124.475 66.6241 123.878 65.59 123.55C65.1468 123.235 64.6132 123.074 64.07 123.09C63.6155 123.13 63.1927 123.339 62.8853 123.676C62.5778 124.013 62.4082 124.454 62.41 124.91C62 127.9 64.69 130.66 67.14 131.94Z" fill="#263655"/>
<path d="M76.33 83.11C76.33 82.46 75.33 82.47 75.33 83.11C75.33 84.28 75.44 85.45 75.5 86.61C75.5 87.26 76.5 87.25 76.5 86.61C76.44 85.44 76.38 84.27 76.33 83.11Z" fill="#FFE388"/>
<path d="M72.46 89C72.54 88.37 71.58 88.11 71.46 88.74C71.345 89.5882 71.3048 90.4448 71.34 91.3C71.34 91.94 72.34 91.94 72.34 91.3C72.3094 90.5313 72.3496 89.7614 72.46 89Z" fill="#FFE388"/>
<path d="M80.48 88.5V90.66C80.48 90.7926 80.5327 90.9198 80.6264 91.0135C80.7202 91.1073 80.8474 91.16 80.98 91.16C81.1126 91.16 81.2398 91.1073 81.3335 91.0135C81.4273 90.9198 81.48 90.7926 81.48 90.66V88.5C81.48 88.3674 81.4273 88.2402 81.3335 88.1464C81.2398 88.0527 81.1126 88 80.98 88C80.8474 88 80.7202 88.0527 80.6264 88.1464C80.5327 88.2402 80.48 88.3674 80.48 88.5Z" fill="#FFE388"/>
<path d="M75.76 93.22V95.65C75.76 95.7826 75.8127 95.9098 75.9065 96.0035C76.0002 96.0973 76.1274 96.15 76.26 96.15C76.3926 96.15 76.5198 96.0973 76.6136 96.0035C76.7073 95.9098 76.76 95.7826 76.76 95.65V93.22C76.76 93.0874 76.7073 92.9602 76.6136 92.8664C76.5198 92.7726 76.3926 92.72 76.26 92.72C76.1274 92.72 76.0002 92.7726 75.9065 92.8664C75.8127 92.9602 75.76 93.0874 75.76 93.22Z" fill="#FFE388"/>
<path d="M67.8 95.51V97.67C67.8 97.8026 67.8527 97.9298 67.9464 98.0236C68.0402 98.1173 68.1674 98.17 68.3 98.17C68.4326 98.17 68.5598 98.1173 68.6535 98.0236C68.7473 97.9298 68.8 97.8026 68.8 97.67V95.51C68.8 95.3774 68.7473 95.2502 68.6535 95.1565C68.5598 95.0627 68.4326 95.01 68.3 95.01C68.1674 95.01 68.0402 95.0627 67.9464 95.1565C67.8527 95.2502 67.8 95.3774 67.8 95.51Z" fill="#FFE388"/>
<path d="M85.1 97.6701C84.8503 96.8359 84.7191 95.9708 84.71 95.1001C84.71 94.9675 84.6573 94.8403 84.5636 94.7465C84.4698 94.6528 84.3426 94.6001 84.21 94.6001C84.0774 94.6001 83.9502 94.6528 83.8565 94.7465C83.7627 94.8403 83.71 94.9675 83.71 95.1001C83.7193 96.055 83.8606 97.004 84.13 97.9201C84.1632 98.0487 84.2461 98.1589 84.3605 98.2264C84.4749 98.2939 84.6114 98.3133 84.74 98.2801C84.8687 98.2469 84.9788 98.1641 85.0464 98.0497C85.1139 97.9353 85.1332 97.7987 85.1 97.6701Z" fill="#FFE388"/>
<path d="M75.81 100.91C75.68 100.28 74.72 100.54 74.81 101.17C74.9448 101.749 74.9448 102.351 74.81 102.93C74.7769 103.063 74.7977 103.203 74.8681 103.32C74.9384 103.437 75.0524 103.522 75.185 103.555C75.3176 103.588 75.458 103.567 75.5752 103.497C75.6924 103.427 75.7769 103.313 75.81 103.18C75.9799 102.433 75.9799 101.657 75.81 100.91Z" fill="#FFE388"/>
<path d="M64.58 103.88L64.32 106C64.24 106.64 65.24 106.63 65.32 106C65.4 105.37 65.49 104.56 65.58 103.84C65.67 103.12 64.66 103.24 64.58 103.88Z" fill="#FFE388"/>
<path d="M71 107.37C71.06 106.73 70.06 106.74 70 107.37C69.8985 108.367 69.8784 109.37 69.94 110.37C69.94 111.01 70.94 111.01 70.94 110.37C70.8784 109.37 70.8985 108.367 71 107.37Z" fill="#FFE388"/>
<path d="M85.67 102.65C85.67 102.01 84.67 102.01 84.67 102.65C84.76 103.86 84.84 105.08 84.92 106.29C84.92 106.93 85.92 106.93 85.92 106.29L85.67 102.65Z" fill="#FFE388"/>
<path d="M80.12 107.65C80.0855 107.517 79.9998 107.404 79.8816 107.335C79.7635 107.265 79.6226 107.246 79.49 107.28C79.3574 107.315 79.2439 107.4 79.1745 107.518C79.1052 107.637 79.0855 107.777 79.12 107.91C79.3581 108.745 79.4328 109.617 79.34 110.48C79.28 111.12 80.28 111.11 80.34 110.48C80.4533 109.531 80.3786 108.57 80.12 107.65Z" fill="#FFE388"/>
<path d="M75.88 113.3C75.82 112.66 74.82 112.66 74.88 113.3C74.9854 114.345 74.9348 115.4 74.73 116.43C74.61 117.05 75.57 117.31 75.73 116.68C75.9448 115.567 75.9953 114.428 75.88 113.3Z" fill="#FFE388"/>
<path d="M64.43 112.23C64.34 113.23 64.24 114.23 64.15 115.23C64.08 115.87 65.09 115.86 65.15 115.23L65.43 112.23C65.5 111.59 64.5 111.6 64.43 112.23Z" fill="#FFE388"/>
<path d="M86.66 111.69C86.66 111.557 86.6074 111.43 86.5136 111.336C86.4198 111.243 86.2926 111.19 86.16 111.19C86.0274 111.19 85.9003 111.243 85.8065 111.336C85.7127 111.43 85.66 111.557 85.66 111.69C85.6298 112.914 85.7303 114.137 85.96 115.34C86.08 115.97 87.05 115.71 86.96 115.08C86.7353 113.964 86.6347 112.828 86.66 111.69Z" fill="#FFE388"/>
<path d="M90.8 116.41C90.8 115.77 89.8 115.77 89.8 116.41L90.05 120.32C90.05 120.96 91.05 120.96 91.05 120.32L90.8 116.41Z" fill="#FFE388"/>
<path d="M84.12 122.09C83.7361 121.044 83.5234 119.944 83.49 118.83C83.49 118.697 83.4373 118.57 83.3435 118.477C83.2498 118.383 83.1226 118.33 82.99 118.33C82.8574 118.33 82.7302 118.383 82.6364 118.477C82.5427 118.57 82.49 118.697 82.49 118.83C82.5221 120.029 82.7484 121.214 83.16 122.34C83.38 123 84.35 122.7 84.12 122.09Z" fill="#FFE388"/>
<path d="M71.05 119C70.84 120 70.64 120.9 70.43 121.84C70.29 122.47 71.26 122.73 71.43 122.1L72.05 119.25C72.15 118.61 71.19 118.35 71.05 119Z" fill="#FFE388"/>
<path d="M60.71 117.64L60.29 120.2C60.18 120.83 61.15 121.09 61.29 120.45C61.44 119.6 61.58 118.74 61.72 117.89C61.79 117.26 60.82 117 60.71 117.64Z" fill="#FFE388"/>
<path d="M105.92 132.63C105.787 132.63 105.66 132.683 105.566 132.776C105.473 132.87 105.42 132.997 105.42 133.13C105.42 133.262 105.473 133.39 105.566 133.483C105.66 133.577 105.787 133.63 105.92 133.63C106.053 133.63 106.18 133.577 106.274 133.483C106.367 133.39 106.42 133.262 106.42 133.13C106.42 132.997 106.367 132.87 106.274 132.776C106.18 132.683 106.053 132.63 105.92 132.63Z" fill="#FFE388"/>
<path d="M70.58 99.5501C70.625 100.416 70.5543 101.283 70.37 102.13C70.24 102.75 71.2 103.01 71.37 102.38C71.5791 101.452 71.6599 100.5 71.61 99.5501C71.55 98.9101 70.55 98.9101 70.58 99.5501Z" fill="#FFE388"/>
<path d="M80.13 98.8799C80.13 98.2399 79.13 98.2399 79.13 98.8799C79.0801 100.049 79.1303 101.22 79.28 102.38C79.36 103.01 80.36 103.01 80.28 102.38C80.1301 101.22 80.0799 100.049 80.13 98.8799Z" fill="#FFE388"/>
</svg>
