<svg width="264" height="168" viewBox="0 0 264 168" fill="none" xmlns="http://www.w3.org/2000/svg">
<path d="M112.138 168.02C84.0372 168.02 76.1748 53.7336 62.2119 50.4338C48.6473 47.2185 49.1059 85.9292 32.6087 90.0736C15.9908 94.2481 13.9633 76.7115 -0.735716 70.4739C-14.7529 64.5198 -30.0252 90.9845 -30.1761 91.256C-30.3159 91.4655 -30.5299 91.6143 -30.7752 91.6723C-31.0204 91.7303 -31.2784 91.6932 -31.4974 91.5685C-31.7163 91.4437 -31.8798 91.2407 -31.9548 91.0002C-32.0299 90.7597 -32.0109 90.4997 -31.9018 90.2727C-31.2381 89.1144 -15.6098 62.0163 0.0426826 68.6521C15.3331 75.1431 16.9381 91.9738 32.1259 88.1552C47.4887 84.2944 46.6078 44.721 62.6645 48.5094C78.3954 52.2255 86.0949 166.047 112.186 166.047C127.338 166.047 145.09 104.769 158.13 59.7722C169.377 20.9589 175.49 0.653353 180.776 0.0500995C186.991 -0.679837 190.207 18.2925 195.39 51.9299C200.278 83.5946 206.36 123.005 216.425 124.604C226.49 126.202 229.7 108.449 232.53 92.7882C234.98 79.203 237.098 67.4516 243.18 65.678C256.932 61.6181 251.9 82.8104 262.821 89.8504C263.035 89.9953 263.183 90.2178 263.234 90.4703C263.286 90.7228 263.237 90.9855 263.098 91.2025C262.959 91.4194 262.74 91.5735 262.489 91.632C262.238 91.6904 261.974 91.6486 261.753 91.5154C250.059 83.9747 255.062 64.2423 243.736 67.5783C232.047 71.0228 236.845 129.84 216.117 126.558C199.886 123.982 194.998 50.2709 187.154 16.2897C184.137 3.12066 181.82 1.94431 180.981 2.04084C175.81 2.64409 161.913 53.7638 160 60.3573C145.374 110.88 128.822 168.02 112.138 168.02Z" fill="#00FFF8"/>
</svg>
