<svg width="295" height="168" viewBox="0 0 295 168" fill="none" xmlns="http://www.w3.org/2000/svg">
<path d="M141.789 167.911C114.213 163.019 106.948 53.7095 93.1421 50.4338C79.5774 47.2245 80.036 85.9292 63.5388 90.0736C46.9511 94.242 44.8331 76.6934 30.1944 70.4739C16.1772 64.5258 0.904921 90.9845 0.748035 91.256C0.684128 91.3687 0.59855 91.4678 0.496222 91.5473C0.393895 91.6269 0.276836 91.6855 0.151782 91.7197C0.0267278 91.7539 -0.103855 91.7631 -0.232457 91.7466C-0.361059 91.7302 -0.485141 91.6885 -0.597567 91.6239C-0.825627 91.4936 -0.992921 91.2784 -1.063 91.0253C-1.13307 90.7722 -1.10025 90.5017 -0.97168 90.2726C-0.30793 89.1204 15.3204 62.0163 30.9728 68.652C46.2692 75.1431 47.8683 91.9738 63.0561 88.1552C78.437 84.2944 77.5379 44.721 93.5946 48.5094C109.344 52.2255 117.025 166.047 143.104 166.047C158.262 166.047 176.014 104.769 189.054 59.7722C200.302 20.9589 206.414 0.653353 211.694 0.0500995C217.903 -0.679837 221.131 18.2925 226.314 51.9299C231.202 83.5946 237.284 123.005 247.349 124.604C257.414 126.202 260.624 108.449 263.454 92.7882C265.904 79.2029 268.022 67.4516 274.098 65.678C287.862 61.6181 282.818 82.8044 293.745 89.8504C293.966 89.9928 294.122 90.217 294.177 90.4738C294.232 90.7306 294.184 90.999 294.041 91.2197C293.899 91.4405 293.674 91.5957 293.417 91.6512C293.161 91.7066 292.892 91.6577 292.671 91.5153C280.983 83.9747 285.986 64.2423 274.66 67.5783C262.972 71.0228 267.769 129.84 247.042 126.558C230.81 123.982 225.922 50.2709 218.108 16.2897C215.091 3.12066 212.774 1.94431 211.935 2.04083C206.764 2.64409 192.868 53.7638 190.955 60.3573C178.657 102.76 159.891 171.115 141.789 167.911Z" fill="#0A5DC1"/>
</svg>
