<svg width="271" height="168" viewBox="0 0 271 168" fill="none" xmlns="http://www.w3.org/2000/svg">
<path d="M119.553 167.99C91.5792 166.771 83.8677 53.7095 69.947 50.4338C56.3884 47.2185 56.841 85.9292 40.3498 90.0736C23.7319 94.2481 21.6743 76.7055 6.99936 70.4739C-7.01783 64.5258 -22.2962 90.9845 -22.447 91.256C-22.5774 91.4863 -22.7941 91.6555 -23.0492 91.7262C-23.3044 91.7969 -23.5772 91.7634 -23.8077 91.633C-24.0381 91.5026 -24.2073 91.286 -24.2781 91.0309C-24.3488 90.7758 -24.3153 90.503 -24.1848 90.2727C-23.5271 89.1144 -7.89278 62.0163 7.75362 68.6521C23.0501 75.1431 24.6491 91.9738 39.8429 88.1552C55.2057 84.2944 54.3248 44.721 70.3815 48.5094C86.1244 52.2255 93.8119 166.047 119.891 166.047C135.043 166.047 152.801 104.769 165.841 59.7722C177.082 20.9589 183.201 0.653353 188.481 0.0500995C194.696 -0.679837 197.912 18.2925 203.101 51.9299C207.983 83.5946 214.065 123.005 224.136 124.604C234.207 126.202 237.411 108.449 240.241 92.7882C242.691 79.203 244.809 67.4516 250.885 65.678C264.637 61.6181 259.605 82.8104 270.532 89.8504C270.753 89.9928 270.908 90.217 270.964 90.4738C271.019 90.7307 270.97 90.999 270.828 91.2198C270.686 91.4405 270.461 91.5957 270.204 91.6512C269.947 91.7066 269.679 91.6577 269.458 91.5154C257.764 83.9747 262.766 64.2423 251.446 67.5783C239.777 70.9866 244.574 129.804 223.816 126.522C207.591 123.946 202.697 50.2347 194.889 16.2535C191.872 3.08446 189.549 1.90812 188.71 2.00464C183.569 2.62599 169.666 53.7095 167.76 60.3453C153.694 108.853 136.588 168.792 119.553 167.99Z" fill="#40AFCA"/>
</svg>
