<svg width="296" height="168" viewBox="0 0 296 168" fill="none" xmlns="http://www.w3.org/2000/svg">
<path d="M143.096 167.911C115.538 163.019 108.279 53.7095 94.4672 50.4338C80.9025 47.2245 81.3611 85.9292 64.9001 90.0736C48.4391 94.2179 46.1944 76.6814 31.5557 70.4739C17.5325 64.5258 2.26017 90.9845 2.10932 91.256C1.97889 91.484 1.76322 91.6508 1.50974 91.7198C1.25626 91.7888 0.985733 91.7543 0.757685 91.6239C0.529636 91.4936 0.362739 91.2779 0.293711 91.0245C0.224682 90.7711 0.259177 90.5006 0.389605 90.2727C1.04732 89.1144 16.6817 62.0163 32.3281 68.6521C47.6245 75.1431 49.2235 91.9738 64.4174 88.1552C79.7922 84.2944 78.8992 44.721 94.9499 48.5094C110.699 52.2255 118.38 166.047 144.466 166.047C159.617 166.047 177.37 104.769 190.409 59.7722C201.657 20.9589 207.769 0.653355 213.055 0.0501014C219.759 -0.746193 223.235 23.1547 227.67 51.9299C232.557 83.5946 238.64 123.005 248.705 124.604C258.769 126.202 261.98 108.449 264.81 92.7882C267.266 79.203 269.377 67.4516 275.46 65.678C289.211 61.6181 284.179 82.8104 295.101 89.8504C295.314 89.9953 295.462 90.2178 295.514 90.4703C295.565 90.7228 295.516 90.9855 295.377 91.2025C295.238 91.4194 295.02 91.5735 294.769 91.632C294.517 91.6904 294.253 91.6486 294.033 91.5154C282.339 83.9747 287.341 64.2423 276.015 67.5783C264.327 71.0228 269.124 129.84 248.397 126.558C232.171 123.982 227.278 50.2709 219.469 16.2897C216.452 3.12066 214.135 1.94432 213.291 2.04084C208.119 2.64409 194.223 53.7638 192.31 60.3573C179.982 102.76 161.198 171.115 143.096 167.911Z" fill="#1194C8"/>
</svg>
