<svg width="297" height="168" viewBox="0 0 297 168" fill="none" xmlns="http://www.w3.org/2000/svg">
<path d="M143.648 167.911C116.097 163.019 108.837 53.7093 95.0255 50.4337C81.4608 47.2244 81.9194 85.9291 65.4222 90.0734C48.925 94.2178 46.7165 76.6872 32.0778 70.4737C18.0606 64.5257 2.78831 90.9844 2.63746 91.2558C2.49766 91.4654 2.28357 91.6142 2.03836 91.6722C1.79315 91.7302 1.53507 91.6931 1.31615 91.5683C1.09723 91.4436 0.933765 91.2405 0.858709 91C0.783654 90.7596 0.802594 90.4996 0.911711 90.2725C1.57546 89.1203 17.2038 62.0161 32.8562 68.6519C48.1526 75.1429 49.7517 91.9737 64.9455 88.1551C80.3204 84.2943 79.4273 44.7208 95.478 48.5093C111.227 52.2253 118.908 166.047 144.994 166.047C160.145 166.047 177.898 104.769 190.937 59.772C202.179 20.9587 208.297 0.671301 213.583 0.0197871C220.118 -0.75841 223.515 21.5016 228.198 51.8996C233.086 83.5643 239.168 122.975 249.233 124.573C259.298 126.172 262.508 108.418 265.338 92.7579C267.794 79.1726 269.906 67.4213 275.988 65.6477C289.74 61.5878 284.701 82.7801 295.629 89.8201C295.842 89.965 295.99 90.1874 296.042 90.44C296.093 90.6925 296.044 90.9552 295.905 91.1722C295.766 91.3891 295.548 91.5432 295.297 91.6017C295.046 91.6601 294.782 91.6183 294.561 91.485C282.867 83.9444 287.869 64.212 276.543 67.548C264.855 70.9925 269.652 129.81 248.925 126.528C232.693 123.952 227.806 50.2406 219.998 16.2594C216.981 3.09035 214.657 1.914 213.819 2.01052C208.647 2.61378 194.751 53.7335 192.838 60.327C180.541 102.76 161.75 171.114 143.648 167.911Z" fill="#4396CA"/>
</svg>
