<svg width="296" height="168" viewBox="0 0 296 168" fill="none" xmlns="http://www.w3.org/2000/svg">
<path d="M143.231 167.911C115.655 163.019 108.39 53.7093 94.5838 50.4336C81.0191 47.2243 81.4777 85.929 64.9805 90.0734C48.4833 94.2177 46.2748 76.6872 31.6361 70.4737C17.6189 64.5256 2.34663 90.9843 2.19577 91.2558C2.05597 91.4654 1.84188 91.6141 1.59667 91.6721C1.35146 91.7301 1.09338 91.693 0.874462 91.5683C0.655544 91.4435 0.492076 91.2405 0.417021 91C0.341966 90.7595 0.360906 90.4995 0.470023 90.2725C1.13377 89.1203 16.7621 62.0161 32.4145 68.6519C47.7109 75.1429 49.31 91.9736 64.4978 88.1551C79.8787 84.2942 78.9796 44.7208 95.0363 48.5093C110.785 52.2253 118.467 166.047 144.546 166.047C159.704 166.047 177.456 104.769 190.496 59.772C201.743 20.9587 207.856 0.65317 213.142 0.0499168C219.514 -0.716215 222.85 19.9271 227.756 51.8995C232.644 83.5643 238.726 122.975 248.791 124.573C258.856 126.172 262.066 108.418 264.896 92.7579C267.346 79.1726 269.464 67.4212 275.54 65.6477C289.304 61.5878 284.259 82.7801 295.187 89.82C295.297 89.8905 295.391 89.9819 295.465 90.0889C295.539 90.1958 295.591 90.3163 295.619 90.4435C295.646 90.5707 295.648 90.702 295.625 90.83C295.602 90.9579 295.553 91.0801 295.483 91.1894C295.412 91.2987 295.321 91.3931 295.214 91.4671C295.107 91.5412 294.986 91.5934 294.859 91.6208C294.732 91.6483 294.601 91.6504 294.473 91.6271C294.345 91.6038 294.222 91.5555 294.113 91.485C282.425 83.9443 287.427 64.2119 276.101 67.5479C264.413 70.9925 269.21 129.81 248.483 126.528C232.252 123.952 227.364 50.2406 219.52 16.2593C216.503 3.09031 214.185 1.91397 213.347 2.01049C208.176 2.61374 194.279 53.7334 192.366 60.327C180.099 102.76 161.333 171.114 143.231 167.911Z" fill="#1194C8"/>
</svg>
