<svg width="287" height="168" viewBox="0 0 287 168" fill="none" xmlns="http://www.w3.org/2000/svg">
<path d="M134.379 167.935C106.671 164.274 99.2546 53.7095 85.4064 50.4338C71.8478 47.2185 72.3003 85.9292 55.8091 90.0736C39.2094 94.2421 37.1336 76.6995 22.4647 70.4739C8.44151 64.5258 -6.83078 90.9845 -6.98163 91.256C-7.11206 91.4839 -7.32773 91.6508 -7.58122 91.7198C-7.8347 91.7888 -8.10522 91.7543 -8.33327 91.6239C-8.56131 91.4936 -8.72821 91.2779 -8.79724 91.0245C-8.86627 90.7711 -8.83177 90.5006 -8.70135 90.2727C-8.04363 89.1204 7.5907 62.0163 23.2371 68.6521C38.5396 75.1431 40.1326 91.9738 55.3264 88.1552C70.7013 84.2944 69.8082 44.721 85.865 48.5094C101.608 52.2255 109.295 166.047 135.375 166.047C150.526 166.047 168.285 104.769 181.324 59.7722C192.566 20.9589 198.684 0.653353 203.964 0.0500995C210.173 -0.679837 213.396 18.2925 218.585 51.9299C223.466 83.5946 229.549 123.005 239.62 124.604C249.691 126.202 252.895 108.449 255.725 92.7882C258.175 79.203 260.286 67.4516 266.369 65.678C280.127 61.6181 275.088 82.8104 286.016 89.8504C286.125 89.9209 286.22 90.0122 286.294 90.1192C286.368 90.2262 286.42 90.3467 286.447 90.4738C286.475 90.601 286.477 90.7323 286.454 90.8603C286.43 90.9883 286.382 91.1104 286.312 91.2198C286.241 91.3291 286.15 91.4234 286.043 91.4975C285.936 91.5715 285.815 91.6237 285.688 91.6512C285.561 91.6786 285.429 91.6808 285.301 91.6574C285.173 91.6341 285.051 91.5859 284.942 91.5154C273.248 83.9747 278.25 64.2423 266.93 67.5783C255.242 71.0228 260.039 129.84 239.306 126.558C223.08 123.982 218.187 50.2709 210.378 16.2897C207.361 3.12066 205.038 1.94431 204.2 2.04084C199.028 2.64409 185.132 53.7638 183.225 60.3573C170.336 104.793 152.125 170.336 134.379 167.935Z" fill="#1194C8"/>
</svg>
