<svg width="279" height="168" viewBox="0 0 279 168" fill="none" xmlns="http://www.w3.org/2000/svg">
<path d="M126.963 167.966C99.1219 165.553 91.5611 53.7155 77.6767 50.4338C64.1121 47.2185 64.5706 85.9292 48.0734 90.0736C31.4736 94.2421 29.41 76.6995 14.729 70.4739C0.711839 64.5258 -14.5604 90.9845 -14.7113 91.256C-14.8511 91.4655 -15.0652 91.6143 -15.3104 91.6723C-15.5556 91.7303 -15.8137 91.6932 -16.0326 91.5685C-16.2515 91.4437 -16.415 91.2407 -16.4901 91.0002C-16.5651 90.7597 -16.5462 90.4997 -16.4371 90.2727C-15.7733 89.1204 -0.145002 62.0163 15.5074 68.6521C30.8039 75.1431 32.4029 91.9738 47.5907 88.1552C62.9656 84.2944 62.0725 44.721 78.1293 48.5094C93.8782 52.2255 101.56 166.047 127.639 166.047C142.797 166.047 160.549 104.769 173.589 59.7722C184.836 20.9589 190.949 0.653353 196.235 0.0500995C202.444 -0.679837 205.666 18.2925 210.849 51.9299C215.737 83.5946 221.819 123.005 231.884 124.604C241.949 126.202 245.159 108.449 247.989 92.7882C250.439 79.203 252.557 67.4516 258.633 65.678C272.391 61.6181 267.358 82.8104 278.28 89.8504C278.493 89.9953 278.641 90.2178 278.693 90.4703C278.745 90.7228 278.696 90.9855 278.557 91.2025C278.417 91.4194 278.199 91.5735 277.948 91.632C277.697 91.6904 277.433 91.6486 277.212 91.5154C265.518 83.9747 270.52 64.2423 259.194 67.5783C247.506 71.0228 252.303 129.84 231.576 126.558C215.345 123.982 210.457 50.2709 202.643 16.2897C199.626 3.12066 197.309 1.94431 196.47 2.04084C191.299 2.64409 177.402 53.7638 175.489 60.3573C162.015 106.796 144.353 169.564 126.963 167.966Z" fill="#2A2873"/>
</svg>
