<svg width="297" height="168" viewBox="0 0 297 168" fill="none" xmlns="http://www.w3.org/2000/svg">
<path d="M143.544 167.911C115.98 163.019 108.721 53.7094 94.9089 50.4337C81.3442 47.2184 81.8028 85.9291 65.3418 90.0735C48.8808 94.2178 46.6361 76.6752 31.9974 70.4738C17.9742 64.5197 2.70188 90.9844 2.55103 91.2559C2.48645 91.3687 2.40026 91.4678 2.29738 91.5474C2.1945 91.627 2.07696 91.6855 1.95145 91.7197C1.82593 91.7539 1.69492 91.763 1.56588 91.7466C1.43684 91.7301 1.31231 91.6884 1.19939 91.6238C1.08648 91.5593 0.987384 91.4731 0.907775 91.3703C0.828167 91.2674 0.769599 91.1499 0.735419 91.0244C0.70124 90.8989 0.692117 90.7679 0.708571 90.6389C0.725024 90.5099 0.766732 90.3854 0.831313 90.2726C1.48903 89.1143 17.1234 62.0162 32.7698 68.652C48.0662 75.143 49.6652 91.9737 64.8591 88.1551C80.2279 84.2943 79.3409 44.7209 95.3916 48.5093C111.141 52.2254 118.828 166.047 144.907 166.047C160.059 166.047 177.817 104.769 190.851 59.7721C202.098 20.9588 208.211 0.65325 213.497 0.0499967C220.37 -0.770428 223.93 24.7834 228.111 51.9298C232.999 83.5945 239.081 123.005 249.146 124.604C259.211 126.202 262.421 108.449 265.257 92.7881C267.707 79.2029 269.819 67.4515 275.901 65.6779C289.653 61.618 284.621 82.8103 295.548 89.8503C295.769 89.9927 295.925 90.2169 295.98 90.4737C296.035 90.7306 295.987 90.9989 295.844 91.2197C295.702 91.4404 295.477 91.5956 295.22 91.6511C294.964 91.7065 294.695 91.6576 294.474 91.5153C282.78 83.9746 287.783 64.2422 276.457 67.5782C264.769 71.0227 269.566 129.84 248.839 126.558C232.613 123.982 227.719 50.2708 219.911 16.2896C216.894 3.12056 214.577 1.94421 213.732 2.04073C208.531 2.62589 194.634 53.7094 192.721 60.3452C180.424 102.76 161.646 171.115 143.544 167.911Z" fill="#1194C8"/>
</svg>
