<svg width="45" height="33" viewBox="0 0 45 33" fill="none" xmlns="http://www.w3.org/2000/svg">
<path d="M24.4937 15.5438C24.1267 15.5685 23.2601 15.7844 23.2601 16.1606C23.2601 16.5369 23.5222 16.9656 23.6518 16.9532C23.7813 16.9409 24.6233 17.1537 24.9348 16.8731C25.2462 16.5924 24.4937 15.5438 24.4937 15.5438Z" fill="#F0F0F0"/>
<path d="M42.5942 13.2925C42.5942 18.1098 39.396 22.0142 35.4515 22.0142C31.507 22.0142 28.3088 18.1098 28.3088 13.2925C28.3088 8.47512 31.507 4.57068 35.4669 4.57068C39.4269 4.57068 42.5942 8.47512 42.5942 13.2925Z" fill="#B9B9B9"/>
<path d="M37.8386 32.4384C37.8386 32.3798 37.8386 32.3181 37.8386 32.2595C37.8164 31.6441 37.5564 31.0613 37.1131 30.6337C36.6699 30.2062 36.0781 29.9673 35.4623 29.9673C34.8465 29.9673 34.2547 30.2062 33.8115 30.6337C33.3683 31.0613 33.1082 31.6441 33.086 32.2595C33.086 32.3181 33.086 32.3798 33.086 32.4384H37.8386Z" fill="#B9B9B9"/>
<path d="M35.544 16.9933H35.1277V32.4384H35.544V16.9933Z" fill="#B9B9B9"/>
<path d="M39.6829 18.1992H31.2201C30.5099 18.1992 29.9341 18.775 29.9341 19.4853V21.8107C29.9341 22.5209 30.5099 23.0967 31.2201 23.0967H39.6829C40.3931 23.0967 40.9689 22.5209 40.9689 21.8107V19.4853C40.9689 18.775 40.3931 18.1992 39.6829 18.1992Z" fill="#B9B9B9"/>
<path d="M30.3289 18.5599H38.5294V20.5276C38.5294 21.5947 37.8602 22.0696 36.7931 22.0696H30.5324C29.4653 22.0696 28.4075 21.5916 28.4075 20.5276V20.4906C28.4075 19.9801 28.6096 19.4905 28.9697 19.1287C29.3297 18.7669 29.8184 18.5624 30.3289 18.5599Z" fill="#D6D6D6"/>
<path d="M38.5294 18.5354H32.4075L31.6458 9.47125C31.6295 9.27924 31.6534 9.08596 31.7158 8.90365C31.7782 8.72134 31.8777 8.55398 32.0082 8.41219C32.1387 8.2704 32.2972 8.15726 32.4737 8.07996C32.6503 8.00266 32.8409 7.96288 33.0336 7.96314H37.9034C38.096 7.96288 38.2867 8.00266 38.4632 8.07996C38.6397 8.15726 38.7982 8.2704 38.9287 8.41219C39.0592 8.55398 39.1588 8.72134 39.2212 8.90365C39.2836 9.08596 39.3074 9.27924 39.2912 9.47125L38.5294 18.5354Z" fill="#1958DB"/>
<path d="M35.8555 8.52749H34.9056C34.8297 8.52281 34.7554 8.50307 34.6872 8.46941C34.6189 8.43575 34.5581 8.38886 34.5081 8.33146C34.4582 8.27405 34.4202 8.20729 34.3963 8.13505C34.3724 8.06281 34.3631 7.98654 34.369 7.91067V6.73872C34.3614 6.58806 34.4134 6.44046 34.5139 6.3279C34.6143 6.21534 34.7551 6.14687 34.9056 6.13733H35.8555C35.9312 6.14202 36.0052 6.16167 36.0732 6.19513C36.1412 6.22859 36.2019 6.27521 36.2518 6.33228C36.3017 6.38935 36.3398 6.45574 36.3639 6.52762C36.388 6.5995 36.3976 6.67545 36.3921 6.75106V7.92301C36.4006 8.0742 36.3489 8.22259 36.2484 8.33582C36.1479 8.44906 36.0066 8.51796 35.8555 8.52749Z" fill="#FCA89E"/>
<path d="M33.0984 6.1497C33.4808 7.44193 34.5602 7.24146 35.8524 6.86212C36.1646 6.77572 36.4564 6.62802 36.7108 6.42766C36.9653 6.22729 37.1773 5.97826 37.3345 5.6951C37.4917 5.41194 37.5909 5.10031 37.6264 4.7784C37.6619 4.45648 37.6329 4.13071 37.5412 3.82011C37.4495 3.5095 37.2968 3.22026 37.0921 2.96928C36.8875 2.71829 36.6348 2.51057 36.349 2.35823C36.0632 2.2059 35.75 2.112 35.4275 2.08201C35.105 2.05203 34.7798 2.08655 34.4708 2.18357C33.1785 2.56292 32.7159 4.85747 33.0984 6.1497Z" fill="#FCA89E"/>
<path d="M28.4845 20.2315L27.5069 31.3342H28.9903C28.9903 31.3342 31.0721 24.6757 31.3096 22.3009C31.547 19.9262 30.1191 19.6764 30.1191 19.6764L28.4845 20.2315Z" fill="#D6D6D6"/>
<path d="M33.2125 20.0804L32.2009 31.3219H33.6874C33.6874 31.3219 35.871 24.1082 36.1084 21.7304C36.3459 19.3526 34.8162 19.6641 34.8162 19.6641L33.2125 20.0804Z" fill="#D6D6D6"/>
<path d="M27.5377 31.3219H28.9903V32.4383H26.042C25.8477 32.4383 25.7798 32.0004 25.9494 31.9048L27.5377 31.3219Z" fill="#246E9D"/>
<path d="M32.2009 31.3219H33.6565V32.4383H30.7051C30.5108 32.4383 30.4429 32.0004 30.6126 31.9048L32.2009 31.3219Z" fill="#246E9D"/>
<path d="M3.01007 13.2925C3.01007 18.1098 6.20826 22.0142 10.1528 22.0142C14.0973 22.0142 17.2955 18.1098 17.2955 13.2925C17.2955 8.47512 14.0973 4.57068 10.1528 4.57068C6.20826 4.57068 3.01007 8.47512 3.01007 13.2925Z" fill="#D5D5D5"/>
<path d="M20.9409 15.5438C21.311 15.5685 22.1746 15.7844 22.1746 16.1606C22.1746 16.5369 21.9124 16.9656 21.7829 16.9532C21.6534 16.9409 20.8145 17.1537 20.4999 16.8731C20.1853 16.5924 20.9409 15.5438 20.9409 15.5438Z" fill="#F0F0F0"/>
<path d="M12.9531 8.58608C11.5838 9.60691 14.2484 15.4913 14.7357 15.7843C15.223 16.0773 20.1175 16.9193 20.506 16.8853C20.8946 16.8514 21.1537 15.5561 20.9286 15.4605C20.7034 15.3649 16.3456 14.7481 16.0927 14.3903C15.8398 14.0326 14.2114 7.64852 12.9531 8.58608Z" fill="#72160D"/>
<path d="M7.76572 32.4384C7.76572 32.3798 7.76572 32.3181 7.76572 32.2595C7.78789 31.6441 8.04796 31.0613 8.49117 30.6337C8.93439 30.2062 9.52619 29.9673 10.142 29.9673C10.7578 29.9673 11.3496 30.2062 11.7928 30.6337C12.236 31.0613 12.4961 31.6441 12.5183 32.2595C12.5183 32.3181 12.5183 32.3798 12.5183 32.4384H7.76572Z" fill="#D5D5D5"/>
<path d="M10.4767 16.9933H10.0603V32.4384H10.4767V16.9933Z" fill="#D5D5D5"/>
<path d="M14.3841 18.1992H5.92144C5.21117 18.1992 4.63538 18.775 4.63538 19.4853V21.8107C4.63538 22.5209 5.21117 23.0967 5.92144 23.0967H14.3841C15.0944 23.0967 15.6702 22.5209 15.6702 21.8107V19.4853C15.6702 18.775 15.0944 18.1992 14.3841 18.1992Z" fill="#D5D5D5"/>
<path d="M15.2755 18.5599H7.07492V20.5276C7.07492 21.0396 7.27833 21.5307 7.64039 21.8927C8.00245 22.2548 8.49352 22.4582 9.00555 22.4582H15.2755C15.529 22.4582 15.7801 22.4083 16.0143 22.3113C16.2485 22.2142 16.4614 22.072 16.6407 21.8927C16.8199 21.7135 16.9621 21.5006 17.0592 21.2664C17.1562 21.0322 17.2061 20.7811 17.2061 20.5276V20.4906C17.2061 20.237 17.1562 19.986 17.0592 19.7517C16.9621 19.5175 16.8199 19.3047 16.6407 19.1254C16.4614 18.9461 16.2485 18.8039 16.0143 18.7069C15.7801 18.6099 15.529 18.5599 15.2755 18.5599Z" fill="#DA3F3A"/>
<path d="M7.07491 18.5354H13.1937L13.9586 9.47125C13.9748 9.27924 13.951 9.08596 13.8886 8.90365C13.8262 8.72134 13.7266 8.55398 13.5961 8.41219C13.4656 8.2704 13.3071 8.15726 13.1306 8.07996C12.9541 8.00266 12.7634 7.96288 12.5707 7.96314H7.71023C7.51753 7.96288 7.32689 8.00266 7.15038 8.07996C6.97387 8.15726 6.81535 8.2704 6.68487 8.41219C6.55439 8.55398 6.45479 8.72134 6.39239 8.90365C6.32999 9.08596 6.30615 9.27924 6.32239 9.47125L7.07491 18.5354Z" fill="#833125"/>
<path d="M9.7488 8.52749H10.6987C10.7746 8.52281 10.8489 8.50307 10.9171 8.46941C10.9854 8.43575 11.0462 8.38886 11.0962 8.33146C11.1461 8.27405 11.1841 8.20729 11.208 8.13505C11.2319 8.06281 11.2412 7.98654 11.2353 7.91067V6.73872C11.2429 6.58806 11.1909 6.44046 11.0904 6.3279C10.99 6.21534 10.8493 6.14687 10.6987 6.13733H9.7488C9.5985 6.14686 9.45806 6.21543 9.35811 6.32809C9.25816 6.44075 9.20681 6.58836 9.21525 6.73872V7.91067C9.20895 7.98638 9.21783 8.06258 9.24137 8.1348C9.26491 8.20703 9.30263 8.27382 9.35232 8.33128C9.40202 8.38873 9.46269 8.43568 9.53077 8.46937C9.59885 8.50307 9.67298 8.52282 9.7488 8.52749Z" fill="#FCA89E"/>
<path d="M12.506 6.1497C12.1235 7.44193 11.0441 7.24146 9.75188 6.86212C9.43975 6.77572 9.14795 6.62802 8.8935 6.42766C8.63905 6.22729 8.42705 5.97826 8.26985 5.6951C8.11265 5.41194 8.01341 5.10031 7.97792 4.7784C7.94243 4.45648 7.97139 4.13071 8.06312 3.82011C8.15485 3.5095 8.3075 3.22026 8.51219 2.96928C8.71687 2.71829 8.96949 2.51057 9.25529 2.35823C9.5411 2.2059 9.85438 2.112 10.1769 2.08201C10.4993 2.05203 10.8246 2.08655 11.1336 2.18357C12.4258 2.56292 12.8884 4.85747 12.506 6.1497Z" fill="#FCA89E"/>
<path d="M9.81972 3.39255C9.81972 3.39255 9.81972 4.25609 9.69944 4.25609C9.54396 4.20385 9.37655 4.19851 9.21807 4.24074C9.05958 4.28297 8.91701 4.37089 8.80814 4.49356C8.48123 4.90992 8.83898 5.32318 9.22449 5.41879C9.61 5.51439 9.34169 6.5198 8.42263 6.34401C7.50358 6.16822 7.189 3.99703 7.64853 3.16433C8.10806 2.33163 9.64084 1.39715 10.1775 1.45575C10.7141 1.51434 15.2384 2.88676 15.2384 2.88676L9.81972 3.39255Z" fill="#E9E9E9"/>
<path d="M17.0858 20.0805L18.0974 31.3219H16.6109C16.6109 31.3219 14.2361 24.0034 13.9956 21.6256C13.755 19.2478 15.4821 19.6641 15.4821 19.6641L17.0858 20.0805Z" fill="#DA3F3A"/>
<path d="M12.3919 20.0805L13.4035 31.3219H11.9169C11.9169 31.3219 9.54218 24.0034 9.30471 21.6256C9.06724 19.2478 10.7943 19.6641 10.7943 19.6641L12.3919 20.0805Z" fill="#DA3F3A"/>
<path d="M18.0666 31.3219H16.6109V32.4383H19.5623C19.7566 32.4383 19.8245 32.0004 19.6549 31.9048L18.0666 31.3219Z" fill="#E9E9E9"/>
<path d="M13.4034 31.3219H11.9477V32.4383H14.8992C15.0935 32.4383 15.1613 32.0004 14.9917 31.9048L13.4034 31.3219Z" fill="#E9E9E9"/>
<path d="M44.7593 16.8329H3.05176e-05V17.4836H44.7593V16.8329Z" fill="#07659B"/>
<path d="M0.237505 16.9531H3.05176e-05V32.3982H0.237505V16.9531Z" fill="#07659B"/>
<path d="M44.7593 16.9531H44.5218V32.3982H44.7593V16.9531Z" fill="#07659B"/>
<path d="M34.3258 5.35389C34.0914 5.35389 33.8623 5.42342 33.6675 5.55369C33.4727 5.68396 33.3209 5.8691 33.2314 6.08568C33.1418 6.30226 33.1185 6.54054 33.1645 6.77035C33.2104 7.00016 33.3235 7.21118 33.4895 7.37668C33.6554 7.54218 33.8667 7.65473 34.0966 7.70008C34.3266 7.74542 34.5648 7.72153 34.7811 7.63142C34.9975 7.54131 35.1822 7.38904 35.312 7.19388C35.4418 6.99872 35.5107 6.76945 35.5101 6.53509C35.5101 6.37971 35.4794 6.22586 35.4199 6.08235C35.3603 5.93884 35.273 5.80848 35.163 5.69876C35.053 5.58903 34.9224 5.50209 34.7788 5.44291C34.6351 5.38373 34.4812 5.35348 34.3258 5.35389ZM34.3258 7.29686C34.1751 7.29686 34.0278 7.25218 33.9026 7.16847C33.7773 7.08477 33.6797 6.9658 33.622 6.8266C33.5644 6.68741 33.5493 6.53424 33.5787 6.38647C33.6081 6.23871 33.6806 6.10297 33.7871 5.99644C33.8937 5.8899 34.0294 5.81735 34.1772 5.78796C34.3249 5.75856 34.4781 5.77365 34.6173 5.83131C34.7565 5.88896 34.8755 5.9866 34.9592 6.11187C35.0429 6.23714 35.0876 6.38442 35.0876 6.53509C35.0867 6.73687 35.0062 6.93016 34.8635 7.07284C34.7209 7.21553 34.5276 7.29604 34.3258 7.29686Z" fill="#FF645F"/>
<path d="M33.1631 6.3656H35.5101C35.5101 6.3656 36.093 9.61622 34.1932 9.51445C32.3829 9.41576 33.1631 6.3656 33.1631 6.3656Z" fill="#FF645F"/>
<path d="M32.4877 8.58608C33.857 9.60691 31.1924 15.4913 30.7051 15.7843C30.2178 16.0773 25.3265 16.9193 24.9348 16.8853C24.5431 16.8514 24.2871 15.5561 24.5154 15.4605C24.7436 15.3649 29.086 14.7481 29.345 14.3903C29.6041 14.0326 31.2263 7.64852 32.4877 8.58608Z" fill="#2B79E6"/>
<path d="M6.43032 8.6847C5.06098 9.70244 7.72871 15.5899 8.21291 15.8799C8.69711 16.1698 13.5946 17.0148 13.9832 16.984C14.3718 16.9531 14.634 15.6547 14.4057 15.556C14.1775 15.4573 9.83514 14.8436 9.57608 14.4951C9.31701 14.1466 7.71021 7.74405 6.43032 8.6847Z" fill="#72160D"/>
<path d="M15.2242 13.7254L14.9043 13.8557L16.1595 16.9376L16.4794 16.8073L15.2242 13.7254Z" fill="#29266B"/>
<path d="M14.2114 15.6547C14.6 15.5252 15.5067 15.297 15.7997 15.6208C16.0927 15.9446 16.9347 16.7897 16.6417 16.8853C15.7593 16.986 14.8706 17.019 13.9832 16.984C13.5298 16.9624 14.2114 15.6547 14.2114 15.6547Z" fill="#FCA89E"/>
<path d="M39.0044 8.68482C40.3737 9.70256 37.7091 15.5901 37.2218 15.88C36.7345 16.1699 31.8401 17.0149 31.4576 16.9841C31.0752 16.9532 30.81 15.6548 31.0351 15.5561C31.2603 15.4575 35.6057 14.8437 35.8679 14.486C36.13 14.1282 37.7399 7.74417 39.0044 8.68482Z" fill="#2B79E6"/>
<path d="M30.2126 13.7246L28.9574 16.8065L29.2773 16.9368L30.5325 13.8549L30.2126 13.7246Z" fill="#29266B"/>
<path d="M31.2263 15.6547C30.8346 15.5252 29.9279 15.297 29.6349 15.6208C29.3419 15.9446 28.5031 16.7897 28.793 16.8853C29.6753 16.9859 30.5641 17.0189 31.4514 16.984C31.9048 16.9624 31.2263 15.6547 31.2263 15.6547Z" fill="#FCA89E"/>
<path d="M24.0713 14.0049H21.3511V16.8361H24.0713V14.0049Z" fill="#E6F9FF"/>
<path d="M24.9224 16.3086H20.503C20.3582 16.3086 20.2408 16.426 20.2408 16.5707V16.5738C20.2408 16.7186 20.3582 16.836 20.503 16.836H24.9224C25.0672 16.836 25.1846 16.7186 25.1846 16.5738V16.5707C25.1846 16.426 25.0672 16.3086 24.9224 16.3086Z" fill="#EDEDED"/>
<path d="M30.5694 4.89758H15.0194C14.8662 4.89758 14.7419 5.02185 14.7419 5.17515V14.1714C14.7419 14.3247 14.8662 14.449 15.0194 14.449H30.5694C30.7227 14.449 30.8469 14.3247 30.8469 14.1714V5.17515C30.8469 5.02185 30.7227 4.89758 30.5694 4.89758Z" fill="#EDEDED"/>
<path d="M23.3218 9.44963C23.3218 9.55393 23.2909 9.6559 23.2329 9.74262C23.175 9.82935 23.0926 9.89694 22.9963 9.93686C22.8999 9.97678 22.7939 9.98722 22.6915 9.96687C22.5892 9.94652 22.4953 9.8963 22.4215 9.82254C22.3478 9.74879 22.2975 9.65482 22.2772 9.55251C22.2568 9.45021 22.2673 9.34417 22.3072 9.24781C22.3471 9.15144 22.4147 9.06908 22.5014 9.01113C22.5882 8.95318 22.6901 8.92225 22.7944 8.92225C22.8638 8.92184 22.9326 8.9352 22.9967 8.96156C23.0609 8.98792 23.1192 9.02675 23.1683 9.0758C23.2173 9.12486 23.2561 9.18316 23.2825 9.24733C23.3089 9.3115 23.3222 9.38026 23.3218 9.44963Z" fill="white"/>
<path d="M9.47429 1.25216C9.86597 1.89365 9.7827 2.66467 9.25532 2.97616C8.72794 3.28765 8.02169 3.01934 7.62384 2.37785C7.226 1.73636 7.33085 0.962259 7.83973 0.650767C8.3486 0.339275 9.08261 0.616842 9.47429 1.25216Z" fill="#E9E9E9"/>
<path d="M29.931 7.13347L29.234 4.22518C28.9934 3.22594 28.722 2.50427 27.4051 2.30997V2.20203C28.7899 2.40249 29.0829 3.19202 29.3265 4.20051L30.0235 7.1088L29.931 7.13347Z" fill="#E9E9E9"/>
<path d="M26.4213 2.29452L19.4976 2.14648L20.503 4.99309L25.7952 4.98384L26.4213 2.29452Z" fill="#1958DB"/>
<path d="M23.1121 4.25603L18.1652 2.30072L23.2971 0L28.2717 2.35007L23.1121 4.25603Z" fill="#29266B"/>
<path d="M29.4745 8.46579L29.8446 6.53516L31.0474 8.08953L29.4745 8.46579Z" fill="#29266B"/>
</svg>
