<svg width="36" height="31" viewBox="0 0 36 31" fill="none" xmlns="http://www.w3.org/2000/svg">
<path d="M6.13869 30.0197H35.728V20.2992H6.13869C4.66386 20.2992 3.46701 21.7972 3.46701 23.6281V26.6908C3.46701 28.5483 4.66386 30.0197 6.13869 30.0197Z" fill="#1194C8"/>
<path d="M6.48736 28.8965H34.9163V21.5962H6.48736C5.37856 21.5962 5.37856 28.8965 6.48736 28.8965Z" fill="white"/>
<path d="M5.86068 10.5587H35.4499V0.818237H5.86068C4.38585 0.818237 3.189 2.3096 3.189 4.14717V7.20314C3.189 9.06068 4.38585 10.5587 5.86068 10.5587Z" fill="#E9E9E9"/>
<path d="M29.597 10.5587H0V20.2992H29.597C31.0718 20.2992 32.2687 18.8078 32.2687 16.9702V13.9076C32.2609 12.0434 31.0641 10.5587 29.597 10.5587Z" fill="#833125"/>
<path d="M29.5331 18.7884H1.10411V12.0496H29.5331C30.6419 12.0496 30.6419 18.7884 29.5331 18.7884Z" fill="white"/>
<path d="M29.1379 12.6327H1.75433V13.0255H29.1379V12.6327Z" fill="#E6E6E6"/>
<path d="M29.1379 13.9442H1.75433V14.337H29.1379V13.9442Z" fill="#E6E6E6"/>
<path d="M29.1379 15.2559H1.75433V15.6487H29.1379V15.2559Z" fill="#E6E6E6"/>
<path d="M29.1379 16.5674H1.75433V16.9602H29.1379V16.5674Z" fill="#E6E6E6"/>
<path d="M29.1379 17.879H1.75433V18.2718H29.1379V17.879Z" fill="#E6E6E6"/>
<path d="M6.4784 28.3808H31.2907V21.7395H6.4784C5.51066 21.7395 5.51066 28.3808 6.4784 28.3808Z" fill="white"/>
<path d="M6.9787 22.4265H34.2661V22.792H6.9787V22.4265Z" fill="#E6E6E6"/>
<path d="M6.9787 23.6469H34.2661V24.0123H6.9787V23.6469Z" fill="#E6E6E6"/>
<path d="M6.9787 24.8672H34.2661V25.2327H6.9787V24.8672Z" fill="#E6E6E6"/>
<path d="M6.9787 26.0876H34.2661V26.4531H6.9787V26.0876Z" fill="#E6E6E6"/>
<path d="M6.9787 27.308H34.2661V27.6735H6.9787V27.308Z" fill="#E6E6E6"/>
<path d="M5.46671 9.40193H34.666V1.82959H5.46671C4.32787 1.82959 4.32787 9.40193 5.46671 9.40193Z" fill="white"/>
<path d="M6.05548 2.61292H34.266V3.02964H6.05548V2.61292Z" fill="#E6E6E6"/>
<path d="M6.05548 4.00439H34.266V4.42112H6.05548V4.00439Z" fill="#E6E6E6"/>
<path d="M6.05548 5.39575H34.266V5.81248H6.05548V5.39575Z" fill="#E6E6E6"/>
<path d="M6.05548 6.78723H34.266V7.20396H6.05548V6.78723Z" fill="#E6E6E6"/>
<path d="M6.05548 8.17871H34.266V8.59542H6.05548V8.17871Z" fill="#E6E6E6"/>
</svg>
