<svg width="57" height="42" viewBox="0 0 57 42" fill="none" xmlns="http://www.w3.org/2000/svg">
<g clip-path="url(#clip0)">
<path d="M15.1267 23.958C15.1057 23.9599 15.0845 23.9599 15.0635 23.958L11.8041 23.609L11.3892 22.2235L15.1375 22.9417L18.7451 21.9635L18.9579 22.7635L15.2854 23.9417C15.2338 23.9562 15.1801 23.9617 15.1267 23.958Z" fill="#FCA89E"/>
<path d="M12.9206 22.3254L12.3344 23.9617L11.2124 23.4545C11.1201 23.4128 11.037 23.3529 10.968 23.2783C10.8991 23.2037 10.8457 23.1158 10.811 23.02C10.7764 22.9242 10.7612 22.8224 10.7663 22.7206C10.7714 22.6187 10.7967 22.519 10.8408 22.4272C10.9977 22.1017 11.2016 21.8726 11.5623 21.9635L12.9206 22.3254Z" fill="#2B79E6"/>
<path d="M14.158 38.778L14.2013 37.3762H15.289L15.2313 38.778H14.158Z" fill="#FCA89E"/>
<path d="M7.67337 40.8163L8.15138 39.1363L7.14486 38.9363L6.49008 40.8163H7.67337Z" fill="#FCA89E"/>
<path d="M12.2063 29.3108L12.5328 30.6235L8.59329 30.7944C8.59329 30.7944 8.265 29.6508 8.69611 29.1708C9.28414 28.5144 12.2063 29.3108 12.2063 29.3108Z" fill="#2F3D6E"/>
<path d="M9.65393 30.6491L14.1634 32.9818L14.0804 38.1418L15.3431 38.1054L15.9348 32.7418C15.9486 32.6325 15.9335 32.5215 15.891 32.4199C15.8486 32.3184 15.7803 32.23 15.693 32.1636L12.2911 29.6509L9.65393 30.6491Z" fill="#2F3D6E"/>
<path d="M8.60954 30.5672L8.4508 34.5017L6.56223 40.2563H8.04314L10.3448 34.8017C10.3832 34.7086 10.4093 34.6108 10.4224 34.5108L11.1601 29.8472L8.60954 30.5672Z" fill="#2F3D6E"/>
<path d="M15.6033 37.7036L13.8536 37.7131L13.8569 38.3277L15.6066 38.3181L15.6033 37.7036Z" fill="#6072A6"/>
<path d="M8.38225 39.7726L6.54779 39.6671L6.43054 40.2707L8.265 40.3762L8.38225 39.7726Z" fill="#6072A6"/>
<path d="M14.158 38.7781L14.0101 39.6708C14.0101 39.7335 14.0348 39.7936 14.0788 39.8379C14.1228 39.8823 14.1824 39.9072 14.2446 39.9072H16.5048C16.5307 39.9074 16.5565 39.9025 16.5806 39.8926C16.6046 39.8828 16.6265 39.8682 16.645 39.8498C16.6634 39.8313 16.678 39.8094 16.688 39.7852C16.698 39.7611 16.7032 39.7352 16.7032 39.709C16.7031 39.6784 16.6961 39.6482 16.6826 39.6208C16.6692 39.5934 16.6497 39.5694 16.6256 39.5508L15.2331 38.7799L14.158 38.7781Z" fill="#222C38"/>
<path d="M6.49367 40.8163L6.22852 41.7072C6.22852 41.7699 6.25322 41.83 6.2972 41.8743C6.34117 41.9187 6.40082 41.9436 6.46301 41.9436H8.94503C8.99766 41.9436 9.04813 41.9225 9.08534 41.885C9.12255 41.8475 9.14345 41.7966 9.14345 41.7436C9.14352 41.7132 9.13655 41.6832 9.12308 41.6561C9.10961 41.6289 9.09002 41.6053 9.06589 41.5872L7.67336 40.8163H6.49367Z" fill="#222C38"/>
<path d="M9.58176 22.1199C8.47422 22.7671 8.5103 23.6853 8.41289 24.8344L7.74188 29.3435C9.87217 30.1144 12.3939 29.1908 12.3939 29.1908V23.5908C12.3939 23.0617 11.8112 21.8381 11.0609 21.8544C11.0609 21.8544 10.48 21.5962 9.58176 22.1199Z" fill="#6484F1"/>
<path d="M10.5089 22.3253H10.7019C10.8217 22.3244 10.9363 22.276 11.021 22.1906C11.1058 22.1052 11.1538 21.9897 11.1547 21.869L11.1691 19.9108H10.0634L10.0508 21.8599C10.0498 21.9209 10.061 21.9816 10.0836 22.0383C10.1063 22.095 10.1399 22.1465 10.1826 22.1899C10.2253 22.2332 10.2762 22.2676 10.3322 22.2908C10.3882 22.3141 10.4483 22.3258 10.5089 22.3253Z" fill="#FCA89E"/>
<path d="M13.3896 26.0836C13.3029 26.0833 13.2175 26.0621 13.1407 26.0217L10.4097 24.9617L10.1247 23.1963L13.4924 24.9926L16.9611 24.8108L17.0603 25.6508L13.4527 26.0836H13.3896Z" fill="#FCA89E"/>
<path d="M12.0115 23.8181L11.0032 25.5454L9.61966 24.4363C9.53166 24.3717 9.45749 24.29 9.40161 24.1958C9.34573 24.1017 9.30928 23.9972 9.29446 23.8885C9.27964 23.7799 9.28674 23.6693 9.31534 23.5635C9.34395 23.4576 9.39347 23.3587 9.46092 23.2726C9.57565 23.1235 9.73831 23.0192 9.92098 22.9777C10.1036 22.9363 10.2949 22.9602 10.462 23.0454L12.0115 23.8181Z" fill="#6484F1"/>
<path d="M11.1763 25.2599L11.0104 25.5453L9.65393 24.8071" stroke="#2B79E6" stroke-width="0.71" stroke-miterlimit="10"/>
<path d="M11.8527 24.0944L12.0115 23.8181L10.1518 22.8145" stroke="#2B79E6" stroke-width="0.71" stroke-miterlimit="10"/>
<path d="M10.0508 21.0145C10.0508 21.0145 10.3538 21.7764 11.1565 21.7164V21.1182L10.0508 21.0145Z" fill="#DC9B85"/>
<path d="M12.1648 18.4708C12.1648 18.4708 13.3066 18.6072 12.264 19.7908L11.9646 18.9836L12.1648 18.4708Z" fill="#3B3142"/>
<path d="M11.0032 21.4545C11.3472 21.454 11.677 21.3162 11.9204 21.0712C12.1638 20.8262 12.301 20.494 12.3019 20.1472V18.8745C12.3014 18.7237 12.2418 18.5793 12.136 18.4726C12.0302 18.366 11.8869 18.3059 11.7373 18.3054H10.2817C10.1321 18.3059 9.98874 18.366 9.88296 18.4726C9.77718 18.5793 9.71755 18.7237 9.71707 18.8745V20.1472C9.718 20.4918 9.85346 20.8221 10.0941 21.0667C10.3348 21.3114 10.6614 21.4507 11.0032 21.4545Z" fill="#FCA89E"/>
<path d="M9.92089 19.7908C10.0313 19.7297 10.1284 19.6469 10.2066 19.5473C10.2848 19.4478 10.3423 19.3335 10.376 19.2111C10.4096 19.0888 10.4186 18.9609 10.4024 18.835C10.3862 18.7091 10.3451 18.5877 10.2816 18.4781H9.56013C9.4909 18.4668 9.41991 18.4761 9.35583 18.5048C9.29176 18.5335 9.23739 18.5805 9.19937 18.6399C9.04063 18.8526 9.43025 19.7908 9.43025 19.7908H9.92089Z" fill="#3B3142"/>
<path d="M10.3358 18.6072C10.3358 18.6072 12.4336 19.2199 12.7745 18.2635C13.1353 17.2417 12.053 17.0599 11.5551 17.0944C10.3159 17.1781 9.01901 17.8017 9.65394 18.7072L10.3358 18.6072Z" fill="#3B3142"/>
<path d="M9.14164 19.9581C9.14164 20.0509 9.16893 20.1416 9.22007 20.2187C9.2712 20.2959 9.34389 20.356 9.42892 20.3915C9.51396 20.427 9.60753 20.4363 9.69781 20.4182C9.78808 20.4001 9.871 20.3554 9.93609 20.2898C10.0012 20.2242 10.0455 20.1406 10.0635 20.0496C10.0814 19.9586 10.0722 19.8643 10.037 19.7786C10.0017 19.6929 9.9421 19.6196 9.86557 19.5681C9.78903 19.5165 9.69906 19.489 9.60701 19.489C9.54583 19.4888 9.48521 19.5007 9.42864 19.5242C9.37207 19.5477 9.32067 19.5823 9.27741 19.6259C9.23415 19.6695 9.19988 19.7213 9.17657 19.7783C9.15327 19.8353 9.1414 19.8964 9.14164 19.9581Z" fill="#FCA89E"/>
<path d="M33.9294 30.4037C34.288 30.4042 34.6426 30.4803 34.9702 30.6273C34.9702 30.6273 35.4825 30.9091 35.8956 30.7273V24.6818C35.8946 24.4052 35.7853 24.1401 35.5914 23.9443C35.3975 23.7485 35.1347 23.6378 34.8602 23.6364H29.0646C28.8535 23.2109 29.1494 22.6746 29.1494 22.6746C29.3242 22.2784 29.398 21.8445 29.3641 21.4123C29.3303 20.9801 29.1898 20.5633 28.9554 20.1997C28.7211 19.8362 28.4004 19.5374 28.0224 19.3306C27.6443 19.1237 27.221 19.0154 26.7909 19.0154C26.3608 19.0154 25.9375 19.1237 25.5595 19.3306C25.1814 19.5374 24.8607 19.8362 24.6264 20.1997C24.392 20.5633 24.2515 20.9801 24.2177 21.4123C24.1838 21.8445 24.2576 22.2784 24.4324 22.6746C24.4324 22.6746 24.7283 23.22 24.5172 23.6364H18.718C18.4426 23.6364 18.1784 23.7464 17.9833 23.9424C17.7882 24.1383 17.6782 24.4042 17.6772 24.6818V40.9546C17.6775 41.0921 17.7046 41.2282 17.757 41.3552C17.8094 41.4822 17.8862 41.5975 17.9828 41.6946C18.0794 41.7917 18.1941 41.8686 18.3203 41.921C18.4464 41.9734 18.5816 42.0003 18.718 42H34.8602C34.9968 42.0003 35.1321 41.9734 35.2584 41.9208C35.3846 41.8683 35.4994 41.7912 35.596 41.6939C35.6927 41.5967 35.7694 41.4811 35.8217 41.354C35.8741 41.2268 35.901 41.0904 35.901 40.9528V35.2855C35.4825 35.1037 34.9702 35.3837 34.9702 35.3837C34.619 35.5401 34.2375 35.6155 33.8536 35.6044C33.4698 35.5933 33.0932 35.4959 32.7514 35.3194C32.4097 35.1429 32.1113 34.8917 31.8782 34.5841C31.645 34.2765 31.4829 33.9204 31.4037 33.5416C31.3245 33.1629 31.3302 32.7711 31.4204 32.3948C31.5106 32.0185 31.683 31.6673 31.9251 31.3668C32.1671 31.0663 32.4727 30.824 32.8194 30.6577C33.1662 30.4914 33.5454 30.4052 33.9294 30.4055V30.4037Z" fill="#FF645F"/>
<path d="M53.1146 23.6618H47.4904C47.31 24.0836 47.5878 24.5999 47.5878 24.5999C47.7344 24.9306 47.81 25.2887 47.8097 25.6508C47.8109 26.0388 47.7261 26.4222 47.5613 26.7729C47.3966 27.1235 47.1561 27.4326 46.8575 27.6775C46.5589 27.9224 46.2098 28.0968 45.8357 28.1881C45.4615 28.2794 45.0719 28.2852 44.6953 28.205C44.3187 28.1249 43.9646 27.9609 43.659 27.7249C43.3534 27.489 43.104 27.1872 42.9291 26.8416C42.7542 26.496 42.6582 26.1153 42.6481 25.7274C42.638 25.3395 42.7141 24.9543 42.8709 24.5999C42.8709 24.5999 43.1559 24.0836 42.9683 23.6618H36.9779C36.702 23.6622 36.4375 23.7729 36.2424 23.9696C36.0473 24.1662 35.9375 24.4328 35.9371 24.7108V30.7272C35.515 30.9399 34.9829 30.6436 34.9829 30.6436C34.5902 30.4687 34.1604 30.3953 33.7325 30.4302C33.3046 30.4651 32.8921 30.607 32.5324 30.8432C32.1727 31.0794 31.8772 31.4023 31.6726 31.7828C31.468 32.1632 31.3609 32.589 31.3609 33.0218C31.3609 33.4545 31.468 33.8803 31.6726 34.2608C31.8772 34.6412 32.1727 34.9641 32.5324 35.2003C32.8921 35.4365 33.3046 35.5784 33.7325 35.6133C34.1604 35.6482 34.5902 35.5748 34.9829 35.3999C34.9829 35.3999 35.515 35.1036 35.9371 35.3163V40.9872C35.9375 41.2651 36.0474 41.5315 36.2425 41.7279C36.4377 41.9242 36.7021 42.0345 36.9779 42.0345H53.1218C53.3974 42.0345 53.6617 41.9241 53.8565 41.7277C54.0514 41.5313 54.1608 41.265 54.1608 40.9872V24.7145C54.1613 24.576 54.1346 24.4387 54.0821 24.3106C54.0297 24.1826 53.9526 24.0662 53.8554 23.9684C53.7581 23.8705 53.6425 23.793 53.5154 23.7404C53.3883 23.6878 53.2521 23.661 53.1146 23.6618Z" fill="#D9D9D9"/>
<path d="M18.911 23.6363H24.5317C24.7211 23.2145 24.4361 22.6982 24.4361 22.6982C24.2626 22.3024 24.1898 21.8692 24.2244 21.4379C24.259 21.0066 24.3998 20.5908 24.6341 20.2282C24.8684 19.8656 25.1888 19.5677 25.5662 19.3615C25.9436 19.1553 26.3661 19.0473 26.7954 19.0473C27.2247 19.0473 27.6472 19.1553 28.0246 19.3615C28.402 19.5677 28.7224 19.8656 28.9567 20.2282C29.1911 20.5908 29.3319 21.0066 29.3665 21.4379C29.4011 21.8692 29.3283 22.3024 29.1548 22.6982C29.1548 22.6982 28.8698 23.2145 29.0574 23.6363H35.0532C35.3293 23.6363 35.594 23.5258 35.7892 23.3291C35.9844 23.1323 36.094 22.8655 36.094 22.5872V16.58C36.5179 16.3672 37.0482 16.6654 37.0482 16.6654C37.4409 16.8403 37.8706 16.9137 38.2985 16.8788C38.7264 16.8439 39.1389 16.702 39.4986 16.4658C39.8583 16.2296 40.1539 15.9067 40.3584 15.5263C40.563 15.1458 40.6702 14.72 40.6702 14.2872C40.6702 13.8545 40.563 13.4287 40.3584 13.0482C40.1539 12.6678 39.8583 12.3449 39.4986 12.1087C39.1389 11.8725 38.7264 11.7306 38.2985 11.6957C37.8706 11.6608 37.4409 11.7342 37.0482 11.9091C37.0482 11.9091 36.5179 12.2072 36.094 11.9945V6.3218C36.094 6.04356 35.9844 5.77672 35.7892 5.57998C35.594 5.38323 35.3293 5.27271 35.0532 5.27271H18.911C18.635 5.27271 18.3703 5.38323 18.1751 5.57998C17.9799 5.77672 17.8702 6.04356 17.8702 6.3218V22.5927C17.8717 22.87 17.982 23.1354 18.177 23.331C18.372 23.5266 18.6359 23.6363 18.911 23.6363Z" fill="#D9D9D9"/>
<path d="M16.8402 25.5345C17.1036 25.8455 17.8504 25.82 18.1769 25.5345C18.2545 25.4721 18.3192 25.3949 18.3671 25.3072C18.4151 25.2195 18.4454 25.1232 18.4563 25.0236C18.4672 24.9241 18.4584 24.8234 18.4306 24.7273C18.4028 24.6312 18.3564 24.5416 18.2941 24.4636C18.0307 24.1527 17.4481 24.1855 17.1216 24.4636C16.7951 24.7418 16.5787 25.2255 16.8402 25.5345Z" fill="#FCA89E"/>
</g>
<defs>
<clipPath id="clip0">
<rect width="57" height="42" fill="white"/>
</clipPath>
</defs>
</svg>
