<svg width="55" height="50" viewBox="0 0 55 50" fill="none" xmlns="http://www.w3.org/2000/svg">
<path d="M19.2835 38.428C17.1855 37.3426 14.2924 35.092 13.5496 32.6036C12.7328 29.8696 14.5108 28.5345 13.475 26.8839C11.7289 24.1047 10.1044 24.2781 7.9579 22.8997C6.36921 21.8765 4.76331 19.2453 6.60778 17.2456C9.07822 14.5727 10.9588 17.7332 12.9078 15.7224C14.2317 14.3606 14.3012 8.76176 18.3765 10.0999C23.4596 11.7714 17.9956 17.664 18.4028 18.7049C19.3985 21.27 20.5227 16.3399 22.3789 19.0384C23.4199 20.5498 19.7309 23.3573 21.5123 25.1916C22.9501 26.6729 24.1777 28.1248 23.7964 32.1193C23.415 36.1138 22.4064 36.8389 22.4064 36.8389L19.2835 38.428Z" fill="#A2CCDA"/>
<path d="M21.5115 38.5024L21.3576 38.5601C21.2095 37.9559 21.0984 37.3428 21.0247 36.7245C20.6282 34.1251 19.8899 29.2895 18.1945 27.6192C15.9341 25.3902 13.9349 21.2668 14.6868 18.0206C15.1718 16.0122 16.0013 14.107 17.1369 12.393L17.2701 12.4892C16.1466 14.1865 15.3251 16.0722 14.843 18.0601C14.1052 21.2461 16.0772 25.3018 18.3091 27.4994C20.0416 29.2105 20.7587 33.8967 21.1834 36.6973C21.257 37.3052 21.3666 37.908 21.5115 38.5024Z" fill="white"/>
<path d="M20.5164 37.8299C19.4208 36.7551 18.4262 35.5783 17.5456 34.3146C16.1185 32.391 15.9262 31.1704 15.6337 29.4485C15.539 28.8777 15.4352 28.2338 15.2694 27.4964C14.0559 22.0873 10.1438 19.9639 8.4949 19.0385L8.38122 18.9765L8.45816 18.8278L8.5747 18.893C10.2563 19.8166 14.1968 21.9775 15.4285 27.4571C15.5941 28.2005 15.7007 28.8476 15.8097 29.4341C16.0858 31.119 16.2842 32.3337 17.6887 34.2262C18.5711 35.4794 19.5638 36.6478 20.6545 37.717L20.5164 37.8299Z" fill="white"/>
<path d="M22.2841 37.8834L22.1278 37.9259C21.606 36.2283 21.4728 34.4314 21.7383 32.6731L21.7975 32.2023C22.0574 30.2623 22.3508 28.0629 20.3642 26.5451C18.5675 25.1984 17.7075 23.6213 17.7872 21.8866L17.9504 21.896C17.876 23.5672 18.7204 25.0891 20.4614 26.4124C22.5177 27.9753 22.201 30.3195 21.946 32.2081L21.8868 32.6789C21.6275 34.4219 21.7634 36.2023 22.2841 37.8834Z" fill="white"/>
<path fill-rule="evenodd" clip-rule="evenodd" d="M45.022 8.88871L45.9772 9.51177C46.2582 9.69503 46.3197 9.97553 46.1976 10.2964L45.4183 11.791C45.6074 11.9945 45.7608 12.2548 45.9142 12.5151L47.5525 12.3018C47.8842 12.2779 48.1652 12.4611 48.2267 12.7416L48.473 13.8637C48.5345 14.1442 48.3562 14.4284 48.045 14.5459L46.4683 15.0396C46.438 15.3403 46.3515 15.6044 46.3212 15.9051L47.6546 16.935C47.8999 17.1751 47.9615 17.4557 47.7831 17.7399L47.1768 18.7064C47.0341 18.9338 46.7229 19.0512 46.442 18.868L44.9302 18.1222C44.6752 18.2763 44.4763 18.4671 44.257 18.5643L44.4427 20.2878C44.5042 20.5683 44.3259 20.8525 44.0147 20.97L42.9481 21.1555C42.6368 21.273 42.3559 21.0897 42.2381 20.7726L41.7412 19.1666C41.4451 19.1337 41.1847 19.0439 40.8886 19.011L39.8846 20.359C39.6857 20.5497 39.3745 20.6672 39.0936 20.4839L38.1384 19.8609C37.9136 19.7143 37.8315 19.3402 37.9742 19.1128L38.6973 17.5816C38.5439 17.3213 38.3548 17.1179 38.2014 16.8576L36.5631 17.0708C36.2876 17.1314 36.0066 16.9481 35.9245 16.5741L35.6988 15.5456C35.6167 15.1716 35.795 14.8874 36.0706 14.8268L37.6473 14.333C37.6776 14.0323 37.7079 13.7316 37.7943 13.4676L36.4966 12.3807C36.2719 12.2341 36.1898 11.8601 36.3325 11.6327L36.9388 10.6663C37.1171 10.382 37.4489 10.3581 37.7093 10.4478L39.1853 11.2504C39.3842 11.0596 39.6392 10.9055 39.8943 10.7514L39.6729 9.08487C39.647 8.74751 39.8254 8.46326 40.1571 8.43931L41.2032 8.16026C41.5349 8.13632 41.8159 8.31957 41.8774 8.60008L42.3744 10.2061C42.6704 10.239 42.9665 10.2719 43.2269 10.3616L44.2872 9.0503C44.4655 8.76605 44.7973 8.7421 45.022 8.88871ZM43.7332 15.7391C44.3038 14.8295 44.0727 13.5571 43.1175 12.934C42.2185 12.3476 40.9325 12.6304 40.3619 13.54C39.7555 14.5065 40.0785 15.7587 40.9775 16.3451C41.9327 16.9681 43.1268 16.7056 43.7332 15.7391Z" fill="#1194C8"/>
<path fill-rule="evenodd" clip-rule="evenodd" d="M40.6863 20.7217L41.3347 20.8242C41.5746 20.8204 41.7075 20.9872 41.6567 21.1944L41.6425 22.2267C41.8111 22.3366 41.9796 22.4466 42.092 22.5199L42.9846 21.9806C43.1478 21.8467 43.3521 21.8998 43.485 22.0666L43.9398 22.6036C43.9809 22.7906 44.0219 22.9776 43.8587 23.1115L43.0633 23.8745C43.14 24.0047 43.1811 24.1917 43.2221 24.3787L44.2789 24.5874C44.427 24.6038 44.5242 24.8275 44.5653 25.0145L44.4334 25.7296C44.4182 25.8799 44.255 26.0138 44.0713 26.0542L42.9993 25.9959C42.928 26.1096 42.821 26.2802 42.714 26.4507L43.3072 27.3984C43.3839 27.5286 43.3893 27.7724 43.2617 27.8495L42.6803 28.2714C42.5171 28.4053 42.3129 28.3522 42.2005 28.2789L41.4442 27.4651C41.3167 27.5421 41.1329 27.5825 40.9849 27.5661L40.6952 28.6589C40.68 28.8093 40.5168 28.9432 40.3126 28.8901L39.6286 28.8445C39.4244 28.7914 39.2915 28.6246 39.3066 28.4742L39.3564 27.3851C39.1879 27.2751 39.0193 27.1652 38.9069 27.0919L37.9786 27.6881C37.8511 27.7651 37.6468 27.712 37.514 27.5452L37.0591 27.0082C36.9824 26.878 36.977 26.6342 37.1402 26.5003L37.8999 25.7941C37.8589 25.6071 37.8178 25.4201 37.7768 25.2331L36.72 25.0244C36.5719 25.008 36.439 24.8412 36.4336 24.5973L36.5656 23.8822C36.5807 23.7319 36.7439 23.598 36.9276 23.5576L37.9996 23.6159C38.0147 23.4655 38.1217 23.295 38.2287 23.1244L37.6561 22.2702C37.615 22.0832 37.574 21.8962 37.7372 21.7623L38.3186 21.3404C38.4818 21.2065 38.686 21.2596 38.7984 21.3329L39.5191 22.2036C39.6823 22.0697 39.866 22.0293 40.014 22.0457L40.2681 21.0097C40.3189 20.8025 40.4821 20.6686 40.6863 20.7217ZM41.7222 25.0026C41.8541 24.2875 41.3225 23.6203 40.6385 23.5747C39.9339 23.4356 39.3168 23.9143 39.2411 24.6661C39.1448 25.3243 39.6202 25.9549 40.3248 26.094C41.0088 26.1396 41.6259 25.6608 41.7222 25.0026Z" fill="#1194C8"/>
<path fill-rule="evenodd" clip-rule="evenodd" d="M47.3971 19.4911L47.8413 19.5404C47.9893 19.5569 48.066 19.687 48.0865 19.7805L48.067 20.5689C48.1588 20.5487 48.2712 20.622 48.3479 20.7522L48.9294 20.3303C49.0569 20.2532 49.2049 20.2697 49.2816 20.3999L49.6036 20.7701C49.6241 20.8636 49.609 21.014 49.5377 21.1277L49.0124 21.5862C49.0891 21.7164 49.1097 21.8099 49.0945 21.9602L49.7991 22.0993C49.9471 22.1158 50.0238 22.2459 50.0087 22.3963L49.9632 22.8473C49.9481 22.9977 49.8206 23.0747 49.6725 23.0583L48.9885 23.0127C48.9172 23.1264 48.8458 23.2401 48.7745 23.3538L49.1937 23.9477C49.2704 24.0779 49.1991 24.1916 49.1278 24.3053L48.7452 24.5364C48.6739 24.6501 48.5258 24.6337 48.4134 24.5604L47.9586 24.0233C47.8667 24.0435 47.683 24.0839 47.5911 24.1041L47.4592 24.8192C47.3879 24.9329 47.3166 25.0466 47.1685 25.0302L46.6682 24.9441C46.612 24.9075 46.4996 24.8342 46.5148 24.6838L46.4986 23.9523C46.4425 23.9156 46.3301 23.8423 46.2177 23.769L45.5801 24.1543C45.5444 24.2111 45.3964 24.1947 45.284 24.1214L44.9977 23.6943C44.8853 23.621 44.9005 23.4706 45.028 23.3936L45.5532 22.935C45.4765 22.8049 45.4917 22.6545 45.4711 22.561L44.7666 22.4219C44.6542 22.3486 44.5775 22.2184 44.557 22.1249L44.6381 21.617C44.6532 21.4667 44.7807 21.3896 44.8931 21.4629L45.6128 21.4517C45.6841 21.338 45.6636 21.2445 45.7911 21.1674L45.4076 20.5167C45.2952 20.4434 45.3104 20.293 45.4379 20.216L45.8561 19.928C45.9274 19.8143 46.0755 19.8307 46.1522 19.9609L46.6071 20.4979C46.7346 20.4209 46.8265 20.4007 46.9745 20.4171L47.1421 19.6452C47.1777 19.5883 47.2491 19.4746 47.3971 19.4911ZM48.1252 22.3694C48.1706 21.9184 47.8281 21.4546 47.3839 21.4053C46.9398 21.3559 46.5216 21.6439 46.4405 22.1518C46.3951 22.6029 46.6814 23.03 47.1817 23.116C47.6258 23.1653 48.0797 22.8205 48.1252 22.3694Z" fill="#1194C8"/>
<path d="M36.703 28.9752C36.9907 28.6819 38.3946 27.4909 38.6736 27.8723C38.9527 28.2536 37.9803 28.6056 38.0637 29.2128C38.1472 29.82 38.8635 29.5502 39.6143 29.5502C40.3652 29.5502 41.116 29.6939 40.6471 30.4595C40.1782 31.2251 36.7979 30.8907 36.7979 30.8907L36.703 28.9752Z" fill="#D3D3D3"/>
<path d="M27.316 26.5345C27.8914 26.5815 29.8505 26.6783 30.1324 30.0282C30.4143 33.3781 30.4201 36.9187 30.4201 36.9187L26.663 37.5053L27.316 26.5345Z" fill="#ABABAB"/>
<path d="M26.0473 26.1973L20.9295 26.1973C19.1929 26.1973 17.7852 27.6327 17.7852 29.4034L17.7852 35.675C17.7852 37.4457 19.1929 38.8812 20.9295 38.8812L26.0473 38.8812C27.7839 38.8812 29.1917 37.4457 29.1917 35.675L29.1917 29.4034C29.1917 27.6327 27.7839 26.1973 26.0473 26.1973Z" fill="#D1D1D1"/>
<path d="M25.3626 26.6285C25.3626 26.6285 25.1411 27.2503 24.0882 27.2151C23.5583 27.1874 23.0524 26.981 22.6498 26.6285L22.6498 23.1818L25.3626 23.1818L25.3626 26.6285Z" fill="#FFB8AF"/>
<path d="M23.1849 25.1736C24.7815 26.3469 25.8431 25.1149 26.9823 23.484C27.529 22.7013 27.7483 21.7293 27.5921 20.7817C27.436 19.8342 26.917 18.9887 26.1495 18.4313C25.3819 17.8738 24.4286 17.6501 23.4993 17.8094C22.57 17.9687 21.7408 18.4978 21.1942 19.2805C20.0549 20.9114 21.5825 24.012 23.1849 25.1736Z" fill="#FCA89E"/>
<path d="M22.1981 18.6322C22.1981 19.3978 26.0473 21.8882 27.6439 20.7384C29.2405 19.5885 28.8637 17.1978 25.8603 16.925C22.8569 16.6522 22.1981 18.6322 22.1981 18.6322Z" fill="#FF645F"/>
<path d="M19.1488 28.0189C19.5573 27.2445 20.4146 26.7282 22.1521 27.5408C23.8897 28.3533 28.0179 29.3595 28.6307 29.4093C29.2435 29.4592 36.749 28.2125 36.9734 28.5C37.1978 28.7874 37.3963 31.2749 37.0684 31.3219C36.7404 31.3688 29.7929 32.8062 28.0064 32.6624C26.2199 32.5187 22.949 31.7501 20.7914 30.6589C18.6338 29.5677 18.8179 28.6408 19.1488 28.0189Z" fill="#C2C2C2"/>
<path d="M21.5907 22.7709C21.2139 22.6741 19.3353 20.2805 20.9319 18.6642C22.5286 17.0479 23.3743 17.6962 23.6448 18.7522C23.9152 19.8082 22.494 19.5149 21.6828 20.6149C21.1678 21.3248 21.5907 22.7709 21.5907 22.7709Z" fill="#FF645F"/>
</svg>
