<svg width="47" height="25" viewBox="0 0 47 25" fill="none" xmlns="http://www.w3.org/2000/svg">
<path d="M18.7897 6.20972H0V24.2239H18.7897V6.20972Z" fill="#833125"/>
<path d="M37.5739 6.20972H18.7842V24.2239H37.5739V6.20972Z" fill="#833125"/>
<path d="M18.7841 5.75537H0.57608V23.6865H18.7841V5.75537Z" fill="#F9F9F9"/>
<path d="M36.9923 5.75537H18.7842V23.6865H36.9923V5.75537Z" fill="#B9B9B9"/>
<g opacity="0.52">
<path opacity="0.52" d="M17.6929 7.79406C17.6937 7.83017 17.6872 7.86606 17.6739 7.89963C17.6606 7.93321 17.6407 7.96379 17.6154 7.98958C17.5901 8.01538 17.56 8.03587 17.5267 8.04985C17.4934 8.06384 17.4576 8.07104 17.4215 8.07103H2.54263C2.46917 8.07103 2.39872 8.04185 2.34678 7.98991C2.29484 7.93797 2.26566 7.86752 2.26566 7.79406C2.26707 7.72105 2.29671 7.65142 2.34835 7.59978C2.39999 7.54814 2.46961 7.51851 2.54263 7.51709H17.4437C17.5162 7.51854 17.5852 7.54836 17.6359 7.60014C17.6867 7.65193 17.7151 7.72155 17.7151 7.79406H17.6929Z" fill="white"/>
</g>
<g opacity="0.52">
<path opacity="0.52" d="M35.8511 7.79406C35.8511 7.86752 35.8219 7.93797 35.7699 7.98991C35.718 8.04185 35.6476 8.07103 35.5741 8.07103H20.6731C20.637 8.07104 20.6012 8.06384 20.5679 8.04985C20.5346 8.03587 20.5044 8.01538 20.4792 7.98958C20.4539 7.96379 20.434 7.93321 20.4207 7.89963C20.4074 7.86606 20.4009 7.83017 20.4016 7.79406C20.4016 7.72155 20.43 7.65193 20.4808 7.60014C20.5315 7.54836 20.6006 7.51854 20.6731 7.51709H35.5741C35.6471 7.51851 35.7167 7.54814 35.7684 7.59978C35.82 7.65142 35.8496 7.72105 35.8511 7.79406Z" fill="white"/>
</g>
<g opacity="0.52">
<path opacity="0.52" d="M35.8511 9.56103C35.8496 9.63404 35.82 9.70367 35.7684 9.75531C35.7167 9.80695 35.6471 9.83658 35.5741 9.838H20.6731C20.6006 9.83655 20.5315 9.80673 20.4808 9.75495C20.43 9.70316 20.4016 9.63354 20.4016 9.56103C20.4009 9.52492 20.4074 9.48903 20.4207 9.45546C20.434 9.42188 20.4539 9.3913 20.4792 9.36551C20.5044 9.33972 20.5346 9.31923 20.5679 9.30524C20.6012 9.29125 20.637 9.28405 20.6731 9.28406H35.5741C35.6476 9.28406 35.718 9.31324 35.7699 9.36518C35.8219 9.41712 35.8511 9.48757 35.8511 9.56103Z" fill="white"/>
</g>
<g opacity="0.52">
<path opacity="0.52" d="M25.4482 12.2089C25.4482 12.3584 25.4094 12.4858 25.3595 12.4858H20.4904C20.4405 12.4858 20.4018 12.3584 20.4018 12.2089C20.4018 12.0538 20.4405 11.9319 20.4904 11.9319H25.3595C25.4094 11.9319 25.4482 12.0538 25.4482 12.2089Z" fill="white"/>
</g>
<g opacity="0.52">
<path opacity="0.52" d="M17.6929 9.22863C17.6937 9.26474 17.6872 9.30063 17.6739 9.33421C17.6606 9.36778 17.6407 9.39836 17.6154 9.42415C17.5901 9.44995 17.56 9.47044 17.5267 9.48442C17.4934 9.49841 17.4576 9.50561 17.4215 9.5056H2.54263C2.46917 9.5056 2.39872 9.47642 2.34678 9.42448C2.29484 9.37254 2.26566 9.30209 2.26566 9.22863C2.26707 9.15562 2.29671 9.08599 2.34835 9.03435C2.39999 8.98272 2.46961 8.95308 2.54263 8.95166H17.4437C17.5162 8.95311 17.5852 8.98293 17.6359 9.03472C17.6867 9.0865 17.7151 9.15612 17.7151 9.22863H17.6929Z" fill="white"/>
</g>
<g opacity="0.52">
<path opacity="0.52" d="M17.6929 11.9486C17.6937 11.9847 17.6872 12.0206 17.6739 12.0541C17.6606 12.0877 17.6407 12.1183 17.6154 12.1441C17.5901 12.1699 17.56 12.1904 17.5267 12.2044C17.4934 12.2183 17.4576 12.2255 17.4215 12.2255H2.54263C2.46917 12.2255 2.39872 12.1963 2.34678 12.1444C2.29484 12.0925 2.26566 12.022 2.26566 11.9486C2.26711 11.8761 2.29693 11.807 2.34871 11.7563C2.4005 11.7055 2.47012 11.6771 2.54263 11.6771H17.4437C17.5156 11.6771 17.5847 11.7057 17.6356 11.7566C17.6865 11.8075 17.7151 11.8766 17.7151 11.9486H17.6929Z" fill="white"/>
</g>
<g opacity="0.52">
<path opacity="0.52" d="M17.6929 18.4629C17.6929 18.5354 17.6645 18.605 17.6138 18.6568C17.563 18.7086 17.494 18.7384 17.4215 18.7399H2.54263C2.46961 18.7384 2.39999 18.7088 2.34835 18.6572C2.29671 18.6055 2.26707 18.5359 2.26566 18.4629C2.26566 18.3894 2.29484 18.319 2.34678 18.267C2.39872 18.2151 2.46917 18.1859 2.54263 18.1859H17.4437C17.4798 18.1859 17.5155 18.1931 17.5488 18.2071C17.5821 18.2211 17.6123 18.2416 17.6376 18.2674C17.6629 18.2932 17.6827 18.3237 17.696 18.3573C17.7093 18.3909 17.7158 18.4268 17.7151 18.4629H17.6929Z" fill="white"/>
</g>
<g opacity="0.52">
<path opacity="0.52" d="M17.6929 19.676C17.6929 19.7485 17.6645 19.8181 17.6138 19.8699C17.563 19.9217 17.494 19.9515 17.4215 19.953H2.54263C2.46961 19.9516 2.39999 19.9219 2.34835 19.8703C2.29671 19.8187 2.26707 19.749 2.26566 19.676C2.26566 19.6026 2.29484 19.5321 2.34678 19.4802C2.39872 19.4282 2.46917 19.399 2.54263 19.399H17.4437C17.4798 19.399 17.5155 19.4062 17.5488 19.4202C17.5821 19.4342 17.6123 19.4547 17.6376 19.4805C17.6629 19.5063 17.6827 19.5369 17.696 19.5704C17.7093 19.604 17.7158 19.6399 17.7151 19.676H17.6929Z" fill="white"/>
</g>
<path d="M34.5493 14.5521C36.2111 11.8378 42.7033 7.35082 42.6645 8.86862C42.4983 15.2445 46.9409 16.7401 46.736 17.7649C46.531 18.7897 43.8666 23.2434 42.5371 23.3043C41.2076 23.3653 33.0758 16.9617 34.5493 14.5521Z" fill="#FCA89E"/>
<path d="M38.0834 19.0223C36.0948 19.1331 30.4944 16.7345 30.0845 15.2444C29.3422 12.5744 28.5944 10.1371 30.0291 9.92105C31.4638 9.70501 32.4 11.9873 32.5108 13.2004C32.6216 14.4135 36.0948 14.7736 36.0948 14.7736L38.0834 19.0223Z" fill="#FCA89E"/>
<path d="M35.2251 13.7821C35.7791 12.3474 36.5768 10.2757 35.5298 7.68874C34.4829 5.10184 33.1534 7.82723 31.7187 7.93802C30.284 8.0488 30.0569 5.42866 33.0481 4.43157C36.0394 3.43447 36.8814 3.77238 37.9838 5.31787C39.0861 6.86337 39.8616 11.6882 39.8616 11.6882L35.2251 13.7821Z" fill="#FCA89E"/>
<path d="M42.1106 11.0788C41.8891 9.86565 40.8809 7.2732 40.482 5.03527C40.122 3.01893 38.9642 2.49822 35.0756 2.60901C32.1064 2.6921 33.4137 4.59212 34.1948 4.59212C34.9759 4.59212 37.7788 4.29299 38.2774 5.88835C38.7039 7.27874 39.2412 12.2642 39.2412 12.2642L42.1106 11.0788Z" fill="#FCA89E"/>
<path d="M41.9999 13.0066C41.9999 11.4666 43.2685 7.40624 42.8308 6.3039C42.3932 5.20156 40.7591 2.27674 39.7675 2.80299C38.9865 3.2129 40.399 6.3039 40.399 7.29546C40.399 8.28701 39.8451 11.8212 39.8451 11.8212L41.9999 13.0066Z" fill="#FCA89E"/>
<path d="M42.856 0.0869372L25.9194 10.885L26.9141 12.4451L43.8506 1.647L42.856 0.0869372Z" fill="#DA3F3A"/>
<path d="M25.9189 10.8849L26.916 12.4415H25.5145C25.4817 12.4413 25.4494 12.4331 25.4205 12.4174C25.3917 12.4018 25.3671 12.3793 25.349 12.3519C25.3309 12.3245 25.3199 12.2931 25.3169 12.2604C25.3139 12.2277 25.319 12.1947 25.3317 12.1645L25.9189 10.8849Z" fill="#61B3DB"/>
<path d="M30.9155 11.7491C30.8258 11.9166 30.6734 12.0416 30.4916 12.0967C30.3098 12.1518 30.1135 12.1323 29.9461 12.0427C29.7786 11.9531 29.6536 11.8006 29.5985 11.6188C29.5434 11.437 29.5629 11.2408 29.6525 11.0733C29.7429 10.9051 29.8963 10.7797 30.0792 10.7247C30.262 10.6696 30.4592 10.6894 30.6274 10.7797C30.71 10.8244 30.783 10.885 30.8422 10.9579C30.9014 11.0308 30.9457 11.1147 30.9724 11.2047C30.9992 11.2948 31.0079 11.3892 30.9981 11.4826C30.9884 11.576 30.9603 11.6666 30.9155 11.7491Z" fill="white"/>
<path d="M44.1215 0.963873C44.1215 1.15474 44.0648 1.34131 43.9586 1.49993C43.8525 1.65856 43.7016 1.78209 43.5252 1.85488C43.3487 1.92767 43.1546 1.94643 42.9675 1.90878C42.7804 1.87114 42.6087 1.77879 42.4741 1.64344C42.3395 1.50809 42.2482 1.33583 42.2116 1.14849C42.175 0.961159 42.1949 0.767188 42.2687 0.591165C42.3425 0.415143 42.4669 0.264996 42.6262 0.159755C42.7854 0.054514 42.9723 -0.00108102 43.1632 1.59251e-05C43.2895 1.38149e-05 43.4145 0.024983 43.5312 0.0734891C43.6478 0.121995 43.7537 0.193078 43.8428 0.282654C43.9318 0.37223 44.0023 0.478529 44.0501 0.595438C44.098 0.712347 44.1222 0.83756 44.1215 0.963873Z" fill="#2D80AA"/>
</svg>
